#VRML V2.0 utf8
# Arduino Nano placeholder, Module:Arduino_Nano lib frame (pin1 origin, USB at +y)
Transform {
  children [
    Transform { translation 0.000 -7.000 0.492 children Shape {
      appearance Appearance { material Material { diffuseColor 0.08 0.08 0.08 specularColor 0.2 0.2 0.2 shininess 0.3 } }
      geometry Box { size 1.000 15.000 0.984 } } }
    Transform { translation 6.000 -7.000 0.492 children Shape {
      appearance Appearance { material Material { diffuseColor 0.08 0.08 0.08 specularColor 0.2 0.2 0.2 shininess 0.3 } }
      geometry Box { size 1.000 15.000 0.984 } } }
    Transform { translation 3.000 -7.122 1.299 children Shape {
      appearance Appearance { material Material { diffuseColor 0.06 0.32 0.14 specularColor 0.1 0.3 0.2 shininess 0.4 } }
      geometry Box { size 7.000 17.000 0.630 } } }
    Transform { translation 3.000 -5.512 1.791 children Shape {
      appearance Appearance { material Material { diffuseColor 0.08 0.08 0.08 specularColor 0.15 0.15 0.15 shininess 0.5 } }
      geometry Box { size 2.756 2.756 0.354 } } }
    Transform { translation 1.575 -3.150 1.732 children Shape {
      appearance Appearance { material Material { diffuseColor 0.08 0.08 0.08 specularColor 0.2 0.2 0.2 shininess 0.3 } }
      geometry Box { size 1.181 0.787 0.236 } } }
    Transform { translation 4.331 -9.843 1.732 children Shape {
      appearance Appearance { material Material { diffuseColor 0.08 0.08 0.08 specularColor 0.2 0.2 0.2 shininess 0.3 } }
      geometry Box { size 1.181 0.787 0.236 } } }
    Transform { translation 3.000 -15.551 2.165 children Shape {
      appearance Appearance { material Material { diffuseColor 0.75 0.77 0.8 specularColor 0.9 0.9 0.9 shininess 0.8 } }
      geometry Box { size 3.031 3.346 1.102 } } }
    Transform { translation 0.000 -0.000 1.713 children Shape {
      appearance Appearance { material Material { diffuseColor 0.85 0.7 0.25 specularColor 0.9 0.8 0.4 shininess 0.8 } }
      geometry Box { size 0.252 0.252 0.197 } } }
    Transform { translation 6.000 -0.000 1.713 children Shape {
      appearance Appearance { material Material { diffuseColor 0.85 0.7 0.25 specularColor 0.9 0.8 0.4 shininess 0.8 } }
      geometry Box { size 0.252 0.252 0.197 } } }
    Transform { translation 0.000 -1.000 1.713 children Shape {
      appearance Appearance { material Material { diffuseColor 0.85 0.7 0.25 specularColor 0.9 0.8 0.4 shininess 0.8 } }
      geometry Box { size 0.252 0.252 0.197 } } }
    Transform { translation 6.000 -1.000 1.713 children Shape {
      appearance Appearance { material Material { diffuseColor 0.85 0.7 0.25 specularColor 0.9 0.8 0.4 shininess 0.8 } }
      geometry Box { size 0.252 0.252 0.197 } } }
    Transform { translation 0.000 -2.000 1.713 children Shape {
      appearance Appearance { material Material { diffuseColor 0.85 0.7 0.25 specularColor 0.9 0.8 0.4 shininess 0.8 } }
      geometry Box { size 0.252 0.252 0.197 } } }
    Transform { translation 6.000 -2.000 1.713 children Shape {
      appearance Appearance { material Material { diffuseColor 0.85 0.7 0.25 specularColor 0.9 0.8 0.4 shininess 0.8 } }
      geometry Box { size 0.252 0.252 0.197 } } }
    Transform { translation 0.000 -3.000 1.713 children Shape {
      appearance Appearance { material Material { diffuseColor 0.85 0.7 0.25 specularColor 0.9 0.8 0.4 shininess 0.8 } }
      geometry Box { size 0.252 0.252 0.197 } } }
    Transform { translation 6.000 -3.000 1.713 children Shape {
      appearance Appearance { material Material { diffuseColor 0.85 0.7 0.25 specularColor 0.9 0.8 0.4 shininess 0.8 } }
      geometry Box { size 0.252 0.252 0.197 } } }
    Transform { translation 0.000 -4.000 1.713 children Shape {
      appearance Appearance { material Material { diffuseColor 0.85 0.7 0.25 specularColor 0.9 0.8 0.4 shininess 0.8 } }
      geometry Box { size 0.252 0.252 0.197 } } }
    Transform { translation 6.000 -4.000 1.713 children Shape {
      appearance Appearance { material Material { diffuseColor 0.85 0.7 0.25 specularColor 0.9 0.8 0.4 shininess 0.8 } }
      geometry Box { size 0.252 0.252 0.197 } } }
    Transform { translation 0.000 -5.000 1.713 children Shape {
      appearance Appearance { material Material { diffuseColor 0.85 0.7 0.25 specularColor 0.9 0.8 0.4 shininess 0.8 } }
      geometry Box { size 0.252 0.252 0.197 } } }
    Transform { translation 6.000 -5.000 1.713 children Shape {
      appearance Appearance { material Material { diffuseColor 0.85 0.7 0.25 specularColor 0.9 0.8 0.4 shininess 0.8 } }
      geometry Box { size 0.252 0.252 0.197 } } }
    Transform { translation 0.000 -6.000 1.713 children Shape {
      appearance Appearance { material Material { diffuseColor 0.85 0.7 0.25 specularColor 0.9 0.8 0.4 shininess 0.8 } }
      geometry Box { size 0.252 0.252 0.197 } } }
    Transform { translation 6.000 -6.000 1.713 children Shape {
      appearance Appearance { material Material { diffuseColor 0.85 0.7 0.25 specularColor 0.9 0.8 0.4 shininess 0.8 } }
      geometry Box { size 0.252 0.252 0.197 } } }
    Transform { translation 0.000 -7.000 1.713 children Shape {
      appearance Appearance { material Material { diffuseColor 0.85 0.7 0.25 specularColor 0.9 0.8 0.4 shininess 0.8 } }
      geometry Box { size 0.252 0.252 0.197 } } }
    Transform { translation 6.000 -7.000 1.713 children Shape {
      appearance Appearance { material Material { diffuseColor 0.85 0.7 0.25 specularColor 0.9 0.8 0.4 shininess 0.8 } }
      geometry Box { size 0.252 0.252 0.197 } } }
    Transform { translation 0.000 -8.000 1.713 children Shape {
      appearance Appearance { material Material { diffuseColor 0.85 0.7 0.25 specularColor 0.9 0.8 0.4 shininess 0.8 } }
      geometry Box { size 0.252 0.252 0.197 } } }
    Transform { translation 6.000 -8.000 1.713 children Shape {
      appearance Appearance { material Material { diffuseColor 0.85 0.7 0.25 specularColor 0.9 0.8 0.4 shininess 0.8 } }
      geometry Box { size 0.252 0.252 0.197 } } }
    Transform { translation 0.000 -9.000 1.713 children Shape {
      appearance Appearance { material Material { diffuseColor 0.85 0.7 0.25 specularColor 0.9 0.8 0.4 shininess 0.8 } }
      geometry Box { size 0.252 0.252 0.197 } } }
    Transform { translation 6.000 -9.000 1.713 children Shape {
      appearance Appearance { material Material { diffuseColor 0.85 0.7 0.25 specularColor 0.9 0.8 0.4 shininess 0.8 } }
      geometry Box { size 0.252 0.252 0.197 } } }
    Transform { translation 0.000 -10.000 1.713 children Shape {
      appearance Appearance { material Material { diffuseColor 0.85 0.7 0.25 specularColor 0.9 0.8 0.4 shininess 0.8 } }
      geometry Box { size 0.252 0.252 0.197 } } }
    Transform { translation 6.000 -10.000 1.713 children Shape {
      appearance Appearance { material Material { diffuseColor 0.85 0.7 0.25 specularColor 0.9 0.8 0.4 shininess 0.8 } }
      geometry Box { size 0.252 0.252 0.197 } } }
    Transform { translation 0.000 -11.000 1.713 children Shape {
      appearance Appearance { material Material { diffuseColor 0.85 0.7 0.25 specularColor 0.9 0.8 0.4 shininess 0.8 } }
      geometry Box { size 0.252 0.252 0.197 } } }
    Transform { translation 6.000 -11.000 1.713 children Shape {
      appearance Appearance { material Material { diffuseColor 0.85 0.7 0.25 specularColor 0.9 0.8 0.4 shininess 0.8 } }
      geometry Box { size 0.252 0.252 0.197 } } }
    Transform { translation 0.000 -12.000 1.713 children Shape {
      appearance Appearance { material Material { diffuseColor 0.85 0.7 0.25 specularColor 0.9 0.8 0.4 shininess 0.8 } }
      geometry Box { size 0.252 0.252 0.197 } } }
    Transform { translation 6.000 -12.000 1.713 children Shape {
      appearance Appearance { material Material { diffuseColor 0.85 0.7 0.25 specularColor 0.9 0.8 0.4 shininess 0.8 } }
      geometry Box { size 0.252 0.252 0.197 } } }
    Transform { translation 0.000 -13.000 1.713 children Shape {
      appearance Appearance { material Material { diffuseColor 0.85 0.7 0.25 specularColor 0.9 0.8 0.4 shininess 0.8 } }
      geometry Box { size 0.252 0.252 0.197 } } }
    Transform { translation 6.000 -13.000 1.713 children Shape {
      appearance Appearance { material Material { diffuseColor 0.85 0.7 0.25 specularColor 0.9 0.8 0.4 shininess 0.8 } }
      geometry Box { size 0.252 0.252 0.197 } } }
    Transform { translation 0.000 -14.000 1.713 children Shape {
      appearance Appearance { material Material { diffuseColor 0.85 0.7 0.25 specularColor 0.9 0.8 0.4 shininess 0.8 } }
      geometry Box { size 0.252 0.252 0.197 } } }
    Transform { translation 6.000 -14.000 1.713 children Shape {
      appearance Appearance { material Material { diffuseColor 0.85 0.7 0.25 specularColor 0.9 0.8 0.4 shininess 0.8 } }
      geometry Box { size 0.252 0.252 0.197 } } }
  ]
}
