#VRML V2.0 utf8
# INA226 breakout placeholder ~22x18mm per fp descr, INA226_Module_Breakout frame
Transform {
  children [
    Transform { translation -0.500 0.394 1.317 children Shape {
      appearance Appearance { material Material { diffuseColor 0.35 0.12 0.5 specularColor 0.2 0.2 0.3 shininess 0.3 } }
      geometry Box { size 8.661 7.087 0.630 } } }
    Transform { translation -0.500 0.394 1.535 children Shape {
      appearance Appearance { material Material { diffuseColor 0.08 0.08 0.08 specularColor 0.15 0.15 0.15 shininess 0.5 } }
      geometry Box { size 1.969 1.732 0.472 } } }
    Transform { translation -0.500 2.756 1.811 children Shape {
      appearance Appearance { material Material { diffuseColor 0.2 0.35 0.6 specularColor 0.3 0.3 0.4 shininess 0.4 } }
      geometry Box { size 3.937 1.969 1.772 } } }
    Transform { translation -2.000 -2.559 0.659 children Shape {
      appearance Appearance { material Material { diffuseColor 0.85 0.7 0.25 specularColor 0.9 0.8 0.4 shininess 0.8 } }
      geometry Box { size 0.252 0.252 1.317 } } }
    Transform { translation -1.000 -2.559 0.659 children Shape {
      appearance Appearance { material Material { diffuseColor 0.85 0.7 0.25 specularColor 0.9 0.8 0.4 shininess 0.8 } }
      geometry Box { size 0.252 0.252 1.317 } } }
    Transform { translation 0.000 -2.559 0.659 children Shape {
      appearance Appearance { material Material { diffuseColor 0.85 0.7 0.25 specularColor 0.9 0.8 0.4 shininess 0.8 } }
      geometry Box { size 0.252 0.252 1.317 } } }
    Transform { translation 1.000 -2.559 0.659 children Shape {
      appearance Appearance { material Material { diffuseColor 0.85 0.7 0.25 specularColor 0.9 0.8 0.4 shininess 0.8 } }
      geometry Box { size 0.252 0.252 1.317 } } }
  ]
}
