%TF.GenerationSoftware,KiCad,Pcbnew,9.0.5*%
%TF.CreationDate,2026-06-12T15:12:13-07:00*%
%TF.ProjectId,nova_pcb_v6_power_v2,6e6f7661-5f70-4636-925f-76365f706f77,rev?*%
%TF.SameCoordinates,Original*%
%TF.FileFunction,Copper,L1,Top*%
%TF.FilePolarity,Positive*%
%FSLAX46Y46*%
G04 Gerber Fmt 4.6, Leading zero omitted, Abs format (unit mm)*
G04 Created by KiCad (PCBNEW 9.0.5) date 2026-06-12 15:12:13*
%MOMM*%
%LPD*%
G01*
G04 APERTURE LIST*
G04 Aperture macros list*
%AMRoundRect*
0 Rectangle with rounded corners*
0 $1 Rounding radius*
0 $2 $3 $4 $5 $6 $7 $8 $9 X,Y pos of 4 corners*
0 Add a 4 corners polygon primitive as box body*
4,1,4,$2,$3,$4,$5,$6,$7,$8,$9,$2,$3,0*
0 Add four circle primitives for the rounded corners*
1,1,$1+$1,$2,$3*
1,1,$1+$1,$4,$5*
1,1,$1+$1,$6,$7*
1,1,$1+$1,$8,$9*
0 Add four rect primitives between the rounded corners*
20,1,$1+$1,$2,$3,$4,$5,0*
20,1,$1+$1,$4,$5,$6,$7,0*
20,1,$1+$1,$6,$7,$8,$9,0*
20,1,$1+$1,$8,$9,$2,$3,0*%
G04 Aperture macros list end*
%TA.AperFunction,ComponentPad*%
%ADD10R,3.800000X3.800000*%
%TD*%
%TA.AperFunction,ComponentPad*%
%ADD11C,3.800000*%
%TD*%
%TA.AperFunction,ComponentPad*%
%ADD12C,1.700000*%
%TD*%
%TA.AperFunction,ComponentPad*%
%ADD13R,1.700000X1.700000*%
%TD*%
%TA.AperFunction,ComponentPad*%
%ADD14RoundRect,0.760000X1.140000X-1.140000X1.140000X1.140000X-1.140000X1.140000X-1.140000X-1.140000X0*%
%TD*%
%TA.AperFunction,ComponentPad*%
%ADD15RoundRect,0.250000X0.600000X-0.600000X0.600000X0.600000X-0.600000X0.600000X-0.600000X-0.600000X0*%
%TD*%
%TA.AperFunction,ComponentPad*%
%ADD16RoundRect,0.760000X1.140000X1.140000X-1.140000X1.140000X-1.140000X-1.140000X1.140000X-1.140000X0*%
%TD*%
%TA.AperFunction,ComponentPad*%
%ADD17RoundRect,1.500000X-1.500000X1.500000X-1.500000X-1.500000X1.500000X-1.500000X1.500000X1.500000X0*%
%TD*%
%TA.AperFunction,ComponentPad*%
%ADD18C,6.000000*%
%TD*%
%TA.AperFunction,ComponentPad*%
%ADD19RoundRect,0.250001X0.949999X-0.949999X0.949999X0.949999X-0.949999X0.949999X-0.949999X-0.949999X0*%
%TD*%
%TA.AperFunction,ComponentPad*%
%ADD20C,2.400000*%
%TD*%
%TA.AperFunction,ComponentPad*%
%ADD21RoundRect,0.250000X-0.750000X-0.750000X0.750000X-0.750000X0.750000X0.750000X-0.750000X0.750000X0*%
%TD*%
%TA.AperFunction,ComponentPad*%
%ADD22C,2.000000*%
%TD*%
%TA.AperFunction,ComponentPad*%
%ADD23RoundRect,0.250000X0.725000X-0.600000X0.725000X0.600000X-0.725000X0.600000X-0.725000X-0.600000X0*%
%TD*%
%TA.AperFunction,ComponentPad*%
%ADD24O,1.950000X1.700000*%
%TD*%
%TA.AperFunction,ComponentPad*%
%ADD25R,2.000000X1.905000*%
%TD*%
%TA.AperFunction,ComponentPad*%
%ADD26O,2.000000X1.905000*%
%TD*%
%TA.AperFunction,ComponentPad*%
%ADD27RoundRect,0.250000X0.750000X-0.750000X0.750000X0.750000X-0.750000X0.750000X-0.750000X-0.750000X0*%
%TD*%
%TA.AperFunction,ComponentPad*%
%ADD28RoundRect,0.250001X-0.949999X0.949999X-0.949999X-0.949999X0.949999X-0.949999X0.949999X0.949999X0*%
%TD*%
%TA.AperFunction,ViaPad*%
%ADD29C,0.600000*%
%TD*%
%TA.AperFunction,ViaPad*%
%ADD30C,1.000000*%
%TD*%
%TA.AperFunction,ViaPad*%
%ADD31C,0.800000*%
%TD*%
%TA.AperFunction,ViaPad*%
%ADD32C,0.500000*%
%TD*%
%TA.AperFunction,Conductor*%
%ADD33C,2.500000*%
%TD*%
%TA.AperFunction,Conductor*%
%ADD34C,2.000000*%
%TD*%
%TA.AperFunction,Conductor*%
%ADD35C,3.000000*%
%TD*%
%TA.AperFunction,Conductor*%
%ADD36C,1.500000*%
%TD*%
%TA.AperFunction,Conductor*%
%ADD37C,1.300000*%
%TD*%
%TA.AperFunction,Conductor*%
%ADD38C,0.250000*%
%TD*%
%TA.AperFunction,Conductor*%
%ADD39C,0.300000*%
%TD*%
%TA.AperFunction,Conductor*%
%ADD40C,0.200000*%
%TD*%
G04 APERTURE END LIST*
D10*
%TO.P,U5,1,Pin_1*%
%TO.N,VBAT_PROTECTED*%
X181000000Y-101500000D03*
D11*
%TO.P,U5,2,Pin_2*%
%TO.N,GND*%
X171000000Y-96500000D03*
X181000000Y-96500000D03*
D12*
X174730000Y-91000000D03*
D13*
%TO.P,U5,3,Pin_3*%
%TO.N,VBAT_PROTECTED*%
X177270000Y-91000000D03*
D10*
%TO.P,U5,4,Pin_4*%
%TO.N,V7V5_ARM*%
X171000000Y-101500000D03*
%TD*%
D12*
%TO.P,U9,4,SDA*%
%TO.N,I2C_SDA*%
X110540000Y-83500000D03*
%TO.P,U9,5,SCL*%
%TO.N,I2C_SCL*%
X108000000Y-83500000D03*
%TO.P,U9,6,VS*%
%TO.N,+3V3*%
X102920000Y-83500000D03*
%TO.P,U9,7,GND*%
%TO.N,GND*%
X105460000Y-83500000D03*
%TD*%
D14*
%TO.P,J13,1,Pin_1*%
%TO.N,V12_L2*%
X191000000Y-133000000D03*
D11*
%TO.P,J13,2,Pin_2*%
%TO.N,GND*%
X191000000Y-128000000D03*
%TD*%
D14*
%TO.P,J7,1,Pin_1*%
%TO.N,V12_HIP*%
X191000000Y-85000000D03*
D11*
%TO.P,J7,2,Pin_2*%
%TO.N,GND*%
X191000000Y-80000000D03*
%TD*%
D15*
%TO.P,J20,1,Pin_1*%
%TO.N,V5_AUX*%
X151000000Y-128890000D03*
D12*
%TO.P,J20,2,Pin_2*%
X151000000Y-126350000D03*
%TO.P,J20,3,Pin_3*%
%TO.N,GND*%
X153540000Y-128890000D03*
%TO.P,J20,4,Pin_4*%
X153540000Y-126350000D03*
%TO.P,J20,5,Pin_5*%
%TO.N,+3V3*%
X156080000Y-128890000D03*
%TO.P,J20,6,Pin_6*%
%TO.N,BUS_SERVO*%
X156080000Y-126350000D03*
%TO.P,J20,7,Pin_7*%
%TO.N,I2C_SDA*%
X158620000Y-128890000D03*
%TO.P,J20,8,Pin_8*%
%TO.N,I2C_SCL*%
X158620000Y-126350000D03*
%TO.P,J20,9,Pin_9*%
%TO.N,BATT_LOW*%
X161160000Y-128890000D03*
%TO.P,J20,10,Pin_10*%
%TO.N,GND*%
X161160000Y-126350000D03*
%TO.P,J20,11,Pin_11*%
X163700000Y-128890000D03*
%TO.P,J20,12,Pin_12*%
X163700000Y-126350000D03*
%TD*%
D14*
%TO.P,J3,1,Pin_1*%
%TO.N,V7V5_LEG*%
X90000000Y-83500000D03*
D11*
%TO.P,J3,2,Pin_2*%
%TO.N,GND*%
X90000000Y-78500000D03*
%TD*%
D16*
%TO.P,J5,1,Pin_1*%
%TO.N,V7V5_LEG*%
X94450000Y-123000000D03*
D11*
%TO.P,J5,2,Pin_2*%
%TO.N,GND*%
X89450000Y-123000000D03*
%TD*%
D14*
%TO.P,J12,1,Pin_1*%
%TO.N,V12_JET*%
X191000000Y-117000000D03*
D11*
%TO.P,J12,2,Pin_2*%
%TO.N,GND*%
X191000000Y-112000000D03*
%TD*%
D10*
%TO.P,U3,1,Pin_1*%
%TO.N,VBAT_PROTECTED*%
X135500000Y-102000000D03*
D11*
%TO.P,U3,2,Pin_2*%
%TO.N,GND*%
X140500000Y-92000000D03*
X140500000Y-102000000D03*
D12*
X146000000Y-95730000D03*
D13*
%TO.P,U3,3,Pin_3*%
%TO.N,EN_BUCKS*%
X146000000Y-98270000D03*
D10*
%TO.P,U3,4,Pin_4*%
%TO.N,V12_L2_RAW*%
X135500000Y-92000000D03*
%TD*%
D14*
%TO.P,J4,1,Pin_1*%
%TO.N,V7V5_LEG*%
X90000000Y-99550000D03*
D11*
%TO.P,J4,2,Pin_2*%
%TO.N,GND*%
X90000000Y-94550000D03*
%TD*%
D13*
%TO.P,M1,1,Pin_1*%
%TO.N,VBAT_PROTECTED*%
X124000000Y-55000000D03*
D12*
%TO.P,M1,2,Pin_2*%
%TO.N,GND*%
X124000000Y-57540000D03*
%TD*%
D10*
%TO.P,U1,1,Pin_1*%
%TO.N,VBAT_PROTECTED*%
X99500000Y-102000000D03*
D11*
%TO.P,U1,2,Pin_2*%
%TO.N,GND*%
X104500000Y-92000000D03*
X104500000Y-102000000D03*
D12*
X110000000Y-95730000D03*
D13*
%TO.P,U1,3,Pin_3*%
%TO.N,EN_BUCKS*%
X110000000Y-98270000D03*
D10*
%TO.P,U1,4,Pin_4*%
%TO.N,V7V5_LEG*%
X99500000Y-92000000D03*
%TD*%
D17*
%TO.P,J1,1,Pin_1*%
%TO.N,/01 Battery Input + Reverse Protection/VBAT*%
X90800000Y-57050000D03*
D18*
%TO.P,J1,2,Pin_2*%
%TO.N,/01 Battery Input + Reverse Protection/BATT_NEG*%
X90800000Y-64250000D03*
%TD*%
D19*
%TO.P,SW2,1,A*%
%TO.N,GND*%
X140000000Y-57000000D03*
D20*
%TO.P,SW2,2,B*%
%TO.N,EN_SW*%
X145000000Y-57000000D03*
%TD*%
D19*
%TO.P,SW1,1,A*%
%TO.N,/01 Battery Input + Reverse Protection/VBAT*%
X113000000Y-57000000D03*
D20*
%TO.P,SW1,2,B*%
%TO.N,VBAT_PROTECTED*%
X118000000Y-57000000D03*
%TD*%
D21*
%TO.P,C9,1*%
%TO.N,VBAT_PROTECTED*%
X114000000Y-133000000D03*
D22*
%TO.P,C9,2*%
%TO.N,GND*%
X119000000Y-133000000D03*
%TD*%
D21*
%TO.P,C8,1*%
%TO.N,VBAT_PROTECTED*%
X136500000Y-112000000D03*
D22*
%TO.P,C8,2*%
%TO.N,GND*%
X141500000Y-112000000D03*
%TD*%
D23*
%TO.P,J8,1,Pin_1*%
%TO.N,GND*%
X191000000Y-101000000D03*
D24*
%TO.P,J8,2,Pin_2*%
%TO.N,V7V5_LEG*%
X191000000Y-98500000D03*
%TO.P,J8,3,Pin_3*%
%TO.N,BUS_SERVO*%
X191000000Y-96000000D03*
%TD*%
D13*
%TO.P,J2,1,Pin_1*%
%TO.N,VBAT_PROTECTED*%
X130000000Y-56000000D03*
D12*
%TO.P,J2,2,Pin_2*%
%TO.N,GND*%
X130000000Y-58540000D03*
%TO.P,J2,3,Pin_3*%
%TO.N,V5_AUX*%
X130000000Y-61080000D03*
%TD*%
%TO.P,U11,4,SDA*%
%TO.N,I2C_SDA*%
X158540000Y-83500000D03*
%TO.P,U11,5,SCL*%
%TO.N,I2C_SCL*%
X156000000Y-83500000D03*
%TO.P,U11,6,VS*%
%TO.N,+3V3*%
X150920000Y-83500000D03*
%TO.P,U11,7,GND*%
%TO.N,GND*%
X153460000Y-83500000D03*
%TD*%
D10*
%TO.P,U4,1,Pin_1*%
%TO.N,VBAT_PROTECTED*%
X153500000Y-102000000D03*
D11*
%TO.P,U4,2,Pin_2*%
%TO.N,GND*%
X158500000Y-92000000D03*
X158500000Y-102000000D03*
D12*
X164000000Y-95730000D03*
D13*
%TO.P,U4,3,Pin_3*%
%TO.N,EN_JET*%
X164000000Y-98270000D03*
D10*
%TO.P,U4,4,Pin_4*%
%TO.N,V12_JET*%
X153500000Y-92000000D03*
%TD*%
D25*
%TO.P,Q1,1,G*%
%TO.N,VBAT_PROTECTED*%
X98500000Y-56500000D03*
D26*
%TO.P,Q1,2,S*%
%TO.N,/01 Battery Input + Reverse Protection/BATT_NEG*%
X101040000Y-56500000D03*
%TO.P,Q1,3,D*%
%TO.N,GND*%
X103580000Y-56500000D03*
%TD*%
D10*
%TO.P,U2,1,Pin_1*%
%TO.N,VBAT_PROTECTED*%
X117500000Y-102000000D03*
D11*
%TO.P,U2,2,Pin_2*%
%TO.N,GND*%
X122500000Y-92000000D03*
X122500000Y-102000000D03*
D12*
X128000000Y-95730000D03*
D13*
%TO.P,U2,3,Pin_3*%
%TO.N,EN_BUCKS*%
X128000000Y-98270000D03*
D10*
%TO.P,U2,4,Pin_4*%
%TO.N,V12_HIP*%
X117500000Y-92000000D03*
%TD*%
D12*
%TO.P,U10,4,SDA*%
%TO.N,I2C_SDA*%
X134040000Y-83500000D03*
%TO.P,U10,5,SCL*%
%TO.N,I2C_SCL*%
X131500000Y-83500000D03*
%TO.P,U10,6,VS*%
%TO.N,+3V3*%
X126420000Y-83500000D03*
%TO.P,U10,7,GND*%
%TO.N,GND*%
X128960000Y-83500000D03*
%TD*%
D14*
%TO.P,J6,1,Pin_1*%
%TO.N,V7V5_LEG*%
X191000000Y-69000000D03*
D11*
%TO.P,J6,2,Pin_2*%
%TO.N,GND*%
X191000000Y-64000000D03*
%TD*%
D19*
%TO.P,C2,1*%
%TO.N,V7V5_LEG*%
X105850000Y-114773959D03*
D20*
%TO.P,C2,2*%
%TO.N,GND*%
X105850000Y-109773959D03*
%TD*%
D27*
%TO.P,C6,1*%
%TO.N,V12_L2*%
X180000000Y-118000000D03*
D22*
%TO.P,C6,2*%
%TO.N,GND*%
X180000000Y-113000000D03*
%TD*%
D19*
%TO.P,C1,1*%
%TO.N,V7V5_LEG*%
X91450000Y-114350000D03*
D20*
%TO.P,C1,2*%
%TO.N,GND*%
X91450000Y-109350000D03*
%TD*%
D19*
%TO.P,C3,1*%
%TO.N,V7V5_LEG*%
X121800000Y-114750000D03*
D20*
%TO.P,C3,2*%
%TO.N,GND*%
X121800000Y-109750000D03*
%TD*%
D19*
%TO.P,C4,1*%
%TO.N,V7V5_LEG*%
X165000000Y-61300000D03*
D20*
%TO.P,C4,2*%
%TO.N,GND*%
X165000000Y-56300000D03*
%TD*%
D28*
%TO.P,C5,1*%
%TO.N,V12_HIP*%
X180000000Y-80000000D03*
D20*
%TO.P,C5,2*%
%TO.N,GND*%
X180000000Y-85000000D03*
%TD*%
D29*
%TO.N,GND*%
X158369045Y-130410004D03*
X146500000Y-136300000D03*
X141818486Y-133780115D03*
X138300000Y-127700000D03*
D30*
%TO.N,VBAT_PROTECTED*%
X104000000Y-135900000D03*
D29*
%TO.N,V5_AUX*%
X125500000Y-137300000D03*
X134000000Y-131180000D03*
X92660000Y-130530000D03*
X125500000Y-124000000D03*
X122850000Y-130400000D03*
X134000000Y-124000000D03*
D31*
%TO.N,BUS_SERVO*%
X177600000Y-117300000D03*
X177600000Y-120550000D03*
D29*
%TO.N,+3V3*%
X130229999Y-74200000D03*
X129300000Y-99700000D03*
X130900000Y-128699999D03*
X129300000Y-96800000D03*
%TO.N,I2C_SCL*%
X141000000Y-133900000D03*
%TO.N,I2C_SDA*%
X159250000Y-77600000D03*
X111250000Y-67000000D03*
X159250000Y-81500000D03*
D32*
%TO.N,BATT_LOW*%
X132400000Y-139900000D03*
X93000000Y-139900000D03*
X127100000Y-139900000D03*
X132400000Y-126350000D03*
X93000000Y-136600000D03*
X127100000Y-127800000D03*
%TO.N,/06 Safety Chain/HARDCUT*%
X133600000Y-137150000D03*
X97150000Y-139300000D03*
X90100000Y-139300000D03*
X144400000Y-139300000D03*
X97150000Y-133949999D03*
X135600000Y-139300000D03*
X90100000Y-129199999D03*
X133600000Y-139300000D03*
X135600000Y-133820000D03*
X144400000Y-134550000D03*
D29*
%TO.N,EN_BUCKS*%
X139400000Y-137600000D03*
D32*
%TO.N,/06 Safety Chain/VSENSE*%
X123000000Y-133820000D03*
X102900000Y-135350000D03*
X89360000Y-137500000D03*
X89360000Y-129199999D03*
X123600000Y-137500000D03*
X99500000Y-137500000D03*
X123600000Y-127800000D03*
X123000000Y-137500000D03*
X102900000Y-137500000D03*
%TO.N,/06 Safety Chain/VREF_G*%
X126300000Y-133820000D03*
X126300000Y-138700000D03*
X124300000Y-135250000D03*
X128199999Y-126150000D03*
X124300000Y-138700000D03*
X128199999Y-138700000D03*
X88700000Y-138700000D03*
X88700000Y-136800000D03*
%TO.N,/06 Safety Chain/VREF_H*%
X130400000Y-138100000D03*
X131699999Y-138100000D03*
X130400000Y-133820000D03*
X129000000Y-138100000D03*
X129000000Y-135300000D03*
X87400000Y-129199999D03*
X87400000Y-138100000D03*
X131699999Y-135500000D03*
D29*
%TO.N,EN_SW*%
X138000000Y-101700000D03*
X136950000Y-128550000D03*
X138000000Y-68400000D03*
X138000000Y-86800000D03*
X137240000Y-135350000D03*
%TO.N,EN_JET*%
X142560000Y-135000000D03*
X142500000Y-123750000D03*
X165900000Y-120500000D03*
%TD*%
D33*
%TO.N,V7V5_LEG*%
X109000000Y-64599999D02*
X110100000Y-63500000D01*
D34*
X189750000Y-98500000D02*
X187500000Y-96250000D01*
D35*
X186250000Y-73750000D02*
X186250000Y-95000000D01*
D33*
X110100000Y-63500000D02*
X146000000Y-63500000D01*
D35*
X186250000Y-73750000D02*
X191000000Y-69000000D01*
D34*
X189750000Y-98500000D02*
X191000000Y-98500000D01*
D33*
X109000000Y-67700000D02*
X109000000Y-64599999D01*
D35*
X186250000Y-95000000D02*
X187500000Y-96250000D01*
D36*
X121800000Y-114750000D02*
X126000000Y-114750000D01*
D35*
%TO.N,/01 Battery Input + Reverse Protection/VBAT*%
X109001000Y-53001000D02*
X113000000Y-57000000D01*
X90800000Y-57050000D02*
X94849000Y-53001000D01*
X94849000Y-53001000D02*
X109001000Y-53001000D01*
D37*
%TO.N,/01 Battery Input + Reverse Protection/BATT_NEG*%
X100886500Y-58403500D02*
X100000000Y-58403500D01*
X95040000Y-64250000D02*
X90800000Y-64250000D01*
X101040000Y-58250000D02*
X95040000Y-64250000D01*
D35*
X90800000Y-64250000D02*
X93750000Y-64250000D01*
D37*
X98653500Y-59750000D02*
X100000000Y-58403500D01*
X101040000Y-58250000D02*
X101040000Y-56500000D01*
X95040000Y-64250000D02*
X93750000Y-64250000D01*
X101040000Y-58250000D02*
X100886500Y-58403500D01*
D35*
X93750000Y-64250000D02*
X98250000Y-59750000D01*
D37*
X98250000Y-59750000D02*
X98653500Y-59750000D01*
D38*
%TO.N,V5_AUX*%
X94270000Y-130530000D02*
X99500000Y-125300000D01*
X92660000Y-130530000D02*
X94270000Y-130530000D01*
X99500000Y-125300000D02*
X106800000Y-125300000D01*
X106800000Y-125300000D02*
X111900000Y-130400000D01*
X125500000Y-137300000D02*
X125500000Y-124000000D01*
X134000000Y-131180000D02*
X134000000Y-124000000D01*
X111900000Y-130400000D02*
X122850000Y-130400000D01*
D39*
%TO.N,BUS_SERVO*%
X177600000Y-120550000D02*
X177600000Y-117300000D01*
D36*
%TO.N,V12_JET*%
X147500000Y-86000000D02*
X147500000Y-81040000D01*
X153500000Y-92000000D02*
X147500000Y-86000000D01*
X167776000Y-82566000D02*
X164750000Y-79540000D01*
X147500000Y-81040000D02*
X149000000Y-79540000D01*
X191000000Y-117000000D02*
X189500000Y-115500000D01*
X149000000Y-79540000D02*
X164750000Y-79540000D01*
X174500000Y-115500000D02*
X167776000Y-108776000D01*
X189500000Y-115500000D02*
X174500000Y-115500000D01*
X167776000Y-108776000D02*
X167776000Y-82566000D01*
D38*
%TO.N,+3V3*%
X129300000Y-89300000D02*
X129300000Y-96800000D01*
X129300000Y-128400000D02*
X130900000Y-128699999D01*
X126420000Y-83500000D02*
X126420000Y-89300000D01*
X102920000Y-89300000D02*
X130229999Y-89300000D01*
X102920000Y-83500000D02*
X102920000Y-89300000D01*
X130229999Y-89300000D02*
X130229999Y-74200000D01*
X129300000Y-99700000D02*
X129300000Y-128400000D01*
%TO.N,I2C_SCL*%
X141000000Y-122500000D02*
X141000000Y-133900000D01*
D40*
X120250000Y-71250000D02*
X129500000Y-71250000D01*
D38*
X156250000Y-122000000D02*
X156000000Y-121750000D01*
X156000000Y-94000000D02*
X156000000Y-83500000D01*
X155750000Y-122000000D02*
X141500000Y-122000000D01*
X156000000Y-95000000D02*
X156000000Y-94000000D01*
D40*
X108000000Y-83500000D02*
X120250000Y-71250000D01*
D38*
X141500000Y-122000000D02*
X141000000Y-122500000D01*
X156000000Y-122000000D02*
X156000000Y-121750000D01*
X155500000Y-94500000D02*
X156000000Y-94000000D01*
X155500000Y-94500000D02*
X156000000Y-94500000D01*
X156000000Y-121750000D02*
X156000000Y-95000000D01*
X156250000Y-122000000D02*
X156000000Y-122000000D01*
X131500000Y-94100000D02*
X131500000Y-83500000D01*
X156250000Y-122000000D02*
X158620000Y-124370000D01*
X156000000Y-122000000D02*
X155750000Y-122000000D01*
X155500000Y-94500000D02*
X156000000Y-95000000D01*
X155750000Y-122000000D02*
X156000000Y-121750000D01*
X131900000Y-94500000D02*
X131500000Y-94100000D01*
X131500000Y-83100000D02*
X131500000Y-83500000D01*
X131900000Y-94500000D02*
X155500000Y-94500000D01*
X158620000Y-124370000D02*
X158620000Y-126350000D01*
D40*
X131500000Y-73250000D02*
X131500000Y-83500000D01*
X129500000Y-71250000D02*
X131500000Y-73250000D01*
D38*
%TO.N,I2C_SDA*%
X134039999Y-82500000D02*
X134039999Y-83500000D01*
D40*
X160546000Y-130816000D02*
X165534000Y-130816000D01*
D38*
X166600000Y-129750000D02*
X166600000Y-86400000D01*
X127040000Y-67000000D02*
X134750000Y-67000000D01*
X158540000Y-86400000D02*
X158540000Y-83500000D01*
X158540000Y-82200000D02*
X158540000Y-83500000D01*
X134750000Y-67000000D02*
X134750000Y-81800000D01*
X166600000Y-86400000D02*
X158540000Y-86400000D01*
X111250000Y-67000000D02*
X127040000Y-67000000D01*
X134750000Y-81800000D02*
X134039999Y-82500000D01*
X134750000Y-67000000D02*
X159250000Y-67000000D01*
D40*
X165534000Y-130816000D02*
X166600000Y-129750000D01*
D38*
X159250000Y-67000000D02*
X159250000Y-77600000D01*
X159250000Y-81500000D02*
X158540000Y-82200000D01*
D40*
X158620000Y-128890000D02*
X160546000Y-130816000D01*
D38*
%TO.N,BATT_LOW*%
X127100000Y-127800000D02*
X127100000Y-139900000D01*
X132400000Y-126350000D02*
X132400000Y-139900000D01*
X93000000Y-136600000D02*
X93000000Y-139900000D01*
%TO.N,/06 Safety Chain/HARDCUT*%
X97150000Y-133949999D02*
X97150000Y-139300000D01*
X90100000Y-129199999D02*
X90100000Y-139300000D01*
X135600000Y-133820000D02*
X135600000Y-139300000D01*
X133600000Y-137150000D02*
X133600000Y-139300000D01*
X144400000Y-134550000D02*
X144400000Y-139300000D01*
D39*
%TO.N,EN_BUCKS*%
X110000000Y-98270000D02*
X128000000Y-98270000D01*
X128000000Y-98270000D02*
X146000000Y-98270000D01*
X146000000Y-103000000D02*
X146000000Y-98270000D01*
X139600000Y-105000000D02*
X143500000Y-105000000D01*
X139400000Y-137600000D02*
X139600000Y-137400000D01*
X139600000Y-137400000D02*
X139600000Y-105000000D01*
X143500000Y-105000000D02*
X146000000Y-103000000D01*
D38*
%TO.N,/06 Safety Chain/VSENSE*%
X89360000Y-129199999D02*
X89360000Y-137500000D01*
X123000000Y-133820000D02*
X123000000Y-137500000D01*
X100500000Y-138500000D02*
X101900000Y-138500000D01*
X101900000Y-138500000D02*
X102900000Y-137500000D01*
X99500000Y-137500000D02*
X100500000Y-138500000D01*
X123600000Y-127800000D02*
X123600000Y-137500000D01*
X102900000Y-135350000D02*
X102900000Y-137500000D01*
%TO.N,/06 Safety Chain/VREF_G*%
X88700000Y-136800000D02*
X88700000Y-138700000D01*
X126300000Y-133820000D02*
X126300000Y-138700000D01*
X124300000Y-135250000D02*
X124300000Y-138700000D01*
X128199999Y-126150000D02*
X128199999Y-138700000D01*
%TO.N,/06 Safety Chain/VREF_H*%
X87400000Y-129199999D02*
X87400000Y-138100000D01*
X131699999Y-135500000D02*
X131699999Y-138100000D01*
X129000000Y-135300000D02*
X129000000Y-138100000D01*
X130400000Y-133820000D02*
X130400000Y-138100000D01*
%TO.N,EN_SW*%
X136950000Y-128550000D02*
X138300000Y-129500000D01*
X134800000Y-126400000D02*
X134800000Y-108000000D01*
X138000000Y-104800000D02*
X138000000Y-101700000D01*
X138300000Y-129500000D02*
X138300000Y-134300000D01*
X138000000Y-86800000D02*
X138000000Y-68400000D01*
X138300000Y-134300000D02*
X137240000Y-135350000D01*
X136950000Y-128550000D02*
X134800000Y-126400000D01*
X136600000Y-106200000D02*
X138000000Y-104800000D01*
X134800000Y-108000000D02*
X136600000Y-106200000D01*
%TO.N,EN_JET*%
X142560000Y-124400000D02*
X142500000Y-123750000D01*
X165900000Y-120500000D02*
X165900000Y-98270000D01*
X165900000Y-98270000D02*
X164000000Y-98270000D01*
X142560000Y-135000000D02*
X142560000Y-124400000D01*
%TD*%
%TA.AperFunction,Conductor*%
%TO.N,I2C_SCL*%
G36*
X131506509Y-83503358D02*
G01*
X132198321Y-83966592D01*
X132203288Y-83974042D01*
X132202358Y-83981378D01*
X131628186Y-85177032D01*
X131621515Y-85183006D01*
X131617639Y-85183667D01*
X131382361Y-85183667D01*
X131374088Y-85180240D01*
X131371814Y-85177032D01*
X131213990Y-84848380D01*
X130797640Y-83981376D01*
X130797149Y-83972437D01*
X130801675Y-83966593D01*
X131493490Y-83503358D01*
X131502271Y-83501604D01*
X131506509Y-83503358D01*
G37*
%TD.AperFunction*%
%TD*%
%TA.AperFunction,Conductor*%
%TO.N,I2C_SCL*%
G36*
X158745912Y-124669760D02*
G01*
X158748186Y-124672968D01*
X159322358Y-125868621D01*
X159322850Y-125877562D01*
X159318321Y-125883408D01*
X158626510Y-126346640D01*
X158617729Y-126348395D01*
X158613490Y-126346640D01*
X157921678Y-125883408D01*
X157916711Y-125875957D01*
X157917640Y-125868624D01*
X158491814Y-124672968D01*
X158498485Y-124666994D01*
X158502361Y-124666333D01*
X158737639Y-124666333D01*
X158745912Y-124669760D01*
G37*
%TD.AperFunction*%
%TD*%
%TA.AperFunction,Conductor*%
%TO.N,I2C_SDA*%
G36*
X159452330Y-128727930D02*
G01*
X159456922Y-128733960D01*
X159878962Y-130002966D01*
X159878321Y-130011898D01*
X159876133Y-130014931D01*
X159744931Y-130146133D01*
X159736658Y-130149560D01*
X159732966Y-130148962D01*
X158463960Y-129726922D01*
X158457191Y-129721060D01*
X158456175Y-129713549D01*
X158617772Y-128896978D01*
X158622739Y-128889527D01*
X158626977Y-128887772D01*
X159443549Y-128726175D01*
X159452330Y-128727930D01*
G37*
%TD.AperFunction*%
%TD*%
%TA.AperFunction,Conductor*%
%TO.N,V7V5_LEG*%
G36*
X88648154Y-67019707D02*
G01*
X88688055Y-67045171D01*
X88693004Y-67049233D01*
X88712240Y-67065019D01*
X88854656Y-67160178D01*
X88998211Y-67256099D01*
X88998213Y-67256100D01*
X89301538Y-67418231D01*
X89619295Y-67549850D01*
X89948422Y-67649690D01*
X90285750Y-67716789D01*
X90628031Y-67750500D01*
X90628034Y-67750500D01*
X90971966Y-67750500D01*
X90971969Y-67750500D01*
X91314250Y-67716789D01*
X91651578Y-67649690D01*
X91980705Y-67549850D01*
X92298462Y-67418231D01*
X92601787Y-67256100D01*
X92887760Y-67065019D01*
X92911945Y-67045171D01*
X92991191Y-67005629D01*
X93038189Y-67000000D01*
X110270503Y-67000000D01*
X110356846Y-67019707D01*
X110426087Y-67074926D01*
X110464514Y-67154718D01*
X110465679Y-67160178D01*
X110480261Y-67233492D01*
X110480264Y-67233500D01*
X110540603Y-67379174D01*
X110540606Y-67379179D01*
X110628211Y-67510289D01*
X110739711Y-67621789D01*
X110869939Y-67708805D01*
X110870818Y-67709392D01*
X110870825Y-67709396D01*
X110888674Y-67716789D01*
X111016503Y-67769737D01*
X111171158Y-67800500D01*
X111171159Y-67800500D01*
X111328841Y-67800500D01*
X111328842Y-67800500D01*
X111483497Y-67769737D01*
X111629179Y-67709394D01*
X111704542Y-67659038D01*
X111787282Y-67627454D01*
X111815101Y-67625500D01*
X126978394Y-67625500D01*
X133925500Y-67625500D01*
X134011843Y-67645207D01*
X134081084Y-67700426D01*
X134119511Y-67780218D01*
X134124500Y-67824500D01*
X134124500Y-81455050D01*
X134104793Y-81541393D01*
X134065212Y-81596759D01*
X133651296Y-82004843D01*
X133643125Y-82012898D01*
X133641266Y-82014142D01*
X133599293Y-82056113D01*
X133598654Y-82056744D01*
X133556864Y-82097946D01*
X133555943Y-82099068D01*
X133555944Y-82099069D01*
X133554138Y-82101269D01*
X133521510Y-82150099D01*
X133520726Y-82151263D01*
X133487798Y-82199796D01*
X133486430Y-82202309D01*
X133486406Y-82202355D01*
X133485753Y-82203555D01*
X133480694Y-82215769D01*
X133429444Y-82287997D01*
X133387189Y-82316922D01*
X133332195Y-82344943D01*
X133332191Y-82344945D01*
X133332184Y-82344949D01*
X133313567Y-82358474D01*
X133160210Y-82469893D01*
X133009897Y-82620206D01*
X133009891Y-82620213D01*
X132940675Y-82715482D01*
X132873981Y-82773752D01*
X132788609Y-82797313D01*
X132701469Y-82781499D01*
X132629820Y-82729443D01*
X132601751Y-82687630D01*
X132121570Y-81728901D01*
X132100524Y-81642874D01*
X132100500Y-81639784D01*
X132100500Y-73170942D01*
X132070525Y-73059076D01*
X132059577Y-73018216D01*
X132059577Y-73018215D01*
X132030639Y-72968095D01*
X131980520Y-72881284D01*
X131980518Y-72881282D01*
X131980517Y-72881280D01*
X131861778Y-72762541D01*
X131861755Y-72762520D01*
X129998985Y-70899750D01*
X129980521Y-70881286D01*
X129980520Y-70881284D01*
X129868716Y-70769480D01*
X129781904Y-70719360D01*
X129768032Y-70711351D01*
X129768030Y-70711349D01*
X129731785Y-70690423D01*
X129579060Y-70649499D01*
X129579057Y-70649499D01*
X129420943Y-70649499D01*
X129408748Y-70649499D01*
X129408732Y-70649500D01*
X120170943Y-70649500D01*
X120018216Y-70690422D01*
X119968093Y-70719361D01*
X119968092Y-70719360D01*
X119881285Y-70769479D01*
X119881283Y-70769480D01*
X119769478Y-70881286D01*
X108517020Y-82133743D01*
X108442032Y-82180862D01*
X108354025Y-82190778D01*
X108323914Y-82184260D01*
X108323838Y-82184578D01*
X108316236Y-82182752D01*
X108106287Y-82149500D01*
X107893713Y-82149500D01*
X107683765Y-82182752D01*
X107683748Y-82182756D01*
X107481592Y-82248441D01*
X107481581Y-82248445D01*
X107292187Y-82344947D01*
X107292184Y-82344948D01*
X107292184Y-82344949D01*
X107274296Y-82357945D01*
X107120210Y-82469893D01*
X106969897Y-82620206D01*
X106969891Y-82620213D01*
X106890994Y-82728807D01*
X106824300Y-82787076D01*
X106738928Y-82810638D01*
X106651788Y-82794824D01*
X106580139Y-82742768D01*
X106569006Y-82728807D01*
X106490108Y-82620213D01*
X106490102Y-82620206D01*
X106339789Y-82469893D01*
X106202725Y-82370312D01*
X106167816Y-82344949D01*
X106112810Y-82316922D01*
X105978418Y-82248445D01*
X105978407Y-82248441D01*
X105776251Y-82182756D01*
X105776234Y-82182752D01*
X105566287Y-82149500D01*
X105353713Y-82149500D01*
X105143765Y-82182752D01*
X105143748Y-82182756D01*
X104941592Y-82248441D01*
X104941581Y-82248445D01*
X104752187Y-82344947D01*
X104752184Y-82344948D01*
X104752184Y-82344949D01*
X104734296Y-82357945D01*
X104580210Y-82469893D01*
X104429897Y-82620206D01*
X104429891Y-82620213D01*
X104350994Y-82728807D01*
X104284300Y-82787076D01*
X104198928Y-82810638D01*
X104111788Y-82794824D01*
X104040139Y-82742768D01*
X104029006Y-82728807D01*
X103950108Y-82620213D01*
X103950102Y-82620206D01*
X103799789Y-82469893D01*
X103662725Y-82370312D01*
X103627816Y-82344949D01*
X103572810Y-82316922D01*
X103438418Y-82248445D01*
X103438407Y-82248441D01*
X103236251Y-82182756D01*
X103236234Y-82182752D01*
X103026287Y-82149500D01*
X102813713Y-82149500D01*
X102603765Y-82182752D01*
X102603748Y-82182756D01*
X102401592Y-82248441D01*
X102401581Y-82248445D01*
X102212187Y-82344947D01*
X102212184Y-82344948D01*
X102212184Y-82344949D01*
X102194296Y-82357945D01*
X102040210Y-82469893D01*
X101889893Y-82620210D01*
X101764947Y-82792187D01*
X101668445Y-82981581D01*
X101668441Y-82981592D01*
X101602756Y-83183748D01*
X101602752Y-83183765D01*
X101569500Y-83393713D01*
X101569500Y-83606286D01*
X101602752Y-83816234D01*
X101602756Y-83816251D01*
X101668441Y-84018407D01*
X101668445Y-84018418D01*
X101755546Y-84189361D01*
X101764949Y-84207816D01*
X101810995Y-84271193D01*
X101889893Y-84379789D01*
X102040210Y-84530106D01*
X102212468Y-84655257D01*
X102270738Y-84721951D01*
X102294300Y-84807323D01*
X102294500Y-84816252D01*
X102294500Y-89361609D01*
X102318536Y-89482449D01*
X102318537Y-89482451D01*
X102365687Y-89596282D01*
X102365689Y-89596287D01*
X102401246Y-89649501D01*
X102434142Y-89698733D01*
X102521267Y-89785858D01*
X102585058Y-89828482D01*
X102623712Y-89854310D01*
X102623713Y-89854310D01*
X102623714Y-89854311D01*
X102737548Y-89901463D01*
X102753259Y-89904588D01*
X102761226Y-89906173D01*
X102842065Y-89942346D01*
X102899204Y-90010012D01*
X102921325Y-90095768D01*
X102904047Y-90182629D01*
X102863118Y-90242063D01*
X102707258Y-90397923D01*
X102539174Y-90608693D01*
X102539165Y-90608706D01*
X102395719Y-90836997D01*
X102395716Y-90837002D01*
X102395716Y-90837003D01*
X102278733Y-91079921D01*
X102278731Y-91079925D01*
X102278293Y-91080836D01*
X102223075Y-91150077D01*
X102143282Y-91188504D01*
X102054718Y-91188504D01*
X101974926Y-91150078D01*
X101919707Y-91080836D01*
X101900000Y-90994493D01*
X101900000Y-90052177D01*
X101893598Y-89992627D01*
X101893596Y-89992618D01*
X101843353Y-89857912D01*
X101843352Y-89857909D01*
X101757189Y-89742810D01*
X101642090Y-89656647D01*
X101642087Y-89656646D01*
X101507381Y-89606403D01*
X101507372Y-89606401D01*
X101447823Y-89600000D01*
X99750000Y-89600000D01*
X99750000Y-90672768D01*
X99606247Y-90650000D01*
X99393753Y-90650000D01*
X99250000Y-90672768D01*
X99250000Y-89600000D01*
X97552177Y-89600000D01*
X97492627Y-89606401D01*
X97492618Y-89606403D01*
X97357912Y-89656646D01*
X97357909Y-89656647D01*
X97242810Y-89742810D01*
X97156647Y-89857909D01*
X97156646Y-89857912D01*
X97106403Y-89992618D01*
X97106401Y-89992627D01*
X97100000Y-90052177D01*
X97100000Y-91750000D01*
X98172769Y-91750000D01*
X98150000Y-91893753D01*
X98150000Y-92106247D01*
X98172769Y-92250000D01*
X97100000Y-92250000D01*
X97100000Y-93947822D01*
X97106401Y-94007372D01*
X97106403Y-94007381D01*
X97156646Y-94142087D01*
X97156647Y-94142090D01*
X97242810Y-94257189D01*
X97357909Y-94343352D01*
X97357912Y-94343353D01*
X97492618Y-94393596D01*
X97492627Y-94393598D01*
X97552177Y-94400000D01*
X99250000Y-94400000D01*
X99250000Y-93327231D01*
X99393753Y-93350000D01*
X99606247Y-93350000D01*
X99750000Y-93327231D01*
X99750000Y-94400000D01*
X101447823Y-94400000D01*
X101507372Y-94393598D01*
X101507381Y-94393596D01*
X101642087Y-94343353D01*
X101642090Y-94343352D01*
X101757189Y-94257189D01*
X101843352Y-94142090D01*
X101843353Y-94142087D01*
X101893596Y-94007381D01*
X101893598Y-94007372D01*
X101900000Y-93947822D01*
X101900000Y-93005506D01*
X101919707Y-92919163D01*
X101974926Y-92849922D01*
X102054718Y-92811495D01*
X102143282Y-92811495D01*
X102223074Y-92849922D01*
X102278293Y-92919163D01*
X102278730Y-92920070D01*
X102278733Y-92920079D01*
X102395716Y-93162997D01*
X102536465Y-93386997D01*
X102539165Y-93391293D01*
X102539174Y-93391306D01*
X102707258Y-93602076D01*
X102707266Y-93602085D01*
X102897914Y-93792733D01*
X102897923Y-93792741D01*
X103108693Y-93960825D01*
X103108705Y-93960833D01*
X103108711Y-93960838D01*
X103337003Y-94104284D01*
X103579921Y-94221267D01*
X103834409Y-94310316D01*
X104097268Y-94370312D01*
X104365191Y-94400500D01*
X104365192Y-94400500D01*
X104634808Y-94400500D01*
X104634809Y-94400500D01*
X104902732Y-94370312D01*
X105165591Y-94310316D01*
X105420079Y-94221267D01*
X105662997Y-94104284D01*
X105891289Y-93960838D01*
X105891300Y-93960828D01*
X105891306Y-93960825D01*
X106102076Y-93792741D01*
X106102085Y-93792734D01*
X106292734Y-93602085D01*
X106333315Y-93551197D01*
X106460825Y-93391306D01*
X106460828Y-93391300D01*
X106460838Y-93391289D01*
X106604284Y-93162997D01*
X106721267Y-92920079D01*
X106810316Y-92665591D01*
X106870312Y-92402732D01*
X106900500Y-92134809D01*
X106900500Y-91865191D01*
X106870312Y-91597268D01*
X106810316Y-91334409D01*
X106803959Y-91316243D01*
X106745816Y-91150078D01*
X106721267Y-91079921D01*
X106604284Y-90837003D01*
X106460838Y-90608711D01*
X106460833Y-90608705D01*
X106460825Y-90608693D01*
X106292741Y-90397923D01*
X106292733Y-90397914D01*
X106160033Y-90265214D01*
X106112914Y-90190226D01*
X106102998Y-90102219D01*
X106132249Y-90018626D01*
X106194873Y-89956002D01*
X106278466Y-89926751D01*
X106300747Y-89925500D01*
X114900500Y-89925500D01*
X114986843Y-89945207D01*
X115056084Y-90000426D01*
X115094511Y-90080218D01*
X115099500Y-90124500D01*
X115099500Y-93947876D01*
X115105908Y-94007481D01*
X115156203Y-94142329D01*
X115156207Y-94142335D01*
X115242453Y-94257546D01*
X115327982Y-94321572D01*
X115357669Y-94343796D01*
X115492517Y-94394091D01*
X115552127Y-94400500D01*
X119447872Y-94400499D01*
X119447876Y-94400499D01*
X119492366Y-94395716D01*
X119507483Y-94394091D01*
X119642331Y-94343796D01*
X119757546Y-94257546D01*
X119843796Y-94142331D01*
X119894091Y-94007483D01*
X119900500Y-93947873D01*
X119900499Y-93006540D01*
X119920206Y-92920201D01*
X119975424Y-92850960D01*
X120055217Y-92812533D01*
X120143780Y-92812533D01*
X120223573Y-92850959D01*
X120278791Y-92920200D01*
X120395716Y-93162997D01*
X120536465Y-93386997D01*
X120539165Y-93391293D01*
X120539174Y-93391306D01*
X120707258Y-93602076D01*
X120707266Y-93602085D01*
X120897914Y-93792733D01*
X120897923Y-93792741D01*
X121108693Y-93960825D01*
X121108705Y-93960833D01*
X121108711Y-93960838D01*
X121337003Y-94104284D01*
X121579921Y-94221267D01*
X121834409Y-94310316D01*
X122097268Y-94370312D01*
X122365191Y-94400500D01*
X122365192Y-94400500D01*
X122634808Y-94400500D01*
X122634809Y-94400500D01*
X122902732Y-94370312D01*
X123165591Y-94310316D01*
X123420079Y-94221267D01*
X123662997Y-94104284D01*
X123891289Y-93960838D01*
X123891300Y-93960828D01*
X123891306Y-93960825D01*
X124102076Y-93792741D01*
X124102085Y-93792734D01*
X124292734Y-93602085D01*
X124333315Y-93551197D01*
X124460825Y-93391306D01*
X124460828Y-93391300D01*
X124460838Y-93391289D01*
X124604284Y-93162997D01*
X124721267Y-92920079D01*
X124810316Y-92665591D01*
X124870312Y-92402732D01*
X124900500Y-92134809D01*
X124900500Y-91865191D01*
X124870312Y-91597268D01*
X124810316Y-91334409D01*
X124803959Y-91316243D01*
X124745816Y-91150078D01*
X124721267Y-91079921D01*
X124604284Y-90837003D01*
X124460838Y-90608711D01*
X124460833Y-90608705D01*
X124460825Y-90608693D01*
X124292741Y-90397923D01*
X124292733Y-90397914D01*
X124160033Y-90265214D01*
X124112914Y-90190226D01*
X124102998Y-90102219D01*
X124132249Y-90018626D01*
X124194873Y-89956002D01*
X124278466Y-89926751D01*
X124300747Y-89925500D01*
X126358394Y-89925500D01*
X126481606Y-89925500D01*
X128475500Y-89925500D01*
X128561843Y-89945207D01*
X128631084Y-90000426D01*
X128669511Y-90080218D01*
X128674500Y-90124500D01*
X128674500Y-94255259D01*
X128654793Y-94341602D01*
X128599574Y-94410843D01*
X128519782Y-94449270D01*
X128431218Y-94449270D01*
X128414005Y-94444519D01*
X128316247Y-94412755D01*
X128316234Y-94412752D01*
X128106287Y-94379500D01*
X127893713Y-94379500D01*
X127683765Y-94412752D01*
X127683748Y-94412756D01*
X127481592Y-94478441D01*
X127481581Y-94478445D01*
X127292187Y-94574947D01*
X127120210Y-94699893D01*
X126969893Y-94850210D01*
X126844947Y-95022187D01*
X126748445Y-95211581D01*
X126748441Y-95211592D01*
X126682756Y-95413748D01*
X126682752Y-95413765D01*
X126649500Y-95623713D01*
X126649500Y-95836286D01*
X126682752Y-96046234D01*
X126682756Y-96046251D01*
X126748441Y-96248407D01*
X126748445Y-96248418D01*
X126836288Y-96420817D01*
X126844949Y-96437816D01*
X126897993Y-96510825D01*
X126969893Y-96609789D01*
X127000909Y-96640805D01*
X127048028Y-96715793D01*
X127057944Y-96803800D01*
X127028693Y-96887393D01*
X126966069Y-96950017D01*
X126929743Y-96967970D01*
X126907673Y-96976202D01*
X126907664Y-96976207D01*
X126792453Y-97062453D01*
X126706207Y-97177664D01*
X126706204Y-97177669D01*
X126655909Y-97312517D01*
X126649500Y-97372127D01*
X126649500Y-97372128D01*
X126649500Y-97372132D01*
X126649500Y-97420500D01*
X126629793Y-97506843D01*
X126574574Y-97576084D01*
X126494782Y-97614511D01*
X126450500Y-97619500D01*
X111549499Y-97619500D01*
X111463156Y-97599793D01*
X111393915Y-97544574D01*
X111355488Y-97464782D01*
X111350499Y-97420500D01*
X111350499Y-97372123D01*
X111344091Y-97312518D01*
X111343131Y-97309942D01*
X111293796Y-97177669D01*
X111258330Y-97130293D01*
X111207546Y-97062453D01*
X111092335Y-96976207D01*
X111092331Y-96976204D01*
X111086234Y-96973930D01*
X111070258Y-96967971D01*
X110996247Y-96919331D01*
X110950669Y-96843396D01*
X110942551Y-96755206D01*
X110973502Y-96672227D01*
X110999087Y-96640808D01*
X111030104Y-96609792D01*
X111155051Y-96437816D01*
X111251557Y-96248412D01*
X111317246Y-96046243D01*
X111350500Y-95836287D01*
X111350500Y-95623713D01*
X111317246Y-95413757D01*
X111251557Y-95211588D01*
X111251555Y-95211584D01*
X111251554Y-95211581D01*
X111171420Y-95054310D01*
X111155051Y-95022184D01*
X111064765Y-94897915D01*
X111030106Y-94850210D01*
X110879789Y-94699893D01*
X110798071Y-94640523D01*
X110707816Y-94574949D01*
X110674499Y-94557973D01*
X110518418Y-94478445D01*
X110518407Y-94478441D01*
X110316251Y-94412756D01*
X110316234Y-94412752D01*
X110106287Y-94379500D01*
X109893713Y-94379500D01*
X109683765Y-94412752D01*
X109683748Y-94412756D01*
X109481592Y-94478441D01*
X109481581Y-94478445D01*
X109292187Y-94574947D01*
X109120210Y-94699893D01*
X108969893Y-94850210D01*
X108844947Y-95022187D01*
X108748445Y-95211581D01*
X108748441Y-95211592D01*
X108682756Y-95413748D01*
X108682752Y-95413765D01*
X108649500Y-95623713D01*
X108649500Y-95836286D01*
X108682752Y-96046234D01*
X108682756Y-96046251D01*
X108748441Y-96248407D01*
X108748445Y-96248418D01*
X108836288Y-96420817D01*
X108844949Y-96437816D01*
X108897993Y-96510825D01*
X108969893Y-96609789D01*
X109000909Y-96640805D01*
X109048028Y-96715793D01*
X109057944Y-96803800D01*
X109028693Y-96887393D01*
X108966069Y-96950017D01*
X108929743Y-96967970D01*
X108907673Y-96976202D01*
X108907664Y-96976207D01*
X108792453Y-97062453D01*
X108706207Y-97177664D01*
X108706204Y-97177669D01*
X108655909Y-97312517D01*
X108649500Y-97372127D01*
X108649500Y-97372128D01*
X108649500Y-97372132D01*
X108649500Y-99167876D01*
X108655908Y-99227481D01*
X108706203Y-99362329D01*
X108706207Y-99362335D01*
X108792453Y-99477546D01*
X108878219Y-99541750D01*
X108907669Y-99563796D01*
X109042517Y-99614091D01*
X109102127Y-99620500D01*
X110897872Y-99620499D01*
X110897876Y-99620499D01*
X110937612Y-99616227D01*
X110957483Y-99614091D01*
X111092331Y-99563796D01*
X111207546Y-99477546D01*
X111293796Y-99362331D01*
X111344091Y-99227483D01*
X111350500Y-99167873D01*
X111350500Y-99119500D01*
X111370207Y-99033157D01*
X111425426Y-98963916D01*
X111505218Y-98925489D01*
X111549500Y-98920500D01*
X126450501Y-98920500D01*
X126536844Y-98940207D01*
X126606085Y-98995426D01*
X126644512Y-99075218D01*
X126649501Y-99119500D01*
X126649501Y-99167876D01*
X126655908Y-99227481D01*
X126706203Y-99362329D01*
X126706207Y-99362335D01*
X126792453Y-99477546D01*
X126878219Y-99541750D01*
X126907669Y-99563796D01*
X127042517Y-99614091D01*
X127102127Y-99620500D01*
X128304688Y-99620499D01*
X128391031Y-99640206D01*
X128460272Y-99695424D01*
X128498699Y-99775217D01*
X128499864Y-99780675D01*
X128530262Y-99933495D01*
X128530264Y-99933500D01*
X128590603Y-100079174D01*
X128590607Y-100079181D01*
X128640962Y-100154542D01*
X128672546Y-100237282D01*
X128674500Y-100265101D01*
X128674500Y-125237553D01*
X128654793Y-125323896D01*
X128599574Y-125393137D01*
X128519782Y-125431564D01*
X128431218Y-125431564D01*
X128419583Y-125428475D01*
X128317011Y-125408072D01*
X128273917Y-125399500D01*
X128126081Y-125399500D01*
X128090078Y-125406661D01*
X127981088Y-125428341D01*
X127844504Y-125484915D01*
X127844501Y-125484917D01*
X127721587Y-125567046D01*
X127721579Y-125567052D01*
X127617051Y-125671580D01*
X127617045Y-125671588D01*
X127534916Y-125794502D01*
X127534912Y-125794509D01*
X127500681Y-125877153D01*
X127449433Y-125949382D01*
X127371920Y-125992222D01*
X127316829Y-126000000D01*
X126324500Y-126000000D01*
X126238157Y-125980293D01*
X126168916Y-125925074D01*
X126130489Y-125845282D01*
X126125500Y-125801000D01*
X126125500Y-124565101D01*
X126145207Y-124478758D01*
X126159038Y-124454542D01*
X126173664Y-124432652D01*
X126209394Y-124379179D01*
X126269737Y-124233497D01*
X126300500Y-124078842D01*
X126300500Y-123921158D01*
X126269737Y-123766503D01*
X126209394Y-123620821D01*
X126121789Y-123489711D01*
X126010289Y-123378211D01*
X125944293Y-123334114D01*
X125879181Y-123290607D01*
X125879174Y-123290603D01*
X125733500Y-123230264D01*
X125733498Y-123230263D01*
X125733497Y-123230263D01*
X125733495Y-123230262D01*
X125733493Y-123230262D01*
X125655125Y-123214673D01*
X125578842Y-123199500D01*
X125421158Y-123199500D01*
X125370072Y-123209661D01*
X125266506Y-123230262D01*
X125266499Y-123230264D01*
X125120825Y-123290603D01*
X125120818Y-123290607D01*
X124989715Y-123378208D01*
X124989707Y-123378214D01*
X124878214Y-123489707D01*
X124878208Y-123489715D01*
X124790607Y-123620818D01*
X124790603Y-123620825D01*
X124730264Y-123766499D01*
X124730262Y-123766506D01*
X124706863Y-123884142D01*
X124699500Y-123921158D01*
X124699500Y-124078842D01*
X124709511Y-124129171D01*
X124730262Y-124233493D01*
X124730264Y-124233500D01*
X124790603Y-124379174D01*
X124790607Y-124379181D01*
X124840962Y-124454542D01*
X124872546Y-124537282D01*
X124874500Y-124565101D01*
X124874500Y-125801000D01*
X124854793Y-125887343D01*
X124799574Y-125956584D01*
X124719782Y-125995011D01*
X124675500Y-126000000D01*
X108467018Y-126000000D01*
X108380675Y-125980293D01*
X108326304Y-125941714D01*
X107297617Y-124913027D01*
X107285860Y-124901270D01*
X107285858Y-124901267D01*
X107198733Y-124814142D01*
X107147509Y-124779915D01*
X107136880Y-124772812D01*
X107136878Y-124772811D01*
X107096290Y-124745690D01*
X107096284Y-124745687D01*
X107020027Y-124714101D01*
X107020026Y-124714100D01*
X107008663Y-124709394D01*
X106982452Y-124698537D01*
X106922029Y-124686518D01*
X106914925Y-124685105D01*
X106914918Y-124685103D01*
X106861609Y-124674500D01*
X106861607Y-124674500D01*
X106861606Y-124674500D01*
X99561607Y-124674500D01*
X99438393Y-124674500D01*
X99438391Y-124674500D01*
X99392674Y-124683593D01*
X99392670Y-124683594D01*
X99377971Y-124686518D01*
X99317548Y-124698537D01*
X99270397Y-124718067D01*
X99203715Y-124745688D01*
X99203714Y-124745689D01*
X99183571Y-124759147D01*
X99183568Y-124759149D01*
X99101270Y-124814139D01*
X99101263Y-124814145D01*
X97973695Y-125941714D01*
X97898707Y-125988833D01*
X97832981Y-126000000D01*
X86199000Y-126000000D01*
X86112657Y-125980293D01*
X86043416Y-125925074D01*
X86004989Y-125845282D01*
X86000000Y-125801000D01*
X86000000Y-122865191D01*
X87049500Y-122865191D01*
X87049500Y-123134808D01*
X87076924Y-123378208D01*
X87079688Y-123402732D01*
X87123093Y-123592904D01*
X87139685Y-123665596D01*
X87216157Y-123884139D01*
X87228733Y-123920079D01*
X87345716Y-124162997D01*
X87345718Y-124163001D01*
X87345719Y-124163002D01*
X87361142Y-124187548D01*
X87463218Y-124350000D01*
X87489165Y-124391293D01*
X87489174Y-124391306D01*
X87657258Y-124602076D01*
X87657266Y-124602085D01*
X87847914Y-124792733D01*
X87847923Y-124792741D01*
X88058693Y-124960825D01*
X88058705Y-124960833D01*
X88058711Y-124960838D01*
X88287003Y-125104284D01*
X88529921Y-125221267D01*
X88784409Y-125310316D01*
X89047268Y-125370312D01*
X89315191Y-125400500D01*
X89315192Y-125400500D01*
X89584808Y-125400500D01*
X89584809Y-125400500D01*
X89852732Y-125370312D01*
X90115591Y-125310316D01*
X90370079Y-125221267D01*
X90612997Y-125104284D01*
X90841289Y-124960838D01*
X90841300Y-124960828D01*
X90841306Y-124960825D01*
X91052076Y-124792741D01*
X91052085Y-124792734D01*
X91242734Y-124602085D01*
X91341084Y-124478758D01*
X91410825Y-124391306D01*
X91410828Y-124391300D01*
X91410838Y-124391289D01*
X91554284Y-124162997D01*
X91671267Y-123920079D01*
X91671269Y-123920070D01*
X91671707Y-123919163D01*
X91726925Y-123849922D01*
X91806718Y-123811495D01*
X91895281Y-123811495D01*
X91975074Y-123849921D01*
X92030293Y-123919163D01*
X92050000Y-124005506D01*
X92050000Y-124204706D01*
X92060482Y-124337907D01*
X92115900Y-124557835D01*
X92209696Y-124764332D01*
X92338857Y-124950766D01*
X92338863Y-124950773D01*
X92499226Y-125111136D01*
X92499233Y-125111142D01*
X92685667Y-125240303D01*
X92892164Y-125334099D01*
X93112092Y-125389517D01*
X93245294Y-125400000D01*
X94200000Y-125400000D01*
X94200000Y-124327231D01*
X94343753Y-124350000D01*
X94556247Y-124350000D01*
X94700000Y-124327231D01*
X94700000Y-125400000D01*
X95654706Y-125400000D01*
X95787907Y-125389517D01*
X96007835Y-125334099D01*
X96214332Y-125240303D01*
X96400766Y-125111142D01*
X96400773Y-125111136D01*
X96561136Y-124950773D01*
X96561142Y-124950766D01*
X96690303Y-124764332D01*
X96784099Y-124557835D01*
X96839517Y-124337907D01*
X96850000Y-124204706D01*
X96850000Y-123250000D01*
X95777231Y-123250000D01*
X95800000Y-123106247D01*
X95800000Y-122893753D01*
X95777231Y-122750000D01*
X96850000Y-122750000D01*
X96850000Y-121795293D01*
X96839517Y-121662092D01*
X96784099Y-121442164D01*
X96690303Y-121235667D01*
X96561142Y-121049233D01*
X96561136Y-121049226D01*
X96400773Y-120888863D01*
X96400766Y-120888857D01*
X96214332Y-120759696D01*
X96007835Y-120665900D01*
X95787907Y-120610482D01*
X95654706Y-120600000D01*
X94700000Y-120600000D01*
X94700000Y-121672768D01*
X94556247Y-121650000D01*
X94343753Y-121650000D01*
X94200000Y-121672768D01*
X94200000Y-120600000D01*
X93245294Y-120600000D01*
X93112092Y-120610482D01*
X92892164Y-120665900D01*
X92685667Y-120759696D01*
X92499233Y-120888857D01*
X92499226Y-120888863D01*
X92338863Y-121049226D01*
X92338857Y-121049233D01*
X92209696Y-121235667D01*
X92115900Y-121442164D01*
X92060482Y-121662092D01*
X92050000Y-121795293D01*
X92050000Y-121994493D01*
X92030293Y-122080836D01*
X91975074Y-122150077D01*
X91895282Y-122188504D01*
X91806718Y-122188504D01*
X91726926Y-122150077D01*
X91671707Y-122080836D01*
X91671268Y-122079925D01*
X91671267Y-122079921D01*
X91554284Y-121837003D01*
X91410838Y-121608711D01*
X91410833Y-121608705D01*
X91410825Y-121608693D01*
X91242741Y-121397923D01*
X91242733Y-121397914D01*
X91052085Y-121207266D01*
X91052076Y-121207258D01*
X90841306Y-121039174D01*
X90841293Y-121039165D01*
X90841291Y-121039164D01*
X90841289Y-121039162D01*
X90612997Y-120895716D01*
X90370079Y-120778733D01*
X90370073Y-120778731D01*
X90370063Y-120778727D01*
X90115595Y-120689685D01*
X90115596Y-120689685D01*
X90042904Y-120673093D01*
X89852732Y-120629688D01*
X89852728Y-120629687D01*
X89852726Y-120629687D01*
X89653945Y-120607289D01*
X89584809Y-120599500D01*
X89315191Y-120599500D01*
X89260235Y-120605692D01*
X89047273Y-120629687D01*
X89047269Y-120629687D01*
X89047268Y-120629688D01*
X88974581Y-120646278D01*
X88784403Y-120689685D01*
X88529936Y-120778727D01*
X88529918Y-120778734D01*
X88459458Y-120812666D01*
X88301234Y-120888863D01*
X88286997Y-120895719D01*
X88058706Y-121039165D01*
X88058693Y-121039174D01*
X87847923Y-121207258D01*
X87847914Y-121207266D01*
X87657266Y-121397914D01*
X87657258Y-121397923D01*
X87489174Y-121608693D01*
X87489165Y-121608706D01*
X87345719Y-121836997D01*
X87228734Y-122079918D01*
X87228727Y-122079936D01*
X87139685Y-122334403D01*
X87079687Y-122597273D01*
X87049500Y-122865191D01*
X86000000Y-122865191D01*
X86000000Y-113350030D01*
X89750000Y-113350030D01*
X89750000Y-114100000D01*
X90901518Y-114100000D01*
X90890889Y-114118409D01*
X90850000Y-114271009D01*
X90850000Y-114428991D01*
X90890889Y-114581591D01*
X90901518Y-114600000D01*
X89750000Y-114600000D01*
X89750000Y-115349969D01*
X89760495Y-115452699D01*
X89815642Y-115619120D01*
X89907682Y-115768341D01*
X89907685Y-115768345D01*
X90031654Y-115892314D01*
X90031658Y-115892317D01*
X90180879Y-115984357D01*
X90347300Y-116039504D01*
X90450031Y-116050000D01*
X91200000Y-116050000D01*
X91200000Y-114898482D01*
X91218409Y-114909111D01*
X91371009Y-114950000D01*
X91528991Y-114950000D01*
X91681591Y-114909111D01*
X91700000Y-114898482D01*
X91700000Y-116050000D01*
X92449969Y-116050000D01*
X92552699Y-116039504D01*
X92719120Y-115984357D01*
X92868341Y-115892317D01*
X92868345Y-115892314D01*
X92992314Y-115768345D01*
X92992317Y-115768341D01*
X93084357Y-115619120D01*
X93139504Y-115452699D01*
X93150000Y-115349969D01*
X93150000Y-114600000D01*
X91998482Y-114600000D01*
X92009111Y-114581591D01*
X92050000Y-114428991D01*
X92050000Y-114271009D01*
X92009111Y-114118409D01*
X91998482Y-114100000D01*
X93150000Y-114100000D01*
X93150000Y-113773989D01*
X104150000Y-113773989D01*
X104150000Y-114523959D01*
X105301518Y-114523959D01*
X105290889Y-114542368D01*
X105250000Y-114694968D01*
X105250000Y-114852950D01*
X105290889Y-115005550D01*
X105301518Y-115023959D01*
X104150000Y-115023959D01*
X104150000Y-115773928D01*
X104160495Y-115876658D01*
X104215642Y-116043079D01*
X104307682Y-116192300D01*
X104307685Y-116192304D01*
X104431654Y-116316273D01*
X104431658Y-116316276D01*
X104580879Y-116408316D01*
X104747300Y-116463463D01*
X104850031Y-116473959D01*
X105600000Y-116473959D01*
X105600000Y-115322441D01*
X105618409Y-115333070D01*
X105771009Y-115373959D01*
X105928991Y-115373959D01*
X106081591Y-115333070D01*
X106100000Y-115322441D01*
X106100000Y-116473959D01*
X106849969Y-116473959D01*
X106952699Y-116463463D01*
X107119120Y-116408316D01*
X107268341Y-116316276D01*
X107268345Y-116316273D01*
X107392314Y-116192304D01*
X107392317Y-116192300D01*
X107484357Y-116043079D01*
X107539504Y-115876658D01*
X107550000Y-115773928D01*
X107550000Y-115023959D01*
X106398482Y-115023959D01*
X106409111Y-115005550D01*
X106450000Y-114852950D01*
X106450000Y-114694968D01*
X106409111Y-114542368D01*
X106398482Y-114523959D01*
X107550000Y-114523959D01*
X107550000Y-113773989D01*
X107549999Y-113773973D01*
X107549102Y-113765195D01*
X107549100Y-113765181D01*
X107547552Y-113750030D01*
X120100000Y-113750030D01*
X120100000Y-114500000D01*
X121251518Y-114500000D01*
X121240889Y-114518409D01*
X121200000Y-114671009D01*
X121200000Y-114828991D01*
X121240889Y-114981591D01*
X121251518Y-115000000D01*
X120100000Y-115000000D01*
X120100000Y-115749969D01*
X120110495Y-115852699D01*
X120165642Y-116019120D01*
X120257682Y-116168341D01*
X120257685Y-116168345D01*
X120381654Y-116292314D01*
X120381658Y-116292317D01*
X120530879Y-116384357D01*
X120697300Y-116439504D01*
X120800031Y-116450000D01*
X121550000Y-116450000D01*
X121550000Y-115298482D01*
X121568409Y-115309111D01*
X121721009Y-115350000D01*
X121878991Y-115350000D01*
X122031591Y-115309111D01*
X122050000Y-115298482D01*
X122050000Y-116450000D01*
X122799969Y-116450000D01*
X122902699Y-116439504D01*
X123069120Y-116384357D01*
X123218341Y-116292317D01*
X123218345Y-116292314D01*
X123342314Y-116168345D01*
X123342317Y-116168341D01*
X123434357Y-116019120D01*
X123489504Y-115852699D01*
X123500000Y-115749969D01*
X123500000Y-115000000D01*
X122348482Y-115000000D01*
X122359111Y-114981591D01*
X122400000Y-114828991D01*
X122400000Y-114671009D01*
X122359111Y-114518409D01*
X122348482Y-114500000D01*
X123500000Y-114500000D01*
X123500000Y-113750030D01*
X123489504Y-113647300D01*
X123434357Y-113480879D01*
X123342317Y-113331658D01*
X123342314Y-113331654D01*
X123218345Y-113207685D01*
X123218341Y-113207682D01*
X123069120Y-113115642D01*
X122902699Y-113060495D01*
X122799969Y-113050000D01*
X122050000Y-113050000D01*
X122050000Y-114201517D01*
X122031591Y-114190889D01*
X121878991Y-114150000D01*
X121721009Y-114150000D01*
X121568409Y-114190889D01*
X121550000Y-114201517D01*
X121550000Y-113050000D01*
X120800031Y-113050000D01*
X120697300Y-113060495D01*
X120530879Y-113115642D01*
X120381658Y-113207682D01*
X120381654Y-113207685D01*
X120257685Y-113331654D01*
X120257682Y-113331658D01*
X120165642Y-113480879D01*
X120110495Y-113647300D01*
X120100000Y-113750030D01*
X107547552Y-113750030D01*
X107539504Y-113671259D01*
X107484357Y-113504838D01*
X107392317Y-113355617D01*
X107392314Y-113355613D01*
X107268345Y-113231644D01*
X107268341Y-113231641D01*
X107119120Y-113139601D01*
X106952699Y-113084454D01*
X106849969Y-113073959D01*
X106100000Y-113073959D01*
X106100000Y-114225476D01*
X106081591Y-114214848D01*
X105928991Y-114173959D01*
X105771009Y-114173959D01*
X105618409Y-114214848D01*
X105600000Y-114225476D01*
X105600000Y-113073959D01*
X104850031Y-113073959D01*
X104747300Y-113084454D01*
X104580879Y-113139601D01*
X104431658Y-113231641D01*
X104431654Y-113231644D01*
X104307685Y-113355613D01*
X104307682Y-113355617D01*
X104215642Y-113504838D01*
X104160495Y-113671259D01*
X104150000Y-113773989D01*
X93150000Y-113773989D01*
X93150000Y-113350030D01*
X93139504Y-113247300D01*
X93084357Y-113080879D01*
X92992317Y-112931658D01*
X92992314Y-112931654D01*
X92868345Y-112807685D01*
X92868341Y-112807682D01*
X92719120Y-112715642D01*
X92552699Y-112660495D01*
X92449969Y-112650000D01*
X91700000Y-112650000D01*
X91700000Y-113801517D01*
X91681591Y-113790889D01*
X91528991Y-113750000D01*
X91371009Y-113750000D01*
X91218409Y-113790889D01*
X91200000Y-113801517D01*
X91200000Y-112650000D01*
X90450031Y-112650000D01*
X90347300Y-112660495D01*
X90180879Y-112715642D01*
X90031658Y-112807682D01*
X90031654Y-112807685D01*
X89907685Y-112931654D01*
X89907682Y-112931658D01*
X89815642Y-113080879D01*
X89760495Y-113247300D01*
X89750000Y-113350030D01*
X86000000Y-113350030D01*
X86000000Y-109238535D01*
X89749500Y-109238535D01*
X89749500Y-109461464D01*
X89778595Y-109682459D01*
X89836289Y-109897777D01*
X89836291Y-109897783D01*
X89921594Y-110103724D01*
X89921595Y-110103727D01*
X90033048Y-110296769D01*
X90168755Y-110473627D01*
X90326372Y-110631244D01*
X90503230Y-110766951D01*
X90661515Y-110858337D01*
X90696274Y-110878405D01*
X90902219Y-110963710D01*
X91117537Y-111021404D01*
X91312292Y-111047044D01*
X91338535Y-111050499D01*
X91338541Y-111050500D01*
X91338543Y-111050500D01*
X91561459Y-111050500D01*
X91561462Y-111050499D01*
X91782463Y-111021404D01*
X91997781Y-110963710D01*
X92203726Y-110878405D01*
X92371840Y-110781344D01*
X92396769Y-110766951D01*
X92396769Y-110766950D01*
X92396774Y-110766948D01*
X92573624Y-110631247D01*
X92731247Y-110473624D01*
X92866948Y-110296774D01*
X92978405Y-110103726D01*
X93063710Y-109897781D01*
X93121404Y-109682463D01*
X93124033Y-109662494D01*
X104149500Y-109662494D01*
X104149500Y-109885423D01*
X104178241Y-110103726D01*
X104178596Y-110106422D01*
X104236290Y-110321740D01*
X104267843Y-110397915D01*
X104321594Y-110527683D01*
X104321595Y-110527686D01*
X104433048Y-110720728D01*
X104568755Y-110897586D01*
X104726372Y-111055203D01*
X104903230Y-111190910D01*
X105054774Y-111278404D01*
X105096274Y-111302364D01*
X105302219Y-111387669D01*
X105517537Y-111445363D01*
X105712292Y-111471003D01*
X105738535Y-111474458D01*
X105738541Y-111474459D01*
X105738543Y-111474459D01*
X105961459Y-111474459D01*
X105961462Y-111474458D01*
X106182463Y-111445363D01*
X106397781Y-111387669D01*
X106603726Y-111302364D01*
X106757526Y-111213567D01*
X106796769Y-111190910D01*
X106796769Y-111190909D01*
X106796774Y-111190907D01*
X106973624Y-111055206D01*
X107131247Y-110897583D01*
X107266948Y-110720733D01*
X107269303Y-110716655D01*
X107356753Y-110565187D01*
X107378405Y-110527685D01*
X107463710Y-110321740D01*
X107521404Y-110106422D01*
X107550500Y-109885416D01*
X107550500Y-109662502D01*
X107547345Y-109638535D01*
X120099500Y-109638535D01*
X120099500Y-109861464D01*
X120104282Y-109897783D01*
X120128596Y-110082463D01*
X120186290Y-110297781D01*
X120196214Y-110321740D01*
X120271594Y-110503724D01*
X120271595Y-110503727D01*
X120383048Y-110696769D01*
X120518755Y-110873627D01*
X120676372Y-111031244D01*
X120853230Y-111166951D01*
X121046272Y-111278404D01*
X121046274Y-111278405D01*
X121252219Y-111363710D01*
X121467537Y-111421404D01*
X121649524Y-111445363D01*
X121688535Y-111450499D01*
X121688541Y-111450500D01*
X121688543Y-111450500D01*
X121911459Y-111450500D01*
X121911462Y-111450499D01*
X122132463Y-111421404D01*
X122347781Y-111363710D01*
X122553726Y-111278405D01*
X122746774Y-111166948D01*
X122923624Y-111031247D01*
X123081247Y-110873624D01*
X123216948Y-110696774D01*
X123328405Y-110503726D01*
X123413710Y-110297781D01*
X123471404Y-110082463D01*
X123500500Y-109861457D01*
X123500500Y-109638543D01*
X123471404Y-109417537D01*
X123413710Y-109202219D01*
X123328405Y-108996274D01*
X123328404Y-108996272D01*
X123216951Y-108803230D01*
X123081244Y-108626372D01*
X122923627Y-108468755D01*
X122746769Y-108333048D01*
X122553727Y-108221595D01*
X122553724Y-108221594D01*
X122347783Y-108136291D01*
X122347785Y-108136291D01*
X122347781Y-108136290D01*
X122132463Y-108078596D01*
X122132462Y-108078595D01*
X122132459Y-108078595D01*
X121911464Y-108049500D01*
X121911457Y-108049500D01*
X121688543Y-108049500D01*
X121688535Y-108049500D01*
X121467540Y-108078595D01*
X121252222Y-108136289D01*
X121252216Y-108136291D01*
X121046275Y-108221594D01*
X121046272Y-108221595D01*
X120853230Y-108333048D01*
X120676372Y-108468755D01*
X120518755Y-108626372D01*
X120383048Y-108803230D01*
X120271595Y-108996272D01*
X120271594Y-108996275D01*
X120186291Y-109202216D01*
X120186289Y-109202222D01*
X120128595Y-109417540D01*
X120099500Y-109638535D01*
X107547345Y-109638535D01*
X107521404Y-109441496D01*
X107463710Y-109226178D01*
X107378405Y-109020233D01*
X107376850Y-109017540D01*
X107266951Y-108827189D01*
X107131244Y-108650331D01*
X106973627Y-108492714D01*
X106796769Y-108357007D01*
X106603727Y-108245554D01*
X106603724Y-108245553D01*
X106397783Y-108160250D01*
X106397785Y-108160250D01*
X106397781Y-108160249D01*
X106182463Y-108102555D01*
X106182462Y-108102554D01*
X106182459Y-108102554D01*
X105961464Y-108073459D01*
X105961457Y-108073459D01*
X105738543Y-108073459D01*
X105738535Y-108073459D01*
X105517540Y-108102554D01*
X105302222Y-108160248D01*
X105302216Y-108160250D01*
X105096275Y-108245553D01*
X105096272Y-108245554D01*
X104903230Y-108357007D01*
X104726372Y-108492714D01*
X104568755Y-108650331D01*
X104433048Y-108827189D01*
X104321595Y-109020231D01*
X104321594Y-109020234D01*
X104236291Y-109226175D01*
X104236289Y-109226181D01*
X104178595Y-109441499D01*
X104149500Y-109662494D01*
X93124033Y-109662494D01*
X93150500Y-109461457D01*
X93150500Y-109238543D01*
X93121404Y-109017537D01*
X93063710Y-108802219D01*
X92978405Y-108596274D01*
X92978404Y-108596272D01*
X92866951Y-108403230D01*
X92731244Y-108226372D01*
X92573627Y-108068755D01*
X92396769Y-107933048D01*
X92203727Y-107821595D01*
X92203724Y-107821594D01*
X91997783Y-107736291D01*
X91997785Y-107736291D01*
X91997781Y-107736290D01*
X91782463Y-107678596D01*
X91782462Y-107678595D01*
X91782459Y-107678595D01*
X91561464Y-107649500D01*
X91561457Y-107649500D01*
X91338543Y-107649500D01*
X91338535Y-107649500D01*
X91117540Y-107678595D01*
X90902222Y-107736289D01*
X90902216Y-107736291D01*
X90696275Y-107821594D01*
X90696272Y-107821595D01*
X90503230Y-107933048D01*
X90326372Y-108068755D01*
X90168755Y-108226372D01*
X90033048Y-108403230D01*
X89921595Y-108596272D01*
X89921594Y-108596275D01*
X89836291Y-108802216D01*
X89836289Y-108802222D01*
X89778595Y-109017540D01*
X89749500Y-109238535D01*
X86000000Y-109238535D01*
X86000000Y-94415191D01*
X87599500Y-94415191D01*
X87599500Y-94684808D01*
X87629687Y-94952726D01*
X87689685Y-95215596D01*
X87778727Y-95470063D01*
X87778733Y-95470079D01*
X87895716Y-95712997D01*
X87895718Y-95713001D01*
X87895719Y-95713002D01*
X88039165Y-95941293D01*
X88039174Y-95941306D01*
X88207258Y-96152076D01*
X88207266Y-96152085D01*
X88397914Y-96342733D01*
X88397923Y-96342741D01*
X88608693Y-96510825D01*
X88608705Y-96510833D01*
X88608711Y-96510838D01*
X88837003Y-96654284D01*
X89079921Y-96771267D01*
X89079925Y-96771268D01*
X89080836Y-96771707D01*
X89150077Y-96826925D01*
X89188504Y-96906718D01*
X89188504Y-96995282D01*
X89150078Y-97075074D01*
X89080836Y-97130293D01*
X88994493Y-97150000D01*
X88795294Y-97150000D01*
X88662092Y-97160482D01*
X88442164Y-97215900D01*
X88235667Y-97309696D01*
X88049233Y-97438857D01*
X88049226Y-97438863D01*
X87888863Y-97599226D01*
X87888857Y-97599233D01*
X87759696Y-97785667D01*
X87665900Y-97992164D01*
X87610482Y-98212092D01*
X87600000Y-98345293D01*
X87600000Y-99300000D01*
X88672769Y-99300000D01*
X88650000Y-99443753D01*
X88650000Y-99656247D01*
X88672769Y-99800000D01*
X87600000Y-99800000D01*
X87600000Y-100754706D01*
X87610482Y-100887907D01*
X87665900Y-101107835D01*
X87759696Y-101314332D01*
X87888857Y-101500766D01*
X87888863Y-101500773D01*
X88049226Y-101661136D01*
X88049233Y-101661142D01*
X88235667Y-101790303D01*
X88442164Y-101884099D01*
X88662092Y-101939517D01*
X88795294Y-101950000D01*
X89750000Y-101950000D01*
X89750000Y-100877231D01*
X89893753Y-100900000D01*
X90106247Y-100900000D01*
X90250000Y-100877231D01*
X90250000Y-101950000D01*
X91204706Y-101950000D01*
X91337907Y-101939517D01*
X91557835Y-101884099D01*
X91764332Y-101790303D01*
X91950766Y-101661142D01*
X91950773Y-101661136D01*
X92111136Y-101500773D01*
X92111142Y-101500766D01*
X92240303Y-101314332D01*
X92334099Y-101107835D01*
X92389517Y-100887907D01*
X92400000Y-100754706D01*
X92400000Y-100052127D01*
X97099500Y-100052127D01*
X97099500Y-100052128D01*
X97099500Y-100052132D01*
X97099500Y-103947876D01*
X97105908Y-104007481D01*
X97156203Y-104142329D01*
X97156207Y-104142335D01*
X97242453Y-104257546D01*
X97319984Y-104315585D01*
X97357669Y-104343796D01*
X97492517Y-104394091D01*
X97552127Y-104400500D01*
X101447872Y-104400499D01*
X101447876Y-104400499D01*
X101487612Y-104396227D01*
X101507483Y-104394091D01*
X101642331Y-104343796D01*
X101757546Y-104257546D01*
X101843796Y-104142331D01*
X101894091Y-104007483D01*
X101900500Y-103947873D01*
X101900499Y-103006540D01*
X101920206Y-102920201D01*
X101975424Y-102850960D01*
X102055217Y-102812533D01*
X102143780Y-102812533D01*
X102223573Y-102850959D01*
X102278791Y-102920200D01*
X102395716Y-103162997D01*
X102533903Y-103382920D01*
X102539165Y-103391293D01*
X102539174Y-103391306D01*
X102707258Y-103602076D01*
X102707266Y-103602085D01*
X102897914Y-103792733D01*
X102897923Y-103792741D01*
X103108693Y-103960825D01*
X103108703Y-103960832D01*
X103108711Y-103960838D01*
X103337003Y-104104284D01*
X103579921Y-104221267D01*
X103834409Y-104310316D01*
X104097268Y-104370312D01*
X104365191Y-104400500D01*
X104365192Y-104400500D01*
X104634808Y-104400500D01*
X104634809Y-104400500D01*
X104902732Y-104370312D01*
X105165591Y-104310316D01*
X105420079Y-104221267D01*
X105662997Y-104104284D01*
X105891289Y-103960838D01*
X105891300Y-103960828D01*
X105891306Y-103960825D01*
X106102076Y-103792741D01*
X106102085Y-103792734D01*
X106292734Y-103602085D01*
X106357700Y-103520620D01*
X106460825Y-103391306D01*
X106460828Y-103391300D01*
X106460838Y-103391289D01*
X106604284Y-103162997D01*
X106721267Y-102920079D01*
X106810316Y-102665591D01*
X106870312Y-102402732D01*
X106900500Y-102134809D01*
X106900500Y-101865191D01*
X106870312Y-101597268D01*
X106810316Y-101334409D01*
X106721267Y-101079921D01*
X106604284Y-100837003D01*
X106460838Y-100608711D01*
X106460833Y-100608705D01*
X106460825Y-100608693D01*
X106292741Y-100397923D01*
X106292733Y-100397914D01*
X106102088Y-100207269D01*
X106102085Y-100207266D01*
X106095960Y-100202382D01*
X106095960Y-100202381D01*
X106095959Y-100202381D01*
X105907547Y-100052127D01*
X115099500Y-100052127D01*
X115099500Y-100052128D01*
X115099500Y-100052132D01*
X115099500Y-103947876D01*
X115105908Y-104007481D01*
X115156203Y-104142329D01*
X115156207Y-104142335D01*
X115242453Y-104257546D01*
X115319984Y-104315585D01*
X115357669Y-104343796D01*
X115492517Y-104394091D01*
X115552127Y-104400500D01*
X119447872Y-104400499D01*
X119447876Y-104400499D01*
X119487612Y-104396227D01*
X119507483Y-104394091D01*
X119642331Y-104343796D01*
X119757546Y-104257546D01*
X119843796Y-104142331D01*
X119894091Y-104007483D01*
X119900500Y-103947873D01*
X119900499Y-103006540D01*
X119920206Y-102920201D01*
X119975424Y-102850960D01*
X120055217Y-102812533D01*
X120143780Y-102812533D01*
X120223573Y-102850959D01*
X120278791Y-102920200D01*
X120395716Y-103162997D01*
X120533903Y-103382920D01*
X120539165Y-103391293D01*
X120539174Y-103391306D01*
X120707258Y-103602076D01*
X120707266Y-103602085D01*
X120897914Y-103792733D01*
X120897923Y-103792741D01*
X121108693Y-103960825D01*
X121108703Y-103960832D01*
X121108711Y-103960838D01*
X121337003Y-104104284D01*
X121579921Y-104221267D01*
X121834409Y-104310316D01*
X122097268Y-104370312D01*
X122365191Y-104400500D01*
X122365192Y-104400500D01*
X122634808Y-104400500D01*
X122634809Y-104400500D01*
X122902732Y-104370312D01*
X123165591Y-104310316D01*
X123420079Y-104221267D01*
X123662997Y-104104284D01*
X123891289Y-103960838D01*
X123891300Y-103960828D01*
X123891306Y-103960825D01*
X124102076Y-103792741D01*
X124102085Y-103792734D01*
X124292734Y-103602085D01*
X124357700Y-103520620D01*
X124460825Y-103391306D01*
X124460828Y-103391300D01*
X124460838Y-103391289D01*
X124604284Y-103162997D01*
X124721267Y-102920079D01*
X124810316Y-102665591D01*
X124870312Y-102402732D01*
X124900500Y-102134809D01*
X124900500Y-101865191D01*
X124870312Y-101597268D01*
X124810316Y-101334409D01*
X124721267Y-101079921D01*
X124604284Y-100837003D01*
X124460838Y-100608711D01*
X124460833Y-100608705D01*
X124460825Y-100608693D01*
X124292741Y-100397923D01*
X124292733Y-100397914D01*
X124102085Y-100207266D01*
X124102076Y-100207258D01*
X123891306Y-100039174D01*
X123891293Y-100039165D01*
X123891291Y-100039164D01*
X123891289Y-100039162D01*
X123662997Y-99895716D01*
X123420079Y-99778733D01*
X123420073Y-99778731D01*
X123420063Y-99778727D01*
X123165595Y-99689685D01*
X123165596Y-99689685D01*
X123052690Y-99663915D01*
X122902732Y-99629688D01*
X122902728Y-99629687D01*
X122902726Y-99629687D01*
X122691681Y-99605908D01*
X122634809Y-99599500D01*
X122365191Y-99599500D01*
X122310235Y-99605692D01*
X122097273Y-99629687D01*
X122097269Y-99629687D01*
X122097268Y-99629688D01*
X122051190Y-99640205D01*
X121834403Y-99689685D01*
X121579936Y-99778727D01*
X121579918Y-99778734D01*
X121336997Y-99895719D01*
X121108706Y-100039165D01*
X121108693Y-100039174D01*
X120897923Y-100207258D01*
X120897914Y-100207266D01*
X120707266Y-100397914D01*
X120707258Y-100397923D01*
X120539174Y-100608693D01*
X120539165Y-100608706D01*
X120395719Y-100836997D01*
X120395716Y-100837002D01*
X120395716Y-100837003D01*
X120331297Y-100970772D01*
X120278792Y-101079799D01*
X120223573Y-101149041D01*
X120143780Y-101187467D01*
X120055217Y-101187467D01*
X119975424Y-101149040D01*
X119920206Y-101079799D01*
X119900499Y-100993456D01*
X119900499Y-100052123D01*
X119894091Y-99992518D01*
X119857988Y-99895719D01*
X119843796Y-99857669D01*
X119800625Y-99800000D01*
X119757546Y-99742453D01*
X119642335Y-99656207D01*
X119642331Y-99656204D01*
X119507483Y-99605909D01*
X119447873Y-99599500D01*
X119447867Y-99599500D01*
X115552123Y-99599500D01*
X115492518Y-99605908D01*
X115357670Y-99656203D01*
X115357664Y-99656207D01*
X115242453Y-99742453D01*
X115156207Y-99857664D01*
X115156204Y-99857669D01*
X115105909Y-99992517D01*
X115099500Y-100052127D01*
X105907547Y-100052127D01*
X105891289Y-100039162D01*
X105662997Y-99895716D01*
X105420079Y-99778733D01*
X105420073Y-99778731D01*
X105420063Y-99778727D01*
X105165595Y-99689685D01*
X105165596Y-99689685D01*
X105052690Y-99663915D01*
X104902732Y-99629688D01*
X104902728Y-99629687D01*
X104902726Y-99629687D01*
X104691681Y-99605908D01*
X104634809Y-99599500D01*
X104365191Y-99599500D01*
X104310235Y-99605692D01*
X104097273Y-99629687D01*
X104097269Y-99629687D01*
X104097268Y-99629688D01*
X104051190Y-99640205D01*
X103834403Y-99689685D01*
X103579936Y-99778727D01*
X103579918Y-99778734D01*
X103336997Y-99895719D01*
X103108706Y-100039165D01*
X103108693Y-100039174D01*
X102897923Y-100207258D01*
X102897914Y-100207266D01*
X102707266Y-100397914D01*
X102707258Y-100397923D01*
X102539174Y-100608693D01*
X102539165Y-100608706D01*
X102395719Y-100836997D01*
X102395716Y-100837002D01*
X102395716Y-100837003D01*
X102331297Y-100970772D01*
X102278792Y-101079799D01*
X102223573Y-101149041D01*
X102143780Y-101187467D01*
X102055217Y-101187467D01*
X101975424Y-101149040D01*
X101920206Y-101079799D01*
X101900499Y-100993456D01*
X101900499Y-100052123D01*
X101894091Y-99992518D01*
X101857988Y-99895719D01*
X101843796Y-99857669D01*
X101800625Y-99800000D01*
X101757546Y-99742453D01*
X101642335Y-99656207D01*
X101642331Y-99656204D01*
X101507483Y-99605909D01*
X101447873Y-99599500D01*
X101447867Y-99599500D01*
X97552123Y-99599500D01*
X97492518Y-99605908D01*
X97357670Y-99656203D01*
X97357664Y-99656207D01*
X97242453Y-99742453D01*
X97156207Y-99857664D01*
X97156204Y-99857669D01*
X97105909Y-99992517D01*
X97099500Y-100052127D01*
X92400000Y-100052127D01*
X92400000Y-99800000D01*
X91327231Y-99800000D01*
X91350000Y-99656247D01*
X91350000Y-99443753D01*
X91327231Y-99300000D01*
X92400000Y-99300000D01*
X92400000Y-98345293D01*
X92389517Y-98212092D01*
X92334099Y-97992164D01*
X92240303Y-97785667D01*
X92111142Y-97599233D01*
X92111136Y-97599226D01*
X91950773Y-97438863D01*
X91950766Y-97438857D01*
X91764332Y-97309696D01*
X91557835Y-97215900D01*
X91337907Y-97160482D01*
X91204706Y-97150000D01*
X91005507Y-97150000D01*
X90919164Y-97130293D01*
X90849923Y-97075074D01*
X90811496Y-96995282D01*
X90811496Y-96906718D01*
X90849923Y-96826926D01*
X90919164Y-96771707D01*
X90920074Y-96771268D01*
X90920079Y-96771267D01*
X91162997Y-96654284D01*
X91391289Y-96510838D01*
X91391300Y-96510828D01*
X91391306Y-96510825D01*
X91602076Y-96342741D01*
X91602085Y-96342734D01*
X91792734Y-96152085D01*
X91877147Y-96046234D01*
X91960825Y-95941306D01*
X91960828Y-95941300D01*
X91960838Y-95941289D01*
X92104284Y-95712997D01*
X92221267Y-95470079D01*
X92310316Y-95215591D01*
X92370312Y-94952732D01*
X92400500Y-94684809D01*
X92400500Y-94415191D01*
X92370312Y-94147268D01*
X92310316Y-93884409D01*
X92221267Y-93629921D01*
X92104284Y-93387003D01*
X91960838Y-93158711D01*
X91960833Y-93158705D01*
X91960825Y-93158693D01*
X91792741Y-92947923D01*
X91792733Y-92947914D01*
X91602085Y-92757266D01*
X91602076Y-92757258D01*
X91391306Y-92589174D01*
X91391293Y-92589165D01*
X91391291Y-92589164D01*
X91391289Y-92589162D01*
X91162997Y-92445716D01*
X90920079Y-92328733D01*
X90920073Y-92328731D01*
X90920063Y-92328727D01*
X90665595Y-92239685D01*
X90665596Y-92239685D01*
X90592904Y-92223093D01*
X90402732Y-92179688D01*
X90402728Y-92179687D01*
X90402726Y-92179687D01*
X90184075Y-92155051D01*
X90134809Y-92149500D01*
X89865191Y-92149500D01*
X89815925Y-92155051D01*
X89597273Y-92179687D01*
X89597269Y-92179687D01*
X89597268Y-92179688D01*
X89524581Y-92196278D01*
X89334403Y-92239685D01*
X89079936Y-92328727D01*
X89079918Y-92328734D01*
X88836997Y-92445719D01*
X88608706Y-92589165D01*
X88608693Y-92589174D01*
X88397923Y-92757258D01*
X88397914Y-92757266D01*
X88207266Y-92947914D01*
X88207258Y-92947923D01*
X88039174Y-93158693D01*
X88039165Y-93158706D01*
X87895719Y-93386997D01*
X87778734Y-93629918D01*
X87778727Y-93629936D01*
X87689685Y-93884403D01*
X87629687Y-94147273D01*
X87599500Y-94415191D01*
X86000000Y-94415191D01*
X86000000Y-78365191D01*
X87599500Y-78365191D01*
X87599500Y-78634808D01*
X87629687Y-78902726D01*
X87689685Y-79165596D01*
X87778727Y-79420063D01*
X87778733Y-79420079D01*
X87895716Y-79662997D01*
X88022763Y-79865191D01*
X88039165Y-79891293D01*
X88039174Y-79891306D01*
X88207258Y-80102076D01*
X88207266Y-80102085D01*
X88397914Y-80292733D01*
X88397923Y-80292741D01*
X88608693Y-80460825D01*
X88608705Y-80460833D01*
X88608711Y-80460838D01*
X88837003Y-80604284D01*
X89079921Y-80721267D01*
X89079925Y-80721268D01*
X89080836Y-80721707D01*
X89150077Y-80776925D01*
X89188504Y-80856718D01*
X89188504Y-80945282D01*
X89150078Y-81025074D01*
X89080836Y-81080293D01*
X88994493Y-81100000D01*
X88795294Y-81100000D01*
X88662092Y-81110482D01*
X88442164Y-81165900D01*
X88235667Y-81259696D01*
X88049233Y-81388857D01*
X88049226Y-81388863D01*
X87888863Y-81549226D01*
X87888857Y-81549233D01*
X87759696Y-81735667D01*
X87665900Y-81942164D01*
X87610482Y-82162092D01*
X87600000Y-82295293D01*
X87600000Y-83250000D01*
X88672769Y-83250000D01*
X88650000Y-83393753D01*
X88650000Y-83606247D01*
X88672769Y-83750000D01*
X87600000Y-83750000D01*
X87600000Y-84704706D01*
X87610482Y-84837907D01*
X87665900Y-85057835D01*
X87759696Y-85264332D01*
X87888857Y-85450766D01*
X87888863Y-85450773D01*
X88049226Y-85611136D01*
X88049233Y-85611142D01*
X88235667Y-85740303D01*
X88442164Y-85834099D01*
X88662092Y-85889517D01*
X88795294Y-85900000D01*
X89750000Y-85900000D01*
X89750000Y-84827231D01*
X89893753Y-84850000D01*
X90106247Y-84850000D01*
X90250000Y-84827231D01*
X90250000Y-85900000D01*
X91204706Y-85900000D01*
X91337907Y-85889517D01*
X91557835Y-85834099D01*
X91764332Y-85740303D01*
X91950766Y-85611142D01*
X91950773Y-85611136D01*
X92111136Y-85450773D01*
X92111142Y-85450766D01*
X92240303Y-85264332D01*
X92334099Y-85057835D01*
X92389517Y-84837907D01*
X92400000Y-84704706D01*
X92400000Y-83750000D01*
X91327231Y-83750000D01*
X91350000Y-83606247D01*
X91350000Y-83393753D01*
X91327231Y-83250000D01*
X92400000Y-83250000D01*
X92400000Y-82295293D01*
X92389517Y-82162092D01*
X92334099Y-81942164D01*
X92240303Y-81735667D01*
X92111142Y-81549233D01*
X92111136Y-81549226D01*
X91950773Y-81388863D01*
X91950766Y-81388857D01*
X91764332Y-81259696D01*
X91557835Y-81165900D01*
X91337907Y-81110482D01*
X91204706Y-81100000D01*
X91005507Y-81100000D01*
X90919164Y-81080293D01*
X90849923Y-81025074D01*
X90811496Y-80945282D01*
X90811496Y-80856718D01*
X90849923Y-80776926D01*
X90919164Y-80721707D01*
X90920074Y-80721268D01*
X90920079Y-80721267D01*
X91162997Y-80604284D01*
X91391289Y-80460838D01*
X91391300Y-80460828D01*
X91391306Y-80460825D01*
X91602076Y-80292741D01*
X91602085Y-80292734D01*
X91792734Y-80102085D01*
X91833315Y-80051197D01*
X91960825Y-79891306D01*
X91960828Y-79891300D01*
X91960838Y-79891289D01*
X92104284Y-79662997D01*
X92221267Y-79420079D01*
X92310316Y-79165591D01*
X92370312Y-78902732D01*
X92400500Y-78634809D01*
X92400500Y-78365191D01*
X92370312Y-78097268D01*
X92310316Y-77834409D01*
X92221267Y-77579921D01*
X92104284Y-77337003D01*
X91960838Y-77108711D01*
X91960833Y-77108705D01*
X91960825Y-77108693D01*
X91792741Y-76897923D01*
X91792733Y-76897914D01*
X91602085Y-76707266D01*
X91602076Y-76707258D01*
X91391306Y-76539174D01*
X91391293Y-76539165D01*
X91391291Y-76539164D01*
X91391289Y-76539162D01*
X91162997Y-76395716D01*
X90920079Y-76278733D01*
X90920073Y-76278731D01*
X90920063Y-76278727D01*
X90665595Y-76189685D01*
X90665596Y-76189685D01*
X90592904Y-76173093D01*
X90402732Y-76129688D01*
X90402728Y-76129687D01*
X90402726Y-76129687D01*
X90203945Y-76107289D01*
X90134809Y-76099500D01*
X89865191Y-76099500D01*
X89810235Y-76105692D01*
X89597273Y-76129687D01*
X89597269Y-76129687D01*
X89597268Y-76129688D01*
X89524581Y-76146278D01*
X89334403Y-76189685D01*
X89079936Y-76278727D01*
X89079918Y-76278734D01*
X88836997Y-76395719D01*
X88608706Y-76539165D01*
X88608693Y-76539174D01*
X88397923Y-76707258D01*
X88397914Y-76707266D01*
X88207266Y-76897914D01*
X88207258Y-76897923D01*
X88039174Y-77108693D01*
X88039165Y-77108706D01*
X87895719Y-77336997D01*
X87778734Y-77579918D01*
X87778727Y-77579936D01*
X87689685Y-77834403D01*
X87629687Y-78097273D01*
X87599500Y-78365191D01*
X86000000Y-78365191D01*
X86000000Y-67199000D01*
X86019707Y-67112657D01*
X86074926Y-67043416D01*
X86154718Y-67004989D01*
X86199000Y-67000000D01*
X88561811Y-67000000D01*
X88648154Y-67019707D01*
G37*
%TD.AperFunction*%
%TA.AperFunction,Conductor*%
G36*
X195386843Y-52019707D02*
G01*
X195456084Y-52074926D01*
X195494511Y-52154718D01*
X195499500Y-52199000D01*
X195499500Y-72301000D01*
X195479793Y-72387343D01*
X195424574Y-72456584D01*
X195344782Y-72495011D01*
X195300500Y-72500000D01*
X160074500Y-72500000D01*
X159988157Y-72480293D01*
X159918916Y-72425074D01*
X159880489Y-72345282D01*
X159875500Y-72301000D01*
X159875500Y-66938390D01*
X159851463Y-66817550D01*
X159851463Y-66817548D01*
X159804311Y-66703714D01*
X159735858Y-66601267D01*
X159648733Y-66514142D01*
X159614120Y-66491014D01*
X159546287Y-66445689D01*
X159546282Y-66445687D01*
X159494708Y-66424324D01*
X159432452Y-66398537D01*
X159432450Y-66398536D01*
X159432449Y-66398536D01*
X159311609Y-66374500D01*
X159311606Y-66374500D01*
X142199000Y-66374500D01*
X142112657Y-66354793D01*
X142043416Y-66299574D01*
X142004989Y-66219782D01*
X142000000Y-66175500D01*
X142000000Y-60300030D01*
X163300000Y-60300030D01*
X163300000Y-61050000D01*
X164451518Y-61050000D01*
X164440889Y-61068409D01*
X164400000Y-61221009D01*
X164400000Y-61378991D01*
X164440889Y-61531591D01*
X164451518Y-61550000D01*
X163300000Y-61550000D01*
X163300000Y-62299969D01*
X163310495Y-62402699D01*
X163365642Y-62569120D01*
X163457682Y-62718341D01*
X163457685Y-62718345D01*
X163581654Y-62842314D01*
X163581658Y-62842317D01*
X163730879Y-62934357D01*
X163897300Y-62989504D01*
X164000031Y-63000000D01*
X164750000Y-63000000D01*
X164750000Y-61848482D01*
X164768409Y-61859111D01*
X164921009Y-61900000D01*
X165078991Y-61900000D01*
X165231591Y-61859111D01*
X165250000Y-61848482D01*
X165250000Y-63000000D01*
X165999969Y-63000000D01*
X166102699Y-62989504D01*
X166269120Y-62934357D01*
X166359335Y-62878712D01*
X175149500Y-62878712D01*
X175149500Y-63121288D01*
X175181162Y-63361789D01*
X175243946Y-63596100D01*
X175336776Y-63820212D01*
X175362745Y-63865191D01*
X175458060Y-64030284D01*
X175605737Y-64222741D01*
X175777258Y-64394262D01*
X175969715Y-64541939D01*
X176048335Y-64587329D01*
X176179788Y-64663224D01*
X176403900Y-64756054D01*
X176638211Y-64818838D01*
X176878712Y-64850500D01*
X176878715Y-64850500D01*
X177121285Y-64850500D01*
X177121288Y-64850500D01*
X177361789Y-64818838D01*
X177596100Y-64756054D01*
X177820212Y-64663224D01*
X178030289Y-64541936D01*
X178222738Y-64394265D01*
X178394265Y-64222738D01*
X178541936Y-64030289D01*
X178637255Y-63865191D01*
X188599500Y-63865191D01*
X188599500Y-64134808D01*
X188628733Y-64394262D01*
X188629688Y-64402732D01*
X188661461Y-64541939D01*
X188689685Y-64665596D01*
X188743307Y-64818838D01*
X188778733Y-64920079D01*
X188895716Y-65162997D01*
X188895718Y-65163001D01*
X188895719Y-65163002D01*
X189039165Y-65391293D01*
X189039174Y-65391306D01*
X189207258Y-65602076D01*
X189207266Y-65602085D01*
X189397914Y-65792733D01*
X189397923Y-65792741D01*
X189608693Y-65960825D01*
X189608705Y-65960833D01*
X189608711Y-65960838D01*
X189837003Y-66104284D01*
X190079921Y-66221267D01*
X190079925Y-66221268D01*
X190080836Y-66221707D01*
X190150077Y-66276925D01*
X190188504Y-66356718D01*
X190188504Y-66445282D01*
X190150078Y-66525074D01*
X190080836Y-66580293D01*
X189994493Y-66600000D01*
X189795294Y-66600000D01*
X189662092Y-66610482D01*
X189442164Y-66665900D01*
X189235667Y-66759696D01*
X189049233Y-66888857D01*
X189049226Y-66888863D01*
X188888863Y-67049226D01*
X188888857Y-67049233D01*
X188759696Y-67235667D01*
X188665900Y-67442164D01*
X188610482Y-67662092D01*
X188600000Y-67795293D01*
X188600000Y-68750000D01*
X189672769Y-68750000D01*
X189650000Y-68893753D01*
X189650000Y-69106247D01*
X189672769Y-69250000D01*
X188600000Y-69250000D01*
X188600000Y-70204706D01*
X188610482Y-70337907D01*
X188665900Y-70557835D01*
X188759696Y-70764332D01*
X188888857Y-70950766D01*
X188888863Y-70950773D01*
X189049226Y-71111136D01*
X189049233Y-71111142D01*
X189235667Y-71240303D01*
X189442164Y-71334099D01*
X189662092Y-71389517D01*
X189795294Y-71400000D01*
X190750000Y-71400000D01*
X190750000Y-70327231D01*
X190893753Y-70350000D01*
X191106247Y-70350000D01*
X191250000Y-70327231D01*
X191250000Y-71400000D01*
X192204706Y-71400000D01*
X192337907Y-71389517D01*
X192557835Y-71334099D01*
X192764332Y-71240303D01*
X192950766Y-71111142D01*
X192950773Y-71111136D01*
X193111136Y-70950773D01*
X193111142Y-70950766D01*
X193240303Y-70764332D01*
X193334099Y-70557835D01*
X193389517Y-70337907D01*
X193400000Y-70204706D01*
X193400000Y-69250000D01*
X192327231Y-69250000D01*
X192350000Y-69106247D01*
X192350000Y-68893753D01*
X192327231Y-68750000D01*
X193400000Y-68750000D01*
X193400000Y-67795293D01*
X193389517Y-67662092D01*
X193334099Y-67442164D01*
X193240303Y-67235667D01*
X193111142Y-67049233D01*
X193111136Y-67049226D01*
X192950773Y-66888863D01*
X192950766Y-66888857D01*
X192764332Y-66759696D01*
X192557835Y-66665900D01*
X192337907Y-66610482D01*
X192204706Y-66600000D01*
X192005507Y-66600000D01*
X191919164Y-66580293D01*
X191849923Y-66525074D01*
X191811496Y-66445282D01*
X191811496Y-66356718D01*
X191849923Y-66276926D01*
X191919164Y-66221707D01*
X191920074Y-66221268D01*
X191920079Y-66221267D01*
X192162997Y-66104284D01*
X192391289Y-65960838D01*
X192391300Y-65960828D01*
X192391306Y-65960825D01*
X192602076Y-65792741D01*
X192602085Y-65792734D01*
X192792734Y-65602085D01*
X192929405Y-65430705D01*
X192960825Y-65391306D01*
X192960828Y-65391300D01*
X192960838Y-65391289D01*
X193104284Y-65162997D01*
X193221267Y-64920079D01*
X193310316Y-64665591D01*
X193370312Y-64402732D01*
X193400500Y-64134809D01*
X193400500Y-63865191D01*
X193370312Y-63597268D01*
X193310316Y-63334409D01*
X193221267Y-63079921D01*
X193104284Y-62837003D01*
X192960838Y-62608711D01*
X192960833Y-62608705D01*
X192960825Y-62608693D01*
X192792741Y-62397923D01*
X192792733Y-62397914D01*
X192602085Y-62207266D01*
X192602076Y-62207258D01*
X192391306Y-62039174D01*
X192391293Y-62039165D01*
X192391291Y-62039164D01*
X192391289Y-62039162D01*
X192162997Y-61895716D01*
X191920079Y-61778733D01*
X191920073Y-61778731D01*
X191920063Y-61778727D01*
X191665595Y-61689685D01*
X191665596Y-61689685D01*
X191572375Y-61668408D01*
X191402732Y-61629688D01*
X191402728Y-61629687D01*
X191402726Y-61629687D01*
X191190163Y-61605737D01*
X191134809Y-61599500D01*
X190865191Y-61599500D01*
X190810235Y-61605692D01*
X190597273Y-61629687D01*
X190597269Y-61629687D01*
X190597268Y-61629688D01*
X190524581Y-61646278D01*
X190334403Y-61689685D01*
X190079936Y-61778727D01*
X190079918Y-61778734D01*
X189836997Y-61895719D01*
X189608706Y-62039165D01*
X189608693Y-62039174D01*
X189397923Y-62207258D01*
X189397914Y-62207266D01*
X189207266Y-62397914D01*
X189207258Y-62397923D01*
X189039174Y-62608693D01*
X189039165Y-62608706D01*
X188895719Y-62836997D01*
X188778734Y-63079918D01*
X188778727Y-63079936D01*
X188689685Y-63334403D01*
X188629687Y-63597273D01*
X188599500Y-63865191D01*
X178637255Y-63865191D01*
X178663224Y-63820212D01*
X178756054Y-63596100D01*
X178818838Y-63361789D01*
X178850500Y-63121288D01*
X178850500Y-62878712D01*
X178818838Y-62638211D01*
X178756054Y-62403900D01*
X178663224Y-62179788D01*
X178587329Y-62048335D01*
X178541939Y-61969715D01*
X178394262Y-61777258D01*
X178222741Y-61605737D01*
X178030284Y-61458060D01*
X177903548Y-61384890D01*
X177820212Y-61336776D01*
X177596100Y-61243946D01*
X177596098Y-61243945D01*
X177596097Y-61243945D01*
X177361801Y-61181165D01*
X177361795Y-61181163D01*
X177361789Y-61181162D01*
X177121288Y-61149500D01*
X176878712Y-61149500D01*
X176638211Y-61181162D01*
X176638198Y-61181165D01*
X176403902Y-61243945D01*
X176179792Y-61336774D01*
X176179790Y-61336775D01*
X175969715Y-61458060D01*
X175777258Y-61605737D01*
X175605737Y-61777258D01*
X175458060Y-61969715D01*
X175336775Y-62179790D01*
X175336774Y-62179792D01*
X175243945Y-62403902D01*
X175189067Y-62608711D01*
X175181162Y-62638211D01*
X175149500Y-62878712D01*
X166359335Y-62878712D01*
X166418341Y-62842317D01*
X166418345Y-62842314D01*
X166529176Y-62731484D01*
X166542314Y-62718345D01*
X166542317Y-62718341D01*
X166634357Y-62569120D01*
X166689504Y-62402699D01*
X166700000Y-62299969D01*
X166700000Y-61550000D01*
X165548482Y-61550000D01*
X165559111Y-61531591D01*
X165600000Y-61378991D01*
X165600000Y-61221009D01*
X165559111Y-61068409D01*
X165548482Y-61050000D01*
X166700000Y-61050000D01*
X166700000Y-60300030D01*
X166689504Y-60197300D01*
X166634357Y-60030879D01*
X166542317Y-59881658D01*
X166542314Y-59881654D01*
X166418345Y-59757685D01*
X166418341Y-59757682D01*
X166269120Y-59665642D01*
X166102699Y-59610495D01*
X165999969Y-59600000D01*
X165250000Y-59600000D01*
X165250000Y-60751517D01*
X165231591Y-60740889D01*
X165078991Y-60700000D01*
X164921009Y-60700000D01*
X164768409Y-60740889D01*
X164750000Y-60751517D01*
X164750000Y-59600000D01*
X164000031Y-59600000D01*
X163897300Y-59610495D01*
X163730879Y-59665642D01*
X163581658Y-59757682D01*
X163581654Y-59757685D01*
X163457685Y-59881654D01*
X163457682Y-59881658D01*
X163365642Y-60030879D01*
X163310495Y-60197300D01*
X163300000Y-60300030D01*
X142000000Y-60300030D01*
X142000000Y-56888535D01*
X143299500Y-56888535D01*
X143299500Y-57111464D01*
X143328595Y-57332459D01*
X143386289Y-57547777D01*
X143386291Y-57547783D01*
X143471594Y-57753724D01*
X143471595Y-57753727D01*
X143583048Y-57946769D01*
X143718755Y-58123627D01*
X143876372Y-58281244D01*
X144053230Y-58416951D01*
X144246272Y-58528404D01*
X144246274Y-58528405D01*
X144452219Y-58613710D01*
X144667537Y-58671404D01*
X144847154Y-58695051D01*
X144888535Y-58700499D01*
X144888541Y-58700500D01*
X144888543Y-58700500D01*
X145111459Y-58700500D01*
X145111462Y-58700499D01*
X145332463Y-58671404D01*
X145547781Y-58613710D01*
X145753726Y-58528405D01*
X145941848Y-58419792D01*
X145946769Y-58416951D01*
X145946769Y-58416950D01*
X145946774Y-58416948D01*
X146123624Y-58281247D01*
X146281247Y-58123624D01*
X146416948Y-57946774D01*
X146528405Y-57753726D01*
X146613710Y-57547781D01*
X146671404Y-57332463D01*
X146700500Y-57111457D01*
X146700500Y-56888543D01*
X146671404Y-56667537D01*
X146613710Y-56452219D01*
X146583230Y-56378634D01*
X146533341Y-56258188D01*
X146533339Y-56258185D01*
X146528405Y-56246274D01*
X146528404Y-56246272D01*
X146495069Y-56188535D01*
X163299500Y-56188535D01*
X163299500Y-56411464D01*
X163328595Y-56632459D01*
X163328596Y-56632463D01*
X163386290Y-56847781D01*
X163403171Y-56888535D01*
X163471594Y-57053724D01*
X163471595Y-57053727D01*
X163583048Y-57246769D01*
X163718755Y-57423627D01*
X163876372Y-57581244D01*
X164053230Y-57716951D01*
X164214475Y-57810046D01*
X164246274Y-57828405D01*
X164452219Y-57913710D01*
X164667537Y-57971404D01*
X164862292Y-57997044D01*
X164888535Y-58000499D01*
X164888541Y-58000500D01*
X164888543Y-58000500D01*
X165111459Y-58000500D01*
X165111462Y-58000499D01*
X165332463Y-57971404D01*
X165547781Y-57913710D01*
X165753726Y-57828405D01*
X165946774Y-57716948D01*
X166123624Y-57581247D01*
X166281247Y-57423624D01*
X166416948Y-57246774D01*
X166528405Y-57053726D01*
X166613710Y-56847781D01*
X166671404Y-56632463D01*
X166700500Y-56411457D01*
X166700500Y-56188543D01*
X166671404Y-55967537D01*
X166613710Y-55752219D01*
X166528405Y-55546274D01*
X166501473Y-55499627D01*
X166416951Y-55353230D01*
X166281244Y-55176372D01*
X166123627Y-55018755D01*
X165946769Y-54883048D01*
X165753727Y-54771595D01*
X165753724Y-54771594D01*
X165547783Y-54686291D01*
X165547785Y-54686291D01*
X165547781Y-54686290D01*
X165332463Y-54628596D01*
X165332462Y-54628595D01*
X165332459Y-54628595D01*
X165111464Y-54599500D01*
X165111457Y-54599500D01*
X164888543Y-54599500D01*
X164888535Y-54599500D01*
X164667540Y-54628595D01*
X164452222Y-54686289D01*
X164452216Y-54686291D01*
X164246275Y-54771594D01*
X164246272Y-54771595D01*
X164053230Y-54883048D01*
X163876372Y-55018755D01*
X163718755Y-55176372D01*
X163583048Y-55353230D01*
X163471595Y-55546272D01*
X163471594Y-55546275D01*
X163386291Y-55752216D01*
X163386289Y-55752222D01*
X163328595Y-55967540D01*
X163299500Y-56188535D01*
X146495069Y-56188535D01*
X146416951Y-56053230D01*
X146281244Y-55876372D01*
X146123627Y-55718755D01*
X145946769Y-55583048D01*
X145753727Y-55471595D01*
X145753724Y-55471594D01*
X145650753Y-55428942D01*
X145547781Y-55386290D01*
X145332463Y-55328596D01*
X145332462Y-55328595D01*
X145332459Y-55328595D01*
X145111464Y-55299500D01*
X145111457Y-55299500D01*
X144888543Y-55299500D01*
X144888535Y-55299500D01*
X144667540Y-55328595D01*
X144452222Y-55386289D01*
X144452216Y-55386291D01*
X144246275Y-55471594D01*
X144246272Y-55471595D01*
X144053230Y-55583048D01*
X143876372Y-55718755D01*
X143718755Y-55876372D01*
X143583048Y-56053230D01*
X143471595Y-56246272D01*
X143471594Y-56246275D01*
X143386291Y-56452216D01*
X143386289Y-56452222D01*
X143328595Y-56667540D01*
X143299500Y-56888535D01*
X142000000Y-56888535D01*
X142000000Y-52199000D01*
X142019707Y-52112657D01*
X142074926Y-52043416D01*
X142154718Y-52004989D01*
X142199000Y-52000000D01*
X195300500Y-52000000D01*
X195386843Y-52019707D01*
G37*
%TD.AperFunction*%
%TD*%
%TA.AperFunction,Conductor*%
%TO.N,I2C_SCL*%
G36*
X131601048Y-81819760D02*
G01*
X131603236Y-81822793D01*
X132202129Y-83018541D01*
X132202770Y-83027473D01*
X132198178Y-83033503D01*
X131506510Y-83496640D01*
X131497729Y-83498395D01*
X131493490Y-83496640D01*
X130801821Y-83033503D01*
X130796854Y-83026052D01*
X130797869Y-83018543D01*
X131396764Y-81822792D01*
X131403533Y-81816931D01*
X131407225Y-81816333D01*
X131592775Y-81816333D01*
X131601048Y-81819760D01*
G37*
%TD.AperFunction*%
%TD*%
%TA.AperFunction,Conductor*%
%TO.N,V12_JET*%
G36*
X151431376Y-88868905D02*
G01*
X153011053Y-90097542D01*
X153015205Y-90103876D01*
X153495809Y-91981573D01*
X153494540Y-91990437D01*
X153487375Y-91995809D01*
X153481573Y-91995809D01*
X151603876Y-91515205D01*
X151597542Y-91511053D01*
X150368905Y-89931376D01*
X150366530Y-89922742D01*
X150369866Y-89915921D01*
X151415921Y-88869866D01*
X151424193Y-88866440D01*
X151431376Y-88868905D01*
G37*
%TD.AperFunction*%
%TD*%
M02*
