%TF.GenerationSoftware,KiCad,Pcbnew,9.0.5*%
%TF.CreationDate,2026-06-25T16:55:58-07:00*%
%TF.ProjectId,nova_pcb_v6_power_v2,6e6f7661-5f70-4636-925f-76365f706f77,rev?*%
%TF.SameCoordinates,Original*%
%TF.FileFunction,Paste,Bot*%
%TF.FilePolarity,Positive*%
%FSLAX46Y46*%
G04 Gerber Fmt 4.6, Leading zero omitted, Abs format (unit mm)*
G04 Created by KiCad (PCBNEW 9.0.5) date 2026-06-25 16:55:58*
%MOMM*%
%LPD*%
G01*
G04 APERTURE LIST*
G04 Aperture macros list*
%AMRoundRect*
0 Rectangle with rounded corners*
0 $1 Rounding radius*
0 $2 $3 $4 $5 $6 $7 $8 $9 X,Y pos of 4 corners*
0 Add a 4 corners polygon primitive as box body*
4,1,4,$2,$3,$4,$5,$6,$7,$8,$9,$2,$3,0*
0 Add four circle primitives for the rounded corners*
1,1,$1+$1,$2,$3*
1,1,$1+$1,$4,$5*
1,1,$1+$1,$6,$7*
1,1,$1+$1,$8,$9*
0 Add four rect primitives between the rounded corners*
20,1,$1+$1,$2,$3,$4,$5,0*
20,1,$1+$1,$4,$5,$6,$7,0*
20,1,$1+$1,$6,$7,$8,$9,0*
20,1,$1+$1,$8,$9,$2,$3,0*%
G04 Aperture macros list end*
%ADD10RoundRect,0.150000X0.587500X0.150000X-0.587500X0.150000X-0.587500X-0.150000X0.587500X-0.150000X0*%
%ADD11RoundRect,0.200000X0.275000X-0.200000X0.275000X0.200000X-0.275000X0.200000X-0.275000X-0.200000X0*%
%ADD12RoundRect,0.150000X0.150000X-0.825000X0.150000X0.825000X-0.150000X0.825000X-0.150000X-0.825000X0*%
%ADD13R,5.400000X2.900000*%
%ADD14RoundRect,0.225000X0.250000X-0.225000X0.250000X0.225000X-0.250000X0.225000X-0.250000X-0.225000X0*%
%ADD15RoundRect,0.200000X0.200000X0.275000X-0.200000X0.275000X-0.200000X-0.275000X0.200000X-0.275000X0*%
%ADD16RoundRect,0.150000X0.150000X-0.587500X0.150000X0.587500X-0.150000X0.587500X-0.150000X-0.587500X0*%
%ADD17RoundRect,0.200000X-0.275000X0.200000X-0.275000X-0.200000X0.275000X-0.200000X0.275000X0.200000X0*%
G04 APERTURE END LIST*
D10*
%TO.C,Q4*%
X144937500Y-134550000D03*
X144937500Y-136450000D03*
X143062500Y-135500000D03*
%TD*%
D11*
%TO.C,R13*%
X136950000Y-127950000D03*
X136950000Y-126300000D03*
%TD*%
%TO.C,R2*%
X101150000Y-137000000D03*
X101150000Y-135350000D03*
%TD*%
D12*
%TO.C,U8*%
X91905000Y-135475000D03*
X90635000Y-135475000D03*
X89365000Y-135475000D03*
X88095000Y-135475000D03*
X88095000Y-130525000D03*
X89365000Y-130525000D03*
X90635000Y-130525000D03*
X91905000Y-130525000D03*
%TD*%
D11*
%TO.C,R8*%
X131750000Y-128000000D03*
X131750000Y-126350000D03*
%TD*%
%TO.C,R7*%
X131000000Y-133825000D03*
X131000000Y-132175000D03*
%TD*%
D13*
%TO.C,L1*%
X160000000Y-117450000D03*
X160000000Y-107550000D03*
%TD*%
D11*
%TO.C,R5*%
X127000000Y-133825000D03*
X127000000Y-132175000D03*
%TD*%
%TO.C,R4*%
X125000000Y-136900000D03*
X125000000Y-135250000D03*
%TD*%
%TO.C,R3*%
X123000000Y-133825000D03*
X123000000Y-132175000D03*
%TD*%
%TO.C,R11*%
X139000000Y-133850000D03*
X139000000Y-132200000D03*
%TD*%
%TO.C,R6*%
X129000000Y-136950000D03*
X129000000Y-135300000D03*
%TD*%
%TO.C,R15*%
X127650000Y-127800000D03*
X127650000Y-126150000D03*
%TD*%
%TO.C,R14*%
X132950000Y-137150000D03*
X132950000Y-135500000D03*
%TD*%
D14*
%TO.C,C7*%
X124500000Y-127800000D03*
X124500000Y-126250000D03*
%TD*%
D15*
%TO.C,R16*%
X139125000Y-129600000D03*
X137475000Y-129600000D03*
%TD*%
D10*
%TO.C,Q3*%
X137237500Y-135350000D03*
X137237500Y-137250000D03*
X135362500Y-136300000D03*
%TD*%
D11*
%TO.C,R12*%
X141000000Y-136850000D03*
X141000000Y-135200000D03*
%TD*%
D16*
%TO.C,Q2*%
X97150000Y-133950000D03*
X95250000Y-133950000D03*
X96200000Y-132075000D03*
%TD*%
D17*
%TO.C,R9*%
X135000000Y-132175000D03*
X135000000Y-133825000D03*
%TD*%
M02*
