%TF.GenerationSoftware,KiCad,Pcbnew,9.0.5*%
%TF.CreationDate,2026-06-25T15:06:20-07:00*%
%TF.ProjectId,nova_pcb_v6_power_v2,6e6f7661-5f70-4636-925f-76365f706f77,rev?*%
%TF.SameCoordinates,Original*%
%TF.FileFunction,Copper,L1,Top*%
%TF.FilePolarity,Positive*%
%FSLAX46Y46*%
G04 Gerber Fmt 4.6, Leading zero omitted, Abs format (unit mm)*
G04 Created by KiCad (PCBNEW 9.0.5) date 2026-06-25 15:06:20*
%MOMM*%
%LPD*%
G01*
G04 APERTURE LIST*
G04 Aperture macros list*
%AMRoundRect*
0 Rectangle with rounded corners*
0 $1 Rounding radius*
0 $2 $3 $4 $5 $6 $7 $8 $9 X,Y pos of 4 corners*
0 Add a 4 corners polygon primitive as box body*
4,1,4,$2,$3,$4,$5,$6,$7,$8,$9,$2,$3,0*
0 Add four circle primitives for the rounded corners*
1,1,$1+$1,$2,$3*
1,1,$1+$1,$4,$5*
1,1,$1+$1,$6,$7*
1,1,$1+$1,$8,$9*
0 Add four rect primitives between the rounded corners*
20,1,$1+$1,$2,$3,$4,$5,0*
20,1,$1+$1,$4,$5,$6,$7,0*
20,1,$1+$1,$6,$7,$8,$9,0*
20,1,$1+$1,$8,$9,$2,$3,0*%
G04 Aperture macros list end*
%TA.AperFunction,ComponentPad*%
%ADD10R,3.800000X3.800000*%
%TD*%
%TA.AperFunction,ComponentPad*%
%ADD11C,3.800000*%
%TD*%
%TA.AperFunction,ComponentPad*%
%ADD12C,1.700000*%
%TD*%
%TA.AperFunction,ComponentPad*%
%ADD13R,1.700000X1.700000*%
%TD*%
%TA.AperFunction,ComponentPad*%
%ADD14RoundRect,0.760000X1.140000X-1.140000X1.140000X1.140000X-1.140000X1.140000X-1.140000X-1.140000X0*%
%TD*%
%TA.AperFunction,SMDPad,CuDef*%
%ADD15RoundRect,0.250000X0.300000X-0.300000X0.300000X0.300000X-0.300000X0.300000X-0.300000X-0.300000X0*%
%TD*%
%TA.AperFunction,ComponentPad*%
%ADD16RoundRect,0.250000X0.600000X-0.600000X0.600000X0.600000X-0.600000X0.600000X-0.600000X-0.600000X0*%
%TD*%
%TA.AperFunction,SMDPad,CuDef*%
%ADD17RoundRect,0.200000X0.200000X0.275000X-0.200000X0.275000X-0.200000X-0.275000X0.200000X-0.275000X0*%
%TD*%
%TA.AperFunction,ComponentPad*%
%ADD18RoundRect,0.760000X1.140000X1.140000X-1.140000X1.140000X-1.140000X-1.140000X1.140000X-1.140000X0*%
%TD*%
%TA.AperFunction,SMDPad,CuDef*%
%ADD19RoundRect,0.225000X0.225000X0.250000X-0.225000X0.250000X-0.225000X-0.250000X0.225000X-0.250000X0*%
%TD*%
%TA.AperFunction,SMDPad,CuDef*%
%ADD20RoundRect,0.200000X0.275000X-0.200000X0.275000X0.200000X-0.275000X0.200000X-0.275000X-0.200000X0*%
%TD*%
%TA.AperFunction,ComponentPad*%
%ADD21RoundRect,1.500000X-1.500000X1.500000X-1.500000X-1.500000X1.500000X-1.500000X1.500000X1.500000X0*%
%TD*%
%TA.AperFunction,ComponentPad*%
%ADD22C,6.000000*%
%TD*%
%TA.AperFunction,ComponentPad*%
%ADD23RoundRect,0.250001X0.949999X-0.949999X0.949999X0.949999X-0.949999X0.949999X-0.949999X-0.949999X0*%
%TD*%
%TA.AperFunction,ComponentPad*%
%ADD24C,2.400000*%
%TD*%
%TA.AperFunction,ComponentPad*%
%ADD25RoundRect,0.250000X-0.750000X-0.750000X0.750000X-0.750000X0.750000X0.750000X-0.750000X0.750000X0*%
%TD*%
%TA.AperFunction,ComponentPad*%
%ADD26C,2.000000*%
%TD*%
%TA.AperFunction,ComponentPad*%
%ADD27RoundRect,0.250000X0.725000X-0.600000X0.725000X0.600000X-0.725000X0.600000X-0.725000X-0.600000X0*%
%TD*%
%TA.AperFunction,ComponentPad*%
%ADD28O,1.950000X1.700000*%
%TD*%
%TA.AperFunction,ComponentPad*%
%ADD29RoundRect,0.760000X-1.140000X-1.140000X1.140000X-1.140000X1.140000X1.140000X-1.140000X1.140000X0*%
%TD*%
%TA.AperFunction,ComponentPad*%
%ADD30R,2.000000X1.905000*%
%TD*%
%TA.AperFunction,ComponentPad*%
%ADD31O,2.000000X1.905000*%
%TD*%
%TA.AperFunction,ComponentPad*%
%ADD32RoundRect,0.250000X0.750000X-0.750000X0.750000X0.750000X-0.750000X0.750000X-0.750000X-0.750000X0*%
%TD*%
%TA.AperFunction,ComponentPad*%
%ADD33RoundRect,0.250001X-0.949999X0.949999X-0.949999X-0.949999X0.949999X-0.949999X0.949999X0.949999X0*%
%TD*%
%TA.AperFunction,ViaPad*%
%ADD34C,0.600000*%
%TD*%
%TA.AperFunction,ViaPad*%
%ADD35C,1.000000*%
%TD*%
%TA.AperFunction,ViaPad*%
%ADD36C,0.800000*%
%TD*%
%TA.AperFunction,ViaPad*%
%ADD37C,0.500000*%
%TD*%
%TA.AperFunction,Conductor*%
%ADD38C,2.000000*%
%TD*%
%TA.AperFunction,Conductor*%
%ADD39C,3.000000*%
%TD*%
%TA.AperFunction,Conductor*%
%ADD40C,2.500000*%
%TD*%
%TA.AperFunction,Conductor*%
%ADD41C,0.200000*%
%TD*%
%TA.AperFunction,Conductor*%
%ADD42C,0.250000*%
%TD*%
%TA.AperFunction,Conductor*%
%ADD43C,0.300000*%
%TD*%
%TA.AperFunction,Conductor*%
%ADD44C,1.500000*%
%TD*%
G04 APERTURE END LIST*
D10*
%TO.P,U5,1,Pin_1*%
%TO.N,VBAT_PROTECTED*%
X181000000Y-101500000D03*
D11*
%TO.P,U5,2,Pin_2*%
%TO.N,GND*%
X171000000Y-96500000D03*
X181000000Y-96500000D03*
D12*
X174730000Y-91000000D03*
D13*
%TO.P,U5,3,Pin_3*%
%TO.N,EN_BUCKS*%
X177270000Y-91000000D03*
D10*
%TO.P,U5,4,Pin_4*%
%TO.N,V7V5_ARM*%
X171000000Y-101500000D03*
%TD*%
D12*
%TO.P,U9,4,SDA*%
%TO.N,I2C_SDA*%
X110540000Y-83500000D03*
%TO.P,U9,5,SCL*%
%TO.N,I2C_SCL*%
X108000000Y-83500000D03*
%TO.P,U9,6,VS*%
%TO.N,+3V3*%
X102920000Y-83500000D03*
%TO.P,U9,7,GND*%
%TO.N,GND*%
X105460000Y-83500000D03*
%TD*%
D14*
%TO.P,J13,1,Pin_1*%
%TO.N,V12_L2*%
X191000000Y-133000000D03*
D11*
%TO.P,J13,2,Pin_2*%
%TO.N,GND*%
X191000000Y-128000000D03*
%TD*%
D14*
%TO.P,J7,1,Pin_1*%
%TO.N,V12_HIP*%
X191000000Y-85000000D03*
D11*
%TO.P,J7,2,Pin_2*%
%TO.N,GND*%
X191000000Y-80000000D03*
%TD*%
D15*
%TO.P,D1,1,K*%
%TO.N,Net-(D1-K)*%
X93000000Y-73050000D03*
%TO.P,D1,2,A*%
%TO.N,/01 Battery Input + Reverse Protection/BATT_NEG*%
X93000000Y-70250000D03*
%TD*%
D16*
%TO.P,J20,1,Pin_1*%
%TO.N,V5_AUX*%
X151000000Y-128890000D03*
D12*
%TO.P,J20,2,Pin_2*%
X151000000Y-126350000D03*
%TO.P,J20,3,Pin_3*%
%TO.N,GND*%
X153540000Y-128890000D03*
%TO.P,J20,4,Pin_4*%
X153540000Y-126350000D03*
%TO.P,J20,5,Pin_5*%
%TO.N,+3V3*%
X156080000Y-128890000D03*
%TO.P,J20,6,Pin_6*%
%TO.N,BUS_SERVO*%
X156080000Y-126350000D03*
%TO.P,J20,7,Pin_7*%
%TO.N,I2C_SDA*%
X158620000Y-128890000D03*
%TO.P,J20,8,Pin_8*%
%TO.N,I2C_SCL*%
X158620000Y-126350000D03*
%TO.P,J20,9,Pin_9*%
%TO.N,BATT_LOW*%
X161160000Y-128890000D03*
%TO.P,J20,10,Pin_10*%
%TO.N,GND*%
X161160000Y-126350000D03*
%TO.P,J20,11,Pin_11*%
X163700000Y-128890000D03*
%TO.P,J20,12,Pin_12*%
X163700000Y-126350000D03*
%TD*%
D14*
%TO.P,J3,1,Pin_1*%
%TO.N,V7V5_LEG*%
X90000000Y-83500000D03*
D11*
%TO.P,J3,2,Pin_2*%
%TO.N,GND*%
X90000000Y-78500000D03*
%TD*%
D17*
%TO.P,R_gs1,1*%
%TO.N,Net-(D1-K)*%
X100500000Y-72250000D03*
%TO.P,R_gs1,2*%
%TO.N,/01 Battery Input + Reverse Protection/BATT_NEG*%
X98850000Y-72250000D03*
%TD*%
D18*
%TO.P,J5,1,Pin_1*%
%TO.N,V7V5_LEG*%
X94450000Y-123000000D03*
D11*
%TO.P,J5,2,Pin_2*%
%TO.N,GND*%
X89450000Y-123000000D03*
%TD*%
D14*
%TO.P,J12,1,Pin_1*%
%TO.N,V12_JET*%
X191000000Y-117000000D03*
D11*
%TO.P,J12,2,Pin_2*%
%TO.N,GND*%
X191000000Y-112000000D03*
%TD*%
D10*
%TO.P,U3,1,Pin_1*%
%TO.N,VBAT_PROTECTED*%
X135500000Y-102000000D03*
D11*
%TO.P,U3,2,Pin_2*%
%TO.N,GND*%
X140500000Y-92000000D03*
X140500000Y-102000000D03*
D12*
X146000000Y-95730000D03*
D13*
%TO.P,U3,3,Pin_3*%
%TO.N,EN_BUCKS*%
X146000000Y-98270000D03*
D10*
%TO.P,U3,4,Pin_4*%
%TO.N,V12_L2_RAW*%
X135500000Y-92000000D03*
%TD*%
D14*
%TO.P,J4,1,Pin_1*%
%TO.N,V7V5_LEG*%
X90000000Y-99550000D03*
D11*
%TO.P,J4,2,Pin_2*%
%TO.N,GND*%
X90000000Y-94550000D03*
%TD*%
D19*
%TO.P,C_gs1,1*%
%TO.N,Net-(D1-K)*%
X97750000Y-67750000D03*
%TO.P,C_gs1,2*%
%TO.N,/01 Battery Input + Reverse Protection/BATT_NEG*%
X96200000Y-67750000D03*
%TD*%
D13*
%TO.P,M1,1,Pin_1*%
%TO.N,VBAT_PROTECTED*%
X124000000Y-55000000D03*
D12*
%TO.P,M1,2,Pin_2*%
%TO.N,GND*%
X124000000Y-57540000D03*
%TD*%
D20*
%TO.P,R17,1*%
%TO.N,VBAT_PROTECTED*%
X99250000Y-78400000D03*
%TO.P,R17,2*%
%TO.N,Net-(D1-K)*%
X99250000Y-76750000D03*
%TD*%
D10*
%TO.P,U1,1,Pin_1*%
%TO.N,VBAT_PROTECTED*%
X99500000Y-102000000D03*
D11*
%TO.P,U1,2,Pin_2*%
%TO.N,GND*%
X104500000Y-92000000D03*
X104500000Y-102000000D03*
D12*
X110000000Y-95730000D03*
D13*
%TO.P,U1,3,Pin_3*%
%TO.N,EN_BUCKS*%
X110000000Y-98270000D03*
D10*
%TO.P,U1,4,Pin_4*%
%TO.N,V7V5_LEG*%
X99500000Y-92000000D03*
%TD*%
D21*
%TO.P,J1,1,Pin_1*%
%TO.N,/01 Battery Input + Reverse Protection/VBAT*%
X90800000Y-57050000D03*
D22*
%TO.P,J1,2,Pin_2*%
%TO.N,/01 Battery Input + Reverse Protection/BATT_NEG*%
X90800000Y-64250000D03*
%TD*%
D12*
%TO.P,U12,4,SDA*%
%TO.N,I2C_SDA*%
X157620000Y-136500000D03*
%TO.P,U12,5,SCL*%
%TO.N,I2C_SCL*%
X155080000Y-136500000D03*
%TO.P,U12,6,VS*%
%TO.N,+3V3*%
X150000000Y-136500000D03*
%TO.P,U12,7,GND*%
%TO.N,GND*%
X152540000Y-136500000D03*
%TD*%
D23*
%TO.P,SW2,1,A*%
%TO.N,GND*%
X140000000Y-57000000D03*
D24*
%TO.P,SW2,2,B*%
%TO.N,EN_SW*%
X145000000Y-57000000D03*
%TD*%
D23*
%TO.P,SW1,1,A*%
%TO.N,/01 Battery Input + Reverse Protection/VBAT*%
X113000000Y-57000000D03*
D24*
%TO.P,SW1,2,B*%
%TO.N,VBAT_PROTECTED*%
X118000000Y-57000000D03*
%TD*%
D25*
%TO.P,C9,1*%
%TO.N,VBAT_PROTECTED*%
X114000000Y-133000000D03*
D26*
%TO.P,C9,2*%
%TO.N,GND*%
X119000000Y-133000000D03*
%TD*%
D25*
%TO.P,C8,1*%
%TO.N,VBAT_PROTECTED*%
X136500000Y-112000000D03*
D26*
%TO.P,C8,2*%
%TO.N,GND*%
X141500000Y-112000000D03*
%TD*%
D27*
%TO.P,J8,1,Pin_1*%
%TO.N,GND*%
X191000000Y-101000000D03*
D28*
%TO.P,J8,2,Pin_2*%
%TO.N,V7V5_LEG*%
X191000000Y-98500000D03*
%TO.P,J8,3,Pin_3*%
%TO.N,BUS_SERVO*%
X191000000Y-96000000D03*
%TD*%
D13*
%TO.P,J2,1,Pin_1*%
%TO.N,VBAT_PROTECTED*%
X130000000Y-56000000D03*
D12*
%TO.P,J2,2,Pin_2*%
%TO.N,GND*%
X130000000Y-58540000D03*
%TO.P,J2,3,Pin_3*%
%TO.N,V5_AUX*%
X130000000Y-61080000D03*
%TD*%
%TO.P,U11,4,SDA*%
%TO.N,I2C_SDA*%
X158540000Y-83500000D03*
%TO.P,U11,5,SCL*%
%TO.N,I2C_SCL*%
X156000000Y-83500000D03*
%TO.P,U11,6,VS*%
%TO.N,+3V3*%
X150920000Y-83500000D03*
%TO.P,U11,7,GND*%
%TO.N,GND*%
X153460000Y-83500000D03*
%TD*%
D10*
%TO.P,U4,1,Pin_1*%
%TO.N,VBAT_PROTECTED*%
X153500000Y-102000000D03*
D11*
%TO.P,U4,2,Pin_2*%
%TO.N,GND*%
X158500000Y-92000000D03*
X158500000Y-102000000D03*
D12*
X164000000Y-95730000D03*
D13*
%TO.P,U4,3,Pin_3*%
%TO.N,EN_JET*%
X164000000Y-98270000D03*
D10*
%TO.P,U4,4,Pin_4*%
%TO.N,V12_JET*%
X153500000Y-92000000D03*
%TD*%
D29*
%TO.P,J14,1,Pin_1*%
%TO.N,V7V5_ARM*%
X176750000Y-107750000D03*
D11*
%TO.P,J14,2,Pin_2*%
%TO.N,GND*%
X181750000Y-107750000D03*
%TD*%
D30*
%TO.P,Q1,1,G*%
%TO.N,Net-(D1-K)*%
X98500000Y-56500000D03*
D31*
%TO.P,Q1,2,S*%
%TO.N,/01 Battery Input + Reverse Protection/BATT_NEG*%
X101040000Y-56500000D03*
%TO.P,Q1,3,D*%
%TO.N,GND*%
X103580000Y-56500000D03*
%TD*%
D10*
%TO.P,U2,1,Pin_1*%
%TO.N,VBAT_PROTECTED*%
X117500000Y-102000000D03*
D11*
%TO.P,U2,2,Pin_2*%
%TO.N,GND*%
X122500000Y-92000000D03*
X122500000Y-102000000D03*
D12*
X128000000Y-95730000D03*
D13*
%TO.P,U2,3,Pin_3*%
%TO.N,EN_BUCKS*%
X128000000Y-98270000D03*
D10*
%TO.P,U2,4,Pin_4*%
%TO.N,V12_HIP*%
X117500000Y-92000000D03*
%TD*%
D12*
%TO.P,U10,4,SDA*%
%TO.N,I2C_SDA*%
X134040000Y-83500000D03*
%TO.P,U10,5,SCL*%
%TO.N,I2C_SCL*%
X131500000Y-83500000D03*
%TO.P,U10,6,VS*%
%TO.N,+3V3*%
X126420000Y-83500000D03*
%TO.P,U10,7,GND*%
%TO.N,GND*%
X128960000Y-83500000D03*
%TD*%
D14*
%TO.P,J6,1,Pin_1*%
%TO.N,V7V5_LEG*%
X191000000Y-69000000D03*
D11*
%TO.P,J6,2,Pin_2*%
%TO.N,GND*%
X191000000Y-64000000D03*
%TD*%
D23*
%TO.P,C2,1*%
%TO.N,V7V5_LEG*%
X105850000Y-114773959D03*
D24*
%TO.P,C2,2*%
%TO.N,GND*%
X105850000Y-109773959D03*
%TD*%
D32*
%TO.P,C6,1*%
%TO.N,V12_L2*%
X180750000Y-120750000D03*
D26*
%TO.P,C6,2*%
%TO.N,GND*%
X180750000Y-115750000D03*
%TD*%
D23*
%TO.P,C1,1*%
%TO.N,V7V5_LEG*%
X91450000Y-114350000D03*
D24*
%TO.P,C1,2*%
%TO.N,GND*%
X91450000Y-109350000D03*
%TD*%
D23*
%TO.P,C3,1*%
%TO.N,V7V5_LEG*%
X121800000Y-114750000D03*
D24*
%TO.P,C3,2*%
%TO.N,GND*%
X121800000Y-109750000D03*
%TD*%
D23*
%TO.P,C4,1*%
%TO.N,V7V5_LEG*%
X165000000Y-61300000D03*
D24*
%TO.P,C4,2*%
%TO.N,GND*%
X165000000Y-56300000D03*
%TD*%
D33*
%TO.P,C5,1*%
%TO.N,V12_HIP*%
X180000000Y-80000000D03*
D24*
%TO.P,C5,2*%
%TO.N,GND*%
X180000000Y-85000000D03*
%TD*%
D34*
%TO.N,GND*%
X153250000Y-134250000D03*
X146500000Y-136300000D03*
X141818486Y-133780115D03*
X138300000Y-127700000D03*
D35*
%TO.N,VBAT_PROTECTED*%
X104000000Y-135900000D03*
D34*
%TO.N,V5_AUX*%
X125500000Y-137300000D03*
X134000000Y-131180000D03*
X92660000Y-130530000D03*
X125500000Y-124000000D03*
X122850000Y-130400000D03*
X134000000Y-124000000D03*
D36*
%TO.N,BUS_SERVO*%
X177600000Y-117300000D03*
X177600000Y-120550000D03*
D34*
%TO.N,+3V3*%
X130229999Y-74200000D03*
X129300000Y-99700000D03*
X130900000Y-128699999D03*
X129300000Y-96800000D03*
%TO.N,I2C_SCL*%
X141000000Y-133900000D03*
%TO.N,I2C_SDA*%
X159250000Y-77600000D03*
X111250000Y-67000000D03*
X159250000Y-81500000D03*
D37*
%TO.N,BATT_LOW*%
X132400000Y-139900000D03*
X93000000Y-139900000D03*
X127100000Y-139900000D03*
X132400000Y-126350000D03*
X93000000Y-136600000D03*
X127100000Y-127800000D03*
%TO.N,/06 Safety Chain/HARDCUT*%
X133600000Y-137150000D03*
X97150000Y-139300000D03*
X90100000Y-139300000D03*
X144400000Y-139300000D03*
X97150000Y-133949999D03*
X135600000Y-139300000D03*
X90100000Y-129199999D03*
X133600000Y-139300000D03*
X135600000Y-133820000D03*
X144400000Y-134550000D03*
D34*
%TO.N,EN_BUCKS*%
X139400000Y-137600000D03*
D37*
%TO.N,/06 Safety Chain/VSENSE*%
X123000000Y-133820000D03*
X102900000Y-135350000D03*
X89360000Y-137500000D03*
X89360000Y-129199999D03*
X123600000Y-137500000D03*
X99500000Y-137500000D03*
X123600000Y-127800000D03*
X123000000Y-137500000D03*
X102900000Y-137500000D03*
%TO.N,/06 Safety Chain/VREF_G*%
X126300000Y-133820000D03*
X126300000Y-138700000D03*
X124300000Y-135250000D03*
X128199999Y-126150000D03*
X124300000Y-138700000D03*
X128199999Y-138700000D03*
X88700000Y-138700000D03*
X88700000Y-136800000D03*
%TO.N,/06 Safety Chain/VREF_H*%
X130400000Y-138100000D03*
X131699999Y-138100000D03*
X130400000Y-133820000D03*
X129000000Y-138100000D03*
X129000000Y-135300000D03*
X87400000Y-129199999D03*
X87400000Y-138100000D03*
X131699999Y-135500000D03*
D34*
%TO.N,EN_SW*%
X138000000Y-101700000D03*
X136950000Y-128550000D03*
X138000000Y-68400000D03*
X138000000Y-86800000D03*
X137240000Y-135350000D03*
%TO.N,EN_JET*%
X142560000Y-135000000D03*
X142500000Y-123750000D03*
X165900000Y-120500000D03*
%TD*%
D38*
%TO.N,V7V5_LEG*%
X189750000Y-98500000D02*
X187500000Y-96250000D01*
D39*
X186250000Y-73750000D02*
X186250000Y-95000000D01*
X186250000Y-73750000D02*
X191000000Y-69000000D01*
D38*
X189750000Y-98500000D02*
X191000000Y-98500000D01*
D40*
X109000000Y-67750000D02*
X109000000Y-64599999D01*
X110100000Y-63500000D02*
X146000000Y-63500000D01*
X109000000Y-67750000D02*
X109000000Y-69500000D01*
X107500000Y-69250000D02*
X109000000Y-67750000D01*
D39*
X186250000Y-95000000D02*
X187500000Y-96250000D01*
D40*
X109000000Y-64599999D02*
X110100000Y-63500000D01*
X109000000Y-69500000D02*
X109250000Y-69750000D01*
D39*
%TO.N,/01 Battery Input + Reverse Protection/BATT_NEG*%
X90800000Y-64250000D02*
X90800000Y-68050000D01*
X96649000Y-70250000D02*
X93000000Y-70250000D01*
X98299000Y-71900000D02*
X96649000Y-70250000D01*
X90800000Y-68050000D02*
X93000000Y-70250000D01*
%TO.N,VBAT_PROTECTED*%
X95000000Y-82750000D02*
X95000000Y-99000000D01*
D41*
X99250000Y-78400000D02*
X99250000Y-79250000D01*
D39*
X98250000Y-79500000D02*
X95000000Y-82750000D01*
X95000000Y-99000000D02*
X98000000Y-102000000D01*
D41*
X99250000Y-79250000D02*
X99000000Y-79500000D01*
D39*
X99000000Y-79500000D02*
X98250000Y-79500000D01*
D41*
X98000000Y-102000000D02*
X99500000Y-102000000D01*
D42*
%TO.N,V5_AUX*%
X105500000Y-123500000D02*
X112400000Y-130400000D01*
X92660000Y-130530000D02*
X94270000Y-130530000D01*
X94270000Y-130530000D02*
X98000000Y-126800000D01*
X98000000Y-126000000D02*
X100500000Y-123500000D01*
X112400000Y-130400000D02*
X122850000Y-130400000D01*
X125500000Y-137300000D02*
X125500000Y-124000000D01*
X98000000Y-126800000D02*
X98000000Y-126000000D01*
X134000000Y-131180000D02*
X134000000Y-124000000D01*
X100500000Y-123500000D02*
X105500000Y-123500000D01*
D43*
%TO.N,BUS_SERVO*%
X177600000Y-120550000D02*
X177600000Y-117300000D01*
D44*
%TO.N,V12_JET*%
X164750000Y-79540000D02*
X167776000Y-82566000D01*
X153500000Y-92000000D02*
X147500000Y-86000000D01*
X172250000Y-113250000D02*
X184250000Y-113250000D01*
X147500000Y-86000000D02*
X147500000Y-81040000D01*
X167776000Y-108776000D02*
X172250000Y-113250000D01*
X167776000Y-82566000D02*
X167776000Y-108776000D01*
X184250000Y-113250000D02*
X188000000Y-117000000D01*
X149000000Y-79540000D02*
X164750000Y-79540000D01*
X147500000Y-81040000D02*
X149000000Y-79540000D01*
X188000000Y-117000000D02*
X191000000Y-117000000D01*
D42*
%TO.N,+3V3*%
X129300000Y-87179999D02*
X130229999Y-86250000D01*
X129300000Y-128400000D02*
X130900000Y-128699999D01*
D41*
X126420000Y-83500000D02*
X130229999Y-79690001D01*
D42*
X130229999Y-86250000D02*
X130229999Y-79690001D01*
X129300000Y-96800000D02*
X129300000Y-87179999D01*
D41*
X106170000Y-86750000D02*
X123170000Y-86750000D01*
X102920000Y-83500000D02*
X106170000Y-86750000D01*
D42*
X130229999Y-79690001D02*
X130229999Y-74200000D01*
X129300000Y-99700000D02*
X129300000Y-128400000D01*
D41*
X123170000Y-86750000D02*
X126420000Y-83500000D01*
D42*
%TO.N,I2C_SCL*%
X141000000Y-122500000D02*
X141000000Y-133900000D01*
D41*
X120250000Y-71250000D02*
X129500000Y-71250000D01*
D42*
X156250000Y-122000000D02*
X156000000Y-121750000D01*
X156000000Y-94000000D02*
X156000000Y-83500000D01*
X155750000Y-122000000D02*
X141500000Y-122000000D01*
X156000000Y-95000000D02*
X156000000Y-94000000D01*
D41*
X108000000Y-83500000D02*
X120250000Y-71250000D01*
D42*
X141500000Y-122000000D02*
X141000000Y-122500000D01*
X156000000Y-122000000D02*
X156000000Y-121750000D01*
D41*
X157469000Y-134111000D02*
X157469000Y-131219000D01*
D42*
X155500000Y-94500000D02*
X156000000Y-94000000D01*
X155500000Y-94500000D02*
X156000000Y-94500000D01*
X156000000Y-121750000D02*
X156000000Y-95000000D01*
X156250000Y-122000000D02*
X156000000Y-122000000D01*
D41*
X157469000Y-131219000D02*
X157469000Y-127501000D01*
X157469000Y-127501000D02*
X158620000Y-126350000D01*
D42*
X131500000Y-94100000D02*
X131500000Y-83500000D01*
X156250000Y-122000000D02*
X158620000Y-124370000D01*
X156000000Y-122000000D02*
X155750000Y-122000000D01*
X155500000Y-94500000D02*
X156000000Y-95000000D01*
X155750000Y-122000000D02*
X156000000Y-121750000D01*
X131900000Y-94500000D02*
X131500000Y-94100000D01*
X131500000Y-83100000D02*
X131500000Y-83500000D01*
X131900000Y-94500000D02*
X155500000Y-94500000D01*
X158620000Y-124370000D02*
X158620000Y-126350000D01*
D41*
X155080000Y-136500000D02*
X157469000Y-134111000D01*
X131500000Y-73250000D02*
X131500000Y-83500000D01*
X129500000Y-71250000D02*
X131500000Y-73250000D01*
D42*
%TO.N,I2C_SDA*%
X134039999Y-82500000D02*
X134039999Y-83500000D01*
D41*
X160546000Y-130816000D02*
X164043500Y-130816000D01*
X159470000Y-134650000D02*
X157620000Y-136500000D01*
X164043500Y-130816000D02*
X165534000Y-130816000D01*
D42*
X166600000Y-129750000D02*
X166600000Y-86400000D01*
X127040000Y-67000000D02*
X134750000Y-67000000D01*
X158540000Y-86400000D02*
X158540000Y-83500000D01*
X158540000Y-82200000D02*
X158540000Y-83500000D01*
X134750000Y-67000000D02*
X134750000Y-81800000D01*
X166600000Y-86400000D02*
X158540000Y-86400000D01*
D41*
X158620000Y-128890000D02*
X159470000Y-129740000D01*
D42*
X111250000Y-67000000D02*
X127040000Y-67000000D01*
X134750000Y-81800000D02*
X134039999Y-82500000D01*
X134750000Y-67000000D02*
X159250000Y-67000000D01*
D41*
X165534000Y-130816000D02*
X166600000Y-129750000D01*
D42*
X159250000Y-67000000D02*
X159250000Y-77600000D01*
X159250000Y-81500000D02*
X158540000Y-82200000D01*
D41*
X159470000Y-129740000D02*
X159470000Y-134650000D01*
X158620000Y-128890000D02*
X160546000Y-130816000D01*
D42*
%TO.N,BATT_LOW*%
X127100000Y-127800000D02*
X127100000Y-139900000D01*
X132400000Y-126350000D02*
X132400000Y-139900000D01*
X93000000Y-136600000D02*
X93000000Y-139900000D01*
%TO.N,/06 Safety Chain/HARDCUT*%
X97150000Y-133949999D02*
X97150000Y-139300000D01*
X90100000Y-129199999D02*
X90100000Y-139300000D01*
X135600000Y-133820000D02*
X135600000Y-139300000D01*
X133600000Y-137150000D02*
X133600000Y-139300000D01*
X144400000Y-134550000D02*
X144400000Y-139300000D01*
D43*
%TO.N,EN_BUCKS*%
X110000000Y-98270000D02*
X128000000Y-98270000D01*
X128000000Y-98270000D02*
X146000000Y-98270000D01*
X146000000Y-103000000D02*
X146000000Y-98270000D01*
X139600000Y-105000000D02*
X143500000Y-105000000D01*
X139400000Y-137600000D02*
X139600000Y-137400000D01*
X139600000Y-137400000D02*
X139600000Y-105000000D01*
X143500000Y-105000000D02*
X146000000Y-103000000D01*
D42*
%TO.N,/06 Safety Chain/VSENSE*%
X89360000Y-129199999D02*
X89360000Y-137500000D01*
X123000000Y-133820000D02*
X123000000Y-137500000D01*
X100500000Y-138500000D02*
X101900000Y-138500000D01*
X101900000Y-138500000D02*
X102900000Y-137500000D01*
X99500000Y-137500000D02*
X100500000Y-138500000D01*
X123600000Y-127800000D02*
X123600000Y-137500000D01*
X102900000Y-135350000D02*
X102900000Y-137500000D01*
%TO.N,/06 Safety Chain/VREF_G*%
X88700000Y-136800000D02*
X88700000Y-138700000D01*
X126300000Y-133820000D02*
X126300000Y-138700000D01*
X124300000Y-135250000D02*
X124300000Y-138700000D01*
X128199999Y-126150000D02*
X128199999Y-138700000D01*
%TO.N,/06 Safety Chain/VREF_H*%
X87400000Y-129199999D02*
X87400000Y-138100000D01*
X131699999Y-135500000D02*
X131699999Y-138100000D01*
X129000000Y-135300000D02*
X129000000Y-138100000D01*
X130400000Y-133820000D02*
X130400000Y-138100000D01*
D39*
%TO.N,V7V5_ARM*%
X176750000Y-107750000D02*
X176750000Y-107250000D01*
X171000000Y-101500000D02*
X171000000Y-102000000D01*
X171000000Y-102000000D02*
X176750000Y-107750000D01*
D42*
%TO.N,EN_SW*%
X136950000Y-128550000D02*
X138300000Y-129500000D01*
X134800000Y-126400000D02*
X134800000Y-108000000D01*
X138000000Y-104800000D02*
X138000000Y-101700000D01*
X138300000Y-129500000D02*
X138300000Y-134300000D01*
X138000000Y-86800000D02*
X138000000Y-68400000D01*
X138300000Y-134300000D02*
X137240000Y-135350000D01*
X136950000Y-128550000D02*
X134800000Y-126400000D01*
X136600000Y-106200000D02*
X138000000Y-104800000D01*
X134800000Y-108000000D02*
X136600000Y-106200000D01*
%TO.N,EN_JET*%
X142560000Y-124400000D02*
X142500000Y-123750000D01*
X165900000Y-120500000D02*
X165900000Y-98270000D01*
X165900000Y-98270000D02*
X164000000Y-98270000D01*
X142560000Y-135000000D02*
X142560000Y-124400000D01*
D41*
%TO.N,Net-(D1-K)*%
X96500000Y-76750000D02*
X93000000Y-73250000D01*
X99550000Y-67750000D02*
X100500000Y-68700000D01*
X97750000Y-67750000D02*
X99550000Y-67750000D01*
X97750000Y-67750000D02*
X97750000Y-57250000D01*
X100500000Y-72250000D02*
X100500000Y-75500000D01*
X100500000Y-72250000D02*
X100500000Y-68700000D01*
X100500000Y-75500000D02*
X99250000Y-76750000D01*
X99250000Y-76750000D02*
X96500000Y-76750000D01*
X93000000Y-73250000D02*
X93000000Y-73050000D01*
X97750000Y-57250000D02*
X98500000Y-56500000D01*
%TD*%
%TA.AperFunction,Conductor*%
%TO.N,Net-(D1-K)*%
G36*
X98506553Y-56508917D02*
G01*
X98507760Y-56510412D01*
X99142043Y-57443164D01*
X99143861Y-57451932D01*
X99139289Y-57459177D01*
X97962982Y-58322116D01*
X97854672Y-58401573D01*
X97853089Y-58402734D01*
X97846168Y-58405000D01*
X97660002Y-58405000D01*
X97651729Y-58401573D01*
X97648444Y-58395120D01*
X97501051Y-57459177D01*
X97500953Y-57458554D01*
X97503052Y-57449851D01*
X97504430Y-57448275D01*
X98490013Y-56508521D01*
X98498363Y-56505294D01*
X98506553Y-56508917D01*
G37*
%TD.AperFunction*%
%TD*%
%TA.AperFunction,Conductor*%
%TO.N,+3V3*%
G36*
X126230405Y-83461632D02*
G01*
X126413021Y-83497772D01*
X126420472Y-83502739D01*
X126422227Y-83506978D01*
X126583824Y-84323549D01*
X126582069Y-84332330D01*
X126576039Y-84336922D01*
X125307033Y-84758962D01*
X125298101Y-84758321D01*
X125295068Y-84756133D01*
X125163866Y-84624931D01*
X125160439Y-84616658D01*
X125161037Y-84612966D01*
X125583078Y-83343957D01*
X125588939Y-83337191D01*
X125596449Y-83336175D01*
X126230405Y-83461632D01*
G37*
%TD.AperFunction*%
%TD*%
%TA.AperFunction,Conductor*%
%TO.N,I2C_SDA*%
G36*
X159449532Y-128728483D02*
G01*
X159454499Y-128735935D01*
X159454686Y-128737298D01*
X159569021Y-130208980D01*
X159566245Y-130217493D01*
X159558262Y-130221551D01*
X159557356Y-130221586D01*
X159372818Y-130221586D01*
X159367492Y-130220304D01*
X158159463Y-129602729D01*
X158153658Y-129595912D01*
X158154372Y-129586986D01*
X158155053Y-129585824D01*
X158617304Y-128893040D01*
X158624743Y-128888062D01*
X159440753Y-128726726D01*
X159449532Y-128728483D01*
G37*
%TD.AperFunction*%
%TD*%
%TA.AperFunction,Conductor*%
%TO.N,I2C_SCL*%
G36*
X156201898Y-135241678D02*
G01*
X156204931Y-135243866D01*
X156336133Y-135375068D01*
X156339560Y-135383341D01*
X156338962Y-135387033D01*
X155916922Y-136656039D01*
X155911060Y-136662808D01*
X155903549Y-136663824D01*
X155086978Y-136502227D01*
X155079527Y-136497260D01*
X155077772Y-136493021D01*
X154916175Y-135676450D01*
X154917930Y-135667669D01*
X154923957Y-135663078D01*
X156192966Y-135241037D01*
X156201898Y-135241678D01*
G37*
%TD.AperFunction*%
%TD*%
%TA.AperFunction,Conductor*%
%TO.N,V12_JET*%
G36*
X151431376Y-88868905D02*
G01*
X153011053Y-90097542D01*
X153015205Y-90103876D01*
X153495809Y-91981573D01*
X153494540Y-91990437D01*
X153487375Y-91995809D01*
X153481573Y-91995809D01*
X151603876Y-91515205D01*
X151597542Y-91511053D01*
X150368905Y-89931376D01*
X150366530Y-89922742D01*
X150369866Y-89915921D01*
X151415921Y-88869866D01*
X151424193Y-88866440D01*
X151431376Y-88868905D01*
G37*
%TD.AperFunction*%
%TD*%
%TA.AperFunction,Conductor*%
%TO.N,+3V3*%
G36*
X127541898Y-82241678D02*
G01*
X127544931Y-82243866D01*
X127676133Y-82375068D01*
X127679560Y-82383341D01*
X127678962Y-82387033D01*
X127256922Y-83656039D01*
X127251060Y-83662808D01*
X127243549Y-83663824D01*
X126426978Y-83502227D01*
X126419527Y-83497260D01*
X126417772Y-83493021D01*
X126256175Y-82676450D01*
X126257930Y-82667669D01*
X126263957Y-82663078D01*
X127532966Y-82241037D01*
X127541898Y-82241678D01*
G37*
%TD.AperFunction*%
%TD*%
%TA.AperFunction,Conductor*%
%TO.N,I2C_SCL*%
G36*
X109121898Y-82241678D02*
G01*
X109124931Y-82243866D01*
X109256133Y-82375068D01*
X109259560Y-82383341D01*
X109258962Y-82387033D01*
X108836922Y-83656039D01*
X108831060Y-83662808D01*
X108823549Y-83663824D01*
X108006978Y-83502227D01*
X107999527Y-83497260D01*
X107997772Y-83493021D01*
X107836175Y-82676450D01*
X107837930Y-82667669D01*
X107843957Y-82663078D01*
X109112966Y-82241037D01*
X109121898Y-82241678D01*
G37*
%TD.AperFunction*%
%TD*%
%TA.AperFunction,Conductor*%
%TO.N,I2C_SCL*%
G36*
X158745912Y-124669760D02*
G01*
X158748186Y-124672968D01*
X159322358Y-125868621D01*
X159322850Y-125877562D01*
X159318321Y-125883408D01*
X158626510Y-126346640D01*
X158617729Y-126348395D01*
X158613490Y-126346640D01*
X157921678Y-125883408D01*
X157916711Y-125875957D01*
X157917640Y-125868624D01*
X158491814Y-124672968D01*
X158498485Y-124666994D01*
X158502361Y-124666333D01*
X158737639Y-124666333D01*
X158745912Y-124669760D01*
G37*
%TD.AperFunction*%
%TD*%
%TA.AperFunction,Conductor*%
%TO.N,V7V5_LEG*%
G36*
X88583426Y-67004933D02*
G01*
X88605597Y-67004877D01*
X88626048Y-67014661D01*
X88648154Y-67019707D01*
X88682775Y-67041801D01*
X88685487Y-67043099D01*
X88686786Y-67044129D01*
X88712240Y-67065019D01*
X88717809Y-67068740D01*
X88724176Y-67073791D01*
X88746913Y-67102152D01*
X88771893Y-67128570D01*
X88774403Y-67136443D01*
X88779572Y-67142891D01*
X88787752Y-67178315D01*
X88798794Y-67212949D01*
X88797639Y-67221131D01*
X88799499Y-67229183D01*
X88799500Y-67229692D01*
X88799500Y-68181125D01*
X88806003Y-68230517D01*
X88806003Y-68230519D01*
X88806004Y-68230519D01*
X88806004Y-68230520D01*
X88825932Y-68381887D01*
X88833729Y-68441115D01*
X88833731Y-68441124D01*
X88836925Y-68453044D01*
X88881914Y-68620943D01*
X88901602Y-68694419D01*
X88933752Y-68772036D01*
X89001954Y-68936691D01*
X89001955Y-68936694D01*
X89001957Y-68936697D01*
X89056497Y-69031163D01*
X89133077Y-69163805D01*
X89202384Y-69254127D01*
X89202389Y-69254132D01*
X89292722Y-69371857D01*
X91678142Y-71757277D01*
X91678146Y-71757280D01*
X91678149Y-71757283D01*
X91795868Y-71847611D01*
X91886197Y-71916924D01*
X92042104Y-72006936D01*
X92046505Y-72009797D01*
X92073761Y-72037904D01*
X92102475Y-72064546D01*
X92104431Y-72069531D01*
X92108159Y-72073375D01*
X92120524Y-72110533D01*
X92134831Y-72146987D01*
X92134430Y-72152326D01*
X92136122Y-72157408D01*
X92131138Y-72196261D01*
X92128213Y-72235303D01*
X92125310Y-72241700D01*
X92124855Y-72245252D01*
X92121026Y-72251141D01*
X92107427Y-72281116D01*
X92015189Y-72430658D01*
X92015186Y-72430665D01*
X91960002Y-72597198D01*
X91960001Y-72597200D01*
X91960001Y-72597203D01*
X91949500Y-72699991D01*
X91949500Y-72699998D01*
X91949500Y-72699999D01*
X91949500Y-73400007D01*
X91949501Y-73400013D01*
X91960000Y-73502795D01*
X92015186Y-73669334D01*
X92015187Y-73669336D01*
X92027757Y-73689715D01*
X92107288Y-73818656D01*
X92231344Y-73942712D01*
X92380666Y-74034814D01*
X92547203Y-74089999D01*
X92649991Y-74100500D01*
X92918836Y-74100499D01*
X93005178Y-74120206D01*
X93059550Y-74158785D01*
X96012520Y-77111755D01*
X96012530Y-77111766D01*
X96019479Y-77118715D01*
X96019480Y-77118716D01*
X96131284Y-77230520D01*
X96131286Y-77230521D01*
X96131287Y-77230522D01*
X96268212Y-77309575D01*
X96268215Y-77309577D01*
X96286257Y-77314411D01*
X96380019Y-77339534D01*
X96380021Y-77339535D01*
X96380021Y-77339534D01*
X96420942Y-77350500D01*
X96420943Y-77350500D01*
X97229367Y-77350500D01*
X97261370Y-77357804D01*
X97294011Y-77361292D01*
X97304116Y-77367560D01*
X97315710Y-77370207D01*
X97341373Y-77390673D01*
X97369270Y-77407979D01*
X97375655Y-77418013D01*
X97384951Y-77425426D01*
X97399192Y-77454996D01*
X97416819Y-77482695D01*
X97418218Y-77494504D01*
X97423378Y-77505218D01*
X97423378Y-77538044D01*
X97427241Y-77570643D01*
X97423378Y-77581889D01*
X97423378Y-77593782D01*
X97409134Y-77623357D01*
X97398471Y-77654404D01*
X97390432Y-77662192D01*
X97384951Y-77673574D01*
X97336209Y-77717386D01*
X97332590Y-77719688D01*
X97136197Y-77833076D01*
X97054564Y-77895716D01*
X97047643Y-77901026D01*
X97047636Y-77901031D01*
X96928145Y-77992719D01*
X93492719Y-81428145D01*
X93409242Y-81536936D01*
X93404811Y-81542711D01*
X93333076Y-81636197D01*
X93256926Y-81768093D01*
X93254050Y-81773073D01*
X93254043Y-81773085D01*
X93201957Y-81863300D01*
X93101603Y-82105577D01*
X93101601Y-82105583D01*
X93033729Y-82358881D01*
X93033728Y-82358889D01*
X93018507Y-82474498D01*
X93018508Y-82474499D01*
X93018508Y-82474500D01*
X93002052Y-82599500D01*
X92999500Y-82618881D01*
X92999500Y-99131125D01*
X93012186Y-99227480D01*
X93012186Y-99227482D01*
X93012187Y-99227482D01*
X93012187Y-99227483D01*
X93029940Y-99362330D01*
X93033729Y-99391115D01*
X93033732Y-99391128D01*
X93079999Y-99563797D01*
X93097655Y-99629688D01*
X93101602Y-99644419D01*
X93120352Y-99689685D01*
X93201954Y-99886691D01*
X93201955Y-99886694D01*
X93201957Y-99886697D01*
X93270577Y-100005552D01*
X93297467Y-100052127D01*
X93333076Y-100113803D01*
X93382451Y-100178149D01*
X93492719Y-100321854D01*
X94492717Y-101321851D01*
X96678145Y-103507280D01*
X96886202Y-103666927D01*
X97000000Y-103732628D01*
X97064921Y-103792866D01*
X97097277Y-103875308D01*
X97099500Y-103904963D01*
X97099500Y-103947875D01*
X97105908Y-104007481D01*
X97156203Y-104142329D01*
X97156207Y-104142335D01*
X97242453Y-104257546D01*
X97319984Y-104315585D01*
X97357669Y-104343796D01*
X97492517Y-104394091D01*
X97552127Y-104400500D01*
X101447872Y-104400499D01*
X101447876Y-104400499D01*
X101487612Y-104396227D01*
X101507483Y-104394091D01*
X101642331Y-104343796D01*
X101757546Y-104257546D01*
X101843796Y-104142331D01*
X101894091Y-104007483D01*
X101900500Y-103947873D01*
X101900499Y-103006540D01*
X101920206Y-102920201D01*
X101975424Y-102850960D01*
X102055217Y-102812533D01*
X102143780Y-102812533D01*
X102223573Y-102850959D01*
X102278791Y-102920200D01*
X102395716Y-103162997D01*
X102533903Y-103382920D01*
X102539165Y-103391293D01*
X102539174Y-103391306D01*
X102707258Y-103602076D01*
X102707266Y-103602085D01*
X102897914Y-103792733D01*
X102897923Y-103792741D01*
X103108693Y-103960825D01*
X103108703Y-103960832D01*
X103108711Y-103960838D01*
X103337003Y-104104284D01*
X103579921Y-104221267D01*
X103834409Y-104310316D01*
X104097268Y-104370312D01*
X104365191Y-104400500D01*
X104365192Y-104400500D01*
X104634808Y-104400500D01*
X104634809Y-104400500D01*
X104902732Y-104370312D01*
X105165591Y-104310316D01*
X105420079Y-104221267D01*
X105662997Y-104104284D01*
X105891289Y-103960838D01*
X105891300Y-103960828D01*
X105891306Y-103960825D01*
X106102076Y-103792741D01*
X106102085Y-103792734D01*
X106292734Y-103602085D01*
X106357700Y-103520620D01*
X106460825Y-103391306D01*
X106460828Y-103391300D01*
X106460838Y-103391289D01*
X106604284Y-103162997D01*
X106721267Y-102920079D01*
X106810316Y-102665591D01*
X106870312Y-102402732D01*
X106900500Y-102134809D01*
X106900500Y-101865191D01*
X106870312Y-101597268D01*
X106810316Y-101334409D01*
X106721267Y-101079921D01*
X106604284Y-100837003D01*
X106460838Y-100608711D01*
X106460833Y-100608705D01*
X106460825Y-100608693D01*
X106292741Y-100397923D01*
X106292733Y-100397914D01*
X106102088Y-100207269D01*
X106102085Y-100207266D01*
X106095960Y-100202382D01*
X106095960Y-100202381D01*
X106095959Y-100202381D01*
X105907547Y-100052127D01*
X115099500Y-100052127D01*
X115099500Y-100052128D01*
X115099500Y-100052132D01*
X115099500Y-103947876D01*
X115105908Y-104007481D01*
X115156203Y-104142329D01*
X115156207Y-104142335D01*
X115242453Y-104257546D01*
X115319984Y-104315585D01*
X115357669Y-104343796D01*
X115492517Y-104394091D01*
X115552127Y-104400500D01*
X119447872Y-104400499D01*
X119447876Y-104400499D01*
X119487612Y-104396227D01*
X119507483Y-104394091D01*
X119642331Y-104343796D01*
X119757546Y-104257546D01*
X119843796Y-104142331D01*
X119894091Y-104007483D01*
X119900500Y-103947873D01*
X119900499Y-103006540D01*
X119920206Y-102920201D01*
X119975424Y-102850960D01*
X120055217Y-102812533D01*
X120143780Y-102812533D01*
X120223573Y-102850959D01*
X120278791Y-102920200D01*
X120395716Y-103162997D01*
X120533903Y-103382920D01*
X120539165Y-103391293D01*
X120539174Y-103391306D01*
X120707258Y-103602076D01*
X120707266Y-103602085D01*
X120897914Y-103792733D01*
X120897923Y-103792741D01*
X121108693Y-103960825D01*
X121108703Y-103960832D01*
X121108711Y-103960838D01*
X121337003Y-104104284D01*
X121579921Y-104221267D01*
X121834409Y-104310316D01*
X122097268Y-104370312D01*
X122365191Y-104400500D01*
X122365192Y-104400500D01*
X122634808Y-104400500D01*
X122634809Y-104400500D01*
X122902732Y-104370312D01*
X123165591Y-104310316D01*
X123420079Y-104221267D01*
X123662997Y-104104284D01*
X123891289Y-103960838D01*
X123891300Y-103960828D01*
X123891306Y-103960825D01*
X124102076Y-103792741D01*
X124102085Y-103792734D01*
X124292734Y-103602085D01*
X124357700Y-103520620D01*
X124460825Y-103391306D01*
X124460828Y-103391300D01*
X124460838Y-103391289D01*
X124604284Y-103162997D01*
X124721267Y-102920079D01*
X124810316Y-102665591D01*
X124870312Y-102402732D01*
X124900500Y-102134809D01*
X124900500Y-101865191D01*
X124870312Y-101597268D01*
X124810316Y-101334409D01*
X124721267Y-101079921D01*
X124604284Y-100837003D01*
X124460838Y-100608711D01*
X124460833Y-100608705D01*
X124460825Y-100608693D01*
X124292741Y-100397923D01*
X124292733Y-100397914D01*
X124102085Y-100207266D01*
X124102076Y-100207258D01*
X123891306Y-100039174D01*
X123891293Y-100039165D01*
X123891291Y-100039164D01*
X123891289Y-100039162D01*
X123662997Y-99895716D01*
X123420079Y-99778733D01*
X123420073Y-99778731D01*
X123420063Y-99778727D01*
X123165595Y-99689685D01*
X123165596Y-99689685D01*
X123052690Y-99663915D01*
X122902732Y-99629688D01*
X122902728Y-99629687D01*
X122902726Y-99629687D01*
X122691681Y-99605908D01*
X122634809Y-99599500D01*
X122365191Y-99599500D01*
X122310235Y-99605692D01*
X122097273Y-99629687D01*
X122097269Y-99629687D01*
X122097268Y-99629688D01*
X122024581Y-99646278D01*
X121834403Y-99689685D01*
X121579936Y-99778727D01*
X121579918Y-99778734D01*
X121336997Y-99895719D01*
X121108706Y-100039165D01*
X121108693Y-100039174D01*
X120897923Y-100207258D01*
X120897914Y-100207266D01*
X120707266Y-100397914D01*
X120707258Y-100397923D01*
X120539174Y-100608693D01*
X120539165Y-100608706D01*
X120395719Y-100836997D01*
X120395716Y-100837002D01*
X120395716Y-100837003D01*
X120331297Y-100970772D01*
X120278792Y-101079799D01*
X120223573Y-101149041D01*
X120143780Y-101187467D01*
X120055217Y-101187467D01*
X119975424Y-101149040D01*
X119920206Y-101079799D01*
X119900499Y-100993456D01*
X119900499Y-100052123D01*
X119894091Y-99992518D01*
X119857988Y-99895719D01*
X119843796Y-99857669D01*
X119800625Y-99800000D01*
X119757546Y-99742453D01*
X119642335Y-99656207D01*
X119642331Y-99656204D01*
X119507483Y-99605909D01*
X119447873Y-99599500D01*
X119447867Y-99599500D01*
X115552123Y-99599500D01*
X115492518Y-99605908D01*
X115357670Y-99656203D01*
X115357664Y-99656207D01*
X115242453Y-99742453D01*
X115156207Y-99857664D01*
X115156204Y-99857669D01*
X115105909Y-99992517D01*
X115099500Y-100052127D01*
X105907547Y-100052127D01*
X105891289Y-100039162D01*
X105662997Y-99895716D01*
X105420079Y-99778733D01*
X105420073Y-99778731D01*
X105420063Y-99778727D01*
X105165595Y-99689685D01*
X105165596Y-99689685D01*
X105052690Y-99663915D01*
X104902732Y-99629688D01*
X104902728Y-99629687D01*
X104902726Y-99629687D01*
X104691681Y-99605908D01*
X104634809Y-99599500D01*
X104365191Y-99599500D01*
X104310235Y-99605692D01*
X104097273Y-99629687D01*
X104097269Y-99629687D01*
X104097268Y-99629688D01*
X104024581Y-99646278D01*
X103834403Y-99689685D01*
X103579936Y-99778727D01*
X103579918Y-99778734D01*
X103336997Y-99895719D01*
X103108706Y-100039165D01*
X103108693Y-100039174D01*
X102897923Y-100207258D01*
X102897914Y-100207266D01*
X102707266Y-100397914D01*
X102707258Y-100397923D01*
X102539174Y-100608693D01*
X102539165Y-100608706D01*
X102395719Y-100836997D01*
X102395716Y-100837002D01*
X102395716Y-100837003D01*
X102331297Y-100970772D01*
X102278792Y-101079799D01*
X102223573Y-101149041D01*
X102143780Y-101187467D01*
X102055217Y-101187467D01*
X101975424Y-101149040D01*
X101920206Y-101079799D01*
X101900499Y-100993456D01*
X101900499Y-100052123D01*
X101894091Y-99992518D01*
X101857988Y-99895719D01*
X101843796Y-99857669D01*
X101800625Y-99800000D01*
X101757546Y-99742453D01*
X101642335Y-99656207D01*
X101642331Y-99656204D01*
X101507483Y-99605909D01*
X101447873Y-99599500D01*
X101447868Y-99599500D01*
X98511062Y-99599500D01*
X98424719Y-99579793D01*
X98370348Y-99541214D01*
X97058786Y-98229652D01*
X97011667Y-98154664D01*
X97000500Y-98088938D01*
X97000500Y-94473349D01*
X97020207Y-94387006D01*
X97075426Y-94317765D01*
X97155218Y-94279338D01*
X97243782Y-94279338D01*
X97318759Y-94314043D01*
X97357912Y-94343353D01*
X97492618Y-94393596D01*
X97492627Y-94393598D01*
X97552177Y-94400000D01*
X99250000Y-94400000D01*
X99250000Y-93327231D01*
X99393753Y-93350000D01*
X99606247Y-93350000D01*
X99750000Y-93327231D01*
X99750000Y-94400000D01*
X101447823Y-94400000D01*
X101507372Y-94393598D01*
X101507381Y-94393596D01*
X101642087Y-94343353D01*
X101642090Y-94343352D01*
X101757189Y-94257189D01*
X101843352Y-94142090D01*
X101843353Y-94142087D01*
X101893596Y-94007381D01*
X101893598Y-94007372D01*
X101900000Y-93947822D01*
X101900000Y-93005506D01*
X101919707Y-92919163D01*
X101974926Y-92849922D01*
X102054718Y-92811495D01*
X102143282Y-92811495D01*
X102223074Y-92849922D01*
X102278293Y-92919163D01*
X102278730Y-92920070D01*
X102278733Y-92920079D01*
X102395716Y-93162997D01*
X102536465Y-93386997D01*
X102539165Y-93391293D01*
X102539174Y-93391306D01*
X102707258Y-93602076D01*
X102707266Y-93602085D01*
X102897914Y-93792733D01*
X102897923Y-93792741D01*
X103108693Y-93960825D01*
X103108705Y-93960833D01*
X103108711Y-93960838D01*
X103337003Y-94104284D01*
X103579921Y-94221267D01*
X103834409Y-94310316D01*
X104097268Y-94370312D01*
X104365191Y-94400500D01*
X104365192Y-94400500D01*
X104634808Y-94400500D01*
X104634809Y-94400500D01*
X104902732Y-94370312D01*
X105165591Y-94310316D01*
X105420079Y-94221267D01*
X105662997Y-94104284D01*
X105891289Y-93960838D01*
X105891300Y-93960828D01*
X105891306Y-93960825D01*
X106102076Y-93792741D01*
X106102085Y-93792734D01*
X106292734Y-93602085D01*
X106333315Y-93551197D01*
X106460825Y-93391306D01*
X106460828Y-93391300D01*
X106460838Y-93391289D01*
X106604284Y-93162997D01*
X106721267Y-92920079D01*
X106810316Y-92665591D01*
X106870312Y-92402732D01*
X106900500Y-92134809D01*
X106900500Y-91865191D01*
X106870312Y-91597268D01*
X106810316Y-91334409D01*
X106803959Y-91316243D01*
X106745816Y-91150078D01*
X106721267Y-91079921D01*
X106604284Y-90837003D01*
X106460838Y-90608711D01*
X106460833Y-90608705D01*
X106460825Y-90608693D01*
X106292741Y-90397923D01*
X106292733Y-90397914D01*
X106102088Y-90207269D01*
X106102085Y-90207266D01*
X106095960Y-90202382D01*
X106095960Y-90202381D01*
X106095959Y-90202381D01*
X105907547Y-90052127D01*
X115099500Y-90052127D01*
X115099500Y-90052128D01*
X115099500Y-90052132D01*
X115099500Y-93947876D01*
X115105908Y-94007481D01*
X115156203Y-94142329D01*
X115156207Y-94142335D01*
X115242453Y-94257546D01*
X115317924Y-94314043D01*
X115357669Y-94343796D01*
X115492517Y-94394091D01*
X115552127Y-94400500D01*
X119447872Y-94400499D01*
X119447876Y-94400499D01*
X119492366Y-94395716D01*
X119507483Y-94394091D01*
X119642331Y-94343796D01*
X119757546Y-94257546D01*
X119843796Y-94142331D01*
X119894091Y-94007483D01*
X119900500Y-93947873D01*
X119900499Y-93006540D01*
X119920206Y-92920201D01*
X119975424Y-92850960D01*
X120055217Y-92812533D01*
X120143780Y-92812533D01*
X120223573Y-92850959D01*
X120278791Y-92920200D01*
X120395716Y-93162997D01*
X120536465Y-93386997D01*
X120539165Y-93391293D01*
X120539174Y-93391306D01*
X120707258Y-93602076D01*
X120707266Y-93602085D01*
X120897914Y-93792733D01*
X120897923Y-93792741D01*
X121108693Y-93960825D01*
X121108705Y-93960833D01*
X121108711Y-93960838D01*
X121337003Y-94104284D01*
X121579921Y-94221267D01*
X121834409Y-94310316D01*
X122097268Y-94370312D01*
X122365191Y-94400500D01*
X122365192Y-94400500D01*
X122634808Y-94400500D01*
X122634809Y-94400500D01*
X122902732Y-94370312D01*
X123165591Y-94310316D01*
X123420079Y-94221267D01*
X123662997Y-94104284D01*
X123891289Y-93960838D01*
X123891300Y-93960828D01*
X123891306Y-93960825D01*
X124102076Y-93792741D01*
X124102085Y-93792734D01*
X124292734Y-93602085D01*
X124333315Y-93551197D01*
X124460825Y-93391306D01*
X124460828Y-93391300D01*
X124460838Y-93391289D01*
X124604284Y-93162997D01*
X124721267Y-92920079D01*
X124810316Y-92665591D01*
X124870312Y-92402732D01*
X124900500Y-92134809D01*
X124900500Y-91865191D01*
X124870312Y-91597268D01*
X124810316Y-91334409D01*
X124803959Y-91316243D01*
X124745816Y-91150078D01*
X124721267Y-91079921D01*
X124604284Y-90837003D01*
X124460838Y-90608711D01*
X124460833Y-90608705D01*
X124460825Y-90608693D01*
X124292741Y-90397923D01*
X124292733Y-90397914D01*
X124102085Y-90207266D01*
X124102076Y-90207258D01*
X123891306Y-90039174D01*
X123891293Y-90039165D01*
X123891291Y-90039164D01*
X123891289Y-90039162D01*
X123662997Y-89895716D01*
X123420079Y-89778733D01*
X123420073Y-89778731D01*
X123420063Y-89778727D01*
X123165595Y-89689685D01*
X123165596Y-89689685D01*
X123020851Y-89656648D01*
X122902732Y-89629688D01*
X122902728Y-89629687D01*
X122902726Y-89629687D01*
X122691681Y-89605908D01*
X122634809Y-89599500D01*
X122365191Y-89599500D01*
X122310235Y-89605692D01*
X122097273Y-89629687D01*
X122097269Y-89629687D01*
X122097268Y-89629688D01*
X122024581Y-89646278D01*
X121834403Y-89689685D01*
X121579936Y-89778727D01*
X121579918Y-89778734D01*
X121336997Y-89895719D01*
X121108706Y-90039165D01*
X121108693Y-90039174D01*
X120897923Y-90207258D01*
X120897914Y-90207266D01*
X120707266Y-90397914D01*
X120707258Y-90397923D01*
X120539174Y-90608693D01*
X120539165Y-90608706D01*
X120395719Y-90836997D01*
X120278792Y-91079799D01*
X120223573Y-91149041D01*
X120143780Y-91187467D01*
X120055217Y-91187467D01*
X119975424Y-91149040D01*
X119920206Y-91079799D01*
X119900499Y-90993456D01*
X119900499Y-90052123D01*
X119894091Y-89992518D01*
X119862445Y-89907669D01*
X119843796Y-89857669D01*
X119794976Y-89792454D01*
X119757546Y-89742453D01*
X119642335Y-89656207D01*
X119642331Y-89656204D01*
X119507483Y-89605909D01*
X119447873Y-89599500D01*
X119447867Y-89599500D01*
X115552123Y-89599500D01*
X115492518Y-89605908D01*
X115357670Y-89656203D01*
X115357664Y-89656207D01*
X115242453Y-89742453D01*
X115156207Y-89857664D01*
X115156204Y-89857669D01*
X115105909Y-89992517D01*
X115099500Y-90052127D01*
X105907547Y-90052127D01*
X105891289Y-90039162D01*
X105662997Y-89895716D01*
X105420079Y-89778733D01*
X105420073Y-89778731D01*
X105420063Y-89778727D01*
X105165595Y-89689685D01*
X105165596Y-89689685D01*
X105020851Y-89656648D01*
X104902732Y-89629688D01*
X104902728Y-89629687D01*
X104902726Y-89629687D01*
X104691681Y-89605908D01*
X104634809Y-89599500D01*
X104365191Y-89599500D01*
X104310235Y-89605692D01*
X104097273Y-89629687D01*
X104097269Y-89629687D01*
X104097268Y-89629688D01*
X104024581Y-89646278D01*
X103834403Y-89689685D01*
X103579936Y-89778727D01*
X103579918Y-89778734D01*
X103336997Y-89895719D01*
X103108706Y-90039165D01*
X103108693Y-90039174D01*
X102897923Y-90207258D01*
X102897914Y-90207266D01*
X102707266Y-90397914D01*
X102707258Y-90397923D01*
X102539174Y-90608693D01*
X102539165Y-90608706D01*
X102395719Y-90836997D01*
X102395716Y-90837002D01*
X102395716Y-90837003D01*
X102278733Y-91079921D01*
X102278731Y-91079925D01*
X102278293Y-91080836D01*
X102223075Y-91150077D01*
X102143282Y-91188504D01*
X102054718Y-91188504D01*
X101974926Y-91150078D01*
X101919707Y-91080836D01*
X101900000Y-90994493D01*
X101900000Y-90052177D01*
X101893598Y-89992627D01*
X101893596Y-89992618D01*
X101843353Y-89857912D01*
X101843352Y-89857909D01*
X101757189Y-89742810D01*
X101642090Y-89656647D01*
X101642087Y-89656646D01*
X101507381Y-89606403D01*
X101507372Y-89606401D01*
X101447823Y-89600000D01*
X99750000Y-89600000D01*
X99750000Y-90672768D01*
X99606247Y-90650000D01*
X99393753Y-90650000D01*
X99250000Y-90672768D01*
X99250000Y-89600000D01*
X97552177Y-89600000D01*
X97492627Y-89606401D01*
X97492618Y-89606403D01*
X97357912Y-89656646D01*
X97357908Y-89656648D01*
X97318757Y-89685957D01*
X97237826Y-89721925D01*
X97149304Y-89719215D01*
X97070724Y-89678366D01*
X97017650Y-89607468D01*
X97000500Y-89526650D01*
X97000500Y-83661062D01*
X97020207Y-83574719D01*
X97058786Y-83520348D01*
X98036256Y-82542878D01*
X99022911Y-81556222D01*
X99097897Y-81509105D01*
X99137648Y-81499641D01*
X99240498Y-81486099D01*
X99391116Y-81466270D01*
X99644419Y-81398398D01*
X99886697Y-81298043D01*
X100113803Y-81166924D01*
X100321851Y-81007282D01*
X100321855Y-81007278D01*
X100321859Y-81007275D01*
X100507275Y-80821859D01*
X100507278Y-80821855D01*
X100507282Y-80821851D01*
X100666924Y-80613803D01*
X100798043Y-80386697D01*
X100898398Y-80144419D01*
X100966270Y-79891116D01*
X101000500Y-79631120D01*
X101000500Y-79368880D01*
X100966270Y-79108884D01*
X100898398Y-78855581D01*
X100798043Y-78613303D01*
X100666924Y-78386197D01*
X100507282Y-78178149D01*
X100507281Y-78178148D01*
X100507278Y-78178144D01*
X100321859Y-77992725D01*
X100321854Y-77992721D01*
X100321851Y-77992718D01*
X100158356Y-77867263D01*
X100124054Y-77833633D01*
X100115927Y-77823466D01*
X100080472Y-77764815D01*
X100023553Y-77707896D01*
X100016640Y-77699247D01*
X100002076Y-77669091D01*
X99984253Y-77640726D01*
X99982997Y-77629587D01*
X99978125Y-77619497D01*
X99978087Y-77586006D01*
X99974337Y-77552719D01*
X99978038Y-77542140D01*
X99978026Y-77530934D01*
X99992525Y-77500740D01*
X100003588Y-77469126D01*
X100013942Y-77456142D01*
X100016364Y-77451099D01*
X100020777Y-77447571D01*
X100031372Y-77434286D01*
X100080470Y-77385187D01*
X100080472Y-77385185D01*
X100168478Y-77239606D01*
X100219086Y-77077196D01*
X100225500Y-77006616D01*
X100225500Y-76706162D01*
X100245207Y-76619819D01*
X100283783Y-76565451D01*
X100868713Y-75980521D01*
X100868716Y-75980520D01*
X100980520Y-75868716D01*
X101030639Y-75781904D01*
X101059577Y-75731785D01*
X101100501Y-75579057D01*
X101100501Y-75420943D01*
X101100501Y-75408749D01*
X101100500Y-75408731D01*
X101100500Y-73197585D01*
X101120207Y-73111242D01*
X101158783Y-73056873D01*
X101255472Y-72960185D01*
X101343478Y-72814606D01*
X101394086Y-72652196D01*
X101400500Y-72581616D01*
X101400500Y-71918384D01*
X101394086Y-71847804D01*
X101343478Y-71685394D01*
X101255472Y-71539815D01*
X101255471Y-71539814D01*
X101255470Y-71539812D01*
X101158786Y-71443128D01*
X101111667Y-71368140D01*
X101100500Y-71302414D01*
X101100500Y-68795105D01*
X101100501Y-68795092D01*
X101100501Y-68620942D01*
X101100500Y-68620940D01*
X101087646Y-68572968D01*
X101059577Y-68468215D01*
X101038456Y-68431633D01*
X101002676Y-68369659D01*
X101002673Y-68369656D01*
X100992250Y-68351602D01*
X100980520Y-68331284D01*
X100868716Y-68219480D01*
X100868713Y-68219478D01*
X100041865Y-67392630D01*
X100041863Y-67392627D01*
X99988950Y-67339714D01*
X99941831Y-67264726D01*
X99931915Y-67176719D01*
X99961166Y-67093126D01*
X100023790Y-67030502D01*
X100107383Y-67001251D01*
X100129664Y-67000000D01*
X110270503Y-67000000D01*
X110356846Y-67019707D01*
X110426087Y-67074926D01*
X110464514Y-67154718D01*
X110465679Y-67160178D01*
X110480261Y-67233492D01*
X110480264Y-67233500D01*
X110540603Y-67379174D01*
X110540607Y-67379181D01*
X110582691Y-67442164D01*
X110628211Y-67510289D01*
X110739711Y-67621789D01*
X110869939Y-67708805D01*
X110870818Y-67709392D01*
X110870825Y-67709396D01*
X110940262Y-67738157D01*
X111016503Y-67769737D01*
X111171158Y-67800500D01*
X111171159Y-67800500D01*
X111328841Y-67800500D01*
X111328842Y-67800500D01*
X111483497Y-67769737D01*
X111629179Y-67709394D01*
X111704542Y-67659038D01*
X111787282Y-67627454D01*
X111815101Y-67625500D01*
X126978394Y-67625500D01*
X133925500Y-67625500D01*
X134011843Y-67645207D01*
X134081084Y-67700426D01*
X134119511Y-67780218D01*
X134124500Y-67824500D01*
X134124500Y-81455050D01*
X134104793Y-81541393D01*
X134065212Y-81596759D01*
X133651296Y-82004843D01*
X133643125Y-82012898D01*
X133641266Y-82014142D01*
X133599293Y-82056113D01*
X133598654Y-82056744D01*
X133556864Y-82097946D01*
X133555943Y-82099068D01*
X133555944Y-82099069D01*
X133554138Y-82101269D01*
X133521510Y-82150099D01*
X133520726Y-82151263D01*
X133487798Y-82199796D01*
X133486430Y-82202309D01*
X133486406Y-82202355D01*
X133485753Y-82203555D01*
X133480694Y-82215769D01*
X133429444Y-82287997D01*
X133387189Y-82316922D01*
X133332195Y-82344943D01*
X133332191Y-82344945D01*
X133332184Y-82344949D01*
X133313567Y-82358474D01*
X133160210Y-82469893D01*
X133009897Y-82620206D01*
X133009891Y-82620213D01*
X132940675Y-82715482D01*
X132873981Y-82773752D01*
X132788609Y-82797313D01*
X132701469Y-82781499D01*
X132629820Y-82729443D01*
X132601751Y-82687630D01*
X132121570Y-81728901D01*
X132100524Y-81642874D01*
X132100500Y-81639784D01*
X132100500Y-73170942D01*
X132099836Y-73168463D01*
X132099836Y-73168462D01*
X132076259Y-73080472D01*
X132059577Y-73018215D01*
X132056582Y-73013028D01*
X132026073Y-72960183D01*
X132026073Y-72960184D01*
X131980521Y-72881286D01*
X131980520Y-72881284D01*
X131868716Y-72769480D01*
X131868715Y-72769479D01*
X131861766Y-72762530D01*
X131861755Y-72762520D01*
X130000036Y-70900801D01*
X129980521Y-70881286D01*
X129980520Y-70881284D01*
X129868716Y-70769480D01*
X129753217Y-70702797D01*
X129731785Y-70690423D01*
X129731781Y-70690422D01*
X129579060Y-70649499D01*
X129579057Y-70649499D01*
X129420943Y-70649499D01*
X129408748Y-70649499D01*
X129408732Y-70649500D01*
X120170943Y-70649500D01*
X120018216Y-70690422D01*
X120018214Y-70690423D01*
X120008897Y-70695802D01*
X120008892Y-70695805D01*
X119996783Y-70702797D01*
X119881284Y-70769480D01*
X119769480Y-70881284D01*
X119769478Y-70881286D01*
X119760928Y-70889835D01*
X119760924Y-70889839D01*
X108890752Y-81760011D01*
X108815764Y-81807130D01*
X108812839Y-81808128D01*
X107701338Y-82177786D01*
X107685019Y-82182450D01*
X107683765Y-82182751D01*
X107481588Y-82248442D01*
X107481581Y-82248445D01*
X107292187Y-82344947D01*
X107292184Y-82344948D01*
X107292184Y-82344949D01*
X107274296Y-82357945D01*
X107120210Y-82469893D01*
X106969897Y-82620206D01*
X106969891Y-82620213D01*
X106890994Y-82728807D01*
X106824300Y-82787076D01*
X106738928Y-82810638D01*
X106651788Y-82794824D01*
X106580139Y-82742768D01*
X106569006Y-82728807D01*
X106490108Y-82620213D01*
X106490102Y-82620206D01*
X106339789Y-82469893D01*
X106202725Y-82370312D01*
X106167816Y-82344949D01*
X106112810Y-82316922D01*
X105978418Y-82248445D01*
X105978407Y-82248441D01*
X105776251Y-82182756D01*
X105776234Y-82182752D01*
X105566287Y-82149500D01*
X105353713Y-82149500D01*
X105143765Y-82182752D01*
X105143748Y-82182756D01*
X104941592Y-82248441D01*
X104941581Y-82248445D01*
X104752187Y-82344947D01*
X104752184Y-82344948D01*
X104752184Y-82344949D01*
X104734296Y-82357945D01*
X104580210Y-82469893D01*
X104429897Y-82620206D01*
X104429891Y-82620213D01*
X104350994Y-82728807D01*
X104284300Y-82787076D01*
X104198928Y-82810638D01*
X104111788Y-82794824D01*
X104040139Y-82742768D01*
X104029006Y-82728807D01*
X103950108Y-82620213D01*
X103950102Y-82620206D01*
X103799789Y-82469893D01*
X103662725Y-82370312D01*
X103627816Y-82344949D01*
X103572810Y-82316922D01*
X103438418Y-82248445D01*
X103438407Y-82248441D01*
X103236251Y-82182756D01*
X103236234Y-82182752D01*
X103026287Y-82149500D01*
X102813713Y-82149500D01*
X102603765Y-82182752D01*
X102603748Y-82182756D01*
X102401592Y-82248441D01*
X102401581Y-82248445D01*
X102212187Y-82344947D01*
X102212184Y-82344948D01*
X102212184Y-82344949D01*
X102194296Y-82357945D01*
X102040210Y-82469893D01*
X101889893Y-82620210D01*
X101764947Y-82792187D01*
X101668445Y-82981581D01*
X101668441Y-82981592D01*
X101602756Y-83183748D01*
X101602752Y-83183765D01*
X101569500Y-83393713D01*
X101569500Y-83606286D01*
X101602752Y-83816234D01*
X101602756Y-83816251D01*
X101668441Y-84018407D01*
X101668445Y-84018418D01*
X101755546Y-84189361D01*
X101764949Y-84207816D01*
X101810995Y-84271193D01*
X101889893Y-84379789D01*
X102040210Y-84530106D01*
X102094688Y-84569685D01*
X102212184Y-84655051D01*
X102275500Y-84687312D01*
X102401581Y-84751554D01*
X102401585Y-84751555D01*
X102401588Y-84751557D01*
X102603757Y-84817246D01*
X102603770Y-84817248D01*
X102604991Y-84817542D01*
X102621350Y-84822216D01*
X103732836Y-85191868D01*
X103808548Y-85237816D01*
X103810750Y-85239985D01*
X105689478Y-87118713D01*
X105689480Y-87118716D01*
X105801284Y-87230520D01*
X105888095Y-87280639D01*
X105901801Y-87288552D01*
X105901803Y-87288554D01*
X105938212Y-87309575D01*
X105938212Y-87309576D01*
X105938214Y-87309576D01*
X105938215Y-87309577D01*
X106090943Y-87350500D01*
X106249057Y-87350500D01*
X123078732Y-87350500D01*
X123078748Y-87350501D01*
X123090943Y-87350501D01*
X123249054Y-87350501D01*
X123249057Y-87350501D01*
X123401785Y-87309577D01*
X123451904Y-87280639D01*
X123538716Y-87230520D01*
X123650520Y-87118716D01*
X123650521Y-87118713D01*
X125529250Y-85239983D01*
X125604236Y-85192866D01*
X125607064Y-85191900D01*
X126718655Y-84822212D01*
X126735012Y-84817541D01*
X126736227Y-84817248D01*
X126736243Y-84817246D01*
X126938412Y-84751557D01*
X127127816Y-84655051D01*
X127299792Y-84530104D01*
X127450104Y-84379792D01*
X127529005Y-84271192D01*
X127595699Y-84212923D01*
X127681071Y-84189361D01*
X127768211Y-84205175D01*
X127839861Y-84257230D01*
X127850995Y-84271193D01*
X127929894Y-84379789D01*
X127929897Y-84379793D01*
X128080210Y-84530106D01*
X128134688Y-84569685D01*
X128252184Y-84655051D01*
X128315500Y-84687312D01*
X128441581Y-84751554D01*
X128441584Y-84751555D01*
X128441588Y-84751557D01*
X128643757Y-84817246D01*
X128853713Y-84850500D01*
X129066287Y-84850500D01*
X129276243Y-84817246D01*
X129344004Y-84795228D01*
X129432209Y-84787289D01*
X129515125Y-84818407D01*
X129576329Y-84882419D01*
X129603698Y-84966647D01*
X129604499Y-84984488D01*
X129604499Y-85908481D01*
X129584792Y-85994824D01*
X129546213Y-86049195D01*
X128905575Y-86689832D01*
X128905567Y-86689840D01*
X128901270Y-86694138D01*
X128901267Y-86694141D01*
X128814142Y-86781266D01*
X128789037Y-86818838D01*
X128781554Y-86830036D01*
X128781552Y-86830039D01*
X128745687Y-86883712D01*
X128725230Y-86933103D01*
X128717781Y-86951089D01*
X128698539Y-86997541D01*
X128698535Y-86997552D01*
X128674500Y-87118389D01*
X128674500Y-94255259D01*
X128654793Y-94341602D01*
X128599574Y-94410843D01*
X128519782Y-94449270D01*
X128431218Y-94449270D01*
X128414005Y-94444519D01*
X128316247Y-94412755D01*
X128316234Y-94412752D01*
X128106287Y-94379500D01*
X127893713Y-94379500D01*
X127683765Y-94412752D01*
X127683748Y-94412756D01*
X127481592Y-94478441D01*
X127481581Y-94478445D01*
X127292187Y-94574947D01*
X127120210Y-94699893D01*
X126969893Y-94850210D01*
X126844947Y-95022187D01*
X126748445Y-95211581D01*
X126748441Y-95211592D01*
X126682756Y-95413748D01*
X126682752Y-95413765D01*
X126649500Y-95623713D01*
X126649500Y-95836286D01*
X126682752Y-96046234D01*
X126682756Y-96046251D01*
X126748441Y-96248407D01*
X126748445Y-96248418D01*
X126836288Y-96420817D01*
X126844949Y-96437816D01*
X126897993Y-96510825D01*
X126969893Y-96609789D01*
X127000909Y-96640805D01*
X127048028Y-96715793D01*
X127057944Y-96803800D01*
X127028693Y-96887393D01*
X126966069Y-96950017D01*
X126929743Y-96967970D01*
X126907673Y-96976202D01*
X126907664Y-96976207D01*
X126792453Y-97062453D01*
X126706207Y-97177664D01*
X126706204Y-97177669D01*
X126655909Y-97312517D01*
X126649500Y-97372127D01*
X126649500Y-97372128D01*
X126649500Y-97372132D01*
X126649500Y-97420500D01*
X126629793Y-97506843D01*
X126574574Y-97576084D01*
X126494782Y-97614511D01*
X126450500Y-97619500D01*
X111549499Y-97619500D01*
X111463156Y-97599793D01*
X111393915Y-97544574D01*
X111355488Y-97464782D01*
X111350499Y-97420500D01*
X111350499Y-97372123D01*
X111344091Y-97312518D01*
X111343131Y-97309942D01*
X111293796Y-97177669D01*
X111258330Y-97130293D01*
X111207546Y-97062453D01*
X111092335Y-96976207D01*
X111092331Y-96976204D01*
X111086234Y-96973930D01*
X111070258Y-96967971D01*
X110996247Y-96919331D01*
X110950669Y-96843396D01*
X110942551Y-96755206D01*
X110973502Y-96672227D01*
X110999087Y-96640808D01*
X111030104Y-96609792D01*
X111155051Y-96437816D01*
X111251557Y-96248412D01*
X111317246Y-96046243D01*
X111350500Y-95836287D01*
X111350500Y-95623713D01*
X111317246Y-95413757D01*
X111251557Y-95211588D01*
X111251555Y-95211584D01*
X111251554Y-95211581D01*
X111171420Y-95054310D01*
X111155051Y-95022184D01*
X111064765Y-94897915D01*
X111030106Y-94850210D01*
X110879789Y-94699893D01*
X110798071Y-94640523D01*
X110707816Y-94574949D01*
X110674499Y-94557973D01*
X110518418Y-94478445D01*
X110518407Y-94478441D01*
X110316251Y-94412756D01*
X110316234Y-94412752D01*
X110106287Y-94379500D01*
X109893713Y-94379500D01*
X109683765Y-94412752D01*
X109683748Y-94412756D01*
X109481592Y-94478441D01*
X109481581Y-94478445D01*
X109292187Y-94574947D01*
X109120210Y-94699893D01*
X108969893Y-94850210D01*
X108844947Y-95022187D01*
X108748445Y-95211581D01*
X108748441Y-95211592D01*
X108682756Y-95413748D01*
X108682752Y-95413765D01*
X108649500Y-95623713D01*
X108649500Y-95836286D01*
X108682752Y-96046234D01*
X108682756Y-96046251D01*
X108748441Y-96248407D01*
X108748445Y-96248418D01*
X108836288Y-96420817D01*
X108844949Y-96437816D01*
X108897993Y-96510825D01*
X108969893Y-96609789D01*
X109000909Y-96640805D01*
X109048028Y-96715793D01*
X109057944Y-96803800D01*
X109028693Y-96887393D01*
X108966069Y-96950017D01*
X108929743Y-96967970D01*
X108907673Y-96976202D01*
X108907664Y-96976207D01*
X108792453Y-97062453D01*
X108706207Y-97177664D01*
X108706204Y-97177669D01*
X108655909Y-97312517D01*
X108649500Y-97372127D01*
X108649500Y-97372128D01*
X108649500Y-97372132D01*
X108649500Y-99167876D01*
X108655908Y-99227480D01*
X108706203Y-99362329D01*
X108706207Y-99362335D01*
X108792453Y-99477546D01*
X108877503Y-99541214D01*
X108907669Y-99563796D01*
X109042517Y-99614091D01*
X109102127Y-99620500D01*
X110897872Y-99620499D01*
X110897876Y-99620499D01*
X110937612Y-99616227D01*
X110957483Y-99614091D01*
X111092331Y-99563796D01*
X111207546Y-99477546D01*
X111293796Y-99362331D01*
X111344091Y-99227483D01*
X111350500Y-99167873D01*
X111350500Y-99119500D01*
X111370207Y-99033157D01*
X111425426Y-98963916D01*
X111505218Y-98925489D01*
X111549500Y-98920500D01*
X126450501Y-98920500D01*
X126536844Y-98940207D01*
X126606085Y-98995426D01*
X126644512Y-99075218D01*
X126649501Y-99119500D01*
X126649501Y-99167876D01*
X126655908Y-99227480D01*
X126706203Y-99362329D01*
X126706207Y-99362335D01*
X126792453Y-99477546D01*
X126877503Y-99541214D01*
X126907669Y-99563796D01*
X127042517Y-99614091D01*
X127102127Y-99620500D01*
X128304688Y-99620499D01*
X128391031Y-99640206D01*
X128460272Y-99695424D01*
X128498699Y-99775217D01*
X128499864Y-99780675D01*
X128530262Y-99933495D01*
X128530264Y-99933500D01*
X128590603Y-100079174D01*
X128590607Y-100079181D01*
X128640962Y-100154542D01*
X128672546Y-100237282D01*
X128674500Y-100265101D01*
X128674500Y-125237553D01*
X128654793Y-125323896D01*
X128599574Y-125393137D01*
X128519782Y-125431564D01*
X128431218Y-125431564D01*
X128419583Y-125428475D01*
X128317011Y-125408072D01*
X128273917Y-125399500D01*
X128126081Y-125399500D01*
X128090078Y-125406661D01*
X127981088Y-125428341D01*
X127844504Y-125484915D01*
X127844501Y-125484917D01*
X127721587Y-125567046D01*
X127721579Y-125567052D01*
X127617051Y-125671580D01*
X127617045Y-125671588D01*
X127534916Y-125794502D01*
X127534912Y-125794509D01*
X127500681Y-125877153D01*
X127449433Y-125949382D01*
X127371920Y-125992222D01*
X127316829Y-126000000D01*
X126324500Y-126000000D01*
X126238157Y-125980293D01*
X126168916Y-125925074D01*
X126130489Y-125845282D01*
X126125500Y-125801000D01*
X126125500Y-124565101D01*
X126145207Y-124478758D01*
X126159038Y-124454542D01*
X126173664Y-124432652D01*
X126209394Y-124379179D01*
X126269737Y-124233497D01*
X126300500Y-124078842D01*
X126300500Y-123921158D01*
X126269737Y-123766503D01*
X126209394Y-123620821D01*
X126121789Y-123489711D01*
X126010289Y-123378211D01*
X125944293Y-123334114D01*
X125879181Y-123290607D01*
X125879174Y-123290603D01*
X125733500Y-123230264D01*
X125733498Y-123230263D01*
X125733497Y-123230263D01*
X125733495Y-123230262D01*
X125733493Y-123230262D01*
X125655125Y-123214673D01*
X125578842Y-123199500D01*
X125421158Y-123199500D01*
X125370072Y-123209661D01*
X125266506Y-123230262D01*
X125266499Y-123230264D01*
X125120825Y-123290603D01*
X125120818Y-123290607D01*
X124989715Y-123378208D01*
X124989707Y-123378214D01*
X124878214Y-123489707D01*
X124878208Y-123489715D01*
X124790607Y-123620818D01*
X124790603Y-123620825D01*
X124730264Y-123766499D01*
X124730262Y-123766506D01*
X124706863Y-123884142D01*
X124699500Y-123921158D01*
X124699500Y-124078842D01*
X124708781Y-124125500D01*
X124730262Y-124233493D01*
X124730264Y-124233500D01*
X124790603Y-124379174D01*
X124790607Y-124379181D01*
X124840962Y-124454542D01*
X124872546Y-124537282D01*
X124874500Y-124565101D01*
X124874500Y-125801000D01*
X124854793Y-125887343D01*
X124799574Y-125956584D01*
X124719782Y-125995011D01*
X124675500Y-126000000D01*
X108967018Y-126000000D01*
X108880675Y-125980293D01*
X108826304Y-125941714D01*
X106001876Y-123117286D01*
X105985859Y-123101269D01*
X105985858Y-123101267D01*
X105898733Y-123014142D01*
X105847509Y-122979915D01*
X105813371Y-122957104D01*
X105796290Y-122945690D01*
X105796278Y-122945684D01*
X105715793Y-122912346D01*
X105715793Y-122912347D01*
X105682453Y-122898537D01*
X105658400Y-122893753D01*
X105582782Y-122878712D01*
X105582779Y-122878711D01*
X105582778Y-122878711D01*
X105561607Y-122874500D01*
X105561606Y-122874500D01*
X100561607Y-122874500D01*
X100438393Y-122874500D01*
X100429971Y-122876175D01*
X100429969Y-122876175D01*
X100417218Y-122878712D01*
X100317548Y-122898537D01*
X100270397Y-122918067D01*
X100203715Y-122945688D01*
X100203714Y-122945689D01*
X100181896Y-122960267D01*
X100181894Y-122960268D01*
X100101270Y-123014139D01*
X100101263Y-123014145D01*
X97514140Y-125601268D01*
X97500093Y-125622292D01*
X97500089Y-125622298D01*
X97495152Y-125629688D01*
X97445688Y-125703714D01*
X97418474Y-125769416D01*
X97414397Y-125779257D01*
X97414394Y-125779264D01*
X97398537Y-125817548D01*
X97398536Y-125817551D01*
X97394106Y-125839823D01*
X97357933Y-125920662D01*
X97290267Y-125977801D01*
X97204511Y-125999922D01*
X97198930Y-126000000D01*
X86199000Y-126000000D01*
X86112657Y-125980293D01*
X86043416Y-125925074D01*
X86004989Y-125845282D01*
X86000000Y-125801000D01*
X86000000Y-122865191D01*
X87049500Y-122865191D01*
X87049500Y-123134808D01*
X87076924Y-123378208D01*
X87079688Y-123402732D01*
X87123093Y-123592904D01*
X87139685Y-123665596D01*
X87216157Y-123884139D01*
X87228733Y-123920079D01*
X87345716Y-124162997D01*
X87345718Y-124163001D01*
X87345719Y-124163002D01*
X87358779Y-124183786D01*
X87463218Y-124350000D01*
X87489165Y-124391293D01*
X87489174Y-124391306D01*
X87657258Y-124602076D01*
X87657266Y-124602085D01*
X87847914Y-124792733D01*
X87847923Y-124792741D01*
X88058693Y-124960825D01*
X88058705Y-124960833D01*
X88058711Y-124960838D01*
X88287003Y-125104284D01*
X88529921Y-125221267D01*
X88784409Y-125310316D01*
X89047268Y-125370312D01*
X89315191Y-125400500D01*
X89315192Y-125400500D01*
X89584808Y-125400500D01*
X89584809Y-125400500D01*
X89852732Y-125370312D01*
X90115591Y-125310316D01*
X90370079Y-125221267D01*
X90612997Y-125104284D01*
X90841289Y-124960838D01*
X90841300Y-124960828D01*
X90841306Y-124960825D01*
X91052076Y-124792741D01*
X91052085Y-124792734D01*
X91242734Y-124602085D01*
X91341084Y-124478758D01*
X91410825Y-124391306D01*
X91410828Y-124391300D01*
X91410838Y-124391289D01*
X91554284Y-124162997D01*
X91671267Y-123920079D01*
X91671269Y-123920070D01*
X91671707Y-123919163D01*
X91726925Y-123849922D01*
X91806718Y-123811495D01*
X91895281Y-123811495D01*
X91975074Y-123849921D01*
X92030293Y-123919163D01*
X92050000Y-124005506D01*
X92050000Y-124204706D01*
X92060482Y-124337907D01*
X92115900Y-124557835D01*
X92209696Y-124764332D01*
X92338857Y-124950766D01*
X92338863Y-124950773D01*
X92499226Y-125111136D01*
X92499233Y-125111142D01*
X92685667Y-125240303D01*
X92892164Y-125334099D01*
X93112092Y-125389517D01*
X93245294Y-125400000D01*
X94200000Y-125400000D01*
X94200000Y-124327231D01*
X94343753Y-124350000D01*
X94556247Y-124350000D01*
X94700000Y-124327231D01*
X94700000Y-125400000D01*
X95654706Y-125400000D01*
X95787907Y-125389517D01*
X96007835Y-125334099D01*
X96214332Y-125240303D01*
X96400766Y-125111142D01*
X96400773Y-125111136D01*
X96561136Y-124950773D01*
X96561142Y-124950766D01*
X96690303Y-124764332D01*
X96784099Y-124557835D01*
X96839517Y-124337907D01*
X96850000Y-124204706D01*
X96850000Y-123250000D01*
X95777231Y-123250000D01*
X95800000Y-123106247D01*
X95800000Y-122893753D01*
X95777231Y-122750000D01*
X96850000Y-122750000D01*
X96850000Y-121795293D01*
X96839517Y-121662092D01*
X96784099Y-121442164D01*
X96690303Y-121235667D01*
X96561142Y-121049233D01*
X96561136Y-121049226D01*
X96400773Y-120888863D01*
X96400766Y-120888857D01*
X96214332Y-120759696D01*
X96007835Y-120665900D01*
X95787907Y-120610482D01*
X95654706Y-120600000D01*
X94700000Y-120600000D01*
X94700000Y-121672768D01*
X94556247Y-121650000D01*
X94343753Y-121650000D01*
X94200000Y-121672768D01*
X94200000Y-120600000D01*
X93245294Y-120600000D01*
X93112092Y-120610482D01*
X92892164Y-120665900D01*
X92685667Y-120759696D01*
X92499233Y-120888857D01*
X92499226Y-120888863D01*
X92338863Y-121049226D01*
X92338857Y-121049233D01*
X92209696Y-121235667D01*
X92115900Y-121442164D01*
X92060482Y-121662092D01*
X92050000Y-121795293D01*
X92050000Y-121994493D01*
X92030293Y-122080836D01*
X91975074Y-122150077D01*
X91895282Y-122188504D01*
X91806718Y-122188504D01*
X91726926Y-122150077D01*
X91671707Y-122080836D01*
X91671268Y-122079925D01*
X91671267Y-122079921D01*
X91554284Y-121837003D01*
X91410838Y-121608711D01*
X91410833Y-121608705D01*
X91410825Y-121608693D01*
X91242741Y-121397923D01*
X91242733Y-121397914D01*
X91052085Y-121207266D01*
X91052076Y-121207258D01*
X90841306Y-121039174D01*
X90841293Y-121039165D01*
X90841291Y-121039164D01*
X90841289Y-121039162D01*
X90612997Y-120895716D01*
X90370079Y-120778733D01*
X90370073Y-120778731D01*
X90370063Y-120778727D01*
X90115595Y-120689685D01*
X90115596Y-120689685D01*
X90042904Y-120673093D01*
X89852732Y-120629688D01*
X89852728Y-120629687D01*
X89852726Y-120629687D01*
X89653945Y-120607289D01*
X89584809Y-120599500D01*
X89315191Y-120599500D01*
X89260235Y-120605692D01*
X89047273Y-120629687D01*
X89047269Y-120629687D01*
X89047268Y-120629688D01*
X88974581Y-120646278D01*
X88784403Y-120689685D01*
X88529936Y-120778727D01*
X88529918Y-120778734D01*
X88459458Y-120812666D01*
X88301234Y-120888863D01*
X88286997Y-120895719D01*
X88058706Y-121039165D01*
X88058693Y-121039174D01*
X87847923Y-121207258D01*
X87847914Y-121207266D01*
X87657266Y-121397914D01*
X87657258Y-121397923D01*
X87489174Y-121608693D01*
X87489165Y-121608706D01*
X87345719Y-121836997D01*
X87228734Y-122079918D01*
X87228727Y-122079936D01*
X87139685Y-122334403D01*
X87079687Y-122597273D01*
X87049500Y-122865191D01*
X86000000Y-122865191D01*
X86000000Y-113350030D01*
X89750000Y-113350030D01*
X89750000Y-114100000D01*
X90901518Y-114100000D01*
X90890889Y-114118409D01*
X90850000Y-114271009D01*
X90850000Y-114428991D01*
X90890889Y-114581591D01*
X90901518Y-114600000D01*
X89750000Y-114600000D01*
X89750000Y-115349969D01*
X89760495Y-115452699D01*
X89815642Y-115619120D01*
X89907682Y-115768341D01*
X89907685Y-115768345D01*
X90031654Y-115892314D01*
X90031658Y-115892317D01*
X90180879Y-115984357D01*
X90347300Y-116039504D01*
X90450031Y-116050000D01*
X91200000Y-116050000D01*
X91200000Y-114898482D01*
X91218409Y-114909111D01*
X91371009Y-114950000D01*
X91528991Y-114950000D01*
X91681591Y-114909111D01*
X91700000Y-114898482D01*
X91700000Y-116050000D01*
X92449969Y-116050000D01*
X92552699Y-116039504D01*
X92719120Y-115984357D01*
X92868341Y-115892317D01*
X92868345Y-115892314D01*
X92992314Y-115768345D01*
X92992317Y-115768341D01*
X93084357Y-115619120D01*
X93139504Y-115452699D01*
X93150000Y-115349969D01*
X93150000Y-114600000D01*
X91998482Y-114600000D01*
X92009111Y-114581591D01*
X92050000Y-114428991D01*
X92050000Y-114271009D01*
X92009111Y-114118409D01*
X91998482Y-114100000D01*
X93150000Y-114100000D01*
X93150000Y-113773989D01*
X104150000Y-113773989D01*
X104150000Y-114523959D01*
X105301518Y-114523959D01*
X105290889Y-114542368D01*
X105250000Y-114694968D01*
X105250000Y-114852950D01*
X105290889Y-115005550D01*
X105301518Y-115023959D01*
X104150000Y-115023959D01*
X104150000Y-115773928D01*
X104160495Y-115876658D01*
X104215642Y-116043079D01*
X104307682Y-116192300D01*
X104307685Y-116192304D01*
X104431654Y-116316273D01*
X104431658Y-116316276D01*
X104580879Y-116408316D01*
X104747300Y-116463463D01*
X104850031Y-116473959D01*
X105600000Y-116473959D01*
X105600000Y-115322441D01*
X105618409Y-115333070D01*
X105771009Y-115373959D01*
X105928991Y-115373959D01*
X106081591Y-115333070D01*
X106100000Y-115322441D01*
X106100000Y-116473959D01*
X106849969Y-116473959D01*
X106952699Y-116463463D01*
X107119120Y-116408316D01*
X107268341Y-116316276D01*
X107268345Y-116316273D01*
X107392314Y-116192304D01*
X107392317Y-116192300D01*
X107484357Y-116043079D01*
X107539504Y-115876658D01*
X107550000Y-115773928D01*
X107550000Y-115023959D01*
X106398482Y-115023959D01*
X106409111Y-115005550D01*
X106450000Y-114852950D01*
X106450000Y-114694968D01*
X106409111Y-114542368D01*
X106398482Y-114523959D01*
X107550000Y-114523959D01*
X107550000Y-113773989D01*
X107549999Y-113773973D01*
X107549102Y-113765195D01*
X107549100Y-113765181D01*
X107547552Y-113750030D01*
X120100000Y-113750030D01*
X120100000Y-114500000D01*
X121251518Y-114500000D01*
X121240889Y-114518409D01*
X121200000Y-114671009D01*
X121200000Y-114828991D01*
X121240889Y-114981591D01*
X121251518Y-115000000D01*
X120100000Y-115000000D01*
X120100000Y-115749969D01*
X120110495Y-115852699D01*
X120165642Y-116019120D01*
X120257682Y-116168341D01*
X120257685Y-116168345D01*
X120381654Y-116292314D01*
X120381658Y-116292317D01*
X120530879Y-116384357D01*
X120697300Y-116439504D01*
X120800031Y-116450000D01*
X121550000Y-116450000D01*
X121550000Y-115298482D01*
X121568409Y-115309111D01*
X121721009Y-115350000D01*
X121878991Y-115350000D01*
X122031591Y-115309111D01*
X122050000Y-115298482D01*
X122050000Y-116450000D01*
X122799969Y-116450000D01*
X122902699Y-116439504D01*
X123069120Y-116384357D01*
X123218341Y-116292317D01*
X123218345Y-116292314D01*
X123342314Y-116168345D01*
X123342317Y-116168341D01*
X123434357Y-116019120D01*
X123489504Y-115852699D01*
X123500000Y-115749969D01*
X123500000Y-115000000D01*
X122348482Y-115000000D01*
X122359111Y-114981591D01*
X122400000Y-114828991D01*
X122400000Y-114671009D01*
X122359111Y-114518409D01*
X122348482Y-114500000D01*
X123500000Y-114500000D01*
X123500000Y-113750030D01*
X123489504Y-113647300D01*
X123434357Y-113480879D01*
X123342317Y-113331658D01*
X123342314Y-113331654D01*
X123218345Y-113207685D01*
X123218341Y-113207682D01*
X123069120Y-113115642D01*
X122902699Y-113060495D01*
X122799969Y-113050000D01*
X122050000Y-113050000D01*
X122050000Y-114201517D01*
X122031591Y-114190889D01*
X121878991Y-114150000D01*
X121721009Y-114150000D01*
X121568409Y-114190889D01*
X121550000Y-114201517D01*
X121550000Y-113050000D01*
X120800031Y-113050000D01*
X120697300Y-113060495D01*
X120530879Y-113115642D01*
X120381658Y-113207682D01*
X120381654Y-113207685D01*
X120257685Y-113331654D01*
X120257682Y-113331658D01*
X120165642Y-113480879D01*
X120110495Y-113647300D01*
X120100000Y-113750030D01*
X107547552Y-113750030D01*
X107539504Y-113671259D01*
X107484357Y-113504838D01*
X107392317Y-113355617D01*
X107392314Y-113355613D01*
X107268345Y-113231644D01*
X107268341Y-113231641D01*
X107119120Y-113139601D01*
X106952699Y-113084454D01*
X106849969Y-113073959D01*
X106100000Y-113073959D01*
X106100000Y-114225476D01*
X106081591Y-114214848D01*
X105928991Y-114173959D01*
X105771009Y-114173959D01*
X105618409Y-114214848D01*
X105600000Y-114225476D01*
X105600000Y-113073959D01*
X104850031Y-113073959D01*
X104747300Y-113084454D01*
X104580879Y-113139601D01*
X104431658Y-113231641D01*
X104431654Y-113231644D01*
X104307685Y-113355613D01*
X104307682Y-113355617D01*
X104215642Y-113504838D01*
X104160495Y-113671259D01*
X104150000Y-113773989D01*
X93150000Y-113773989D01*
X93150000Y-113350030D01*
X93139504Y-113247300D01*
X93084357Y-113080879D01*
X92992317Y-112931658D01*
X92992314Y-112931654D01*
X92868345Y-112807685D01*
X92868341Y-112807682D01*
X92719120Y-112715642D01*
X92552699Y-112660495D01*
X92449969Y-112650000D01*
X91700000Y-112650000D01*
X91700000Y-113801517D01*
X91681591Y-113790889D01*
X91528991Y-113750000D01*
X91371009Y-113750000D01*
X91218409Y-113790889D01*
X91200000Y-113801517D01*
X91200000Y-112650000D01*
X90450031Y-112650000D01*
X90347300Y-112660495D01*
X90180879Y-112715642D01*
X90031658Y-112807682D01*
X90031654Y-112807685D01*
X89907685Y-112931654D01*
X89907682Y-112931658D01*
X89815642Y-113080879D01*
X89760495Y-113247300D01*
X89750000Y-113350030D01*
X86000000Y-113350030D01*
X86000000Y-109238535D01*
X89749500Y-109238535D01*
X89749500Y-109461464D01*
X89778595Y-109682459D01*
X89836289Y-109897777D01*
X89836291Y-109897783D01*
X89921594Y-110103724D01*
X89921595Y-110103727D01*
X90033048Y-110296769D01*
X90168755Y-110473627D01*
X90326372Y-110631244D01*
X90503230Y-110766951D01*
X90661515Y-110858337D01*
X90696274Y-110878405D01*
X90902219Y-110963710D01*
X91117537Y-111021404D01*
X91312292Y-111047044D01*
X91338535Y-111050499D01*
X91338541Y-111050500D01*
X91338543Y-111050500D01*
X91561459Y-111050500D01*
X91561462Y-111050499D01*
X91782463Y-111021404D01*
X91997781Y-110963710D01*
X92203726Y-110878405D01*
X92371840Y-110781344D01*
X92396769Y-110766951D01*
X92396769Y-110766950D01*
X92396774Y-110766948D01*
X92573624Y-110631247D01*
X92731247Y-110473624D01*
X92866948Y-110296774D01*
X92978405Y-110103726D01*
X93063710Y-109897781D01*
X93121404Y-109682463D01*
X93124033Y-109662494D01*
X104149500Y-109662494D01*
X104149500Y-109885423D01*
X104178241Y-110103726D01*
X104178596Y-110106422D01*
X104236290Y-110321740D01*
X104267843Y-110397915D01*
X104321594Y-110527683D01*
X104321595Y-110527686D01*
X104433048Y-110720728D01*
X104568755Y-110897586D01*
X104726372Y-111055203D01*
X104903230Y-111190910D01*
X105054774Y-111278404D01*
X105096274Y-111302364D01*
X105302219Y-111387669D01*
X105517537Y-111445363D01*
X105712292Y-111471003D01*
X105738535Y-111474458D01*
X105738541Y-111474459D01*
X105738543Y-111474459D01*
X105961459Y-111474459D01*
X105961462Y-111474458D01*
X106182463Y-111445363D01*
X106397781Y-111387669D01*
X106603726Y-111302364D01*
X106757526Y-111213567D01*
X106796769Y-111190910D01*
X106796769Y-111190909D01*
X106796774Y-111190907D01*
X106973624Y-111055206D01*
X107131247Y-110897583D01*
X107266948Y-110720733D01*
X107269303Y-110716655D01*
X107356753Y-110565187D01*
X107378405Y-110527685D01*
X107463710Y-110321740D01*
X107521404Y-110106422D01*
X107550500Y-109885416D01*
X107550500Y-109662502D01*
X107547345Y-109638535D01*
X120099500Y-109638535D01*
X120099500Y-109861464D01*
X120116520Y-109990740D01*
X120128596Y-110082463D01*
X120186290Y-110297781D01*
X120196214Y-110321740D01*
X120271594Y-110503724D01*
X120271595Y-110503727D01*
X120383048Y-110696769D01*
X120518755Y-110873627D01*
X120676372Y-111031244D01*
X120853230Y-111166951D01*
X121046272Y-111278404D01*
X121046274Y-111278405D01*
X121252219Y-111363710D01*
X121467537Y-111421404D01*
X121649524Y-111445363D01*
X121688535Y-111450499D01*
X121688541Y-111450500D01*
X121688543Y-111450500D01*
X121911459Y-111450500D01*
X121911462Y-111450499D01*
X122132463Y-111421404D01*
X122347781Y-111363710D01*
X122553726Y-111278405D01*
X122746774Y-111166948D01*
X122923624Y-111031247D01*
X123081247Y-110873624D01*
X123216948Y-110696774D01*
X123328405Y-110503726D01*
X123413710Y-110297781D01*
X123471404Y-110082463D01*
X123500500Y-109861457D01*
X123500500Y-109638543D01*
X123471404Y-109417537D01*
X123413710Y-109202219D01*
X123328405Y-108996274D01*
X123280325Y-108912997D01*
X123216951Y-108803230D01*
X123081244Y-108626372D01*
X122923627Y-108468755D01*
X122746769Y-108333048D01*
X122553727Y-108221595D01*
X122553724Y-108221594D01*
X122405621Y-108160248D01*
X122347781Y-108136290D01*
X122132463Y-108078596D01*
X122132462Y-108078595D01*
X122132459Y-108078595D01*
X121911464Y-108049500D01*
X121911457Y-108049500D01*
X121688543Y-108049500D01*
X121688535Y-108049500D01*
X121467540Y-108078595D01*
X121252222Y-108136289D01*
X121252216Y-108136291D01*
X121046275Y-108221594D01*
X121046272Y-108221595D01*
X120853230Y-108333048D01*
X120676372Y-108468755D01*
X120518755Y-108626372D01*
X120383048Y-108803230D01*
X120271595Y-108996272D01*
X120271594Y-108996275D01*
X120186291Y-109202216D01*
X120186289Y-109202222D01*
X120128595Y-109417540D01*
X120099500Y-109638535D01*
X107547345Y-109638535D01*
X107521404Y-109441496D01*
X107463710Y-109226178D01*
X107378405Y-109020233D01*
X107376850Y-109017540D01*
X107266951Y-108827189D01*
X107131244Y-108650331D01*
X106973627Y-108492714D01*
X106796769Y-108357007D01*
X106603727Y-108245554D01*
X106603724Y-108245553D01*
X106397783Y-108160250D01*
X106397785Y-108160250D01*
X106397781Y-108160249D01*
X106182463Y-108102555D01*
X106182462Y-108102554D01*
X106182459Y-108102554D01*
X105961464Y-108073459D01*
X105961457Y-108073459D01*
X105738543Y-108073459D01*
X105738535Y-108073459D01*
X105517540Y-108102554D01*
X105302222Y-108160248D01*
X105302216Y-108160250D01*
X105096275Y-108245553D01*
X105096272Y-108245554D01*
X104903230Y-108357007D01*
X104726372Y-108492714D01*
X104568755Y-108650331D01*
X104433048Y-108827189D01*
X104321595Y-109020231D01*
X104321594Y-109020234D01*
X104236291Y-109226175D01*
X104236289Y-109226181D01*
X104178595Y-109441499D01*
X104149500Y-109662494D01*
X93124033Y-109662494D01*
X93150500Y-109461457D01*
X93150500Y-109238543D01*
X93121404Y-109017537D01*
X93063710Y-108802219D01*
X92978405Y-108596274D01*
X92978404Y-108596272D01*
X92866951Y-108403230D01*
X92731244Y-108226372D01*
X92573627Y-108068755D01*
X92396769Y-107933048D01*
X92203727Y-107821595D01*
X92203724Y-107821594D01*
X91997783Y-107736291D01*
X91997785Y-107736291D01*
X91997781Y-107736290D01*
X91782463Y-107678596D01*
X91782462Y-107678595D01*
X91782459Y-107678595D01*
X91561464Y-107649500D01*
X91561457Y-107649500D01*
X91338543Y-107649500D01*
X91338535Y-107649500D01*
X91117540Y-107678595D01*
X90902222Y-107736289D01*
X90902216Y-107736291D01*
X90696275Y-107821594D01*
X90696272Y-107821595D01*
X90503230Y-107933048D01*
X90326372Y-108068755D01*
X90168755Y-108226372D01*
X90033048Y-108403230D01*
X89921595Y-108596272D01*
X89921594Y-108596275D01*
X89836291Y-108802216D01*
X89836289Y-108802222D01*
X89778595Y-109017540D01*
X89749500Y-109238535D01*
X86000000Y-109238535D01*
X86000000Y-94415191D01*
X87599500Y-94415191D01*
X87599500Y-94684808D01*
X87629687Y-94952726D01*
X87689685Y-95215596D01*
X87778727Y-95470063D01*
X87778733Y-95470079D01*
X87895716Y-95712997D01*
X87895718Y-95713001D01*
X87895719Y-95713002D01*
X88039165Y-95941293D01*
X88039174Y-95941306D01*
X88207258Y-96152076D01*
X88207266Y-96152085D01*
X88397914Y-96342733D01*
X88397923Y-96342741D01*
X88608693Y-96510825D01*
X88608705Y-96510833D01*
X88608711Y-96510838D01*
X88837003Y-96654284D01*
X89079921Y-96771267D01*
X89079925Y-96771268D01*
X89080836Y-96771707D01*
X89150077Y-96826925D01*
X89188504Y-96906718D01*
X89188504Y-96995282D01*
X89150078Y-97075074D01*
X89080836Y-97130293D01*
X88994493Y-97150000D01*
X88795294Y-97150000D01*
X88662092Y-97160482D01*
X88442164Y-97215900D01*
X88235667Y-97309696D01*
X88049233Y-97438857D01*
X88049226Y-97438863D01*
X87888863Y-97599226D01*
X87888857Y-97599233D01*
X87759696Y-97785667D01*
X87665900Y-97992164D01*
X87610482Y-98212092D01*
X87600000Y-98345293D01*
X87600000Y-99300000D01*
X88672769Y-99300000D01*
X88650000Y-99443753D01*
X88650000Y-99656247D01*
X88672769Y-99800000D01*
X87600000Y-99800000D01*
X87600000Y-100754706D01*
X87610482Y-100887907D01*
X87665900Y-101107835D01*
X87759696Y-101314332D01*
X87888857Y-101500766D01*
X87888863Y-101500773D01*
X88049226Y-101661136D01*
X88049233Y-101661142D01*
X88235667Y-101790303D01*
X88442164Y-101884099D01*
X88662092Y-101939517D01*
X88795294Y-101950000D01*
X89750000Y-101950000D01*
X89750000Y-100877231D01*
X89893753Y-100900000D01*
X90106247Y-100900000D01*
X90250000Y-100877231D01*
X90250000Y-101950000D01*
X91204706Y-101950000D01*
X91337907Y-101939517D01*
X91557835Y-101884099D01*
X91764332Y-101790303D01*
X91950766Y-101661142D01*
X91950773Y-101661136D01*
X92111136Y-101500773D01*
X92111142Y-101500766D01*
X92240303Y-101314332D01*
X92334099Y-101107835D01*
X92389517Y-100887907D01*
X92400000Y-100754706D01*
X92400000Y-99800000D01*
X91327231Y-99800000D01*
X91350000Y-99656247D01*
X91350000Y-99443753D01*
X91327231Y-99300000D01*
X92400000Y-99300000D01*
X92400000Y-98345293D01*
X92389517Y-98212092D01*
X92334099Y-97992164D01*
X92240303Y-97785667D01*
X92111142Y-97599233D01*
X92111136Y-97599226D01*
X91950773Y-97438863D01*
X91950766Y-97438857D01*
X91764332Y-97309696D01*
X91557835Y-97215900D01*
X91337907Y-97160482D01*
X91204706Y-97150000D01*
X91005507Y-97150000D01*
X90919164Y-97130293D01*
X90849923Y-97075074D01*
X90811496Y-96995282D01*
X90811496Y-96906718D01*
X90849923Y-96826926D01*
X90919164Y-96771707D01*
X90920074Y-96771268D01*
X90920079Y-96771267D01*
X91162997Y-96654284D01*
X91391289Y-96510838D01*
X91391300Y-96510828D01*
X91391306Y-96510825D01*
X91602076Y-96342741D01*
X91602085Y-96342734D01*
X91792734Y-96152085D01*
X91877147Y-96046234D01*
X91960825Y-95941306D01*
X91960828Y-95941300D01*
X91960838Y-95941289D01*
X92104284Y-95712997D01*
X92221267Y-95470079D01*
X92310316Y-95215591D01*
X92370312Y-94952732D01*
X92400500Y-94684809D01*
X92400500Y-94415191D01*
X92370312Y-94147268D01*
X92310316Y-93884409D01*
X92221267Y-93629921D01*
X92104284Y-93387003D01*
X91960838Y-93158711D01*
X91960833Y-93158705D01*
X91960825Y-93158693D01*
X91792741Y-92947923D01*
X91792733Y-92947914D01*
X91602085Y-92757266D01*
X91602076Y-92757258D01*
X91391306Y-92589174D01*
X91391293Y-92589165D01*
X91391291Y-92589164D01*
X91391289Y-92589162D01*
X91162997Y-92445716D01*
X90920079Y-92328733D01*
X90920073Y-92328731D01*
X90920063Y-92328727D01*
X90665595Y-92239685D01*
X90665596Y-92239685D01*
X90592904Y-92223093D01*
X90402732Y-92179688D01*
X90402728Y-92179687D01*
X90402726Y-92179687D01*
X90184075Y-92155051D01*
X90134809Y-92149500D01*
X89865191Y-92149500D01*
X89815925Y-92155051D01*
X89597273Y-92179687D01*
X89597269Y-92179687D01*
X89597268Y-92179688D01*
X89524581Y-92196278D01*
X89334403Y-92239685D01*
X89079936Y-92328727D01*
X89079918Y-92328734D01*
X88836997Y-92445719D01*
X88608706Y-92589165D01*
X88608693Y-92589174D01*
X88397923Y-92757258D01*
X88397914Y-92757266D01*
X88207266Y-92947914D01*
X88207258Y-92947923D01*
X88039174Y-93158693D01*
X88039165Y-93158706D01*
X87895719Y-93386997D01*
X87778734Y-93629918D01*
X87778727Y-93629936D01*
X87689685Y-93884403D01*
X87629687Y-94147273D01*
X87599500Y-94415191D01*
X86000000Y-94415191D01*
X86000000Y-78365191D01*
X87599500Y-78365191D01*
X87599500Y-78634808D01*
X87629687Y-78902726D01*
X87689685Y-79165596D01*
X87766051Y-79383837D01*
X87778733Y-79420079D01*
X87895716Y-79662997D01*
X88039053Y-79891116D01*
X88039165Y-79891293D01*
X88039174Y-79891306D01*
X88207258Y-80102076D01*
X88207266Y-80102085D01*
X88397914Y-80292733D01*
X88397923Y-80292741D01*
X88608693Y-80460825D01*
X88608705Y-80460833D01*
X88608711Y-80460838D01*
X88837003Y-80604284D01*
X89079921Y-80721267D01*
X89079925Y-80721268D01*
X89080836Y-80721707D01*
X89150077Y-80776925D01*
X89188504Y-80856718D01*
X89188504Y-80945282D01*
X89150078Y-81025074D01*
X89080836Y-81080293D01*
X88994493Y-81100000D01*
X88795294Y-81100000D01*
X88662092Y-81110482D01*
X88442164Y-81165900D01*
X88235667Y-81259696D01*
X88049233Y-81388857D01*
X88049226Y-81388863D01*
X87888863Y-81549226D01*
X87888857Y-81549233D01*
X87759696Y-81735667D01*
X87665900Y-81942164D01*
X87610482Y-82162092D01*
X87600000Y-82295293D01*
X87600000Y-83250000D01*
X88672769Y-83250000D01*
X88650000Y-83393753D01*
X88650000Y-83606247D01*
X88672769Y-83750000D01*
X87600000Y-83750000D01*
X87600000Y-84704706D01*
X87610482Y-84837907D01*
X87665900Y-85057835D01*
X87759696Y-85264332D01*
X87888857Y-85450766D01*
X87888863Y-85450773D01*
X88049226Y-85611136D01*
X88049233Y-85611142D01*
X88235667Y-85740303D01*
X88442164Y-85834099D01*
X88662092Y-85889517D01*
X88795294Y-85900000D01*
X89750000Y-85900000D01*
X89750000Y-84827231D01*
X89893753Y-84850000D01*
X90106247Y-84850000D01*
X90250000Y-84827231D01*
X90250000Y-85900000D01*
X91204706Y-85900000D01*
X91337907Y-85889517D01*
X91557835Y-85834099D01*
X91764332Y-85740303D01*
X91950766Y-85611142D01*
X91950773Y-85611136D01*
X92111136Y-85450773D01*
X92111142Y-85450766D01*
X92240303Y-85264332D01*
X92334099Y-85057835D01*
X92389517Y-84837907D01*
X92400000Y-84704706D01*
X92400000Y-83750000D01*
X91327231Y-83750000D01*
X91350000Y-83606247D01*
X91350000Y-83393753D01*
X91327231Y-83250000D01*
X92400000Y-83250000D01*
X92400000Y-82295293D01*
X92389517Y-82162092D01*
X92334099Y-81942164D01*
X92240303Y-81735667D01*
X92111142Y-81549233D01*
X92111136Y-81549226D01*
X91950773Y-81388863D01*
X91950766Y-81388857D01*
X91764332Y-81259696D01*
X91557835Y-81165900D01*
X91337907Y-81110482D01*
X91204706Y-81100000D01*
X91005507Y-81100000D01*
X90919164Y-81080293D01*
X90849923Y-81025074D01*
X90811496Y-80945282D01*
X90811496Y-80856718D01*
X90849923Y-80776926D01*
X90919164Y-80721707D01*
X90920074Y-80721268D01*
X90920079Y-80721267D01*
X91162997Y-80604284D01*
X91391289Y-80460838D01*
X91391300Y-80460828D01*
X91391306Y-80460825D01*
X91602076Y-80292741D01*
X91602085Y-80292734D01*
X91792734Y-80102085D01*
X91833315Y-80051197D01*
X91960825Y-79891306D01*
X91960828Y-79891300D01*
X91960838Y-79891289D01*
X92104284Y-79662997D01*
X92221267Y-79420079D01*
X92310316Y-79165591D01*
X92370312Y-78902732D01*
X92400500Y-78634809D01*
X92400500Y-78365191D01*
X92370312Y-78097268D01*
X92310316Y-77834409D01*
X92310044Y-77833633D01*
X92255881Y-77678842D01*
X92221267Y-77579921D01*
X92104284Y-77337003D01*
X91960838Y-77108711D01*
X91960833Y-77108705D01*
X91960825Y-77108693D01*
X91792741Y-76897923D01*
X91792733Y-76897914D01*
X91602085Y-76707266D01*
X91602076Y-76707258D01*
X91391306Y-76539174D01*
X91391293Y-76539165D01*
X91391291Y-76539164D01*
X91391289Y-76539162D01*
X91162997Y-76395716D01*
X90920079Y-76278733D01*
X90920073Y-76278731D01*
X90920063Y-76278727D01*
X90665595Y-76189685D01*
X90665596Y-76189685D01*
X90592904Y-76173093D01*
X90402732Y-76129688D01*
X90402728Y-76129687D01*
X90402726Y-76129687D01*
X90203945Y-76107289D01*
X90134809Y-76099500D01*
X89865191Y-76099500D01*
X89810235Y-76105692D01*
X89597273Y-76129687D01*
X89597269Y-76129687D01*
X89597268Y-76129688D01*
X89559392Y-76138333D01*
X89334403Y-76189685D01*
X89079936Y-76278727D01*
X89079918Y-76278734D01*
X88836997Y-76395719D01*
X88608706Y-76539165D01*
X88608693Y-76539174D01*
X88397923Y-76707258D01*
X88397914Y-76707266D01*
X88207266Y-76897914D01*
X88207258Y-76897923D01*
X88039174Y-77108693D01*
X88039165Y-77108706D01*
X87895719Y-77336997D01*
X87778734Y-77579918D01*
X87778727Y-77579936D01*
X87689685Y-77834403D01*
X87629687Y-78097273D01*
X87599500Y-78365191D01*
X86000000Y-78365191D01*
X86000000Y-67199000D01*
X86019707Y-67112657D01*
X86074926Y-67043416D01*
X86154718Y-67004989D01*
X86199000Y-67000000D01*
X88561811Y-67000000D01*
X88583426Y-67004933D01*
G37*
%TD.AperFunction*%
%TA.AperFunction,Conductor*%
G36*
X195386843Y-52019707D02*
G01*
X195456084Y-52074926D01*
X195494511Y-52154718D01*
X195499500Y-52199000D01*
X195499500Y-72301000D01*
X195479793Y-72387343D01*
X195424574Y-72456584D01*
X195344782Y-72495011D01*
X195300500Y-72500000D01*
X160074500Y-72500000D01*
X159988157Y-72480293D01*
X159918916Y-72425074D01*
X159880489Y-72345282D01*
X159875500Y-72301000D01*
X159875500Y-66938390D01*
X159851463Y-66817550D01*
X159851463Y-66817548D01*
X159804311Y-66703714D01*
X159735858Y-66601267D01*
X159648733Y-66514142D01*
X159614120Y-66491014D01*
X159546287Y-66445689D01*
X159546282Y-66445687D01*
X159494708Y-66424324D01*
X159432452Y-66398537D01*
X159432450Y-66398536D01*
X159432449Y-66398536D01*
X159311609Y-66374500D01*
X159311606Y-66374500D01*
X142199000Y-66374500D01*
X142112657Y-66354793D01*
X142043416Y-66299574D01*
X142004989Y-66219782D01*
X142000000Y-66175500D01*
X142000000Y-60300030D01*
X163300000Y-60300030D01*
X163300000Y-61050000D01*
X164451518Y-61050000D01*
X164440889Y-61068409D01*
X164400000Y-61221009D01*
X164400000Y-61378991D01*
X164440889Y-61531591D01*
X164451518Y-61550000D01*
X163300000Y-61550000D01*
X163300000Y-62299969D01*
X163310495Y-62402699D01*
X163365642Y-62569120D01*
X163457682Y-62718341D01*
X163457685Y-62718345D01*
X163581654Y-62842314D01*
X163581658Y-62842317D01*
X163730879Y-62934357D01*
X163897300Y-62989504D01*
X164000031Y-63000000D01*
X164750000Y-63000000D01*
X164750000Y-61848482D01*
X164768409Y-61859111D01*
X164921009Y-61900000D01*
X165078991Y-61900000D01*
X165231591Y-61859111D01*
X165250000Y-61848482D01*
X165250000Y-63000000D01*
X165999969Y-63000000D01*
X165999979Y-62999999D01*
X173500000Y-62999999D01*
X173567250Y-63682814D01*
X173567251Y-63682816D01*
X173704361Y-64134809D01*
X173766422Y-64339394D01*
X174089854Y-64944493D01*
X174089856Y-64944495D01*
X174525126Y-65474873D01*
X174858495Y-65748462D01*
X175055505Y-65910144D01*
X175150347Y-65960838D01*
X175660607Y-66233578D01*
X176317183Y-66432748D01*
X177000000Y-66500000D01*
X177682816Y-66432748D01*
X178339392Y-66233578D01*
X178944495Y-65910143D01*
X179474873Y-65474873D01*
X179910143Y-64944495D01*
X180233578Y-64339392D01*
X180377425Y-63865191D01*
X188599500Y-63865191D01*
X188599500Y-64134808D01*
X188629687Y-64402726D01*
X188689685Y-64665596D01*
X188724206Y-64764250D01*
X188778733Y-64920079D01*
X188895716Y-65162997D01*
X188895718Y-65163001D01*
X188895719Y-65163002D01*
X189039165Y-65391293D01*
X189039174Y-65391306D01*
X189207258Y-65602076D01*
X189207266Y-65602085D01*
X189397914Y-65792733D01*
X189397923Y-65792741D01*
X189608693Y-65960825D01*
X189608705Y-65960833D01*
X189608711Y-65960838D01*
X189837003Y-66104284D01*
X190079921Y-66221267D01*
X190079925Y-66221268D01*
X190080836Y-66221707D01*
X190150077Y-66276925D01*
X190188504Y-66356718D01*
X190188504Y-66445282D01*
X190150078Y-66525074D01*
X190080836Y-66580293D01*
X189994493Y-66600000D01*
X189795294Y-66600000D01*
X189662092Y-66610482D01*
X189442164Y-66665900D01*
X189235667Y-66759696D01*
X189049233Y-66888857D01*
X189049226Y-66888863D01*
X188888863Y-67049226D01*
X188888857Y-67049233D01*
X188759696Y-67235667D01*
X188665900Y-67442164D01*
X188610482Y-67662092D01*
X188600000Y-67795293D01*
X188600000Y-68750000D01*
X189672769Y-68750000D01*
X189650000Y-68893753D01*
X189650000Y-69106247D01*
X189672769Y-69250000D01*
X188600000Y-69250000D01*
X188600000Y-70204706D01*
X188610482Y-70337907D01*
X188665900Y-70557835D01*
X188759696Y-70764332D01*
X188888857Y-70950766D01*
X188888863Y-70950773D01*
X189049226Y-71111136D01*
X189049233Y-71111142D01*
X189235667Y-71240303D01*
X189442164Y-71334099D01*
X189662092Y-71389517D01*
X189795294Y-71400000D01*
X190750000Y-71400000D01*
X190750000Y-70327231D01*
X190893753Y-70350000D01*
X191106247Y-70350000D01*
X191250000Y-70327231D01*
X191250000Y-71400000D01*
X192204706Y-71400000D01*
X192337907Y-71389517D01*
X192557835Y-71334099D01*
X192764332Y-71240303D01*
X192950766Y-71111142D01*
X192950773Y-71111136D01*
X193111136Y-70950773D01*
X193111142Y-70950766D01*
X193240303Y-70764332D01*
X193334099Y-70557835D01*
X193389517Y-70337907D01*
X193400000Y-70204706D01*
X193400000Y-69250000D01*
X192327231Y-69250000D01*
X192350000Y-69106247D01*
X192350000Y-68893753D01*
X192327231Y-68750000D01*
X193400000Y-68750000D01*
X193400000Y-67795293D01*
X193389517Y-67662092D01*
X193334099Y-67442164D01*
X193240303Y-67235667D01*
X193111142Y-67049233D01*
X193111136Y-67049226D01*
X192950773Y-66888863D01*
X192950766Y-66888857D01*
X192764332Y-66759696D01*
X192557835Y-66665900D01*
X192337907Y-66610482D01*
X192204706Y-66600000D01*
X192005507Y-66600000D01*
X191919164Y-66580293D01*
X191849923Y-66525074D01*
X191811496Y-66445282D01*
X191811496Y-66356718D01*
X191849923Y-66276926D01*
X191919164Y-66221707D01*
X191920074Y-66221268D01*
X191920079Y-66221267D01*
X192162997Y-66104284D01*
X192391289Y-65960838D01*
X192391300Y-65960828D01*
X192391306Y-65960825D01*
X192602076Y-65792741D01*
X192602085Y-65792734D01*
X192792734Y-65602085D01*
X192929405Y-65430705D01*
X192960825Y-65391306D01*
X192960828Y-65391300D01*
X192960838Y-65391289D01*
X193104284Y-65162997D01*
X193221267Y-64920079D01*
X193310316Y-64665591D01*
X193370312Y-64402732D01*
X193400500Y-64134809D01*
X193400500Y-63865191D01*
X193370312Y-63597268D01*
X193310316Y-63334409D01*
X193221267Y-63079921D01*
X193104284Y-62837003D01*
X192960838Y-62608711D01*
X192960833Y-62608705D01*
X192960825Y-62608693D01*
X192792741Y-62397923D01*
X192792733Y-62397914D01*
X192602085Y-62207266D01*
X192602076Y-62207258D01*
X192391306Y-62039174D01*
X192391293Y-62039165D01*
X192391291Y-62039164D01*
X192391289Y-62039162D01*
X192162997Y-61895716D01*
X191920079Y-61778733D01*
X191920073Y-61778731D01*
X191920063Y-61778727D01*
X191665595Y-61689685D01*
X191665596Y-61689685D01*
X191572375Y-61668408D01*
X191402732Y-61629688D01*
X191402728Y-61629687D01*
X191402726Y-61629687D01*
X191203945Y-61607289D01*
X191134809Y-61599500D01*
X190865191Y-61599500D01*
X190810235Y-61605692D01*
X190597273Y-61629687D01*
X190597269Y-61629687D01*
X190597268Y-61629688D01*
X190524581Y-61646278D01*
X190334403Y-61689685D01*
X190079936Y-61778727D01*
X190079918Y-61778734D01*
X189836997Y-61895719D01*
X189608706Y-62039165D01*
X189608693Y-62039174D01*
X189397923Y-62207258D01*
X189397914Y-62207266D01*
X189207266Y-62397914D01*
X189207258Y-62397923D01*
X189039174Y-62608693D01*
X189039165Y-62608706D01*
X188895719Y-62836997D01*
X188778734Y-63079918D01*
X188778727Y-63079936D01*
X188689685Y-63334403D01*
X188629687Y-63597273D01*
X188599500Y-63865191D01*
X180377425Y-63865191D01*
X180432748Y-63682816D01*
X180500000Y-63000000D01*
X180432748Y-62317183D01*
X180233578Y-61660607D01*
X180010843Y-61243900D01*
X179910144Y-61055505D01*
X179808451Y-60931592D01*
X179474873Y-60525126D01*
X178944495Y-60089856D01*
X178944496Y-60089856D01*
X178944493Y-60089854D01*
X178339394Y-59766422D01*
X178339393Y-59766421D01*
X178339392Y-59766421D01*
X177903897Y-59634315D01*
X177682814Y-59567250D01*
X177074597Y-59507347D01*
X177000000Y-59500000D01*
X176999999Y-59500000D01*
X176317184Y-59567250D01*
X175660604Y-59766422D01*
X175055505Y-60089854D01*
X174525126Y-60525126D01*
X174089854Y-61055505D01*
X173766422Y-61660604D01*
X173567250Y-62317184D01*
X173500000Y-62999999D01*
X165999979Y-62999999D01*
X166102699Y-62989504D01*
X166269120Y-62934357D01*
X166418341Y-62842317D01*
X166418345Y-62842314D01*
X166542314Y-62718345D01*
X166542317Y-62718341D01*
X166634357Y-62569120D01*
X166689504Y-62402699D01*
X166700000Y-62299969D01*
X166700000Y-61550000D01*
X165548482Y-61550000D01*
X165559111Y-61531591D01*
X165600000Y-61378991D01*
X165600000Y-61221009D01*
X165559111Y-61068409D01*
X165548482Y-61050000D01*
X166700000Y-61050000D01*
X166700000Y-60300030D01*
X166689504Y-60197300D01*
X166634357Y-60030879D01*
X166542317Y-59881658D01*
X166542314Y-59881654D01*
X166418345Y-59757685D01*
X166418341Y-59757682D01*
X166269120Y-59665642D01*
X166102699Y-59610495D01*
X165999969Y-59600000D01*
X165250000Y-59600000D01*
X165250000Y-60751517D01*
X165231591Y-60740889D01*
X165078991Y-60700000D01*
X164921009Y-60700000D01*
X164768409Y-60740889D01*
X164750000Y-60751517D01*
X164750000Y-59600000D01*
X164000031Y-59600000D01*
X163897300Y-59610495D01*
X163730879Y-59665642D01*
X163581658Y-59757682D01*
X163581654Y-59757685D01*
X163457685Y-59881654D01*
X163457682Y-59881658D01*
X163365642Y-60030879D01*
X163310495Y-60197300D01*
X163300000Y-60300030D01*
X142000000Y-60300030D01*
X142000000Y-56888535D01*
X143299500Y-56888535D01*
X143299500Y-57111464D01*
X143323505Y-57293796D01*
X143328596Y-57332463D01*
X143383453Y-57537191D01*
X143386289Y-57547777D01*
X143386291Y-57547783D01*
X143471594Y-57753724D01*
X143471595Y-57753727D01*
X143583048Y-57946769D01*
X143718755Y-58123627D01*
X143876372Y-58281244D01*
X144053230Y-58416951D01*
X144246272Y-58528404D01*
X144246274Y-58528405D01*
X144452219Y-58613710D01*
X144667537Y-58671404D01*
X144847154Y-58695051D01*
X144888535Y-58700499D01*
X144888541Y-58700500D01*
X144888543Y-58700500D01*
X145111459Y-58700500D01*
X145111462Y-58700499D01*
X145332463Y-58671404D01*
X145547781Y-58613710D01*
X145753726Y-58528405D01*
X145941848Y-58419792D01*
X145946769Y-58416951D01*
X145946769Y-58416950D01*
X145946774Y-58416948D01*
X146123624Y-58281247D01*
X146281247Y-58123624D01*
X146416948Y-57946774D01*
X146528405Y-57753726D01*
X146613710Y-57547781D01*
X146671404Y-57332463D01*
X146700500Y-57111457D01*
X146700500Y-56888543D01*
X146671404Y-56667537D01*
X146613710Y-56452219D01*
X146571577Y-56350500D01*
X146533341Y-56258188D01*
X146533339Y-56258185D01*
X146528405Y-56246274D01*
X146528404Y-56246272D01*
X146495069Y-56188535D01*
X163299500Y-56188535D01*
X163299500Y-56411464D01*
X163328595Y-56632459D01*
X163386289Y-56847777D01*
X163386291Y-56847783D01*
X163471594Y-57053724D01*
X163471595Y-57053727D01*
X163583048Y-57246769D01*
X163718755Y-57423627D01*
X163876372Y-57581244D01*
X164053230Y-57716951D01*
X164214475Y-57810046D01*
X164246274Y-57828405D01*
X164452219Y-57913710D01*
X164667537Y-57971404D01*
X164862292Y-57997044D01*
X164888535Y-58000499D01*
X164888541Y-58000500D01*
X164888543Y-58000500D01*
X165111459Y-58000500D01*
X165111462Y-58000499D01*
X165332463Y-57971404D01*
X165547781Y-57913710D01*
X165753726Y-57828405D01*
X165946774Y-57716948D01*
X166123624Y-57581247D01*
X166281247Y-57423624D01*
X166416948Y-57246774D01*
X166528405Y-57053726D01*
X166613710Y-56847781D01*
X166671404Y-56632463D01*
X166700500Y-56411457D01*
X166700500Y-56188543D01*
X166671404Y-55967537D01*
X166613710Y-55752219D01*
X166528405Y-55546274D01*
X166501473Y-55499627D01*
X166416951Y-55353230D01*
X166281244Y-55176372D01*
X166123627Y-55018755D01*
X165946769Y-54883048D01*
X165753727Y-54771595D01*
X165753724Y-54771594D01*
X165547783Y-54686291D01*
X165547785Y-54686291D01*
X165547781Y-54686290D01*
X165332463Y-54628596D01*
X165332462Y-54628595D01*
X165332459Y-54628595D01*
X165111464Y-54599500D01*
X165111457Y-54599500D01*
X164888543Y-54599500D01*
X164888535Y-54599500D01*
X164667540Y-54628595D01*
X164452222Y-54686289D01*
X164452216Y-54686291D01*
X164246275Y-54771594D01*
X164246272Y-54771595D01*
X164053230Y-54883048D01*
X163876372Y-55018755D01*
X163718755Y-55176372D01*
X163583048Y-55353230D01*
X163471595Y-55546272D01*
X163471594Y-55546275D01*
X163386291Y-55752216D01*
X163386289Y-55752222D01*
X163328595Y-55967540D01*
X163299500Y-56188535D01*
X146495069Y-56188535D01*
X146416951Y-56053230D01*
X146281244Y-55876372D01*
X146123627Y-55718755D01*
X145946769Y-55583048D01*
X145753727Y-55471595D01*
X145753724Y-55471594D01*
X145650753Y-55428942D01*
X145547781Y-55386290D01*
X145332463Y-55328596D01*
X145332462Y-55328595D01*
X145332459Y-55328595D01*
X145111464Y-55299500D01*
X145111457Y-55299500D01*
X144888543Y-55299500D01*
X144888535Y-55299500D01*
X144667540Y-55328595D01*
X144452222Y-55386289D01*
X144452216Y-55386291D01*
X144246275Y-55471594D01*
X144246272Y-55471595D01*
X144053230Y-55583048D01*
X143876372Y-55718755D01*
X143718755Y-55876372D01*
X143583048Y-56053230D01*
X143471595Y-56246272D01*
X143471594Y-56246275D01*
X143386291Y-56452216D01*
X143386289Y-56452222D01*
X143328595Y-56667540D01*
X143299500Y-56888535D01*
X142000000Y-56888535D01*
X142000000Y-52199000D01*
X142019707Y-52112657D01*
X142074926Y-52043416D01*
X142154718Y-52004989D01*
X142199000Y-52000000D01*
X195300500Y-52000000D01*
X195386843Y-52019707D01*
G37*
%TD.AperFunction*%
%TD*%
%TA.AperFunction,Conductor*%
%TO.N,I2C_SCL*%
G36*
X131601048Y-81819760D02*
G01*
X131603236Y-81822793D01*
X132202129Y-83018541D01*
X132202770Y-83027473D01*
X132198178Y-83033503D01*
X131506510Y-83496640D01*
X131497729Y-83498395D01*
X131493490Y-83496640D01*
X130801821Y-83033503D01*
X130796854Y-83026052D01*
X130797869Y-83018543D01*
X131396764Y-81822792D01*
X131403533Y-81816931D01*
X131407225Y-81816333D01*
X131592775Y-81816333D01*
X131601048Y-81819760D01*
G37*
%TD.AperFunction*%
%TD*%
%TA.AperFunction,Conductor*%
%TO.N,I2C_SDA*%
G36*
X159452330Y-128727930D02*
G01*
X159456922Y-128733960D01*
X159878962Y-130002966D01*
X159878321Y-130011898D01*
X159876133Y-130014931D01*
X159744931Y-130146133D01*
X159736658Y-130149560D01*
X159732966Y-130148962D01*
X158463960Y-129726922D01*
X158457191Y-129721060D01*
X158456175Y-129713549D01*
X158617772Y-128896978D01*
X158622739Y-128889527D01*
X158626977Y-128887772D01*
X159443549Y-128726175D01*
X159452330Y-128727930D01*
G37*
%TD.AperFunction*%
%TD*%
%TA.AperFunction,Conductor*%
%TO.N,V12_JET*%
G36*
X189103952Y-116002079D02*
G01*
X190981315Y-116989645D01*
X190987041Y-116996530D01*
X190986223Y-117005447D01*
X190981315Y-117010355D01*
X189103952Y-117997920D01*
X189095667Y-117998916D01*
X188108862Y-117752215D01*
X188101667Y-117746884D01*
X188100000Y-117740864D01*
X188100000Y-116259135D01*
X188103427Y-116250862D01*
X188108860Y-116247784D01*
X189095667Y-116001083D01*
X189103952Y-116002079D01*
G37*
%TD.AperFunction*%
%TD*%
%TA.AperFunction,Conductor*%
%TO.N,I2C_SCL*%
G36*
X158173709Y-126260762D02*
G01*
X158612318Y-126347481D01*
X158619770Y-126352448D01*
X158621525Y-126356679D01*
X158783767Y-127173300D01*
X158782018Y-127182082D01*
X158775722Y-127186766D01*
X157570676Y-127556394D01*
X157567245Y-127556908D01*
X157384786Y-127556908D01*
X157376513Y-127553481D01*
X157373086Y-127545208D01*
X157373592Y-127541805D01*
X157733888Y-126356679D01*
X157783254Y-126194299D01*
X157788938Y-126187382D01*
X157796716Y-126186226D01*
X158173709Y-126260762D01*
G37*
%TD.AperFunction*%
%TD*%
%TA.AperFunction,Conductor*%
%TO.N,/01 Battery Input + Reverse Protection/BATT_NEG*%
G36*
X102215677Y-52269685D02*
G01*
X102236319Y-52286319D01*
X105463681Y-55513681D01*
X105497166Y-55575004D01*
X105500000Y-55601362D01*
X105500000Y-60283570D01*
X105480315Y-60350609D01*
X105427511Y-60396364D01*
X105358353Y-60406308D01*
X105297335Y-60379423D01*
X104944496Y-60089857D01*
X104944489Y-60089851D01*
X104339396Y-59766422D01*
X103682814Y-59567250D01*
X103074597Y-59507347D01*
X103000000Y-59500000D01*
X102999999Y-59500000D01*
X102317184Y-59567250D01*
X101660602Y-59766422D01*
X101055509Y-60089851D01*
X101055502Y-60089856D01*
X100525125Y-60525125D01*
X100089856Y-61055502D01*
X100089851Y-61055509D01*
X99766422Y-61660602D01*
X99567250Y-62317184D01*
X99500000Y-62999999D01*
X99567250Y-63682814D01*
X99766422Y-64339396D01*
X100089851Y-64944489D01*
X100089856Y-64944496D01*
X100525125Y-65474873D01*
X101055502Y-65910142D01*
X101055509Y-65910147D01*
X101660602Y-66233576D01*
X101660604Y-66233576D01*
X101660607Y-66233578D01*
X101720808Y-66251839D01*
X101779246Y-66290137D01*
X101807702Y-66353949D01*
X101797142Y-66423016D01*
X101750918Y-66475410D01*
X101684812Y-66494500D01*
X100129658Y-66494500D01*
X100112661Y-66494977D01*
X100101327Y-66495295D01*
X100096592Y-66495560D01*
X100079049Y-66496545D01*
X100079048Y-66496545D01*
X100079046Y-66496546D01*
X99985774Y-66515098D01*
X99940418Y-66524120D01*
X99856850Y-66553362D01*
X99856826Y-66553372D01*
X99781532Y-66586833D01*
X99781531Y-66586834D01*
X99666349Y-66673059D01*
X99666345Y-66673062D01*
X99603720Y-66735688D01*
X99603712Y-66735697D01*
X99550400Y-66798505D01*
X99550398Y-66798508D01*
X99484033Y-66926167D01*
X99484030Y-66926175D01*
X99454784Y-67009754D01*
X99442526Y-67056779D01*
X99406567Y-67116685D01*
X99343929Y-67147641D01*
X99322536Y-67149500D01*
X98680425Y-67149500D01*
X98613386Y-67129815D01*
X98574887Y-67090598D01*
X98547969Y-67046958D01*
X98547968Y-67046956D01*
X98428044Y-66927032D01*
X98409399Y-66915531D01*
X98362677Y-66863582D01*
X98350500Y-66809995D01*
X98350500Y-58727590D01*
X98370185Y-58660551D01*
X98401150Y-58627611D01*
X99288003Y-57977016D01*
X99353698Y-57953235D01*
X99361347Y-57952999D01*
X99547871Y-57952999D01*
X99547872Y-57952999D01*
X99607483Y-57946591D01*
X99742331Y-57896296D01*
X99857546Y-57810046D01*
X99943796Y-57694831D01*
X99994091Y-57559983D01*
X100000500Y-57500373D01*
X100000499Y-56385646D01*
X102079500Y-56385646D01*
X102079500Y-56614353D01*
X102115278Y-56840246D01*
X102115278Y-56840249D01*
X102185950Y-57057755D01*
X102185952Y-57057758D01*
X102289783Y-57261538D01*
X102424214Y-57446566D01*
X102585934Y-57608286D01*
X102770962Y-57742717D01*
X102903099Y-57810044D01*
X102974744Y-57846549D01*
X103192251Y-57917221D01*
X103192252Y-57917221D01*
X103192255Y-57917222D01*
X103418146Y-57953000D01*
X103418147Y-57953000D01*
X103741853Y-57953000D01*
X103741854Y-57953000D01*
X103967745Y-57917222D01*
X103967748Y-57917221D01*
X103967749Y-57917221D01*
X104185255Y-57846549D01*
X104185255Y-57846548D01*
X104185258Y-57846548D01*
X104389038Y-57742717D01*
X104574066Y-57608286D01*
X104735786Y-57446566D01*
X104870217Y-57261538D01*
X104974048Y-57057758D01*
X105044722Y-56840245D01*
X105080500Y-56614354D01*
X105080500Y-56385646D01*
X105044722Y-56159755D01*
X105044721Y-56159751D01*
X105044721Y-56159750D01*
X104974049Y-55942244D01*
X104960195Y-55915054D01*
X104870217Y-55738462D01*
X104735786Y-55553434D01*
X104574066Y-55391714D01*
X104389038Y-55257283D01*
X104327518Y-55225937D01*
X104185255Y-55153450D01*
X103967748Y-55082778D01*
X103782312Y-55053408D01*
X103741854Y-55047000D01*
X103418146Y-55047000D01*
X103377688Y-55053408D01*
X103192253Y-55082778D01*
X103192250Y-55082778D01*
X102974744Y-55153450D01*
X102770961Y-55257283D01*
X102705050Y-55305171D01*
X102585934Y-55391714D01*
X102585932Y-55391716D01*
X102585931Y-55391716D01*
X102424216Y-55553431D01*
X102424216Y-55553432D01*
X102424214Y-55553434D01*
X102389392Y-55601362D01*
X102289783Y-55738461D01*
X102185950Y-55942244D01*
X102115278Y-56159750D01*
X102115278Y-56159753D01*
X102079500Y-56385646D01*
X100000499Y-56385646D01*
X100000499Y-55499628D01*
X99994091Y-55440017D01*
X99943796Y-55305169D01*
X99943795Y-55305168D01*
X99943793Y-55305164D01*
X99857547Y-55189955D01*
X99857544Y-55189952D01*
X99742335Y-55103706D01*
X99742328Y-55103702D01*
X99607482Y-55053408D01*
X99607483Y-55053408D01*
X99547883Y-55047001D01*
X99547881Y-55047000D01*
X99547873Y-55047000D01*
X99547864Y-55047000D01*
X97452129Y-55047000D01*
X97452123Y-55047001D01*
X97392516Y-55053408D01*
X97257671Y-55103702D01*
X97257664Y-55103706D01*
X97142455Y-55189952D01*
X97142452Y-55189955D01*
X97056206Y-55305164D01*
X97056202Y-55305171D01*
X97005908Y-55440017D01*
X96999501Y-55499616D01*
X96999501Y-55499623D01*
X96999500Y-55499635D01*
X96999500Y-57500369D01*
X96999501Y-57500378D01*
X97000722Y-57511733D01*
X97001421Y-57523318D01*
X97001607Y-57537188D01*
X97001608Y-57537203D01*
X97147990Y-58466725D01*
X97149500Y-58486015D01*
X97149500Y-66809995D01*
X97129815Y-66877034D01*
X97090600Y-66915532D01*
X97071954Y-66927033D01*
X96952029Y-67046959D01*
X96863001Y-67191294D01*
X96862996Y-67191305D01*
X96809651Y-67352290D01*
X96805941Y-67388604D01*
X96779544Y-67453295D01*
X96722363Y-67493446D01*
X96682583Y-67500000D01*
X95907299Y-67500000D01*
X95840260Y-67480315D01*
X95794505Y-67427511D01*
X95784446Y-67359177D01*
X95800315Y-67243289D01*
X95800316Y-67243281D01*
X95800316Y-67154709D01*
X95793599Y-67072589D01*
X95793598Y-67072587D01*
X95793598Y-67072580D01*
X95750253Y-66935384D01*
X95711826Y-66855592D01*
X95711821Y-66855583D01*
X95711818Y-66855577D01*
X95670144Y-66784518D01*
X95670143Y-66784517D01*
X95571573Y-66679719D01*
X95571563Y-66679709D01*
X95502319Y-66624488D01*
X95433927Y-66578538D01*
X95433922Y-66578535D01*
X95433920Y-66578534D01*
X95383049Y-66558967D01*
X95299632Y-66526881D01*
X95299626Y-66526879D01*
X95213292Y-66507174D01*
X95213275Y-66507172D01*
X95100809Y-66494500D01*
X95100805Y-66494500D01*
X93059562Y-66494500D01*
X93059556Y-66494500D01*
X93042559Y-66494977D01*
X93031225Y-66495295D01*
X93026490Y-66495560D01*
X93008947Y-66496545D01*
X93008946Y-66496545D01*
X93008944Y-66496546D01*
X92915672Y-66515098D01*
X92870316Y-66524120D01*
X92786748Y-66553362D01*
X92786724Y-66553372D01*
X92711430Y-66586833D01*
X92711429Y-66586834D01*
X92596247Y-66673059D01*
X92596243Y-66673062D01*
X92533618Y-66735688D01*
X92533610Y-66735697D01*
X92480298Y-66798505D01*
X92480296Y-66798508D01*
X92413931Y-66926167D01*
X92413928Y-66926175D01*
X92384682Y-67009754D01*
X92363894Y-67089502D01*
X92363893Y-67089504D01*
X92359491Y-67233319D01*
X92359491Y-67233324D01*
X92369405Y-67321318D01*
X92375451Y-67352119D01*
X92369046Y-67421695D01*
X92326042Y-67476762D01*
X92260093Y-67499839D01*
X92253772Y-67500000D01*
X89429000Y-67500000D01*
X89420742Y-67497575D01*
X89412234Y-67498861D01*
X89387726Y-67487880D01*
X89361961Y-67480315D01*
X89356326Y-67473811D01*
X89348472Y-67470293D01*
X89333791Y-67447805D01*
X89316206Y-67427511D01*
X89313982Y-67417462D01*
X89310277Y-67411787D01*
X89305386Y-67378623D01*
X89305003Y-67376889D01*
X89305000Y-67376470D01*
X89305000Y-67229692D01*
X89304999Y-67228699D01*
X89304998Y-67228190D01*
X89303865Y-67218347D01*
X89303818Y-67211694D01*
X89304217Y-67210294D01*
X89304029Y-67203533D01*
X89304160Y-67201307D01*
X89297479Y-67161397D01*
X89296597Y-67155142D01*
X89292029Y-67115409D01*
X89290169Y-67107357D01*
X89284727Y-67083800D01*
X89284723Y-67083782D01*
X89283873Y-67080100D01*
X89280409Y-67059401D01*
X89275644Y-67044456D01*
X89272111Y-67029155D01*
X89272109Y-67029149D01*
X89272108Y-67029144D01*
X89247087Y-66950642D01*
X89247086Y-66950641D01*
X89247086Y-66950639D01*
X89235168Y-66930434D01*
X89222161Y-66898812D01*
X89187796Y-66850126D01*
X89185228Y-66845772D01*
X89185217Y-66845755D01*
X89173985Y-66826712D01*
X89169676Y-66821337D01*
X89153650Y-66801345D01*
X89153650Y-66801346D01*
X89151281Y-66798391D01*
X89139192Y-66781264D01*
X89128401Y-66769852D01*
X89118578Y-66757599D01*
X89038341Y-66677773D01*
X89031974Y-66672722D01*
X89031970Y-66672719D01*
X89031951Y-66672704D01*
X89026580Y-66668790D01*
X89023412Y-66666403D01*
X89022164Y-66665431D01*
X89007476Y-66653376D01*
X89000856Y-66648035D01*
X88999557Y-66647005D01*
X88994280Y-66643708D01*
X88989217Y-66639764D01*
X88986472Y-66635947D01*
X88920103Y-66593592D01*
X88894935Y-66578538D01*
X88894934Y-66578537D01*
X88856159Y-66563621D01*
X88856138Y-66563614D01*
X88844057Y-66558967D01*
X88844205Y-66558659D01*
X88823754Y-66548875D01*
X88746787Y-66519495D01*
X88695854Y-66512303D01*
X88695900Y-66512105D01*
X88688180Y-66510343D01*
X88688164Y-66510338D01*
X88674288Y-66507172D01*
X88674284Y-66507171D01*
X88561817Y-66494500D01*
X88561811Y-66494500D01*
X86199000Y-66494500D01*
X86142399Y-66497678D01*
X86142388Y-66497679D01*
X86137875Y-66498188D01*
X86069054Y-66486129D01*
X86017678Y-66438776D01*
X86000000Y-66374967D01*
X86000000Y-55478549D01*
X87299500Y-55478549D01*
X87299500Y-58621450D01*
X87314804Y-58835433D01*
X87375628Y-59115037D01*
X87475635Y-59383166D01*
X87612770Y-59634309D01*
X87612775Y-59634317D01*
X87784254Y-59863387D01*
X87784270Y-59863405D01*
X87986594Y-60065729D01*
X87986612Y-60065745D01*
X88215682Y-60237224D01*
X88215690Y-60237229D01*
X88466833Y-60374364D01*
X88466832Y-60374364D01*
X88466836Y-60374365D01*
X88466839Y-60374367D01*
X88734954Y-60474369D01*
X88734960Y-60474370D01*
X88734962Y-60474371D01*
X89014566Y-60535195D01*
X89014568Y-60535195D01*
X89014572Y-60535196D01*
X89228552Y-60550500D01*
X92371448Y-60550500D01*
X92585428Y-60535196D01*
X92631720Y-60525126D01*
X92865037Y-60474371D01*
X92865037Y-60474370D01*
X92865046Y-60474369D01*
X93133161Y-60374367D01*
X93384315Y-60237226D01*
X93613395Y-60065739D01*
X93815739Y-59863395D01*
X93987226Y-59634315D01*
X94124367Y-59383161D01*
X94224369Y-59115046D01*
X94285196Y-58835428D01*
X94300500Y-58621448D01*
X94300500Y-55478552D01*
X94285196Y-55264572D01*
X94283610Y-55257283D01*
X94224371Y-54984962D01*
X94224370Y-54984960D01*
X94224369Y-54984954D01*
X94124367Y-54716839D01*
X93987226Y-54465685D01*
X93987224Y-54465682D01*
X93815745Y-54236612D01*
X93815729Y-54236594D01*
X93613405Y-54034270D01*
X93613387Y-54034254D01*
X93384317Y-53862775D01*
X93384309Y-53862770D01*
X93133166Y-53725635D01*
X93133167Y-53725635D01*
X93025915Y-53685632D01*
X92865046Y-53625631D01*
X92865043Y-53625630D01*
X92865037Y-53625628D01*
X92585433Y-53564804D01*
X92371450Y-53549500D01*
X92371448Y-53549500D01*
X89228552Y-53549500D01*
X89228549Y-53549500D01*
X89014566Y-53564804D01*
X88734962Y-53625628D01*
X88466833Y-53725635D01*
X88215690Y-53862770D01*
X88215682Y-53862775D01*
X87986612Y-54034254D01*
X87986594Y-54034270D01*
X87784270Y-54236594D01*
X87784254Y-54236612D01*
X87612775Y-54465682D01*
X87612770Y-54465690D01*
X87475635Y-54716833D01*
X87375628Y-54984962D01*
X87314804Y-55264566D01*
X87299500Y-55478549D01*
X86000000Y-55478549D01*
X86000000Y-52374000D01*
X86019685Y-52306961D01*
X86072489Y-52261206D01*
X86124000Y-52250000D01*
X102148638Y-52250000D01*
X102215677Y-52269685D01*
G37*
%TD.AperFunction*%
%TD*%
%TA.AperFunction,Conductor*%
%TO.N,+3V3*%
G36*
X103752330Y-83337930D02*
G01*
X103756922Y-83343960D01*
X104178962Y-84612966D01*
X104178321Y-84621898D01*
X104176133Y-84624931D01*
X104044931Y-84756133D01*
X104036658Y-84759560D01*
X104032966Y-84758962D01*
X102763960Y-84336922D01*
X102757191Y-84331060D01*
X102756175Y-84323549D01*
X102917772Y-83506978D01*
X102922739Y-83499527D01*
X102926977Y-83497772D01*
X103743549Y-83336175D01*
X103752330Y-83337930D01*
G37*
%TD.AperFunction*%
%TD*%
%TA.AperFunction,Conductor*%
%TO.N,I2C_SCL*%
G36*
X131506509Y-83503358D02*
G01*
X132198321Y-83966592D01*
X132203288Y-83974042D01*
X132202358Y-83981378D01*
X131628186Y-85177032D01*
X131621515Y-85183006D01*
X131617639Y-85183667D01*
X131382361Y-85183667D01*
X131374088Y-85180240D01*
X131371814Y-85177032D01*
X131213990Y-84848380D01*
X130797640Y-83981376D01*
X130797149Y-83972437D01*
X130801675Y-83966593D01*
X131493490Y-83503358D01*
X131502271Y-83501604D01*
X131506509Y-83503358D01*
G37*
%TD.AperFunction*%
%TD*%
%TA.AperFunction,Conductor*%
%TO.N,I2C_SDA*%
G36*
X158741898Y-135241678D02*
G01*
X158744931Y-135243866D01*
X158876133Y-135375068D01*
X158879560Y-135383341D01*
X158878962Y-135387033D01*
X158456922Y-136656039D01*
X158451060Y-136662808D01*
X158443549Y-136663824D01*
X157626978Y-136502227D01*
X157619527Y-136497260D01*
X157617772Y-136493021D01*
X157456175Y-135676450D01*
X157457930Y-135667669D01*
X157463957Y-135663078D01*
X158732966Y-135241037D01*
X158741898Y-135241678D01*
G37*
%TD.AperFunction*%
%TD*%
M02*
