M48
; DRILL file {KiCad 9.0.5} date 2026-06-22T13:43:07-0700
; FORMAT={-:-/ absolute / metric / decimal}
; #@! TF.CreationDate,2026-06-22T13:43:07-07:00
; #@! TF.GenerationSoftware,Kicad,Pcbnew,9.0.5
; #@! TF.FileFunction,Plated,1,4,PTH
FMAT,2
METRIC
; #@! TA.AperFunction,Plated,PTH,ViaDrill
T1C0.250
; #@! TA.AperFunction,Plated,PTH,ViaDrill
T2C0.300
; #@! TA.AperFunction,Plated,PTH,ViaDrill
T3C0.400
; #@! TA.AperFunction,Plated,PTH,ComponentDrill
T4C0.950
; #@! TA.AperFunction,Plated,PTH,ComponentDrill
T5C1.000
; #@! TA.AperFunction,Plated,PTH,ComponentDrill
T6C1.100
; #@! TA.AperFunction,Plated,PTH,ComponentDrill
T7C1.200
; #@! TA.AperFunction,Plated,PTH,ComponentDrill
T8C2.700
; #@! TA.AperFunction,Plated,PTH,ComponentDrill
T9C4.500
%
G90
G05
T1
X87.4Y-129.2
X87.4Y-138.1
X88.7Y-136.8
X88.7Y-138.7
X89.36Y-129.2
X89.36Y-137.5
X90.1Y-129.2
X90.1Y-139.3
X93.0Y-136.6
X93.0Y-139.9
X97.15Y-133.95
X97.15Y-139.3
X99.5Y-137.5
X102.9Y-135.35
X102.9Y-137.5
X123.0Y-133.82
X123.0Y-137.5
X123.6Y-127.8
X123.6Y-137.5
X124.3Y-135.25
X124.3Y-138.7
X126.3Y-133.82
X126.3Y-138.7
X127.1Y-127.8
X127.1Y-139.9
X128.2Y-126.15
X128.2Y-138.7
X129.0Y-135.3
X129.0Y-138.1
X130.4Y-133.82
X130.4Y-138.1
X131.7Y-135.5
X131.7Y-138.1
X132.4Y-126.35
X132.4Y-139.9
X133.6Y-137.15
X133.6Y-139.3
X135.6Y-133.82
X135.6Y-139.3
X144.4Y-134.55
X144.4Y-139.3
T2
X92.66Y-130.53
X104.0Y-135.9
X111.25Y-67.0
X122.85Y-130.4
X125.5Y-124.0
X125.5Y-137.3
X129.3Y-96.8
X129.3Y-99.7
X130.23Y-74.2
X130.9Y-128.7
X134.0Y-124.0
X134.0Y-131.18
X136.95Y-128.55
X137.24Y-135.35
X138.0Y-68.4
X138.0Y-86.8
X138.0Y-101.7
X138.3Y-127.7
X139.4Y-137.6
X141.0Y-133.9
X141.818Y-133.78
X142.5Y-123.75
X142.56Y-135.0
X146.5Y-136.3
X153.25Y-134.25
X159.25Y-77.6
X159.25Y-81.5
X165.9Y-120.5
T3
X177.6Y-117.3
X177.6Y-120.55
T4
X191.0Y-96.0
X191.0Y-98.5
X191.0Y-101.0
T5
X102.92Y-83.5
X105.46Y-83.5
X108.0Y-83.5
X110.0Y-95.73
X110.0Y-98.27
X110.54Y-83.5
X114.0Y-133.0
X119.0Y-133.0
X124.0Y-55.0
X124.0Y-57.54
X126.42Y-83.5
X128.0Y-95.73
X128.0Y-98.27
X128.96Y-83.5
X130.0Y-56.0
X130.0Y-58.54
X130.0Y-61.08
X131.5Y-83.5
X134.04Y-83.5
X136.5Y-112.0
X141.5Y-112.0
X146.0Y-95.73
X146.0Y-98.27
X150.0Y-136.5
X150.92Y-83.5
X151.0Y-126.35
X151.0Y-128.89
X152.54Y-136.5
X153.46Y-83.5
X153.54Y-126.35
X153.54Y-128.89
X155.08Y-136.5
X156.0Y-83.5
X156.08Y-126.35
X156.08Y-128.89
X157.62Y-136.5
X158.54Y-83.5
X158.62Y-126.35
X158.62Y-128.89
X161.16Y-126.35
X161.16Y-128.89
X163.7Y-126.35
X163.7Y-128.89
X164.0Y-95.73
X164.0Y-98.27
X174.73Y-91.0
X177.27Y-91.0
X180.75Y-115.75
X180.75Y-120.75
T6
X98.5Y-56.5
X101.04Y-56.5
X103.58Y-56.5
T7
X91.45Y-109.35
X91.45Y-114.35
X105.85Y-109.774
X105.85Y-114.774
X113.0Y-57.0
X118.0Y-57.0
X121.8Y-109.75
X121.8Y-114.75
X140.0Y-57.0
X145.0Y-57.0
X165.0Y-56.3
X165.0Y-61.3
X180.0Y-80.0
X180.0Y-85.0
T8
X89.45Y-123.0
X90.0Y-78.5
X90.0Y-83.5
X90.0Y-94.55
X90.0Y-99.55
X94.45Y-123.0
X99.5Y-92.0
X99.5Y-102.0
X104.5Y-92.0
X104.5Y-102.0
X117.5Y-92.0
X117.5Y-102.0
X122.5Y-92.0
X122.5Y-102.0
X135.5Y-92.0
X135.5Y-102.0
X140.5Y-92.0
X140.5Y-102.0
X153.5Y-92.0
X153.5Y-102.0
X158.5Y-92.0
X158.5Y-102.0
X171.0Y-96.5
X171.0Y-101.5
X176.75Y-107.75
X181.0Y-96.5
X181.0Y-101.5
X181.75Y-107.75
X191.0Y-64.0
X191.0Y-69.0
X191.0Y-80.0
X191.0Y-85.0
X191.0Y-112.0
X191.0Y-117.0
X191.0Y-128.0
X191.0Y-133.0
T9
X90.8Y-57.05
X90.8Y-64.25
M30
