%TF.GenerationSoftware,KiCad,Pcbnew,9.0.5*%
%TF.CreationDate,2026-06-22T13:43:07-07:00*%
%TF.ProjectId,nova_pcb_v6_power_v2,6e6f7661-5f70-4636-925f-76365f706f77,rev?*%
%TF.SameCoordinates,Original*%
%TF.FileFunction,Legend,Bot*%
%TF.FilePolarity,Positive*%
%FSLAX46Y46*%
G04 Gerber Fmt 4.6, Leading zero omitted, Abs format (unit mm)*
G04 Created by KiCad (PCBNEW 9.0.5) date 2026-06-22 13:43:07*
%MOMM*%
%LPD*%
G01*
G04 APERTURE LIST*
%ADD10C,0.150000*%
%ADD11C,0.120000*%
G04 APERTURE END LIST*
D10*
X112759580Y-107057292D02*
X112807200Y-107009673D01*
X112807200Y-107009673D02*
X112854819Y-106866816D01*
X112854819Y-106866816D02*
X112854819Y-106771578D01*
X112854819Y-106771578D02*
X112807200Y-106628721D01*
X112807200Y-106628721D02*
X112711961Y-106533483D01*
X112711961Y-106533483D02*
X112616723Y-106485864D01*
X112616723Y-106485864D02*
X112426247Y-106438245D01*
X112426247Y-106438245D02*
X112283390Y-106438245D01*
X112283390Y-106438245D02*
X112092914Y-106485864D01*
X112092914Y-106485864D02*
X111997676Y-106533483D01*
X111997676Y-106533483D02*
X111902438Y-106628721D01*
X111902438Y-106628721D02*
X111854819Y-106771578D01*
X111854819Y-106771578D02*
X111854819Y-106866816D01*
X111854819Y-106866816D02*
X111902438Y-107009673D01*
X111902438Y-107009673D02*
X111950057Y-107057292D01*
X111950057Y-107438245D02*
X111902438Y-107485864D01*
X111902438Y-107485864D02*
X111854819Y-107581102D01*
X111854819Y-107581102D02*
X111854819Y-107819197D01*
X111854819Y-107819197D02*
X111902438Y-107914435D01*
X111902438Y-107914435D02*
X111950057Y-107962054D01*
X111950057Y-107962054D02*
X112045295Y-108009673D01*
X112045295Y-108009673D02*
X112140533Y-108009673D01*
X112140533Y-108009673D02*
X112283390Y-107962054D01*
X112283390Y-107962054D02*
X112854819Y-107390626D01*
X112854819Y-107390626D02*
X112854819Y-108009673D01*
X144095238Y-133650057D02*
X144190476Y-133602438D01*
X144190476Y-133602438D02*
X144285714Y-133507200D01*
X144285714Y-133507200D02*
X144428571Y-133364342D01*
X144428571Y-133364342D02*
X144523809Y-133316723D01*
X144523809Y-133316723D02*
X144619047Y-133316723D01*
X144571428Y-133554819D02*
X144666666Y-133507200D01*
X144666666Y-133507200D02*
X144761904Y-133411961D01*
X144761904Y-133411961D02*
X144809523Y-133221485D01*
X144809523Y-133221485D02*
X144809523Y-132888152D01*
X144809523Y-132888152D02*
X144761904Y-132697676D01*
X144761904Y-132697676D02*
X144666666Y-132602438D01*
X144666666Y-132602438D02*
X144571428Y-132554819D01*
X144571428Y-132554819D02*
X144380952Y-132554819D01*
X144380952Y-132554819D02*
X144285714Y-132602438D01*
X144285714Y-132602438D02*
X144190476Y-132697676D01*
X144190476Y-132697676D02*
X144142857Y-132888152D01*
X144142857Y-132888152D02*
X144142857Y-133221485D01*
X144142857Y-133221485D02*
X144190476Y-133411961D01*
X144190476Y-133411961D02*
X144285714Y-133507200D01*
X144285714Y-133507200D02*
X144380952Y-133554819D01*
X144380952Y-133554819D02*
X144571428Y-133554819D01*
X143285714Y-132888152D02*
X143285714Y-133554819D01*
X143523809Y-132507200D02*
X143761904Y-133221485D01*
X143761904Y-133221485D02*
X143142857Y-133221485D01*
X137454819Y-122357142D02*
X136978628Y-122023809D01*
X137454819Y-121785714D02*
X136454819Y-121785714D01*
X136454819Y-121785714D02*
X136454819Y-122166666D01*
X136454819Y-122166666D02*
X136502438Y-122261904D01*
X136502438Y-122261904D02*
X136550057Y-122309523D01*
X136550057Y-122309523D02*
X136645295Y-122357142D01*
X136645295Y-122357142D02*
X136788152Y-122357142D01*
X136788152Y-122357142D02*
X136883390Y-122309523D01*
X136883390Y-122309523D02*
X136931009Y-122261904D01*
X136931009Y-122261904D02*
X136978628Y-122166666D01*
X136978628Y-122166666D02*
X136978628Y-121785714D01*
X137454819Y-123309523D02*
X137454819Y-122738095D01*
X137454819Y-123023809D02*
X136454819Y-123023809D01*
X136454819Y-123023809D02*
X136597676Y-122928571D01*
X136597676Y-122928571D02*
X136692914Y-122833333D01*
X136692914Y-122833333D02*
X136740533Y-122738095D01*
X136454819Y-123642857D02*
X136454819Y-124261904D01*
X136454819Y-124261904D02*
X136835771Y-123928571D01*
X136835771Y-123928571D02*
X136835771Y-124071428D01*
X136835771Y-124071428D02*
X136883390Y-124166666D01*
X136883390Y-124166666D02*
X136931009Y-124214285D01*
X136931009Y-124214285D02*
X137026247Y-124261904D01*
X137026247Y-124261904D02*
X137264342Y-124261904D01*
X137264342Y-124261904D02*
X137359580Y-124214285D01*
X137359580Y-124214285D02*
X137407200Y-124166666D01*
X137407200Y-124166666D02*
X137454819Y-124071428D01*
X137454819Y-124071428D02*
X137454819Y-123785714D01*
X137454819Y-123785714D02*
X137407200Y-123690476D01*
X137407200Y-123690476D02*
X137359580Y-123642857D01*
X103034819Y-136008333D02*
X102558628Y-135675000D01*
X103034819Y-135436905D02*
X102034819Y-135436905D01*
X102034819Y-135436905D02*
X102034819Y-135817857D01*
X102034819Y-135817857D02*
X102082438Y-135913095D01*
X102082438Y-135913095D02*
X102130057Y-135960714D01*
X102130057Y-135960714D02*
X102225295Y-136008333D01*
X102225295Y-136008333D02*
X102368152Y-136008333D01*
X102368152Y-136008333D02*
X102463390Y-135960714D01*
X102463390Y-135960714D02*
X102511009Y-135913095D01*
X102511009Y-135913095D02*
X102558628Y-135817857D01*
X102558628Y-135817857D02*
X102558628Y-135436905D01*
X102130057Y-136389286D02*
X102082438Y-136436905D01*
X102082438Y-136436905D02*
X102034819Y-136532143D01*
X102034819Y-136532143D02*
X102034819Y-136770238D01*
X102034819Y-136770238D02*
X102082438Y-136865476D01*
X102082438Y-136865476D02*
X102130057Y-136913095D01*
X102130057Y-136913095D02*
X102225295Y-136960714D01*
X102225295Y-136960714D02*
X102320533Y-136960714D01*
X102320533Y-136960714D02*
X102463390Y-136913095D01*
X102463390Y-136913095D02*
X103034819Y-136341667D01*
X103034819Y-136341667D02*
X103034819Y-136960714D01*
X92854819Y-132238095D02*
X93664342Y-132238095D01*
X93664342Y-132238095D02*
X93759580Y-132285714D01*
X93759580Y-132285714D02*
X93807200Y-132333333D01*
X93807200Y-132333333D02*
X93854819Y-132428571D01*
X93854819Y-132428571D02*
X93854819Y-132619047D01*
X93854819Y-132619047D02*
X93807200Y-132714285D01*
X93807200Y-132714285D02*
X93759580Y-132761904D01*
X93759580Y-132761904D02*
X93664342Y-132809523D01*
X93664342Y-132809523D02*
X92854819Y-132809523D01*
X93283390Y-133428571D02*
X93235771Y-133333333D01*
X93235771Y-133333333D02*
X93188152Y-133285714D01*
X93188152Y-133285714D02*
X93092914Y-133238095D01*
X93092914Y-133238095D02*
X93045295Y-133238095D01*
X93045295Y-133238095D02*
X92950057Y-133285714D01*
X92950057Y-133285714D02*
X92902438Y-133333333D01*
X92902438Y-133333333D02*
X92854819Y-133428571D01*
X92854819Y-133428571D02*
X92854819Y-133619047D01*
X92854819Y-133619047D02*
X92902438Y-133714285D01*
X92902438Y-133714285D02*
X92950057Y-133761904D01*
X92950057Y-133761904D02*
X93045295Y-133809523D01*
X93045295Y-133809523D02*
X93092914Y-133809523D01*
X93092914Y-133809523D02*
X93188152Y-133761904D01*
X93188152Y-133761904D02*
X93235771Y-133714285D01*
X93235771Y-133714285D02*
X93283390Y-133619047D01*
X93283390Y-133619047D02*
X93283390Y-133428571D01*
X93283390Y-133428571D02*
X93331009Y-133333333D01*
X93331009Y-133333333D02*
X93378628Y-133285714D01*
X93378628Y-133285714D02*
X93473866Y-133238095D01*
X93473866Y-133238095D02*
X93664342Y-133238095D01*
X93664342Y-133238095D02*
X93759580Y-133285714D01*
X93759580Y-133285714D02*
X93807200Y-133333333D01*
X93807200Y-133333333D02*
X93854819Y-133428571D01*
X93854819Y-133428571D02*
X93854819Y-133619047D01*
X93854819Y-133619047D02*
X93807200Y-133714285D01*
X93807200Y-133714285D02*
X93759580Y-133761904D01*
X93759580Y-133761904D02*
X93664342Y-133809523D01*
X93664342Y-133809523D02*
X93473866Y-133809523D01*
X93473866Y-133809523D02*
X93378628Y-133761904D01*
X93378628Y-133761904D02*
X93331009Y-133714285D01*
X93331009Y-133714285D02*
X93283390Y-133619047D01*
X187359580Y-114815656D02*
X187407200Y-114768037D01*
X187407200Y-114768037D02*
X187454819Y-114625180D01*
X187454819Y-114625180D02*
X187454819Y-114529942D01*
X187454819Y-114529942D02*
X187407200Y-114387085D01*
X187407200Y-114387085D02*
X187311961Y-114291847D01*
X187311961Y-114291847D02*
X187216723Y-114244228D01*
X187216723Y-114244228D02*
X187026247Y-114196609D01*
X187026247Y-114196609D02*
X186883390Y-114196609D01*
X186883390Y-114196609D02*
X186692914Y-114244228D01*
X186692914Y-114244228D02*
X186597676Y-114291847D01*
X186597676Y-114291847D02*
X186502438Y-114387085D01*
X186502438Y-114387085D02*
X186454819Y-114529942D01*
X186454819Y-114529942D02*
X186454819Y-114625180D01*
X186454819Y-114625180D02*
X186502438Y-114768037D01*
X186502438Y-114768037D02*
X186550057Y-114815656D01*
X186454819Y-115672799D02*
X186454819Y-115482323D01*
X186454819Y-115482323D02*
X186502438Y-115387085D01*
X186502438Y-115387085D02*
X186550057Y-115339466D01*
X186550057Y-115339466D02*
X186692914Y-115244228D01*
X186692914Y-115244228D02*
X186883390Y-115196609D01*
X186883390Y-115196609D02*
X187264342Y-115196609D01*
X187264342Y-115196609D02*
X187359580Y-115244228D01*
X187359580Y-115244228D02*
X187407200Y-115291847D01*
X187407200Y-115291847D02*
X187454819Y-115387085D01*
X187454819Y-115387085D02*
X187454819Y-115577561D01*
X187454819Y-115577561D02*
X187407200Y-115672799D01*
X187407200Y-115672799D02*
X187359580Y-115720418D01*
X187359580Y-115720418D02*
X187264342Y-115768037D01*
X187264342Y-115768037D02*
X187026247Y-115768037D01*
X187026247Y-115768037D02*
X186931009Y-115720418D01*
X186931009Y-115720418D02*
X186883390Y-115672799D01*
X186883390Y-115672799D02*
X186835771Y-115577561D01*
X186835771Y-115577561D02*
X186835771Y-115387085D01*
X186835771Y-115387085D02*
X186883390Y-115291847D01*
X186883390Y-115291847D02*
X186931009Y-115244228D01*
X186931009Y-115244228D02*
X187026247Y-115196609D01*
X134004819Y-126633333D02*
X133528628Y-126300000D01*
X134004819Y-126061905D02*
X133004819Y-126061905D01*
X133004819Y-126061905D02*
X133004819Y-126442857D01*
X133004819Y-126442857D02*
X133052438Y-126538095D01*
X133052438Y-126538095D02*
X133100057Y-126585714D01*
X133100057Y-126585714D02*
X133195295Y-126633333D01*
X133195295Y-126633333D02*
X133338152Y-126633333D01*
X133338152Y-126633333D02*
X133433390Y-126585714D01*
X133433390Y-126585714D02*
X133481009Y-126538095D01*
X133481009Y-126538095D02*
X133528628Y-126442857D01*
X133528628Y-126442857D02*
X133528628Y-126061905D01*
X133433390Y-127204762D02*
X133385771Y-127109524D01*
X133385771Y-127109524D02*
X133338152Y-127061905D01*
X133338152Y-127061905D02*
X133242914Y-127014286D01*
X133242914Y-127014286D02*
X133195295Y-127014286D01*
X133195295Y-127014286D02*
X133100057Y-127061905D01*
X133100057Y-127061905D02*
X133052438Y-127109524D01*
X133052438Y-127109524D02*
X133004819Y-127204762D01*
X133004819Y-127204762D02*
X133004819Y-127395238D01*
X133004819Y-127395238D02*
X133052438Y-127490476D01*
X133052438Y-127490476D02*
X133100057Y-127538095D01*
X133100057Y-127538095D02*
X133195295Y-127585714D01*
X133195295Y-127585714D02*
X133242914Y-127585714D01*
X133242914Y-127585714D02*
X133338152Y-127538095D01*
X133338152Y-127538095D02*
X133385771Y-127490476D01*
X133385771Y-127490476D02*
X133433390Y-127395238D01*
X133433390Y-127395238D02*
X133433390Y-127204762D01*
X133433390Y-127204762D02*
X133481009Y-127109524D01*
X133481009Y-127109524D02*
X133528628Y-127061905D01*
X133528628Y-127061905D02*
X133623866Y-127014286D01*
X133623866Y-127014286D02*
X133814342Y-127014286D01*
X133814342Y-127014286D02*
X133909580Y-127061905D01*
X133909580Y-127061905D02*
X133957200Y-127109524D01*
X133957200Y-127109524D02*
X134004819Y-127204762D01*
X134004819Y-127204762D02*
X134004819Y-127395238D01*
X134004819Y-127395238D02*
X133957200Y-127490476D01*
X133957200Y-127490476D02*
X133909580Y-127538095D01*
X133909580Y-127538095D02*
X133814342Y-127585714D01*
X133814342Y-127585714D02*
X133623866Y-127585714D01*
X133623866Y-127585714D02*
X133528628Y-127538095D01*
X133528628Y-127538095D02*
X133481009Y-127490476D01*
X133481009Y-127490476D02*
X133433390Y-127395238D01*
X98409580Y-107259374D02*
X98457200Y-107211755D01*
X98457200Y-107211755D02*
X98504819Y-107068898D01*
X98504819Y-107068898D02*
X98504819Y-106973660D01*
X98504819Y-106973660D02*
X98457200Y-106830803D01*
X98457200Y-106830803D02*
X98361961Y-106735565D01*
X98361961Y-106735565D02*
X98266723Y-106687946D01*
X98266723Y-106687946D02*
X98076247Y-106640327D01*
X98076247Y-106640327D02*
X97933390Y-106640327D01*
X97933390Y-106640327D02*
X97742914Y-106687946D01*
X97742914Y-106687946D02*
X97647676Y-106735565D01*
X97647676Y-106735565D02*
X97552438Y-106830803D01*
X97552438Y-106830803D02*
X97504819Y-106973660D01*
X97504819Y-106973660D02*
X97504819Y-107068898D01*
X97504819Y-107068898D02*
X97552438Y-107211755D01*
X97552438Y-107211755D02*
X97600057Y-107259374D01*
X98504819Y-108211755D02*
X98504819Y-107640327D01*
X98504819Y-107926041D02*
X97504819Y-107926041D01*
X97504819Y-107926041D02*
X97647676Y-107830803D01*
X97647676Y-107830803D02*
X97742914Y-107735565D01*
X97742914Y-107735565D02*
X97790533Y-107640327D01*
X131704819Y-130083333D02*
X131228628Y-129750000D01*
X131704819Y-129511905D02*
X130704819Y-129511905D01*
X130704819Y-129511905D02*
X130704819Y-129892857D01*
X130704819Y-129892857D02*
X130752438Y-129988095D01*
X130752438Y-129988095D02*
X130800057Y-130035714D01*
X130800057Y-130035714D02*
X130895295Y-130083333D01*
X130895295Y-130083333D02*
X131038152Y-130083333D01*
X131038152Y-130083333D02*
X131133390Y-130035714D01*
X131133390Y-130035714D02*
X131181009Y-129988095D01*
X131181009Y-129988095D02*
X131228628Y-129892857D01*
X131228628Y-129892857D02*
X131228628Y-129511905D01*
X130704819Y-130416667D02*
X130704819Y-131083333D01*
X130704819Y-131083333D02*
X131704819Y-130654762D01*
X160166666Y-104554819D02*
X160642856Y-104554819D01*
X160642856Y-104554819D02*
X160642856Y-103554819D01*
X159309523Y-104554819D02*
X159880951Y-104554819D01*
X159595237Y-104554819D02*
X159595237Y-103554819D01*
X159595237Y-103554819D02*
X159690475Y-103697676D01*
X159690475Y-103697676D02*
X159785713Y-103792914D01*
X159785713Y-103792914D02*
X159880951Y-103840533D01*
X127954819Y-130083333D02*
X127478628Y-129750000D01*
X127954819Y-129511905D02*
X126954819Y-129511905D01*
X126954819Y-129511905D02*
X126954819Y-129892857D01*
X126954819Y-129892857D02*
X127002438Y-129988095D01*
X127002438Y-129988095D02*
X127050057Y-130035714D01*
X127050057Y-130035714D02*
X127145295Y-130083333D01*
X127145295Y-130083333D02*
X127288152Y-130083333D01*
X127288152Y-130083333D02*
X127383390Y-130035714D01*
X127383390Y-130035714D02*
X127431009Y-129988095D01*
X127431009Y-129988095D02*
X127478628Y-129892857D01*
X127478628Y-129892857D02*
X127478628Y-129511905D01*
X126954819Y-130988095D02*
X126954819Y-130511905D01*
X126954819Y-130511905D02*
X127431009Y-130464286D01*
X127431009Y-130464286D02*
X127383390Y-130511905D01*
X127383390Y-130511905D02*
X127335771Y-130607143D01*
X127335771Y-130607143D02*
X127335771Y-130845238D01*
X127335771Y-130845238D02*
X127383390Y-130940476D01*
X127383390Y-130940476D02*
X127431009Y-130988095D01*
X127431009Y-130988095D02*
X127526247Y-131035714D01*
X127526247Y-131035714D02*
X127764342Y-131035714D01*
X127764342Y-131035714D02*
X127859580Y-130988095D01*
X127859580Y-130988095D02*
X127907200Y-130940476D01*
X127907200Y-130940476D02*
X127954819Y-130845238D01*
X127954819Y-130845238D02*
X127954819Y-130607143D01*
X127954819Y-130607143D02*
X127907200Y-130511905D01*
X127907200Y-130511905D02*
X127859580Y-130464286D01*
X125504819Y-133158333D02*
X125028628Y-132825000D01*
X125504819Y-132586905D02*
X124504819Y-132586905D01*
X124504819Y-132586905D02*
X124504819Y-132967857D01*
X124504819Y-132967857D02*
X124552438Y-133063095D01*
X124552438Y-133063095D02*
X124600057Y-133110714D01*
X124600057Y-133110714D02*
X124695295Y-133158333D01*
X124695295Y-133158333D02*
X124838152Y-133158333D01*
X124838152Y-133158333D02*
X124933390Y-133110714D01*
X124933390Y-133110714D02*
X124981009Y-133063095D01*
X124981009Y-133063095D02*
X125028628Y-132967857D01*
X125028628Y-132967857D02*
X125028628Y-132586905D01*
X124838152Y-134015476D02*
X125504819Y-134015476D01*
X124457200Y-133777381D02*
X125171485Y-133539286D01*
X125171485Y-133539286D02*
X125171485Y-134158333D01*
X128409580Y-106933333D02*
X128457200Y-106885714D01*
X128457200Y-106885714D02*
X128504819Y-106742857D01*
X128504819Y-106742857D02*
X128504819Y-106647619D01*
X128504819Y-106647619D02*
X128457200Y-106504762D01*
X128457200Y-106504762D02*
X128361961Y-106409524D01*
X128361961Y-106409524D02*
X128266723Y-106361905D01*
X128266723Y-106361905D02*
X128076247Y-106314286D01*
X128076247Y-106314286D02*
X127933390Y-106314286D01*
X127933390Y-106314286D02*
X127742914Y-106361905D01*
X127742914Y-106361905D02*
X127647676Y-106409524D01*
X127647676Y-106409524D02*
X127552438Y-106504762D01*
X127552438Y-106504762D02*
X127504819Y-106647619D01*
X127504819Y-106647619D02*
X127504819Y-106742857D01*
X127504819Y-106742857D02*
X127552438Y-106885714D01*
X127552438Y-106885714D02*
X127600057Y-106933333D01*
X127504819Y-107266667D02*
X127504819Y-107885714D01*
X127504819Y-107885714D02*
X127885771Y-107552381D01*
X127885771Y-107552381D02*
X127885771Y-107695238D01*
X127885771Y-107695238D02*
X127933390Y-107790476D01*
X127933390Y-107790476D02*
X127981009Y-107838095D01*
X127981009Y-107838095D02*
X128076247Y-107885714D01*
X128076247Y-107885714D02*
X128314342Y-107885714D01*
X128314342Y-107885714D02*
X128409580Y-107838095D01*
X128409580Y-107838095D02*
X128457200Y-107790476D01*
X128457200Y-107790476D02*
X128504819Y-107695238D01*
X128504819Y-107695238D02*
X128504819Y-107409524D01*
X128504819Y-107409524D02*
X128457200Y-107314286D01*
X128457200Y-107314286D02*
X128409580Y-107266667D01*
X123504819Y-130083333D02*
X123028628Y-129750000D01*
X123504819Y-129511905D02*
X122504819Y-129511905D01*
X122504819Y-129511905D02*
X122504819Y-129892857D01*
X122504819Y-129892857D02*
X122552438Y-129988095D01*
X122552438Y-129988095D02*
X122600057Y-130035714D01*
X122600057Y-130035714D02*
X122695295Y-130083333D01*
X122695295Y-130083333D02*
X122838152Y-130083333D01*
X122838152Y-130083333D02*
X122933390Y-130035714D01*
X122933390Y-130035714D02*
X122981009Y-129988095D01*
X122981009Y-129988095D02*
X123028628Y-129892857D01*
X123028628Y-129892857D02*
X123028628Y-129511905D01*
X122504819Y-130416667D02*
X122504819Y-131035714D01*
X122504819Y-131035714D02*
X122885771Y-130702381D01*
X122885771Y-130702381D02*
X122885771Y-130845238D01*
X122885771Y-130845238D02*
X122933390Y-130940476D01*
X122933390Y-130940476D02*
X122981009Y-130988095D01*
X122981009Y-130988095D02*
X123076247Y-131035714D01*
X123076247Y-131035714D02*
X123314342Y-131035714D01*
X123314342Y-131035714D02*
X123409580Y-130988095D01*
X123409580Y-130988095D02*
X123457200Y-130940476D01*
X123457200Y-130940476D02*
X123504819Y-130845238D01*
X123504819Y-130845238D02*
X123504819Y-130559524D01*
X123504819Y-130559524D02*
X123457200Y-130464286D01*
X123457200Y-130464286D02*
X123409580Y-130416667D01*
X139454819Y-135357142D02*
X138978628Y-135023809D01*
X139454819Y-134785714D02*
X138454819Y-134785714D01*
X138454819Y-134785714D02*
X138454819Y-135166666D01*
X138454819Y-135166666D02*
X138502438Y-135261904D01*
X138502438Y-135261904D02*
X138550057Y-135309523D01*
X138550057Y-135309523D02*
X138645295Y-135357142D01*
X138645295Y-135357142D02*
X138788152Y-135357142D01*
X138788152Y-135357142D02*
X138883390Y-135309523D01*
X138883390Y-135309523D02*
X138931009Y-135261904D01*
X138931009Y-135261904D02*
X138978628Y-135166666D01*
X138978628Y-135166666D02*
X138978628Y-134785714D01*
X139454819Y-136309523D02*
X139454819Y-135738095D01*
X139454819Y-136023809D02*
X138454819Y-136023809D01*
X138454819Y-136023809D02*
X138597676Y-135928571D01*
X138597676Y-135928571D02*
X138692914Y-135833333D01*
X138692914Y-135833333D02*
X138740533Y-135738095D01*
X139454819Y-137261904D02*
X139454819Y-136690476D01*
X139454819Y-136976190D02*
X138454819Y-136976190D01*
X138454819Y-136976190D02*
X138597676Y-136880952D01*
X138597676Y-136880952D02*
X138692914Y-136785714D01*
X138692914Y-136785714D02*
X138740533Y-136690476D01*
X172209580Y-53933333D02*
X172257200Y-53885714D01*
X172257200Y-53885714D02*
X172304819Y-53742857D01*
X172304819Y-53742857D02*
X172304819Y-53647619D01*
X172304819Y-53647619D02*
X172257200Y-53504762D01*
X172257200Y-53504762D02*
X172161961Y-53409524D01*
X172161961Y-53409524D02*
X172066723Y-53361905D01*
X172066723Y-53361905D02*
X171876247Y-53314286D01*
X171876247Y-53314286D02*
X171733390Y-53314286D01*
X171733390Y-53314286D02*
X171542914Y-53361905D01*
X171542914Y-53361905D02*
X171447676Y-53409524D01*
X171447676Y-53409524D02*
X171352438Y-53504762D01*
X171352438Y-53504762D02*
X171304819Y-53647619D01*
X171304819Y-53647619D02*
X171304819Y-53742857D01*
X171304819Y-53742857D02*
X171352438Y-53885714D01*
X171352438Y-53885714D02*
X171400057Y-53933333D01*
X171638152Y-54790476D02*
X172304819Y-54790476D01*
X171257200Y-54552381D02*
X171971485Y-54314286D01*
X171971485Y-54314286D02*
X171971485Y-54933333D01*
X129454819Y-133833333D02*
X128978628Y-133500000D01*
X129454819Y-133261905D02*
X128454819Y-133261905D01*
X128454819Y-133261905D02*
X128454819Y-133642857D01*
X128454819Y-133642857D02*
X128502438Y-133738095D01*
X128502438Y-133738095D02*
X128550057Y-133785714D01*
X128550057Y-133785714D02*
X128645295Y-133833333D01*
X128645295Y-133833333D02*
X128788152Y-133833333D01*
X128788152Y-133833333D02*
X128883390Y-133785714D01*
X128883390Y-133785714D02*
X128931009Y-133738095D01*
X128931009Y-133738095D02*
X128978628Y-133642857D01*
X128978628Y-133642857D02*
X128978628Y-133261905D01*
X128454819Y-134690476D02*
X128454819Y-134500000D01*
X128454819Y-134500000D02*
X128502438Y-134404762D01*
X128502438Y-134404762D02*
X128550057Y-134357143D01*
X128550057Y-134357143D02*
X128692914Y-134261905D01*
X128692914Y-134261905D02*
X128883390Y-134214286D01*
X128883390Y-134214286D02*
X129264342Y-134214286D01*
X129264342Y-134214286D02*
X129359580Y-134261905D01*
X129359580Y-134261905D02*
X129407200Y-134309524D01*
X129407200Y-134309524D02*
X129454819Y-134404762D01*
X129454819Y-134404762D02*
X129454819Y-134595238D01*
X129454819Y-134595238D02*
X129407200Y-134690476D01*
X129407200Y-134690476D02*
X129359580Y-134738095D01*
X129359580Y-134738095D02*
X129264342Y-134785714D01*
X129264342Y-134785714D02*
X129026247Y-134785714D01*
X129026247Y-134785714D02*
X128931009Y-134738095D01*
X128931009Y-134738095D02*
X128883390Y-134690476D01*
X128883390Y-134690476D02*
X128835771Y-134595238D01*
X128835771Y-134595238D02*
X128835771Y-134404762D01*
X128835771Y-134404762D02*
X128883390Y-134309524D01*
X128883390Y-134309524D02*
X128931009Y-134261905D01*
X128931009Y-134261905D02*
X129026247Y-134214286D01*
X129534819Y-126332142D02*
X129058628Y-125998809D01*
X129534819Y-125760714D02*
X128534819Y-125760714D01*
X128534819Y-125760714D02*
X128534819Y-126141666D01*
X128534819Y-126141666D02*
X128582438Y-126236904D01*
X128582438Y-126236904D02*
X128630057Y-126284523D01*
X128630057Y-126284523D02*
X128725295Y-126332142D01*
X128725295Y-126332142D02*
X128868152Y-126332142D01*
X128868152Y-126332142D02*
X128963390Y-126284523D01*
X128963390Y-126284523D02*
X129011009Y-126236904D01*
X129011009Y-126236904D02*
X129058628Y-126141666D01*
X129058628Y-126141666D02*
X129058628Y-125760714D01*
X129534819Y-127284523D02*
X129534819Y-126713095D01*
X129534819Y-126998809D02*
X128534819Y-126998809D01*
X128534819Y-126998809D02*
X128677676Y-126903571D01*
X128677676Y-126903571D02*
X128772914Y-126808333D01*
X128772914Y-126808333D02*
X128820533Y-126713095D01*
X128534819Y-128189285D02*
X128534819Y-127713095D01*
X128534819Y-127713095D02*
X129011009Y-127665476D01*
X129011009Y-127665476D02*
X128963390Y-127713095D01*
X128963390Y-127713095D02*
X128915771Y-127808333D01*
X128915771Y-127808333D02*
X128915771Y-128046428D01*
X128915771Y-128046428D02*
X128963390Y-128141666D01*
X128963390Y-128141666D02*
X129011009Y-128189285D01*
X129011009Y-128189285D02*
X129106247Y-128236904D01*
X129106247Y-128236904D02*
X129344342Y-128236904D01*
X129344342Y-128236904D02*
X129439580Y-128189285D01*
X129439580Y-128189285D02*
X129487200Y-128141666D01*
X129487200Y-128141666D02*
X129534819Y-128046428D01*
X129534819Y-128046428D02*
X129534819Y-127808333D01*
X129534819Y-127808333D02*
X129487200Y-127713095D01*
X129487200Y-127713095D02*
X129439580Y-127665476D01*
X133454819Y-130107142D02*
X132978628Y-129773809D01*
X133454819Y-129535714D02*
X132454819Y-129535714D01*
X132454819Y-129535714D02*
X132454819Y-129916666D01*
X132454819Y-129916666D02*
X132502438Y-130011904D01*
X132502438Y-130011904D02*
X132550057Y-130059523D01*
X132550057Y-130059523D02*
X132645295Y-130107142D01*
X132645295Y-130107142D02*
X132788152Y-130107142D01*
X132788152Y-130107142D02*
X132883390Y-130059523D01*
X132883390Y-130059523D02*
X132931009Y-130011904D01*
X132931009Y-130011904D02*
X132978628Y-129916666D01*
X132978628Y-129916666D02*
X132978628Y-129535714D01*
X133454819Y-131059523D02*
X133454819Y-130488095D01*
X133454819Y-130773809D02*
X132454819Y-130773809D01*
X132454819Y-130773809D02*
X132597676Y-130678571D01*
X132597676Y-130678571D02*
X132692914Y-130583333D01*
X132692914Y-130583333D02*
X132740533Y-130488095D01*
X132788152Y-131916666D02*
X133454819Y-131916666D01*
X132407200Y-131678571D02*
X133121485Y-131440476D01*
X133121485Y-131440476D02*
X133121485Y-132059523D01*
X126289580Y-126858333D02*
X126337200Y-126810714D01*
X126337200Y-126810714D02*
X126384819Y-126667857D01*
X126384819Y-126667857D02*
X126384819Y-126572619D01*
X126384819Y-126572619D02*
X126337200Y-126429762D01*
X126337200Y-126429762D02*
X126241961Y-126334524D01*
X126241961Y-126334524D02*
X126146723Y-126286905D01*
X126146723Y-126286905D02*
X125956247Y-126239286D01*
X125956247Y-126239286D02*
X125813390Y-126239286D01*
X125813390Y-126239286D02*
X125622914Y-126286905D01*
X125622914Y-126286905D02*
X125527676Y-126334524D01*
X125527676Y-126334524D02*
X125432438Y-126429762D01*
X125432438Y-126429762D02*
X125384819Y-126572619D01*
X125384819Y-126572619D02*
X125384819Y-126667857D01*
X125384819Y-126667857D02*
X125432438Y-126810714D01*
X125432438Y-126810714D02*
X125480057Y-126858333D01*
X125384819Y-127191667D02*
X125384819Y-127858333D01*
X125384819Y-127858333D02*
X126384819Y-127429762D01*
X172859580Y-86557292D02*
X172907200Y-86509673D01*
X172907200Y-86509673D02*
X172954819Y-86366816D01*
X172954819Y-86366816D02*
X172954819Y-86271578D01*
X172954819Y-86271578D02*
X172907200Y-86128721D01*
X172907200Y-86128721D02*
X172811961Y-86033483D01*
X172811961Y-86033483D02*
X172716723Y-85985864D01*
X172716723Y-85985864D02*
X172526247Y-85938245D01*
X172526247Y-85938245D02*
X172383390Y-85938245D01*
X172383390Y-85938245D02*
X172192914Y-85985864D01*
X172192914Y-85985864D02*
X172097676Y-86033483D01*
X172097676Y-86033483D02*
X172002438Y-86128721D01*
X172002438Y-86128721D02*
X171954819Y-86271578D01*
X171954819Y-86271578D02*
X171954819Y-86366816D01*
X171954819Y-86366816D02*
X172002438Y-86509673D01*
X172002438Y-86509673D02*
X172050057Y-86557292D01*
X171954819Y-87462054D02*
X171954819Y-86985864D01*
X171954819Y-86985864D02*
X172431009Y-86938245D01*
X172431009Y-86938245D02*
X172383390Y-86985864D01*
X172383390Y-86985864D02*
X172335771Y-87081102D01*
X172335771Y-87081102D02*
X172335771Y-87319197D01*
X172335771Y-87319197D02*
X172383390Y-87414435D01*
X172383390Y-87414435D02*
X172431009Y-87462054D01*
X172431009Y-87462054D02*
X172526247Y-87509673D01*
X172526247Y-87509673D02*
X172764342Y-87509673D01*
X172764342Y-87509673D02*
X172859580Y-87462054D01*
X172859580Y-87462054D02*
X172907200Y-87414435D01*
X172907200Y-87414435D02*
X172954819Y-87319197D01*
X172954819Y-87319197D02*
X172954819Y-87081102D01*
X172954819Y-87081102D02*
X172907200Y-86985864D01*
X172907200Y-86985864D02*
X172859580Y-86938245D01*
X142142857Y-129954819D02*
X142476190Y-129478628D01*
X142714285Y-129954819D02*
X142714285Y-128954819D01*
X142714285Y-128954819D02*
X142333333Y-128954819D01*
X142333333Y-128954819D02*
X142238095Y-129002438D01*
X142238095Y-129002438D02*
X142190476Y-129050057D01*
X142190476Y-129050057D02*
X142142857Y-129145295D01*
X142142857Y-129145295D02*
X142142857Y-129288152D01*
X142142857Y-129288152D02*
X142190476Y-129383390D01*
X142190476Y-129383390D02*
X142238095Y-129431009D01*
X142238095Y-129431009D02*
X142333333Y-129478628D01*
X142333333Y-129478628D02*
X142714285Y-129478628D01*
X141190476Y-129954819D02*
X141761904Y-129954819D01*
X141476190Y-129954819D02*
X141476190Y-128954819D01*
X141476190Y-128954819D02*
X141571428Y-129097676D01*
X141571428Y-129097676D02*
X141666666Y-129192914D01*
X141666666Y-129192914D02*
X141761904Y-129240533D01*
X140333333Y-128954819D02*
X140523809Y-128954819D01*
X140523809Y-128954819D02*
X140619047Y-129002438D01*
X140619047Y-129002438D02*
X140666666Y-129050057D01*
X140666666Y-129050057D02*
X140761904Y-129192914D01*
X140761904Y-129192914D02*
X140809523Y-129383390D01*
X140809523Y-129383390D02*
X140809523Y-129764342D01*
X140809523Y-129764342D02*
X140761904Y-129859580D01*
X140761904Y-129859580D02*
X140714285Y-129907200D01*
X140714285Y-129907200D02*
X140619047Y-129954819D01*
X140619047Y-129954819D02*
X140428571Y-129954819D01*
X140428571Y-129954819D02*
X140333333Y-129907200D01*
X140333333Y-129907200D02*
X140285714Y-129859580D01*
X140285714Y-129859580D02*
X140238095Y-129764342D01*
X140238095Y-129764342D02*
X140238095Y-129526247D01*
X140238095Y-129526247D02*
X140285714Y-129431009D01*
X140285714Y-129431009D02*
X140333333Y-129383390D01*
X140333333Y-129383390D02*
X140428571Y-129335771D01*
X140428571Y-129335771D02*
X140619047Y-129335771D01*
X140619047Y-129335771D02*
X140714285Y-129383390D01*
X140714285Y-129383390D02*
X140761904Y-129431009D01*
X140761904Y-129431009D02*
X140809523Y-129526247D01*
X137800057Y-133654761D02*
X137752438Y-133559523D01*
X137752438Y-133559523D02*
X137657200Y-133464285D01*
X137657200Y-133464285D02*
X137514342Y-133321428D01*
X137514342Y-133321428D02*
X137466723Y-133226190D01*
X137466723Y-133226190D02*
X137466723Y-133130952D01*
X137704819Y-133178571D02*
X137657200Y-133083333D01*
X137657200Y-133083333D02*
X137561961Y-132988095D01*
X137561961Y-132988095D02*
X137371485Y-132940476D01*
X137371485Y-132940476D02*
X137038152Y-132940476D01*
X137038152Y-132940476D02*
X136847676Y-132988095D01*
X136847676Y-132988095D02*
X136752438Y-133083333D01*
X136752438Y-133083333D02*
X136704819Y-133178571D01*
X136704819Y-133178571D02*
X136704819Y-133369047D01*
X136704819Y-133369047D02*
X136752438Y-133464285D01*
X136752438Y-133464285D02*
X136847676Y-133559523D01*
X136847676Y-133559523D02*
X137038152Y-133607142D01*
X137038152Y-133607142D02*
X137371485Y-133607142D01*
X137371485Y-133607142D02*
X137561961Y-133559523D01*
X137561961Y-133559523D02*
X137657200Y-133464285D01*
X137657200Y-133464285D02*
X137704819Y-133369047D01*
X137704819Y-133369047D02*
X137704819Y-133178571D01*
X136704819Y-133940476D02*
X136704819Y-134559523D01*
X136704819Y-134559523D02*
X137085771Y-134226190D01*
X137085771Y-134226190D02*
X137085771Y-134369047D01*
X137085771Y-134369047D02*
X137133390Y-134464285D01*
X137133390Y-134464285D02*
X137181009Y-134511904D01*
X137181009Y-134511904D02*
X137276247Y-134559523D01*
X137276247Y-134559523D02*
X137514342Y-134559523D01*
X137514342Y-134559523D02*
X137609580Y-134511904D01*
X137609580Y-134511904D02*
X137657200Y-134464285D01*
X137657200Y-134464285D02*
X137704819Y-134369047D01*
X137704819Y-134369047D02*
X137704819Y-134083333D01*
X137704819Y-134083333D02*
X137657200Y-133988095D01*
X137657200Y-133988095D02*
X137609580Y-133940476D01*
X141454819Y-132182142D02*
X140978628Y-131848809D01*
X141454819Y-131610714D02*
X140454819Y-131610714D01*
X140454819Y-131610714D02*
X140454819Y-131991666D01*
X140454819Y-131991666D02*
X140502438Y-132086904D01*
X140502438Y-132086904D02*
X140550057Y-132134523D01*
X140550057Y-132134523D02*
X140645295Y-132182142D01*
X140645295Y-132182142D02*
X140788152Y-132182142D01*
X140788152Y-132182142D02*
X140883390Y-132134523D01*
X140883390Y-132134523D02*
X140931009Y-132086904D01*
X140931009Y-132086904D02*
X140978628Y-131991666D01*
X140978628Y-131991666D02*
X140978628Y-131610714D01*
X141454819Y-133134523D02*
X141454819Y-132563095D01*
X141454819Y-132848809D02*
X140454819Y-132848809D01*
X140454819Y-132848809D02*
X140597676Y-132753571D01*
X140597676Y-132753571D02*
X140692914Y-132658333D01*
X140692914Y-132658333D02*
X140740533Y-132563095D01*
X140550057Y-133515476D02*
X140502438Y-133563095D01*
X140502438Y-133563095D02*
X140454819Y-133658333D01*
X140454819Y-133658333D02*
X140454819Y-133896428D01*
X140454819Y-133896428D02*
X140502438Y-133991666D01*
X140502438Y-133991666D02*
X140550057Y-134039285D01*
X140550057Y-134039285D02*
X140645295Y-134086904D01*
X140645295Y-134086904D02*
X140740533Y-134086904D01*
X140740533Y-134086904D02*
X140883390Y-134039285D01*
X140883390Y-134039285D02*
X141454819Y-133467857D01*
X141454819Y-133467857D02*
X141454819Y-134086904D01*
X99150057Y-132917261D02*
X99102438Y-132822023D01*
X99102438Y-132822023D02*
X99007200Y-132726785D01*
X99007200Y-132726785D02*
X98864342Y-132583928D01*
X98864342Y-132583928D02*
X98816723Y-132488690D01*
X98816723Y-132488690D02*
X98816723Y-132393452D01*
X99054819Y-132441071D02*
X99007200Y-132345833D01*
X99007200Y-132345833D02*
X98911961Y-132250595D01*
X98911961Y-132250595D02*
X98721485Y-132202976D01*
X98721485Y-132202976D02*
X98388152Y-132202976D01*
X98388152Y-132202976D02*
X98197676Y-132250595D01*
X98197676Y-132250595D02*
X98102438Y-132345833D01*
X98102438Y-132345833D02*
X98054819Y-132441071D01*
X98054819Y-132441071D02*
X98054819Y-132631547D01*
X98054819Y-132631547D02*
X98102438Y-132726785D01*
X98102438Y-132726785D02*
X98197676Y-132822023D01*
X98197676Y-132822023D02*
X98388152Y-132869642D01*
X98388152Y-132869642D02*
X98721485Y-132869642D01*
X98721485Y-132869642D02*
X98911961Y-132822023D01*
X98911961Y-132822023D02*
X99007200Y-132726785D01*
X99007200Y-132726785D02*
X99054819Y-132631547D01*
X99054819Y-132631547D02*
X99054819Y-132441071D01*
X98150057Y-133250595D02*
X98102438Y-133298214D01*
X98102438Y-133298214D02*
X98054819Y-133393452D01*
X98054819Y-133393452D02*
X98054819Y-133631547D01*
X98054819Y-133631547D02*
X98102438Y-133726785D01*
X98102438Y-133726785D02*
X98150057Y-133774404D01*
X98150057Y-133774404D02*
X98245295Y-133822023D01*
X98245295Y-133822023D02*
X98340533Y-133822023D01*
X98340533Y-133822023D02*
X98483390Y-133774404D01*
X98483390Y-133774404D02*
X99054819Y-133202976D01*
X99054819Y-133202976D02*
X99054819Y-133822023D01*
X135704819Y-130333333D02*
X135228628Y-130000000D01*
X135704819Y-129761905D02*
X134704819Y-129761905D01*
X134704819Y-129761905D02*
X134704819Y-130142857D01*
X134704819Y-130142857D02*
X134752438Y-130238095D01*
X134752438Y-130238095D02*
X134800057Y-130285714D01*
X134800057Y-130285714D02*
X134895295Y-130333333D01*
X134895295Y-130333333D02*
X135038152Y-130333333D01*
X135038152Y-130333333D02*
X135133390Y-130285714D01*
X135133390Y-130285714D02*
X135181009Y-130238095D01*
X135181009Y-130238095D02*
X135228628Y-130142857D01*
X135228628Y-130142857D02*
X135228628Y-129761905D01*
X135704819Y-130809524D02*
X135704819Y-131000000D01*
X135704819Y-131000000D02*
X135657200Y-131095238D01*
X135657200Y-131095238D02*
X135609580Y-131142857D01*
X135609580Y-131142857D02*
X135466723Y-131238095D01*
X135466723Y-131238095D02*
X135276247Y-131285714D01*
X135276247Y-131285714D02*
X134895295Y-131285714D01*
X134895295Y-131285714D02*
X134800057Y-131238095D01*
X134800057Y-131238095D02*
X134752438Y-131190476D01*
X134752438Y-131190476D02*
X134704819Y-131095238D01*
X134704819Y-131095238D02*
X134704819Y-130904762D01*
X134704819Y-130904762D02*
X134752438Y-130809524D01*
X134752438Y-130809524D02*
X134800057Y-130761905D01*
X134800057Y-130761905D02*
X134895295Y-130714286D01*
X134895295Y-130714286D02*
X135133390Y-130714286D01*
X135133390Y-130714286D02*
X135228628Y-130761905D01*
X135228628Y-130761905D02*
X135276247Y-130809524D01*
X135276247Y-130809524D02*
X135323866Y-130904762D01*
X135323866Y-130904762D02*
X135323866Y-131095238D01*
X135323866Y-131095238D02*
X135276247Y-131190476D01*
X135276247Y-131190476D02*
X135228628Y-131238095D01*
X135228628Y-131238095D02*
X135133390Y-131285714D01*
D11*
%TO.C,C2*%
X104410000Y-108353959D02*
X100869000Y-108353959D01*
X104410000Y-108393959D02*
X100838000Y-108393959D01*
X104410000Y-108433959D02*
X100808000Y-108433959D01*
X104410000Y-108473959D02*
X100778000Y-108473959D01*
X104410000Y-108513959D02*
X100748000Y-108513959D01*
X104410000Y-108553959D02*
X100719000Y-108553959D01*
X104410000Y-108593959D02*
X100691000Y-108593959D01*
X104410000Y-108633959D02*
X100662000Y-108633959D01*
X104410000Y-108673959D02*
X100635000Y-108673959D01*
X104410000Y-108713959D02*
X100608000Y-108713959D01*
X104410000Y-108753959D02*
X100581000Y-108753959D01*
X104410000Y-108793959D02*
X100555000Y-108793959D01*
X104410000Y-108833959D02*
X100529000Y-108833959D01*
X104410000Y-108873959D02*
X100503000Y-108873959D01*
X104410000Y-108913959D02*
X100478000Y-108913959D01*
X104410000Y-108953959D02*
X100454000Y-108953959D01*
X104410000Y-108993959D02*
X100429000Y-108993959D01*
X104410000Y-109033959D02*
X100406000Y-109033959D01*
X104410000Y-109073959D02*
X100382000Y-109073959D01*
X104410000Y-109113959D02*
X100359000Y-109113959D01*
X104410000Y-109153959D02*
X100336000Y-109153959D01*
X104410000Y-109193959D02*
X100314000Y-109193959D01*
X104410000Y-109233959D02*
X100292000Y-109233959D01*
X104410000Y-109273959D02*
X100271000Y-109273959D01*
X104410000Y-109313959D02*
X100249000Y-109313959D01*
X104410000Y-109353959D02*
X100229000Y-109353959D01*
X104410000Y-109393959D02*
X100208000Y-109393959D01*
X104410000Y-109433959D02*
X100188000Y-109433959D01*
X104410000Y-109473959D02*
X100168000Y-109473959D01*
X104410000Y-109513959D02*
X100149000Y-109513959D01*
X104410000Y-109553959D02*
X100130000Y-109553959D01*
X104410000Y-109593959D02*
X100111000Y-109593959D01*
X104410000Y-109633959D02*
X100093000Y-109633959D01*
X104410000Y-109673959D02*
X100075000Y-109673959D01*
X104410000Y-109713959D02*
X100057000Y-109713959D01*
X104410000Y-109753959D02*
X100040000Y-109753959D01*
X104410000Y-109793959D02*
X100023000Y-109793959D01*
X104410000Y-109833959D02*
X100006000Y-109833959D01*
X104410000Y-109873959D02*
X99989000Y-109873959D01*
X104410000Y-109913959D02*
X99973000Y-109913959D01*
X104410000Y-109953959D02*
X99958000Y-109953959D01*
X104410000Y-109993959D02*
X99942000Y-109993959D01*
X104410000Y-110033959D02*
X99927000Y-110033959D01*
X104410000Y-110073959D02*
X99912000Y-110073959D01*
X104410000Y-110113959D02*
X99897000Y-110113959D01*
X104410000Y-110153959D02*
X99883000Y-110153959D01*
X104410000Y-110193959D02*
X99869000Y-110193959D01*
X104410000Y-110233959D02*
X99855000Y-110233959D01*
X104410000Y-110273959D02*
X99842000Y-110273959D01*
X104410000Y-110313959D02*
X99829000Y-110313959D01*
X104410000Y-110353959D02*
X99816000Y-110353959D01*
X104410000Y-110393959D02*
X99804000Y-110393959D01*
X104410000Y-110433959D02*
X99792000Y-110433959D01*
X104410000Y-110473959D02*
X99780000Y-110473959D01*
X104410000Y-110513959D02*
X99768000Y-110513959D01*
X104410000Y-110553959D02*
X99757000Y-110553959D01*
X104410000Y-110593959D02*
X99746000Y-110593959D01*
X104410000Y-110633959D02*
X99735000Y-110633959D01*
X104410000Y-110673959D02*
X99724000Y-110673959D01*
X104410000Y-110713959D02*
X99714000Y-110713959D01*
X104410000Y-110753959D02*
X99704000Y-110753959D01*
X104410000Y-110793959D02*
X99694000Y-110793959D01*
X104410000Y-110833959D02*
X99685000Y-110833959D01*
X104410000Y-110873959D02*
X99676000Y-110873959D01*
X104410000Y-110913959D02*
X99667000Y-110913959D01*
X104410000Y-110953959D02*
X99658000Y-110953959D01*
X104410000Y-110993959D02*
X99650000Y-110993959D01*
X104410000Y-111033959D02*
X99642000Y-111033959D01*
X104410000Y-111073959D02*
X99634000Y-111073959D01*
X104410000Y-111113959D02*
X99627000Y-111113959D01*
X104410000Y-111153959D02*
X99619000Y-111153959D01*
X104410000Y-111193959D02*
X99612000Y-111193959D01*
X106167000Y-105913959D02*
X105533000Y-105913959D01*
X106607000Y-105953959D02*
X105093000Y-105953959D01*
X106877000Y-105993959D02*
X104823000Y-105993959D01*
X107090000Y-106033959D02*
X104610000Y-106033959D01*
X107272000Y-106073959D02*
X104428000Y-106073959D01*
X107432000Y-106113959D02*
X104268000Y-106113959D01*
X107577000Y-106153959D02*
X104123000Y-106153959D01*
X107710000Y-106193959D02*
X103990000Y-106193959D01*
X107834000Y-106233959D02*
X103866000Y-106233959D01*
X107949000Y-106273959D02*
X103751000Y-106273959D01*
X108058000Y-106313959D02*
X103642000Y-106313959D01*
X108162000Y-106353959D02*
X103538000Y-106353959D01*
X108260000Y-106393959D02*
X103440000Y-106393959D01*
X108354000Y-106433959D02*
X103346000Y-106433959D01*
X108444000Y-106473959D02*
X103256000Y-106473959D01*
X108530000Y-106513959D02*
X103170000Y-106513959D01*
X108613000Y-106553959D02*
X103087000Y-106553959D01*
X108693000Y-106593959D02*
X103007000Y-106593959D01*
X108771000Y-106633959D02*
X102929000Y-106633959D01*
X108846000Y-106673959D02*
X102854000Y-106673959D01*
X108919000Y-106713959D02*
X102781000Y-106713959D01*
X108989000Y-106753959D02*
X102711000Y-106753959D01*
X109058000Y-106793959D02*
X102642000Y-106793959D01*
X109124000Y-106833959D02*
X102576000Y-106833959D01*
X109189000Y-106873959D02*
X102511000Y-106873959D01*
X109252000Y-106913959D02*
X102448000Y-106913959D01*
X109313000Y-106953959D02*
X102387000Y-106953959D01*
X109373000Y-106993959D02*
X102327000Y-106993959D01*
X109425000Y-119091041D02*
X109425000Y-117841041D01*
X109432000Y-107033959D02*
X102268000Y-107033959D01*
X109489000Y-107073959D02*
X102211000Y-107073959D01*
X109545000Y-107113959D02*
X102155000Y-107113959D01*
X109600000Y-107153959D02*
X102100000Y-107153959D01*
X109653000Y-107193959D02*
X102047000Y-107193959D01*
X109706000Y-107233959D02*
X101994000Y-107233959D01*
X109757000Y-107273959D02*
X101943000Y-107273959D01*
X109807000Y-107313959D02*
X101893000Y-107313959D01*
X109856000Y-107353959D02*
X101844000Y-107353959D01*
X109904000Y-107393959D02*
X101796000Y-107393959D01*
X109951000Y-107433959D02*
X101749000Y-107433959D01*
X109998000Y-107473959D02*
X101702000Y-107473959D01*
X110043000Y-107513959D02*
X101657000Y-107513959D01*
X110050000Y-118466041D02*
X108800000Y-118466041D01*
X110088000Y-107553959D02*
X101612000Y-107553959D01*
X110131000Y-107593959D02*
X101569000Y-107593959D01*
X110174000Y-107633959D02*
X101526000Y-107633959D01*
X110216000Y-107673959D02*
X101484000Y-107673959D01*
X110258000Y-107713959D02*
X101442000Y-107713959D01*
X110298000Y-107753959D02*
X101402000Y-107753959D01*
X110338000Y-107793959D02*
X101362000Y-107793959D01*
X110378000Y-107833959D02*
X101322000Y-107833959D01*
X110416000Y-107873959D02*
X101284000Y-107873959D01*
X110454000Y-107913959D02*
X101246000Y-107913959D01*
X110491000Y-107953959D02*
X101209000Y-107953959D01*
X110528000Y-107993959D02*
X101172000Y-107993959D01*
X110564000Y-108033959D02*
X101136000Y-108033959D01*
X110599000Y-108073959D02*
X101101000Y-108073959D01*
X110634000Y-108113959D02*
X101066000Y-108113959D01*
X110668000Y-108153959D02*
X101032000Y-108153959D01*
X110702000Y-108193959D02*
X100998000Y-108193959D01*
X110735000Y-108233959D02*
X100965000Y-108233959D01*
X110768000Y-108273959D02*
X100932000Y-108273959D01*
X110800000Y-108313959D02*
X100900000Y-108313959D01*
X110831000Y-108353959D02*
X107290000Y-108353959D01*
X110862000Y-108393959D02*
X107290000Y-108393959D01*
X110892000Y-108433959D02*
X107290000Y-108433959D01*
X110922000Y-108473959D02*
X107290000Y-108473959D01*
X110952000Y-108513959D02*
X107290000Y-108513959D01*
X110981000Y-108553959D02*
X107290000Y-108553959D01*
X111009000Y-108593959D02*
X107290000Y-108593959D01*
X111038000Y-108633959D02*
X107290000Y-108633959D01*
X111065000Y-108673959D02*
X107290000Y-108673959D01*
X111092000Y-108713959D02*
X107290000Y-108713959D01*
X111119000Y-108753959D02*
X107290000Y-108753959D01*
X111145000Y-108793959D02*
X107290000Y-108793959D01*
X111171000Y-108833959D02*
X107290000Y-108833959D01*
X111197000Y-108873959D02*
X107290000Y-108873959D01*
X111222000Y-108913959D02*
X107290000Y-108913959D01*
X111246000Y-108953959D02*
X107290000Y-108953959D01*
X111271000Y-108993959D02*
X107290000Y-108993959D01*
X111294000Y-109033959D02*
X107290000Y-109033959D01*
X111318000Y-109073959D02*
X107290000Y-109073959D01*
X111341000Y-109113959D02*
X107290000Y-109113959D01*
X111364000Y-109153959D02*
X107290000Y-109153959D01*
X111386000Y-109193959D02*
X107290000Y-109193959D01*
X111408000Y-109233959D02*
X107290000Y-109233959D01*
X111429000Y-109273959D02*
X107290000Y-109273959D01*
X111451000Y-109313959D02*
X107290000Y-109313959D01*
X111471000Y-109353959D02*
X107290000Y-109353959D01*
X111492000Y-109393959D02*
X107290000Y-109393959D01*
X111512000Y-109433959D02*
X107290000Y-109433959D01*
X111532000Y-109473959D02*
X107290000Y-109473959D01*
X111551000Y-109513959D02*
X107290000Y-109513959D01*
X111570000Y-109553959D02*
X107290000Y-109553959D01*
X111589000Y-109593959D02*
X107290000Y-109593959D01*
X111607000Y-109633959D02*
X107290000Y-109633959D01*
X111625000Y-109673959D02*
X107290000Y-109673959D01*
X111643000Y-109713959D02*
X107290000Y-109713959D01*
X111660000Y-109753959D02*
X107290000Y-109753959D01*
X111677000Y-109793959D02*
X107290000Y-109793959D01*
X111694000Y-109833959D02*
X107290000Y-109833959D01*
X111711000Y-109873959D02*
X107290000Y-109873959D01*
X111727000Y-109913959D02*
X107290000Y-109913959D01*
X111742000Y-109953959D02*
X107290000Y-109953959D01*
X111758000Y-109993959D02*
X107290000Y-109993959D01*
X111773000Y-110033959D02*
X107290000Y-110033959D01*
X111788000Y-110073959D02*
X107290000Y-110073959D01*
X111803000Y-110113959D02*
X107290000Y-110113959D01*
X111817000Y-110153959D02*
X107290000Y-110153959D01*
X111831000Y-110193959D02*
X107290000Y-110193959D01*
X111845000Y-110233959D02*
X107290000Y-110233959D01*
X111858000Y-110273959D02*
X107290000Y-110273959D01*
X111871000Y-110313959D02*
X107290000Y-110313959D01*
X111884000Y-110353959D02*
X107290000Y-110353959D01*
X111896000Y-110393959D02*
X107290000Y-110393959D01*
X111908000Y-110433959D02*
X107290000Y-110433959D01*
X111920000Y-110473959D02*
X107290000Y-110473959D01*
X111932000Y-110513959D02*
X107290000Y-110513959D01*
X111943000Y-110553959D02*
X107290000Y-110553959D01*
X111954000Y-110593959D02*
X107290000Y-110593959D01*
X111965000Y-110633959D02*
X107290000Y-110633959D01*
X111976000Y-110673959D02*
X107290000Y-110673959D01*
X111986000Y-110713959D02*
X107290000Y-110713959D01*
X111996000Y-110753959D02*
X107290000Y-110753959D01*
X112006000Y-110793959D02*
X107290000Y-110793959D01*
X112015000Y-110833959D02*
X107290000Y-110833959D01*
X112024000Y-110873959D02*
X107290000Y-110873959D01*
X112033000Y-110913959D02*
X107290000Y-110913959D01*
X112042000Y-110953959D02*
X107290000Y-110953959D01*
X112050000Y-110993959D02*
X107290000Y-110993959D01*
X112058000Y-111033959D02*
X107290000Y-111033959D01*
X112066000Y-111073959D02*
X107290000Y-111073959D01*
X112073000Y-111113959D02*
X107290000Y-111113959D01*
X112081000Y-111153959D02*
X107290000Y-111153959D01*
X112088000Y-111193959D02*
X107290000Y-111193959D01*
X112095000Y-111233959D02*
X99605000Y-111233959D01*
X112101000Y-111273959D02*
X99599000Y-111273959D01*
X112107000Y-111313959D02*
X99593000Y-111313959D01*
X112113000Y-111353959D02*
X99587000Y-111353959D01*
X112119000Y-111393959D02*
X99581000Y-111393959D01*
X112124000Y-111433959D02*
X99576000Y-111433959D01*
X112130000Y-111473959D02*
X99570000Y-111473959D01*
X112134000Y-111513959D02*
X99566000Y-111513959D01*
X112139000Y-111553959D02*
X99561000Y-111553959D01*
X112144000Y-111593959D02*
X99556000Y-111593959D01*
X112148000Y-111633959D02*
X99552000Y-111633959D01*
X112152000Y-111673959D02*
X99548000Y-111673959D01*
X112155000Y-111713959D02*
X99545000Y-111713959D01*
X112159000Y-111753959D02*
X99541000Y-111753959D01*
X112162000Y-111793959D02*
X99538000Y-111793959D01*
X112165000Y-111833959D02*
X99535000Y-111833959D01*
X112167000Y-111873959D02*
X99533000Y-111873959D01*
X112170000Y-111913959D02*
X99530000Y-111913959D01*
X112172000Y-111953959D02*
X99528000Y-111953959D01*
X112174000Y-111993959D02*
X99526000Y-111993959D01*
X112175000Y-112033959D02*
X99525000Y-112033959D01*
X112177000Y-112073959D02*
X99523000Y-112073959D01*
X112178000Y-112113959D02*
X99522000Y-112113959D01*
X112179000Y-112153959D02*
X99521000Y-112153959D01*
X112179000Y-112193959D02*
X99521000Y-112193959D01*
X112180000Y-112233959D02*
X99520000Y-112233959D01*
X112180000Y-112273959D02*
X99520000Y-112273959D01*
X112220000Y-112273959D02*
G75*
G02*
X99480000Y-112273959I-6370000J0D01*
G01*
X99480000Y-112273959D02*
G75*
G02*
X112220000Y-112273959I6370000J0D01*
G01*
%TO.C,Q4*%
X143240000Y-133940000D02*
X143240000Y-134940000D01*
X143240000Y-136060000D02*
X143240000Y-137060000D01*
X143240000Y-137060000D02*
X144760000Y-137060000D01*
X144760000Y-133940000D02*
X143240000Y-133940000D01*
X144760000Y-133990000D02*
X144760000Y-133940000D01*
X144760000Y-135890000D02*
X144760000Y-135110000D01*
X144760000Y-137060000D02*
X144760000Y-137010000D01*
X145540000Y-135450000D02*
X145060000Y-135450000D01*
X145300000Y-135120000D01*
X145540000Y-135450000D01*
G36*
X145540000Y-135450000D02*
G01*
X145060000Y-135450000D01*
X145300000Y-135120000D01*
X145540000Y-135450000D01*
G37*
%TO.C,R13*%
X136427500Y-127362258D02*
X136427500Y-126887742D01*
X137472500Y-127362258D02*
X137472500Y-126887742D01*
%TO.C,R2*%
X100627500Y-136412258D02*
X100627500Y-135937742D01*
X101672500Y-136412258D02*
X101672500Y-135937742D01*
%TO.C,U8*%
X87440000Y-130940000D02*
X87440000Y-135060000D01*
X87440000Y-135060000D02*
X87535000Y-135060000D01*
X87535000Y-130940000D02*
X87440000Y-130940000D01*
X92465000Y-135060000D02*
X92560000Y-135060000D01*
X92560000Y-130940000D02*
X92465000Y-130940000D01*
X92560000Y-135060000D02*
X92560000Y-130940000D01*
X92800000Y-135840000D02*
X92470000Y-135600000D01*
X92800000Y-135360000D01*
X92800000Y-135840000D01*
G36*
X92800000Y-135840000D02*
G01*
X92470000Y-135600000D01*
X92800000Y-135360000D01*
X92800000Y-135840000D01*
G37*
%TO.C,C6*%
X179510000Y-114530000D02*
X177272000Y-114530000D01*
X179510000Y-114570000D02*
X177230000Y-114570000D01*
X179510000Y-114610000D02*
X177189000Y-114610000D01*
X179510000Y-114650000D02*
X177149000Y-114650000D01*
X179510000Y-114690000D02*
X177110000Y-114690000D01*
X179510000Y-114730000D02*
X177072000Y-114730000D01*
X179510000Y-114770000D02*
X177034000Y-114770000D01*
X179510000Y-114810000D02*
X176998000Y-114810000D01*
X179510000Y-114850000D02*
X176962000Y-114850000D01*
X179510000Y-114890000D02*
X176927000Y-114890000D01*
X179510000Y-114930000D02*
X176892000Y-114930000D01*
X179510000Y-114970000D02*
X176859000Y-114970000D01*
X179510000Y-115010000D02*
X176826000Y-115010000D01*
X179510000Y-115050000D02*
X176793000Y-115050000D01*
X179510000Y-115090000D02*
X176762000Y-115090000D01*
X179510000Y-115130000D02*
X176730000Y-115130000D01*
X179510000Y-115170000D02*
X176700000Y-115170000D01*
X179510000Y-115210000D02*
X176670000Y-115210000D01*
X179510000Y-115250000D02*
X176641000Y-115250000D01*
X179510000Y-115290000D02*
X176612000Y-115290000D01*
X179510000Y-115330000D02*
X176584000Y-115330000D01*
X179510000Y-115370000D02*
X176557000Y-115370000D01*
X179510000Y-115410000D02*
X176530000Y-115410000D01*
X179510000Y-115450000D02*
X176503000Y-115450000D01*
X179510000Y-115490000D02*
X176478000Y-115490000D01*
X179510000Y-115530000D02*
X176452000Y-115530000D01*
X179510000Y-115570000D02*
X176427000Y-115570000D01*
X179510000Y-115610000D02*
X176403000Y-115610000D01*
X179510000Y-115650000D02*
X176379000Y-115650000D01*
X179510000Y-115690000D02*
X176356000Y-115690000D01*
X179510000Y-115730000D02*
X176333000Y-115730000D01*
X179510000Y-115770000D02*
X176311000Y-115770000D01*
X179510000Y-115810000D02*
X176289000Y-115810000D01*
X179510000Y-115850000D02*
X176267000Y-115850000D01*
X179510000Y-115890000D02*
X176246000Y-115890000D01*
X179510000Y-115930000D02*
X176226000Y-115930000D01*
X179510000Y-115970000D02*
X176206000Y-115970000D01*
X179510000Y-116010000D02*
X176186000Y-116010000D01*
X179510000Y-116050000D02*
X176167000Y-116050000D01*
X179510000Y-116090000D02*
X176148000Y-116090000D01*
X179510000Y-116130000D02*
X176130000Y-116130000D01*
X179510000Y-116170000D02*
X176112000Y-116170000D01*
X179510000Y-116210000D02*
X176094000Y-116210000D01*
X179510000Y-116250000D02*
X176077000Y-116250000D01*
X179510000Y-116290000D02*
X176060000Y-116290000D01*
X179510000Y-116330000D02*
X176044000Y-116330000D01*
X179510000Y-116370000D02*
X176028000Y-116370000D01*
X179510000Y-116410000D02*
X176012000Y-116410000D01*
X179510000Y-116450000D02*
X175997000Y-116450000D01*
X179510000Y-116490000D02*
X175982000Y-116490000D01*
X179510000Y-116530000D02*
X175968000Y-116530000D01*
X179510000Y-116570000D02*
X175953000Y-116570000D01*
X179510000Y-116610000D02*
X175940000Y-116610000D01*
X179510000Y-116650000D02*
X175926000Y-116650000D01*
X179510000Y-116690000D02*
X175913000Y-116690000D01*
X179510000Y-116730000D02*
X175901000Y-116730000D01*
X179510000Y-116770000D02*
X175889000Y-116770000D01*
X179510000Y-116810000D02*
X175877000Y-116810000D01*
X179510000Y-116850000D02*
X175865000Y-116850000D01*
X179510000Y-116890000D02*
X175854000Y-116890000D01*
X179510000Y-116930000D02*
X175843000Y-116930000D01*
X179510000Y-116970000D02*
X175833000Y-116970000D01*
X181349000Y-113170000D02*
X180151000Y-113170000D01*
X181612000Y-113210000D02*
X179888000Y-113210000D01*
X181812000Y-113250000D02*
X179688000Y-113250000D01*
X181980000Y-113290000D02*
X179520000Y-113290000D01*
X182127000Y-113330000D02*
X179373000Y-113330000D01*
X182259000Y-113370000D02*
X179241000Y-113370000D01*
X182380000Y-113410000D02*
X179120000Y-113410000D01*
X182492000Y-113450000D02*
X179008000Y-113450000D01*
X182596000Y-113490000D02*
X178904000Y-113490000D01*
X182694000Y-113530000D02*
X178806000Y-113530000D01*
X182787000Y-113570000D02*
X178713000Y-113570000D01*
X182874000Y-113610000D02*
X178626000Y-113610000D01*
X182958000Y-113650000D02*
X178542000Y-113650000D01*
X183038000Y-113690000D02*
X178462000Y-113690000D01*
X183115000Y-113730000D02*
X178385000Y-113730000D01*
X183189000Y-113770000D02*
X178311000Y-113770000D01*
X183260000Y-113810000D02*
X178240000Y-113810000D01*
X183328000Y-113850000D02*
X178172000Y-113850000D01*
X183394000Y-113890000D02*
X178106000Y-113890000D01*
X183458000Y-113930000D02*
X178042000Y-113930000D01*
X183520000Y-113970000D02*
X177980000Y-113970000D01*
X183580000Y-114010000D02*
X177920000Y-114010000D01*
X183625000Y-123729646D02*
X183625000Y-122729646D01*
X183638000Y-114050000D02*
X177862000Y-114050000D01*
X183695000Y-114090000D02*
X177805000Y-114090000D01*
X183750000Y-114130000D02*
X177750000Y-114130000D01*
X183803000Y-114170000D02*
X177697000Y-114170000D01*
X183855000Y-114210000D02*
X177645000Y-114210000D01*
X183906000Y-114250000D02*
X177594000Y-114250000D01*
X183955000Y-114290000D02*
X177545000Y-114290000D01*
X184004000Y-114330000D02*
X177496000Y-114330000D01*
X184051000Y-114370000D02*
X177449000Y-114370000D01*
X184097000Y-114410000D02*
X177403000Y-114410000D01*
X184125000Y-123229646D02*
X183125000Y-123229646D01*
X184141000Y-114450000D02*
X177359000Y-114450000D01*
X184185000Y-114490000D02*
X177315000Y-114490000D01*
X184228000Y-114530000D02*
X181990000Y-114530000D01*
X184270000Y-114570000D02*
X181990000Y-114570000D01*
X184311000Y-114610000D02*
X181990000Y-114610000D01*
X184351000Y-114650000D02*
X181990000Y-114650000D01*
X184390000Y-114690000D02*
X181990000Y-114690000D01*
X184428000Y-114730000D02*
X181990000Y-114730000D01*
X184466000Y-114770000D02*
X181990000Y-114770000D01*
X184502000Y-114810000D02*
X181990000Y-114810000D01*
X184538000Y-114850000D02*
X181990000Y-114850000D01*
X184573000Y-114890000D02*
X181990000Y-114890000D01*
X184608000Y-114930000D02*
X181990000Y-114930000D01*
X184641000Y-114970000D02*
X181990000Y-114970000D01*
X184674000Y-115010000D02*
X181990000Y-115010000D01*
X184707000Y-115050000D02*
X181990000Y-115050000D01*
X184738000Y-115090000D02*
X181990000Y-115090000D01*
X184770000Y-115130000D02*
X181990000Y-115130000D01*
X184800000Y-115170000D02*
X181990000Y-115170000D01*
X184830000Y-115210000D02*
X181990000Y-115210000D01*
X184859000Y-115250000D02*
X181990000Y-115250000D01*
X184888000Y-115290000D02*
X181990000Y-115290000D01*
X184916000Y-115330000D02*
X181990000Y-115330000D01*
X184943000Y-115370000D02*
X181990000Y-115370000D01*
X184970000Y-115410000D02*
X181990000Y-115410000D01*
X184997000Y-115450000D02*
X181990000Y-115450000D01*
X185022000Y-115490000D02*
X181990000Y-115490000D01*
X185048000Y-115530000D02*
X181990000Y-115530000D01*
X185073000Y-115570000D02*
X181990000Y-115570000D01*
X185097000Y-115610000D02*
X181990000Y-115610000D01*
X185121000Y-115650000D02*
X181990000Y-115650000D01*
X185144000Y-115690000D02*
X181990000Y-115690000D01*
X185167000Y-115730000D02*
X181990000Y-115730000D01*
X185189000Y-115770000D02*
X181990000Y-115770000D01*
X185211000Y-115810000D02*
X181990000Y-115810000D01*
X185233000Y-115850000D02*
X181990000Y-115850000D01*
X185254000Y-115890000D02*
X181990000Y-115890000D01*
X185274000Y-115930000D02*
X181990000Y-115930000D01*
X185294000Y-115970000D02*
X181990000Y-115970000D01*
X185314000Y-116010000D02*
X181990000Y-116010000D01*
X185333000Y-116050000D02*
X181990000Y-116050000D01*
X185352000Y-116090000D02*
X181990000Y-116090000D01*
X185370000Y-116130000D02*
X181990000Y-116130000D01*
X185388000Y-116170000D02*
X181990000Y-116170000D01*
X185406000Y-116210000D02*
X181990000Y-116210000D01*
X185423000Y-116250000D02*
X181990000Y-116250000D01*
X185440000Y-116290000D02*
X181990000Y-116290000D01*
X185456000Y-116330000D02*
X181990000Y-116330000D01*
X185472000Y-116370000D02*
X181990000Y-116370000D01*
X185488000Y-116410000D02*
X181990000Y-116410000D01*
X185503000Y-116450000D02*
X181990000Y-116450000D01*
X185518000Y-116490000D02*
X181990000Y-116490000D01*
X185532000Y-116530000D02*
X181990000Y-116530000D01*
X185547000Y-116570000D02*
X181990000Y-116570000D01*
X185560000Y-116610000D02*
X181990000Y-116610000D01*
X185574000Y-116650000D02*
X181990000Y-116650000D01*
X185587000Y-116690000D02*
X181990000Y-116690000D01*
X185599000Y-116730000D02*
X181990000Y-116730000D01*
X185611000Y-116770000D02*
X181990000Y-116770000D01*
X185623000Y-116810000D02*
X181990000Y-116810000D01*
X185635000Y-116850000D02*
X181990000Y-116850000D01*
X185646000Y-116890000D02*
X181990000Y-116890000D01*
X185657000Y-116930000D02*
X181990000Y-116930000D01*
X185667000Y-116970000D02*
X181990000Y-116970000D01*
X185678000Y-117010000D02*
X175822000Y-117010000D01*
X185687000Y-117050000D02*
X175813000Y-117050000D01*
X185697000Y-117090000D02*
X175803000Y-117090000D01*
X185706000Y-117130000D02*
X175794000Y-117130000D01*
X185715000Y-117170000D02*
X175785000Y-117170000D01*
X185723000Y-117210000D02*
X175777000Y-117210000D01*
X185731000Y-117250000D02*
X175769000Y-117250000D01*
X185739000Y-117290000D02*
X175761000Y-117290000D01*
X185747000Y-117330000D02*
X175753000Y-117330000D01*
X185754000Y-117370000D02*
X175746000Y-117370000D01*
X185761000Y-117410000D02*
X175739000Y-117410000D01*
X185767000Y-117450000D02*
X175733000Y-117450000D01*
X185773000Y-117490000D02*
X175727000Y-117490000D01*
X185779000Y-117530000D02*
X175721000Y-117530000D01*
X185785000Y-117570000D02*
X175715000Y-117570000D01*
X185790000Y-117610000D02*
X175710000Y-117610000D01*
X185795000Y-117650000D02*
X175705000Y-117650000D01*
X185799000Y-117690000D02*
X175701000Y-117690000D01*
X185804000Y-117730000D02*
X175696000Y-117730000D01*
X185807000Y-117770000D02*
X175693000Y-117770000D01*
X185811000Y-117810000D02*
X175689000Y-117810000D01*
X185814000Y-117850000D02*
X175686000Y-117850000D01*
X185817000Y-117890000D02*
X175683000Y-117890000D01*
X185820000Y-117930000D02*
X175680000Y-117930000D01*
X185822000Y-117970000D02*
X175678000Y-117970000D01*
X185824000Y-118010000D02*
X175676000Y-118010000D01*
X185826000Y-118050000D02*
X175674000Y-118050000D01*
X185827000Y-118090000D02*
X175673000Y-118090000D01*
X185829000Y-118130000D02*
X175671000Y-118130000D01*
X185829000Y-118170000D02*
X175671000Y-118170000D01*
X185830000Y-118210000D02*
X175670000Y-118210000D01*
X185830000Y-118250000D02*
X175670000Y-118250000D01*
X185870000Y-118250000D02*
G75*
G02*
X175630000Y-118250000I-5120000J0D01*
G01*
X175630000Y-118250000D02*
G75*
G02*
X185870000Y-118250000I5120000J0D01*
G01*
%TO.C,R8*%
X131227500Y-127412258D02*
X131227500Y-126937742D01*
X132272500Y-127412258D02*
X132272500Y-126937742D01*
%TO.C,C1*%
X90010000Y-107930000D02*
X86469000Y-107930000D01*
X90010000Y-107970000D02*
X86438000Y-107970000D01*
X90010000Y-108010000D02*
X86408000Y-108010000D01*
X90010000Y-108050000D02*
X86378000Y-108050000D01*
X90010000Y-108090000D02*
X86348000Y-108090000D01*
X90010000Y-108130000D02*
X86319000Y-108130000D01*
X90010000Y-108170000D02*
X86291000Y-108170000D01*
X90010000Y-108210000D02*
X86262000Y-108210000D01*
X90010000Y-108250000D02*
X86235000Y-108250000D01*
X90010000Y-108290000D02*
X86208000Y-108290000D01*
X90010000Y-108330000D02*
X86181000Y-108330000D01*
X90010000Y-108370000D02*
X86155000Y-108370000D01*
X90010000Y-108410000D02*
X86129000Y-108410000D01*
X90010000Y-108450000D02*
X86103000Y-108450000D01*
X90010000Y-108490000D02*
X86078000Y-108490000D01*
X90010000Y-108530000D02*
X86054000Y-108530000D01*
X90010000Y-108570000D02*
X86029000Y-108570000D01*
X90010000Y-108610000D02*
X86006000Y-108610000D01*
X90010000Y-108650000D02*
X85982000Y-108650000D01*
X90010000Y-108690000D02*
X85959000Y-108690000D01*
X90010000Y-108730000D02*
X85936000Y-108730000D01*
X90010000Y-108770000D02*
X85914000Y-108770000D01*
X90010000Y-108810000D02*
X85892000Y-108810000D01*
X90010000Y-108850000D02*
X85871000Y-108850000D01*
X90010000Y-108890000D02*
X85849000Y-108890000D01*
X90010000Y-108930000D02*
X85829000Y-108930000D01*
X90010000Y-108970000D02*
X85808000Y-108970000D01*
X90010000Y-109010000D02*
X85788000Y-109010000D01*
X90010000Y-109050000D02*
X85768000Y-109050000D01*
X90010000Y-109090000D02*
X85749000Y-109090000D01*
X90010000Y-109130000D02*
X85730000Y-109130000D01*
X90010000Y-109170000D02*
X85711000Y-109170000D01*
X90010000Y-109210000D02*
X85693000Y-109210000D01*
X90010000Y-109250000D02*
X85675000Y-109250000D01*
X90010000Y-109290000D02*
X85657000Y-109290000D01*
X90010000Y-109330000D02*
X85640000Y-109330000D01*
X90010000Y-109370000D02*
X85623000Y-109370000D01*
X90010000Y-109410000D02*
X85606000Y-109410000D01*
X90010000Y-109450000D02*
X85589000Y-109450000D01*
X90010000Y-109490000D02*
X85573000Y-109490000D01*
X90010000Y-109530000D02*
X85558000Y-109530000D01*
X90010000Y-109570000D02*
X85542000Y-109570000D01*
X90010000Y-109610000D02*
X85527000Y-109610000D01*
X90010000Y-109650000D02*
X85512000Y-109650000D01*
X90010000Y-109690000D02*
X85497000Y-109690000D01*
X90010000Y-109730000D02*
X85483000Y-109730000D01*
X90010000Y-109770000D02*
X85469000Y-109770000D01*
X90010000Y-109810000D02*
X85455000Y-109810000D01*
X90010000Y-109850000D02*
X85442000Y-109850000D01*
X90010000Y-109890000D02*
X85429000Y-109890000D01*
X90010000Y-109930000D02*
X85416000Y-109930000D01*
X90010000Y-109970000D02*
X85404000Y-109970000D01*
X90010000Y-110010000D02*
X85392000Y-110010000D01*
X90010000Y-110050000D02*
X85380000Y-110050000D01*
X90010000Y-110090000D02*
X85368000Y-110090000D01*
X90010000Y-110130000D02*
X85357000Y-110130000D01*
X90010000Y-110170000D02*
X85346000Y-110170000D01*
X90010000Y-110210000D02*
X85335000Y-110210000D01*
X90010000Y-110250000D02*
X85324000Y-110250000D01*
X90010000Y-110290000D02*
X85314000Y-110290000D01*
X90010000Y-110330000D02*
X85304000Y-110330000D01*
X90010000Y-110370000D02*
X85294000Y-110370000D01*
X90010000Y-110410000D02*
X85285000Y-110410000D01*
X90010000Y-110450000D02*
X85276000Y-110450000D01*
X90010000Y-110490000D02*
X85267000Y-110490000D01*
X90010000Y-110530000D02*
X85258000Y-110530000D01*
X90010000Y-110570000D02*
X85250000Y-110570000D01*
X90010000Y-110610000D02*
X85242000Y-110610000D01*
X90010000Y-110650000D02*
X85234000Y-110650000D01*
X90010000Y-110690000D02*
X85227000Y-110690000D01*
X90010000Y-110730000D02*
X85219000Y-110730000D01*
X90010000Y-110770000D02*
X85212000Y-110770000D01*
X91767000Y-105490000D02*
X91133000Y-105490000D01*
X92207000Y-105530000D02*
X90693000Y-105530000D01*
X92477000Y-105570000D02*
X90423000Y-105570000D01*
X92690000Y-105610000D02*
X90210000Y-105610000D01*
X92872000Y-105650000D02*
X90028000Y-105650000D01*
X93032000Y-105690000D02*
X89868000Y-105690000D01*
X93177000Y-105730000D02*
X89723000Y-105730000D01*
X93310000Y-105770000D02*
X89590000Y-105770000D01*
X93434000Y-105810000D02*
X89466000Y-105810000D01*
X93549000Y-105850000D02*
X89351000Y-105850000D01*
X93658000Y-105890000D02*
X89242000Y-105890000D01*
X93762000Y-105930000D02*
X89138000Y-105930000D01*
X93860000Y-105970000D02*
X89040000Y-105970000D01*
X93954000Y-106010000D02*
X88946000Y-106010000D01*
X94044000Y-106050000D02*
X88856000Y-106050000D01*
X94130000Y-106090000D02*
X88770000Y-106090000D01*
X94213000Y-106130000D02*
X88687000Y-106130000D01*
X94293000Y-106170000D02*
X88607000Y-106170000D01*
X94371000Y-106210000D02*
X88529000Y-106210000D01*
X94446000Y-106250000D02*
X88454000Y-106250000D01*
X94519000Y-106290000D02*
X88381000Y-106290000D01*
X94589000Y-106330000D02*
X88311000Y-106330000D01*
X94658000Y-106370000D02*
X88242000Y-106370000D01*
X94724000Y-106410000D02*
X88176000Y-106410000D01*
X94789000Y-106450000D02*
X88111000Y-106450000D01*
X94852000Y-106490000D02*
X88048000Y-106490000D01*
X94913000Y-106530000D02*
X87987000Y-106530000D01*
X94973000Y-106570000D02*
X87927000Y-106570000D01*
X95025000Y-118667082D02*
X95025000Y-117417082D01*
X95032000Y-106610000D02*
X87868000Y-106610000D01*
X95089000Y-106650000D02*
X87811000Y-106650000D01*
X95145000Y-106690000D02*
X87755000Y-106690000D01*
X95200000Y-106730000D02*
X87700000Y-106730000D01*
X95253000Y-106770000D02*
X87647000Y-106770000D01*
X95306000Y-106810000D02*
X87594000Y-106810000D01*
X95357000Y-106850000D02*
X87543000Y-106850000D01*
X95407000Y-106890000D02*
X87493000Y-106890000D01*
X95456000Y-106930000D02*
X87444000Y-106930000D01*
X95504000Y-106970000D02*
X87396000Y-106970000D01*
X95551000Y-107010000D02*
X87349000Y-107010000D01*
X95598000Y-107050000D02*
X87302000Y-107050000D01*
X95643000Y-107090000D02*
X87257000Y-107090000D01*
X95650000Y-118042082D02*
X94400000Y-118042082D01*
X95688000Y-107130000D02*
X87212000Y-107130000D01*
X95731000Y-107170000D02*
X87169000Y-107170000D01*
X95774000Y-107210000D02*
X87126000Y-107210000D01*
X95816000Y-107250000D02*
X87084000Y-107250000D01*
X95858000Y-107290000D02*
X87042000Y-107290000D01*
X95898000Y-107330000D02*
X87002000Y-107330000D01*
X95938000Y-107370000D02*
X86962000Y-107370000D01*
X95978000Y-107410000D02*
X86922000Y-107410000D01*
X96016000Y-107450000D02*
X86884000Y-107450000D01*
X96054000Y-107490000D02*
X86846000Y-107490000D01*
X96091000Y-107530000D02*
X86809000Y-107530000D01*
X96128000Y-107570000D02*
X86772000Y-107570000D01*
X96164000Y-107610000D02*
X86736000Y-107610000D01*
X96199000Y-107650000D02*
X86701000Y-107650000D01*
X96234000Y-107690000D02*
X86666000Y-107690000D01*
X96268000Y-107730000D02*
X86632000Y-107730000D01*
X96302000Y-107770000D02*
X86598000Y-107770000D01*
X96335000Y-107810000D02*
X86565000Y-107810000D01*
X96368000Y-107850000D02*
X86532000Y-107850000D01*
X96400000Y-107890000D02*
X86500000Y-107890000D01*
X96431000Y-107930000D02*
X92890000Y-107930000D01*
X96462000Y-107970000D02*
X92890000Y-107970000D01*
X96492000Y-108010000D02*
X92890000Y-108010000D01*
X96522000Y-108050000D02*
X92890000Y-108050000D01*
X96552000Y-108090000D02*
X92890000Y-108090000D01*
X96581000Y-108130000D02*
X92890000Y-108130000D01*
X96609000Y-108170000D02*
X92890000Y-108170000D01*
X96638000Y-108210000D02*
X92890000Y-108210000D01*
X96665000Y-108250000D02*
X92890000Y-108250000D01*
X96692000Y-108290000D02*
X92890000Y-108290000D01*
X96719000Y-108330000D02*
X92890000Y-108330000D01*
X96745000Y-108370000D02*
X92890000Y-108370000D01*
X96771000Y-108410000D02*
X92890000Y-108410000D01*
X96797000Y-108450000D02*
X92890000Y-108450000D01*
X96822000Y-108490000D02*
X92890000Y-108490000D01*
X96846000Y-108530000D02*
X92890000Y-108530000D01*
X96871000Y-108570000D02*
X92890000Y-108570000D01*
X96894000Y-108610000D02*
X92890000Y-108610000D01*
X96918000Y-108650000D02*
X92890000Y-108650000D01*
X96941000Y-108690000D02*
X92890000Y-108690000D01*
X96964000Y-108730000D02*
X92890000Y-108730000D01*
X96986000Y-108770000D02*
X92890000Y-108770000D01*
X97008000Y-108810000D02*
X92890000Y-108810000D01*
X97029000Y-108850000D02*
X92890000Y-108850000D01*
X97051000Y-108890000D02*
X92890000Y-108890000D01*
X97071000Y-108930000D02*
X92890000Y-108930000D01*
X97092000Y-108970000D02*
X92890000Y-108970000D01*
X97112000Y-109010000D02*
X92890000Y-109010000D01*
X97132000Y-109050000D02*
X92890000Y-109050000D01*
X97151000Y-109090000D02*
X92890000Y-109090000D01*
X97170000Y-109130000D02*
X92890000Y-109130000D01*
X97189000Y-109170000D02*
X92890000Y-109170000D01*
X97207000Y-109210000D02*
X92890000Y-109210000D01*
X97225000Y-109250000D02*
X92890000Y-109250000D01*
X97243000Y-109290000D02*
X92890000Y-109290000D01*
X97260000Y-109330000D02*
X92890000Y-109330000D01*
X97277000Y-109370000D02*
X92890000Y-109370000D01*
X97294000Y-109410000D02*
X92890000Y-109410000D01*
X97311000Y-109450000D02*
X92890000Y-109450000D01*
X97327000Y-109490000D02*
X92890000Y-109490000D01*
X97342000Y-109530000D02*
X92890000Y-109530000D01*
X97358000Y-109570000D02*
X92890000Y-109570000D01*
X97373000Y-109610000D02*
X92890000Y-109610000D01*
X97388000Y-109650000D02*
X92890000Y-109650000D01*
X97403000Y-109690000D02*
X92890000Y-109690000D01*
X97417000Y-109730000D02*
X92890000Y-109730000D01*
X97431000Y-109770000D02*
X92890000Y-109770000D01*
X97445000Y-109810000D02*
X92890000Y-109810000D01*
X97458000Y-109850000D02*
X92890000Y-109850000D01*
X97471000Y-109890000D02*
X92890000Y-109890000D01*
X97484000Y-109930000D02*
X92890000Y-109930000D01*
X97496000Y-109970000D02*
X92890000Y-109970000D01*
X97508000Y-110010000D02*
X92890000Y-110010000D01*
X97520000Y-110050000D02*
X92890000Y-110050000D01*
X97532000Y-110090000D02*
X92890000Y-110090000D01*
X97543000Y-110130000D02*
X92890000Y-110130000D01*
X97554000Y-110170000D02*
X92890000Y-110170000D01*
X97565000Y-110210000D02*
X92890000Y-110210000D01*
X97576000Y-110250000D02*
X92890000Y-110250000D01*
X97586000Y-110290000D02*
X92890000Y-110290000D01*
X97596000Y-110330000D02*
X92890000Y-110330000D01*
X97606000Y-110370000D02*
X92890000Y-110370000D01*
X97615000Y-110410000D02*
X92890000Y-110410000D01*
X97624000Y-110450000D02*
X92890000Y-110450000D01*
X97633000Y-110490000D02*
X92890000Y-110490000D01*
X97642000Y-110530000D02*
X92890000Y-110530000D01*
X97650000Y-110570000D02*
X92890000Y-110570000D01*
X97658000Y-110610000D02*
X92890000Y-110610000D01*
X97666000Y-110650000D02*
X92890000Y-110650000D01*
X97673000Y-110690000D02*
X92890000Y-110690000D01*
X97681000Y-110730000D02*
X92890000Y-110730000D01*
X97688000Y-110770000D02*
X92890000Y-110770000D01*
X97695000Y-110810000D02*
X85205000Y-110810000D01*
X97701000Y-110850000D02*
X85199000Y-110850000D01*
X97707000Y-110890000D02*
X85193000Y-110890000D01*
X97713000Y-110930000D02*
X85187000Y-110930000D01*
X97719000Y-110970000D02*
X85181000Y-110970000D01*
X97724000Y-111010000D02*
X85176000Y-111010000D01*
X97730000Y-111050000D02*
X85170000Y-111050000D01*
X97734000Y-111090000D02*
X85166000Y-111090000D01*
X97739000Y-111130000D02*
X85161000Y-111130000D01*
X97744000Y-111170000D02*
X85156000Y-111170000D01*
X97748000Y-111210000D02*
X85152000Y-111210000D01*
X97752000Y-111250000D02*
X85148000Y-111250000D01*
X97755000Y-111290000D02*
X85145000Y-111290000D01*
X97759000Y-111330000D02*
X85141000Y-111330000D01*
X97762000Y-111370000D02*
X85138000Y-111370000D01*
X97765000Y-111410000D02*
X85135000Y-111410000D01*
X97767000Y-111450000D02*
X85133000Y-111450000D01*
X97770000Y-111490000D02*
X85130000Y-111490000D01*
X97772000Y-111530000D02*
X85128000Y-111530000D01*
X97774000Y-111570000D02*
X85126000Y-111570000D01*
X97775000Y-111610000D02*
X85125000Y-111610000D01*
X97777000Y-111650000D02*
X85123000Y-111650000D01*
X97778000Y-111690000D02*
X85122000Y-111690000D01*
X97779000Y-111730000D02*
X85121000Y-111730000D01*
X97779000Y-111770000D02*
X85121000Y-111770000D01*
X97780000Y-111810000D02*
X85120000Y-111810000D01*
X97780000Y-111850000D02*
X85120000Y-111850000D01*
X97820000Y-111850000D02*
G75*
G02*
X85080000Y-111850000I-6370000J0D01*
G01*
X85080000Y-111850000D02*
G75*
G02*
X97820000Y-111850000I6370000J0D01*
G01*
%TO.C,R7*%
X130477500Y-133237258D02*
X130477500Y-132762742D01*
X131522500Y-133237258D02*
X131522500Y-132762742D01*
%TO.C,L1*%
X153700000Y-106200000D02*
X153700000Y-118800000D01*
X153700000Y-118800000D02*
X156700000Y-118800000D01*
X156700000Y-106200000D02*
X153700000Y-106200000D01*
X163300000Y-118800000D02*
X166300000Y-118800000D01*
X166300000Y-106200000D02*
X163300000Y-106200000D01*
X166300000Y-118800000D02*
X166300000Y-106200000D01*
%TO.C,R5*%
X126477500Y-133237258D02*
X126477500Y-132762742D01*
X127522500Y-133237258D02*
X127522500Y-132762742D01*
%TO.C,R4*%
X124477500Y-136312258D02*
X124477500Y-135837742D01*
X125522500Y-136312258D02*
X125522500Y-135837742D01*
%TO.C,C3*%
X120360000Y-108330000D02*
X116819000Y-108330000D01*
X120360000Y-108370000D02*
X116788000Y-108370000D01*
X120360000Y-108410000D02*
X116758000Y-108410000D01*
X120360000Y-108450000D02*
X116728000Y-108450000D01*
X120360000Y-108490000D02*
X116698000Y-108490000D01*
X120360000Y-108530000D02*
X116669000Y-108530000D01*
X120360000Y-108570000D02*
X116641000Y-108570000D01*
X120360000Y-108610000D02*
X116612000Y-108610000D01*
X120360000Y-108650000D02*
X116585000Y-108650000D01*
X120360000Y-108690000D02*
X116558000Y-108690000D01*
X120360000Y-108730000D02*
X116531000Y-108730000D01*
X120360000Y-108770000D02*
X116505000Y-108770000D01*
X120360000Y-108810000D02*
X116479000Y-108810000D01*
X120360000Y-108850000D02*
X116453000Y-108850000D01*
X120360000Y-108890000D02*
X116428000Y-108890000D01*
X120360000Y-108930000D02*
X116404000Y-108930000D01*
X120360000Y-108970000D02*
X116379000Y-108970000D01*
X120360000Y-109010000D02*
X116356000Y-109010000D01*
X120360000Y-109050000D02*
X116332000Y-109050000D01*
X120360000Y-109090000D02*
X116309000Y-109090000D01*
X120360000Y-109130000D02*
X116286000Y-109130000D01*
X120360000Y-109170000D02*
X116264000Y-109170000D01*
X120360000Y-109210000D02*
X116242000Y-109210000D01*
X120360000Y-109250000D02*
X116221000Y-109250000D01*
X120360000Y-109290000D02*
X116199000Y-109290000D01*
X120360000Y-109330000D02*
X116179000Y-109330000D01*
X120360000Y-109370000D02*
X116158000Y-109370000D01*
X120360000Y-109410000D02*
X116138000Y-109410000D01*
X120360000Y-109450000D02*
X116118000Y-109450000D01*
X120360000Y-109490000D02*
X116099000Y-109490000D01*
X120360000Y-109530000D02*
X116080000Y-109530000D01*
X120360000Y-109570000D02*
X116061000Y-109570000D01*
X120360000Y-109610000D02*
X116043000Y-109610000D01*
X120360000Y-109650000D02*
X116025000Y-109650000D01*
X120360000Y-109690000D02*
X116007000Y-109690000D01*
X120360000Y-109730000D02*
X115990000Y-109730000D01*
X120360000Y-109770000D02*
X115973000Y-109770000D01*
X120360000Y-109810000D02*
X115956000Y-109810000D01*
X120360000Y-109850000D02*
X115939000Y-109850000D01*
X120360000Y-109890000D02*
X115923000Y-109890000D01*
X120360000Y-109930000D02*
X115908000Y-109930000D01*
X120360000Y-109970000D02*
X115892000Y-109970000D01*
X120360000Y-110010000D02*
X115877000Y-110010000D01*
X120360000Y-110050000D02*
X115862000Y-110050000D01*
X120360000Y-110090000D02*
X115847000Y-110090000D01*
X120360000Y-110130000D02*
X115833000Y-110130000D01*
X120360000Y-110170000D02*
X115819000Y-110170000D01*
X120360000Y-110210000D02*
X115805000Y-110210000D01*
X120360000Y-110250000D02*
X115792000Y-110250000D01*
X120360000Y-110290000D02*
X115779000Y-110290000D01*
X120360000Y-110330000D02*
X115766000Y-110330000D01*
X120360000Y-110370000D02*
X115754000Y-110370000D01*
X120360000Y-110410000D02*
X115742000Y-110410000D01*
X120360000Y-110450000D02*
X115730000Y-110450000D01*
X120360000Y-110490000D02*
X115718000Y-110490000D01*
X120360000Y-110530000D02*
X115707000Y-110530000D01*
X120360000Y-110570000D02*
X115696000Y-110570000D01*
X120360000Y-110610000D02*
X115685000Y-110610000D01*
X120360000Y-110650000D02*
X115674000Y-110650000D01*
X120360000Y-110690000D02*
X115664000Y-110690000D01*
X120360000Y-110730000D02*
X115654000Y-110730000D01*
X120360000Y-110770000D02*
X115644000Y-110770000D01*
X120360000Y-110810000D02*
X115635000Y-110810000D01*
X120360000Y-110850000D02*
X115626000Y-110850000D01*
X120360000Y-110890000D02*
X115617000Y-110890000D01*
X120360000Y-110930000D02*
X115608000Y-110930000D01*
X120360000Y-110970000D02*
X115600000Y-110970000D01*
X120360000Y-111010000D02*
X115592000Y-111010000D01*
X120360000Y-111050000D02*
X115584000Y-111050000D01*
X120360000Y-111090000D02*
X115577000Y-111090000D01*
X120360000Y-111130000D02*
X115569000Y-111130000D01*
X120360000Y-111170000D02*
X115562000Y-111170000D01*
X122117000Y-105890000D02*
X121483000Y-105890000D01*
X122557000Y-105930000D02*
X121043000Y-105930000D01*
X122827000Y-105970000D02*
X120773000Y-105970000D01*
X123040000Y-106010000D02*
X120560000Y-106010000D01*
X123222000Y-106050000D02*
X120378000Y-106050000D01*
X123382000Y-106090000D02*
X120218000Y-106090000D01*
X123527000Y-106130000D02*
X120073000Y-106130000D01*
X123660000Y-106170000D02*
X119940000Y-106170000D01*
X123784000Y-106210000D02*
X119816000Y-106210000D01*
X123899000Y-106250000D02*
X119701000Y-106250000D01*
X124008000Y-106290000D02*
X119592000Y-106290000D01*
X124112000Y-106330000D02*
X119488000Y-106330000D01*
X124210000Y-106370000D02*
X119390000Y-106370000D01*
X124304000Y-106410000D02*
X119296000Y-106410000D01*
X124394000Y-106450000D02*
X119206000Y-106450000D01*
X124480000Y-106490000D02*
X119120000Y-106490000D01*
X124563000Y-106530000D02*
X119037000Y-106530000D01*
X124643000Y-106570000D02*
X118957000Y-106570000D01*
X124721000Y-106610000D02*
X118879000Y-106610000D01*
X124796000Y-106650000D02*
X118804000Y-106650000D01*
X124869000Y-106690000D02*
X118731000Y-106690000D01*
X124939000Y-106730000D02*
X118661000Y-106730000D01*
X125008000Y-106770000D02*
X118592000Y-106770000D01*
X125074000Y-106810000D02*
X118526000Y-106810000D01*
X125139000Y-106850000D02*
X118461000Y-106850000D01*
X125202000Y-106890000D02*
X118398000Y-106890000D01*
X125263000Y-106930000D02*
X118337000Y-106930000D01*
X125323000Y-106970000D02*
X118277000Y-106970000D01*
X125375000Y-119067082D02*
X125375000Y-117817082D01*
X125382000Y-107010000D02*
X118218000Y-107010000D01*
X125439000Y-107050000D02*
X118161000Y-107050000D01*
X125495000Y-107090000D02*
X118105000Y-107090000D01*
X125550000Y-107130000D02*
X118050000Y-107130000D01*
X125603000Y-107170000D02*
X117997000Y-107170000D01*
X125656000Y-107210000D02*
X117944000Y-107210000D01*
X125707000Y-107250000D02*
X117893000Y-107250000D01*
X125757000Y-107290000D02*
X117843000Y-107290000D01*
X125806000Y-107330000D02*
X117794000Y-107330000D01*
X125854000Y-107370000D02*
X117746000Y-107370000D01*
X125901000Y-107410000D02*
X117699000Y-107410000D01*
X125948000Y-107450000D02*
X117652000Y-107450000D01*
X125993000Y-107490000D02*
X117607000Y-107490000D01*
X126000000Y-118442082D02*
X124750000Y-118442082D01*
X126038000Y-107530000D02*
X117562000Y-107530000D01*
X126081000Y-107570000D02*
X117519000Y-107570000D01*
X126124000Y-107610000D02*
X117476000Y-107610000D01*
X126166000Y-107650000D02*
X117434000Y-107650000D01*
X126208000Y-107690000D02*
X117392000Y-107690000D01*
X126248000Y-107730000D02*
X117352000Y-107730000D01*
X126288000Y-107770000D02*
X117312000Y-107770000D01*
X126328000Y-107810000D02*
X117272000Y-107810000D01*
X126366000Y-107850000D02*
X117234000Y-107850000D01*
X126404000Y-107890000D02*
X117196000Y-107890000D01*
X126441000Y-107930000D02*
X117159000Y-107930000D01*
X126478000Y-107970000D02*
X117122000Y-107970000D01*
X126514000Y-108010000D02*
X117086000Y-108010000D01*
X126549000Y-108050000D02*
X117051000Y-108050000D01*
X126584000Y-108090000D02*
X117016000Y-108090000D01*
X126618000Y-108130000D02*
X116982000Y-108130000D01*
X126652000Y-108170000D02*
X116948000Y-108170000D01*
X126685000Y-108210000D02*
X116915000Y-108210000D01*
X126718000Y-108250000D02*
X116882000Y-108250000D01*
X126750000Y-108290000D02*
X116850000Y-108290000D01*
X126781000Y-108330000D02*
X123240000Y-108330000D01*
X126812000Y-108370000D02*
X123240000Y-108370000D01*
X126842000Y-108410000D02*
X123240000Y-108410000D01*
X126872000Y-108450000D02*
X123240000Y-108450000D01*
X126902000Y-108490000D02*
X123240000Y-108490000D01*
X126931000Y-108530000D02*
X123240000Y-108530000D01*
X126959000Y-108570000D02*
X123240000Y-108570000D01*
X126988000Y-108610000D02*
X123240000Y-108610000D01*
X127015000Y-108650000D02*
X123240000Y-108650000D01*
X127042000Y-108690000D02*
X123240000Y-108690000D01*
X127069000Y-108730000D02*
X123240000Y-108730000D01*
X127095000Y-108770000D02*
X123240000Y-108770000D01*
X127121000Y-108810000D02*
X123240000Y-108810000D01*
X127147000Y-108850000D02*
X123240000Y-108850000D01*
X127172000Y-108890000D02*
X123240000Y-108890000D01*
X127196000Y-108930000D02*
X123240000Y-108930000D01*
X127221000Y-108970000D02*
X123240000Y-108970000D01*
X127244000Y-109010000D02*
X123240000Y-109010000D01*
X127268000Y-109050000D02*
X123240000Y-109050000D01*
X127291000Y-109090000D02*
X123240000Y-109090000D01*
X127314000Y-109130000D02*
X123240000Y-109130000D01*
X127336000Y-109170000D02*
X123240000Y-109170000D01*
X127358000Y-109210000D02*
X123240000Y-109210000D01*
X127379000Y-109250000D02*
X123240000Y-109250000D01*
X127401000Y-109290000D02*
X123240000Y-109290000D01*
X127421000Y-109330000D02*
X123240000Y-109330000D01*
X127442000Y-109370000D02*
X123240000Y-109370000D01*
X127462000Y-109410000D02*
X123240000Y-109410000D01*
X127482000Y-109450000D02*
X123240000Y-109450000D01*
X127501000Y-109490000D02*
X123240000Y-109490000D01*
X127520000Y-109530000D02*
X123240000Y-109530000D01*
X127539000Y-109570000D02*
X123240000Y-109570000D01*
X127557000Y-109610000D02*
X123240000Y-109610000D01*
X127575000Y-109650000D02*
X123240000Y-109650000D01*
X127593000Y-109690000D02*
X123240000Y-109690000D01*
X127610000Y-109730000D02*
X123240000Y-109730000D01*
X127627000Y-109770000D02*
X123240000Y-109770000D01*
X127644000Y-109810000D02*
X123240000Y-109810000D01*
X127661000Y-109850000D02*
X123240000Y-109850000D01*
X127677000Y-109890000D02*
X123240000Y-109890000D01*
X127692000Y-109930000D02*
X123240000Y-109930000D01*
X127708000Y-109970000D02*
X123240000Y-109970000D01*
X127723000Y-110010000D02*
X123240000Y-110010000D01*
X127738000Y-110050000D02*
X123240000Y-110050000D01*
X127753000Y-110090000D02*
X123240000Y-110090000D01*
X127767000Y-110130000D02*
X123240000Y-110130000D01*
X127781000Y-110170000D02*
X123240000Y-110170000D01*
X127795000Y-110210000D02*
X123240000Y-110210000D01*
X127808000Y-110250000D02*
X123240000Y-110250000D01*
X127821000Y-110290000D02*
X123240000Y-110290000D01*
X127834000Y-110330000D02*
X123240000Y-110330000D01*
X127846000Y-110370000D02*
X123240000Y-110370000D01*
X127858000Y-110410000D02*
X123240000Y-110410000D01*
X127870000Y-110450000D02*
X123240000Y-110450000D01*
X127882000Y-110490000D02*
X123240000Y-110490000D01*
X127893000Y-110530000D02*
X123240000Y-110530000D01*
X127904000Y-110570000D02*
X123240000Y-110570000D01*
X127915000Y-110610000D02*
X123240000Y-110610000D01*
X127926000Y-110650000D02*
X123240000Y-110650000D01*
X127936000Y-110690000D02*
X123240000Y-110690000D01*
X127946000Y-110730000D02*
X123240000Y-110730000D01*
X127956000Y-110770000D02*
X123240000Y-110770000D01*
X127965000Y-110810000D02*
X123240000Y-110810000D01*
X127974000Y-110850000D02*
X123240000Y-110850000D01*
X127983000Y-110890000D02*
X123240000Y-110890000D01*
X127992000Y-110930000D02*
X123240000Y-110930000D01*
X128000000Y-110970000D02*
X123240000Y-110970000D01*
X128008000Y-111010000D02*
X123240000Y-111010000D01*
X128016000Y-111050000D02*
X123240000Y-111050000D01*
X128023000Y-111090000D02*
X123240000Y-111090000D01*
X128031000Y-111130000D02*
X123240000Y-111130000D01*
X128038000Y-111170000D02*
X123240000Y-111170000D01*
X128045000Y-111210000D02*
X115555000Y-111210000D01*
X128051000Y-111250000D02*
X115549000Y-111250000D01*
X128057000Y-111290000D02*
X115543000Y-111290000D01*
X128063000Y-111330000D02*
X115537000Y-111330000D01*
X128069000Y-111370000D02*
X115531000Y-111370000D01*
X128074000Y-111410000D02*
X115526000Y-111410000D01*
X128080000Y-111450000D02*
X115520000Y-111450000D01*
X128084000Y-111490000D02*
X115516000Y-111490000D01*
X128089000Y-111530000D02*
X115511000Y-111530000D01*
X128094000Y-111570000D02*
X115506000Y-111570000D01*
X128098000Y-111610000D02*
X115502000Y-111610000D01*
X128102000Y-111650000D02*
X115498000Y-111650000D01*
X128105000Y-111690000D02*
X115495000Y-111690000D01*
X128109000Y-111730000D02*
X115491000Y-111730000D01*
X128112000Y-111770000D02*
X115488000Y-111770000D01*
X128115000Y-111810000D02*
X115485000Y-111810000D01*
X128117000Y-111850000D02*
X115483000Y-111850000D01*
X128120000Y-111890000D02*
X115480000Y-111890000D01*
X128122000Y-111930000D02*
X115478000Y-111930000D01*
X128124000Y-111970000D02*
X115476000Y-111970000D01*
X128125000Y-112010000D02*
X115475000Y-112010000D01*
X128127000Y-112050000D02*
X115473000Y-112050000D01*
X128128000Y-112090000D02*
X115472000Y-112090000D01*
X128129000Y-112130000D02*
X115471000Y-112130000D01*
X128129000Y-112170000D02*
X115471000Y-112170000D01*
X128130000Y-112210000D02*
X115470000Y-112210000D01*
X128130000Y-112250000D02*
X115470000Y-112250000D01*
X128170000Y-112250000D02*
G75*
G02*
X115430000Y-112250000I-6370000J0D01*
G01*
X115430000Y-112250000D02*
G75*
G02*
X128170000Y-112250000I6370000J0D01*
G01*
%TO.C,R3*%
X122477500Y-133237258D02*
X122477500Y-132762742D01*
X123522500Y-133237258D02*
X123522500Y-132762742D01*
%TO.C,R11*%
X138477500Y-133262258D02*
X138477500Y-132787742D01*
X139522500Y-133262258D02*
X139522500Y-132787742D01*
%TO.C,C4*%
X163560000Y-54880000D02*
X160019000Y-54880000D01*
X163560000Y-54920000D02*
X159988000Y-54920000D01*
X163560000Y-54960000D02*
X159958000Y-54960000D01*
X163560000Y-55000000D02*
X159928000Y-55000000D01*
X163560000Y-55040000D02*
X159898000Y-55040000D01*
X163560000Y-55080000D02*
X159869000Y-55080000D01*
X163560000Y-55120000D02*
X159841000Y-55120000D01*
X163560000Y-55160000D02*
X159812000Y-55160000D01*
X163560000Y-55200000D02*
X159785000Y-55200000D01*
X163560000Y-55240000D02*
X159758000Y-55240000D01*
X163560000Y-55280000D02*
X159731000Y-55280000D01*
X163560000Y-55320000D02*
X159705000Y-55320000D01*
X163560000Y-55360000D02*
X159679000Y-55360000D01*
X163560000Y-55400000D02*
X159653000Y-55400000D01*
X163560000Y-55440000D02*
X159628000Y-55440000D01*
X163560000Y-55480000D02*
X159604000Y-55480000D01*
X163560000Y-55520000D02*
X159579000Y-55520000D01*
X163560000Y-55560000D02*
X159556000Y-55560000D01*
X163560000Y-55600000D02*
X159532000Y-55600000D01*
X163560000Y-55640000D02*
X159509000Y-55640000D01*
X163560000Y-55680000D02*
X159486000Y-55680000D01*
X163560000Y-55720000D02*
X159464000Y-55720000D01*
X163560000Y-55760000D02*
X159442000Y-55760000D01*
X163560000Y-55800000D02*
X159421000Y-55800000D01*
X163560000Y-55840000D02*
X159399000Y-55840000D01*
X163560000Y-55880000D02*
X159379000Y-55880000D01*
X163560000Y-55920000D02*
X159358000Y-55920000D01*
X163560000Y-55960000D02*
X159338000Y-55960000D01*
X163560000Y-56000000D02*
X159318000Y-56000000D01*
X163560000Y-56040000D02*
X159299000Y-56040000D01*
X163560000Y-56080000D02*
X159280000Y-56080000D01*
X163560000Y-56120000D02*
X159261000Y-56120000D01*
X163560000Y-56160000D02*
X159243000Y-56160000D01*
X163560000Y-56200000D02*
X159225000Y-56200000D01*
X163560000Y-56240000D02*
X159207000Y-56240000D01*
X163560000Y-56280000D02*
X159190000Y-56280000D01*
X163560000Y-56320000D02*
X159173000Y-56320000D01*
X163560000Y-56360000D02*
X159156000Y-56360000D01*
X163560000Y-56400000D02*
X159139000Y-56400000D01*
X163560000Y-56440000D02*
X159123000Y-56440000D01*
X163560000Y-56480000D02*
X159108000Y-56480000D01*
X163560000Y-56520000D02*
X159092000Y-56520000D01*
X163560000Y-56560000D02*
X159077000Y-56560000D01*
X163560000Y-56600000D02*
X159062000Y-56600000D01*
X163560000Y-56640000D02*
X159047000Y-56640000D01*
X163560000Y-56680000D02*
X159033000Y-56680000D01*
X163560000Y-56720000D02*
X159019000Y-56720000D01*
X163560000Y-56760000D02*
X159005000Y-56760000D01*
X163560000Y-56800000D02*
X158992000Y-56800000D01*
X163560000Y-56840000D02*
X158979000Y-56840000D01*
X163560000Y-56880000D02*
X158966000Y-56880000D01*
X163560000Y-56920000D02*
X158954000Y-56920000D01*
X163560000Y-56960000D02*
X158942000Y-56960000D01*
X163560000Y-57000000D02*
X158930000Y-57000000D01*
X163560000Y-57040000D02*
X158918000Y-57040000D01*
X163560000Y-57080000D02*
X158907000Y-57080000D01*
X163560000Y-57120000D02*
X158896000Y-57120000D01*
X163560000Y-57160000D02*
X158885000Y-57160000D01*
X163560000Y-57200000D02*
X158874000Y-57200000D01*
X163560000Y-57240000D02*
X158864000Y-57240000D01*
X163560000Y-57280000D02*
X158854000Y-57280000D01*
X163560000Y-57320000D02*
X158844000Y-57320000D01*
X163560000Y-57360000D02*
X158835000Y-57360000D01*
X163560000Y-57400000D02*
X158826000Y-57400000D01*
X163560000Y-57440000D02*
X158817000Y-57440000D01*
X163560000Y-57480000D02*
X158808000Y-57480000D01*
X163560000Y-57520000D02*
X158800000Y-57520000D01*
X163560000Y-57560000D02*
X158792000Y-57560000D01*
X163560000Y-57600000D02*
X158784000Y-57600000D01*
X163560000Y-57640000D02*
X158777000Y-57640000D01*
X163560000Y-57680000D02*
X158769000Y-57680000D01*
X163560000Y-57720000D02*
X158762000Y-57720000D01*
X165317000Y-52440000D02*
X164683000Y-52440000D01*
X165757000Y-52480000D02*
X164243000Y-52480000D01*
X166027000Y-52520000D02*
X163973000Y-52520000D01*
X166240000Y-52560000D02*
X163760000Y-52560000D01*
X166422000Y-52600000D02*
X163578000Y-52600000D01*
X166582000Y-52640000D02*
X163418000Y-52640000D01*
X166727000Y-52680000D02*
X163273000Y-52680000D01*
X166860000Y-52720000D02*
X163140000Y-52720000D01*
X166984000Y-52760000D02*
X163016000Y-52760000D01*
X167099000Y-52800000D02*
X162901000Y-52800000D01*
X167208000Y-52840000D02*
X162792000Y-52840000D01*
X167312000Y-52880000D02*
X162688000Y-52880000D01*
X167410000Y-52920000D02*
X162590000Y-52920000D01*
X167504000Y-52960000D02*
X162496000Y-52960000D01*
X167594000Y-53000000D02*
X162406000Y-53000000D01*
X167680000Y-53040000D02*
X162320000Y-53040000D01*
X167763000Y-53080000D02*
X162237000Y-53080000D01*
X167843000Y-53120000D02*
X162157000Y-53120000D01*
X167921000Y-53160000D02*
X162079000Y-53160000D01*
X167996000Y-53200000D02*
X162004000Y-53200000D01*
X168069000Y-53240000D02*
X161931000Y-53240000D01*
X168139000Y-53280000D02*
X161861000Y-53280000D01*
X168208000Y-53320000D02*
X161792000Y-53320000D01*
X168274000Y-53360000D02*
X161726000Y-53360000D01*
X168339000Y-53400000D02*
X161661000Y-53400000D01*
X168402000Y-53440000D02*
X161598000Y-53440000D01*
X168463000Y-53480000D02*
X161537000Y-53480000D01*
X168523000Y-53520000D02*
X161477000Y-53520000D01*
X168575000Y-65617082D02*
X168575000Y-64367082D01*
X168582000Y-53560000D02*
X161418000Y-53560000D01*
X168639000Y-53600000D02*
X161361000Y-53600000D01*
X168695000Y-53640000D02*
X161305000Y-53640000D01*
X168750000Y-53680000D02*
X161250000Y-53680000D01*
X168803000Y-53720000D02*
X161197000Y-53720000D01*
X168856000Y-53760000D02*
X161144000Y-53760000D01*
X168907000Y-53800000D02*
X161093000Y-53800000D01*
X168957000Y-53840000D02*
X161043000Y-53840000D01*
X169006000Y-53880000D02*
X160994000Y-53880000D01*
X169054000Y-53920000D02*
X160946000Y-53920000D01*
X169101000Y-53960000D02*
X160899000Y-53960000D01*
X169148000Y-54000000D02*
X160852000Y-54000000D01*
X169193000Y-54040000D02*
X160807000Y-54040000D01*
X169200000Y-64992082D02*
X167950000Y-64992082D01*
X169238000Y-54080000D02*
X160762000Y-54080000D01*
X169281000Y-54120000D02*
X160719000Y-54120000D01*
X169324000Y-54160000D02*
X160676000Y-54160000D01*
X169366000Y-54200000D02*
X160634000Y-54200000D01*
X169408000Y-54240000D02*
X160592000Y-54240000D01*
X169448000Y-54280000D02*
X160552000Y-54280000D01*
X169488000Y-54320000D02*
X160512000Y-54320000D01*
X169528000Y-54360000D02*
X160472000Y-54360000D01*
X169566000Y-54400000D02*
X160434000Y-54400000D01*
X169604000Y-54440000D02*
X160396000Y-54440000D01*
X169641000Y-54480000D02*
X160359000Y-54480000D01*
X169678000Y-54520000D02*
X160322000Y-54520000D01*
X169714000Y-54560000D02*
X160286000Y-54560000D01*
X169749000Y-54600000D02*
X160251000Y-54600000D01*
X169784000Y-54640000D02*
X160216000Y-54640000D01*
X169818000Y-54680000D02*
X160182000Y-54680000D01*
X169852000Y-54720000D02*
X160148000Y-54720000D01*
X169885000Y-54760000D02*
X160115000Y-54760000D01*
X169918000Y-54800000D02*
X160082000Y-54800000D01*
X169950000Y-54840000D02*
X160050000Y-54840000D01*
X169981000Y-54880000D02*
X166440000Y-54880000D01*
X170012000Y-54920000D02*
X166440000Y-54920000D01*
X170042000Y-54960000D02*
X166440000Y-54960000D01*
X170072000Y-55000000D02*
X166440000Y-55000000D01*
X170102000Y-55040000D02*
X166440000Y-55040000D01*
X170131000Y-55080000D02*
X166440000Y-55080000D01*
X170159000Y-55120000D02*
X166440000Y-55120000D01*
X170188000Y-55160000D02*
X166440000Y-55160000D01*
X170215000Y-55200000D02*
X166440000Y-55200000D01*
X170242000Y-55240000D02*
X166440000Y-55240000D01*
X170269000Y-55280000D02*
X166440000Y-55280000D01*
X170295000Y-55320000D02*
X166440000Y-55320000D01*
X170321000Y-55360000D02*
X166440000Y-55360000D01*
X170347000Y-55400000D02*
X166440000Y-55400000D01*
X170372000Y-55440000D02*
X166440000Y-55440000D01*
X170396000Y-55480000D02*
X166440000Y-55480000D01*
X170421000Y-55520000D02*
X166440000Y-55520000D01*
X170444000Y-55560000D02*
X166440000Y-55560000D01*
X170468000Y-55600000D02*
X166440000Y-55600000D01*
X170491000Y-55640000D02*
X166440000Y-55640000D01*
X170514000Y-55680000D02*
X166440000Y-55680000D01*
X170536000Y-55720000D02*
X166440000Y-55720000D01*
X170558000Y-55760000D02*
X166440000Y-55760000D01*
X170579000Y-55800000D02*
X166440000Y-55800000D01*
X170601000Y-55840000D02*
X166440000Y-55840000D01*
X170621000Y-55880000D02*
X166440000Y-55880000D01*
X170642000Y-55920000D02*
X166440000Y-55920000D01*
X170662000Y-55960000D02*
X166440000Y-55960000D01*
X170682000Y-56000000D02*
X166440000Y-56000000D01*
X170701000Y-56040000D02*
X166440000Y-56040000D01*
X170720000Y-56080000D02*
X166440000Y-56080000D01*
X170739000Y-56120000D02*
X166440000Y-56120000D01*
X170757000Y-56160000D02*
X166440000Y-56160000D01*
X170775000Y-56200000D02*
X166440000Y-56200000D01*
X170793000Y-56240000D02*
X166440000Y-56240000D01*
X170810000Y-56280000D02*
X166440000Y-56280000D01*
X170827000Y-56320000D02*
X166440000Y-56320000D01*
X170844000Y-56360000D02*
X166440000Y-56360000D01*
X170861000Y-56400000D02*
X166440000Y-56400000D01*
X170877000Y-56440000D02*
X166440000Y-56440000D01*
X170892000Y-56480000D02*
X166440000Y-56480000D01*
X170908000Y-56520000D02*
X166440000Y-56520000D01*
X170923000Y-56560000D02*
X166440000Y-56560000D01*
X170938000Y-56600000D02*
X166440000Y-56600000D01*
X170953000Y-56640000D02*
X166440000Y-56640000D01*
X170967000Y-56680000D02*
X166440000Y-56680000D01*
X170981000Y-56720000D02*
X166440000Y-56720000D01*
X170995000Y-56760000D02*
X166440000Y-56760000D01*
X171008000Y-56800000D02*
X166440000Y-56800000D01*
X171021000Y-56840000D02*
X166440000Y-56840000D01*
X171034000Y-56880000D02*
X166440000Y-56880000D01*
X171046000Y-56920000D02*
X166440000Y-56920000D01*
X171058000Y-56960000D02*
X166440000Y-56960000D01*
X171070000Y-57000000D02*
X166440000Y-57000000D01*
X171082000Y-57040000D02*
X166440000Y-57040000D01*
X171093000Y-57080000D02*
X166440000Y-57080000D01*
X171104000Y-57120000D02*
X166440000Y-57120000D01*
X171115000Y-57160000D02*
X166440000Y-57160000D01*
X171126000Y-57200000D02*
X166440000Y-57200000D01*
X171136000Y-57240000D02*
X166440000Y-57240000D01*
X171146000Y-57280000D02*
X166440000Y-57280000D01*
X171156000Y-57320000D02*
X166440000Y-57320000D01*
X171165000Y-57360000D02*
X166440000Y-57360000D01*
X171174000Y-57400000D02*
X166440000Y-57400000D01*
X171183000Y-57440000D02*
X166440000Y-57440000D01*
X171192000Y-57480000D02*
X166440000Y-57480000D01*
X171200000Y-57520000D02*
X166440000Y-57520000D01*
X171208000Y-57560000D02*
X166440000Y-57560000D01*
X171216000Y-57600000D02*
X166440000Y-57600000D01*
X171223000Y-57640000D02*
X166440000Y-57640000D01*
X171231000Y-57680000D02*
X166440000Y-57680000D01*
X171238000Y-57720000D02*
X166440000Y-57720000D01*
X171245000Y-57760000D02*
X158755000Y-57760000D01*
X171251000Y-57800000D02*
X158749000Y-57800000D01*
X171257000Y-57840000D02*
X158743000Y-57840000D01*
X171263000Y-57880000D02*
X158737000Y-57880000D01*
X171269000Y-57920000D02*
X158731000Y-57920000D01*
X171274000Y-57960000D02*
X158726000Y-57960000D01*
X171280000Y-58000000D02*
X158720000Y-58000000D01*
X171284000Y-58040000D02*
X158716000Y-58040000D01*
X171289000Y-58080000D02*
X158711000Y-58080000D01*
X171294000Y-58120000D02*
X158706000Y-58120000D01*
X171298000Y-58160000D02*
X158702000Y-58160000D01*
X171302000Y-58200000D02*
X158698000Y-58200000D01*
X171305000Y-58240000D02*
X158695000Y-58240000D01*
X171309000Y-58280000D02*
X158691000Y-58280000D01*
X171312000Y-58320000D02*
X158688000Y-58320000D01*
X171315000Y-58360000D02*
X158685000Y-58360000D01*
X171317000Y-58400000D02*
X158683000Y-58400000D01*
X171320000Y-58440000D02*
X158680000Y-58440000D01*
X171322000Y-58480000D02*
X158678000Y-58480000D01*
X171324000Y-58520000D02*
X158676000Y-58520000D01*
X171325000Y-58560000D02*
X158675000Y-58560000D01*
X171327000Y-58600000D02*
X158673000Y-58600000D01*
X171328000Y-58640000D02*
X158672000Y-58640000D01*
X171329000Y-58680000D02*
X158671000Y-58680000D01*
X171329000Y-58720000D02*
X158671000Y-58720000D01*
X171330000Y-58760000D02*
X158670000Y-58760000D01*
X171330000Y-58800000D02*
X158670000Y-58800000D01*
X171370000Y-58800000D02*
G75*
G02*
X158630000Y-58800000I-6370000J0D01*
G01*
X158630000Y-58800000D02*
G75*
G02*
X171370000Y-58800000I6370000J0D01*
G01*
%TO.C,R6*%
X128477500Y-136362258D02*
X128477500Y-135887742D01*
X129522500Y-136362258D02*
X129522500Y-135887742D01*
%TO.C,R15*%
X127127500Y-127212258D02*
X127127500Y-126737742D01*
X128172500Y-127212258D02*
X128172500Y-126737742D01*
%TO.C,R14*%
X132427500Y-136562258D02*
X132427500Y-136087742D01*
X133472500Y-136562258D02*
X133472500Y-136087742D01*
%TO.C,C7*%
X123990000Y-127165580D02*
X123990000Y-126884420D01*
X125010000Y-127165580D02*
X125010000Y-126884420D01*
%TO.C,C5*%
X173670000Y-82500000D02*
X186330000Y-82500000D01*
X173670000Y-82540000D02*
X186330000Y-82540000D01*
X173671000Y-82580000D02*
X186329000Y-82580000D01*
X173671000Y-82620000D02*
X186329000Y-82620000D01*
X173672000Y-82660000D02*
X186328000Y-82660000D01*
X173673000Y-82700000D02*
X186327000Y-82700000D01*
X173675000Y-82740000D02*
X186325000Y-82740000D01*
X173676000Y-82780000D02*
X186324000Y-82780000D01*
X173678000Y-82820000D02*
X186322000Y-82820000D01*
X173680000Y-82860000D02*
X186320000Y-82860000D01*
X173683000Y-82900000D02*
X186317000Y-82900000D01*
X173685000Y-82940000D02*
X186315000Y-82940000D01*
X173688000Y-82980000D02*
X186312000Y-82980000D01*
X173691000Y-83020000D02*
X186309000Y-83020000D01*
X173695000Y-83060000D02*
X186305000Y-83060000D01*
X173698000Y-83100000D02*
X186302000Y-83100000D01*
X173702000Y-83140000D02*
X186298000Y-83140000D01*
X173706000Y-83180000D02*
X186294000Y-83180000D01*
X173711000Y-83220000D02*
X186289000Y-83220000D01*
X173716000Y-83260000D02*
X186284000Y-83260000D01*
X173720000Y-83300000D02*
X186280000Y-83300000D01*
X173726000Y-83340000D02*
X186274000Y-83340000D01*
X173731000Y-83380000D02*
X186269000Y-83380000D01*
X173737000Y-83420000D02*
X186263000Y-83420000D01*
X173743000Y-83460000D02*
X186257000Y-83460000D01*
X173749000Y-83500000D02*
X186251000Y-83500000D01*
X173755000Y-83540000D02*
X186245000Y-83540000D01*
X173762000Y-83580000D02*
X178560000Y-83580000D01*
X173769000Y-83620000D02*
X178560000Y-83620000D01*
X173777000Y-83660000D02*
X178560000Y-83660000D01*
X173784000Y-83700000D02*
X178560000Y-83700000D01*
X173792000Y-83740000D02*
X178560000Y-83740000D01*
X173800000Y-83780000D02*
X178560000Y-83780000D01*
X173808000Y-83820000D02*
X178560000Y-83820000D01*
X173817000Y-83860000D02*
X178560000Y-83860000D01*
X173826000Y-83900000D02*
X178560000Y-83900000D01*
X173835000Y-83940000D02*
X178560000Y-83940000D01*
X173844000Y-83980000D02*
X178560000Y-83980000D01*
X173854000Y-84020000D02*
X178560000Y-84020000D01*
X173864000Y-84060000D02*
X178560000Y-84060000D01*
X173874000Y-84100000D02*
X178560000Y-84100000D01*
X173885000Y-84140000D02*
X178560000Y-84140000D01*
X173896000Y-84180000D02*
X178560000Y-84180000D01*
X173907000Y-84220000D02*
X178560000Y-84220000D01*
X173918000Y-84260000D02*
X178560000Y-84260000D01*
X173930000Y-84300000D02*
X178560000Y-84300000D01*
X173942000Y-84340000D02*
X178560000Y-84340000D01*
X173954000Y-84380000D02*
X178560000Y-84380000D01*
X173966000Y-84420000D02*
X178560000Y-84420000D01*
X173979000Y-84460000D02*
X178560000Y-84460000D01*
X173992000Y-84500000D02*
X178560000Y-84500000D01*
X174005000Y-84540000D02*
X178560000Y-84540000D01*
X174019000Y-84580000D02*
X178560000Y-84580000D01*
X174033000Y-84620000D02*
X178560000Y-84620000D01*
X174047000Y-84660000D02*
X178560000Y-84660000D01*
X174062000Y-84700000D02*
X178560000Y-84700000D01*
X174077000Y-84740000D02*
X178560000Y-84740000D01*
X174092000Y-84780000D02*
X178560000Y-84780000D01*
X174108000Y-84820000D02*
X178560000Y-84820000D01*
X174123000Y-84860000D02*
X178560000Y-84860000D01*
X174139000Y-84900000D02*
X178560000Y-84900000D01*
X174156000Y-84940000D02*
X178560000Y-84940000D01*
X174173000Y-84980000D02*
X178560000Y-84980000D01*
X174190000Y-85020000D02*
X178560000Y-85020000D01*
X174207000Y-85060000D02*
X178560000Y-85060000D01*
X174225000Y-85100000D02*
X178560000Y-85100000D01*
X174243000Y-85140000D02*
X178560000Y-85140000D01*
X174261000Y-85180000D02*
X178560000Y-85180000D01*
X174280000Y-85220000D02*
X178560000Y-85220000D01*
X174299000Y-85260000D02*
X178560000Y-85260000D01*
X174318000Y-85300000D02*
X178560000Y-85300000D01*
X174338000Y-85340000D02*
X178560000Y-85340000D01*
X174358000Y-85380000D02*
X178560000Y-85380000D01*
X174379000Y-85420000D02*
X178560000Y-85420000D01*
X174399000Y-85460000D02*
X178560000Y-85460000D01*
X174421000Y-85500000D02*
X178560000Y-85500000D01*
X174442000Y-85540000D02*
X178560000Y-85540000D01*
X174464000Y-85580000D02*
X178560000Y-85580000D01*
X174486000Y-85620000D02*
X178560000Y-85620000D01*
X174509000Y-85660000D02*
X178560000Y-85660000D01*
X174532000Y-85700000D02*
X178560000Y-85700000D01*
X174556000Y-85740000D02*
X178560000Y-85740000D01*
X174579000Y-85780000D02*
X178560000Y-85780000D01*
X174604000Y-85820000D02*
X178560000Y-85820000D01*
X174628000Y-85860000D02*
X178560000Y-85860000D01*
X174653000Y-85900000D02*
X178560000Y-85900000D01*
X174679000Y-85940000D02*
X178560000Y-85940000D01*
X174705000Y-85980000D02*
X178560000Y-85980000D01*
X174731000Y-86020000D02*
X178560000Y-86020000D01*
X174758000Y-86060000D02*
X178560000Y-86060000D01*
X174785000Y-86100000D02*
X178560000Y-86100000D01*
X174812000Y-86140000D02*
X178560000Y-86140000D01*
X174841000Y-86180000D02*
X178560000Y-86180000D01*
X174869000Y-86220000D02*
X178560000Y-86220000D01*
X174898000Y-86260000D02*
X178560000Y-86260000D01*
X174928000Y-86300000D02*
X178560000Y-86300000D01*
X174958000Y-86340000D02*
X178560000Y-86340000D01*
X174988000Y-86380000D02*
X178560000Y-86380000D01*
X175019000Y-86420000D02*
X178560000Y-86420000D01*
X175050000Y-86460000D02*
X184950000Y-86460000D01*
X175082000Y-86500000D02*
X184918000Y-86500000D01*
X175115000Y-86540000D02*
X184885000Y-86540000D01*
X175148000Y-86580000D02*
X184852000Y-86580000D01*
X175182000Y-86620000D02*
X184818000Y-86620000D01*
X175216000Y-86660000D02*
X184784000Y-86660000D01*
X175251000Y-86700000D02*
X184749000Y-86700000D01*
X175286000Y-86740000D02*
X184714000Y-86740000D01*
X175322000Y-86780000D02*
X184678000Y-86780000D01*
X175359000Y-86820000D02*
X184641000Y-86820000D01*
X175396000Y-86860000D02*
X184604000Y-86860000D01*
X175434000Y-86900000D02*
X184566000Y-86900000D01*
X175472000Y-86940000D02*
X184528000Y-86940000D01*
X175512000Y-86980000D02*
X184488000Y-86980000D01*
X175552000Y-87020000D02*
X184448000Y-87020000D01*
X175592000Y-87060000D02*
X184408000Y-87060000D01*
X175634000Y-87100000D02*
X184366000Y-87100000D01*
X175676000Y-87140000D02*
X184324000Y-87140000D01*
X175719000Y-87180000D02*
X184281000Y-87180000D01*
X175762000Y-87220000D02*
X184238000Y-87220000D01*
X175800000Y-76307918D02*
X177050000Y-76307918D01*
X175807000Y-87260000D02*
X184193000Y-87260000D01*
X175852000Y-87300000D02*
X184148000Y-87300000D01*
X175899000Y-87340000D02*
X184101000Y-87340000D01*
X175946000Y-87380000D02*
X184054000Y-87380000D01*
X175994000Y-87420000D02*
X184006000Y-87420000D01*
X176043000Y-87460000D02*
X183957000Y-87460000D01*
X176093000Y-87500000D02*
X183907000Y-87500000D01*
X176144000Y-87540000D02*
X183856000Y-87540000D01*
X176197000Y-87580000D02*
X183803000Y-87580000D01*
X176250000Y-87620000D02*
X183750000Y-87620000D01*
X176305000Y-87660000D02*
X183695000Y-87660000D01*
X176361000Y-87700000D02*
X183639000Y-87700000D01*
X176418000Y-87740000D02*
X183582000Y-87740000D01*
X176425000Y-75682918D02*
X176425000Y-76932918D01*
X176477000Y-87780000D02*
X183523000Y-87780000D01*
X176537000Y-87820000D02*
X183463000Y-87820000D01*
X176598000Y-87860000D02*
X183402000Y-87860000D01*
X176661000Y-87900000D02*
X183339000Y-87900000D01*
X176726000Y-87940000D02*
X183274000Y-87940000D01*
X176792000Y-87980000D02*
X183208000Y-87980000D01*
X176861000Y-88020000D02*
X183139000Y-88020000D01*
X176931000Y-88060000D02*
X183069000Y-88060000D01*
X177004000Y-88100000D02*
X182996000Y-88100000D01*
X177079000Y-88140000D02*
X182921000Y-88140000D01*
X177157000Y-88180000D02*
X182843000Y-88180000D01*
X177237000Y-88220000D02*
X182763000Y-88220000D01*
X177320000Y-88260000D02*
X182680000Y-88260000D01*
X177406000Y-88300000D02*
X182594000Y-88300000D01*
X177496000Y-88340000D02*
X182504000Y-88340000D01*
X177590000Y-88380000D02*
X182410000Y-88380000D01*
X177688000Y-88420000D02*
X182312000Y-88420000D01*
X177792000Y-88460000D02*
X182208000Y-88460000D01*
X177901000Y-88500000D02*
X182099000Y-88500000D01*
X178016000Y-88540000D02*
X181984000Y-88540000D01*
X178140000Y-88580000D02*
X181860000Y-88580000D01*
X178273000Y-88620000D02*
X181727000Y-88620000D01*
X178418000Y-88660000D02*
X181582000Y-88660000D01*
X178578000Y-88700000D02*
X181422000Y-88700000D01*
X178760000Y-88740000D02*
X181240000Y-88740000D01*
X178973000Y-88780000D02*
X181027000Y-88780000D01*
X179243000Y-88820000D02*
X180757000Y-88820000D01*
X179683000Y-88860000D02*
X180317000Y-88860000D01*
X181440000Y-83580000D02*
X186238000Y-83580000D01*
X181440000Y-83620000D02*
X186231000Y-83620000D01*
X181440000Y-83660000D02*
X186223000Y-83660000D01*
X181440000Y-83700000D02*
X186216000Y-83700000D01*
X181440000Y-83740000D02*
X186208000Y-83740000D01*
X181440000Y-83780000D02*
X186200000Y-83780000D01*
X181440000Y-83820000D02*
X186192000Y-83820000D01*
X181440000Y-83860000D02*
X186183000Y-83860000D01*
X181440000Y-83900000D02*
X186174000Y-83900000D01*
X181440000Y-83940000D02*
X186165000Y-83940000D01*
X181440000Y-83980000D02*
X186156000Y-83980000D01*
X181440000Y-84020000D02*
X186146000Y-84020000D01*
X181440000Y-84060000D02*
X186136000Y-84060000D01*
X181440000Y-84100000D02*
X186126000Y-84100000D01*
X181440000Y-84140000D02*
X186115000Y-84140000D01*
X181440000Y-84180000D02*
X186104000Y-84180000D01*
X181440000Y-84220000D02*
X186093000Y-84220000D01*
X181440000Y-84260000D02*
X186082000Y-84260000D01*
X181440000Y-84300000D02*
X186070000Y-84300000D01*
X181440000Y-84340000D02*
X186058000Y-84340000D01*
X181440000Y-84380000D02*
X186046000Y-84380000D01*
X181440000Y-84420000D02*
X186034000Y-84420000D01*
X181440000Y-84460000D02*
X186021000Y-84460000D01*
X181440000Y-84500000D02*
X186008000Y-84500000D01*
X181440000Y-84540000D02*
X185995000Y-84540000D01*
X181440000Y-84580000D02*
X185981000Y-84580000D01*
X181440000Y-84620000D02*
X185967000Y-84620000D01*
X181440000Y-84660000D02*
X185953000Y-84660000D01*
X181440000Y-84700000D02*
X185938000Y-84700000D01*
X181440000Y-84740000D02*
X185923000Y-84740000D01*
X181440000Y-84780000D02*
X185908000Y-84780000D01*
X181440000Y-84820000D02*
X185892000Y-84820000D01*
X181440000Y-84860000D02*
X185877000Y-84860000D01*
X181440000Y-84900000D02*
X185861000Y-84900000D01*
X181440000Y-84940000D02*
X185844000Y-84940000D01*
X181440000Y-84980000D02*
X185827000Y-84980000D01*
X181440000Y-85020000D02*
X185810000Y-85020000D01*
X181440000Y-85060000D02*
X185793000Y-85060000D01*
X181440000Y-85100000D02*
X185775000Y-85100000D01*
X181440000Y-85140000D02*
X185757000Y-85140000D01*
X181440000Y-85180000D02*
X185739000Y-85180000D01*
X181440000Y-85220000D02*
X185720000Y-85220000D01*
X181440000Y-85260000D02*
X185701000Y-85260000D01*
X181440000Y-85300000D02*
X185682000Y-85300000D01*
X181440000Y-85340000D02*
X185662000Y-85340000D01*
X181440000Y-85380000D02*
X185642000Y-85380000D01*
X181440000Y-85420000D02*
X185621000Y-85420000D01*
X181440000Y-85460000D02*
X185601000Y-85460000D01*
X181440000Y-85500000D02*
X185579000Y-85500000D01*
X181440000Y-85540000D02*
X185558000Y-85540000D01*
X181440000Y-85580000D02*
X185536000Y-85580000D01*
X181440000Y-85620000D02*
X185514000Y-85620000D01*
X181440000Y-85660000D02*
X185491000Y-85660000D01*
X181440000Y-85700000D02*
X185468000Y-85700000D01*
X181440000Y-85740000D02*
X185444000Y-85740000D01*
X181440000Y-85780000D02*
X185421000Y-85780000D01*
X181440000Y-85820000D02*
X185396000Y-85820000D01*
X181440000Y-85860000D02*
X185372000Y-85860000D01*
X181440000Y-85900000D02*
X185347000Y-85900000D01*
X181440000Y-85940000D02*
X185321000Y-85940000D01*
X181440000Y-85980000D02*
X185295000Y-85980000D01*
X181440000Y-86020000D02*
X185269000Y-86020000D01*
X181440000Y-86060000D02*
X185242000Y-86060000D01*
X181440000Y-86100000D02*
X185215000Y-86100000D01*
X181440000Y-86140000D02*
X185188000Y-86140000D01*
X181440000Y-86180000D02*
X185159000Y-86180000D01*
X181440000Y-86220000D02*
X185131000Y-86220000D01*
X181440000Y-86260000D02*
X185102000Y-86260000D01*
X181440000Y-86300000D02*
X185072000Y-86300000D01*
X181440000Y-86340000D02*
X185042000Y-86340000D01*
X181440000Y-86380000D02*
X185012000Y-86380000D01*
X181440000Y-86420000D02*
X184981000Y-86420000D01*
X186370000Y-82500000D02*
G75*
G02*
X173630000Y-82500000I-6370000J0D01*
G01*
X173630000Y-82500000D02*
G75*
G02*
X186370000Y-82500000I6370000J0D01*
G01*
%TO.C,R16*%
X138537258Y-129077500D02*
X138062742Y-129077500D01*
X138537258Y-130122500D02*
X138062742Y-130122500D01*
%TO.C,Q3*%
X135540000Y-134740000D02*
X135540000Y-135740000D01*
X135540000Y-136860000D02*
X135540000Y-137860000D01*
X135540000Y-137860000D02*
X137060000Y-137860000D01*
X137060000Y-134740000D02*
X135540000Y-134740000D01*
X137060000Y-134790000D02*
X137060000Y-134740000D01*
X137060000Y-136690000D02*
X137060000Y-135910000D01*
X137060000Y-137860000D02*
X137060000Y-137810000D01*
X137840000Y-136250000D02*
X137360000Y-136250000D01*
X137600000Y-135920000D01*
X137840000Y-136250000D01*
G36*
X137840000Y-136250000D02*
G01*
X137360000Y-136250000D01*
X137600000Y-135920000D01*
X137840000Y-136250000D01*
G37*
%TO.C,R12*%
X140477500Y-136262258D02*
X140477500Y-135787742D01*
X141522500Y-136262258D02*
X141522500Y-135787742D01*
%TO.C,Q2*%
X94640000Y-132252500D02*
X94640000Y-133772500D01*
X94640000Y-133772500D02*
X94690000Y-133772500D01*
X95640000Y-132252500D02*
X94640000Y-132252500D01*
X95810000Y-133772500D02*
X96590000Y-133772500D01*
X97710000Y-133772500D02*
X97760000Y-133772500D01*
X97760000Y-132252500D02*
X96760000Y-132252500D01*
X97760000Y-133772500D02*
X97760000Y-132252500D01*
X96580000Y-134312500D02*
X96250000Y-134552500D01*
X96250000Y-134072500D01*
X96580000Y-134312500D01*
G36*
X96580000Y-134312500D02*
G01*
X96250000Y-134552500D01*
X96250000Y-134072500D01*
X96580000Y-134312500D01*
G37*
%TO.C,R9*%
X134477500Y-132762742D02*
X134477500Y-133237258D01*
X135522500Y-132762742D02*
X135522500Y-133237258D01*
%TD*%
M02*
