%TF.GenerationSoftware,KiCad,Pcbnew,9.0.5*%
%TF.CreationDate,2026-06-30T20:59:11-07:00*%
%TF.ProjectId,nova_pcb_v6_power_v2,6e6f7661-5f70-4636-925f-76365f706f77,rev?*%
%TF.SameCoordinates,Original*%
%TF.FileFunction,Soldermask,Top*%
%TF.FilePolarity,Negative*%
%FSLAX46Y46*%
G04 Gerber Fmt 4.6, Leading zero omitted, Abs format (unit mm)*
G04 Created by KiCad (PCBNEW 9.0.5) date 2026-06-30 20:59:11*
%MOMM*%
%LPD*%
G01*
G04 APERTURE LIST*
G04 Aperture macros list*
%AMRoundRect*
0 Rectangle with rounded corners*
0 $1 Rounding radius*
0 $2 $3 $4 $5 $6 $7 $8 $9 X,Y pos of 4 corners*
0 Add a 4 corners polygon primitive as box body*
4,1,4,$2,$3,$4,$5,$6,$7,$8,$9,$2,$3,0*
0 Add four circle primitives for the rounded corners*
1,1,$1+$1,$2,$3*
1,1,$1+$1,$4,$5*
1,1,$1+$1,$6,$7*
1,1,$1+$1,$8,$9*
0 Add four rect primitives between the rounded corners*
20,1,$1+$1,$2,$3,$4,$5,0*
20,1,$1+$1,$4,$5,$6,$7,0*
20,1,$1+$1,$6,$7,$8,$9,0*
20,1,$1+$1,$8,$9,$2,$3,0*%
G04 Aperture macros list end*
%ADD10R,3.800000X3.800000*%
%ADD11C,3.800000*%
%ADD12C,1.700000*%
%ADD13R,1.700000X1.700000*%
%ADD14RoundRect,0.760000X-1.140000X1.140000X-1.140000X-1.140000X1.140000X-1.140000X1.140000X1.140000X0*%
%ADD15RoundRect,0.760000X1.140000X-1.140000X1.140000X1.140000X-1.140000X1.140000X-1.140000X-1.140000X0*%
%ADD16RoundRect,0.250000X0.300000X-0.300000X0.300000X0.300000X-0.300000X0.300000X-0.300000X-0.300000X0*%
%ADD17RoundRect,0.250000X0.600000X-0.600000X0.600000X0.600000X-0.600000X0.600000X-0.600000X-0.600000X0*%
%ADD18RoundRect,0.200000X0.200000X0.275000X-0.200000X0.275000X-0.200000X-0.275000X0.200000X-0.275000X0*%
%ADD19RoundRect,0.760000X1.140000X1.140000X-1.140000X1.140000X-1.140000X-1.140000X1.140000X-1.140000X0*%
%ADD20C,3.200000*%
%ADD21RoundRect,0.225000X0.225000X0.250000X-0.225000X0.250000X-0.225000X-0.250000X0.225000X-0.250000X0*%
%ADD22RoundRect,0.200000X0.275000X-0.200000X0.275000X0.200000X-0.275000X0.200000X-0.275000X-0.200000X0*%
%ADD23RoundRect,1.500000X1.500000X-1.500000X1.500000X1.500000X-1.500000X1.500000X-1.500000X-1.500000X0*%
%ADD24C,6.000000*%
%ADD25RoundRect,0.250001X0.949999X-0.949999X0.949999X0.949999X-0.949999X0.949999X-0.949999X-0.949999X0*%
%ADD26C,2.400000*%
%ADD27RoundRect,0.250000X-0.750000X-0.750000X0.750000X-0.750000X0.750000X0.750000X-0.750000X0.750000X0*%
%ADD28C,2.000000*%
%ADD29RoundRect,0.250000X0.725000X-0.600000X0.725000X0.600000X-0.725000X0.600000X-0.725000X-0.600000X0*%
%ADD30O,1.950000X1.700000*%
%ADD31R,2.000000X1.905000*%
%ADD32O,2.000000X1.905000*%
%ADD33RoundRect,0.250000X0.750000X-0.750000X0.750000X0.750000X-0.750000X0.750000X-0.750000X-0.750000X0*%
%ADD34RoundRect,0.250001X-0.949999X0.949999X-0.949999X-0.949999X0.949999X-0.949999X0.949999X0.949999X0*%
G04 APERTURE END LIST*
D10*
%TO.C,U5*%
X181000000Y-101500000D03*
D11*
X171000000Y-96500000D03*
X181000000Y-96500000D03*
D12*
X174730000Y-91000000D03*
D13*
X177270000Y-91000000D03*
D10*
X171000000Y-101500000D03*
%TD*%
D12*
%TO.C,U9*%
X110540000Y-83500000D03*
X108000000Y-83500000D03*
X102920000Y-83500000D03*
X105460000Y-83500000D03*
%TD*%
D14*
%TO.C,J13*%
X191000000Y-128000000D03*
D11*
X191000000Y-133000000D03*
%TD*%
D15*
%TO.C,J7*%
X192500000Y-88000000D03*
D11*
X192500000Y-83000000D03*
%TD*%
D16*
%TO.C,D1*%
X93000000Y-73050000D03*
X93000000Y-70250000D03*
%TD*%
D17*
%TO.C,J20*%
X151000000Y-128890000D03*
D12*
X151000000Y-126350000D03*
X153540000Y-128890000D03*
X153540000Y-126350000D03*
X156080000Y-128890000D03*
X156080000Y-126350000D03*
X158620000Y-128890000D03*
X158620000Y-126350000D03*
X161160000Y-128890000D03*
X161160000Y-126350000D03*
X163700000Y-128890000D03*
X163700000Y-126350000D03*
%TD*%
D14*
%TO.C,J3*%
X90000000Y-78750000D03*
D11*
X90000000Y-83750000D03*
%TD*%
D18*
%TO.C,R_gs1*%
X100500000Y-72250000D03*
X98850000Y-72250000D03*
%TD*%
D19*
%TO.C,J5*%
X94450000Y-123000000D03*
D11*
X89450000Y-123000000D03*
%TD*%
D14*
%TO.C,J12*%
X191000000Y-112000000D03*
D11*
X191000000Y-117000000D03*
%TD*%
D10*
%TO.C,U3*%
X135500000Y-102000000D03*
D11*
X140500000Y-92000000D03*
X140500000Y-102000000D03*
D12*
X146000000Y-95730000D03*
D13*
X146000000Y-98270000D03*
D10*
X135500000Y-92000000D03*
%TD*%
D15*
%TO.C,J4*%
X90000000Y-99550000D03*
D11*
X90000000Y-94550000D03*
%TD*%
D20*
%TO.C,H1*%
X103000000Y-63000000D03*
%TD*%
D21*
%TO.C,C_gs1*%
X97750000Y-67750000D03*
X96200000Y-67750000D03*
%TD*%
D13*
%TO.C,M1*%
X124000000Y-55000000D03*
D12*
X124000000Y-57540000D03*
%TD*%
D20*
%TO.C,H2*%
X177000000Y-63000000D03*
%TD*%
D22*
%TO.C,R17*%
X99250000Y-78400000D03*
X99250000Y-76750000D03*
%TD*%
D10*
%TO.C,U1*%
X99500000Y-102000000D03*
D11*
X104500000Y-92000000D03*
X104500000Y-102000000D03*
D12*
X110000000Y-95730000D03*
D13*
X110000000Y-98270000D03*
D10*
X99500000Y-92000000D03*
%TD*%
D23*
%TO.C,J1*%
X90750000Y-64000000D03*
D24*
X90750000Y-56800000D03*
%TD*%
D12*
%TO.C,U12*%
X157620000Y-136500000D03*
X155080000Y-136500000D03*
X150000000Y-136500000D03*
X152540000Y-136500000D03*
%TD*%
D25*
%TO.C,SW2*%
X140000000Y-57000000D03*
D26*
X145000000Y-57000000D03*
%TD*%
D25*
%TO.C,SW1*%
X113000000Y-57000000D03*
D26*
X118000000Y-57000000D03*
%TD*%
D27*
%TO.C,C9*%
X114000000Y-133000000D03*
D28*
X119000000Y-133000000D03*
%TD*%
D27*
%TO.C,C8*%
X136500000Y-112000000D03*
D28*
X141500000Y-112000000D03*
%TD*%
D29*
%TO.C,J8*%
X191000000Y-101000000D03*
D30*
X191000000Y-98500000D03*
X191000000Y-96000000D03*
%TD*%
D13*
%TO.C,J2*%
X130000000Y-56000000D03*
D12*
X130000000Y-58540000D03*
X130000000Y-61080000D03*
%TD*%
%TO.C,U11*%
X158540000Y-83500000D03*
X156000000Y-83500000D03*
X150920000Y-83500000D03*
X153460000Y-83500000D03*
%TD*%
D10*
%TO.C,U4*%
X153500000Y-102000000D03*
D11*
X158500000Y-92000000D03*
X158500000Y-102000000D03*
D12*
X164000000Y-95730000D03*
D13*
X164000000Y-98270000D03*
D10*
X153500000Y-92000000D03*
%TD*%
D20*
%TO.C,H4*%
X177000000Y-129000000D03*
%TD*%
D19*
%TO.C,J14*%
X181750000Y-107750000D03*
D11*
X176750000Y-107750000D03*
%TD*%
D31*
%TO.C,Q1*%
X98500000Y-56500000D03*
D32*
X101040000Y-56500000D03*
X103580000Y-56500000D03*
%TD*%
D20*
%TO.C,H3*%
X103000000Y-129000000D03*
%TD*%
D10*
%TO.C,U2*%
X117500000Y-102000000D03*
D11*
X122500000Y-92000000D03*
X122500000Y-102000000D03*
D12*
X128000000Y-95730000D03*
D13*
X128000000Y-98270000D03*
D10*
X117500000Y-92000000D03*
%TD*%
D12*
%TO.C,U10*%
X134040000Y-83500000D03*
X131500000Y-83500000D03*
X126420000Y-83500000D03*
X128960000Y-83500000D03*
%TD*%
D14*
%TO.C,J6*%
X191000000Y-63750000D03*
D11*
X191000000Y-68750000D03*
%TD*%
D25*
%TO.C,C2*%
X105850000Y-114773959D03*
D26*
X105850000Y-109773959D03*
%TD*%
D33*
%TO.C,C6*%
X180750000Y-120750000D03*
D28*
X180750000Y-115750000D03*
%TD*%
D25*
%TO.C,C1*%
X91450000Y-114350000D03*
D26*
X91450000Y-109350000D03*
%TD*%
D25*
%TO.C,C3*%
X121800000Y-114750000D03*
D26*
X121800000Y-109750000D03*
%TD*%
D25*
%TO.C,C4*%
X165000000Y-61300000D03*
D26*
X165000000Y-56300000D03*
%TD*%
D34*
%TO.C,C5*%
X176750000Y-80000000D03*
D26*
X176750000Y-85000000D03*
%TD*%
M02*
