%TF.GenerationSoftware,KiCad,Pcbnew,9.0.5*%
%TF.CreationDate,2026-06-12T15:12:13-07:00*%
%TF.ProjectId,nova_pcb_v6_power_v2,6e6f7661-5f70-4636-925f-76365f706f77,rev?*%
%TF.SameCoordinates,Original*%
%TF.FileFunction,Legend,Top*%
%TF.FilePolarity,Positive*%
%FSLAX46Y46*%
G04 Gerber Fmt 4.6, Leading zero omitted, Abs format (unit mm)*
G04 Created by KiCad (PCBNEW 9.0.5) date 2026-06-12 15:12:13*
%MOMM*%
%LPD*%
G01*
G04 APERTURE LIST*
%ADD10C,0.150000*%
%ADD11C,0.120000*%
G04 APERTURE END LIST*
D10*
X166138095Y-96204819D02*
X166138095Y-97014342D01*
X166138095Y-97014342D02*
X166185714Y-97109580D01*
X166185714Y-97109580D02*
X166233333Y-97157200D01*
X166233333Y-97157200D02*
X166328571Y-97204819D01*
X166328571Y-97204819D02*
X166519047Y-97204819D01*
X166519047Y-97204819D02*
X166614285Y-97157200D01*
X166614285Y-97157200D02*
X166661904Y-97109580D01*
X166661904Y-97109580D02*
X166709523Y-97014342D01*
X166709523Y-97014342D02*
X166709523Y-96204819D01*
X167661904Y-96204819D02*
X167185714Y-96204819D01*
X167185714Y-96204819D02*
X167138095Y-96681009D01*
X167138095Y-96681009D02*
X167185714Y-96633390D01*
X167185714Y-96633390D02*
X167280952Y-96585771D01*
X167280952Y-96585771D02*
X167519047Y-96585771D01*
X167519047Y-96585771D02*
X167614285Y-96633390D01*
X167614285Y-96633390D02*
X167661904Y-96681009D01*
X167661904Y-96681009D02*
X167709523Y-96776247D01*
X167709523Y-96776247D02*
X167709523Y-97014342D01*
X167709523Y-97014342D02*
X167661904Y-97109580D01*
X167661904Y-97109580D02*
X167614285Y-97157200D01*
X167614285Y-97157200D02*
X167519047Y-97204819D01*
X167519047Y-97204819D02*
X167280952Y-97204819D01*
X167280952Y-97204819D02*
X167185714Y-97157200D01*
X167185714Y-97157200D02*
X167138095Y-97109580D01*
X106704819Y-77761904D02*
X107514342Y-77761904D01*
X107514342Y-77761904D02*
X107609580Y-77714285D01*
X107609580Y-77714285D02*
X107657200Y-77666666D01*
X107657200Y-77666666D02*
X107704819Y-77571428D01*
X107704819Y-77571428D02*
X107704819Y-77380952D01*
X107704819Y-77380952D02*
X107657200Y-77285714D01*
X107657200Y-77285714D02*
X107609580Y-77238095D01*
X107609580Y-77238095D02*
X107514342Y-77190476D01*
X107514342Y-77190476D02*
X106704819Y-77190476D01*
X107704819Y-76666666D02*
X107704819Y-76476190D01*
X107704819Y-76476190D02*
X107657200Y-76380952D01*
X107657200Y-76380952D02*
X107609580Y-76333333D01*
X107609580Y-76333333D02*
X107466723Y-76238095D01*
X107466723Y-76238095D02*
X107276247Y-76190476D01*
X107276247Y-76190476D02*
X106895295Y-76190476D01*
X106895295Y-76190476D02*
X106800057Y-76238095D01*
X106800057Y-76238095D02*
X106752438Y-76285714D01*
X106752438Y-76285714D02*
X106704819Y-76380952D01*
X106704819Y-76380952D02*
X106704819Y-76571428D01*
X106704819Y-76571428D02*
X106752438Y-76666666D01*
X106752438Y-76666666D02*
X106800057Y-76714285D01*
X106800057Y-76714285D02*
X106895295Y-76761904D01*
X106895295Y-76761904D02*
X107133390Y-76761904D01*
X107133390Y-76761904D02*
X107228628Y-76714285D01*
X107228628Y-76714285D02*
X107276247Y-76666666D01*
X107276247Y-76666666D02*
X107323866Y-76571428D01*
X107323866Y-76571428D02*
X107323866Y-76380952D01*
X107323866Y-76380952D02*
X107276247Y-76285714D01*
X107276247Y-76285714D02*
X107228628Y-76238095D01*
X107228628Y-76238095D02*
X107133390Y-76190476D01*
X102321428Y-81208557D02*
X102321428Y-80308557D01*
X102749999Y-81208557D02*
X102749999Y-80308557D01*
X102749999Y-80308557D02*
X103264285Y-81208557D01*
X103264285Y-81208557D02*
X103264285Y-80308557D01*
X103649999Y-80951414D02*
X104078571Y-80951414D01*
X103564285Y-81208557D02*
X103864285Y-80308557D01*
X103864285Y-80308557D02*
X104164285Y-81208557D01*
X104421428Y-80394271D02*
X104464285Y-80351414D01*
X104464285Y-80351414D02*
X104550000Y-80308557D01*
X104550000Y-80308557D02*
X104764285Y-80308557D01*
X104764285Y-80308557D02*
X104850000Y-80351414D01*
X104850000Y-80351414D02*
X104892857Y-80394271D01*
X104892857Y-80394271D02*
X104935714Y-80479985D01*
X104935714Y-80479985D02*
X104935714Y-80565700D01*
X104935714Y-80565700D02*
X104892857Y-80694271D01*
X104892857Y-80694271D02*
X104378571Y-81208557D01*
X104378571Y-81208557D02*
X104935714Y-81208557D01*
X105278571Y-80394271D02*
X105321428Y-80351414D01*
X105321428Y-80351414D02*
X105407143Y-80308557D01*
X105407143Y-80308557D02*
X105621428Y-80308557D01*
X105621428Y-80308557D02*
X105707143Y-80351414D01*
X105707143Y-80351414D02*
X105750000Y-80394271D01*
X105750000Y-80394271D02*
X105792857Y-80479985D01*
X105792857Y-80479985D02*
X105792857Y-80565700D01*
X105792857Y-80565700D02*
X105750000Y-80694271D01*
X105750000Y-80694271D02*
X105235714Y-81208557D01*
X105235714Y-81208557D02*
X105792857Y-81208557D01*
X106564286Y-80308557D02*
X106392857Y-80308557D01*
X106392857Y-80308557D02*
X106307143Y-80351414D01*
X106307143Y-80351414D02*
X106264286Y-80394271D01*
X106264286Y-80394271D02*
X106178571Y-80522842D01*
X106178571Y-80522842D02*
X106135714Y-80694271D01*
X106135714Y-80694271D02*
X106135714Y-81037128D01*
X106135714Y-81037128D02*
X106178571Y-81122842D01*
X106178571Y-81122842D02*
X106221428Y-81165700D01*
X106221428Y-81165700D02*
X106307143Y-81208557D01*
X106307143Y-81208557D02*
X106478571Y-81208557D01*
X106478571Y-81208557D02*
X106564286Y-81165700D01*
X106564286Y-81165700D02*
X106607143Y-81122842D01*
X106607143Y-81122842D02*
X106650000Y-81037128D01*
X106650000Y-81037128D02*
X106650000Y-80822842D01*
X106650000Y-80822842D02*
X106607143Y-80737128D01*
X106607143Y-80737128D02*
X106564286Y-80694271D01*
X106564286Y-80694271D02*
X106478571Y-80651414D01*
X106478571Y-80651414D02*
X106307143Y-80651414D01*
X106307143Y-80651414D02*
X106221428Y-80694271D01*
X106221428Y-80694271D02*
X106178571Y-80737128D01*
X106178571Y-80737128D02*
X106135714Y-80822842D01*
X107721428Y-81208557D02*
X107721428Y-80308557D01*
X108107142Y-80394271D02*
X108149999Y-80351414D01*
X108149999Y-80351414D02*
X108235714Y-80308557D01*
X108235714Y-80308557D02*
X108449999Y-80308557D01*
X108449999Y-80308557D02*
X108535714Y-80351414D01*
X108535714Y-80351414D02*
X108578571Y-80394271D01*
X108578571Y-80394271D02*
X108621428Y-80479985D01*
X108621428Y-80479985D02*
X108621428Y-80565700D01*
X108621428Y-80565700D02*
X108578571Y-80694271D01*
X108578571Y-80694271D02*
X108064285Y-81208557D01*
X108064285Y-81208557D02*
X108621428Y-81208557D01*
X109521428Y-81122842D02*
X109478571Y-81165700D01*
X109478571Y-81165700D02*
X109349999Y-81208557D01*
X109349999Y-81208557D02*
X109264285Y-81208557D01*
X109264285Y-81208557D02*
X109135714Y-81165700D01*
X109135714Y-81165700D02*
X109049999Y-81079985D01*
X109049999Y-81079985D02*
X109007142Y-80994271D01*
X109007142Y-80994271D02*
X108964285Y-80822842D01*
X108964285Y-80822842D02*
X108964285Y-80694271D01*
X108964285Y-80694271D02*
X109007142Y-80522842D01*
X109007142Y-80522842D02*
X109049999Y-80437128D01*
X109049999Y-80437128D02*
X109135714Y-80351414D01*
X109135714Y-80351414D02*
X109264285Y-80308557D01*
X109264285Y-80308557D02*
X109349999Y-80308557D01*
X109349999Y-80308557D02*
X109478571Y-80351414D01*
X109478571Y-80351414D02*
X109521428Y-80394271D01*
X110592856Y-80865700D02*
X111278571Y-80865700D01*
X111107142Y-81037128D02*
X111278571Y-80865700D01*
X111278571Y-80865700D02*
X111107142Y-80694271D01*
X186454819Y-131309523D02*
X187169104Y-131309523D01*
X187169104Y-131309523D02*
X187311961Y-131357142D01*
X187311961Y-131357142D02*
X187407200Y-131452380D01*
X187407200Y-131452380D02*
X187454819Y-131595237D01*
X187454819Y-131595237D02*
X187454819Y-131690475D01*
X187454819Y-130309523D02*
X187454819Y-130880951D01*
X187454819Y-130595237D02*
X186454819Y-130595237D01*
X186454819Y-130595237D02*
X186597676Y-130690475D01*
X186597676Y-130690475D02*
X186692914Y-130785713D01*
X186692914Y-130785713D02*
X186740533Y-130880951D01*
X186454819Y-129976189D02*
X186454819Y-129357142D01*
X186454819Y-129357142D02*
X186835771Y-129690475D01*
X186835771Y-129690475D02*
X186835771Y-129547618D01*
X186835771Y-129547618D02*
X186883390Y-129452380D01*
X186883390Y-129452380D02*
X186931009Y-129404761D01*
X186931009Y-129404761D02*
X187026247Y-129357142D01*
X187026247Y-129357142D02*
X187264342Y-129357142D01*
X187264342Y-129357142D02*
X187359580Y-129404761D01*
X187359580Y-129404761D02*
X187407200Y-129452380D01*
X187407200Y-129452380D02*
X187454819Y-129547618D01*
X187454819Y-129547618D02*
X187454819Y-129833332D01*
X187454819Y-129833332D02*
X187407200Y-129928570D01*
X187407200Y-129928570D02*
X187359580Y-129976189D01*
X191114700Y-137571428D02*
X191114700Y-136428571D01*
X191114700Y-124571428D02*
X191114700Y-123428571D01*
X191686128Y-123999999D02*
X190543271Y-123999999D01*
X186454819Y-82833333D02*
X187169104Y-82833333D01*
X187169104Y-82833333D02*
X187311961Y-82880952D01*
X187311961Y-82880952D02*
X187407200Y-82976190D01*
X187407200Y-82976190D02*
X187454819Y-83119047D01*
X187454819Y-83119047D02*
X187454819Y-83214285D01*
X186454819Y-82452380D02*
X186454819Y-81785714D01*
X186454819Y-81785714D02*
X187454819Y-82214285D01*
X191114700Y-89571428D02*
X191114700Y-88428571D01*
X191114700Y-76571428D02*
X191114700Y-75428571D01*
X191686128Y-75999999D02*
X190543271Y-75999999D01*
X144354819Y-128429523D02*
X145069104Y-128429523D01*
X145069104Y-128429523D02*
X145211961Y-128477142D01*
X145211961Y-128477142D02*
X145307200Y-128572380D01*
X145307200Y-128572380D02*
X145354819Y-128715237D01*
X145354819Y-128715237D02*
X145354819Y-128810475D01*
X144450057Y-128000951D02*
X144402438Y-127953332D01*
X144402438Y-127953332D02*
X144354819Y-127858094D01*
X144354819Y-127858094D02*
X144354819Y-127619999D01*
X144354819Y-127619999D02*
X144402438Y-127524761D01*
X144402438Y-127524761D02*
X144450057Y-127477142D01*
X144450057Y-127477142D02*
X144545295Y-127429523D01*
X144545295Y-127429523D02*
X144640533Y-127429523D01*
X144640533Y-127429523D02*
X144783390Y-127477142D01*
X144783390Y-127477142D02*
X145354819Y-128048570D01*
X145354819Y-128048570D02*
X145354819Y-127429523D01*
X144354819Y-126810475D02*
X144354819Y-126715237D01*
X144354819Y-126715237D02*
X144402438Y-126619999D01*
X144402438Y-126619999D02*
X144450057Y-126572380D01*
X144450057Y-126572380D02*
X144545295Y-126524761D01*
X144545295Y-126524761D02*
X144735771Y-126477142D01*
X144735771Y-126477142D02*
X144973866Y-126477142D01*
X144973866Y-126477142D02*
X145164342Y-126524761D01*
X145164342Y-126524761D02*
X145259580Y-126572380D01*
X145259580Y-126572380D02*
X145307200Y-126619999D01*
X145307200Y-126619999D02*
X145354819Y-126715237D01*
X145354819Y-126715237D02*
X145354819Y-126810475D01*
X145354819Y-126810475D02*
X145307200Y-126905713D01*
X145307200Y-126905713D02*
X145259580Y-126953332D01*
X145259580Y-126953332D02*
X145164342Y-127000951D01*
X145164342Y-127000951D02*
X144973866Y-127048570D01*
X144973866Y-127048570D02*
X144735771Y-127048570D01*
X144735771Y-127048570D02*
X144545295Y-127000951D01*
X144545295Y-127000951D02*
X144450057Y-126953332D01*
X144450057Y-126953332D02*
X144402438Y-126905713D01*
X144402438Y-126905713D02*
X144354819Y-126810475D01*
X85454819Y-81333333D02*
X86169104Y-81333333D01*
X86169104Y-81333333D02*
X86311961Y-81380952D01*
X86311961Y-81380952D02*
X86407200Y-81476190D01*
X86407200Y-81476190D02*
X86454819Y-81619047D01*
X86454819Y-81619047D02*
X86454819Y-81714285D01*
X85454819Y-80952380D02*
X85454819Y-80333333D01*
X85454819Y-80333333D02*
X85835771Y-80666666D01*
X85835771Y-80666666D02*
X85835771Y-80523809D01*
X85835771Y-80523809D02*
X85883390Y-80428571D01*
X85883390Y-80428571D02*
X85931009Y-80380952D01*
X85931009Y-80380952D02*
X86026247Y-80333333D01*
X86026247Y-80333333D02*
X86264342Y-80333333D01*
X86264342Y-80333333D02*
X86359580Y-80380952D01*
X86359580Y-80380952D02*
X86407200Y-80428571D01*
X86407200Y-80428571D02*
X86454819Y-80523809D01*
X86454819Y-80523809D02*
X86454819Y-80809523D01*
X86454819Y-80809523D02*
X86407200Y-80904761D01*
X86407200Y-80904761D02*
X86359580Y-80952380D01*
X90114700Y-88071428D02*
X90114700Y-86928571D01*
X90114700Y-75071428D02*
X90114700Y-73928571D01*
X90686128Y-74499999D02*
X89543271Y-74499999D01*
X91616666Y-126454819D02*
X91616666Y-127169104D01*
X91616666Y-127169104D02*
X91569047Y-127311961D01*
X91569047Y-127311961D02*
X91473809Y-127407200D01*
X91473809Y-127407200D02*
X91330952Y-127454819D01*
X91330952Y-127454819D02*
X91235714Y-127454819D01*
X92569047Y-126454819D02*
X92092857Y-126454819D01*
X92092857Y-126454819D02*
X92045238Y-126931009D01*
X92045238Y-126931009D02*
X92092857Y-126883390D01*
X92092857Y-126883390D02*
X92188095Y-126835771D01*
X92188095Y-126835771D02*
X92426190Y-126835771D01*
X92426190Y-126835771D02*
X92521428Y-126883390D01*
X92521428Y-126883390D02*
X92569047Y-126931009D01*
X92569047Y-126931009D02*
X92616666Y-127026247D01*
X92616666Y-127026247D02*
X92616666Y-127264342D01*
X92616666Y-127264342D02*
X92569047Y-127359580D01*
X92569047Y-127359580D02*
X92521428Y-127407200D01*
X92521428Y-127407200D02*
X92426190Y-127454819D01*
X92426190Y-127454819D02*
X92188095Y-127454819D01*
X92188095Y-127454819D02*
X92092857Y-127407200D01*
X92092857Y-127407200D02*
X92045238Y-127359580D01*
X97878571Y-123114700D02*
X99021429Y-123114700D01*
X84878571Y-123114700D02*
X86021429Y-123114700D01*
X85450000Y-123686128D02*
X85450000Y-122543271D01*
X186454819Y-115309523D02*
X187169104Y-115309523D01*
X187169104Y-115309523D02*
X187311961Y-115357142D01*
X187311961Y-115357142D02*
X187407200Y-115452380D01*
X187407200Y-115452380D02*
X187454819Y-115595237D01*
X187454819Y-115595237D02*
X187454819Y-115690475D01*
X187454819Y-114309523D02*
X187454819Y-114880951D01*
X187454819Y-114595237D02*
X186454819Y-114595237D01*
X186454819Y-114595237D02*
X186597676Y-114690475D01*
X186597676Y-114690475D02*
X186692914Y-114785713D01*
X186692914Y-114785713D02*
X186740533Y-114880951D01*
X186550057Y-113928570D02*
X186502438Y-113880951D01*
X186502438Y-113880951D02*
X186454819Y-113785713D01*
X186454819Y-113785713D02*
X186454819Y-113547618D01*
X186454819Y-113547618D02*
X186502438Y-113452380D01*
X186502438Y-113452380D02*
X186550057Y-113404761D01*
X186550057Y-113404761D02*
X186645295Y-113357142D01*
X186645295Y-113357142D02*
X186740533Y-113357142D01*
X186740533Y-113357142D02*
X186883390Y-113404761D01*
X186883390Y-113404761D02*
X187454819Y-113976189D01*
X187454819Y-113976189D02*
X187454819Y-113357142D01*
X191114700Y-121571428D02*
X191114700Y-120428571D01*
X191114700Y-108571428D02*
X191114700Y-107428571D01*
X191686128Y-107999999D02*
X190543271Y-107999999D01*
X139704819Y-88661904D02*
X140514342Y-88661904D01*
X140514342Y-88661904D02*
X140609580Y-88614285D01*
X140609580Y-88614285D02*
X140657200Y-88566666D01*
X140657200Y-88566666D02*
X140704819Y-88471428D01*
X140704819Y-88471428D02*
X140704819Y-88280952D01*
X140704819Y-88280952D02*
X140657200Y-88185714D01*
X140657200Y-88185714D02*
X140609580Y-88138095D01*
X140609580Y-88138095D02*
X140514342Y-88090476D01*
X140514342Y-88090476D02*
X139704819Y-88090476D01*
X139704819Y-87709523D02*
X139704819Y-87090476D01*
X139704819Y-87090476D02*
X140085771Y-87423809D01*
X140085771Y-87423809D02*
X140085771Y-87280952D01*
X140085771Y-87280952D02*
X140133390Y-87185714D01*
X140133390Y-87185714D02*
X140181009Y-87138095D01*
X140181009Y-87138095D02*
X140276247Y-87090476D01*
X140276247Y-87090476D02*
X140514342Y-87090476D01*
X140514342Y-87090476D02*
X140609580Y-87138095D01*
X140609580Y-87138095D02*
X140657200Y-87185714D01*
X140657200Y-87185714D02*
X140704819Y-87280952D01*
X140704819Y-87280952D02*
X140704819Y-87566666D01*
X140704819Y-87566666D02*
X140657200Y-87661904D01*
X140657200Y-87661904D02*
X140609580Y-87709523D01*
X85454819Y-97383333D02*
X86169104Y-97383333D01*
X86169104Y-97383333D02*
X86311961Y-97430952D01*
X86311961Y-97430952D02*
X86407200Y-97526190D01*
X86407200Y-97526190D02*
X86454819Y-97669047D01*
X86454819Y-97669047D02*
X86454819Y-97764285D01*
X85788152Y-96478571D02*
X86454819Y-96478571D01*
X85407200Y-96716666D02*
X86121485Y-96954761D01*
X86121485Y-96954761D02*
X86121485Y-96335714D01*
X90114700Y-91121428D02*
X90114700Y-89978571D01*
X90686128Y-90549999D02*
X89543271Y-90549999D01*
X90114700Y-104121428D02*
X90114700Y-102978571D01*
X99304819Y-63761904D02*
X98304819Y-63761904D01*
X98781009Y-63761904D02*
X98781009Y-63190476D01*
X99304819Y-63190476D02*
X98304819Y-63190476D01*
X99304819Y-62190476D02*
X99304819Y-62761904D01*
X99304819Y-62476190D02*
X98304819Y-62476190D01*
X98304819Y-62476190D02*
X98447676Y-62571428D01*
X98447676Y-62571428D02*
X98542914Y-62666666D01*
X98542914Y-62666666D02*
X98590533Y-62761904D01*
X123190476Y-53074819D02*
X123190476Y-52074819D01*
X123190476Y-52074819D02*
X123523809Y-52789104D01*
X123523809Y-52789104D02*
X123857142Y-52074819D01*
X123857142Y-52074819D02*
X123857142Y-53074819D01*
X124857142Y-53074819D02*
X124285714Y-53074819D01*
X124571428Y-53074819D02*
X124571428Y-52074819D01*
X124571428Y-52074819D02*
X124476190Y-52217676D01*
X124476190Y-52217676D02*
X124380952Y-52312914D01*
X124380952Y-52312914D02*
X124285714Y-52360533D01*
X173304819Y-63761904D02*
X172304819Y-63761904D01*
X172781009Y-63761904D02*
X172781009Y-63190476D01*
X173304819Y-63190476D02*
X172304819Y-63190476D01*
X172400057Y-62761904D02*
X172352438Y-62714285D01*
X172352438Y-62714285D02*
X172304819Y-62619047D01*
X172304819Y-62619047D02*
X172304819Y-62380952D01*
X172304819Y-62380952D02*
X172352438Y-62285714D01*
X172352438Y-62285714D02*
X172400057Y-62238095D01*
X172400057Y-62238095D02*
X172495295Y-62190476D01*
X172495295Y-62190476D02*
X172590533Y-62190476D01*
X172590533Y-62190476D02*
X172733390Y-62238095D01*
X172733390Y-62238095D02*
X173304819Y-62809523D01*
X173304819Y-62809523D02*
X173304819Y-62190476D01*
X103704819Y-88661904D02*
X104514342Y-88661904D01*
X104514342Y-88661904D02*
X104609580Y-88614285D01*
X104609580Y-88614285D02*
X104657200Y-88566666D01*
X104657200Y-88566666D02*
X104704819Y-88471428D01*
X104704819Y-88471428D02*
X104704819Y-88280952D01*
X104704819Y-88280952D02*
X104657200Y-88185714D01*
X104657200Y-88185714D02*
X104609580Y-88138095D01*
X104609580Y-88138095D02*
X104514342Y-88090476D01*
X104514342Y-88090476D02*
X103704819Y-88090476D01*
X104704819Y-87090476D02*
X104704819Y-87661904D01*
X104704819Y-87376190D02*
X103704819Y-87376190D01*
X103704819Y-87376190D02*
X103847676Y-87471428D01*
X103847676Y-87471428D02*
X103942914Y-87566666D01*
X103942914Y-87566666D02*
X103990533Y-87661904D01*
X95554819Y-60983333D02*
X96269104Y-60983333D01*
X96269104Y-60983333D02*
X96411961Y-61030952D01*
X96411961Y-61030952D02*
X96507200Y-61126190D01*
X96507200Y-61126190D02*
X96554819Y-61269047D01*
X96554819Y-61269047D02*
X96554819Y-61364285D01*
X96554819Y-59983333D02*
X96554819Y-60554761D01*
X96554819Y-60269047D02*
X95554819Y-60269047D01*
X95554819Y-60269047D02*
X95697676Y-60364285D01*
X95697676Y-60364285D02*
X95792914Y-60459523D01*
X95792914Y-60459523D02*
X95840533Y-60554761D01*
X142907200Y-55383332D02*
X142954819Y-55240475D01*
X142954819Y-55240475D02*
X142954819Y-55002380D01*
X142954819Y-55002380D02*
X142907200Y-54907142D01*
X142907200Y-54907142D02*
X142859580Y-54859523D01*
X142859580Y-54859523D02*
X142764342Y-54811904D01*
X142764342Y-54811904D02*
X142669104Y-54811904D01*
X142669104Y-54811904D02*
X142573866Y-54859523D01*
X142573866Y-54859523D02*
X142526247Y-54907142D01*
X142526247Y-54907142D02*
X142478628Y-55002380D01*
X142478628Y-55002380D02*
X142431009Y-55192856D01*
X142431009Y-55192856D02*
X142383390Y-55288094D01*
X142383390Y-55288094D02*
X142335771Y-55335713D01*
X142335771Y-55335713D02*
X142240533Y-55383332D01*
X142240533Y-55383332D02*
X142145295Y-55383332D01*
X142145295Y-55383332D02*
X142050057Y-55335713D01*
X142050057Y-55335713D02*
X142002438Y-55288094D01*
X142002438Y-55288094D02*
X141954819Y-55192856D01*
X141954819Y-55192856D02*
X141954819Y-54954761D01*
X141954819Y-54954761D02*
X142002438Y-54811904D01*
X141954819Y-54478570D02*
X142954819Y-54240475D01*
X142954819Y-54240475D02*
X142240533Y-54049999D01*
X142240533Y-54049999D02*
X142954819Y-53859523D01*
X142954819Y-53859523D02*
X141954819Y-53621428D01*
X142050057Y-53288094D02*
X142002438Y-53240475D01*
X142002438Y-53240475D02*
X141954819Y-53145237D01*
X141954819Y-53145237D02*
X141954819Y-52907142D01*
X141954819Y-52907142D02*
X142002438Y-52811904D01*
X142002438Y-52811904D02*
X142050057Y-52764285D01*
X142050057Y-52764285D02*
X142145295Y-52716666D01*
X142145295Y-52716666D02*
X142240533Y-52716666D01*
X142240533Y-52716666D02*
X142383390Y-52764285D01*
X142383390Y-52764285D02*
X142954819Y-53335713D01*
X142954819Y-53335713D02*
X142954819Y-52716666D01*
X115907200Y-54933332D02*
X115954819Y-54790475D01*
X115954819Y-54790475D02*
X115954819Y-54552380D01*
X115954819Y-54552380D02*
X115907200Y-54457142D01*
X115907200Y-54457142D02*
X115859580Y-54409523D01*
X115859580Y-54409523D02*
X115764342Y-54361904D01*
X115764342Y-54361904D02*
X115669104Y-54361904D01*
X115669104Y-54361904D02*
X115573866Y-54409523D01*
X115573866Y-54409523D02*
X115526247Y-54457142D01*
X115526247Y-54457142D02*
X115478628Y-54552380D01*
X115478628Y-54552380D02*
X115431009Y-54742856D01*
X115431009Y-54742856D02*
X115383390Y-54838094D01*
X115383390Y-54838094D02*
X115335771Y-54885713D01*
X115335771Y-54885713D02*
X115240533Y-54933332D01*
X115240533Y-54933332D02*
X115145295Y-54933332D01*
X115145295Y-54933332D02*
X115050057Y-54885713D01*
X115050057Y-54885713D02*
X115002438Y-54838094D01*
X115002438Y-54838094D02*
X114954819Y-54742856D01*
X114954819Y-54742856D02*
X114954819Y-54504761D01*
X114954819Y-54504761D02*
X115002438Y-54361904D01*
X114954819Y-54028570D02*
X115954819Y-53790475D01*
X115954819Y-53790475D02*
X115240533Y-53599999D01*
X115240533Y-53599999D02*
X115954819Y-53409523D01*
X115954819Y-53409523D02*
X114954819Y-53171428D01*
X115954819Y-52266666D02*
X115954819Y-52838094D01*
X115954819Y-52552380D02*
X114954819Y-52552380D01*
X114954819Y-52552380D02*
X115097676Y-52647618D01*
X115097676Y-52647618D02*
X115192914Y-52742856D01*
X115192914Y-52742856D02*
X115240533Y-52838094D01*
X116333333Y-127109580D02*
X116285714Y-127157200D01*
X116285714Y-127157200D02*
X116142857Y-127204819D01*
X116142857Y-127204819D02*
X116047619Y-127204819D01*
X116047619Y-127204819D02*
X115904762Y-127157200D01*
X115904762Y-127157200D02*
X115809524Y-127061961D01*
X115809524Y-127061961D02*
X115761905Y-126966723D01*
X115761905Y-126966723D02*
X115714286Y-126776247D01*
X115714286Y-126776247D02*
X115714286Y-126633390D01*
X115714286Y-126633390D02*
X115761905Y-126442914D01*
X115761905Y-126442914D02*
X115809524Y-126347676D01*
X115809524Y-126347676D02*
X115904762Y-126252438D01*
X115904762Y-126252438D02*
X116047619Y-126204819D01*
X116047619Y-126204819D02*
X116142857Y-126204819D01*
X116142857Y-126204819D02*
X116285714Y-126252438D01*
X116285714Y-126252438D02*
X116333333Y-126300057D01*
X116809524Y-127204819D02*
X117000000Y-127204819D01*
X117000000Y-127204819D02*
X117095238Y-127157200D01*
X117095238Y-127157200D02*
X117142857Y-127109580D01*
X117142857Y-127109580D02*
X117238095Y-126966723D01*
X117238095Y-126966723D02*
X117285714Y-126776247D01*
X117285714Y-126776247D02*
X117285714Y-126395295D01*
X117285714Y-126395295D02*
X117238095Y-126300057D01*
X117238095Y-126300057D02*
X117190476Y-126252438D01*
X117190476Y-126252438D02*
X117095238Y-126204819D01*
X117095238Y-126204819D02*
X116904762Y-126204819D01*
X116904762Y-126204819D02*
X116809524Y-126252438D01*
X116809524Y-126252438D02*
X116761905Y-126300057D01*
X116761905Y-126300057D02*
X116714286Y-126395295D01*
X116714286Y-126395295D02*
X116714286Y-126633390D01*
X116714286Y-126633390D02*
X116761905Y-126728628D01*
X116761905Y-126728628D02*
X116809524Y-126776247D01*
X116809524Y-126776247D02*
X116904762Y-126823866D01*
X116904762Y-126823866D02*
X117095238Y-126823866D01*
X117095238Y-126823866D02*
X117190476Y-126776247D01*
X117190476Y-126776247D02*
X117238095Y-126728628D01*
X117238095Y-126728628D02*
X117285714Y-126633390D01*
X138833333Y-106109580D02*
X138785714Y-106157200D01*
X138785714Y-106157200D02*
X138642857Y-106204819D01*
X138642857Y-106204819D02*
X138547619Y-106204819D01*
X138547619Y-106204819D02*
X138404762Y-106157200D01*
X138404762Y-106157200D02*
X138309524Y-106061961D01*
X138309524Y-106061961D02*
X138261905Y-105966723D01*
X138261905Y-105966723D02*
X138214286Y-105776247D01*
X138214286Y-105776247D02*
X138214286Y-105633390D01*
X138214286Y-105633390D02*
X138261905Y-105442914D01*
X138261905Y-105442914D02*
X138309524Y-105347676D01*
X138309524Y-105347676D02*
X138404762Y-105252438D01*
X138404762Y-105252438D02*
X138547619Y-105204819D01*
X138547619Y-105204819D02*
X138642857Y-105204819D01*
X138642857Y-105204819D02*
X138785714Y-105252438D01*
X138785714Y-105252438D02*
X138833333Y-105300057D01*
X139404762Y-105633390D02*
X139309524Y-105585771D01*
X139309524Y-105585771D02*
X139261905Y-105538152D01*
X139261905Y-105538152D02*
X139214286Y-105442914D01*
X139214286Y-105442914D02*
X139214286Y-105395295D01*
X139214286Y-105395295D02*
X139261905Y-105300057D01*
X139261905Y-105300057D02*
X139309524Y-105252438D01*
X139309524Y-105252438D02*
X139404762Y-105204819D01*
X139404762Y-105204819D02*
X139595238Y-105204819D01*
X139595238Y-105204819D02*
X139690476Y-105252438D01*
X139690476Y-105252438D02*
X139738095Y-105300057D01*
X139738095Y-105300057D02*
X139785714Y-105395295D01*
X139785714Y-105395295D02*
X139785714Y-105442914D01*
X139785714Y-105442914D02*
X139738095Y-105538152D01*
X139738095Y-105538152D02*
X139690476Y-105585771D01*
X139690476Y-105585771D02*
X139595238Y-105633390D01*
X139595238Y-105633390D02*
X139404762Y-105633390D01*
X139404762Y-105633390D02*
X139309524Y-105681009D01*
X139309524Y-105681009D02*
X139261905Y-105728628D01*
X139261905Y-105728628D02*
X139214286Y-105823866D01*
X139214286Y-105823866D02*
X139214286Y-106014342D01*
X139214286Y-106014342D02*
X139261905Y-106109580D01*
X139261905Y-106109580D02*
X139309524Y-106157200D01*
X139309524Y-106157200D02*
X139404762Y-106204819D01*
X139404762Y-106204819D02*
X139595238Y-106204819D01*
X139595238Y-106204819D02*
X139690476Y-106157200D01*
X139690476Y-106157200D02*
X139738095Y-106109580D01*
X139738095Y-106109580D02*
X139785714Y-106014342D01*
X139785714Y-106014342D02*
X139785714Y-105823866D01*
X139785714Y-105823866D02*
X139738095Y-105728628D01*
X139738095Y-105728628D02*
X139690476Y-105681009D01*
X139690476Y-105681009D02*
X139595238Y-105633390D01*
X186954819Y-101583333D02*
X187669104Y-101583333D01*
X187669104Y-101583333D02*
X187811961Y-101630952D01*
X187811961Y-101630952D02*
X187907200Y-101726190D01*
X187907200Y-101726190D02*
X187954819Y-101869047D01*
X187954819Y-101869047D02*
X187954819Y-101964285D01*
X187383390Y-100964285D02*
X187335771Y-101059523D01*
X187335771Y-101059523D02*
X187288152Y-101107142D01*
X187288152Y-101107142D02*
X187192914Y-101154761D01*
X187192914Y-101154761D02*
X187145295Y-101154761D01*
X187145295Y-101154761D02*
X187050057Y-101107142D01*
X187050057Y-101107142D02*
X187002438Y-101059523D01*
X187002438Y-101059523D02*
X186954819Y-100964285D01*
X186954819Y-100964285D02*
X186954819Y-100773809D01*
X186954819Y-100773809D02*
X187002438Y-100678571D01*
X187002438Y-100678571D02*
X187050057Y-100630952D01*
X187050057Y-100630952D02*
X187145295Y-100583333D01*
X187145295Y-100583333D02*
X187192914Y-100583333D01*
X187192914Y-100583333D02*
X187288152Y-100630952D01*
X187288152Y-100630952D02*
X187335771Y-100678571D01*
X187335771Y-100678571D02*
X187383390Y-100773809D01*
X187383390Y-100773809D02*
X187383390Y-100964285D01*
X187383390Y-100964285D02*
X187431009Y-101059523D01*
X187431009Y-101059523D02*
X187478628Y-101107142D01*
X187478628Y-101107142D02*
X187573866Y-101154761D01*
X187573866Y-101154761D02*
X187764342Y-101154761D01*
X187764342Y-101154761D02*
X187859580Y-101107142D01*
X187859580Y-101107142D02*
X187907200Y-101059523D01*
X187907200Y-101059523D02*
X187954819Y-100964285D01*
X187954819Y-100964285D02*
X187954819Y-100773809D01*
X187954819Y-100773809D02*
X187907200Y-100678571D01*
X187907200Y-100678571D02*
X187859580Y-100630952D01*
X187859580Y-100630952D02*
X187764342Y-100583333D01*
X187764342Y-100583333D02*
X187573866Y-100583333D01*
X187573866Y-100583333D02*
X187478628Y-100630952D01*
X187478628Y-100630952D02*
X187431009Y-100678571D01*
X187431009Y-100678571D02*
X187383390Y-100773809D01*
X129454819Y-53953333D02*
X130169104Y-53953333D01*
X130169104Y-53953333D02*
X130311961Y-54000952D01*
X130311961Y-54000952D02*
X130407200Y-54096190D01*
X130407200Y-54096190D02*
X130454819Y-54239047D01*
X130454819Y-54239047D02*
X130454819Y-54334285D01*
X129550057Y-53524761D02*
X129502438Y-53477142D01*
X129502438Y-53477142D02*
X129454819Y-53381904D01*
X129454819Y-53381904D02*
X129454819Y-53143809D01*
X129454819Y-53143809D02*
X129502438Y-53048571D01*
X129502438Y-53048571D02*
X129550057Y-53000952D01*
X129550057Y-53000952D02*
X129645295Y-52953333D01*
X129645295Y-52953333D02*
X129740533Y-52953333D01*
X129740533Y-52953333D02*
X129883390Y-53000952D01*
X129883390Y-53000952D02*
X130454819Y-53572380D01*
X130454819Y-53572380D02*
X130454819Y-52953333D01*
X155454819Y-71888094D02*
X156264342Y-71888094D01*
X156264342Y-71888094D02*
X156359580Y-71840475D01*
X156359580Y-71840475D02*
X156407200Y-71792856D01*
X156407200Y-71792856D02*
X156454819Y-71697618D01*
X156454819Y-71697618D02*
X156454819Y-71507142D01*
X156454819Y-71507142D02*
X156407200Y-71411904D01*
X156407200Y-71411904D02*
X156359580Y-71364285D01*
X156359580Y-71364285D02*
X156264342Y-71316666D01*
X156264342Y-71316666D02*
X155454819Y-71316666D01*
X156454819Y-70316666D02*
X156454819Y-70888094D01*
X156454819Y-70602380D02*
X155454819Y-70602380D01*
X155454819Y-70602380D02*
X155597676Y-70697618D01*
X155597676Y-70697618D02*
X155692914Y-70792856D01*
X155692914Y-70792856D02*
X155740533Y-70888094D01*
X156454819Y-69364285D02*
X156454819Y-69935713D01*
X156454819Y-69649999D02*
X155454819Y-69649999D01*
X155454819Y-69649999D02*
X155597676Y-69745237D01*
X155597676Y-69745237D02*
X155692914Y-69840475D01*
X155692914Y-69840475D02*
X155740533Y-69935713D01*
X150321428Y-81208557D02*
X150321428Y-80308557D01*
X150749999Y-81208557D02*
X150749999Y-80308557D01*
X150749999Y-80308557D02*
X151264285Y-81208557D01*
X151264285Y-81208557D02*
X151264285Y-80308557D01*
X151649999Y-80951414D02*
X152078571Y-80951414D01*
X151564285Y-81208557D02*
X151864285Y-80308557D01*
X151864285Y-80308557D02*
X152164285Y-81208557D01*
X152421428Y-80394271D02*
X152464285Y-80351414D01*
X152464285Y-80351414D02*
X152550000Y-80308557D01*
X152550000Y-80308557D02*
X152764285Y-80308557D01*
X152764285Y-80308557D02*
X152850000Y-80351414D01*
X152850000Y-80351414D02*
X152892857Y-80394271D01*
X152892857Y-80394271D02*
X152935714Y-80479985D01*
X152935714Y-80479985D02*
X152935714Y-80565700D01*
X152935714Y-80565700D02*
X152892857Y-80694271D01*
X152892857Y-80694271D02*
X152378571Y-81208557D01*
X152378571Y-81208557D02*
X152935714Y-81208557D01*
X153278571Y-80394271D02*
X153321428Y-80351414D01*
X153321428Y-80351414D02*
X153407143Y-80308557D01*
X153407143Y-80308557D02*
X153621428Y-80308557D01*
X153621428Y-80308557D02*
X153707143Y-80351414D01*
X153707143Y-80351414D02*
X153750000Y-80394271D01*
X153750000Y-80394271D02*
X153792857Y-80479985D01*
X153792857Y-80479985D02*
X153792857Y-80565700D01*
X153792857Y-80565700D02*
X153750000Y-80694271D01*
X153750000Y-80694271D02*
X153235714Y-81208557D01*
X153235714Y-81208557D02*
X153792857Y-81208557D01*
X154564286Y-80308557D02*
X154392857Y-80308557D01*
X154392857Y-80308557D02*
X154307143Y-80351414D01*
X154307143Y-80351414D02*
X154264286Y-80394271D01*
X154264286Y-80394271D02*
X154178571Y-80522842D01*
X154178571Y-80522842D02*
X154135714Y-80694271D01*
X154135714Y-80694271D02*
X154135714Y-81037128D01*
X154135714Y-81037128D02*
X154178571Y-81122842D01*
X154178571Y-81122842D02*
X154221428Y-81165700D01*
X154221428Y-81165700D02*
X154307143Y-81208557D01*
X154307143Y-81208557D02*
X154478571Y-81208557D01*
X154478571Y-81208557D02*
X154564286Y-81165700D01*
X154564286Y-81165700D02*
X154607143Y-81122842D01*
X154607143Y-81122842D02*
X154650000Y-81037128D01*
X154650000Y-81037128D02*
X154650000Y-80822842D01*
X154650000Y-80822842D02*
X154607143Y-80737128D01*
X154607143Y-80737128D02*
X154564286Y-80694271D01*
X154564286Y-80694271D02*
X154478571Y-80651414D01*
X154478571Y-80651414D02*
X154307143Y-80651414D01*
X154307143Y-80651414D02*
X154221428Y-80694271D01*
X154221428Y-80694271D02*
X154178571Y-80737128D01*
X154178571Y-80737128D02*
X154135714Y-80822842D01*
X155721428Y-81208557D02*
X155721428Y-80308557D01*
X156107142Y-80394271D02*
X156149999Y-80351414D01*
X156149999Y-80351414D02*
X156235714Y-80308557D01*
X156235714Y-80308557D02*
X156449999Y-80308557D01*
X156449999Y-80308557D02*
X156535714Y-80351414D01*
X156535714Y-80351414D02*
X156578571Y-80394271D01*
X156578571Y-80394271D02*
X156621428Y-80479985D01*
X156621428Y-80479985D02*
X156621428Y-80565700D01*
X156621428Y-80565700D02*
X156578571Y-80694271D01*
X156578571Y-80694271D02*
X156064285Y-81208557D01*
X156064285Y-81208557D02*
X156621428Y-81208557D01*
X157521428Y-81122842D02*
X157478571Y-81165700D01*
X157478571Y-81165700D02*
X157349999Y-81208557D01*
X157349999Y-81208557D02*
X157264285Y-81208557D01*
X157264285Y-81208557D02*
X157135714Y-81165700D01*
X157135714Y-81165700D02*
X157049999Y-81079985D01*
X157049999Y-81079985D02*
X157007142Y-80994271D01*
X157007142Y-80994271D02*
X156964285Y-80822842D01*
X156964285Y-80822842D02*
X156964285Y-80694271D01*
X156964285Y-80694271D02*
X157007142Y-80522842D01*
X157007142Y-80522842D02*
X157049999Y-80437128D01*
X157049999Y-80437128D02*
X157135714Y-80351414D01*
X157135714Y-80351414D02*
X157264285Y-80308557D01*
X157264285Y-80308557D02*
X157349999Y-80308557D01*
X157349999Y-80308557D02*
X157478571Y-80351414D01*
X157478571Y-80351414D02*
X157521428Y-80394271D01*
X158592856Y-80865700D02*
X159278571Y-80865700D01*
X159107142Y-81037128D02*
X159278571Y-80865700D01*
X159278571Y-80865700D02*
X159107142Y-80694271D01*
X157704819Y-88661904D02*
X158514342Y-88661904D01*
X158514342Y-88661904D02*
X158609580Y-88614285D01*
X158609580Y-88614285D02*
X158657200Y-88566666D01*
X158657200Y-88566666D02*
X158704819Y-88471428D01*
X158704819Y-88471428D02*
X158704819Y-88280952D01*
X158704819Y-88280952D02*
X158657200Y-88185714D01*
X158657200Y-88185714D02*
X158609580Y-88138095D01*
X158609580Y-88138095D02*
X158514342Y-88090476D01*
X158514342Y-88090476D02*
X157704819Y-88090476D01*
X158038152Y-87185714D02*
X158704819Y-87185714D01*
X157657200Y-87423809D02*
X158371485Y-87661904D01*
X158371485Y-87661904D02*
X158371485Y-87042857D01*
X173304819Y-129761904D02*
X172304819Y-129761904D01*
X172781009Y-129761904D02*
X172781009Y-129190476D01*
X173304819Y-129190476D02*
X172304819Y-129190476D01*
X172638152Y-128285714D02*
X173304819Y-128285714D01*
X172257200Y-128523809D02*
X172971485Y-128761904D01*
X172971485Y-128761904D02*
X172971485Y-128142857D01*
X98500057Y-59445238D02*
X98452438Y-59540476D01*
X98452438Y-59540476D02*
X98357200Y-59635714D01*
X98357200Y-59635714D02*
X98214342Y-59778571D01*
X98214342Y-59778571D02*
X98166723Y-59873809D01*
X98166723Y-59873809D02*
X98166723Y-59969047D01*
X98404819Y-59921428D02*
X98357200Y-60016666D01*
X98357200Y-60016666D02*
X98261961Y-60111904D01*
X98261961Y-60111904D02*
X98071485Y-60159523D01*
X98071485Y-60159523D02*
X97738152Y-60159523D01*
X97738152Y-60159523D02*
X97547676Y-60111904D01*
X97547676Y-60111904D02*
X97452438Y-60016666D01*
X97452438Y-60016666D02*
X97404819Y-59921428D01*
X97404819Y-59921428D02*
X97404819Y-59730952D01*
X97404819Y-59730952D02*
X97452438Y-59635714D01*
X97452438Y-59635714D02*
X97547676Y-59540476D01*
X97547676Y-59540476D02*
X97738152Y-59492857D01*
X97738152Y-59492857D02*
X98071485Y-59492857D01*
X98071485Y-59492857D02*
X98261961Y-59540476D01*
X98261961Y-59540476D02*
X98357200Y-59635714D01*
X98357200Y-59635714D02*
X98404819Y-59730952D01*
X98404819Y-59730952D02*
X98404819Y-59921428D01*
X98404819Y-58540476D02*
X98404819Y-59111904D01*
X98404819Y-58826190D02*
X97404819Y-58826190D01*
X97404819Y-58826190D02*
X97547676Y-58921428D01*
X97547676Y-58921428D02*
X97642914Y-59016666D01*
X97642914Y-59016666D02*
X97690533Y-59111904D01*
X99304819Y-129761904D02*
X98304819Y-129761904D01*
X98781009Y-129761904D02*
X98781009Y-129190476D01*
X99304819Y-129190476D02*
X98304819Y-129190476D01*
X98304819Y-128809523D02*
X98304819Y-128190476D01*
X98304819Y-128190476D02*
X98685771Y-128523809D01*
X98685771Y-128523809D02*
X98685771Y-128380952D01*
X98685771Y-128380952D02*
X98733390Y-128285714D01*
X98733390Y-128285714D02*
X98781009Y-128238095D01*
X98781009Y-128238095D02*
X98876247Y-128190476D01*
X98876247Y-128190476D02*
X99114342Y-128190476D01*
X99114342Y-128190476D02*
X99209580Y-128238095D01*
X99209580Y-128238095D02*
X99257200Y-128285714D01*
X99257200Y-128285714D02*
X99304819Y-128380952D01*
X99304819Y-128380952D02*
X99304819Y-128666666D01*
X99304819Y-128666666D02*
X99257200Y-128761904D01*
X99257200Y-128761904D02*
X99209580Y-128809523D01*
X121704819Y-88661904D02*
X122514342Y-88661904D01*
X122514342Y-88661904D02*
X122609580Y-88614285D01*
X122609580Y-88614285D02*
X122657200Y-88566666D01*
X122657200Y-88566666D02*
X122704819Y-88471428D01*
X122704819Y-88471428D02*
X122704819Y-88280952D01*
X122704819Y-88280952D02*
X122657200Y-88185714D01*
X122657200Y-88185714D02*
X122609580Y-88138095D01*
X122609580Y-88138095D02*
X122514342Y-88090476D01*
X122514342Y-88090476D02*
X121704819Y-88090476D01*
X121800057Y-87661904D02*
X121752438Y-87614285D01*
X121752438Y-87614285D02*
X121704819Y-87519047D01*
X121704819Y-87519047D02*
X121704819Y-87280952D01*
X121704819Y-87280952D02*
X121752438Y-87185714D01*
X121752438Y-87185714D02*
X121800057Y-87138095D01*
X121800057Y-87138095D02*
X121895295Y-87090476D01*
X121895295Y-87090476D02*
X121990533Y-87090476D01*
X121990533Y-87090476D02*
X122133390Y-87138095D01*
X122133390Y-87138095D02*
X122704819Y-87709523D01*
X122704819Y-87709523D02*
X122704819Y-87090476D01*
X129004819Y-67088094D02*
X129814342Y-67088094D01*
X129814342Y-67088094D02*
X129909580Y-67040475D01*
X129909580Y-67040475D02*
X129957200Y-66992856D01*
X129957200Y-66992856D02*
X130004819Y-66897618D01*
X130004819Y-66897618D02*
X130004819Y-66707142D01*
X130004819Y-66707142D02*
X129957200Y-66611904D01*
X129957200Y-66611904D02*
X129909580Y-66564285D01*
X129909580Y-66564285D02*
X129814342Y-66516666D01*
X129814342Y-66516666D02*
X129004819Y-66516666D01*
X130004819Y-65516666D02*
X130004819Y-66088094D01*
X130004819Y-65802380D02*
X129004819Y-65802380D01*
X129004819Y-65802380D02*
X129147676Y-65897618D01*
X129147676Y-65897618D02*
X129242914Y-65992856D01*
X129242914Y-65992856D02*
X129290533Y-66088094D01*
X129004819Y-64897618D02*
X129004819Y-64802380D01*
X129004819Y-64802380D02*
X129052438Y-64707142D01*
X129052438Y-64707142D02*
X129100057Y-64659523D01*
X129100057Y-64659523D02*
X129195295Y-64611904D01*
X129195295Y-64611904D02*
X129385771Y-64564285D01*
X129385771Y-64564285D02*
X129623866Y-64564285D01*
X129623866Y-64564285D02*
X129814342Y-64611904D01*
X129814342Y-64611904D02*
X129909580Y-64659523D01*
X129909580Y-64659523D02*
X129957200Y-64707142D01*
X129957200Y-64707142D02*
X130004819Y-64802380D01*
X130004819Y-64802380D02*
X130004819Y-64897618D01*
X130004819Y-64897618D02*
X129957200Y-64992856D01*
X129957200Y-64992856D02*
X129909580Y-65040475D01*
X129909580Y-65040475D02*
X129814342Y-65088094D01*
X129814342Y-65088094D02*
X129623866Y-65135713D01*
X129623866Y-65135713D02*
X129385771Y-65135713D01*
X129385771Y-65135713D02*
X129195295Y-65088094D01*
X129195295Y-65088094D02*
X129100057Y-65040475D01*
X129100057Y-65040475D02*
X129052438Y-64992856D01*
X129052438Y-64992856D02*
X129004819Y-64897618D01*
X125821428Y-81208557D02*
X125821428Y-80308557D01*
X126249999Y-81208557D02*
X126249999Y-80308557D01*
X126249999Y-80308557D02*
X126764285Y-81208557D01*
X126764285Y-81208557D02*
X126764285Y-80308557D01*
X127149999Y-80951414D02*
X127578571Y-80951414D01*
X127064285Y-81208557D02*
X127364285Y-80308557D01*
X127364285Y-80308557D02*
X127664285Y-81208557D01*
X127921428Y-80394271D02*
X127964285Y-80351414D01*
X127964285Y-80351414D02*
X128050000Y-80308557D01*
X128050000Y-80308557D02*
X128264285Y-80308557D01*
X128264285Y-80308557D02*
X128350000Y-80351414D01*
X128350000Y-80351414D02*
X128392857Y-80394271D01*
X128392857Y-80394271D02*
X128435714Y-80479985D01*
X128435714Y-80479985D02*
X128435714Y-80565700D01*
X128435714Y-80565700D02*
X128392857Y-80694271D01*
X128392857Y-80694271D02*
X127878571Y-81208557D01*
X127878571Y-81208557D02*
X128435714Y-81208557D01*
X128778571Y-80394271D02*
X128821428Y-80351414D01*
X128821428Y-80351414D02*
X128907143Y-80308557D01*
X128907143Y-80308557D02*
X129121428Y-80308557D01*
X129121428Y-80308557D02*
X129207143Y-80351414D01*
X129207143Y-80351414D02*
X129250000Y-80394271D01*
X129250000Y-80394271D02*
X129292857Y-80479985D01*
X129292857Y-80479985D02*
X129292857Y-80565700D01*
X129292857Y-80565700D02*
X129250000Y-80694271D01*
X129250000Y-80694271D02*
X128735714Y-81208557D01*
X128735714Y-81208557D02*
X129292857Y-81208557D01*
X130064286Y-80308557D02*
X129892857Y-80308557D01*
X129892857Y-80308557D02*
X129807143Y-80351414D01*
X129807143Y-80351414D02*
X129764286Y-80394271D01*
X129764286Y-80394271D02*
X129678571Y-80522842D01*
X129678571Y-80522842D02*
X129635714Y-80694271D01*
X129635714Y-80694271D02*
X129635714Y-81037128D01*
X129635714Y-81037128D02*
X129678571Y-81122842D01*
X129678571Y-81122842D02*
X129721428Y-81165700D01*
X129721428Y-81165700D02*
X129807143Y-81208557D01*
X129807143Y-81208557D02*
X129978571Y-81208557D01*
X129978571Y-81208557D02*
X130064286Y-81165700D01*
X130064286Y-81165700D02*
X130107143Y-81122842D01*
X130107143Y-81122842D02*
X130150000Y-81037128D01*
X130150000Y-81037128D02*
X130150000Y-80822842D01*
X130150000Y-80822842D02*
X130107143Y-80737128D01*
X130107143Y-80737128D02*
X130064286Y-80694271D01*
X130064286Y-80694271D02*
X129978571Y-80651414D01*
X129978571Y-80651414D02*
X129807143Y-80651414D01*
X129807143Y-80651414D02*
X129721428Y-80694271D01*
X129721428Y-80694271D02*
X129678571Y-80737128D01*
X129678571Y-80737128D02*
X129635714Y-80822842D01*
X131221428Y-81208557D02*
X131221428Y-80308557D01*
X131607142Y-80394271D02*
X131649999Y-80351414D01*
X131649999Y-80351414D02*
X131735714Y-80308557D01*
X131735714Y-80308557D02*
X131949999Y-80308557D01*
X131949999Y-80308557D02*
X132035714Y-80351414D01*
X132035714Y-80351414D02*
X132078571Y-80394271D01*
X132078571Y-80394271D02*
X132121428Y-80479985D01*
X132121428Y-80479985D02*
X132121428Y-80565700D01*
X132121428Y-80565700D02*
X132078571Y-80694271D01*
X132078571Y-80694271D02*
X131564285Y-81208557D01*
X131564285Y-81208557D02*
X132121428Y-81208557D01*
X133021428Y-81122842D02*
X132978571Y-81165700D01*
X132978571Y-81165700D02*
X132849999Y-81208557D01*
X132849999Y-81208557D02*
X132764285Y-81208557D01*
X132764285Y-81208557D02*
X132635714Y-81165700D01*
X132635714Y-81165700D02*
X132549999Y-81079985D01*
X132549999Y-81079985D02*
X132507142Y-80994271D01*
X132507142Y-80994271D02*
X132464285Y-80822842D01*
X132464285Y-80822842D02*
X132464285Y-80694271D01*
X132464285Y-80694271D02*
X132507142Y-80522842D01*
X132507142Y-80522842D02*
X132549999Y-80437128D01*
X132549999Y-80437128D02*
X132635714Y-80351414D01*
X132635714Y-80351414D02*
X132764285Y-80308557D01*
X132764285Y-80308557D02*
X132849999Y-80308557D01*
X132849999Y-80308557D02*
X132978571Y-80351414D01*
X132978571Y-80351414D02*
X133021428Y-80394271D01*
X134092856Y-80865700D02*
X134778571Y-80865700D01*
X134607142Y-81037128D02*
X134778571Y-80865700D01*
X134778571Y-80865700D02*
X134607142Y-80694271D01*
X186454819Y-66833333D02*
X187169104Y-66833333D01*
X187169104Y-66833333D02*
X187311961Y-66880952D01*
X187311961Y-66880952D02*
X187407200Y-66976190D01*
X187407200Y-66976190D02*
X187454819Y-67119047D01*
X187454819Y-67119047D02*
X187454819Y-67214285D01*
X186454819Y-65928571D02*
X186454819Y-66119047D01*
X186454819Y-66119047D02*
X186502438Y-66214285D01*
X186502438Y-66214285D02*
X186550057Y-66261904D01*
X186550057Y-66261904D02*
X186692914Y-66357142D01*
X186692914Y-66357142D02*
X186883390Y-66404761D01*
X186883390Y-66404761D02*
X187264342Y-66404761D01*
X187264342Y-66404761D02*
X187359580Y-66357142D01*
X187359580Y-66357142D02*
X187407200Y-66309523D01*
X187407200Y-66309523D02*
X187454819Y-66214285D01*
X187454819Y-66214285D02*
X187454819Y-66023809D01*
X187454819Y-66023809D02*
X187407200Y-65928571D01*
X187407200Y-65928571D02*
X187359580Y-65880952D01*
X187359580Y-65880952D02*
X187264342Y-65833333D01*
X187264342Y-65833333D02*
X187026247Y-65833333D01*
X187026247Y-65833333D02*
X186931009Y-65880952D01*
X186931009Y-65880952D02*
X186883390Y-65928571D01*
X186883390Y-65928571D02*
X186835771Y-66023809D01*
X186835771Y-66023809D02*
X186835771Y-66214285D01*
X186835771Y-66214285D02*
X186883390Y-66309523D01*
X186883390Y-66309523D02*
X186931009Y-66357142D01*
X186931009Y-66357142D02*
X187026247Y-66404761D01*
X191114700Y-60571428D02*
X191114700Y-59428571D01*
X191686128Y-59999999D02*
X190543271Y-59999999D01*
X191114700Y-73571428D02*
X191114700Y-72428571D01*
%TO.C,U5*%
D11*
X168000000Y-103800000D02*
X184000000Y-103800000D01*
X184000000Y-89700000D01*
X168000000Y-89700000D01*
X168000000Y-103800000D01*
%TO.C,U9*%
X101600000Y-82000000D02*
X111900000Y-82000000D01*
X111900000Y-85000000D01*
X101600000Y-85000000D01*
X101600000Y-82000000D01*
%TO.C,J13*%
X188290000Y-125290000D02*
X193710000Y-125290000D01*
X188290000Y-134010000D02*
X188290000Y-125290000D01*
X189590000Y-135710000D02*
X188290000Y-134010000D01*
X189590000Y-135710000D02*
X192410000Y-135710000D01*
X192410000Y-135710000D02*
X193710000Y-134010000D01*
X193710000Y-134010000D02*
X193710000Y-125290000D01*
%TO.C,J7*%
X188290000Y-77290000D02*
X193710000Y-77290000D01*
X188290000Y-86010000D02*
X188290000Y-77290000D01*
X189590000Y-87710000D02*
X188290000Y-86010000D01*
X189590000Y-87710000D02*
X192410000Y-87710000D01*
X192410000Y-87710000D02*
X193710000Y-86010000D01*
X193710000Y-86010000D02*
X193710000Y-77290000D01*
%TO.C,J20*%
X145790000Y-123060000D02*
X168910000Y-123060000D01*
X145790000Y-132180000D02*
X145790000Y-123060000D01*
X147090000Y-124370000D02*
X167610000Y-124370000D01*
X147090000Y-130870000D02*
X147090000Y-124370000D01*
X150500000Y-133570000D02*
X151500000Y-133570000D01*
X151000000Y-132570000D02*
X150500000Y-133570000D01*
X151500000Y-133570000D02*
X151000000Y-132570000D01*
X155300000Y-130870000D02*
X147090000Y-130870000D01*
X155300000Y-132180000D02*
X155300000Y-130870000D01*
X159400000Y-130870000D02*
X159400000Y-132180000D01*
X167610000Y-124370000D02*
X167610000Y-130870000D01*
X167610000Y-130870000D02*
X159400000Y-130870000D01*
X168910000Y-123060000D02*
X168910000Y-132180000D01*
X168910000Y-132180000D02*
X145790000Y-132180000D01*
%TO.C,J3*%
X87290000Y-75790000D02*
X92710000Y-75790000D01*
X87290000Y-84510000D02*
X87290000Y-75790000D01*
X88590000Y-86210000D02*
X87290000Y-84510000D01*
X88590000Y-86210000D02*
X91410000Y-86210000D01*
X91410000Y-86210000D02*
X92710000Y-84510000D01*
X92710000Y-84510000D02*
X92710000Y-75790000D01*
%TO.C,J5*%
X86740000Y-125710000D02*
X86740000Y-120290000D01*
X95460000Y-120290000D02*
X86740000Y-120290000D01*
X95460000Y-125710000D02*
X86740000Y-125710000D01*
X97160000Y-121590000D02*
X95460000Y-120290000D01*
X97160000Y-124410000D02*
X95460000Y-125710000D01*
X97160000Y-124410000D02*
X97160000Y-121590000D01*
%TO.C,J12*%
X188290000Y-109290000D02*
X193710000Y-109290000D01*
X188290000Y-118010000D02*
X188290000Y-109290000D01*
X189590000Y-119710000D02*
X188290000Y-118010000D01*
X189590000Y-119710000D02*
X192410000Y-119710000D01*
X192410000Y-119710000D02*
X193710000Y-118010000D01*
X193710000Y-118010000D02*
X193710000Y-109290000D01*
%TO.C,U3*%
X133200000Y-89000000D02*
X147300000Y-89000000D01*
X147300000Y-105000000D01*
X133200000Y-105000000D01*
X133200000Y-89000000D01*
%TO.C,J4*%
X87290000Y-91840000D02*
X92710000Y-91840000D01*
X87290000Y-100560000D02*
X87290000Y-91840000D01*
X88590000Y-102260000D02*
X87290000Y-100560000D01*
X88590000Y-102260000D02*
X91410000Y-102260000D01*
X91410000Y-102260000D02*
X92710000Y-100560000D01*
X92710000Y-100560000D02*
X92710000Y-91840000D01*
%TO.C,M1*%
X122620000Y-53620000D02*
X124000000Y-53620000D01*
X122620000Y-55000000D02*
X122620000Y-53620000D01*
X122620000Y-56270000D02*
X122620000Y-58920000D01*
X122620000Y-56270000D02*
X125380000Y-56270000D01*
X122620000Y-58920000D02*
X125380000Y-58920000D01*
X125380000Y-56270000D02*
X125380000Y-58920000D01*
%TO.C,U1*%
X97200000Y-89000000D02*
X111300000Y-89000000D01*
X111300000Y-105000000D01*
X97200000Y-105000000D01*
X97200000Y-89000000D01*
%TO.C,J1*%
X86650000Y-55650000D02*
X86650000Y-68500000D01*
X86650000Y-68500000D02*
X94950000Y-68500000D01*
X89250000Y-52800000D02*
X86650000Y-55650000D01*
X92400000Y-52800000D02*
X89250000Y-52800000D01*
X94950000Y-55650000D02*
X92400000Y-52800000D01*
X94950000Y-68500000D02*
X94950000Y-55650000D01*
%TO.C,SW2*%
X137380000Y-52080000D02*
X147620000Y-52080000D01*
X137380000Y-60800000D02*
X147620000Y-60800000D01*
X137380000Y-61900000D02*
X147620000Y-61900000D01*
X137380000Y-62520000D02*
X137380000Y-52080000D01*
X139700000Y-62520000D02*
X137380000Y-62520000D01*
X147620000Y-52080000D02*
X147620000Y-62520000D01*
X147620000Y-62520000D02*
X140300000Y-62520000D01*
X140440000Y-63130000D02*
X139560000Y-63130000D01*
X140000000Y-62520000D01*
X140440000Y-63130000D01*
G36*
X140440000Y-63130000D02*
G01*
X139560000Y-63130000D01*
X140000000Y-62520000D01*
X140440000Y-63130000D01*
G37*
%TO.C,SW1*%
X110380000Y-52080000D02*
X120620000Y-52080000D01*
X110380000Y-60800000D02*
X120620000Y-60800000D01*
X110380000Y-61900000D02*
X120620000Y-61900000D01*
X110380000Y-62520000D02*
X110380000Y-52080000D01*
X112700000Y-62520000D02*
X110380000Y-62520000D01*
X120620000Y-52080000D02*
X120620000Y-62520000D01*
X120620000Y-62520000D02*
X113300000Y-62520000D01*
X113440000Y-63130000D02*
X112560000Y-63130000D01*
X113000000Y-62520000D01*
X113440000Y-63130000D01*
G36*
X113440000Y-63130000D02*
G01*
X112560000Y-63130000D01*
X113000000Y-62520000D01*
X113440000Y-63130000D01*
G37*
%TO.C,C9*%
X111020354Y-130125000D02*
X112020354Y-130125000D01*
X111520354Y-129625000D02*
X111520354Y-130625000D01*
X116500000Y-127920000D02*
X116500000Y-138080000D01*
X116540000Y-127920000D02*
X116540000Y-138080000D01*
X116580000Y-127921000D02*
X116580000Y-138079000D01*
X116620000Y-127921000D02*
X116620000Y-138079000D01*
X116660000Y-127923000D02*
X116660000Y-138077000D01*
X116700000Y-127924000D02*
X116700000Y-138076000D01*
X116740000Y-127926000D02*
X116740000Y-138074000D01*
X116780000Y-127928000D02*
X116780000Y-138072000D01*
X116820000Y-127930000D02*
X116820000Y-138070000D01*
X116860000Y-127933000D02*
X116860000Y-138067000D01*
X116900000Y-127936000D02*
X116900000Y-138064000D01*
X116940000Y-127939000D02*
X116940000Y-138061000D01*
X116980000Y-127943000D02*
X116980000Y-138057000D01*
X117020000Y-127946000D02*
X117020000Y-138054000D01*
X117060000Y-127951000D02*
X117060000Y-138049000D01*
X117100000Y-127955000D02*
X117100000Y-138045000D01*
X117140000Y-127960000D02*
X117140000Y-138040000D01*
X117180000Y-127965000D02*
X117180000Y-138035000D01*
X117220000Y-127971000D02*
X117220000Y-138029000D01*
X117260000Y-127977000D02*
X117260000Y-138023000D01*
X117300000Y-127983000D02*
X117300000Y-138017000D01*
X117340000Y-127989000D02*
X117340000Y-138011000D01*
X117380000Y-127996000D02*
X117380000Y-138004000D01*
X117420000Y-128003000D02*
X117420000Y-137997000D01*
X117460000Y-128011000D02*
X117460000Y-137989000D01*
X117500000Y-128019000D02*
X117500000Y-137981000D01*
X117540000Y-128027000D02*
X117540000Y-137973000D01*
X117580000Y-128035000D02*
X117580000Y-137965000D01*
X117620000Y-128044000D02*
X117620000Y-137956000D01*
X117660000Y-128053000D02*
X117660000Y-137947000D01*
X117700000Y-128063000D02*
X117700000Y-137937000D01*
X117740000Y-128072000D02*
X117740000Y-137928000D01*
X117780000Y-128083000D02*
X117780000Y-131760000D01*
X117780000Y-134240000D02*
X117780000Y-137917000D01*
X117820000Y-128093000D02*
X117820000Y-131760000D01*
X117820000Y-134240000D02*
X117820000Y-137907000D01*
X117860000Y-128104000D02*
X117860000Y-131760000D01*
X117860000Y-134240000D02*
X117860000Y-137896000D01*
X117900000Y-128115000D02*
X117900000Y-131760000D01*
X117900000Y-134240000D02*
X117900000Y-137885000D01*
X117940000Y-128127000D02*
X117940000Y-131760000D01*
X117940000Y-134240000D02*
X117940000Y-137873000D01*
X117980000Y-128139000D02*
X117980000Y-131760000D01*
X117980000Y-134240000D02*
X117980000Y-137861000D01*
X118020000Y-128151000D02*
X118020000Y-131760000D01*
X118020000Y-134240000D02*
X118020000Y-137849000D01*
X118060000Y-128163000D02*
X118060000Y-131760000D01*
X118060000Y-134240000D02*
X118060000Y-137837000D01*
X118100000Y-128176000D02*
X118100000Y-131760000D01*
X118100000Y-134240000D02*
X118100000Y-137824000D01*
X118140000Y-128190000D02*
X118140000Y-131760000D01*
X118140000Y-134240000D02*
X118140000Y-137810000D01*
X118180000Y-128203000D02*
X118180000Y-131760000D01*
X118180000Y-134240000D02*
X118180000Y-137797000D01*
X118220000Y-128218000D02*
X118220000Y-131760000D01*
X118220000Y-134240000D02*
X118220000Y-137782000D01*
X118260000Y-128232000D02*
X118260000Y-131760000D01*
X118260000Y-134240000D02*
X118260000Y-137768000D01*
X118300000Y-128247000D02*
X118300000Y-131760000D01*
X118300000Y-134240000D02*
X118300000Y-137753000D01*
X118340000Y-128262000D02*
X118340000Y-131760000D01*
X118340000Y-134240000D02*
X118340000Y-137738000D01*
X118380000Y-128278000D02*
X118380000Y-131760000D01*
X118380000Y-134240000D02*
X118380000Y-137722000D01*
X118420000Y-128294000D02*
X118420000Y-131760000D01*
X118420000Y-134240000D02*
X118420000Y-137706000D01*
X118460000Y-128310000D02*
X118460000Y-131760000D01*
X118460000Y-134240000D02*
X118460000Y-137690000D01*
X118500000Y-128327000D02*
X118500000Y-131760000D01*
X118500000Y-134240000D02*
X118500000Y-137673000D01*
X118540000Y-128344000D02*
X118540000Y-131760000D01*
X118540000Y-134240000D02*
X118540000Y-137656000D01*
X118580000Y-128362000D02*
X118580000Y-131760000D01*
X118580000Y-134240000D02*
X118580000Y-137638000D01*
X118620000Y-128380000D02*
X118620000Y-131760000D01*
X118620000Y-134240000D02*
X118620000Y-137620000D01*
X118660000Y-128398000D02*
X118660000Y-131760000D01*
X118660000Y-134240000D02*
X118660000Y-137602000D01*
X118700000Y-128417000D02*
X118700000Y-131760000D01*
X118700000Y-134240000D02*
X118700000Y-137583000D01*
X118740000Y-128436000D02*
X118740000Y-131760000D01*
X118740000Y-134240000D02*
X118740000Y-137564000D01*
X118780000Y-128456000D02*
X118780000Y-131760000D01*
X118780000Y-134240000D02*
X118780000Y-137544000D01*
X118820000Y-128476000D02*
X118820000Y-131760000D01*
X118820000Y-134240000D02*
X118820000Y-137524000D01*
X118860000Y-128496000D02*
X118860000Y-131760000D01*
X118860000Y-134240000D02*
X118860000Y-137504000D01*
X118900000Y-128517000D02*
X118900000Y-131760000D01*
X118900000Y-134240000D02*
X118900000Y-137483000D01*
X118940000Y-128539000D02*
X118940000Y-131760000D01*
X118940000Y-134240000D02*
X118940000Y-137461000D01*
X118980000Y-128561000D02*
X118980000Y-131760000D01*
X118980000Y-134240000D02*
X118980000Y-137439000D01*
X119020000Y-128583000D02*
X119020000Y-131760000D01*
X119020000Y-134240000D02*
X119020000Y-137417000D01*
X119060000Y-128606000D02*
X119060000Y-131760000D01*
X119060000Y-134240000D02*
X119060000Y-137394000D01*
X119100000Y-128629000D02*
X119100000Y-131760000D01*
X119100000Y-134240000D02*
X119100000Y-137371000D01*
X119140000Y-128653000D02*
X119140000Y-131760000D01*
X119140000Y-134240000D02*
X119140000Y-137347000D01*
X119180000Y-128677000D02*
X119180000Y-131760000D01*
X119180000Y-134240000D02*
X119180000Y-137323000D01*
X119220000Y-128702000D02*
X119220000Y-131760000D01*
X119220000Y-134240000D02*
X119220000Y-137298000D01*
X119260000Y-128728000D02*
X119260000Y-131760000D01*
X119260000Y-134240000D02*
X119260000Y-137272000D01*
X119300000Y-128753000D02*
X119300000Y-131760000D01*
X119300000Y-134240000D02*
X119300000Y-137247000D01*
X119340000Y-128780000D02*
X119340000Y-131760000D01*
X119340000Y-134240000D02*
X119340000Y-137220000D01*
X119380000Y-128807000D02*
X119380000Y-131760000D01*
X119380000Y-134240000D02*
X119380000Y-137193000D01*
X119420000Y-128834000D02*
X119420000Y-131760000D01*
X119420000Y-134240000D02*
X119420000Y-137166000D01*
X119460000Y-128862000D02*
X119460000Y-131760000D01*
X119460000Y-134240000D02*
X119460000Y-137138000D01*
X119500000Y-128891000D02*
X119500000Y-131760000D01*
X119500000Y-134240000D02*
X119500000Y-137109000D01*
X119540000Y-128920000D02*
X119540000Y-131760000D01*
X119540000Y-134240000D02*
X119540000Y-137080000D01*
X119580000Y-128950000D02*
X119580000Y-131760000D01*
X119580000Y-134240000D02*
X119580000Y-137050000D01*
X119620000Y-128980000D02*
X119620000Y-131760000D01*
X119620000Y-134240000D02*
X119620000Y-137020000D01*
X119660000Y-129012000D02*
X119660000Y-131760000D01*
X119660000Y-134240000D02*
X119660000Y-136988000D01*
X119700000Y-129043000D02*
X119700000Y-131760000D01*
X119700000Y-134240000D02*
X119700000Y-136957000D01*
X119740000Y-129076000D02*
X119740000Y-131760000D01*
X119740000Y-134240000D02*
X119740000Y-136924000D01*
X119780000Y-129109000D02*
X119780000Y-131760000D01*
X119780000Y-134240000D02*
X119780000Y-136891000D01*
X119820000Y-129142000D02*
X119820000Y-131760000D01*
X119820000Y-134240000D02*
X119820000Y-136858000D01*
X119860000Y-129177000D02*
X119860000Y-131760000D01*
X119860000Y-134240000D02*
X119860000Y-136823000D01*
X119900000Y-129212000D02*
X119900000Y-131760000D01*
X119900000Y-134240000D02*
X119900000Y-136788000D01*
X119940000Y-129248000D02*
X119940000Y-131760000D01*
X119940000Y-134240000D02*
X119940000Y-136752000D01*
X119980000Y-129284000D02*
X119980000Y-131760000D01*
X119980000Y-134240000D02*
X119980000Y-136716000D01*
X120020000Y-129322000D02*
X120020000Y-131760000D01*
X120020000Y-134240000D02*
X120020000Y-136678000D01*
X120060000Y-129360000D02*
X120060000Y-131760000D01*
X120060000Y-134240000D02*
X120060000Y-136640000D01*
X120100000Y-129399000D02*
X120100000Y-131760000D01*
X120100000Y-134240000D02*
X120100000Y-136601000D01*
X120140000Y-129439000D02*
X120140000Y-131760000D01*
X120140000Y-134240000D02*
X120140000Y-136561000D01*
X120180000Y-129480000D02*
X120180000Y-131760000D01*
X120180000Y-134240000D02*
X120180000Y-136520000D01*
X120220000Y-129522000D02*
X120220000Y-131760000D01*
X120220000Y-134240000D02*
X120220000Y-136478000D01*
X120260000Y-129565000D02*
X120260000Y-136435000D01*
X120300000Y-129609000D02*
X120300000Y-136391000D01*
X120340000Y-129653000D02*
X120340000Y-136347000D01*
X120380000Y-129699000D02*
X120380000Y-136301000D01*
X120420000Y-129746000D02*
X120420000Y-136254000D01*
X120460000Y-129795000D02*
X120460000Y-136205000D01*
X120500000Y-129844000D02*
X120500000Y-136156000D01*
X120540000Y-129895000D02*
X120540000Y-136105000D01*
X120580000Y-129947000D02*
X120580000Y-136053000D01*
X120620000Y-130000000D02*
X120620000Y-136000000D01*
X120660000Y-130055000D02*
X120660000Y-135945000D01*
X120700000Y-130112000D02*
X120700000Y-135888000D01*
X120740000Y-130170000D02*
X120740000Y-135830000D01*
X120780000Y-130230000D02*
X120780000Y-135770000D01*
X120820000Y-130292000D02*
X120820000Y-135708000D01*
X120860000Y-130356000D02*
X120860000Y-135644000D01*
X120900000Y-130422000D02*
X120900000Y-135578000D01*
X120940000Y-130490000D02*
X120940000Y-135510000D01*
X120980000Y-130561000D02*
X120980000Y-135439000D01*
X121020000Y-130635000D02*
X121020000Y-135365000D01*
X121060000Y-130712000D02*
X121060000Y-135288000D01*
X121100000Y-130792000D02*
X121100000Y-135208000D01*
X121140000Y-130876000D02*
X121140000Y-135124000D01*
X121180000Y-130963000D02*
X121180000Y-135037000D01*
X121220000Y-131056000D02*
X121220000Y-134944000D01*
X121260000Y-131154000D02*
X121260000Y-134846000D01*
X121300000Y-131258000D02*
X121300000Y-134742000D01*
X121340000Y-131370000D02*
X121340000Y-134630000D01*
X121380000Y-131491000D02*
X121380000Y-134509000D01*
X121420000Y-131623000D02*
X121420000Y-134377000D01*
X121460000Y-131770000D02*
X121460000Y-134230000D01*
X121500000Y-131938000D02*
X121500000Y-134062000D01*
X121540000Y-132138000D02*
X121540000Y-133862000D01*
X121580000Y-132401000D02*
X121580000Y-133599000D01*
X121620000Y-133000000D02*
G75*
G02*
X111380000Y-133000000I-5120000J0D01*
G01*
X111380000Y-133000000D02*
G75*
G02*
X121620000Y-133000000I5120000J0D01*
G01*
%TO.C,C8*%
X133520354Y-109125000D02*
X134520354Y-109125000D01*
X134020354Y-108625000D02*
X134020354Y-109625000D01*
X139000000Y-106920000D02*
X139000000Y-117080000D01*
X139040000Y-106920000D02*
X139040000Y-117080000D01*
X139080000Y-106921000D02*
X139080000Y-117079000D01*
X139120000Y-106921000D02*
X139120000Y-117079000D01*
X139160000Y-106923000D02*
X139160000Y-117077000D01*
X139200000Y-106924000D02*
X139200000Y-117076000D01*
X139240000Y-106926000D02*
X139240000Y-117074000D01*
X139280000Y-106928000D02*
X139280000Y-117072000D01*
X139320000Y-106930000D02*
X139320000Y-117070000D01*
X139360000Y-106933000D02*
X139360000Y-117067000D01*
X139400000Y-106936000D02*
X139400000Y-117064000D01*
X139440000Y-106939000D02*
X139440000Y-117061000D01*
X139480000Y-106943000D02*
X139480000Y-117057000D01*
X139520000Y-106946000D02*
X139520000Y-117054000D01*
X139560000Y-106951000D02*
X139560000Y-117049000D01*
X139600000Y-106955000D02*
X139600000Y-117045000D01*
X139640000Y-106960000D02*
X139640000Y-117040000D01*
X139680000Y-106965000D02*
X139680000Y-117035000D01*
X139720000Y-106971000D02*
X139720000Y-117029000D01*
X139760000Y-106977000D02*
X139760000Y-117023000D01*
X139800000Y-106983000D02*
X139800000Y-117017000D01*
X139840000Y-106989000D02*
X139840000Y-117011000D01*
X139880000Y-106996000D02*
X139880000Y-117004000D01*
X139920000Y-107003000D02*
X139920000Y-116997000D01*
X139960000Y-107011000D02*
X139960000Y-116989000D01*
X140000000Y-107019000D02*
X140000000Y-116981000D01*
X140040000Y-107027000D02*
X140040000Y-116973000D01*
X140080000Y-107035000D02*
X140080000Y-116965000D01*
X140120000Y-107044000D02*
X140120000Y-116956000D01*
X140160000Y-107053000D02*
X140160000Y-116947000D01*
X140200000Y-107063000D02*
X140200000Y-116937000D01*
X140240000Y-107072000D02*
X140240000Y-116928000D01*
X140280000Y-107083000D02*
X140280000Y-110760000D01*
X140280000Y-113240000D02*
X140280000Y-116917000D01*
X140320000Y-107093000D02*
X140320000Y-110760000D01*
X140320000Y-113240000D02*
X140320000Y-116907000D01*
X140360000Y-107104000D02*
X140360000Y-110760000D01*
X140360000Y-113240000D02*
X140360000Y-116896000D01*
X140400000Y-107115000D02*
X140400000Y-110760000D01*
X140400000Y-113240000D02*
X140400000Y-116885000D01*
X140440000Y-107127000D02*
X140440000Y-110760000D01*
X140440000Y-113240000D02*
X140440000Y-116873000D01*
X140480000Y-107139000D02*
X140480000Y-110760000D01*
X140480000Y-113240000D02*
X140480000Y-116861000D01*
X140520000Y-107151000D02*
X140520000Y-110760000D01*
X140520000Y-113240000D02*
X140520000Y-116849000D01*
X140560000Y-107163000D02*
X140560000Y-110760000D01*
X140560000Y-113240000D02*
X140560000Y-116837000D01*
X140600000Y-107176000D02*
X140600000Y-110760000D01*
X140600000Y-113240000D02*
X140600000Y-116824000D01*
X140640000Y-107190000D02*
X140640000Y-110760000D01*
X140640000Y-113240000D02*
X140640000Y-116810000D01*
X140680000Y-107203000D02*
X140680000Y-110760000D01*
X140680000Y-113240000D02*
X140680000Y-116797000D01*
X140720000Y-107218000D02*
X140720000Y-110760000D01*
X140720000Y-113240000D02*
X140720000Y-116782000D01*
X140760000Y-107232000D02*
X140760000Y-110760000D01*
X140760000Y-113240000D02*
X140760000Y-116768000D01*
X140800000Y-107247000D02*
X140800000Y-110760000D01*
X140800000Y-113240000D02*
X140800000Y-116753000D01*
X140840000Y-107262000D02*
X140840000Y-110760000D01*
X140840000Y-113240000D02*
X140840000Y-116738000D01*
X140880000Y-107278000D02*
X140880000Y-110760000D01*
X140880000Y-113240000D02*
X140880000Y-116722000D01*
X140920000Y-107294000D02*
X140920000Y-110760000D01*
X140920000Y-113240000D02*
X140920000Y-116706000D01*
X140960000Y-107310000D02*
X140960000Y-110760000D01*
X140960000Y-113240000D02*
X140960000Y-116690000D01*
X141000000Y-107327000D02*
X141000000Y-110760000D01*
X141000000Y-113240000D02*
X141000000Y-116673000D01*
X141040000Y-107344000D02*
X141040000Y-110760000D01*
X141040000Y-113240000D02*
X141040000Y-116656000D01*
X141080000Y-107362000D02*
X141080000Y-110760000D01*
X141080000Y-113240000D02*
X141080000Y-116638000D01*
X141120000Y-107380000D02*
X141120000Y-110760000D01*
X141120000Y-113240000D02*
X141120000Y-116620000D01*
X141160000Y-107398000D02*
X141160000Y-110760000D01*
X141160000Y-113240000D02*
X141160000Y-116602000D01*
X141200000Y-107417000D02*
X141200000Y-110760000D01*
X141200000Y-113240000D02*
X141200000Y-116583000D01*
X141240000Y-107436000D02*
X141240000Y-110760000D01*
X141240000Y-113240000D02*
X141240000Y-116564000D01*
X141280000Y-107456000D02*
X141280000Y-110760000D01*
X141280000Y-113240000D02*
X141280000Y-116544000D01*
X141320000Y-107476000D02*
X141320000Y-110760000D01*
X141320000Y-113240000D02*
X141320000Y-116524000D01*
X141360000Y-107496000D02*
X141360000Y-110760000D01*
X141360000Y-113240000D02*
X141360000Y-116504000D01*
X141400000Y-107517000D02*
X141400000Y-110760000D01*
X141400000Y-113240000D02*
X141400000Y-116483000D01*
X141440000Y-107539000D02*
X141440000Y-110760000D01*
X141440000Y-113240000D02*
X141440000Y-116461000D01*
X141480000Y-107561000D02*
X141480000Y-110760000D01*
X141480000Y-113240000D02*
X141480000Y-116439000D01*
X141520000Y-107583000D02*
X141520000Y-110760000D01*
X141520000Y-113240000D02*
X141520000Y-116417000D01*
X141560000Y-107606000D02*
X141560000Y-110760000D01*
X141560000Y-113240000D02*
X141560000Y-116394000D01*
X141600000Y-107629000D02*
X141600000Y-110760000D01*
X141600000Y-113240000D02*
X141600000Y-116371000D01*
X141640000Y-107653000D02*
X141640000Y-110760000D01*
X141640000Y-113240000D02*
X141640000Y-116347000D01*
X141680000Y-107677000D02*
X141680000Y-110760000D01*
X141680000Y-113240000D02*
X141680000Y-116323000D01*
X141720000Y-107702000D02*
X141720000Y-110760000D01*
X141720000Y-113240000D02*
X141720000Y-116298000D01*
X141760000Y-107728000D02*
X141760000Y-110760000D01*
X141760000Y-113240000D02*
X141760000Y-116272000D01*
X141800000Y-107753000D02*
X141800000Y-110760000D01*
X141800000Y-113240000D02*
X141800000Y-116247000D01*
X141840000Y-107780000D02*
X141840000Y-110760000D01*
X141840000Y-113240000D02*
X141840000Y-116220000D01*
X141880000Y-107807000D02*
X141880000Y-110760000D01*
X141880000Y-113240000D02*
X141880000Y-116193000D01*
X141920000Y-107834000D02*
X141920000Y-110760000D01*
X141920000Y-113240000D02*
X141920000Y-116166000D01*
X141960000Y-107862000D02*
X141960000Y-110760000D01*
X141960000Y-113240000D02*
X141960000Y-116138000D01*
X142000000Y-107891000D02*
X142000000Y-110760000D01*
X142000000Y-113240000D02*
X142000000Y-116109000D01*
X142040000Y-107920000D02*
X142040000Y-110760000D01*
X142040000Y-113240000D02*
X142040000Y-116080000D01*
X142080000Y-107950000D02*
X142080000Y-110760000D01*
X142080000Y-113240000D02*
X142080000Y-116050000D01*
X142120000Y-107980000D02*
X142120000Y-110760000D01*
X142120000Y-113240000D02*
X142120000Y-116020000D01*
X142160000Y-108012000D02*
X142160000Y-110760000D01*
X142160000Y-113240000D02*
X142160000Y-115988000D01*
X142200000Y-108043000D02*
X142200000Y-110760000D01*
X142200000Y-113240000D02*
X142200000Y-115957000D01*
X142240000Y-108076000D02*
X142240000Y-110760000D01*
X142240000Y-113240000D02*
X142240000Y-115924000D01*
X142280000Y-108109000D02*
X142280000Y-110760000D01*
X142280000Y-113240000D02*
X142280000Y-115891000D01*
X142320000Y-108142000D02*
X142320000Y-110760000D01*
X142320000Y-113240000D02*
X142320000Y-115858000D01*
X142360000Y-108177000D02*
X142360000Y-110760000D01*
X142360000Y-113240000D02*
X142360000Y-115823000D01*
X142400000Y-108212000D02*
X142400000Y-110760000D01*
X142400000Y-113240000D02*
X142400000Y-115788000D01*
X142440000Y-108248000D02*
X142440000Y-110760000D01*
X142440000Y-113240000D02*
X142440000Y-115752000D01*
X142480000Y-108284000D02*
X142480000Y-110760000D01*
X142480000Y-113240000D02*
X142480000Y-115716000D01*
X142520000Y-108322000D02*
X142520000Y-110760000D01*
X142520000Y-113240000D02*
X142520000Y-115678000D01*
X142560000Y-108360000D02*
X142560000Y-110760000D01*
X142560000Y-113240000D02*
X142560000Y-115640000D01*
X142600000Y-108399000D02*
X142600000Y-110760000D01*
X142600000Y-113240000D02*
X142600000Y-115601000D01*
X142640000Y-108439000D02*
X142640000Y-110760000D01*
X142640000Y-113240000D02*
X142640000Y-115561000D01*
X142680000Y-108480000D02*
X142680000Y-110760000D01*
X142680000Y-113240000D02*
X142680000Y-115520000D01*
X142720000Y-108522000D02*
X142720000Y-110760000D01*
X142720000Y-113240000D02*
X142720000Y-115478000D01*
X142760000Y-108565000D02*
X142760000Y-115435000D01*
X142800000Y-108609000D02*
X142800000Y-115391000D01*
X142840000Y-108653000D02*
X142840000Y-115347000D01*
X142880000Y-108699000D02*
X142880000Y-115301000D01*
X142920000Y-108746000D02*
X142920000Y-115254000D01*
X142960000Y-108795000D02*
X142960000Y-115205000D01*
X143000000Y-108844000D02*
X143000000Y-115156000D01*
X143040000Y-108895000D02*
X143040000Y-115105000D01*
X143080000Y-108947000D02*
X143080000Y-115053000D01*
X143120000Y-109000000D02*
X143120000Y-115000000D01*
X143160000Y-109055000D02*
X143160000Y-114945000D01*
X143200000Y-109112000D02*
X143200000Y-114888000D01*
X143240000Y-109170000D02*
X143240000Y-114830000D01*
X143280000Y-109230000D02*
X143280000Y-114770000D01*
X143320000Y-109292000D02*
X143320000Y-114708000D01*
X143360000Y-109356000D02*
X143360000Y-114644000D01*
X143400000Y-109422000D02*
X143400000Y-114578000D01*
X143440000Y-109490000D02*
X143440000Y-114510000D01*
X143480000Y-109561000D02*
X143480000Y-114439000D01*
X143520000Y-109635000D02*
X143520000Y-114365000D01*
X143560000Y-109712000D02*
X143560000Y-114288000D01*
X143600000Y-109792000D02*
X143600000Y-114208000D01*
X143640000Y-109876000D02*
X143640000Y-114124000D01*
X143680000Y-109963000D02*
X143680000Y-114037000D01*
X143720000Y-110056000D02*
X143720000Y-113944000D01*
X143760000Y-110154000D02*
X143760000Y-113846000D01*
X143800000Y-110258000D02*
X143800000Y-113742000D01*
X143840000Y-110370000D02*
X143840000Y-113630000D01*
X143880000Y-110491000D02*
X143880000Y-113509000D01*
X143920000Y-110623000D02*
X143920000Y-113377000D01*
X143960000Y-110770000D02*
X143960000Y-113230000D01*
X144000000Y-110938000D02*
X144000000Y-113062000D01*
X144040000Y-111138000D02*
X144040000Y-112862000D01*
X144080000Y-111401000D02*
X144080000Y-112599000D01*
X144120000Y-112000000D02*
G75*
G02*
X133880000Y-112000000I-5120000J0D01*
G01*
X133880000Y-112000000D02*
G75*
G02*
X144120000Y-112000000I5120000J0D01*
G01*
%TO.C,J8*%
X188250000Y-102600000D02*
X188250000Y-103850000D01*
X188250000Y-103850000D02*
X189500000Y-103850000D01*
X188540000Y-93440000D02*
X188540000Y-103560000D01*
X188540000Y-103560000D02*
X194510000Y-103560000D01*
X188550000Y-93450000D02*
X188550000Y-95250000D01*
X188550000Y-95250000D02*
X189300000Y-95250000D01*
X188550000Y-96750000D02*
X188550000Y-100250000D01*
X188550000Y-100250000D02*
X189300000Y-100250000D01*
X188550000Y-101750000D02*
X188550000Y-103550000D01*
X188550000Y-103550000D02*
X189300000Y-103550000D01*
X189300000Y-93450000D02*
X188550000Y-93450000D01*
X189300000Y-95250000D02*
X189300000Y-93450000D01*
X189300000Y-96750000D02*
X188550000Y-96750000D01*
X189300000Y-100250000D02*
X189300000Y-96750000D01*
X189300000Y-101750000D02*
X188550000Y-101750000D01*
X189300000Y-103550000D02*
X189300000Y-101750000D01*
X190800000Y-93450000D02*
X190800000Y-94200000D01*
X190800000Y-94200000D02*
X193750000Y-94200000D01*
X190800000Y-102800000D02*
X193750000Y-102800000D01*
X190800000Y-103550000D02*
X190800000Y-102800000D01*
X193750000Y-94200000D02*
X193750000Y-98500000D01*
X193750000Y-102800000D02*
X193750000Y-98500000D01*
X194510000Y-93440000D02*
X188540000Y-93440000D01*
X194510000Y-103560000D02*
X194510000Y-93440000D01*
%TO.C,J2*%
X128620000Y-54620000D02*
X130000000Y-54620000D01*
X128620000Y-56000000D02*
X128620000Y-54620000D01*
X128620000Y-57270000D02*
X128620000Y-62460000D01*
X128620000Y-57270000D02*
X131380000Y-57270000D01*
X128620000Y-62460000D02*
X131380000Y-62460000D01*
X131380000Y-57270000D02*
X131380000Y-62460000D01*
%TO.C,U11*%
X149600000Y-82000000D02*
X159900000Y-82000000D01*
X159900000Y-85000000D01*
X149600000Y-85000000D01*
X149600000Y-82000000D01*
%TO.C,U4*%
X151200000Y-89000000D02*
X165300000Y-89000000D01*
X165300000Y-105000000D01*
X151200000Y-105000000D01*
X151200000Y-89000000D01*
%TO.C,Q1*%
X95930000Y-53240000D02*
X106150000Y-53240000D01*
X95930000Y-54620000D02*
X106150000Y-54620000D01*
X95930000Y-57860000D02*
X95930000Y-53240000D01*
X99190000Y-53240000D02*
X99190000Y-54620000D01*
X102890000Y-53240000D02*
X102890000Y-54620000D01*
X106150000Y-53240000D02*
X106150000Y-57860000D01*
X106150000Y-57860000D02*
X95930000Y-57860000D01*
%TO.C,U2*%
X115200000Y-89000000D02*
X129300000Y-89000000D01*
X129300000Y-105000000D01*
X115200000Y-105000000D01*
X115200000Y-89000000D01*
%TO.C,U10*%
X125100000Y-82000000D02*
X135400000Y-82000000D01*
X135400000Y-85000000D01*
X125100000Y-85000000D01*
X125100000Y-82000000D01*
%TO.C,J6*%
X188290000Y-61290000D02*
X193710000Y-61290000D01*
X188290000Y-70010000D02*
X188290000Y-61290000D01*
X189590000Y-71710000D02*
X188290000Y-70010000D01*
X189590000Y-71710000D02*
X192410000Y-71710000D01*
X192410000Y-71710000D02*
X193710000Y-70010000D01*
X193710000Y-70010000D02*
X193710000Y-61290000D01*
%TD*%
M02*
