%TF.GenerationSoftware,KiCad,Pcbnew,9.0.5*%
%TF.CreationDate,2026-06-29T20:10:14-07:00*%
%TF.ProjectId,nova_pcb_v6_power_v2,6e6f7661-5f70-4636-925f-76365f706f77,rev?*%
%TF.SameCoordinates,Original*%
%TF.FileFunction,Copper,L2,Inr*%
%TF.FilePolarity,Positive*%
%FSLAX46Y46*%
G04 Gerber Fmt 4.6, Leading zero omitted, Abs format (unit mm)*
G04 Created by KiCad (PCBNEW 9.0.5) date 2026-06-29 20:10:14*
%MOMM*%
%LPD*%
G01*
G04 APERTURE LIST*
G04 Aperture macros list*
%AMRoundRect*
0 Rectangle with rounded corners*
0 $1 Rounding radius*
0 $2 $3 $4 $5 $6 $7 $8 $9 X,Y pos of 4 corners*
0 Add a 4 corners polygon primitive as box body*
4,1,4,$2,$3,$4,$5,$6,$7,$8,$9,$2,$3,0*
0 Add four circle primitives for the rounded corners*
1,1,$1+$1,$2,$3*
1,1,$1+$1,$4,$5*
1,1,$1+$1,$6,$7*
1,1,$1+$1,$8,$9*
0 Add four rect primitives between the rounded corners*
20,1,$1+$1,$2,$3,$4,$5,0*
20,1,$1+$1,$4,$5,$6,$7,0*
20,1,$1+$1,$6,$7,$8,$9,0*
20,1,$1+$1,$8,$9,$2,$3,0*%
G04 Aperture macros list end*
%TA.AperFunction,ComponentPad*%
%ADD10R,3.800000X3.800000*%
%TD*%
%TA.AperFunction,ComponentPad*%
%ADD11C,3.800000*%
%TD*%
%TA.AperFunction,ComponentPad*%
%ADD12C,1.700000*%
%TD*%
%TA.AperFunction,ComponentPad*%
%ADD13R,1.700000X1.700000*%
%TD*%
%TA.AperFunction,ComponentPad*%
%ADD14RoundRect,0.760000X-1.140000X1.140000X-1.140000X-1.140000X1.140000X-1.140000X1.140000X1.140000X0*%
%TD*%
%TA.AperFunction,ComponentPad*%
%ADD15RoundRect,0.760000X1.140000X-1.140000X1.140000X1.140000X-1.140000X1.140000X-1.140000X-1.140000X0*%
%TD*%
%TA.AperFunction,ComponentPad*%
%ADD16RoundRect,0.250000X0.600000X-0.600000X0.600000X0.600000X-0.600000X0.600000X-0.600000X-0.600000X0*%
%TD*%
%TA.AperFunction,ComponentPad*%
%ADD17RoundRect,0.760000X1.140000X1.140000X-1.140000X1.140000X-1.140000X-1.140000X1.140000X-1.140000X0*%
%TD*%
%TA.AperFunction,ComponentPad*%
%ADD18RoundRect,1.500000X1.500000X-1.500000X1.500000X1.500000X-1.500000X1.500000X-1.500000X-1.500000X0*%
%TD*%
%TA.AperFunction,ComponentPad*%
%ADD19C,6.000000*%
%TD*%
%TA.AperFunction,ComponentPad*%
%ADD20RoundRect,0.250001X0.949999X-0.949999X0.949999X0.949999X-0.949999X0.949999X-0.949999X-0.949999X0*%
%TD*%
%TA.AperFunction,ComponentPad*%
%ADD21C,2.400000*%
%TD*%
%TA.AperFunction,ComponentPad*%
%ADD22RoundRect,0.250000X-0.750000X-0.750000X0.750000X-0.750000X0.750000X0.750000X-0.750000X0.750000X0*%
%TD*%
%TA.AperFunction,ComponentPad*%
%ADD23C,2.000000*%
%TD*%
%TA.AperFunction,ComponentPad*%
%ADD24RoundRect,0.250000X0.725000X-0.600000X0.725000X0.600000X-0.725000X0.600000X-0.725000X-0.600000X0*%
%TD*%
%TA.AperFunction,ComponentPad*%
%ADD25O,1.950000X1.700000*%
%TD*%
%TA.AperFunction,ComponentPad*%
%ADD26R,2.000000X1.905000*%
%TD*%
%TA.AperFunction,ComponentPad*%
%ADD27O,2.000000X1.905000*%
%TD*%
%TA.AperFunction,ComponentPad*%
%ADD28RoundRect,0.250000X0.750000X-0.750000X0.750000X0.750000X-0.750000X0.750000X-0.750000X-0.750000X0*%
%TD*%
%TA.AperFunction,ComponentPad*%
%ADD29RoundRect,0.250001X-0.949999X0.949999X-0.949999X-0.949999X0.949999X-0.949999X0.949999X0.949999X0*%
%TD*%
%TA.AperFunction,ViaPad*%
%ADD30C,0.600000*%
%TD*%
%TA.AperFunction,ViaPad*%
%ADD31C,1.000000*%
%TD*%
%TA.AperFunction,ViaPad*%
%ADD32C,0.800000*%
%TD*%
%TA.AperFunction,ViaPad*%
%ADD33C,0.550000*%
%TD*%
%TA.AperFunction,ViaPad*%
%ADD34C,0.500000*%
%TD*%
G04 APERTURE END LIST*
D10*
%TO.N,VBAT_PROTECTED*%
%TO.C,U5*%
X181000000Y-101500000D03*
D11*
%TO.N,GND*%
X171000000Y-96500000D03*
X181000000Y-96500000D03*
D12*
X174730000Y-91000000D03*
D13*
%TO.N,EN_BUCKS*%
X177270000Y-91000000D03*
D10*
%TO.N,V7V5_ARM*%
X171000000Y-101500000D03*
%TD*%
D12*
%TO.N,I2C_SDA*%
%TO.C,U9*%
X110540000Y-83500000D03*
%TO.N,I2C_SCL*%
X108000000Y-83500000D03*
%TO.N,+3V3*%
X102920000Y-83500000D03*
%TO.N,GND*%
X105460000Y-83500000D03*
%TD*%
D14*
%TO.N,GND*%
%TO.C,J13*%
X191000000Y-128000000D03*
D11*
%TO.N,V12_L2*%
X191000000Y-133000000D03*
%TD*%
D15*
%TO.N,GND*%
%TO.C,J7*%
X192500000Y-88000000D03*
D11*
%TO.N,V12_HIP*%
X192500000Y-83000000D03*
%TD*%
D16*
%TO.N,V5_AUX*%
%TO.C,J20*%
X151000000Y-128890000D03*
D12*
X151000000Y-126350000D03*
%TO.N,GND*%
X153540000Y-128890000D03*
X153540000Y-126350000D03*
%TO.N,+3V3*%
X156080000Y-128890000D03*
%TO.N,BUS_SERVO*%
X156080000Y-126350000D03*
%TO.N,I2C_SDA*%
X158620000Y-128890000D03*
%TO.N,I2C_SCL*%
X158620000Y-126350000D03*
%TO.N,BATT_LOW*%
X161160000Y-128890000D03*
%TO.N,GND*%
X161160000Y-126350000D03*
X163700000Y-128890000D03*
X163700000Y-126350000D03*
%TD*%
D14*
%TO.N,GND*%
%TO.C,J3*%
X90000000Y-78750000D03*
D11*
%TO.N,V7V5_LEG*%
X90000000Y-83750000D03*
%TD*%
D17*
%TO.N,GND*%
%TO.C,J5*%
X94450000Y-123000000D03*
D11*
%TO.N,V7V5_LEG*%
X89450000Y-123000000D03*
%TD*%
D14*
%TO.N,GND*%
%TO.C,J12*%
X191000000Y-112000000D03*
D11*
%TO.N,V12_JET*%
X191000000Y-117000000D03*
%TD*%
D10*
%TO.N,VBAT_PROTECTED*%
%TO.C,U3*%
X135500000Y-102000000D03*
D11*
%TO.N,GND*%
X140500000Y-92000000D03*
X140500000Y-102000000D03*
D12*
X146000000Y-95730000D03*
D13*
%TO.N,EN_BUCKS*%
X146000000Y-98270000D03*
D10*
%TO.N,V12_L2_RAW*%
X135500000Y-92000000D03*
%TD*%
D15*
%TO.N,GND*%
%TO.C,J4*%
X90000000Y-99550000D03*
D11*
%TO.N,V7V5_LEG*%
X90000000Y-94550000D03*
%TD*%
D13*
%TO.N,VBAT_PROTECTED*%
%TO.C,M1*%
X124000000Y-55000000D03*
D12*
%TO.N,GND*%
X124000000Y-57540000D03*
%TD*%
D10*
%TO.N,VBAT_PROTECTED*%
%TO.C,U1*%
X99500000Y-102000000D03*
D11*
%TO.N,GND*%
X104500000Y-92000000D03*
X104500000Y-102000000D03*
D12*
X110000000Y-95730000D03*
D13*
%TO.N,EN_BUCKS*%
X110000000Y-98270000D03*
D10*
%TO.N,V7V5_LEG*%
X99500000Y-92000000D03*
%TD*%
D18*
%TO.N,/01 Battery Input + Reverse Protection/BATT_NEG*%
%TO.C,J1*%
X90750000Y-64000000D03*
D19*
%TO.N,/01 Battery Input + Reverse Protection/VBAT*%
X90750000Y-56800000D03*
%TD*%
D12*
%TO.N,I2C_SDA*%
%TO.C,U12*%
X157620000Y-136500000D03*
%TO.N,I2C_SCL*%
X155080000Y-136500000D03*
%TO.N,+3V3*%
X150000000Y-136500000D03*
%TO.N,GND*%
X152540000Y-136500000D03*
%TD*%
D20*
%TO.N,GND*%
%TO.C,SW2*%
X140000000Y-57000000D03*
D21*
%TO.N,EN_SW*%
X145000000Y-57000000D03*
%TD*%
D20*
%TO.N,/01 Battery Input + Reverse Protection/VBAT*%
%TO.C,SW1*%
X113000000Y-57000000D03*
D21*
%TO.N,VBAT_PROTECTED*%
X118000000Y-57000000D03*
%TD*%
D22*
%TO.N,VBAT_PROTECTED*%
%TO.C,C9*%
X114000000Y-133000000D03*
D23*
%TO.N,GND*%
X119000000Y-133000000D03*
%TD*%
D22*
%TO.N,VBAT_PROTECTED*%
%TO.C,C8*%
X136500000Y-112000000D03*
D23*
%TO.N,GND*%
X141500000Y-112000000D03*
%TD*%
D24*
%TO.N,GND*%
%TO.C,J8*%
X191000000Y-101000000D03*
D25*
%TO.N,V7V5_LEG*%
X191000000Y-98500000D03*
%TO.N,BUS_SERVO*%
X191000000Y-96000000D03*
%TD*%
D13*
%TO.N,VBAT_PROTECTED*%
%TO.C,J2*%
X130000000Y-56000000D03*
D12*
%TO.N,GND*%
X130000000Y-58540000D03*
%TO.N,V5_AUX*%
X130000000Y-61080000D03*
%TD*%
%TO.N,I2C_SDA*%
%TO.C,U11*%
X158540000Y-83500000D03*
%TO.N,I2C_SCL*%
X156000000Y-83500000D03*
%TO.N,+3V3*%
X150920000Y-83500000D03*
%TO.N,GND*%
X153460000Y-83500000D03*
%TD*%
D10*
%TO.N,VBAT_PROTECTED*%
%TO.C,U4*%
X153500000Y-102000000D03*
D11*
%TO.N,GND*%
X158500000Y-92000000D03*
X158500000Y-102000000D03*
D12*
X164000000Y-95730000D03*
D13*
%TO.N,EN_JET*%
X164000000Y-98270000D03*
D10*
%TO.N,V12_JET*%
X153500000Y-92000000D03*
%TD*%
D17*
%TO.N,GND*%
%TO.C,J14*%
X181750000Y-107750000D03*
D11*
%TO.N,V7V5_ARM*%
X176750000Y-107750000D03*
%TD*%
D26*
%TO.N,Net-(D1-K)*%
%TO.C,Q1*%
X98500000Y-56500000D03*
D27*
%TO.N,/01 Battery Input + Reverse Protection/BATT_NEG*%
X101040000Y-56500000D03*
%TO.N,GND*%
X103580000Y-56500000D03*
%TD*%
D10*
%TO.N,VBAT_PROTECTED*%
%TO.C,U2*%
X117500000Y-102000000D03*
D11*
%TO.N,GND*%
X122500000Y-92000000D03*
X122500000Y-102000000D03*
D12*
X128000000Y-95730000D03*
D13*
%TO.N,EN_BUCKS*%
X128000000Y-98270000D03*
D10*
%TO.N,V12_HIP*%
X117500000Y-92000000D03*
%TD*%
D12*
%TO.N,I2C_SDA*%
%TO.C,U10*%
X134040000Y-83500000D03*
%TO.N,I2C_SCL*%
X131500000Y-83500000D03*
%TO.N,+3V3*%
X126420000Y-83500000D03*
%TO.N,GND*%
X128960000Y-83500000D03*
%TD*%
D14*
%TO.N,GND*%
%TO.C,J6*%
X191000000Y-63750000D03*
D11*
%TO.N,V7V5_LEG*%
X191000000Y-68750000D03*
%TD*%
D20*
%TO.N,V7V5_LEG*%
%TO.C,C2*%
X105850000Y-114773959D03*
D21*
%TO.N,GND*%
X105850000Y-109773959D03*
%TD*%
D28*
%TO.N,V12_L2*%
%TO.C,C6*%
X180750000Y-120750000D03*
D23*
%TO.N,GND*%
X180750000Y-115750000D03*
%TD*%
D20*
%TO.N,V7V5_LEG*%
%TO.C,C1*%
X91450000Y-114350000D03*
D21*
%TO.N,GND*%
X91450000Y-109350000D03*
%TD*%
D20*
%TO.N,V7V5_LEG*%
%TO.C,C3*%
X121800000Y-114750000D03*
D21*
%TO.N,GND*%
X121800000Y-109750000D03*
%TD*%
D20*
%TO.N,V7V5_LEG*%
%TO.C,C4*%
X165000000Y-61300000D03*
D21*
%TO.N,GND*%
X165000000Y-56300000D03*
%TD*%
D29*
%TO.N,V12_HIP*%
%TO.C,C5*%
X176750000Y-80000000D03*
D21*
%TO.N,GND*%
X176750000Y-85000000D03*
%TD*%
D30*
%TO.N,GND*%
X153250000Y-134250000D03*
X146500000Y-136300000D03*
X141818486Y-133780115D03*
X138300000Y-127700000D03*
D31*
%TO.N,VBAT_PROTECTED*%
X104000000Y-135900000D03*
D30*
%TO.N,V5_AUX*%
X124750000Y-130400000D03*
X134000000Y-131180000D03*
X92660000Y-130530000D03*
X122850000Y-130400000D03*
X124750000Y-133250000D03*
X134000000Y-124000000D03*
D32*
%TO.N,BUS_SERVO*%
X177600000Y-117300000D03*
X177600000Y-120550000D03*
D30*
%TO.N,+3V3*%
X130229999Y-74200000D03*
X129300000Y-99700000D03*
X130900000Y-128699999D03*
X129300000Y-96800000D03*
%TO.N,I2C_SCL*%
X141000000Y-133900000D03*
%TO.N,I2C_SDA*%
X159250000Y-77600000D03*
X111250000Y-67000000D03*
X159250000Y-81500000D03*
D33*
%TO.N,BATT_LOW*%
X132400000Y-139900000D03*
X93000000Y-139900000D03*
X127100000Y-139900000D03*
X132400000Y-126350000D03*
X93000000Y-136600000D03*
X127100000Y-127800000D03*
%TO.N,/06 Safety Chain/HARDCUT*%
X133600000Y-137150000D03*
X97150000Y-139300000D03*
X90100000Y-139300000D03*
X144400000Y-139300000D03*
X97150000Y-133949999D03*
X135600000Y-139300000D03*
D34*
X90100000Y-129199999D03*
D33*
X133600000Y-139300000D03*
X135600000Y-133820000D03*
X144400000Y-134550000D03*
D30*
%TO.N,EN_BUCKS*%
X139400000Y-137600000D03*
D33*
%TO.N,/06 Safety Chain/VSENSE*%
X123000000Y-133820000D03*
X102900000Y-135350000D03*
X89360000Y-137500000D03*
D34*
X89360000Y-129199999D03*
D33*
X99500000Y-137500000D03*
X123600000Y-127800000D03*
X123000000Y-137500000D03*
X102900000Y-137500000D03*
%TO.N,/06 Safety Chain/VREF_G*%
X126300000Y-133820000D03*
X126300000Y-138700000D03*
X124300000Y-135250000D03*
X128199999Y-126150000D03*
X124300000Y-138700000D03*
X128199999Y-138700000D03*
X88700000Y-138700000D03*
X88700000Y-136800000D03*
%TO.N,/06 Safety Chain/VREF_H*%
X87400000Y-129199999D03*
X87400000Y-138100000D03*
D30*
%TO.N,EN_SW*%
X138000000Y-101700000D03*
X136950000Y-128550000D03*
X138000000Y-68400000D03*
X138000000Y-86800000D03*
X137240000Y-135350000D03*
%TO.N,EN_JET*%
X142560000Y-135000000D03*
X142500000Y-123750000D03*
X165900000Y-120500000D03*
%TD*%
%TA.AperFunction,Conductor*%
%TO.N,GND*%
G36*
X195442539Y-51520185D02*
G01*
X195488294Y-51572989D01*
X195499500Y-51624500D01*
X195499500Y-140375500D01*
X195479815Y-140442539D01*
X195427011Y-140488294D01*
X195375500Y-140499500D01*
X132913742Y-140499500D01*
X132846703Y-140479815D01*
X132800948Y-140427011D01*
X132791004Y-140357853D01*
X132820029Y-140294297D01*
X132826061Y-140287819D01*
X132860515Y-140253365D01*
X132936281Y-140122135D01*
X132975500Y-139975766D01*
X132975500Y-139824234D01*
X132972709Y-139813818D01*
X132974370Y-139743973D01*
X133013530Y-139686109D01*
X133077758Y-139658602D01*
X133146660Y-139670187D01*
X133180164Y-139694044D01*
X133246635Y-139760515D01*
X133377865Y-139836281D01*
X133524234Y-139875500D01*
X133524236Y-139875500D01*
X133675764Y-139875500D01*
X133675766Y-139875500D01*
X133822135Y-139836281D01*
X133953365Y-139760515D01*
X134060515Y-139653365D01*
X134136281Y-139522135D01*
X134175500Y-139375766D01*
X134175500Y-139224234D01*
X135024500Y-139224234D01*
X135024500Y-139375765D01*
X135063719Y-139522136D01*
X135068150Y-139529810D01*
X135139485Y-139653365D01*
X135246635Y-139760515D01*
X135377865Y-139836281D01*
X135524234Y-139875500D01*
X135524236Y-139875500D01*
X135675764Y-139875500D01*
X135675766Y-139875500D01*
X135822135Y-139836281D01*
X135953365Y-139760515D01*
X136060515Y-139653365D01*
X136136281Y-139522135D01*
X136175500Y-139375766D01*
X136175500Y-139224234D01*
X143824500Y-139224234D01*
X143824500Y-139375765D01*
X143863719Y-139522136D01*
X143868150Y-139529810D01*
X143939485Y-139653365D01*
X144046635Y-139760515D01*
X144177865Y-139836281D01*
X144324234Y-139875500D01*
X144324236Y-139875500D01*
X144475764Y-139875500D01*
X144475766Y-139875500D01*
X144622135Y-139836281D01*
X144753365Y-139760515D01*
X144860515Y-139653365D01*
X144936281Y-139522135D01*
X144975500Y-139375766D01*
X144975500Y-139224234D01*
X144936281Y-139077865D01*
X144860515Y-138946635D01*
X144753365Y-138839485D01*
X144687750Y-138801602D01*
X144622136Y-138763719D01*
X144548950Y-138744109D01*
X144475766Y-138724500D01*
X144324234Y-138724500D01*
X144177863Y-138763719D01*
X144046635Y-138839485D01*
X144046632Y-138839487D01*
X143939487Y-138946632D01*
X143939485Y-138946635D01*
X143863719Y-139077863D01*
X143824500Y-139224234D01*
X136175500Y-139224234D01*
X136136281Y-139077865D01*
X136060515Y-138946635D01*
X135953365Y-138839485D01*
X135887750Y-138801602D01*
X135822136Y-138763719D01*
X135748950Y-138744109D01*
X135675766Y-138724500D01*
X135524234Y-138724500D01*
X135377863Y-138763719D01*
X135246635Y-138839485D01*
X135246632Y-138839487D01*
X135139487Y-138946632D01*
X135139485Y-138946635D01*
X135063719Y-139077863D01*
X135024500Y-139224234D01*
X134175500Y-139224234D01*
X134136281Y-139077865D01*
X134060515Y-138946635D01*
X133953365Y-138839485D01*
X133887750Y-138801602D01*
X133822136Y-138763719D01*
X133748950Y-138744109D01*
X133675766Y-138724500D01*
X133524234Y-138724500D01*
X133377863Y-138763719D01*
X133246635Y-138839485D01*
X133246632Y-138839487D01*
X133139487Y-138946632D01*
X133139485Y-138946635D01*
X133063719Y-139077863D01*
X133024500Y-139224234D01*
X133024500Y-139375765D01*
X133027291Y-139386181D01*
X133025628Y-139456031D01*
X132986465Y-139513893D01*
X132922237Y-139541397D01*
X132853334Y-139529810D01*
X132819835Y-139505955D01*
X132753367Y-139439487D01*
X132753365Y-139439485D01*
X132687750Y-139401602D01*
X132622136Y-139363719D01*
X132548950Y-139344109D01*
X132475766Y-139324500D01*
X132324234Y-139324500D01*
X132177863Y-139363719D01*
X132046635Y-139439485D01*
X132046632Y-139439487D01*
X131939487Y-139546632D01*
X131939485Y-139546635D01*
X131863719Y-139677863D01*
X131824500Y-139824234D01*
X131824500Y-139975765D01*
X131863719Y-140122136D01*
X131901602Y-140187750D01*
X131939485Y-140253365D01*
X131939487Y-140253367D01*
X131973939Y-140287819D01*
X132007424Y-140349142D01*
X132002440Y-140418834D01*
X131960568Y-140474767D01*
X131895104Y-140499184D01*
X131886258Y-140499500D01*
X127613742Y-140499500D01*
X127546703Y-140479815D01*
X127500948Y-140427011D01*
X127491004Y-140357853D01*
X127520029Y-140294297D01*
X127526061Y-140287819D01*
X127560515Y-140253365D01*
X127636281Y-140122135D01*
X127675500Y-139975766D01*
X127675500Y-139824234D01*
X127636281Y-139677865D01*
X127560515Y-139546635D01*
X127453365Y-139439485D01*
X127387750Y-139401602D01*
X127322136Y-139363719D01*
X127248950Y-139344109D01*
X127175766Y-139324500D01*
X127024234Y-139324500D01*
X126877863Y-139363719D01*
X126746635Y-139439485D01*
X126746632Y-139439487D01*
X126639487Y-139546632D01*
X126639485Y-139546635D01*
X126563719Y-139677863D01*
X126524500Y-139824234D01*
X126524500Y-139975765D01*
X126563719Y-140122136D01*
X126601602Y-140187750D01*
X126639485Y-140253365D01*
X126639487Y-140253367D01*
X126673939Y-140287819D01*
X126707424Y-140349142D01*
X126702440Y-140418834D01*
X126660568Y-140474767D01*
X126595104Y-140499184D01*
X126586258Y-140499500D01*
X93513742Y-140499500D01*
X93446703Y-140479815D01*
X93400948Y-140427011D01*
X93391004Y-140357853D01*
X93420029Y-140294297D01*
X93426061Y-140287819D01*
X93460515Y-140253365D01*
X93536281Y-140122135D01*
X93575500Y-139975766D01*
X93575500Y-139824234D01*
X93536281Y-139677865D01*
X93460515Y-139546635D01*
X93353365Y-139439485D01*
X93287750Y-139401602D01*
X93222136Y-139363719D01*
X93183592Y-139353391D01*
X93075766Y-139324500D01*
X92924234Y-139324500D01*
X92777863Y-139363719D01*
X92646635Y-139439485D01*
X92646632Y-139439487D01*
X92539487Y-139546632D01*
X92539485Y-139546635D01*
X92463719Y-139677863D01*
X92424500Y-139824234D01*
X92424500Y-139975765D01*
X92463719Y-140122136D01*
X92501602Y-140187750D01*
X92539485Y-140253365D01*
X92539487Y-140253367D01*
X92573939Y-140287819D01*
X92607424Y-140349142D01*
X92602440Y-140418834D01*
X92560568Y-140474767D01*
X92495104Y-140499184D01*
X92486258Y-140499500D01*
X84624500Y-140499500D01*
X84557461Y-140479815D01*
X84511706Y-140427011D01*
X84500500Y-140375500D01*
X84500500Y-138024234D01*
X86824500Y-138024234D01*
X86824500Y-138175766D01*
X86841573Y-138239485D01*
X86863719Y-138322136D01*
X86877862Y-138346632D01*
X86939485Y-138453365D01*
X87046635Y-138560515D01*
X87177865Y-138636281D01*
X87324234Y-138675500D01*
X87324236Y-138675500D01*
X87475764Y-138675500D01*
X87475766Y-138675500D01*
X87622135Y-138636281D01*
X87753365Y-138560515D01*
X87860515Y-138453365D01*
X87936281Y-138322135D01*
X87975500Y-138175766D01*
X87975500Y-138024234D01*
X87936281Y-137877865D01*
X87860515Y-137746635D01*
X87753365Y-137639485D01*
X87687750Y-137601602D01*
X87622136Y-137563719D01*
X87548950Y-137544109D01*
X87475766Y-137524500D01*
X87324234Y-137524500D01*
X87177863Y-137563719D01*
X87046635Y-137639485D01*
X87046632Y-137639487D01*
X86939487Y-137746632D01*
X86939485Y-137746635D01*
X86863719Y-137877863D01*
X86830158Y-138003119D01*
X86824500Y-138024234D01*
X84500500Y-138024234D01*
X84500500Y-136724234D01*
X88124500Y-136724234D01*
X88124500Y-136875766D01*
X88142150Y-136941636D01*
X88163719Y-137022136D01*
X88193800Y-137074236D01*
X88239485Y-137153365D01*
X88346635Y-137260515D01*
X88477865Y-137336281D01*
X88624234Y-137375500D01*
X88624236Y-137375500D01*
X88660500Y-137375500D01*
X88727539Y-137395185D01*
X88773294Y-137447989D01*
X88784500Y-137499500D01*
X88784500Y-137575765D01*
X88823719Y-137722136D01*
X88837862Y-137746632D01*
X88899485Y-137853365D01*
X88899487Y-137853367D01*
X88987916Y-137941796D01*
X89021401Y-138003119D01*
X89016417Y-138072811D01*
X88974545Y-138128744D01*
X88909081Y-138153161D01*
X88868143Y-138149252D01*
X88775766Y-138124500D01*
X88624234Y-138124500D01*
X88477863Y-138163719D01*
X88346635Y-138239485D01*
X88346632Y-138239487D01*
X88239487Y-138346632D01*
X88239485Y-138346635D01*
X88163719Y-138477863D01*
X88124500Y-138624234D01*
X88124500Y-138775765D01*
X88163719Y-138922136D01*
X88177862Y-138946632D01*
X88239485Y-139053365D01*
X88346635Y-139160515D01*
X88477865Y-139236281D01*
X88624234Y-139275500D01*
X88624236Y-139275500D01*
X88775764Y-139275500D01*
X88775766Y-139275500D01*
X88922135Y-139236281D01*
X88943001Y-139224234D01*
X89524500Y-139224234D01*
X89524500Y-139375765D01*
X89563719Y-139522136D01*
X89568150Y-139529810D01*
X89639485Y-139653365D01*
X89746635Y-139760515D01*
X89877865Y-139836281D01*
X90024234Y-139875500D01*
X90024236Y-139875500D01*
X90175764Y-139875500D01*
X90175766Y-139875500D01*
X90322135Y-139836281D01*
X90453365Y-139760515D01*
X90560515Y-139653365D01*
X90636281Y-139522135D01*
X90675500Y-139375766D01*
X90675500Y-139224234D01*
X96574500Y-139224234D01*
X96574500Y-139375765D01*
X96613719Y-139522136D01*
X96618150Y-139529810D01*
X96689485Y-139653365D01*
X96796635Y-139760515D01*
X96927865Y-139836281D01*
X97074234Y-139875500D01*
X97074236Y-139875500D01*
X97225764Y-139875500D01*
X97225766Y-139875500D01*
X97372135Y-139836281D01*
X97503365Y-139760515D01*
X97610515Y-139653365D01*
X97686281Y-139522135D01*
X97725500Y-139375766D01*
X97725500Y-139224234D01*
X97686281Y-139077865D01*
X97610515Y-138946635D01*
X97503365Y-138839485D01*
X97437750Y-138801602D01*
X97372136Y-138763719D01*
X97333592Y-138753391D01*
X97225766Y-138724500D01*
X97074234Y-138724500D01*
X96927863Y-138763719D01*
X96796635Y-138839485D01*
X96796632Y-138839487D01*
X96689487Y-138946632D01*
X96689485Y-138946635D01*
X96613719Y-139077863D01*
X96574500Y-139224234D01*
X90675500Y-139224234D01*
X90636281Y-139077865D01*
X90560515Y-138946635D01*
X90453365Y-138839485D01*
X90387750Y-138801602D01*
X90322136Y-138763719D01*
X90248950Y-138744109D01*
X90175766Y-138724500D01*
X90024234Y-138724500D01*
X89877863Y-138763719D01*
X89746635Y-138839485D01*
X89746632Y-138839487D01*
X89639487Y-138946632D01*
X89639485Y-138946635D01*
X89563719Y-139077863D01*
X89524500Y-139224234D01*
X88943001Y-139224234D01*
X89053365Y-139160515D01*
X89160515Y-139053365D01*
X89236281Y-138922135D01*
X89275500Y-138775766D01*
X89275500Y-138624234D01*
X123724500Y-138624234D01*
X123724500Y-138775765D01*
X123763719Y-138922136D01*
X123777862Y-138946632D01*
X123839485Y-139053365D01*
X123946635Y-139160515D01*
X124077865Y-139236281D01*
X124224234Y-139275500D01*
X124224236Y-139275500D01*
X124375764Y-139275500D01*
X124375766Y-139275500D01*
X124522135Y-139236281D01*
X124653365Y-139160515D01*
X124760515Y-139053365D01*
X124836281Y-138922135D01*
X124875500Y-138775766D01*
X124875500Y-138624234D01*
X125724500Y-138624234D01*
X125724500Y-138775765D01*
X125763719Y-138922136D01*
X125777862Y-138946632D01*
X125839485Y-139053365D01*
X125946635Y-139160515D01*
X126077865Y-139236281D01*
X126224234Y-139275500D01*
X126224236Y-139275500D01*
X126375764Y-139275500D01*
X126375766Y-139275500D01*
X126522135Y-139236281D01*
X126653365Y-139160515D01*
X126760515Y-139053365D01*
X126836281Y-138922135D01*
X126875500Y-138775766D01*
X126875500Y-138624234D01*
X127624499Y-138624234D01*
X127624499Y-138775765D01*
X127663718Y-138922136D01*
X127677861Y-138946632D01*
X127739484Y-139053365D01*
X127846634Y-139160515D01*
X127977864Y-139236281D01*
X128124233Y-139275500D01*
X128124235Y-139275500D01*
X128275763Y-139275500D01*
X128275765Y-139275500D01*
X128422134Y-139236281D01*
X128553364Y-139160515D01*
X128660514Y-139053365D01*
X128736280Y-138922135D01*
X128775499Y-138775766D01*
X128775499Y-138624234D01*
X128736280Y-138477865D01*
X128660514Y-138346635D01*
X128553364Y-138239485D01*
X128479570Y-138196880D01*
X128422135Y-138163719D01*
X128348949Y-138144109D01*
X128275765Y-138124500D01*
X128124233Y-138124500D01*
X127977862Y-138163719D01*
X127846634Y-138239485D01*
X127846631Y-138239487D01*
X127739486Y-138346632D01*
X127739484Y-138346635D01*
X127663718Y-138477863D01*
X127624499Y-138624234D01*
X126875500Y-138624234D01*
X126836281Y-138477865D01*
X126760515Y-138346635D01*
X126653365Y-138239485D01*
X126579571Y-138196880D01*
X126522136Y-138163719D01*
X126448950Y-138144109D01*
X126375766Y-138124500D01*
X126224234Y-138124500D01*
X126077863Y-138163719D01*
X125946635Y-138239485D01*
X125946632Y-138239487D01*
X125839487Y-138346632D01*
X125839485Y-138346635D01*
X125763719Y-138477863D01*
X125724500Y-138624234D01*
X124875500Y-138624234D01*
X124836281Y-138477865D01*
X124760515Y-138346635D01*
X124653365Y-138239485D01*
X124579571Y-138196880D01*
X124522136Y-138163719D01*
X124448950Y-138144109D01*
X124375766Y-138124500D01*
X124224234Y-138124500D01*
X124077863Y-138163719D01*
X123946635Y-138239485D01*
X123946632Y-138239487D01*
X123839487Y-138346632D01*
X123839485Y-138346635D01*
X123763719Y-138477863D01*
X123724500Y-138624234D01*
X89275500Y-138624234D01*
X89236281Y-138477865D01*
X89160515Y-138346635D01*
X89072083Y-138258203D01*
X89038598Y-138196880D01*
X89043582Y-138127188D01*
X89085454Y-138071255D01*
X89150918Y-138046838D01*
X89191850Y-138050746D01*
X89284234Y-138075500D01*
X89284237Y-138075500D01*
X89435764Y-138075500D01*
X89435766Y-138075500D01*
X89582135Y-138036281D01*
X89713365Y-137960515D01*
X89820515Y-137853365D01*
X89896281Y-137722135D01*
X89935500Y-137575766D01*
X89935500Y-137424234D01*
X98924500Y-137424234D01*
X98924500Y-137575765D01*
X98963719Y-137722136D01*
X98977862Y-137746632D01*
X99039485Y-137853365D01*
X99146635Y-137960515D01*
X99277865Y-138036281D01*
X99424234Y-138075500D01*
X99424236Y-138075500D01*
X99575764Y-138075500D01*
X99575766Y-138075500D01*
X99722135Y-138036281D01*
X99853365Y-137960515D01*
X99960515Y-137853365D01*
X100036281Y-137722135D01*
X100075500Y-137575766D01*
X100075500Y-137424234D01*
X102324500Y-137424234D01*
X102324500Y-137575765D01*
X102363719Y-137722136D01*
X102377862Y-137746632D01*
X102439485Y-137853365D01*
X102546635Y-137960515D01*
X102677865Y-138036281D01*
X102824234Y-138075500D01*
X102824236Y-138075500D01*
X102975764Y-138075500D01*
X102975766Y-138075500D01*
X103122135Y-138036281D01*
X103253365Y-137960515D01*
X103360515Y-137853365D01*
X103436281Y-137722135D01*
X103475500Y-137575766D01*
X103475500Y-137424234D01*
X122424500Y-137424234D01*
X122424500Y-137575765D01*
X122463719Y-137722136D01*
X122477862Y-137746632D01*
X122539485Y-137853365D01*
X122646635Y-137960515D01*
X122777865Y-138036281D01*
X122924234Y-138075500D01*
X122924236Y-138075500D01*
X123075764Y-138075500D01*
X123075766Y-138075500D01*
X123222135Y-138036281D01*
X123353365Y-137960515D01*
X123460515Y-137853365D01*
X123536281Y-137722135D01*
X123575500Y-137575766D01*
X123575500Y-137424234D01*
X123536281Y-137277865D01*
X123460515Y-137146635D01*
X123388114Y-137074234D01*
X133024500Y-137074234D01*
X133024500Y-137225765D01*
X133063719Y-137372136D01*
X133093800Y-137424236D01*
X133139485Y-137503365D01*
X133246635Y-137610515D01*
X133377865Y-137686281D01*
X133524234Y-137725500D01*
X133524236Y-137725500D01*
X133675764Y-137725500D01*
X133675766Y-137725500D01*
X133822135Y-137686281D01*
X133953365Y-137610515D01*
X134042937Y-137520943D01*
X138799500Y-137520943D01*
X138799500Y-137679057D01*
X138817608Y-137746635D01*
X138840423Y-137831783D01*
X138840426Y-137831790D01*
X138919475Y-137968709D01*
X138919479Y-137968714D01*
X138919480Y-137968716D01*
X139031284Y-138080520D01*
X139031286Y-138080521D01*
X139031290Y-138080524D01*
X139107460Y-138124500D01*
X139168216Y-138159577D01*
X139320943Y-138200500D01*
X139320945Y-138200500D01*
X139479055Y-138200500D01*
X139479057Y-138200500D01*
X139631784Y-138159577D01*
X139768716Y-138080520D01*
X139880520Y-137968716D01*
X139959577Y-137831784D01*
X140000500Y-137679057D01*
X140000500Y-137520943D01*
X139959577Y-137368216D01*
X139959573Y-137368209D01*
X139880524Y-137231290D01*
X139880518Y-137231282D01*
X139768717Y-137119481D01*
X139768709Y-137119475D01*
X139631790Y-137040426D01*
X139631786Y-137040424D01*
X139631784Y-137040423D01*
X139479057Y-136999500D01*
X139320943Y-136999500D01*
X139168216Y-137040423D01*
X139168209Y-137040426D01*
X139031290Y-137119475D01*
X139031282Y-137119481D01*
X138919481Y-137231282D01*
X138919475Y-137231290D01*
X138840426Y-137368209D01*
X138840423Y-137368216D01*
X138799500Y-137520943D01*
X134042937Y-137520943D01*
X134060515Y-137503365D01*
X134075179Y-137477965D01*
X134090856Y-137450815D01*
X134136279Y-137372138D01*
X134136281Y-137372135D01*
X134175500Y-137225766D01*
X134175500Y-137074234D01*
X134136281Y-136927865D01*
X134060515Y-136796635D01*
X133953365Y-136689485D01*
X133887750Y-136651602D01*
X133822136Y-136613719D01*
X133688324Y-136577865D01*
X133675766Y-136574500D01*
X133524234Y-136574500D01*
X133377863Y-136613719D01*
X133246635Y-136689485D01*
X133246632Y-136689487D01*
X133139487Y-136796632D01*
X133139485Y-136796635D01*
X133063719Y-136927863D01*
X133024500Y-137074234D01*
X123388114Y-137074234D01*
X123353365Y-137039485D01*
X123284109Y-136999500D01*
X123222136Y-136963719D01*
X123139719Y-136941636D01*
X123075766Y-136924500D01*
X122924234Y-136924500D01*
X122777863Y-136963719D01*
X122646635Y-137039485D01*
X122646632Y-137039487D01*
X122539487Y-137146632D01*
X122539485Y-137146635D01*
X122463719Y-137277863D01*
X122424500Y-137424234D01*
X103475500Y-137424234D01*
X103436281Y-137277865D01*
X103360515Y-137146635D01*
X103253365Y-137039485D01*
X103184109Y-136999500D01*
X103122136Y-136963719D01*
X103039719Y-136941636D01*
X102975766Y-136924500D01*
X102824234Y-136924500D01*
X102677863Y-136963719D01*
X102546635Y-137039485D01*
X102546632Y-137039487D01*
X102439487Y-137146632D01*
X102439485Y-137146635D01*
X102363719Y-137277863D01*
X102324500Y-137424234D01*
X100075500Y-137424234D01*
X100036281Y-137277865D01*
X99960515Y-137146635D01*
X99853365Y-137039485D01*
X99784109Y-136999500D01*
X99722136Y-136963719D01*
X99639719Y-136941636D01*
X99575766Y-136924500D01*
X99424234Y-136924500D01*
X99277863Y-136963719D01*
X99146635Y-137039485D01*
X99146632Y-137039487D01*
X99039487Y-137146632D01*
X99039485Y-137146635D01*
X98963719Y-137277863D01*
X98924500Y-137424234D01*
X89935500Y-137424234D01*
X89896281Y-137277865D01*
X89820515Y-137146635D01*
X89713365Y-137039485D01*
X89644109Y-136999500D01*
X89582136Y-136963719D01*
X89499719Y-136941636D01*
X89435766Y-136924500D01*
X89399500Y-136924500D01*
X89332461Y-136904815D01*
X89286706Y-136852011D01*
X89275500Y-136800500D01*
X89275500Y-136724236D01*
X89275500Y-136724234D01*
X89236281Y-136577865D01*
X89236280Y-136577863D01*
X89236280Y-136577862D01*
X89205317Y-136524234D01*
X92424500Y-136524234D01*
X92424500Y-136675766D01*
X92437487Y-136724234D01*
X92463719Y-136822136D01*
X92480968Y-136852011D01*
X92539485Y-136953365D01*
X92646635Y-137060515D01*
X92777865Y-137136281D01*
X92924234Y-137175500D01*
X92924236Y-137175500D01*
X93075764Y-137175500D01*
X93075766Y-137175500D01*
X93222135Y-137136281D01*
X93353365Y-137060515D01*
X93460515Y-136953365D01*
X93536281Y-136822135D01*
X93575500Y-136675766D01*
X93575500Y-136524234D01*
X93536281Y-136377865D01*
X93460515Y-136246635D01*
X93353365Y-136139485D01*
X93287750Y-136101602D01*
X93222136Y-136063719D01*
X93148950Y-136044109D01*
X93075766Y-136024500D01*
X92924234Y-136024500D01*
X92777863Y-136063719D01*
X92646635Y-136139485D01*
X92646632Y-136139487D01*
X92539487Y-136246632D01*
X92539485Y-136246635D01*
X92463719Y-136377863D01*
X92428514Y-136509255D01*
X92424500Y-136524234D01*
X89205317Y-136524234D01*
X89164659Y-136453813D01*
X89160515Y-136446635D01*
X89053365Y-136339485D01*
X88948923Y-136279185D01*
X88922136Y-136263719D01*
X88848950Y-136244109D01*
X88775766Y-136224500D01*
X88624234Y-136224500D01*
X88477863Y-136263719D01*
X88346635Y-136339485D01*
X88346632Y-136339487D01*
X88239487Y-136446632D01*
X88239485Y-136446635D01*
X88163719Y-136577863D01*
X88155290Y-136609321D01*
X88124500Y-136724234D01*
X84500500Y-136724234D01*
X84500500Y-135274234D01*
X102324500Y-135274234D01*
X102324500Y-135425766D01*
X102326650Y-135433789D01*
X102363719Y-135572136D01*
X102392767Y-135622447D01*
X102439485Y-135703365D01*
X102546635Y-135810515D01*
X102677865Y-135886281D01*
X102824234Y-135925500D01*
X102824236Y-135925500D01*
X102975764Y-135925500D01*
X102975766Y-135925500D01*
X103050224Y-135905549D01*
X103120072Y-135907212D01*
X103177935Y-135946375D01*
X103203933Y-136001132D01*
X103230261Y-136133491D01*
X103230264Y-136133501D01*
X103290602Y-136279172D01*
X103290609Y-136279185D01*
X103378210Y-136410288D01*
X103378213Y-136410292D01*
X103489707Y-136521786D01*
X103489711Y-136521789D01*
X103620814Y-136609390D01*
X103620827Y-136609397D01*
X103766498Y-136669735D01*
X103766503Y-136669737D01*
X103921153Y-136700499D01*
X103921156Y-136700500D01*
X103921158Y-136700500D01*
X104078844Y-136700500D01*
X104078845Y-136700499D01*
X104233497Y-136669737D01*
X104346166Y-136623067D01*
X104379172Y-136609397D01*
X104379172Y-136609396D01*
X104379179Y-136609394D01*
X104510289Y-136521789D01*
X104621789Y-136410289D01*
X104622351Y-136409448D01*
X148849500Y-136409448D01*
X148849500Y-136590551D01*
X148877829Y-136769410D01*
X148933787Y-136941636D01*
X148933788Y-136941639D01*
X149016006Y-137102997D01*
X149122441Y-137249494D01*
X149122445Y-137249499D01*
X149250500Y-137377554D01*
X149250505Y-137377558D01*
X149274767Y-137395185D01*
X149397006Y-137483996D01*
X149502484Y-137537740D01*
X149558360Y-137566211D01*
X149558363Y-137566212D01*
X149644476Y-137594191D01*
X149730591Y-137622171D01*
X149813429Y-137635291D01*
X149909449Y-137650500D01*
X149909454Y-137650500D01*
X150090551Y-137650500D01*
X150177259Y-137636765D01*
X150269409Y-137622171D01*
X150441639Y-137566211D01*
X150602994Y-137483996D01*
X150749501Y-137377553D01*
X150877553Y-137249501D01*
X150983996Y-137102994D01*
X151066211Y-136941639D01*
X151122171Y-136769409D01*
X151146830Y-136613719D01*
X151150500Y-136590551D01*
X151150500Y-136409448D01*
X153929500Y-136409448D01*
X153929500Y-136590551D01*
X153957829Y-136769410D01*
X154013787Y-136941636D01*
X154013788Y-136941639D01*
X154096006Y-137102997D01*
X154202441Y-137249494D01*
X154202445Y-137249499D01*
X154330500Y-137377554D01*
X154330505Y-137377558D01*
X154354767Y-137395185D01*
X154477006Y-137483996D01*
X154582484Y-137537740D01*
X154638360Y-137566211D01*
X154638363Y-137566212D01*
X154724476Y-137594191D01*
X154810591Y-137622171D01*
X154893429Y-137635291D01*
X154989449Y-137650500D01*
X154989454Y-137650500D01*
X155170551Y-137650500D01*
X155257259Y-137636765D01*
X155349409Y-137622171D01*
X155521639Y-137566211D01*
X155682994Y-137483996D01*
X155829501Y-137377553D01*
X155957553Y-137249501D01*
X156063996Y-137102994D01*
X156146211Y-136941639D01*
X156202171Y-136769409D01*
X156217957Y-136669738D01*
X156227527Y-136609321D01*
X156257456Y-136546186D01*
X156316768Y-136509255D01*
X156386630Y-136510253D01*
X156444863Y-136548863D01*
X156472473Y-136609321D01*
X156497829Y-136769410D01*
X156553787Y-136941636D01*
X156553788Y-136941639D01*
X156636006Y-137102997D01*
X156742441Y-137249494D01*
X156742445Y-137249499D01*
X156870500Y-137377554D01*
X156870505Y-137377558D01*
X156894767Y-137395185D01*
X157017006Y-137483996D01*
X157122484Y-137537740D01*
X157178360Y-137566211D01*
X157178363Y-137566212D01*
X157264476Y-137594191D01*
X157350591Y-137622171D01*
X157433429Y-137635291D01*
X157529449Y-137650500D01*
X157529454Y-137650500D01*
X157710551Y-137650500D01*
X157797259Y-137636765D01*
X157889409Y-137622171D01*
X158061639Y-137566211D01*
X158222994Y-137483996D01*
X158369501Y-137377553D01*
X158497553Y-137249501D01*
X158603996Y-137102994D01*
X158686211Y-136941639D01*
X158742171Y-136769409D01*
X158766830Y-136613719D01*
X158770500Y-136590551D01*
X158770500Y-136409448D01*
X158754019Y-136305397D01*
X158742171Y-136230591D01*
X158686211Y-136058361D01*
X158686211Y-136058360D01*
X158645694Y-135978842D01*
X158603996Y-135897006D01*
X158555694Y-135830524D01*
X158497558Y-135750505D01*
X158497554Y-135750500D01*
X158369499Y-135622445D01*
X158369494Y-135622441D01*
X158222997Y-135516006D01*
X158222996Y-135516005D01*
X158222994Y-135516004D01*
X158153353Y-135480520D01*
X158061639Y-135433788D01*
X158061636Y-135433787D01*
X157889410Y-135377829D01*
X157710551Y-135349500D01*
X157710546Y-135349500D01*
X157529454Y-135349500D01*
X157529449Y-135349500D01*
X157350589Y-135377829D01*
X157178363Y-135433787D01*
X157178360Y-135433788D01*
X157017002Y-135516006D01*
X156870505Y-135622441D01*
X156870500Y-135622445D01*
X156742445Y-135750500D01*
X156742441Y-135750505D01*
X156636006Y-135897002D01*
X156553788Y-136058360D01*
X156553787Y-136058363D01*
X156497829Y-136230589D01*
X156472473Y-136390678D01*
X156442544Y-136453813D01*
X156383232Y-136490744D01*
X156313369Y-136489746D01*
X156255137Y-136451136D01*
X156227527Y-136390678D01*
X156213740Y-136303639D01*
X156202171Y-136230591D01*
X156146211Y-136058361D01*
X156146211Y-136058360D01*
X156105694Y-135978842D01*
X156063996Y-135897006D01*
X156015694Y-135830524D01*
X155957558Y-135750505D01*
X155957554Y-135750500D01*
X155829499Y-135622445D01*
X155829494Y-135622441D01*
X155682997Y-135516006D01*
X155682996Y-135516005D01*
X155682994Y-135516004D01*
X155613353Y-135480520D01*
X155521639Y-135433788D01*
X155521636Y-135433787D01*
X155349410Y-135377829D01*
X155170551Y-135349500D01*
X155170546Y-135349500D01*
X154989454Y-135349500D01*
X154989449Y-135349500D01*
X154810589Y-135377829D01*
X154638363Y-135433787D01*
X154638360Y-135433788D01*
X154477002Y-135516006D01*
X154330505Y-135622441D01*
X154330500Y-135622445D01*
X154202445Y-135750500D01*
X154202441Y-135750505D01*
X154096006Y-135897002D01*
X154013788Y-136058360D01*
X154013787Y-136058363D01*
X153957829Y-136230589D01*
X153929500Y-136409448D01*
X151150500Y-136409448D01*
X151134019Y-136305397D01*
X151122171Y-136230591D01*
X151066211Y-136058361D01*
X151066211Y-136058360D01*
X151025694Y-135978842D01*
X150983996Y-135897006D01*
X150935694Y-135830524D01*
X150877558Y-135750505D01*
X150877554Y-135750500D01*
X150749499Y-135622445D01*
X150749494Y-135622441D01*
X150602997Y-135516006D01*
X150602996Y-135516005D01*
X150602994Y-135516004D01*
X150533353Y-135480520D01*
X150441639Y-135433788D01*
X150441636Y-135433787D01*
X150269410Y-135377829D01*
X150090551Y-135349500D01*
X150090546Y-135349500D01*
X149909454Y-135349500D01*
X149909449Y-135349500D01*
X149730589Y-135377829D01*
X149558363Y-135433787D01*
X149558360Y-135433788D01*
X149397002Y-135516006D01*
X149250505Y-135622441D01*
X149250500Y-135622445D01*
X149122445Y-135750500D01*
X149122441Y-135750505D01*
X149016006Y-135897002D01*
X148933788Y-136058360D01*
X148933787Y-136058363D01*
X148877829Y-136230589D01*
X148849500Y-136409448D01*
X104622351Y-136409448D01*
X104643455Y-136377863D01*
X104671634Y-136335691D01*
X104678776Y-136325001D01*
X104709394Y-136279179D01*
X104769737Y-136133497D01*
X104800500Y-135978842D01*
X104800500Y-135821158D01*
X104800500Y-135821155D01*
X104800499Y-135821153D01*
X104780121Y-135718709D01*
X104769737Y-135666503D01*
X104751486Y-135622441D01*
X104709397Y-135520827D01*
X104709390Y-135520814D01*
X104621789Y-135389711D01*
X104621786Y-135389707D01*
X104510289Y-135278210D01*
X104496817Y-135269209D01*
X104379185Y-135190609D01*
X104379172Y-135190602D01*
X104339656Y-135174234D01*
X123724500Y-135174234D01*
X123724500Y-135325766D01*
X123736008Y-135368716D01*
X123763719Y-135472136D01*
X123768560Y-135480520D01*
X123839485Y-135603365D01*
X123946635Y-135710515D01*
X124077865Y-135786281D01*
X124224234Y-135825500D01*
X124224236Y-135825500D01*
X124375764Y-135825500D01*
X124375766Y-135825500D01*
X124522135Y-135786281D01*
X124653365Y-135710515D01*
X124760515Y-135603365D01*
X124836281Y-135472135D01*
X124875500Y-135325766D01*
X124875500Y-135270943D01*
X136639500Y-135270943D01*
X136639500Y-135429057D01*
X136674473Y-135559576D01*
X136680423Y-135581783D01*
X136680426Y-135581790D01*
X136759475Y-135718709D01*
X136759479Y-135718714D01*
X136759480Y-135718716D01*
X136871284Y-135830520D01*
X136871286Y-135830521D01*
X136871290Y-135830524D01*
X136986435Y-135897002D01*
X137008216Y-135909577D01*
X137160943Y-135950500D01*
X137160945Y-135950500D01*
X137319055Y-135950500D01*
X137319057Y-135950500D01*
X137471784Y-135909577D01*
X137608716Y-135830520D01*
X137720520Y-135718716D01*
X137799577Y-135581784D01*
X137840500Y-135429057D01*
X137840500Y-135270943D01*
X137799577Y-135118216D01*
X137799573Y-135118209D01*
X137720524Y-134981289D01*
X137720518Y-134981282D01*
X137660179Y-134920943D01*
X141959500Y-134920943D01*
X141959500Y-135079057D01*
X141994725Y-135210516D01*
X142000423Y-135231783D01*
X142000426Y-135231790D01*
X142079475Y-135368709D01*
X142079479Y-135368714D01*
X142079480Y-135368716D01*
X142191284Y-135480520D01*
X142191286Y-135480521D01*
X142191290Y-135480524D01*
X142261088Y-135520821D01*
X142328216Y-135559577D01*
X142480943Y-135600500D01*
X142480945Y-135600500D01*
X142639055Y-135600500D01*
X142639057Y-135600500D01*
X142791784Y-135559577D01*
X142928716Y-135480520D01*
X143040520Y-135368716D01*
X143119577Y-135231784D01*
X143160500Y-135079057D01*
X143160500Y-134920943D01*
X143119577Y-134768216D01*
X143119573Y-134768209D01*
X143040524Y-134631290D01*
X143040518Y-134631282D01*
X142928717Y-134519481D01*
X142928709Y-134519475D01*
X142850348Y-134474234D01*
X143824500Y-134474234D01*
X143824500Y-134625765D01*
X143863719Y-134772136D01*
X143899192Y-134833575D01*
X143939485Y-134903365D01*
X144046635Y-135010515D01*
X144177865Y-135086281D01*
X144324234Y-135125500D01*
X144324236Y-135125500D01*
X144475764Y-135125500D01*
X144475766Y-135125500D01*
X144622135Y-135086281D01*
X144753365Y-135010515D01*
X144860515Y-134903365D01*
X144936281Y-134772135D01*
X144975500Y-134625766D01*
X144975500Y-134474234D01*
X144936281Y-134327865D01*
X144860515Y-134196635D01*
X144753365Y-134089485D01*
X144687750Y-134051602D01*
X144622136Y-134013719D01*
X144548950Y-133994109D01*
X144475766Y-133974500D01*
X144324234Y-133974500D01*
X144177863Y-134013719D01*
X144046635Y-134089485D01*
X144046632Y-134089487D01*
X143939487Y-134196632D01*
X143939485Y-134196635D01*
X143863719Y-134327863D01*
X143824500Y-134474234D01*
X142850348Y-134474234D01*
X142791790Y-134440426D01*
X142791786Y-134440424D01*
X142791784Y-134440423D01*
X142639057Y-134399500D01*
X142480943Y-134399500D01*
X142328216Y-134440423D01*
X142328209Y-134440426D01*
X142191290Y-134519475D01*
X142191282Y-134519481D01*
X142079481Y-134631282D01*
X142079475Y-134631290D01*
X142000426Y-134768209D01*
X142000423Y-134768216D01*
X141959500Y-134920943D01*
X137660179Y-134920943D01*
X137608717Y-134869481D01*
X137608709Y-134869475D01*
X137471790Y-134790426D01*
X137471786Y-134790424D01*
X137471784Y-134790423D01*
X137319057Y-134749500D01*
X137160943Y-134749500D01*
X137008216Y-134790423D01*
X137008209Y-134790426D01*
X136871290Y-134869475D01*
X136871282Y-134869481D01*
X136759481Y-134981282D01*
X136759475Y-134981290D01*
X136680426Y-135118209D01*
X136680423Y-135118216D01*
X136639500Y-135270943D01*
X124875500Y-135270943D01*
X124875500Y-135174234D01*
X124836281Y-135027865D01*
X124760515Y-134896635D01*
X124653365Y-134789485D01*
X124584109Y-134749500D01*
X124522136Y-134713719D01*
X124448950Y-134694109D01*
X124375766Y-134674500D01*
X124224234Y-134674500D01*
X124077863Y-134713719D01*
X123946635Y-134789485D01*
X123946632Y-134789487D01*
X123839487Y-134896632D01*
X123839485Y-134896635D01*
X123763719Y-135027863D01*
X123735285Y-135133984D01*
X123724500Y-135174234D01*
X104339656Y-135174234D01*
X104233501Y-135130264D01*
X104233489Y-135130261D01*
X104078845Y-135099500D01*
X104078842Y-135099500D01*
X103921158Y-135099500D01*
X103921155Y-135099500D01*
X103766510Y-135130261D01*
X103766498Y-135130264D01*
X103620827Y-135190602D01*
X103615446Y-135193479D01*
X103614667Y-135192021D01*
X103555572Y-135210516D01*
X103488195Y-135192020D01*
X103441513Y-135140034D01*
X103438815Y-135133984D01*
X103436283Y-135127873D01*
X103436281Y-135127865D01*
X103360515Y-134996635D01*
X103253365Y-134889485D01*
X103187750Y-134851602D01*
X103122136Y-134813719D01*
X103031691Y-134789485D01*
X102975766Y-134774500D01*
X102824234Y-134774500D01*
X102677863Y-134813719D01*
X102546635Y-134889485D01*
X102546632Y-134889487D01*
X102439487Y-134996632D01*
X102439485Y-134996635D01*
X102363719Y-135127863D01*
X102335874Y-135231784D01*
X102324500Y-135274234D01*
X84500500Y-135274234D01*
X84500500Y-133874233D01*
X96574500Y-133874233D01*
X96574500Y-134025764D01*
X96613719Y-134172135D01*
X96644327Y-134225148D01*
X96689485Y-134303364D01*
X96796635Y-134410514D01*
X96927865Y-134486280D01*
X97074234Y-134525499D01*
X97074236Y-134525499D01*
X97225764Y-134525499D01*
X97225766Y-134525499D01*
X97372135Y-134486280D01*
X97503365Y-134410514D01*
X97610515Y-134303364D01*
X97686281Y-134172134D01*
X97725500Y-134025765D01*
X97725500Y-133874233D01*
X97686281Y-133727864D01*
X97610515Y-133596634D01*
X97503365Y-133489484D01*
X97437750Y-133451601D01*
X97372136Y-133413718D01*
X97298950Y-133394108D01*
X97225766Y-133374499D01*
X97074234Y-133374499D01*
X96927863Y-133413718D01*
X96796635Y-133489484D01*
X96796632Y-133489486D01*
X96689487Y-133596631D01*
X96689485Y-133596634D01*
X96613719Y-133727862D01*
X96574500Y-133874233D01*
X84500500Y-133874233D01*
X84500500Y-130450943D01*
X92059500Y-130450943D01*
X92059500Y-130609057D01*
X92083728Y-130699475D01*
X92100423Y-130761783D01*
X92100426Y-130761790D01*
X92179475Y-130898709D01*
X92179479Y-130898714D01*
X92179480Y-130898716D01*
X92291284Y-131010520D01*
X92291286Y-131010521D01*
X92291290Y-131010524D01*
X92428209Y-131089573D01*
X92428216Y-131089577D01*
X92580943Y-131130500D01*
X92580945Y-131130500D01*
X92739055Y-131130500D01*
X92739057Y-131130500D01*
X92891784Y-131089577D01*
X93028716Y-131010520D01*
X93140520Y-130898716D01*
X93219577Y-130761784D01*
X93260500Y-130609057D01*
X93260500Y-130450943D01*
X93219577Y-130298216D01*
X93207225Y-130276821D01*
X93140524Y-130161290D01*
X93140518Y-130161282D01*
X93028717Y-130049481D01*
X93028709Y-130049475D01*
X92891790Y-129970426D01*
X92891786Y-129970424D01*
X92891784Y-129970423D01*
X92739057Y-129929500D01*
X92580943Y-129929500D01*
X92428216Y-129970423D01*
X92428209Y-129970426D01*
X92291290Y-130049475D01*
X92291282Y-130049481D01*
X92179481Y-130161282D01*
X92179475Y-130161290D01*
X92100426Y-130298209D01*
X92100423Y-130298216D01*
X92059500Y-130450943D01*
X84500500Y-130450943D01*
X84500500Y-129124233D01*
X86824500Y-129124233D01*
X86824500Y-129275765D01*
X86839470Y-129331636D01*
X86863719Y-129422135D01*
X86901602Y-129487749D01*
X86939485Y-129553364D01*
X87046635Y-129660514D01*
X87177865Y-129736280D01*
X87324234Y-129775499D01*
X87324236Y-129775499D01*
X87475764Y-129775499D01*
X87475766Y-129775499D01*
X87622135Y-129736280D01*
X87753365Y-129660514D01*
X87860515Y-129553364D01*
X87936281Y-129422134D01*
X87975500Y-129275765D01*
X87975500Y-129127524D01*
X88809500Y-129127524D01*
X88809500Y-129272474D01*
X88847016Y-129412484D01*
X88847017Y-129412487D01*
X88919488Y-129538010D01*
X88919490Y-129538012D01*
X88919491Y-129538014D01*
X89021985Y-129640508D01*
X89021986Y-129640509D01*
X89021988Y-129640510D01*
X89147511Y-129712981D01*
X89147512Y-129712981D01*
X89147515Y-129712983D01*
X89287525Y-129750499D01*
X89287528Y-129750499D01*
X89432472Y-129750499D01*
X89432475Y-129750499D01*
X89572485Y-129712983D01*
X89668001Y-129657836D01*
X89735899Y-129641364D01*
X89791998Y-129657836D01*
X89887515Y-129712983D01*
X90027525Y-129750499D01*
X90027528Y-129750499D01*
X90172472Y-129750499D01*
X90172475Y-129750499D01*
X90312485Y-129712983D01*
X90438015Y-129640508D01*
X90540509Y-129538014D01*
X90612984Y-129412484D01*
X90650500Y-129272474D01*
X90650500Y-129127524D01*
X90616329Y-128999999D01*
X99500000Y-128999999D01*
X99567250Y-129682814D01*
X99766422Y-130339396D01*
X100089851Y-130944489D01*
X100089856Y-130944496D01*
X100525125Y-131474873D01*
X101055502Y-131910142D01*
X101055509Y-131910147D01*
X101660602Y-132233576D01*
X101660604Y-132233576D01*
X101660607Y-132233578D01*
X102317183Y-132432748D01*
X102317182Y-132432748D01*
X102384434Y-132439371D01*
X103000000Y-132500000D01*
X103682816Y-132432748D01*
X104339392Y-132233578D01*
X104339396Y-132233576D01*
X104389307Y-132206898D01*
X112699500Y-132206898D01*
X112699500Y-133793102D01*
X112702844Y-133820945D01*
X112710122Y-133881561D01*
X112765639Y-134022343D01*
X112857077Y-134142922D01*
X112977656Y-134234360D01*
X112977657Y-134234360D01*
X112977658Y-134234361D01*
X113118436Y-134289877D01*
X113206898Y-134300500D01*
X113206903Y-134300500D01*
X114793097Y-134300500D01*
X114793102Y-134300500D01*
X114881564Y-134289877D01*
X115022342Y-134234361D01*
X115142922Y-134142922D01*
X115234361Y-134022342D01*
X115289877Y-133881564D01*
X115300500Y-133793102D01*
X115300500Y-133744234D01*
X122424500Y-133744234D01*
X122424500Y-133895765D01*
X122463719Y-134042136D01*
X122491058Y-134089487D01*
X122539485Y-134173365D01*
X122646635Y-134280515D01*
X122777865Y-134356281D01*
X122924234Y-134395500D01*
X122924236Y-134395500D01*
X123075764Y-134395500D01*
X123075766Y-134395500D01*
X123222135Y-134356281D01*
X123353365Y-134280515D01*
X123460515Y-134173365D01*
X123536281Y-134042135D01*
X123575500Y-133895766D01*
X123575500Y-133744234D01*
X123536281Y-133597865D01*
X123460515Y-133466635D01*
X123353365Y-133359485D01*
X123222135Y-133283719D01*
X123217922Y-133282590D01*
X123168418Y-133269325D01*
X123075766Y-133244500D01*
X122924234Y-133244500D01*
X122777863Y-133283719D01*
X122646635Y-133359485D01*
X122646632Y-133359487D01*
X122539487Y-133466632D01*
X122539485Y-133466635D01*
X122463719Y-133597863D01*
X122424500Y-133744234D01*
X115300500Y-133744234D01*
X115300500Y-133170943D01*
X124149500Y-133170943D01*
X124149500Y-133329057D01*
X124173728Y-133419475D01*
X124190423Y-133481783D01*
X124190426Y-133481790D01*
X124269475Y-133618709D01*
X124269479Y-133618714D01*
X124269480Y-133618716D01*
X124381284Y-133730520D01*
X124381286Y-133730521D01*
X124381290Y-133730524D01*
X124489670Y-133793096D01*
X124518216Y-133809577D01*
X124670943Y-133850500D01*
X124670945Y-133850500D01*
X124829055Y-133850500D01*
X124829057Y-133850500D01*
X124981784Y-133809577D01*
X125094962Y-133744234D01*
X125724500Y-133744234D01*
X125724500Y-133895765D01*
X125763719Y-134042136D01*
X125791058Y-134089487D01*
X125839485Y-134173365D01*
X125946635Y-134280515D01*
X126077865Y-134356281D01*
X126224234Y-134395500D01*
X126224236Y-134395500D01*
X126375764Y-134395500D01*
X126375766Y-134395500D01*
X126522135Y-134356281D01*
X126653365Y-134280515D01*
X126760515Y-134173365D01*
X126836281Y-134042135D01*
X126875500Y-133895766D01*
X126875500Y-133744234D01*
X135024500Y-133744234D01*
X135024500Y-133895765D01*
X135063719Y-134042136D01*
X135091058Y-134089487D01*
X135139485Y-134173365D01*
X135246635Y-134280515D01*
X135377865Y-134356281D01*
X135524234Y-134395500D01*
X135524236Y-134395500D01*
X135675764Y-134395500D01*
X135675766Y-134395500D01*
X135822135Y-134356281D01*
X135953365Y-134280515D01*
X136060515Y-134173365D01*
X136136281Y-134042135D01*
X136175500Y-133895766D01*
X136175500Y-133820943D01*
X140399500Y-133820943D01*
X140399500Y-133979057D01*
X140412016Y-134025765D01*
X140440423Y-134131783D01*
X140440426Y-134131790D01*
X140519475Y-134268709D01*
X140519479Y-134268714D01*
X140519480Y-134268716D01*
X140631284Y-134380520D01*
X140631286Y-134380521D01*
X140631290Y-134380524D01*
X140735040Y-134440423D01*
X140768216Y-134459577D01*
X140920943Y-134500500D01*
X140920945Y-134500500D01*
X141079055Y-134500500D01*
X141079057Y-134500500D01*
X141231784Y-134459577D01*
X141368716Y-134380520D01*
X141480520Y-134268716D01*
X141559577Y-134131784D01*
X141600500Y-133979057D01*
X141600500Y-133820943D01*
X141559577Y-133668216D01*
X141530999Y-133618717D01*
X141480524Y-133531290D01*
X141480518Y-133531282D01*
X141368717Y-133419481D01*
X141368709Y-133419475D01*
X141231790Y-133340426D01*
X141231786Y-133340424D01*
X141231784Y-133340423D01*
X141079057Y-133299500D01*
X140920943Y-133299500D01*
X140768216Y-133340423D01*
X140768209Y-133340426D01*
X140631290Y-133419475D01*
X140631282Y-133419481D01*
X140519481Y-133531282D01*
X140519475Y-133531290D01*
X140440426Y-133668209D01*
X140440423Y-133668216D01*
X140399500Y-133820943D01*
X136175500Y-133820943D01*
X136175500Y-133744234D01*
X136136281Y-133597865D01*
X136060515Y-133466635D01*
X135953365Y-133359485D01*
X135887750Y-133321602D01*
X135822136Y-133283719D01*
X135748950Y-133264109D01*
X135675766Y-133244500D01*
X135524234Y-133244500D01*
X135377863Y-133283719D01*
X135246635Y-133359485D01*
X135246632Y-133359487D01*
X135139487Y-133466632D01*
X135139485Y-133466635D01*
X135063719Y-133597863D01*
X135024500Y-133744234D01*
X126875500Y-133744234D01*
X126836281Y-133597865D01*
X126760515Y-133466635D01*
X126653365Y-133359485D01*
X126587750Y-133321602D01*
X126522136Y-133283719D01*
X126448950Y-133264109D01*
X126375766Y-133244500D01*
X126224234Y-133244500D01*
X126077863Y-133283719D01*
X125946635Y-133359485D01*
X125946632Y-133359487D01*
X125839487Y-133466632D01*
X125839485Y-133466635D01*
X125763719Y-133597863D01*
X125724500Y-133744234D01*
X125094962Y-133744234D01*
X125118716Y-133730520D01*
X125230520Y-133618716D01*
X125309577Y-133481784D01*
X125350500Y-133329057D01*
X125350500Y-133170943D01*
X125309577Y-133018216D01*
X125309573Y-133018209D01*
X125249243Y-132913712D01*
X125230524Y-132881290D01*
X125230518Y-132881282D01*
X125205014Y-132855778D01*
X188799500Y-132855778D01*
X188799500Y-133144221D01*
X188799501Y-133144238D01*
X188837149Y-133430206D01*
X188837150Y-133430211D01*
X188837151Y-133430217D01*
X188895620Y-133648426D01*
X188911809Y-133708844D01*
X188911814Y-133708860D01*
X189022191Y-133975336D01*
X189022199Y-133975352D01*
X189166420Y-134225148D01*
X189166431Y-134225164D01*
X189342024Y-134454002D01*
X189342030Y-134454009D01*
X189545990Y-134657969D01*
X189545996Y-134657974D01*
X189774844Y-134833575D01*
X189774851Y-134833579D01*
X190024647Y-134977800D01*
X190024663Y-134977808D01*
X190291139Y-135088185D01*
X190291145Y-135088186D01*
X190291155Y-135088191D01*
X190569783Y-135162849D01*
X190855772Y-135200500D01*
X190855779Y-135200500D01*
X191144221Y-135200500D01*
X191144228Y-135200500D01*
X191430217Y-135162849D01*
X191708845Y-135088191D01*
X191708857Y-135088185D01*
X191708860Y-135088185D01*
X191975336Y-134977808D01*
X191975339Y-134977806D01*
X191975345Y-134977804D01*
X192225156Y-134833575D01*
X192454004Y-134657974D01*
X192657974Y-134454004D01*
X192833575Y-134225156D01*
X192977804Y-133975345D01*
X193010767Y-133895766D01*
X193088185Y-133708860D01*
X193088185Y-133708857D01*
X193088191Y-133708845D01*
X193162849Y-133430217D01*
X193200500Y-133144228D01*
X193200500Y-132855772D01*
X193162849Y-132569783D01*
X193088191Y-132291155D01*
X193088186Y-132291145D01*
X193088185Y-132291139D01*
X192977808Y-132024663D01*
X192977800Y-132024647D01*
X192842636Y-131790538D01*
X192833575Y-131774844D01*
X192657974Y-131545996D01*
X192657969Y-131545990D01*
X192454009Y-131342030D01*
X192454002Y-131342024D01*
X192225164Y-131166431D01*
X192225162Y-131166429D01*
X192225156Y-131166425D01*
X192225151Y-131166422D01*
X192225148Y-131166420D01*
X191975352Y-131022199D01*
X191975336Y-131022191D01*
X191708860Y-130911814D01*
X191708848Y-130911810D01*
X191708845Y-130911809D01*
X191430217Y-130837151D01*
X191430211Y-130837150D01*
X191430206Y-130837149D01*
X191144238Y-130799501D01*
X191144233Y-130799500D01*
X191144228Y-130799500D01*
X190855772Y-130799500D01*
X190855766Y-130799500D01*
X190855761Y-130799501D01*
X190569793Y-130837149D01*
X190569786Y-130837150D01*
X190569783Y-130837151D01*
X190340045Y-130898709D01*
X190291155Y-130911809D01*
X190291139Y-130911814D01*
X190024663Y-131022191D01*
X190024647Y-131022199D01*
X189774851Y-131166420D01*
X189774835Y-131166431D01*
X189545997Y-131342024D01*
X189545990Y-131342030D01*
X189342030Y-131545990D01*
X189342024Y-131545997D01*
X189166431Y-131774835D01*
X189166420Y-131774851D01*
X189022199Y-132024647D01*
X189022191Y-132024663D01*
X188911814Y-132291139D01*
X188911809Y-132291155D01*
X188837152Y-132569780D01*
X188837149Y-132569793D01*
X188799501Y-132855761D01*
X188799500Y-132855778D01*
X125205014Y-132855778D01*
X125118717Y-132769481D01*
X125118709Y-132769475D01*
X124981790Y-132690426D01*
X124981786Y-132690424D01*
X124981784Y-132690423D01*
X124829057Y-132649500D01*
X124670943Y-132649500D01*
X124518216Y-132690423D01*
X124518209Y-132690426D01*
X124381290Y-132769475D01*
X124381282Y-132769481D01*
X124269481Y-132881282D01*
X124269475Y-132881290D01*
X124190426Y-133018209D01*
X124190423Y-133018216D01*
X124149500Y-133170943D01*
X115300500Y-133170943D01*
X115300500Y-132206898D01*
X115289877Y-132118436D01*
X115234361Y-131977658D01*
X115234360Y-131977657D01*
X115234360Y-131977656D01*
X115142922Y-131857077D01*
X115022343Y-131765639D01*
X114881561Y-131710122D01*
X114835926Y-131704642D01*
X114793102Y-131699500D01*
X113206898Y-131699500D01*
X113167853Y-131704188D01*
X113118438Y-131710122D01*
X112977656Y-131765639D01*
X112857077Y-131857077D01*
X112765639Y-131977656D01*
X112710122Y-132118438D01*
X112704188Y-132167853D01*
X112699500Y-132206898D01*
X104389307Y-132206898D01*
X104600835Y-132093834D01*
X104843968Y-131963875D01*
X104944495Y-131910143D01*
X105474873Y-131474873D01*
X105781749Y-131100943D01*
X133399500Y-131100943D01*
X133399500Y-131259057D01*
X133421732Y-131342026D01*
X133440423Y-131411783D01*
X133440426Y-131411790D01*
X133519475Y-131548709D01*
X133519479Y-131548714D01*
X133519480Y-131548716D01*
X133631284Y-131660520D01*
X133631286Y-131660521D01*
X133631290Y-131660524D01*
X133768209Y-131739573D01*
X133768216Y-131739577D01*
X133920943Y-131780500D01*
X133920945Y-131780500D01*
X134079055Y-131780500D01*
X134079057Y-131780500D01*
X134231784Y-131739577D01*
X134368716Y-131660520D01*
X134480520Y-131548716D01*
X134559577Y-131411784D01*
X134600500Y-131259057D01*
X134600500Y-131100943D01*
X134559577Y-130948216D01*
X134557425Y-130944489D01*
X134480524Y-130811290D01*
X134480518Y-130811282D01*
X134368717Y-130699481D01*
X134368709Y-130699475D01*
X134231790Y-130620426D01*
X134231786Y-130620424D01*
X134231784Y-130620423D01*
X134079057Y-130579500D01*
X133920943Y-130579500D01*
X133768216Y-130620423D01*
X133768209Y-130620426D01*
X133631290Y-130699475D01*
X133631282Y-130699481D01*
X133519481Y-130811282D01*
X133519475Y-130811290D01*
X133440426Y-130948209D01*
X133440423Y-130948216D01*
X133399500Y-131100943D01*
X105781749Y-131100943D01*
X105910143Y-130944495D01*
X105910143Y-130944493D01*
X105910147Y-130944489D01*
X106233576Y-130339396D01*
X106233576Y-130339395D01*
X106233578Y-130339392D01*
X106239174Y-130320943D01*
X122249500Y-130320943D01*
X122249500Y-130479057D01*
X122284334Y-130609057D01*
X122290423Y-130631783D01*
X122290426Y-130631790D01*
X122369475Y-130768709D01*
X122369479Y-130768714D01*
X122369480Y-130768716D01*
X122481284Y-130880520D01*
X122481286Y-130880521D01*
X122481290Y-130880524D01*
X122598526Y-130948209D01*
X122618216Y-130959577D01*
X122770943Y-131000500D01*
X122770945Y-131000500D01*
X122929055Y-131000500D01*
X122929057Y-131000500D01*
X123081784Y-130959577D01*
X123218716Y-130880520D01*
X123330520Y-130768716D01*
X123409577Y-130631784D01*
X123450500Y-130479057D01*
X123450500Y-130320943D01*
X124149500Y-130320943D01*
X124149500Y-130479057D01*
X124184334Y-130609057D01*
X124190423Y-130631783D01*
X124190426Y-130631790D01*
X124269475Y-130768709D01*
X124269479Y-130768714D01*
X124269480Y-130768716D01*
X124381284Y-130880520D01*
X124381286Y-130880521D01*
X124381290Y-130880524D01*
X124498526Y-130948209D01*
X124518216Y-130959577D01*
X124670943Y-131000500D01*
X124670945Y-131000500D01*
X124829054Y-131000500D01*
X124829057Y-131000500D01*
X124981784Y-130959577D01*
X125118716Y-130880520D01*
X125230520Y-130768716D01*
X125309577Y-130631784D01*
X125350500Y-130479057D01*
X125350500Y-130320943D01*
X125309577Y-130168216D01*
X125241026Y-130049481D01*
X125230524Y-130031290D01*
X125230518Y-130031282D01*
X125118717Y-129919481D01*
X125118709Y-129919475D01*
X124981790Y-129840426D01*
X124981786Y-129840424D01*
X124981784Y-129840423D01*
X124829057Y-129799500D01*
X124670943Y-129799500D01*
X124518216Y-129840423D01*
X124518209Y-129840426D01*
X124381290Y-129919475D01*
X124381282Y-129919481D01*
X124269481Y-130031282D01*
X124269475Y-130031290D01*
X124190426Y-130168209D01*
X124190423Y-130168216D01*
X124149500Y-130320943D01*
X123450500Y-130320943D01*
X123409577Y-130168216D01*
X123341026Y-130049481D01*
X123330524Y-130031290D01*
X123330518Y-130031282D01*
X123218717Y-129919481D01*
X123218709Y-129919475D01*
X123081790Y-129840426D01*
X123081786Y-129840424D01*
X123081784Y-129840423D01*
X122929057Y-129799500D01*
X122770943Y-129799500D01*
X122618216Y-129840423D01*
X122618209Y-129840426D01*
X122481290Y-129919475D01*
X122481282Y-129919481D01*
X122369481Y-130031282D01*
X122369475Y-130031290D01*
X122290426Y-130168209D01*
X122290423Y-130168216D01*
X122249500Y-130320943D01*
X106239174Y-130320943D01*
X106432748Y-129682816D01*
X106500000Y-129000000D01*
X106474605Y-128742160D01*
X106463063Y-128624969D01*
X106462666Y-128620942D01*
X130299500Y-128620942D01*
X130299500Y-128779056D01*
X130321722Y-128861987D01*
X130340423Y-128931782D01*
X130340426Y-128931789D01*
X130419475Y-129068708D01*
X130419479Y-129068713D01*
X130419480Y-129068715D01*
X130531284Y-129180519D01*
X130531286Y-129180520D01*
X130531290Y-129180523D01*
X130668209Y-129259572D01*
X130668216Y-129259576D01*
X130820943Y-129300499D01*
X130820945Y-129300499D01*
X130979055Y-129300499D01*
X130979057Y-129300499D01*
X131131784Y-129259576D01*
X131268716Y-129180519D01*
X131380520Y-129068715D01*
X131459577Y-128931783D01*
X131500500Y-128779056D01*
X131500500Y-128620942D01*
X131460308Y-128470943D01*
X136349500Y-128470943D01*
X136349500Y-128629057D01*
X136384450Y-128759490D01*
X136390423Y-128781783D01*
X136390426Y-128781790D01*
X136469475Y-128918709D01*
X136469479Y-128918714D01*
X136469480Y-128918716D01*
X136581284Y-129030520D01*
X136581286Y-129030521D01*
X136581290Y-129030524D01*
X136647428Y-129068708D01*
X136718216Y-129109577D01*
X136870943Y-129150500D01*
X136870945Y-129150500D01*
X137029055Y-129150500D01*
X137029057Y-129150500D01*
X137181784Y-129109577D01*
X137318716Y-129030520D01*
X137430520Y-128918716D01*
X137509577Y-128781784D01*
X137550500Y-128629057D01*
X137550500Y-128470943D01*
X137509577Y-128318216D01*
X137468402Y-128246898D01*
X137430524Y-128181290D01*
X137430518Y-128181282D01*
X137318717Y-128069481D01*
X137318709Y-128069475D01*
X137181790Y-127990426D01*
X137181786Y-127990424D01*
X137181784Y-127990423D01*
X137029057Y-127949500D01*
X136870943Y-127949500D01*
X136718216Y-127990423D01*
X136718209Y-127990426D01*
X136581290Y-128069475D01*
X136581282Y-128069481D01*
X136469481Y-128181282D01*
X136469475Y-128181290D01*
X136390426Y-128318209D01*
X136390423Y-128318216D01*
X136349500Y-128470943D01*
X131460308Y-128470943D01*
X131459577Y-128468215D01*
X131448116Y-128448363D01*
X131380524Y-128331289D01*
X131380518Y-128331281D01*
X131268717Y-128219480D01*
X131268709Y-128219474D01*
X131131790Y-128140425D01*
X131131786Y-128140423D01*
X131131784Y-128140422D01*
X130979057Y-128099499D01*
X130820943Y-128099499D01*
X130668216Y-128140422D01*
X130668209Y-128140425D01*
X130531290Y-128219474D01*
X130531282Y-128219480D01*
X130419481Y-128331281D01*
X130419475Y-128331289D01*
X130340426Y-128468208D01*
X130340423Y-128468215D01*
X130299500Y-128620942D01*
X106462666Y-128620942D01*
X106434137Y-128331283D01*
X106432748Y-128317183D01*
X106252879Y-127724234D01*
X123024500Y-127724234D01*
X123024500Y-127875766D01*
X123032602Y-127906004D01*
X123063719Y-128022136D01*
X123091051Y-128069475D01*
X123139485Y-128153365D01*
X123246635Y-128260515D01*
X123377865Y-128336281D01*
X123524234Y-128375500D01*
X123524236Y-128375500D01*
X123675764Y-128375500D01*
X123675766Y-128375500D01*
X123822135Y-128336281D01*
X123953365Y-128260515D01*
X124060515Y-128153365D01*
X124136281Y-128022135D01*
X124175500Y-127875766D01*
X124175500Y-127724234D01*
X126524500Y-127724234D01*
X126524500Y-127875766D01*
X126532602Y-127906004D01*
X126563719Y-128022136D01*
X126591051Y-128069475D01*
X126639485Y-128153365D01*
X126746635Y-128260515D01*
X126877865Y-128336281D01*
X127024234Y-128375500D01*
X127024236Y-128375500D01*
X127175764Y-128375500D01*
X127175766Y-128375500D01*
X127322135Y-128336281D01*
X127453365Y-128260515D01*
X127560515Y-128153365D01*
X127636281Y-128022135D01*
X127675500Y-127875766D01*
X127675500Y-127724234D01*
X127636281Y-127577865D01*
X127560515Y-127446635D01*
X127453365Y-127339485D01*
X127387750Y-127301602D01*
X127322136Y-127263719D01*
X127248950Y-127244109D01*
X127175766Y-127224500D01*
X127024234Y-127224500D01*
X126877863Y-127263719D01*
X126746635Y-127339485D01*
X126746632Y-127339487D01*
X126639487Y-127446632D01*
X126639485Y-127446635D01*
X126563719Y-127577863D01*
X126528217Y-127710363D01*
X126524500Y-127724234D01*
X124175500Y-127724234D01*
X124136281Y-127577865D01*
X124060515Y-127446635D01*
X123953365Y-127339485D01*
X123887750Y-127301602D01*
X123822136Y-127263719D01*
X123748950Y-127244109D01*
X123675766Y-127224500D01*
X123524234Y-127224500D01*
X123377863Y-127263719D01*
X123246635Y-127339485D01*
X123246632Y-127339487D01*
X123139487Y-127446632D01*
X123139485Y-127446635D01*
X123063719Y-127577863D01*
X123028217Y-127710363D01*
X123024500Y-127724234D01*
X106252879Y-127724234D01*
X106233578Y-127660607D01*
X106233576Y-127660604D01*
X106233576Y-127660602D01*
X105910147Y-127055509D01*
X105910142Y-127055502D01*
X105474873Y-126525125D01*
X105032365Y-126161968D01*
X105032355Y-126161961D01*
X104944490Y-126089852D01*
X104944489Y-126089851D01*
X104915272Y-126074234D01*
X127624499Y-126074234D01*
X127624499Y-126225766D01*
X127626709Y-126234013D01*
X127663718Y-126372136D01*
X127677604Y-126396186D01*
X127739484Y-126503365D01*
X127846634Y-126610515D01*
X127977864Y-126686281D01*
X128124233Y-126725500D01*
X128124235Y-126725500D01*
X128275763Y-126725500D01*
X128275765Y-126725500D01*
X128422134Y-126686281D01*
X128553364Y-126610515D01*
X128660514Y-126503365D01*
X128736280Y-126372135D01*
X128762512Y-126274234D01*
X131824500Y-126274234D01*
X131824500Y-126425765D01*
X131863719Y-126572136D01*
X131885876Y-126610512D01*
X131939485Y-126703365D01*
X132046635Y-126810515D01*
X132177865Y-126886281D01*
X132324234Y-126925500D01*
X132324236Y-126925500D01*
X132475764Y-126925500D01*
X132475766Y-126925500D01*
X132622135Y-126886281D01*
X132753365Y-126810515D01*
X132860515Y-126703365D01*
X132936281Y-126572135D01*
X132975500Y-126425766D01*
X132975500Y-126274234D01*
X132971538Y-126259448D01*
X149849500Y-126259448D01*
X149849500Y-126440551D01*
X149877829Y-126619410D01*
X149933787Y-126791636D01*
X149933788Y-126791639D01*
X150016006Y-126952997D01*
X150122441Y-127099494D01*
X150122445Y-127099499D01*
X150250500Y-127227554D01*
X150250505Y-127227558D01*
X150300277Y-127263719D01*
X150397006Y-127333996D01*
X150502484Y-127387740D01*
X150558360Y-127416211D01*
X150558363Y-127416212D01*
X150644476Y-127444191D01*
X150730591Y-127472171D01*
X150797769Y-127482811D01*
X150862267Y-127493027D01*
X150925402Y-127522956D01*
X150962333Y-127582268D01*
X150961335Y-127652131D01*
X150922725Y-127710363D01*
X150858761Y-127738477D01*
X150842869Y-127739500D01*
X150356898Y-127739500D01*
X150317853Y-127744188D01*
X150268438Y-127750122D01*
X150127656Y-127805639D01*
X150007077Y-127897077D01*
X149915639Y-128017656D01*
X149860122Y-128158438D01*
X149854188Y-128207853D01*
X149849500Y-128246898D01*
X149849500Y-129533102D01*
X149855126Y-129579954D01*
X149860122Y-129621561D01*
X149860122Y-129621563D01*
X149860123Y-129621564D01*
X149867594Y-129640508D01*
X149915639Y-129762343D01*
X150007077Y-129882922D01*
X150127656Y-129974360D01*
X150127657Y-129974360D01*
X150127658Y-129974361D01*
X150268436Y-130029877D01*
X150356898Y-130040500D01*
X150356903Y-130040500D01*
X151643097Y-130040500D01*
X151643102Y-130040500D01*
X151731564Y-130029877D01*
X151872342Y-129974361D01*
X151992922Y-129882922D01*
X152084361Y-129762342D01*
X152139877Y-129621564D01*
X152150500Y-129533102D01*
X152150500Y-128246898D01*
X152139877Y-128158436D01*
X152084361Y-128017658D01*
X152084360Y-128017657D01*
X152084360Y-128017656D01*
X151992922Y-127897077D01*
X151872343Y-127805639D01*
X151731561Y-127750122D01*
X151685926Y-127744642D01*
X151643102Y-127739500D01*
X151157131Y-127739500D01*
X151090092Y-127719815D01*
X151044337Y-127667011D01*
X151034393Y-127597853D01*
X151063418Y-127534297D01*
X151122196Y-127496523D01*
X151137733Y-127493027D01*
X151195408Y-127483891D01*
X151269409Y-127472171D01*
X151441639Y-127416211D01*
X151602994Y-127333996D01*
X151749501Y-127227553D01*
X151877553Y-127099501D01*
X151983996Y-126952994D01*
X152066211Y-126791639D01*
X152122171Y-126619409D01*
X152140550Y-126503367D01*
X152150500Y-126440551D01*
X152150500Y-126259448D01*
X154929500Y-126259448D01*
X154929500Y-126440551D01*
X154957829Y-126619410D01*
X155013787Y-126791636D01*
X155013788Y-126791639D01*
X155096006Y-126952997D01*
X155202441Y-127099494D01*
X155202445Y-127099499D01*
X155330500Y-127227554D01*
X155330505Y-127227558D01*
X155380277Y-127263719D01*
X155477006Y-127333996D01*
X155582484Y-127387740D01*
X155638360Y-127416211D01*
X155638363Y-127416212D01*
X155724476Y-127444191D01*
X155810591Y-127472171D01*
X155883639Y-127483740D01*
X155970678Y-127497527D01*
X156033813Y-127527456D01*
X156070744Y-127586768D01*
X156069746Y-127656631D01*
X156031136Y-127714863D01*
X155970678Y-127742473D01*
X155810589Y-127767829D01*
X155638363Y-127823787D01*
X155638360Y-127823788D01*
X155477002Y-127906006D01*
X155330505Y-128012441D01*
X155330500Y-128012445D01*
X155202445Y-128140500D01*
X155202441Y-128140505D01*
X155096006Y-128287002D01*
X155013788Y-128448360D01*
X155013787Y-128448363D01*
X154957829Y-128620589D01*
X154929500Y-128799448D01*
X154929500Y-128980551D01*
X154957829Y-129159410D01*
X155013787Y-129331636D01*
X155013788Y-129331639D01*
X155096006Y-129492997D01*
X155202441Y-129639494D01*
X155202445Y-129639499D01*
X155330500Y-129767554D01*
X155330505Y-129767558D01*
X155458287Y-129860396D01*
X155477006Y-129873996D01*
X155566263Y-129919475D01*
X155638360Y-129956211D01*
X155638363Y-129956212D01*
X155724476Y-129984191D01*
X155810591Y-130012171D01*
X155893429Y-130025291D01*
X155989449Y-130040500D01*
X155989454Y-130040500D01*
X156170551Y-130040500D01*
X156257259Y-130026765D01*
X156349409Y-130012171D01*
X156521639Y-129956211D01*
X156682994Y-129873996D01*
X156829501Y-129767553D01*
X156957553Y-129639501D01*
X157063996Y-129492994D01*
X157146211Y-129331639D01*
X157202171Y-129159409D01*
X157216537Y-129068708D01*
X157227527Y-128999321D01*
X157257456Y-128936186D01*
X157316768Y-128899255D01*
X157386630Y-128900253D01*
X157444863Y-128938863D01*
X157472473Y-128999321D01*
X157497829Y-129159410D01*
X157553787Y-129331636D01*
X157553788Y-129331639D01*
X157636006Y-129492997D01*
X157742441Y-129639494D01*
X157742445Y-129639499D01*
X157870500Y-129767554D01*
X157870505Y-129767558D01*
X157998287Y-129860396D01*
X158017006Y-129873996D01*
X158106263Y-129919475D01*
X158178360Y-129956211D01*
X158178363Y-129956212D01*
X158264476Y-129984191D01*
X158350591Y-130012171D01*
X158433429Y-130025291D01*
X158529449Y-130040500D01*
X158529454Y-130040500D01*
X158710551Y-130040500D01*
X158797259Y-130026765D01*
X158889409Y-130012171D01*
X159061639Y-129956211D01*
X159222994Y-129873996D01*
X159369501Y-129767553D01*
X159497553Y-129639501D01*
X159603996Y-129492994D01*
X159686211Y-129331639D01*
X159742171Y-129159409D01*
X159756537Y-129068708D01*
X159767527Y-128999321D01*
X159797456Y-128936186D01*
X159856768Y-128899255D01*
X159926630Y-128900253D01*
X159984863Y-128938863D01*
X160012473Y-128999321D01*
X160037829Y-129159410D01*
X160093787Y-129331636D01*
X160093788Y-129331639D01*
X160176006Y-129492997D01*
X160282441Y-129639494D01*
X160282445Y-129639499D01*
X160410500Y-129767554D01*
X160410505Y-129767558D01*
X160538287Y-129860396D01*
X160557006Y-129873996D01*
X160646263Y-129919475D01*
X160718360Y-129956211D01*
X160718363Y-129956212D01*
X160804476Y-129984191D01*
X160890591Y-130012171D01*
X160973429Y-130025291D01*
X161069449Y-130040500D01*
X161069454Y-130040500D01*
X161250551Y-130040500D01*
X161337259Y-130026765D01*
X161429409Y-130012171D01*
X161601639Y-129956211D01*
X161762994Y-129873996D01*
X161909501Y-129767553D01*
X162037553Y-129639501D01*
X162143996Y-129492994D01*
X162226211Y-129331639D01*
X162282171Y-129159409D01*
X162307419Y-128999999D01*
X173500000Y-128999999D01*
X173567250Y-129682814D01*
X173766422Y-130339396D01*
X174089851Y-130944489D01*
X174089856Y-130944496D01*
X174525125Y-131474873D01*
X175055502Y-131910142D01*
X175055509Y-131910147D01*
X175660602Y-132233576D01*
X175660604Y-132233576D01*
X175660607Y-132233578D01*
X176317183Y-132432748D01*
X176317182Y-132432748D01*
X176384434Y-132439371D01*
X177000000Y-132500000D01*
X177682816Y-132432748D01*
X178339392Y-132233578D01*
X178339396Y-132233576D01*
X178944489Y-131910147D01*
X178944496Y-131910142D01*
X179120574Y-131765639D01*
X179474873Y-131474873D01*
X179910143Y-130944495D01*
X179910143Y-130944493D01*
X179910147Y-130944489D01*
X180233576Y-130339396D01*
X180233576Y-130339395D01*
X180233578Y-130339392D01*
X180432748Y-129682816D01*
X180500000Y-129000000D01*
X180432748Y-128317183D01*
X180233578Y-127660607D01*
X180233576Y-127660604D01*
X180233576Y-127660602D01*
X179910147Y-127055509D01*
X179910142Y-127055502D01*
X179474873Y-126525125D01*
X178944496Y-126089856D01*
X178944489Y-126089851D01*
X178339396Y-125766422D01*
X177682814Y-125567250D01*
X177074597Y-125507347D01*
X177000000Y-125500000D01*
X176999999Y-125500000D01*
X176317184Y-125567250D01*
X175660602Y-125766422D01*
X175055509Y-126089851D01*
X175055502Y-126089856D01*
X174525125Y-126525125D01*
X174089856Y-127055502D01*
X174089851Y-127055509D01*
X173766422Y-127660602D01*
X173567250Y-128317184D01*
X173500000Y-128999999D01*
X162307419Y-128999999D01*
X162310499Y-128980555D01*
X162310500Y-128980547D01*
X162310500Y-128799448D01*
X162292691Y-128687015D01*
X162282171Y-128620591D01*
X162254191Y-128534476D01*
X162226212Y-128448363D01*
X162226211Y-128448360D01*
X162169103Y-128336281D01*
X162143996Y-128287006D01*
X162094935Y-128219479D01*
X162037558Y-128140505D01*
X162037554Y-128140500D01*
X161909499Y-128012445D01*
X161909494Y-128012441D01*
X161762997Y-127906006D01*
X161762996Y-127906005D01*
X161762994Y-127906004D01*
X161703645Y-127875764D01*
X161601639Y-127823788D01*
X161601636Y-127823787D01*
X161429410Y-127767829D01*
X161250551Y-127739500D01*
X161250546Y-127739500D01*
X161069454Y-127739500D01*
X161069449Y-127739500D01*
X160890589Y-127767829D01*
X160718363Y-127823787D01*
X160718360Y-127823788D01*
X160557002Y-127906006D01*
X160410505Y-128012441D01*
X160410500Y-128012445D01*
X160282445Y-128140500D01*
X160282441Y-128140505D01*
X160176006Y-128287002D01*
X160093788Y-128448360D01*
X160093787Y-128448363D01*
X160037829Y-128620589D01*
X160012473Y-128780678D01*
X159982544Y-128843813D01*
X159923232Y-128880744D01*
X159853369Y-128879746D01*
X159795137Y-128841136D01*
X159767527Y-128780678D01*
X159752691Y-128687015D01*
X159742171Y-128620591D01*
X159714191Y-128534476D01*
X159686212Y-128448363D01*
X159686211Y-128448360D01*
X159629103Y-128336281D01*
X159603996Y-128287006D01*
X159554935Y-128219479D01*
X159497558Y-128140505D01*
X159497554Y-128140500D01*
X159369499Y-128012445D01*
X159369494Y-128012441D01*
X159222997Y-127906006D01*
X159222996Y-127906005D01*
X159222994Y-127906004D01*
X159163645Y-127875764D01*
X159061639Y-127823788D01*
X159061636Y-127823787D01*
X158889410Y-127767829D01*
X158729321Y-127742473D01*
X158666186Y-127712544D01*
X158629255Y-127653232D01*
X158630253Y-127583370D01*
X158668863Y-127525137D01*
X158729321Y-127497527D01*
X158799425Y-127486422D01*
X158889409Y-127472171D01*
X159061639Y-127416211D01*
X159222994Y-127333996D01*
X159369501Y-127227553D01*
X159497553Y-127099501D01*
X159603996Y-126952994D01*
X159686211Y-126791639D01*
X159742171Y-126619409D01*
X159760550Y-126503367D01*
X159770500Y-126440551D01*
X159770500Y-126259448D01*
X159743638Y-126089856D01*
X159742171Y-126080591D01*
X159692548Y-125927865D01*
X159686212Y-125908363D01*
X159686211Y-125908360D01*
X159629283Y-125796635D01*
X159603996Y-125747006D01*
X159507158Y-125613719D01*
X159497558Y-125600505D01*
X159497554Y-125600500D01*
X159369499Y-125472445D01*
X159369494Y-125472441D01*
X159222997Y-125366006D01*
X159222996Y-125366005D01*
X159222994Y-125366004D01*
X159171300Y-125339664D01*
X159061639Y-125283788D01*
X159061636Y-125283787D01*
X158889410Y-125227829D01*
X158710551Y-125199500D01*
X158710546Y-125199500D01*
X158529454Y-125199500D01*
X158529449Y-125199500D01*
X158350589Y-125227829D01*
X158178363Y-125283787D01*
X158178360Y-125283788D01*
X158017002Y-125366006D01*
X157870505Y-125472441D01*
X157870500Y-125472445D01*
X157742445Y-125600500D01*
X157742441Y-125600505D01*
X157636006Y-125747002D01*
X157553788Y-125908360D01*
X157553787Y-125908363D01*
X157497829Y-126080589D01*
X157472473Y-126240678D01*
X157442544Y-126303813D01*
X157383232Y-126340744D01*
X157313369Y-126339746D01*
X157255137Y-126301136D01*
X157227527Y-126240678D01*
X157203638Y-126089856D01*
X157202171Y-126080591D01*
X157152548Y-125927865D01*
X157146212Y-125908363D01*
X157146211Y-125908360D01*
X157089283Y-125796635D01*
X157063996Y-125747006D01*
X156967158Y-125613719D01*
X156957558Y-125600505D01*
X156957554Y-125600500D01*
X156829499Y-125472445D01*
X156829494Y-125472441D01*
X156682997Y-125366006D01*
X156682996Y-125366005D01*
X156682994Y-125366004D01*
X156631300Y-125339664D01*
X156521639Y-125283788D01*
X156521636Y-125283787D01*
X156349410Y-125227829D01*
X156170551Y-125199500D01*
X156170546Y-125199500D01*
X155989454Y-125199500D01*
X155989449Y-125199500D01*
X155810589Y-125227829D01*
X155638363Y-125283787D01*
X155638360Y-125283788D01*
X155477002Y-125366006D01*
X155330505Y-125472441D01*
X155330500Y-125472445D01*
X155202445Y-125600500D01*
X155202441Y-125600505D01*
X155096006Y-125747002D01*
X155013788Y-125908360D01*
X155013787Y-125908363D01*
X154957829Y-126080589D01*
X154929500Y-126259448D01*
X152150500Y-126259448D01*
X152123638Y-126089856D01*
X152122171Y-126080591D01*
X152072548Y-125927865D01*
X152066212Y-125908363D01*
X152066211Y-125908360D01*
X152009283Y-125796635D01*
X151983996Y-125747006D01*
X151887158Y-125613719D01*
X151877558Y-125600505D01*
X151877554Y-125600500D01*
X151749499Y-125472445D01*
X151749494Y-125472441D01*
X151602997Y-125366006D01*
X151602996Y-125366005D01*
X151602994Y-125366004D01*
X151551300Y-125339664D01*
X151441639Y-125283788D01*
X151441636Y-125283787D01*
X151269410Y-125227829D01*
X151090551Y-125199500D01*
X151090546Y-125199500D01*
X150909454Y-125199500D01*
X150909449Y-125199500D01*
X150730589Y-125227829D01*
X150558363Y-125283787D01*
X150558360Y-125283788D01*
X150397002Y-125366006D01*
X150250505Y-125472441D01*
X150250500Y-125472445D01*
X150122445Y-125600500D01*
X150122441Y-125600505D01*
X150016006Y-125747002D01*
X149933788Y-125908360D01*
X149933787Y-125908363D01*
X149877829Y-126080589D01*
X149849500Y-126259448D01*
X132971538Y-126259448D01*
X132936281Y-126127865D01*
X132860515Y-125996635D01*
X132753365Y-125889485D01*
X132687750Y-125851602D01*
X132622136Y-125813719D01*
X132548950Y-125794109D01*
X132475766Y-125774500D01*
X132324234Y-125774500D01*
X132177863Y-125813719D01*
X132046635Y-125889485D01*
X132046632Y-125889487D01*
X131939487Y-125996632D01*
X131939485Y-125996635D01*
X131863719Y-126127863D01*
X131824500Y-126274234D01*
X128762512Y-126274234D01*
X128775499Y-126225766D01*
X128775499Y-126074234D01*
X128736280Y-125927865D01*
X128660514Y-125796635D01*
X128553364Y-125689485D01*
X128487749Y-125651602D01*
X128422135Y-125613719D01*
X128348949Y-125594109D01*
X128275765Y-125574500D01*
X128124233Y-125574500D01*
X127977862Y-125613719D01*
X127846634Y-125689485D01*
X127846631Y-125689487D01*
X127739486Y-125796632D01*
X127739484Y-125796635D01*
X127663718Y-125927863D01*
X127645292Y-125996632D01*
X127624499Y-126074234D01*
X104915272Y-126074234D01*
X104339396Y-125766422D01*
X103682814Y-125567250D01*
X103074597Y-125507347D01*
X103000000Y-125500000D01*
X102999999Y-125500000D01*
X102317184Y-125567250D01*
X101660602Y-125766422D01*
X101055509Y-126089851D01*
X101055502Y-126089856D01*
X100525125Y-126525125D01*
X100089856Y-127055502D01*
X100089851Y-127055509D01*
X99766422Y-127660602D01*
X99567250Y-128317184D01*
X99500000Y-128999999D01*
X90616329Y-128999999D01*
X90612984Y-128987514D01*
X90608966Y-128980555D01*
X90540511Y-128861987D01*
X90540506Y-128861981D01*
X90438017Y-128759492D01*
X90438011Y-128759487D01*
X90312488Y-128687016D01*
X90312489Y-128687016D01*
X90301006Y-128683939D01*
X90172475Y-128649499D01*
X90027525Y-128649499D01*
X89898993Y-128683939D01*
X89887511Y-128687016D01*
X89792000Y-128742160D01*
X89724100Y-128758633D01*
X89668000Y-128742160D01*
X89572488Y-128687016D01*
X89572489Y-128687016D01*
X89561006Y-128683939D01*
X89432475Y-128649499D01*
X89287525Y-128649499D01*
X89158993Y-128683939D01*
X89147511Y-128687016D01*
X89021988Y-128759487D01*
X89021982Y-128759492D01*
X88919493Y-128861981D01*
X88919488Y-128861987D01*
X88847017Y-128987510D01*
X88847016Y-128987514D01*
X88809500Y-129127524D01*
X87975500Y-129127524D01*
X87975500Y-129124233D01*
X87936281Y-128977864D01*
X87860515Y-128846634D01*
X87753365Y-128739484D01*
X87687750Y-128701601D01*
X87622136Y-128663718D01*
X87548950Y-128644108D01*
X87475766Y-128624499D01*
X87324234Y-128624499D01*
X87177863Y-128663718D01*
X87046635Y-128739484D01*
X87046632Y-128739486D01*
X86939487Y-128846631D01*
X86939485Y-128846634D01*
X86863719Y-128977862D01*
X86828428Y-129109573D01*
X86824500Y-129124233D01*
X84500500Y-129124233D01*
X84500500Y-122855778D01*
X87249500Y-122855778D01*
X87249500Y-123144221D01*
X87249501Y-123144238D01*
X87287149Y-123430206D01*
X87287150Y-123430211D01*
X87287151Y-123430217D01*
X87351654Y-123670945D01*
X87361809Y-123708844D01*
X87361814Y-123708860D01*
X87472191Y-123975336D01*
X87472199Y-123975352D01*
X87616420Y-124225148D01*
X87616431Y-124225164D01*
X87792024Y-124454002D01*
X87792030Y-124454009D01*
X87995990Y-124657969D01*
X87995996Y-124657974D01*
X88224844Y-124833575D01*
X88224851Y-124833579D01*
X88474647Y-124977800D01*
X88474663Y-124977808D01*
X88741139Y-125088185D01*
X88741145Y-125088186D01*
X88741155Y-125088191D01*
X89019783Y-125162849D01*
X89305772Y-125200500D01*
X89305779Y-125200500D01*
X89594221Y-125200500D01*
X89594228Y-125200500D01*
X89880217Y-125162849D01*
X90158845Y-125088191D01*
X90158857Y-125088185D01*
X90158860Y-125088185D01*
X90425336Y-124977808D01*
X90425339Y-124977806D01*
X90425345Y-124977804D01*
X90675156Y-124833575D01*
X90904004Y-124657974D01*
X91107974Y-124454004D01*
X91283575Y-124225156D01*
X91427804Y-123975345D01*
X91450338Y-123920943D01*
X133399500Y-123920943D01*
X133399500Y-124079057D01*
X133440086Y-124230524D01*
X133440423Y-124231783D01*
X133440426Y-124231790D01*
X133519475Y-124368709D01*
X133519479Y-124368714D01*
X133519480Y-124368716D01*
X133631284Y-124480520D01*
X133631286Y-124480521D01*
X133631290Y-124480524D01*
X133768209Y-124559573D01*
X133768216Y-124559577D01*
X133920943Y-124600500D01*
X133920945Y-124600500D01*
X134079055Y-124600500D01*
X134079057Y-124600500D01*
X134231784Y-124559577D01*
X134368716Y-124480520D01*
X134480520Y-124368716D01*
X134559577Y-124231784D01*
X134600500Y-124079057D01*
X134600500Y-123920943D01*
X134559577Y-123768216D01*
X134503417Y-123670943D01*
X141899500Y-123670943D01*
X141899500Y-123829057D01*
X141938696Y-123975336D01*
X141940423Y-123981783D01*
X141940426Y-123981790D01*
X142019475Y-124118709D01*
X142019479Y-124118714D01*
X142019480Y-124118716D01*
X142131284Y-124230520D01*
X142131286Y-124230521D01*
X142131290Y-124230524D01*
X142268209Y-124309573D01*
X142268216Y-124309577D01*
X142420943Y-124350500D01*
X142420945Y-124350500D01*
X142579055Y-124350500D01*
X142579057Y-124350500D01*
X142731784Y-124309577D01*
X142868716Y-124230520D01*
X142980520Y-124118716D01*
X143059577Y-123981784D01*
X143100500Y-123829057D01*
X143100500Y-123670943D01*
X143059577Y-123518216D01*
X143059573Y-123518209D01*
X142980524Y-123381290D01*
X142980518Y-123381282D01*
X142868717Y-123269481D01*
X142868709Y-123269475D01*
X142731790Y-123190426D01*
X142731786Y-123190424D01*
X142731784Y-123190423D01*
X142579057Y-123149500D01*
X142420943Y-123149500D01*
X142268216Y-123190423D01*
X142268209Y-123190426D01*
X142131290Y-123269475D01*
X142131282Y-123269481D01*
X142019481Y-123381282D01*
X142019475Y-123381290D01*
X141940426Y-123518209D01*
X141940423Y-123518216D01*
X141899500Y-123670943D01*
X134503417Y-123670943D01*
X134480520Y-123631284D01*
X134368716Y-123519480D01*
X134368714Y-123519479D01*
X134368709Y-123519475D01*
X134231790Y-123440426D01*
X134231786Y-123440424D01*
X134231784Y-123440423D01*
X134079057Y-123399500D01*
X133920943Y-123399500D01*
X133768216Y-123440423D01*
X133768209Y-123440426D01*
X133631290Y-123519475D01*
X133631282Y-123519481D01*
X133519481Y-123631282D01*
X133519475Y-123631290D01*
X133440426Y-123768209D01*
X133440423Y-123768216D01*
X133399500Y-123920943D01*
X91450338Y-123920943D01*
X91473360Y-123865364D01*
X91538185Y-123708860D01*
X91538185Y-123708857D01*
X91538191Y-123708845D01*
X91612849Y-123430217D01*
X91650500Y-123144228D01*
X91650500Y-122855772D01*
X91612849Y-122569783D01*
X91538191Y-122291155D01*
X91538186Y-122291145D01*
X91538185Y-122291139D01*
X91427808Y-122024663D01*
X91427800Y-122024647D01*
X91283579Y-121774851D01*
X91283575Y-121774844D01*
X91107974Y-121545996D01*
X91107969Y-121545990D01*
X90904009Y-121342030D01*
X90904002Y-121342024D01*
X90675164Y-121166431D01*
X90675162Y-121166429D01*
X90675156Y-121166425D01*
X90675151Y-121166422D01*
X90675148Y-121166420D01*
X90425352Y-121022199D01*
X90425336Y-121022191D01*
X90158860Y-120911814D01*
X90158848Y-120911810D01*
X90158845Y-120911809D01*
X89880217Y-120837151D01*
X89880211Y-120837150D01*
X89880206Y-120837149D01*
X89594238Y-120799501D01*
X89594233Y-120799500D01*
X89594228Y-120799500D01*
X89305772Y-120799500D01*
X89305766Y-120799500D01*
X89305761Y-120799501D01*
X89019793Y-120837149D01*
X89019786Y-120837150D01*
X89019783Y-120837151D01*
X88853087Y-120881817D01*
X88741155Y-120911809D01*
X88741139Y-120911814D01*
X88474663Y-121022191D01*
X88474647Y-121022199D01*
X88224851Y-121166420D01*
X88224835Y-121166431D01*
X87995997Y-121342024D01*
X87995990Y-121342030D01*
X87792030Y-121545990D01*
X87792024Y-121545997D01*
X87616431Y-121774835D01*
X87616420Y-121774851D01*
X87472199Y-122024647D01*
X87472191Y-122024663D01*
X87361814Y-122291139D01*
X87361809Y-122291155D01*
X87287152Y-122569780D01*
X87287149Y-122569793D01*
X87249501Y-122855761D01*
X87249500Y-122855778D01*
X84500500Y-122855778D01*
X84500500Y-120420943D01*
X165299500Y-120420943D01*
X165299500Y-120579057D01*
X165310202Y-120618995D01*
X165340423Y-120731783D01*
X165340426Y-120731790D01*
X165419475Y-120868709D01*
X165419479Y-120868714D01*
X165419480Y-120868716D01*
X165531284Y-120980520D01*
X165531286Y-120980521D01*
X165531290Y-120980524D01*
X165668209Y-121059573D01*
X165668216Y-121059577D01*
X165820943Y-121100500D01*
X165820945Y-121100500D01*
X165979055Y-121100500D01*
X165979057Y-121100500D01*
X166131784Y-121059577D01*
X166268716Y-120980520D01*
X166380520Y-120868716D01*
X166459577Y-120731784D01*
X166489799Y-120618995D01*
X176899499Y-120618995D01*
X176926418Y-120754322D01*
X176926421Y-120754332D01*
X176979221Y-120881804D01*
X176979228Y-120881817D01*
X177055885Y-120996541D01*
X177055888Y-120996545D01*
X177153454Y-121094111D01*
X177153458Y-121094114D01*
X177268182Y-121170771D01*
X177268195Y-121170778D01*
X177395667Y-121223578D01*
X177395672Y-121223580D01*
X177395676Y-121223580D01*
X177395677Y-121223581D01*
X177531004Y-121250500D01*
X177531007Y-121250500D01*
X177668995Y-121250500D01*
X177760041Y-121232389D01*
X177804328Y-121223580D01*
X177931811Y-121170775D01*
X178046542Y-121094114D01*
X178144114Y-120996542D01*
X178220775Y-120881811D01*
X178273580Y-120754328D01*
X178300500Y-120618993D01*
X178300500Y-120481007D01*
X178300500Y-120481004D01*
X178273581Y-120345677D01*
X178273580Y-120345676D01*
X178273580Y-120345672D01*
X178241494Y-120268209D01*
X178220778Y-120218195D01*
X178220771Y-120218182D01*
X178144114Y-120103458D01*
X178144111Y-120103454D01*
X178046545Y-120005888D01*
X178046541Y-120005885D01*
X177973228Y-119956898D01*
X179449500Y-119956898D01*
X179449500Y-121543102D01*
X179449847Y-121545990D01*
X179460122Y-121631561D01*
X179515639Y-121772343D01*
X179607077Y-121892922D01*
X179727656Y-121984360D01*
X179727657Y-121984360D01*
X179727658Y-121984361D01*
X179868436Y-122039877D01*
X179956898Y-122050500D01*
X179956903Y-122050500D01*
X181543097Y-122050500D01*
X181543102Y-122050500D01*
X181631564Y-122039877D01*
X181772342Y-121984361D01*
X181892922Y-121892922D01*
X181984361Y-121772342D01*
X182039877Y-121631564D01*
X182050500Y-121543102D01*
X182050500Y-119956898D01*
X182039877Y-119868436D01*
X181984361Y-119727658D01*
X181984360Y-119727657D01*
X181984360Y-119727656D01*
X181892922Y-119607077D01*
X181772343Y-119515639D01*
X181631561Y-119460122D01*
X181585926Y-119454642D01*
X181543102Y-119449500D01*
X179956898Y-119449500D01*
X179917853Y-119454188D01*
X179868438Y-119460122D01*
X179727656Y-119515639D01*
X179607077Y-119607077D01*
X179515639Y-119727656D01*
X179460122Y-119868438D01*
X179454188Y-119917853D01*
X179449500Y-119956898D01*
X177973228Y-119956898D01*
X177931817Y-119929228D01*
X177931804Y-119929221D01*
X177804332Y-119876421D01*
X177804322Y-119876418D01*
X177668995Y-119849500D01*
X177668993Y-119849500D01*
X177531007Y-119849500D01*
X177531005Y-119849500D01*
X177395677Y-119876418D01*
X177395667Y-119876421D01*
X177268195Y-119929221D01*
X177268182Y-119929228D01*
X177153458Y-120005885D01*
X177153454Y-120005888D01*
X177055888Y-120103454D01*
X177055885Y-120103458D01*
X176979228Y-120218182D01*
X176979221Y-120218195D01*
X176926421Y-120345667D01*
X176926418Y-120345677D01*
X176899500Y-120481004D01*
X176899500Y-120481007D01*
X176899500Y-120618993D01*
X176899500Y-120618995D01*
X176899499Y-120618995D01*
X166489799Y-120618995D01*
X166500500Y-120579057D01*
X166500500Y-120420943D01*
X166459577Y-120268216D01*
X166430690Y-120218182D01*
X166380524Y-120131290D01*
X166380518Y-120131282D01*
X166268717Y-120019481D01*
X166268709Y-120019475D01*
X166131790Y-119940426D01*
X166131786Y-119940424D01*
X166131784Y-119940423D01*
X165979057Y-119899500D01*
X165820943Y-119899500D01*
X165668216Y-119940423D01*
X165668209Y-119940426D01*
X165531290Y-120019475D01*
X165531282Y-120019481D01*
X165419481Y-120131282D01*
X165419475Y-120131290D01*
X165340426Y-120268209D01*
X165340423Y-120268216D01*
X165299500Y-120420943D01*
X84500500Y-120420943D01*
X84500500Y-117368995D01*
X176899499Y-117368995D01*
X176926418Y-117504322D01*
X176926421Y-117504332D01*
X176979221Y-117631804D01*
X176979228Y-117631817D01*
X177055885Y-117746541D01*
X177055888Y-117746545D01*
X177153454Y-117844111D01*
X177153458Y-117844114D01*
X177268182Y-117920771D01*
X177268195Y-117920778D01*
X177395667Y-117973578D01*
X177395672Y-117973580D01*
X177395676Y-117973580D01*
X177395677Y-117973581D01*
X177531004Y-118000500D01*
X177531007Y-118000500D01*
X177668995Y-118000500D01*
X177760041Y-117982389D01*
X177804328Y-117973580D01*
X177931811Y-117920775D01*
X178046542Y-117844114D01*
X178144114Y-117746542D01*
X178220775Y-117631811D01*
X178273580Y-117504328D01*
X178300500Y-117368993D01*
X178300500Y-117231007D01*
X178300500Y-117231004D01*
X178273581Y-117095677D01*
X178273580Y-117095676D01*
X178273580Y-117095672D01*
X178273578Y-117095667D01*
X178220778Y-116968195D01*
X178220776Y-116968191D01*
X178220775Y-116968189D01*
X178145664Y-116855778D01*
X188799500Y-116855778D01*
X188799500Y-117144221D01*
X188799501Y-117144238D01*
X188837149Y-117430206D01*
X188837150Y-117430211D01*
X188837151Y-117430217D01*
X188911809Y-117708844D01*
X188911814Y-117708860D01*
X189022191Y-117975336D01*
X189022198Y-117975349D01*
X189166420Y-118225148D01*
X189166431Y-118225164D01*
X189342024Y-118454002D01*
X189342030Y-118454009D01*
X189545990Y-118657969D01*
X189545996Y-118657974D01*
X189774844Y-118833575D01*
X189774851Y-118833579D01*
X190024647Y-118977800D01*
X190024663Y-118977808D01*
X190291139Y-119088185D01*
X190291145Y-119088186D01*
X190291155Y-119088191D01*
X190569783Y-119162849D01*
X190855772Y-119200500D01*
X190855779Y-119200500D01*
X191144221Y-119200500D01*
X191144228Y-119200500D01*
X191430217Y-119162849D01*
X191708845Y-119088191D01*
X191708857Y-119088185D01*
X191708860Y-119088185D01*
X191975336Y-118977808D01*
X191975339Y-118977806D01*
X191975345Y-118977804D01*
X192225156Y-118833575D01*
X192454004Y-118657974D01*
X192657974Y-118454004D01*
X192833575Y-118225156D01*
X192977804Y-117975345D01*
X193000408Y-117920775D01*
X193088185Y-117708860D01*
X193088185Y-117708857D01*
X193088191Y-117708845D01*
X193162849Y-117430217D01*
X193200500Y-117144228D01*
X193200500Y-116855772D01*
X193162849Y-116569783D01*
X193088191Y-116291155D01*
X193088186Y-116291145D01*
X193088185Y-116291139D01*
X192977808Y-116024663D01*
X192977800Y-116024647D01*
X192839069Y-115784360D01*
X192833575Y-115774844D01*
X192657974Y-115545996D01*
X192657969Y-115545990D01*
X192454009Y-115342030D01*
X192454002Y-115342024D01*
X192225164Y-115166431D01*
X192225162Y-115166429D01*
X192225156Y-115166425D01*
X192225151Y-115166422D01*
X192225148Y-115166420D01*
X191975352Y-115022199D01*
X191975336Y-115022191D01*
X191708860Y-114911814D01*
X191708848Y-114911810D01*
X191708845Y-114911809D01*
X191430217Y-114837151D01*
X191430211Y-114837150D01*
X191430206Y-114837149D01*
X191144238Y-114799501D01*
X191144233Y-114799500D01*
X191144228Y-114799500D01*
X190855772Y-114799500D01*
X190855766Y-114799500D01*
X190855761Y-114799501D01*
X190569793Y-114837149D01*
X190569786Y-114837150D01*
X190569783Y-114837151D01*
X190291155Y-114911809D01*
X190291139Y-114911814D01*
X190024663Y-115022191D01*
X190024647Y-115022199D01*
X189774851Y-115166420D01*
X189774835Y-115166431D01*
X189545997Y-115342024D01*
X189545990Y-115342030D01*
X189342030Y-115545990D01*
X189342024Y-115545997D01*
X189166431Y-115774835D01*
X189166420Y-115774851D01*
X189022199Y-116024647D01*
X189022191Y-116024663D01*
X188911814Y-116291139D01*
X188911809Y-116291155D01*
X188837152Y-116569780D01*
X188837149Y-116569793D01*
X188799501Y-116855761D01*
X188799500Y-116855778D01*
X178145664Y-116855778D01*
X178144114Y-116853458D01*
X178144111Y-116853454D01*
X178046545Y-116755888D01*
X178046541Y-116755885D01*
X177931817Y-116679228D01*
X177931804Y-116679221D01*
X177804332Y-116626421D01*
X177804322Y-116626418D01*
X177668995Y-116599500D01*
X177668993Y-116599500D01*
X177531007Y-116599500D01*
X177531005Y-116599500D01*
X177395677Y-116626418D01*
X177395667Y-116626421D01*
X177268195Y-116679221D01*
X177268182Y-116679228D01*
X177153458Y-116755885D01*
X177153454Y-116755888D01*
X177055888Y-116853454D01*
X177055885Y-116853458D01*
X176979228Y-116968182D01*
X176979221Y-116968195D01*
X176926421Y-117095667D01*
X176926418Y-117095677D01*
X176899500Y-117231004D01*
X176899500Y-117231007D01*
X176899500Y-117368993D01*
X176899500Y-117368995D01*
X176899499Y-117368995D01*
X84500500Y-117368995D01*
X84500500Y-113356900D01*
X89949500Y-113356900D01*
X89949500Y-115343091D01*
X89960123Y-115431562D01*
X90015639Y-115572342D01*
X90015640Y-115572344D01*
X90107077Y-115692922D01*
X90215096Y-115774835D01*
X90227658Y-115784361D01*
X90368436Y-115839876D01*
X90456901Y-115850500D01*
X92443098Y-115850499D01*
X92531564Y-115839876D01*
X92672342Y-115784361D01*
X92792922Y-115692922D01*
X92884361Y-115572342D01*
X92939876Y-115431564D01*
X92950500Y-115343099D01*
X92950499Y-113780859D01*
X104349500Y-113780859D01*
X104349500Y-115767050D01*
X104360123Y-115855521D01*
X104415639Y-115996301D01*
X104415640Y-115996303D01*
X104507077Y-116116881D01*
X104596062Y-116184360D01*
X104627658Y-116208320D01*
X104768436Y-116263835D01*
X104856901Y-116274459D01*
X106843098Y-116274458D01*
X106931564Y-116263835D01*
X107072342Y-116208320D01*
X107192922Y-116116881D01*
X107284361Y-115996301D01*
X107339876Y-115855523D01*
X107350500Y-115767058D01*
X107350499Y-113780861D01*
X107347622Y-113756900D01*
X120299500Y-113756900D01*
X120299500Y-115743091D01*
X120310123Y-115831562D01*
X120365639Y-115972342D01*
X120365640Y-115972344D01*
X120457077Y-116092922D01*
X120577655Y-116184359D01*
X120577658Y-116184361D01*
X120718436Y-116239876D01*
X120806901Y-116250500D01*
X122793098Y-116250499D01*
X122881564Y-116239876D01*
X123022342Y-116184361D01*
X123142922Y-116092922D01*
X123234361Y-115972342D01*
X123289876Y-115831564D01*
X123300500Y-115743099D01*
X123300499Y-113756902D01*
X123289876Y-113668436D01*
X123234361Y-113527658D01*
X123161091Y-113431037D01*
X123142922Y-113407077D01*
X123022344Y-113315640D01*
X123022342Y-113315639D01*
X122881564Y-113260124D01*
X122881561Y-113260123D01*
X122793099Y-113249500D01*
X120806908Y-113249500D01*
X120718437Y-113260123D01*
X120577657Y-113315639D01*
X120577655Y-113315640D01*
X120457077Y-113407077D01*
X120365640Y-113527655D01*
X120310124Y-113668437D01*
X120310123Y-113668438D01*
X120299500Y-113756900D01*
X107347622Y-113756900D01*
X107339876Y-113692395D01*
X107284361Y-113551617D01*
X107284359Y-113551614D01*
X107192922Y-113431036D01*
X107072344Y-113339599D01*
X107072342Y-113339598D01*
X106931564Y-113284083D01*
X106931561Y-113284082D01*
X106843099Y-113273459D01*
X104856908Y-113273459D01*
X104768437Y-113284082D01*
X104627657Y-113339598D01*
X104627655Y-113339599D01*
X104507077Y-113431036D01*
X104415640Y-113551614D01*
X104415639Y-113551617D01*
X104369572Y-113668438D01*
X104360124Y-113692396D01*
X104360123Y-113692397D01*
X104349500Y-113780859D01*
X92950499Y-113780859D01*
X92950499Y-113356902D01*
X92939876Y-113268436D01*
X92884361Y-113127658D01*
X92884359Y-113127655D01*
X92792922Y-113007077D01*
X92672344Y-112915640D01*
X92672342Y-112915639D01*
X92531564Y-112860124D01*
X92531561Y-112860123D01*
X92443099Y-112849500D01*
X90456908Y-112849500D01*
X90368437Y-112860123D01*
X90227657Y-112915639D01*
X90227655Y-112915640D01*
X90107077Y-113007077D01*
X90015640Y-113127655D01*
X90015639Y-113127658D01*
X89963403Y-113260123D01*
X89960124Y-113268437D01*
X89960123Y-113268438D01*
X89949500Y-113356900D01*
X84500500Y-113356900D01*
X84500500Y-111206898D01*
X135199500Y-111206898D01*
X135199500Y-112793102D01*
X135205126Y-112839954D01*
X135210122Y-112881561D01*
X135265639Y-113022343D01*
X135357077Y-113142922D01*
X135477656Y-113234360D01*
X135477657Y-113234360D01*
X135477658Y-113234361D01*
X135618436Y-113289877D01*
X135706898Y-113300500D01*
X135706903Y-113300500D01*
X137293097Y-113300500D01*
X137293102Y-113300500D01*
X137381564Y-113289877D01*
X137522342Y-113234361D01*
X137642922Y-113142922D01*
X137734361Y-113022342D01*
X137789877Y-112881564D01*
X137800500Y-112793102D01*
X137800500Y-111206898D01*
X137789877Y-111118436D01*
X137734361Y-110977658D01*
X137734360Y-110977657D01*
X137734360Y-110977656D01*
X137642922Y-110857077D01*
X137522343Y-110765639D01*
X137381561Y-110710122D01*
X137335926Y-110704642D01*
X137293102Y-110699500D01*
X135706898Y-110699500D01*
X135667853Y-110704188D01*
X135618438Y-110710122D01*
X135477656Y-110765639D01*
X135357077Y-110857077D01*
X135265639Y-110977656D01*
X135210122Y-111118438D01*
X135204188Y-111167853D01*
X135199500Y-111206898D01*
X84500500Y-111206898D01*
X84500500Y-107605778D01*
X174549500Y-107605778D01*
X174549500Y-107894221D01*
X174549501Y-107894238D01*
X174587149Y-108180206D01*
X174587150Y-108180211D01*
X174587151Y-108180217D01*
X174587152Y-108180219D01*
X174661809Y-108458844D01*
X174661814Y-108458860D01*
X174772191Y-108725336D01*
X174772199Y-108725352D01*
X174916420Y-108975148D01*
X174916431Y-108975164D01*
X175092024Y-109204002D01*
X175092030Y-109204009D01*
X175295990Y-109407969D01*
X175295996Y-109407974D01*
X175524844Y-109583575D01*
X175524851Y-109583579D01*
X175774647Y-109727800D01*
X175774663Y-109727808D01*
X176041139Y-109838185D01*
X176041145Y-109838186D01*
X176041155Y-109838191D01*
X176319783Y-109912849D01*
X176605772Y-109950500D01*
X176605779Y-109950500D01*
X176894221Y-109950500D01*
X176894228Y-109950500D01*
X177180217Y-109912849D01*
X177458845Y-109838191D01*
X177458857Y-109838185D01*
X177458860Y-109838185D01*
X177725336Y-109727808D01*
X177725339Y-109727806D01*
X177725345Y-109727804D01*
X177975156Y-109583575D01*
X178204004Y-109407974D01*
X178407974Y-109204004D01*
X178583575Y-108975156D01*
X178727804Y-108725345D01*
X178838191Y-108458845D01*
X178912849Y-108180217D01*
X178950500Y-107894228D01*
X178950500Y-107605772D01*
X178912849Y-107319783D01*
X178838191Y-107041155D01*
X178838186Y-107041145D01*
X178838185Y-107041139D01*
X178727808Y-106774663D01*
X178727800Y-106774647D01*
X178583579Y-106524851D01*
X178583575Y-106524844D01*
X178407974Y-106295996D01*
X178407969Y-106295990D01*
X178204009Y-106092030D01*
X178204002Y-106092024D01*
X177975164Y-105916431D01*
X177975162Y-105916429D01*
X177975156Y-105916425D01*
X177975151Y-105916422D01*
X177975148Y-105916420D01*
X177725352Y-105772199D01*
X177725336Y-105772191D01*
X177458860Y-105661814D01*
X177458848Y-105661810D01*
X177458845Y-105661809D01*
X177180217Y-105587151D01*
X177180211Y-105587150D01*
X177180206Y-105587149D01*
X176894238Y-105549501D01*
X176894233Y-105549500D01*
X176894228Y-105549500D01*
X176605772Y-105549500D01*
X176605766Y-105549500D01*
X176605761Y-105549501D01*
X176319793Y-105587149D01*
X176319786Y-105587150D01*
X176319783Y-105587151D01*
X176041155Y-105661809D01*
X176041139Y-105661814D01*
X175774663Y-105772191D01*
X175774647Y-105772199D01*
X175524851Y-105916420D01*
X175524835Y-105916431D01*
X175295997Y-106092024D01*
X175295990Y-106092030D01*
X175092030Y-106295990D01*
X175092024Y-106295997D01*
X174916431Y-106524835D01*
X174916420Y-106524851D01*
X174772199Y-106774647D01*
X174772191Y-106774663D01*
X174661814Y-107041139D01*
X174661809Y-107041155D01*
X174587152Y-107319780D01*
X174587149Y-107319793D01*
X174549501Y-107605761D01*
X174549500Y-107605778D01*
X84500500Y-107605778D01*
X84500500Y-100055131D01*
X97299500Y-100055131D01*
X97299500Y-103944856D01*
X97299502Y-103944882D01*
X97302413Y-103969987D01*
X97302415Y-103969991D01*
X97347793Y-104072764D01*
X97347794Y-104072765D01*
X97427235Y-104152206D01*
X97530009Y-104197585D01*
X97555135Y-104200500D01*
X101444864Y-104200499D01*
X101444879Y-104200497D01*
X101444882Y-104200497D01*
X101469987Y-104197586D01*
X101469988Y-104197585D01*
X101469991Y-104197585D01*
X101572765Y-104152206D01*
X101652206Y-104072765D01*
X101697585Y-103969991D01*
X101700500Y-103944865D01*
X101700499Y-100055136D01*
X101700499Y-100055135D01*
X101700499Y-100055131D01*
X115299500Y-100055131D01*
X115299500Y-103944856D01*
X115299502Y-103944882D01*
X115302413Y-103969987D01*
X115302415Y-103969991D01*
X115347793Y-104072764D01*
X115347794Y-104072765D01*
X115427235Y-104152206D01*
X115530009Y-104197585D01*
X115555135Y-104200500D01*
X119444864Y-104200499D01*
X119444879Y-104200497D01*
X119444882Y-104200497D01*
X119469987Y-104197586D01*
X119469988Y-104197585D01*
X119469991Y-104197585D01*
X119572765Y-104152206D01*
X119652206Y-104072765D01*
X119697585Y-103969991D01*
X119700500Y-103944865D01*
X119700499Y-100055136D01*
X119700497Y-100055117D01*
X119697586Y-100030012D01*
X119697585Y-100030010D01*
X119697585Y-100030009D01*
X119652206Y-99927235D01*
X119572765Y-99847794D01*
X119572763Y-99847793D01*
X119469992Y-99802415D01*
X119444865Y-99799500D01*
X115555143Y-99799500D01*
X115555117Y-99799502D01*
X115530012Y-99802413D01*
X115530008Y-99802415D01*
X115427235Y-99847793D01*
X115347794Y-99927234D01*
X115302415Y-100030006D01*
X115302415Y-100030008D01*
X115299500Y-100055131D01*
X101700499Y-100055131D01*
X101700499Y-100055130D01*
X101697586Y-100030012D01*
X101697585Y-100030010D01*
X101697585Y-100030009D01*
X101652206Y-99927235D01*
X101572765Y-99847794D01*
X101572763Y-99847793D01*
X101469992Y-99802415D01*
X101444865Y-99799500D01*
X97555143Y-99799500D01*
X97555117Y-99799502D01*
X97530012Y-99802413D01*
X97530008Y-99802415D01*
X97427235Y-99847793D01*
X97347794Y-99927234D01*
X97302415Y-100030006D01*
X97302415Y-100030008D01*
X97299500Y-100055131D01*
X84500500Y-100055131D01*
X84500500Y-97375131D01*
X108849500Y-97375131D01*
X108849500Y-99164856D01*
X108849502Y-99164882D01*
X108852413Y-99189987D01*
X108852415Y-99189991D01*
X108897793Y-99292764D01*
X108897794Y-99292765D01*
X108977235Y-99372206D01*
X109080009Y-99417585D01*
X109105135Y-99420500D01*
X110894864Y-99420499D01*
X110894879Y-99420497D01*
X110894882Y-99420497D01*
X110919987Y-99417586D01*
X110919988Y-99417585D01*
X110919991Y-99417585D01*
X111022765Y-99372206D01*
X111102206Y-99292765D01*
X111147585Y-99189991D01*
X111150500Y-99164865D01*
X111150499Y-97375136D01*
X111150499Y-97375135D01*
X111150499Y-97375131D01*
X126849500Y-97375131D01*
X126849500Y-99164856D01*
X126849502Y-99164882D01*
X126852413Y-99189987D01*
X126852415Y-99189991D01*
X126897793Y-99292764D01*
X126897794Y-99292765D01*
X126977235Y-99372206D01*
X127080009Y-99417585D01*
X127105135Y-99420500D01*
X128591609Y-99420499D01*
X128658648Y-99440184D01*
X128704403Y-99492987D01*
X128714347Y-99562146D01*
X128711384Y-99576588D01*
X128709493Y-99583648D01*
X128699500Y-99620943D01*
X128699500Y-99779056D01*
X128740423Y-99931783D01*
X128740426Y-99931790D01*
X128819475Y-100068709D01*
X128819479Y-100068714D01*
X128819480Y-100068716D01*
X128931284Y-100180520D01*
X128931286Y-100180521D01*
X128931290Y-100180524D01*
X129068209Y-100259573D01*
X129068216Y-100259577D01*
X129220943Y-100300500D01*
X129220945Y-100300500D01*
X129379055Y-100300500D01*
X129379057Y-100300500D01*
X129531784Y-100259577D01*
X129668716Y-100180520D01*
X129780520Y-100068716D01*
X129788363Y-100055131D01*
X133299500Y-100055131D01*
X133299500Y-103944856D01*
X133299502Y-103944882D01*
X133302413Y-103969987D01*
X133302415Y-103969991D01*
X133347793Y-104072764D01*
X133347794Y-104072765D01*
X133427235Y-104152206D01*
X133530009Y-104197585D01*
X133555135Y-104200500D01*
X137444864Y-104200499D01*
X137444879Y-104200497D01*
X137444882Y-104200497D01*
X137469987Y-104197586D01*
X137469988Y-104197585D01*
X137469991Y-104197585D01*
X137572765Y-104152206D01*
X137652206Y-104072765D01*
X137697585Y-103969991D01*
X137700500Y-103944865D01*
X137700499Y-102403030D01*
X137720184Y-102335992D01*
X137772987Y-102290237D01*
X137842146Y-102280293D01*
X137856581Y-102283254D01*
X137920943Y-102300500D01*
X137920945Y-102300500D01*
X138079055Y-102300500D01*
X138079057Y-102300500D01*
X138231784Y-102259577D01*
X138368716Y-102180520D01*
X138480520Y-102068716D01*
X138559577Y-101931784D01*
X138600500Y-101779057D01*
X138600500Y-101620943D01*
X138559577Y-101468216D01*
X138559573Y-101468209D01*
X138480524Y-101331290D01*
X138480518Y-101331282D01*
X138368717Y-101219481D01*
X138368709Y-101219475D01*
X138231790Y-101140426D01*
X138231786Y-101140424D01*
X138231784Y-101140423D01*
X138079057Y-101099500D01*
X137920943Y-101099500D01*
X137856591Y-101116742D01*
X137786742Y-101115080D01*
X137728880Y-101075917D01*
X137701376Y-101011689D01*
X137700499Y-100996968D01*
X137700499Y-100055131D01*
X151299500Y-100055131D01*
X151299500Y-103944856D01*
X151299502Y-103944882D01*
X151302413Y-103969987D01*
X151302415Y-103969991D01*
X151347793Y-104072764D01*
X151347794Y-104072765D01*
X151427235Y-104152206D01*
X151530009Y-104197585D01*
X151555135Y-104200500D01*
X155444864Y-104200499D01*
X155444879Y-104200497D01*
X155444882Y-104200497D01*
X155469987Y-104197586D01*
X155469988Y-104197585D01*
X155469991Y-104197585D01*
X155572765Y-104152206D01*
X155652206Y-104072765D01*
X155697585Y-103969991D01*
X155700500Y-103944865D01*
X155700499Y-100055136D01*
X155700497Y-100055117D01*
X155697586Y-100030012D01*
X155697585Y-100030010D01*
X155697585Y-100030009D01*
X155652206Y-99927235D01*
X155572765Y-99847794D01*
X155572763Y-99847793D01*
X155469992Y-99802415D01*
X155444865Y-99799500D01*
X151555143Y-99799500D01*
X151555117Y-99799502D01*
X151530012Y-99802413D01*
X151530008Y-99802415D01*
X151427235Y-99847793D01*
X151347794Y-99927234D01*
X151302415Y-100030006D01*
X151302415Y-100030008D01*
X151299500Y-100055131D01*
X137700499Y-100055131D01*
X137700499Y-100055130D01*
X137697586Y-100030012D01*
X137697585Y-100030010D01*
X137697585Y-100030009D01*
X137652206Y-99927235D01*
X137572765Y-99847794D01*
X137572763Y-99847793D01*
X137469992Y-99802415D01*
X137444865Y-99799500D01*
X133555143Y-99799500D01*
X133555117Y-99799502D01*
X133530012Y-99802413D01*
X133530008Y-99802415D01*
X133427235Y-99847793D01*
X133347794Y-99927234D01*
X133302415Y-100030006D01*
X133302415Y-100030008D01*
X133299500Y-100055131D01*
X129788363Y-100055131D01*
X129859577Y-99931784D01*
X129900500Y-99779057D01*
X129900500Y-99620943D01*
X129882866Y-99555131D01*
X168799500Y-99555131D01*
X168799500Y-103444856D01*
X168799502Y-103444882D01*
X168802413Y-103469987D01*
X168802415Y-103469991D01*
X168847793Y-103572764D01*
X168847794Y-103572765D01*
X168927235Y-103652206D01*
X169030009Y-103697585D01*
X169055135Y-103700500D01*
X172944864Y-103700499D01*
X172944879Y-103700497D01*
X172944882Y-103700497D01*
X172969987Y-103697586D01*
X172969988Y-103697585D01*
X172969991Y-103697585D01*
X173072765Y-103652206D01*
X173152206Y-103572765D01*
X173197585Y-103469991D01*
X173200500Y-103444865D01*
X173200499Y-99555136D01*
X173200499Y-99555135D01*
X173200499Y-99555131D01*
X178799500Y-99555131D01*
X178799500Y-103444856D01*
X178799502Y-103444882D01*
X178802413Y-103469987D01*
X178802415Y-103469991D01*
X178847793Y-103572764D01*
X178847794Y-103572765D01*
X178927235Y-103652206D01*
X179030009Y-103697585D01*
X179055135Y-103700500D01*
X182944864Y-103700499D01*
X182944879Y-103700497D01*
X182944882Y-103700497D01*
X182969987Y-103697586D01*
X182969988Y-103697585D01*
X182969991Y-103697585D01*
X183072765Y-103652206D01*
X183152206Y-103572765D01*
X183197585Y-103469991D01*
X183200500Y-103444865D01*
X183200499Y-99555136D01*
X183200497Y-99555117D01*
X183197586Y-99530012D01*
X183197585Y-99530010D01*
X183197585Y-99530009D01*
X183152206Y-99427235D01*
X183072765Y-99347794D01*
X183035387Y-99331290D01*
X182969992Y-99302415D01*
X182944865Y-99299500D01*
X179055143Y-99299500D01*
X179055117Y-99299502D01*
X179030012Y-99302413D01*
X179030008Y-99302415D01*
X178927235Y-99347793D01*
X178847794Y-99427234D01*
X178802415Y-99530006D01*
X178802415Y-99530008D01*
X178799500Y-99555131D01*
X173200499Y-99555131D01*
X173200499Y-99555130D01*
X173197586Y-99530012D01*
X173197585Y-99530010D01*
X173197585Y-99530009D01*
X173152206Y-99427235D01*
X173072765Y-99347794D01*
X173035387Y-99331290D01*
X172969992Y-99302415D01*
X172944865Y-99299500D01*
X169055143Y-99299500D01*
X169055117Y-99299502D01*
X169030012Y-99302413D01*
X169030008Y-99302415D01*
X168927235Y-99347793D01*
X168847794Y-99427234D01*
X168802415Y-99530006D01*
X168802415Y-99530008D01*
X168799500Y-99555131D01*
X129882866Y-99555131D01*
X129859577Y-99468216D01*
X129835916Y-99427234D01*
X129780524Y-99331290D01*
X129780518Y-99331282D01*
X129668717Y-99219481D01*
X129668709Y-99219475D01*
X129531790Y-99140426D01*
X129531786Y-99140424D01*
X129531784Y-99140423D01*
X129379057Y-99099500D01*
X129274499Y-99099500D01*
X129207460Y-99079815D01*
X129161705Y-99027011D01*
X129150499Y-98975500D01*
X129150499Y-97524500D01*
X129170184Y-97457461D01*
X129222988Y-97411706D01*
X129274499Y-97400500D01*
X129379055Y-97400500D01*
X129379057Y-97400500D01*
X129473736Y-97375131D01*
X144849500Y-97375131D01*
X144849500Y-99164856D01*
X144849502Y-99164882D01*
X144852413Y-99189987D01*
X144852415Y-99189991D01*
X144897793Y-99292764D01*
X144897794Y-99292765D01*
X144977235Y-99372206D01*
X145080009Y-99417585D01*
X145105135Y-99420500D01*
X146894864Y-99420499D01*
X146894879Y-99420497D01*
X146894882Y-99420497D01*
X146919987Y-99417586D01*
X146919988Y-99417585D01*
X146919991Y-99417585D01*
X147022765Y-99372206D01*
X147102206Y-99292765D01*
X147147585Y-99189991D01*
X147150500Y-99164865D01*
X147150499Y-97375136D01*
X147150499Y-97375135D01*
X147150499Y-97375131D01*
X162849500Y-97375131D01*
X162849500Y-99164856D01*
X162849502Y-99164882D01*
X162852413Y-99189987D01*
X162852415Y-99189991D01*
X162897793Y-99292764D01*
X162897794Y-99292765D01*
X162977235Y-99372206D01*
X163080009Y-99417585D01*
X163105135Y-99420500D01*
X164894864Y-99420499D01*
X164894879Y-99420497D01*
X164894882Y-99420497D01*
X164919987Y-99417586D01*
X164919988Y-99417585D01*
X164919991Y-99417585D01*
X165022765Y-99372206D01*
X165102206Y-99292765D01*
X165147585Y-99189991D01*
X165150500Y-99164865D01*
X165150499Y-97375136D01*
X165148695Y-97359577D01*
X165147586Y-97350012D01*
X165147585Y-97350010D01*
X165147585Y-97350009D01*
X165102206Y-97247235D01*
X165022765Y-97167794D01*
X164983598Y-97150500D01*
X164919992Y-97122415D01*
X164894865Y-97119500D01*
X163105143Y-97119500D01*
X163105117Y-97119502D01*
X163080012Y-97122413D01*
X163080008Y-97122415D01*
X162977235Y-97167793D01*
X162897794Y-97247234D01*
X162852415Y-97350006D01*
X162852415Y-97350008D01*
X162849500Y-97375131D01*
X147150499Y-97375131D01*
X147150499Y-97375130D01*
X147147586Y-97350012D01*
X147147585Y-97350010D01*
X147147585Y-97350009D01*
X147102206Y-97247235D01*
X147022765Y-97167794D01*
X146983598Y-97150500D01*
X146919992Y-97122415D01*
X146894865Y-97119500D01*
X145105143Y-97119500D01*
X145105117Y-97119502D01*
X145080012Y-97122413D01*
X145080008Y-97122415D01*
X144977235Y-97167793D01*
X144897794Y-97247234D01*
X144852415Y-97350006D01*
X144852415Y-97350008D01*
X144849500Y-97375131D01*
X129473736Y-97375131D01*
X129531784Y-97359577D01*
X129668716Y-97280520D01*
X129780520Y-97168716D01*
X129859577Y-97031784D01*
X129900500Y-96879057D01*
X129900500Y-96720943D01*
X129859577Y-96568216D01*
X129836248Y-96527808D01*
X129780524Y-96431290D01*
X129780518Y-96431282D01*
X129668717Y-96319481D01*
X129668709Y-96319475D01*
X129531790Y-96240426D01*
X129531786Y-96240424D01*
X129531784Y-96240423D01*
X129379057Y-96199500D01*
X129220943Y-96199500D01*
X129068216Y-96240423D01*
X129068209Y-96240426D01*
X128931290Y-96319475D01*
X128931282Y-96319481D01*
X128819481Y-96431282D01*
X128819475Y-96431290D01*
X128740426Y-96568209D01*
X128740423Y-96568216D01*
X128699500Y-96720943D01*
X128699500Y-96879058D01*
X128722101Y-96963408D01*
X128720438Y-97033257D01*
X128681275Y-97091120D01*
X128617046Y-97118623D01*
X128602326Y-97119500D01*
X127105143Y-97119500D01*
X127105117Y-97119502D01*
X127080012Y-97122413D01*
X127080008Y-97122415D01*
X126977235Y-97167793D01*
X126897794Y-97247234D01*
X126852415Y-97350006D01*
X126852415Y-97350008D01*
X126849500Y-97375131D01*
X111150499Y-97375131D01*
X111150499Y-97375130D01*
X111147586Y-97350012D01*
X111147585Y-97350010D01*
X111147585Y-97350009D01*
X111102206Y-97247235D01*
X111022765Y-97167794D01*
X110983598Y-97150500D01*
X110919992Y-97122415D01*
X110894865Y-97119500D01*
X109105143Y-97119500D01*
X109105117Y-97119502D01*
X109080012Y-97122413D01*
X109080008Y-97122415D01*
X108977235Y-97167793D01*
X108897794Y-97247234D01*
X108852415Y-97350006D01*
X108852415Y-97350008D01*
X108849500Y-97375131D01*
X84500500Y-97375131D01*
X84500500Y-94405778D01*
X87799500Y-94405778D01*
X87799500Y-94694221D01*
X87799501Y-94694238D01*
X87837149Y-94980206D01*
X87837150Y-94980211D01*
X87837151Y-94980217D01*
X87911809Y-95258844D01*
X87911814Y-95258860D01*
X88022191Y-95525336D01*
X88022199Y-95525352D01*
X88166420Y-95775148D01*
X88166431Y-95775164D01*
X88342024Y-96004002D01*
X88342030Y-96004009D01*
X88545990Y-96207969D01*
X88545996Y-96207974D01*
X88774844Y-96383575D01*
X88774851Y-96383579D01*
X89024647Y-96527800D01*
X89024663Y-96527808D01*
X89291139Y-96638185D01*
X89291145Y-96638186D01*
X89291155Y-96638191D01*
X89569783Y-96712849D01*
X89855772Y-96750500D01*
X89855779Y-96750500D01*
X90144221Y-96750500D01*
X90144228Y-96750500D01*
X90430217Y-96712849D01*
X90708845Y-96638191D01*
X90708857Y-96638185D01*
X90708860Y-96638185D01*
X90975336Y-96527808D01*
X90975339Y-96527806D01*
X90975345Y-96527804D01*
X91225156Y-96383575D01*
X91454004Y-96207974D01*
X91657974Y-96004004D01*
X91730529Y-95909448D01*
X189724500Y-95909448D01*
X189724500Y-96090551D01*
X189752829Y-96269410D01*
X189808787Y-96441636D01*
X189808788Y-96441639D01*
X189891006Y-96602997D01*
X189997441Y-96749494D01*
X189997445Y-96749499D01*
X190125500Y-96877554D01*
X190125505Y-96877558D01*
X190127570Y-96879058D01*
X190272006Y-96983996D01*
X190368686Y-97033257D01*
X190433360Y-97066211D01*
X190433363Y-97066212D01*
X190510024Y-97091120D01*
X190605591Y-97122171D01*
X190630291Y-97126083D01*
X190639406Y-97127527D01*
X190702540Y-97157457D01*
X190739471Y-97216768D01*
X190738473Y-97286631D01*
X190699863Y-97344863D01*
X190639406Y-97372473D01*
X190605589Y-97377829D01*
X190433363Y-97433787D01*
X190433360Y-97433788D01*
X190272002Y-97516006D01*
X190125505Y-97622441D01*
X190125500Y-97622445D01*
X189997445Y-97750500D01*
X189997441Y-97750505D01*
X189891006Y-97897002D01*
X189808788Y-98058360D01*
X189808787Y-98058363D01*
X189752829Y-98230589D01*
X189724500Y-98409448D01*
X189724500Y-98590551D01*
X189752829Y-98769410D01*
X189808787Y-98941636D01*
X189808788Y-98941639D01*
X189891006Y-99102997D01*
X189997441Y-99249494D01*
X189997445Y-99249499D01*
X190125500Y-99377554D01*
X190125505Y-99377558D01*
X190250277Y-99468209D01*
X190272006Y-99483996D01*
X190362305Y-99530006D01*
X190433360Y-99566211D01*
X190433363Y-99566212D01*
X190487024Y-99583647D01*
X190605591Y-99622171D01*
X190688429Y-99635291D01*
X190784449Y-99650500D01*
X190784454Y-99650500D01*
X191215551Y-99650500D01*
X191302259Y-99636765D01*
X191394409Y-99622171D01*
X191566639Y-99566211D01*
X191727994Y-99483996D01*
X191874501Y-99377553D01*
X192002553Y-99249501D01*
X192108996Y-99102994D01*
X192191211Y-98941639D01*
X192247171Y-98769409D01*
X192261765Y-98677259D01*
X192275500Y-98590551D01*
X192275500Y-98409448D01*
X192259019Y-98305397D01*
X192247171Y-98230591D01*
X192191211Y-98058361D01*
X192191211Y-98058360D01*
X192162740Y-98002484D01*
X192108996Y-97897006D01*
X192095396Y-97878287D01*
X192002558Y-97750505D01*
X192002554Y-97750500D01*
X191874499Y-97622445D01*
X191874494Y-97622441D01*
X191727997Y-97516006D01*
X191727996Y-97516005D01*
X191727994Y-97516004D01*
X191676300Y-97489664D01*
X191566639Y-97433788D01*
X191566636Y-97433787D01*
X191394410Y-97377829D01*
X191360594Y-97372473D01*
X191297459Y-97342544D01*
X191260528Y-97283232D01*
X191261526Y-97213370D01*
X191300136Y-97155137D01*
X191360594Y-97127527D01*
X191368388Y-97126292D01*
X191394409Y-97122171D01*
X191566639Y-97066211D01*
X191727994Y-96983996D01*
X191874501Y-96877553D01*
X192002553Y-96749501D01*
X192108996Y-96602994D01*
X192191211Y-96441639D01*
X192247171Y-96269409D01*
X192261765Y-96177259D01*
X192275500Y-96090551D01*
X192275500Y-95909448D01*
X192254231Y-95775165D01*
X192247171Y-95730591D01*
X192191211Y-95558361D01*
X192191211Y-95558360D01*
X192162740Y-95502484D01*
X192108996Y-95397006D01*
X192008617Y-95258845D01*
X192002558Y-95250505D01*
X192002554Y-95250500D01*
X191874499Y-95122445D01*
X191874494Y-95122441D01*
X191727997Y-95016006D01*
X191727996Y-95016005D01*
X191727994Y-95016004D01*
X191676300Y-94989664D01*
X191566639Y-94933788D01*
X191566636Y-94933787D01*
X191394410Y-94877829D01*
X191215551Y-94849500D01*
X191215546Y-94849500D01*
X190784454Y-94849500D01*
X190784449Y-94849500D01*
X190605589Y-94877829D01*
X190433363Y-94933787D01*
X190433360Y-94933788D01*
X190272002Y-95016006D01*
X190125505Y-95122441D01*
X190125500Y-95122445D01*
X189997445Y-95250500D01*
X189997441Y-95250505D01*
X189891006Y-95397002D01*
X189808788Y-95558360D01*
X189808787Y-95558363D01*
X189752829Y-95730589D01*
X189724500Y-95909448D01*
X91730529Y-95909448D01*
X91792186Y-95829096D01*
X91833568Y-95775165D01*
X91833569Y-95775164D01*
X91833575Y-95775156D01*
X91977804Y-95525345D01*
X92030964Y-95397006D01*
X92088185Y-95258860D01*
X92088185Y-95258857D01*
X92088191Y-95258845D01*
X92162849Y-94980217D01*
X92200500Y-94694228D01*
X92200500Y-94405772D01*
X92162849Y-94119783D01*
X92088191Y-93841155D01*
X92088186Y-93841145D01*
X92088185Y-93841139D01*
X91977808Y-93574663D01*
X91977800Y-93574647D01*
X91833579Y-93324851D01*
X91833575Y-93324844D01*
X91657974Y-93095996D01*
X91657969Y-93095990D01*
X91454009Y-92892030D01*
X91454002Y-92892024D01*
X91225164Y-92716431D01*
X91225162Y-92716429D01*
X91225156Y-92716425D01*
X91225151Y-92716422D01*
X91225148Y-92716420D01*
X90975352Y-92572199D01*
X90975336Y-92572191D01*
X90708860Y-92461814D01*
X90708848Y-92461810D01*
X90708845Y-92461809D01*
X90430217Y-92387151D01*
X90430211Y-92387150D01*
X90430206Y-92387149D01*
X90144238Y-92349501D01*
X90144233Y-92349500D01*
X90144228Y-92349500D01*
X89855772Y-92349500D01*
X89855766Y-92349500D01*
X89855761Y-92349501D01*
X89569793Y-92387149D01*
X89569786Y-92387150D01*
X89569783Y-92387151D01*
X89291155Y-92461809D01*
X89291139Y-92461814D01*
X89024663Y-92572191D01*
X89024647Y-92572199D01*
X88774851Y-92716420D01*
X88774835Y-92716431D01*
X88545997Y-92892024D01*
X88545990Y-92892030D01*
X88342030Y-93095990D01*
X88342024Y-93095997D01*
X88166431Y-93324835D01*
X88166420Y-93324851D01*
X88022199Y-93574647D01*
X88022191Y-93574663D01*
X87911814Y-93841139D01*
X87911809Y-93841155D01*
X87849750Y-94072765D01*
X87837152Y-94119780D01*
X87837149Y-94119793D01*
X87799501Y-94405761D01*
X87799500Y-94405778D01*
X84500500Y-94405778D01*
X84500500Y-90055131D01*
X97299500Y-90055131D01*
X97299500Y-93944856D01*
X97299502Y-93944882D01*
X97302413Y-93969987D01*
X97302415Y-93969991D01*
X97347793Y-94072764D01*
X97347794Y-94072765D01*
X97427235Y-94152206D01*
X97530009Y-94197585D01*
X97555135Y-94200500D01*
X101444864Y-94200499D01*
X101444879Y-94200497D01*
X101444882Y-94200497D01*
X101469987Y-94197586D01*
X101469988Y-94197585D01*
X101469991Y-94197585D01*
X101572765Y-94152206D01*
X101652206Y-94072765D01*
X101697585Y-93969991D01*
X101700500Y-93944865D01*
X101700499Y-90055136D01*
X101700499Y-90055135D01*
X101700499Y-90055131D01*
X115299500Y-90055131D01*
X115299500Y-93944856D01*
X115299502Y-93944882D01*
X115302413Y-93969987D01*
X115302415Y-93969991D01*
X115347793Y-94072764D01*
X115347794Y-94072765D01*
X115427235Y-94152206D01*
X115530009Y-94197585D01*
X115555135Y-94200500D01*
X119444864Y-94200499D01*
X119444879Y-94200497D01*
X119444882Y-94200497D01*
X119469987Y-94197586D01*
X119469988Y-94197585D01*
X119469991Y-94197585D01*
X119572765Y-94152206D01*
X119652206Y-94072765D01*
X119697585Y-93969991D01*
X119700500Y-93944865D01*
X119700499Y-90055136D01*
X119700499Y-90055135D01*
X119700499Y-90055131D01*
X133299500Y-90055131D01*
X133299500Y-93944856D01*
X133299502Y-93944882D01*
X133302413Y-93969987D01*
X133302415Y-93969991D01*
X133347793Y-94072764D01*
X133347794Y-94072765D01*
X133427235Y-94152206D01*
X133530009Y-94197585D01*
X133555135Y-94200500D01*
X137444864Y-94200499D01*
X137444879Y-94200497D01*
X137444882Y-94200497D01*
X137469987Y-94197586D01*
X137469988Y-94197585D01*
X137469991Y-94197585D01*
X137572765Y-94152206D01*
X137652206Y-94072765D01*
X137697585Y-93969991D01*
X137700500Y-93944865D01*
X137700499Y-90055136D01*
X137700499Y-90055135D01*
X137700499Y-90055131D01*
X151299500Y-90055131D01*
X151299500Y-93944856D01*
X151299502Y-93944882D01*
X151302413Y-93969987D01*
X151302415Y-93969991D01*
X151347793Y-94072764D01*
X151347794Y-94072765D01*
X151427235Y-94152206D01*
X151530009Y-94197585D01*
X151555135Y-94200500D01*
X155444864Y-94200499D01*
X155444879Y-94200497D01*
X155444882Y-94200497D01*
X155469987Y-94197586D01*
X155469988Y-94197585D01*
X155469991Y-94197585D01*
X155572765Y-94152206D01*
X155652206Y-94072765D01*
X155697585Y-93969991D01*
X155700500Y-93944865D01*
X155700499Y-90105131D01*
X176119500Y-90105131D01*
X176119500Y-91894856D01*
X176119502Y-91894882D01*
X176122413Y-91919987D01*
X176122415Y-91919991D01*
X176167793Y-92022764D01*
X176167794Y-92022765D01*
X176247235Y-92102206D01*
X176350009Y-92147585D01*
X176375135Y-92150500D01*
X178164864Y-92150499D01*
X178164879Y-92150497D01*
X178164882Y-92150497D01*
X178189987Y-92147586D01*
X178189988Y-92147585D01*
X178189991Y-92147585D01*
X178292765Y-92102206D01*
X178372206Y-92022765D01*
X178417585Y-91919991D01*
X178420500Y-91894865D01*
X178420499Y-90105136D01*
X178420497Y-90105117D01*
X178417586Y-90080012D01*
X178417585Y-90080010D01*
X178417585Y-90080009D01*
X178372206Y-89977235D01*
X178292765Y-89897794D01*
X178292763Y-89897793D01*
X178189992Y-89852415D01*
X178164865Y-89849500D01*
X176375143Y-89849500D01*
X176375117Y-89849502D01*
X176350012Y-89852413D01*
X176350008Y-89852415D01*
X176247235Y-89897793D01*
X176167794Y-89977234D01*
X176122415Y-90080006D01*
X176122415Y-90080008D01*
X176119500Y-90105131D01*
X155700499Y-90105131D01*
X155700499Y-90055136D01*
X155700497Y-90055117D01*
X155697586Y-90030012D01*
X155697585Y-90030010D01*
X155697585Y-90030009D01*
X155652206Y-89927235D01*
X155572765Y-89847794D01*
X155572763Y-89847793D01*
X155469992Y-89802415D01*
X155444865Y-89799500D01*
X151555143Y-89799500D01*
X151555117Y-89799502D01*
X151530012Y-89802413D01*
X151530008Y-89802415D01*
X151427235Y-89847793D01*
X151347794Y-89927234D01*
X151302415Y-90030006D01*
X151302415Y-90030008D01*
X151299500Y-90055131D01*
X137700499Y-90055131D01*
X137700499Y-90055130D01*
X137697586Y-90030012D01*
X137697585Y-90030010D01*
X137697585Y-90030009D01*
X137652206Y-89927235D01*
X137572765Y-89847794D01*
X137572763Y-89847793D01*
X137469992Y-89802415D01*
X137444865Y-89799500D01*
X133555143Y-89799500D01*
X133555117Y-89799502D01*
X133530012Y-89802413D01*
X133530008Y-89802415D01*
X133427235Y-89847793D01*
X133347794Y-89927234D01*
X133302415Y-90030006D01*
X133302415Y-90030008D01*
X133299500Y-90055131D01*
X119700499Y-90055131D01*
X119700499Y-90055130D01*
X119697586Y-90030012D01*
X119697585Y-90030010D01*
X119697585Y-90030009D01*
X119652206Y-89927235D01*
X119572765Y-89847794D01*
X119572763Y-89847793D01*
X119469992Y-89802415D01*
X119444865Y-89799500D01*
X115555143Y-89799500D01*
X115555117Y-89799502D01*
X115530012Y-89802413D01*
X115530008Y-89802415D01*
X115427235Y-89847793D01*
X115347794Y-89927234D01*
X115302415Y-90030006D01*
X115302415Y-90030008D01*
X115299500Y-90055131D01*
X101700499Y-90055131D01*
X101700499Y-90055130D01*
X101697586Y-90030012D01*
X101697585Y-90030010D01*
X101697585Y-90030009D01*
X101652206Y-89927235D01*
X101572765Y-89847794D01*
X101572763Y-89847793D01*
X101469992Y-89802415D01*
X101444865Y-89799500D01*
X97555143Y-89799500D01*
X97555117Y-89799502D01*
X97530012Y-89802413D01*
X97530008Y-89802415D01*
X97427235Y-89847793D01*
X97347794Y-89927234D01*
X97302415Y-90030006D01*
X97302415Y-90030008D01*
X97299500Y-90055131D01*
X84500500Y-90055131D01*
X84500500Y-86720943D01*
X137399500Y-86720943D01*
X137399500Y-86879056D01*
X137440423Y-87031783D01*
X137440426Y-87031790D01*
X137519475Y-87168709D01*
X137519479Y-87168714D01*
X137519480Y-87168716D01*
X137631284Y-87280520D01*
X137631286Y-87280521D01*
X137631290Y-87280524D01*
X137768209Y-87359573D01*
X137768216Y-87359577D01*
X137920943Y-87400500D01*
X137920945Y-87400500D01*
X138079055Y-87400500D01*
X138079057Y-87400500D01*
X138231784Y-87359577D01*
X138368716Y-87280520D01*
X138480520Y-87168716D01*
X138559577Y-87031784D01*
X138600500Y-86879057D01*
X138600500Y-86720943D01*
X138559577Y-86568216D01*
X138559573Y-86568209D01*
X138480524Y-86431290D01*
X138480518Y-86431282D01*
X138368717Y-86319481D01*
X138368709Y-86319475D01*
X138231790Y-86240426D01*
X138231786Y-86240424D01*
X138231784Y-86240423D01*
X138079057Y-86199500D01*
X137920943Y-86199500D01*
X137768216Y-86240423D01*
X137768209Y-86240426D01*
X137631290Y-86319475D01*
X137631282Y-86319481D01*
X137519481Y-86431282D01*
X137519475Y-86431290D01*
X137440426Y-86568209D01*
X137440423Y-86568216D01*
X137399500Y-86720943D01*
X84500500Y-86720943D01*
X84500500Y-83605778D01*
X87799500Y-83605778D01*
X87799500Y-83894221D01*
X87799501Y-83894238D01*
X87837149Y-84180206D01*
X87837150Y-84180211D01*
X87837151Y-84180217D01*
X87910512Y-84454004D01*
X87911809Y-84458844D01*
X87911814Y-84458860D01*
X88022191Y-84725336D01*
X88022199Y-84725352D01*
X88166420Y-84975148D01*
X88166431Y-84975164D01*
X88342024Y-85204002D01*
X88342030Y-85204009D01*
X88545990Y-85407969D01*
X88545996Y-85407974D01*
X88774844Y-85583575D01*
X88774851Y-85583579D01*
X89024647Y-85727800D01*
X89024663Y-85727808D01*
X89291139Y-85838185D01*
X89291145Y-85838186D01*
X89291155Y-85838191D01*
X89569783Y-85912849D01*
X89855772Y-85950500D01*
X89855779Y-85950500D01*
X90144221Y-85950500D01*
X90144228Y-85950500D01*
X90430217Y-85912849D01*
X90708845Y-85838191D01*
X90708857Y-85838185D01*
X90708860Y-85838185D01*
X90975336Y-85727808D01*
X90975339Y-85727806D01*
X90975345Y-85727804D01*
X91225156Y-85583575D01*
X91454004Y-85407974D01*
X91657974Y-85204004D01*
X91833575Y-84975156D01*
X91977804Y-84725345D01*
X92005710Y-84657975D01*
X92088185Y-84458860D01*
X92088185Y-84458857D01*
X92088191Y-84458845D01*
X92162849Y-84180217D01*
X92200500Y-83894228D01*
X92200500Y-83605772D01*
X92177388Y-83430217D01*
X92176144Y-83420767D01*
X92174654Y-83409448D01*
X101769500Y-83409448D01*
X101769500Y-83590551D01*
X101797829Y-83769410D01*
X101853787Y-83941636D01*
X101853788Y-83941639D01*
X101936006Y-84102997D01*
X102042441Y-84249494D01*
X102042445Y-84249499D01*
X102170500Y-84377554D01*
X102170505Y-84377558D01*
X102275725Y-84454004D01*
X102317006Y-84483996D01*
X102422484Y-84537740D01*
X102478360Y-84566211D01*
X102478363Y-84566212D01*
X102564476Y-84594191D01*
X102650591Y-84622171D01*
X102733429Y-84635291D01*
X102829449Y-84650500D01*
X102829454Y-84650500D01*
X103010551Y-84650500D01*
X103097259Y-84636765D01*
X103189409Y-84622171D01*
X103361639Y-84566211D01*
X103522994Y-84483996D01*
X103669501Y-84377553D01*
X103797553Y-84249501D01*
X103903996Y-84102994D01*
X103986211Y-83941639D01*
X104042171Y-83769409D01*
X104056765Y-83677259D01*
X104070500Y-83590551D01*
X104070500Y-83409448D01*
X106849500Y-83409448D01*
X106849500Y-83590551D01*
X106877829Y-83769410D01*
X106933787Y-83941636D01*
X106933788Y-83941639D01*
X107016006Y-84102997D01*
X107122441Y-84249494D01*
X107122445Y-84249499D01*
X107250500Y-84377554D01*
X107250505Y-84377558D01*
X107355725Y-84454004D01*
X107397006Y-84483996D01*
X107502484Y-84537740D01*
X107558360Y-84566211D01*
X107558363Y-84566212D01*
X107644476Y-84594191D01*
X107730591Y-84622171D01*
X107813429Y-84635291D01*
X107909449Y-84650500D01*
X107909454Y-84650500D01*
X108090551Y-84650500D01*
X108177259Y-84636765D01*
X108269409Y-84622171D01*
X108441639Y-84566211D01*
X108602994Y-84483996D01*
X108749501Y-84377553D01*
X108877553Y-84249501D01*
X108983996Y-84102994D01*
X109066211Y-83941639D01*
X109122171Y-83769409D01*
X109136422Y-83679425D01*
X109147527Y-83609321D01*
X109177456Y-83546186D01*
X109236768Y-83509255D01*
X109306630Y-83510253D01*
X109364863Y-83548863D01*
X109392473Y-83609321D01*
X109417829Y-83769410D01*
X109473787Y-83941636D01*
X109473788Y-83941639D01*
X109556006Y-84102997D01*
X109662441Y-84249494D01*
X109662445Y-84249499D01*
X109790500Y-84377554D01*
X109790505Y-84377558D01*
X109895725Y-84454004D01*
X109937006Y-84483996D01*
X110042484Y-84537740D01*
X110098360Y-84566211D01*
X110098363Y-84566212D01*
X110184476Y-84594191D01*
X110270591Y-84622171D01*
X110353429Y-84635291D01*
X110449449Y-84650500D01*
X110449454Y-84650500D01*
X110630551Y-84650500D01*
X110717259Y-84636765D01*
X110809409Y-84622171D01*
X110981639Y-84566211D01*
X111142994Y-84483996D01*
X111289501Y-84377553D01*
X111417553Y-84249501D01*
X111523996Y-84102994D01*
X111606211Y-83941639D01*
X111662171Y-83769409D01*
X111676765Y-83677259D01*
X111690500Y-83590551D01*
X111690500Y-83409448D01*
X125269500Y-83409448D01*
X125269500Y-83590551D01*
X125297829Y-83769410D01*
X125353787Y-83941636D01*
X125353788Y-83941639D01*
X125436006Y-84102997D01*
X125542441Y-84249494D01*
X125542445Y-84249499D01*
X125670500Y-84377554D01*
X125670505Y-84377558D01*
X125775725Y-84454004D01*
X125817006Y-84483996D01*
X125922484Y-84537740D01*
X125978360Y-84566211D01*
X125978363Y-84566212D01*
X126064476Y-84594191D01*
X126150591Y-84622171D01*
X126233429Y-84635291D01*
X126329449Y-84650500D01*
X126329454Y-84650500D01*
X126510551Y-84650500D01*
X126597259Y-84636765D01*
X126689409Y-84622171D01*
X126861639Y-84566211D01*
X127022994Y-84483996D01*
X127169501Y-84377553D01*
X127297553Y-84249501D01*
X127403996Y-84102994D01*
X127486211Y-83941639D01*
X127542171Y-83769409D01*
X127556765Y-83677259D01*
X127570500Y-83590551D01*
X127570500Y-83409448D01*
X130349500Y-83409448D01*
X130349500Y-83590551D01*
X130377829Y-83769410D01*
X130433787Y-83941636D01*
X130433788Y-83941639D01*
X130516006Y-84102997D01*
X130622441Y-84249494D01*
X130622445Y-84249499D01*
X130750500Y-84377554D01*
X130750505Y-84377558D01*
X130855725Y-84454004D01*
X130897006Y-84483996D01*
X131002484Y-84537740D01*
X131058360Y-84566211D01*
X131058363Y-84566212D01*
X131144476Y-84594191D01*
X131230591Y-84622171D01*
X131313429Y-84635291D01*
X131409449Y-84650500D01*
X131409454Y-84650500D01*
X131590551Y-84650500D01*
X131677259Y-84636765D01*
X131769409Y-84622171D01*
X131941639Y-84566211D01*
X132102994Y-84483996D01*
X132249501Y-84377553D01*
X132377553Y-84249501D01*
X132483996Y-84102994D01*
X132566211Y-83941639D01*
X132622171Y-83769409D01*
X132636422Y-83679425D01*
X132647527Y-83609321D01*
X132677456Y-83546186D01*
X132736768Y-83509255D01*
X132806630Y-83510253D01*
X132864863Y-83548863D01*
X132892473Y-83609321D01*
X132917829Y-83769410D01*
X132973787Y-83941636D01*
X132973788Y-83941639D01*
X133056006Y-84102997D01*
X133162441Y-84249494D01*
X133162445Y-84249499D01*
X133290500Y-84377554D01*
X133290505Y-84377558D01*
X133395725Y-84454004D01*
X133437006Y-84483996D01*
X133542484Y-84537740D01*
X133598360Y-84566211D01*
X133598363Y-84566212D01*
X133684476Y-84594191D01*
X133770591Y-84622171D01*
X133853429Y-84635291D01*
X133949449Y-84650500D01*
X133949454Y-84650500D01*
X134130551Y-84650500D01*
X134217259Y-84636765D01*
X134309409Y-84622171D01*
X134481639Y-84566211D01*
X134642994Y-84483996D01*
X134789501Y-84377553D01*
X134917553Y-84249501D01*
X135023996Y-84102994D01*
X135106211Y-83941639D01*
X135162171Y-83769409D01*
X135176765Y-83677259D01*
X135190500Y-83590551D01*
X135190500Y-83409448D01*
X149769500Y-83409448D01*
X149769500Y-83590551D01*
X149797829Y-83769410D01*
X149853787Y-83941636D01*
X149853788Y-83941639D01*
X149936006Y-84102997D01*
X150042441Y-84249494D01*
X150042445Y-84249499D01*
X150170500Y-84377554D01*
X150170505Y-84377558D01*
X150275725Y-84454004D01*
X150317006Y-84483996D01*
X150422484Y-84537740D01*
X150478360Y-84566211D01*
X150478363Y-84566212D01*
X150564476Y-84594191D01*
X150650591Y-84622171D01*
X150733429Y-84635291D01*
X150829449Y-84650500D01*
X150829454Y-84650500D01*
X151010551Y-84650500D01*
X151097259Y-84636765D01*
X151189409Y-84622171D01*
X151361639Y-84566211D01*
X151522994Y-84483996D01*
X151669501Y-84377553D01*
X151797553Y-84249501D01*
X151903996Y-84102994D01*
X151986211Y-83941639D01*
X152042171Y-83769409D01*
X152056765Y-83677259D01*
X152070500Y-83590551D01*
X152070500Y-83409448D01*
X154849500Y-83409448D01*
X154849500Y-83590551D01*
X154877829Y-83769410D01*
X154933787Y-83941636D01*
X154933788Y-83941639D01*
X155016006Y-84102997D01*
X155122441Y-84249494D01*
X155122445Y-84249499D01*
X155250500Y-84377554D01*
X155250505Y-84377558D01*
X155355725Y-84454004D01*
X155397006Y-84483996D01*
X155502484Y-84537740D01*
X155558360Y-84566211D01*
X155558363Y-84566212D01*
X155644476Y-84594191D01*
X155730591Y-84622171D01*
X155813429Y-84635291D01*
X155909449Y-84650500D01*
X155909454Y-84650500D01*
X156090551Y-84650500D01*
X156177259Y-84636765D01*
X156269409Y-84622171D01*
X156441639Y-84566211D01*
X156602994Y-84483996D01*
X156749501Y-84377553D01*
X156877553Y-84249501D01*
X156983996Y-84102994D01*
X157066211Y-83941639D01*
X157122171Y-83769409D01*
X157136422Y-83679425D01*
X157147527Y-83609321D01*
X157177456Y-83546186D01*
X157236768Y-83509255D01*
X157306630Y-83510253D01*
X157364863Y-83548863D01*
X157392473Y-83609321D01*
X157417829Y-83769410D01*
X157473787Y-83941636D01*
X157473788Y-83941639D01*
X157556006Y-84102997D01*
X157662441Y-84249494D01*
X157662445Y-84249499D01*
X157790500Y-84377554D01*
X157790505Y-84377558D01*
X157895725Y-84454004D01*
X157937006Y-84483996D01*
X158042484Y-84537740D01*
X158098360Y-84566211D01*
X158098363Y-84566212D01*
X158184476Y-84594191D01*
X158270591Y-84622171D01*
X158353429Y-84635291D01*
X158449449Y-84650500D01*
X158449454Y-84650500D01*
X158630551Y-84650500D01*
X158717259Y-84636765D01*
X158809409Y-84622171D01*
X158981639Y-84566211D01*
X159142994Y-84483996D01*
X159289501Y-84377553D01*
X159417553Y-84249501D01*
X159523996Y-84102994D01*
X159606211Y-83941639D01*
X159662171Y-83769409D01*
X159676765Y-83677259D01*
X159690500Y-83590551D01*
X159690500Y-83409448D01*
X159674019Y-83305397D01*
X159662171Y-83230591D01*
X159606211Y-83058361D01*
X159606211Y-83058360D01*
X159529602Y-82908008D01*
X159523994Y-82897002D01*
X159494043Y-82855778D01*
X190299500Y-82855778D01*
X190299500Y-83144221D01*
X190299501Y-83144238D01*
X190337149Y-83430206D01*
X190337150Y-83430211D01*
X190337151Y-83430217D01*
X190385142Y-83609321D01*
X190411809Y-83708844D01*
X190411814Y-83708860D01*
X190522191Y-83975336D01*
X190522199Y-83975352D01*
X190666420Y-84225148D01*
X190666431Y-84225164D01*
X190842024Y-84454002D01*
X190842030Y-84454009D01*
X191045990Y-84657969D01*
X191045996Y-84657974D01*
X191274844Y-84833575D01*
X191274851Y-84833579D01*
X191524647Y-84977800D01*
X191524663Y-84977808D01*
X191791139Y-85088185D01*
X191791145Y-85088186D01*
X191791155Y-85088191D01*
X192069783Y-85162849D01*
X192355772Y-85200500D01*
X192355779Y-85200500D01*
X192644221Y-85200500D01*
X192644228Y-85200500D01*
X192930217Y-85162849D01*
X193208845Y-85088191D01*
X193208857Y-85088185D01*
X193208860Y-85088185D01*
X193475336Y-84977808D01*
X193475339Y-84977806D01*
X193475345Y-84977804D01*
X193479932Y-84975156D01*
X193491039Y-84968742D01*
X193725156Y-84833575D01*
X193954004Y-84657974D01*
X194157974Y-84454004D01*
X194333575Y-84225156D01*
X194477804Y-83975345D01*
X194491766Y-83941639D01*
X194588185Y-83708860D01*
X194588185Y-83708857D01*
X194588191Y-83708845D01*
X194662849Y-83430217D01*
X194700500Y-83144228D01*
X194700500Y-82855772D01*
X194662849Y-82569783D01*
X194588191Y-82291155D01*
X194588186Y-82291145D01*
X194588185Y-82291139D01*
X194477808Y-82024663D01*
X194477800Y-82024647D01*
X194333579Y-81774851D01*
X194333575Y-81774844D01*
X194183341Y-81579055D01*
X194157975Y-81545997D01*
X194157969Y-81545990D01*
X193954009Y-81342030D01*
X193954002Y-81342024D01*
X193725164Y-81166431D01*
X193725162Y-81166429D01*
X193725156Y-81166425D01*
X193725151Y-81166422D01*
X193725148Y-81166420D01*
X193475352Y-81022199D01*
X193475336Y-81022191D01*
X193208860Y-80911814D01*
X193208848Y-80911810D01*
X193208845Y-80911809D01*
X192930217Y-80837151D01*
X192930211Y-80837150D01*
X192930206Y-80837149D01*
X192644238Y-80799501D01*
X192644233Y-80799500D01*
X192644228Y-80799500D01*
X192355772Y-80799500D01*
X192355766Y-80799500D01*
X192355761Y-80799501D01*
X192069793Y-80837149D01*
X192069786Y-80837150D01*
X192069783Y-80837151D01*
X191837093Y-80899500D01*
X191791155Y-80911809D01*
X191791139Y-80911814D01*
X191524663Y-81022191D01*
X191524647Y-81022199D01*
X191274851Y-81166420D01*
X191274835Y-81166431D01*
X191045997Y-81342024D01*
X191045990Y-81342030D01*
X190842030Y-81545990D01*
X190842024Y-81545997D01*
X190666431Y-81774835D01*
X190666420Y-81774851D01*
X190522199Y-82024647D01*
X190522191Y-82024663D01*
X190411814Y-82291139D01*
X190411809Y-82291155D01*
X190349191Y-82524851D01*
X190337152Y-82569780D01*
X190337149Y-82569793D01*
X190299501Y-82855761D01*
X190299500Y-82855778D01*
X159494043Y-82855778D01*
X159417558Y-82750505D01*
X159417554Y-82750500D01*
X159289499Y-82622445D01*
X159289494Y-82622441D01*
X159142997Y-82516006D01*
X159142996Y-82516005D01*
X159142994Y-82516004D01*
X159091300Y-82489664D01*
X158981639Y-82433788D01*
X158981636Y-82433787D01*
X158809410Y-82377829D01*
X158630551Y-82349500D01*
X158630546Y-82349500D01*
X158449454Y-82349500D01*
X158449449Y-82349500D01*
X158270589Y-82377829D01*
X158098363Y-82433787D01*
X158098360Y-82433788D01*
X157937002Y-82516006D01*
X157790505Y-82622441D01*
X157790500Y-82622445D01*
X157662445Y-82750500D01*
X157662441Y-82750505D01*
X157556006Y-82897002D01*
X157473788Y-83058360D01*
X157473787Y-83058363D01*
X157417829Y-83230589D01*
X157392473Y-83390678D01*
X157362544Y-83453813D01*
X157303232Y-83490744D01*
X157233369Y-83489746D01*
X157175137Y-83451136D01*
X157147527Y-83390678D01*
X157133740Y-83303639D01*
X157122171Y-83230591D01*
X157066211Y-83058361D01*
X157066211Y-83058360D01*
X157037740Y-83002484D01*
X156983996Y-82897006D01*
X156954030Y-82855761D01*
X156877558Y-82750505D01*
X156877554Y-82750500D01*
X156749499Y-82622445D01*
X156749494Y-82622441D01*
X156602997Y-82516006D01*
X156602996Y-82516005D01*
X156602994Y-82516004D01*
X156551300Y-82489664D01*
X156441639Y-82433788D01*
X156441636Y-82433787D01*
X156269410Y-82377829D01*
X156090551Y-82349500D01*
X156090546Y-82349500D01*
X155909454Y-82349500D01*
X155909449Y-82349500D01*
X155730589Y-82377829D01*
X155558363Y-82433787D01*
X155558360Y-82433788D01*
X155397002Y-82516006D01*
X155250505Y-82622441D01*
X155250500Y-82622445D01*
X155122445Y-82750500D01*
X155122441Y-82750505D01*
X155016006Y-82897002D01*
X154933788Y-83058360D01*
X154933787Y-83058363D01*
X154877829Y-83230589D01*
X154849500Y-83409448D01*
X152070500Y-83409448D01*
X152054019Y-83305397D01*
X152042171Y-83230591D01*
X151986211Y-83058361D01*
X151986211Y-83058360D01*
X151957740Y-83002484D01*
X151903996Y-82897006D01*
X151874030Y-82855761D01*
X151797558Y-82750505D01*
X151797554Y-82750500D01*
X151669499Y-82622445D01*
X151669494Y-82622441D01*
X151522997Y-82516006D01*
X151522996Y-82516005D01*
X151522994Y-82516004D01*
X151471300Y-82489664D01*
X151361639Y-82433788D01*
X151361636Y-82433787D01*
X151189410Y-82377829D01*
X151010551Y-82349500D01*
X151010546Y-82349500D01*
X150829454Y-82349500D01*
X150829449Y-82349500D01*
X150650589Y-82377829D01*
X150478363Y-82433787D01*
X150478360Y-82433788D01*
X150317002Y-82516006D01*
X150170505Y-82622441D01*
X150170500Y-82622445D01*
X150042445Y-82750500D01*
X150042441Y-82750505D01*
X149936006Y-82897002D01*
X149853788Y-83058360D01*
X149853787Y-83058363D01*
X149797829Y-83230589D01*
X149769500Y-83409448D01*
X135190500Y-83409448D01*
X135174019Y-83305397D01*
X135162171Y-83230591D01*
X135106211Y-83058361D01*
X135106211Y-83058360D01*
X135077740Y-83002484D01*
X135023996Y-82897006D01*
X134994030Y-82855761D01*
X134917558Y-82750505D01*
X134917554Y-82750500D01*
X134789499Y-82622445D01*
X134789494Y-82622441D01*
X134642997Y-82516006D01*
X134642996Y-82516005D01*
X134642994Y-82516004D01*
X134591300Y-82489664D01*
X134481639Y-82433788D01*
X134481636Y-82433787D01*
X134309410Y-82377829D01*
X134130551Y-82349500D01*
X134130546Y-82349500D01*
X133949454Y-82349500D01*
X133949449Y-82349500D01*
X133770589Y-82377829D01*
X133598363Y-82433787D01*
X133598360Y-82433788D01*
X133437002Y-82516006D01*
X133290505Y-82622441D01*
X133290500Y-82622445D01*
X133162445Y-82750500D01*
X133162441Y-82750505D01*
X133056006Y-82897002D01*
X132973788Y-83058360D01*
X132973787Y-83058363D01*
X132917829Y-83230589D01*
X132892473Y-83390678D01*
X132862544Y-83453813D01*
X132803232Y-83490744D01*
X132733369Y-83489746D01*
X132675137Y-83451136D01*
X132647527Y-83390678D01*
X132633740Y-83303639D01*
X132622171Y-83230591D01*
X132566211Y-83058361D01*
X132566211Y-83058360D01*
X132537740Y-83002484D01*
X132483996Y-82897006D01*
X132454030Y-82855761D01*
X132377558Y-82750505D01*
X132377554Y-82750500D01*
X132249499Y-82622445D01*
X132249494Y-82622441D01*
X132102997Y-82516006D01*
X132102996Y-82516005D01*
X132102994Y-82516004D01*
X132051300Y-82489664D01*
X131941639Y-82433788D01*
X131941636Y-82433787D01*
X131769410Y-82377829D01*
X131590551Y-82349500D01*
X131590546Y-82349500D01*
X131409454Y-82349500D01*
X131409449Y-82349500D01*
X131230589Y-82377829D01*
X131058363Y-82433787D01*
X131058360Y-82433788D01*
X130897002Y-82516006D01*
X130750505Y-82622441D01*
X130750500Y-82622445D01*
X130622445Y-82750500D01*
X130622441Y-82750505D01*
X130516006Y-82897002D01*
X130433788Y-83058360D01*
X130433787Y-83058363D01*
X130377829Y-83230589D01*
X130349500Y-83409448D01*
X127570500Y-83409448D01*
X127554019Y-83305397D01*
X127542171Y-83230591D01*
X127486211Y-83058361D01*
X127486211Y-83058360D01*
X127457740Y-83002484D01*
X127403996Y-82897006D01*
X127374030Y-82855761D01*
X127297558Y-82750505D01*
X127297554Y-82750500D01*
X127169499Y-82622445D01*
X127169494Y-82622441D01*
X127022997Y-82516006D01*
X127022996Y-82516005D01*
X127022994Y-82516004D01*
X126971300Y-82489664D01*
X126861639Y-82433788D01*
X126861636Y-82433787D01*
X126689410Y-82377829D01*
X126510551Y-82349500D01*
X126510546Y-82349500D01*
X126329454Y-82349500D01*
X126329449Y-82349500D01*
X126150589Y-82377829D01*
X125978363Y-82433787D01*
X125978360Y-82433788D01*
X125817002Y-82516006D01*
X125670505Y-82622441D01*
X125670500Y-82622445D01*
X125542445Y-82750500D01*
X125542441Y-82750505D01*
X125436006Y-82897002D01*
X125353788Y-83058360D01*
X125353787Y-83058363D01*
X125297829Y-83230589D01*
X125269500Y-83409448D01*
X111690500Y-83409448D01*
X111674019Y-83305397D01*
X111662171Y-83230591D01*
X111606211Y-83058361D01*
X111606211Y-83058360D01*
X111577740Y-83002484D01*
X111523996Y-82897006D01*
X111494030Y-82855761D01*
X111417558Y-82750505D01*
X111417554Y-82750500D01*
X111289499Y-82622445D01*
X111289494Y-82622441D01*
X111142997Y-82516006D01*
X111142996Y-82516005D01*
X111142994Y-82516004D01*
X111091300Y-82489664D01*
X110981639Y-82433788D01*
X110981636Y-82433787D01*
X110809410Y-82377829D01*
X110630551Y-82349500D01*
X110630546Y-82349500D01*
X110449454Y-82349500D01*
X110449449Y-82349500D01*
X110270589Y-82377829D01*
X110098363Y-82433787D01*
X110098360Y-82433788D01*
X109937002Y-82516006D01*
X109790505Y-82622441D01*
X109790500Y-82622445D01*
X109662445Y-82750500D01*
X109662441Y-82750505D01*
X109556006Y-82897002D01*
X109473788Y-83058360D01*
X109473787Y-83058363D01*
X109417829Y-83230589D01*
X109392473Y-83390678D01*
X109362544Y-83453813D01*
X109303232Y-83490744D01*
X109233369Y-83489746D01*
X109175137Y-83451136D01*
X109147527Y-83390678D01*
X109133740Y-83303639D01*
X109122171Y-83230591D01*
X109066211Y-83058361D01*
X109066211Y-83058360D01*
X109037740Y-83002484D01*
X108983996Y-82897006D01*
X108954030Y-82855761D01*
X108877558Y-82750505D01*
X108877554Y-82750500D01*
X108749499Y-82622445D01*
X108749494Y-82622441D01*
X108602997Y-82516006D01*
X108602996Y-82516005D01*
X108602994Y-82516004D01*
X108551300Y-82489664D01*
X108441639Y-82433788D01*
X108441636Y-82433787D01*
X108269410Y-82377829D01*
X108090551Y-82349500D01*
X108090546Y-82349500D01*
X107909454Y-82349500D01*
X107909449Y-82349500D01*
X107730589Y-82377829D01*
X107558363Y-82433787D01*
X107558360Y-82433788D01*
X107397002Y-82516006D01*
X107250505Y-82622441D01*
X107250500Y-82622445D01*
X107122445Y-82750500D01*
X107122441Y-82750505D01*
X107016006Y-82897002D01*
X106933788Y-83058360D01*
X106933787Y-83058363D01*
X106877829Y-83230589D01*
X106849500Y-83409448D01*
X104070500Y-83409448D01*
X104054019Y-83305397D01*
X104042171Y-83230591D01*
X103986211Y-83058361D01*
X103986211Y-83058360D01*
X103957740Y-83002484D01*
X103903996Y-82897006D01*
X103874030Y-82855761D01*
X103797558Y-82750505D01*
X103797554Y-82750500D01*
X103669499Y-82622445D01*
X103669494Y-82622441D01*
X103522997Y-82516006D01*
X103522996Y-82516005D01*
X103522994Y-82516004D01*
X103471300Y-82489664D01*
X103361639Y-82433788D01*
X103361636Y-82433787D01*
X103189410Y-82377829D01*
X103010551Y-82349500D01*
X103010546Y-82349500D01*
X102829454Y-82349500D01*
X102829449Y-82349500D01*
X102650589Y-82377829D01*
X102478363Y-82433787D01*
X102478360Y-82433788D01*
X102317002Y-82516006D01*
X102170505Y-82622441D01*
X102170500Y-82622445D01*
X102042445Y-82750500D01*
X102042441Y-82750505D01*
X101936006Y-82897002D01*
X101853788Y-83058360D01*
X101853787Y-83058363D01*
X101797829Y-83230589D01*
X101769500Y-83409448D01*
X92174654Y-83409448D01*
X92172182Y-83390678D01*
X92162849Y-83319783D01*
X92088191Y-83041155D01*
X92088186Y-83041145D01*
X92088185Y-83041139D01*
X91977808Y-82774663D01*
X91977800Y-82774647D01*
X91833579Y-82524851D01*
X91833575Y-82524844D01*
X91657974Y-82295996D01*
X91657969Y-82295990D01*
X91454009Y-82092030D01*
X91454002Y-82092024D01*
X91225164Y-81916431D01*
X91225162Y-81916429D01*
X91225156Y-81916425D01*
X91225151Y-81916422D01*
X91225148Y-81916420D01*
X90975352Y-81772199D01*
X90975336Y-81772191D01*
X90708860Y-81661814D01*
X90708848Y-81661810D01*
X90708845Y-81661809D01*
X90430217Y-81587151D01*
X90430211Y-81587150D01*
X90430206Y-81587149D01*
X90144238Y-81549501D01*
X90144233Y-81549500D01*
X90144228Y-81549500D01*
X89855772Y-81549500D01*
X89855766Y-81549500D01*
X89855761Y-81549501D01*
X89569793Y-81587149D01*
X89569786Y-81587150D01*
X89569783Y-81587151D01*
X89291155Y-81661809D01*
X89291139Y-81661814D01*
X89024663Y-81772191D01*
X89024647Y-81772199D01*
X88774851Y-81916420D01*
X88774835Y-81916431D01*
X88545997Y-82092024D01*
X88545990Y-82092030D01*
X88342030Y-82295990D01*
X88342024Y-82295997D01*
X88166431Y-82524835D01*
X88166420Y-82524851D01*
X88022199Y-82774647D01*
X88022191Y-82774663D01*
X87911814Y-83041139D01*
X87911809Y-83041155D01*
X87861051Y-83230589D01*
X87837152Y-83319780D01*
X87837149Y-83319793D01*
X87799501Y-83605761D01*
X87799500Y-83605778D01*
X84500500Y-83605778D01*
X84500500Y-81420943D01*
X158649500Y-81420943D01*
X158649500Y-81579057D01*
X158671674Y-81661809D01*
X158690423Y-81731783D01*
X158690426Y-81731790D01*
X158769475Y-81868709D01*
X158769479Y-81868714D01*
X158769480Y-81868716D01*
X158881284Y-81980520D01*
X158881286Y-81980521D01*
X158881290Y-81980524D01*
X159018209Y-82059573D01*
X159018216Y-82059577D01*
X159170943Y-82100500D01*
X159170945Y-82100500D01*
X159329055Y-82100500D01*
X159329057Y-82100500D01*
X159481784Y-82059577D01*
X159618716Y-81980520D01*
X159730520Y-81868716D01*
X159809577Y-81731784D01*
X159850500Y-81579057D01*
X159850500Y-81420943D01*
X159809577Y-81268216D01*
X159750812Y-81166431D01*
X159730524Y-81131290D01*
X159730518Y-81131282D01*
X159618717Y-81019481D01*
X159618709Y-81019475D01*
X159481790Y-80940426D01*
X159481786Y-80940424D01*
X159481784Y-80940423D01*
X159329057Y-80899500D01*
X159170943Y-80899500D01*
X159018216Y-80940423D01*
X159018209Y-80940426D01*
X158881290Y-81019475D01*
X158881282Y-81019481D01*
X158769481Y-81131282D01*
X158769475Y-81131290D01*
X158690426Y-81268209D01*
X158690423Y-81268216D01*
X158649500Y-81420943D01*
X84500500Y-81420943D01*
X84500500Y-79006900D01*
X175249500Y-79006900D01*
X175249500Y-80993091D01*
X175260123Y-81081562D01*
X175315639Y-81222342D01*
X175315640Y-81222344D01*
X175407077Y-81342922D01*
X175509966Y-81420945D01*
X175527658Y-81434361D01*
X175668436Y-81489876D01*
X175756901Y-81500500D01*
X177743098Y-81500499D01*
X177831564Y-81489876D01*
X177972342Y-81434361D01*
X178092922Y-81342922D01*
X178184361Y-81222342D01*
X178239876Y-81081564D01*
X178250500Y-80993099D01*
X178250499Y-79006902D01*
X178239876Y-78918436D01*
X178184361Y-78777658D01*
X178184359Y-78777655D01*
X178092922Y-78657077D01*
X177972344Y-78565640D01*
X177972342Y-78565639D01*
X177831564Y-78510124D01*
X177831561Y-78510123D01*
X177743099Y-78499500D01*
X175756908Y-78499500D01*
X175668437Y-78510123D01*
X175527657Y-78565639D01*
X175527655Y-78565640D01*
X175407077Y-78657077D01*
X175315640Y-78777655D01*
X175260124Y-78918437D01*
X175260123Y-78918438D01*
X175249500Y-79006900D01*
X84500500Y-79006900D01*
X84500500Y-77520943D01*
X158649500Y-77520943D01*
X158649500Y-77679056D01*
X158690423Y-77831783D01*
X158690426Y-77831790D01*
X158769475Y-77968709D01*
X158769479Y-77968714D01*
X158769480Y-77968716D01*
X158881284Y-78080520D01*
X158881286Y-78080521D01*
X158881290Y-78080524D01*
X159018209Y-78159573D01*
X159018216Y-78159577D01*
X159170943Y-78200500D01*
X159170945Y-78200500D01*
X159329055Y-78200500D01*
X159329057Y-78200500D01*
X159481784Y-78159577D01*
X159618716Y-78080520D01*
X159730520Y-77968716D01*
X159809577Y-77831784D01*
X159850500Y-77679057D01*
X159850500Y-77520943D01*
X159809577Y-77368216D01*
X159809573Y-77368209D01*
X159730524Y-77231290D01*
X159730518Y-77231282D01*
X159618717Y-77119481D01*
X159618709Y-77119475D01*
X159481790Y-77040426D01*
X159481786Y-77040424D01*
X159481784Y-77040423D01*
X159329057Y-76999500D01*
X159170943Y-76999500D01*
X159018216Y-77040423D01*
X159018209Y-77040426D01*
X158881290Y-77119475D01*
X158881282Y-77119481D01*
X158769481Y-77231282D01*
X158769475Y-77231290D01*
X158690426Y-77368209D01*
X158690423Y-77368216D01*
X158649500Y-77520943D01*
X84500500Y-77520943D01*
X84500500Y-74120943D01*
X129629499Y-74120943D01*
X129629499Y-74279056D01*
X129670422Y-74431783D01*
X129670425Y-74431790D01*
X129749474Y-74568709D01*
X129749478Y-74568714D01*
X129749479Y-74568716D01*
X129861283Y-74680520D01*
X129861285Y-74680521D01*
X129861289Y-74680524D01*
X129998208Y-74759573D01*
X129998215Y-74759577D01*
X130150942Y-74800500D01*
X130150944Y-74800500D01*
X130309054Y-74800500D01*
X130309056Y-74800500D01*
X130461783Y-74759577D01*
X130598715Y-74680520D01*
X130710519Y-74568716D01*
X130789576Y-74431784D01*
X130830499Y-74279057D01*
X130830499Y-74120943D01*
X130789576Y-73968216D01*
X130789572Y-73968209D01*
X130710523Y-73831290D01*
X130710517Y-73831282D01*
X130598716Y-73719481D01*
X130598708Y-73719475D01*
X130461789Y-73640426D01*
X130461785Y-73640424D01*
X130461783Y-73640423D01*
X130309056Y-73599500D01*
X130150942Y-73599500D01*
X129998215Y-73640423D01*
X129998208Y-73640426D01*
X129861289Y-73719475D01*
X129861281Y-73719481D01*
X129749480Y-73831282D01*
X129749474Y-73831290D01*
X129670425Y-73968209D01*
X129670422Y-73968216D01*
X129629499Y-74120943D01*
X84500500Y-74120943D01*
X84500500Y-68320943D01*
X137399500Y-68320943D01*
X137399500Y-68479057D01*
X137423767Y-68569620D01*
X137440423Y-68631783D01*
X137440426Y-68631790D01*
X137519475Y-68768709D01*
X137519479Y-68768714D01*
X137519480Y-68768716D01*
X137631284Y-68880520D01*
X137631286Y-68880521D01*
X137631290Y-68880524D01*
X137655044Y-68894238D01*
X137768216Y-68959577D01*
X137920943Y-69000500D01*
X137920945Y-69000500D01*
X138079055Y-69000500D01*
X138079057Y-69000500D01*
X138231784Y-68959577D01*
X138368716Y-68880520D01*
X138480520Y-68768716D01*
X138559577Y-68631784D01*
X138566545Y-68605778D01*
X188799500Y-68605778D01*
X188799500Y-68894221D01*
X188799501Y-68894238D01*
X188837149Y-69180206D01*
X188837150Y-69180211D01*
X188837151Y-69180217D01*
X188837152Y-69180219D01*
X188911809Y-69458844D01*
X188911814Y-69458860D01*
X189022191Y-69725336D01*
X189022199Y-69725352D01*
X189166420Y-69975148D01*
X189166431Y-69975164D01*
X189342024Y-70204002D01*
X189342030Y-70204009D01*
X189545990Y-70407969D01*
X189545996Y-70407974D01*
X189774844Y-70583575D01*
X189774851Y-70583579D01*
X190024647Y-70727800D01*
X190024663Y-70727808D01*
X190291139Y-70838185D01*
X190291145Y-70838186D01*
X190291155Y-70838191D01*
X190569783Y-70912849D01*
X190855772Y-70950500D01*
X190855779Y-70950500D01*
X191144221Y-70950500D01*
X191144228Y-70950500D01*
X191430217Y-70912849D01*
X191708845Y-70838191D01*
X191708857Y-70838185D01*
X191708860Y-70838185D01*
X191975336Y-70727808D01*
X191975339Y-70727806D01*
X191975345Y-70727804D01*
X192225156Y-70583575D01*
X192454004Y-70407974D01*
X192657974Y-70204004D01*
X192833575Y-69975156D01*
X192977804Y-69725345D01*
X193088191Y-69458845D01*
X193162849Y-69180217D01*
X193200500Y-68894228D01*
X193200500Y-68605772D01*
X193162849Y-68319783D01*
X193088191Y-68041155D01*
X193088186Y-68041145D01*
X193088185Y-68041139D01*
X192977808Y-67774663D01*
X192977800Y-67774647D01*
X192833579Y-67524851D01*
X192833575Y-67524844D01*
X192657974Y-67295996D01*
X192657969Y-67295990D01*
X192454009Y-67092030D01*
X192454002Y-67092024D01*
X192225164Y-66916431D01*
X192225162Y-66916429D01*
X192225156Y-66916425D01*
X192225151Y-66916422D01*
X192225148Y-66916420D01*
X191975352Y-66772199D01*
X191975336Y-66772191D01*
X191708860Y-66661814D01*
X191708848Y-66661810D01*
X191708845Y-66661809D01*
X191430217Y-66587151D01*
X191430211Y-66587150D01*
X191430206Y-66587149D01*
X191144238Y-66549501D01*
X191144233Y-66549500D01*
X191144228Y-66549500D01*
X190855772Y-66549500D01*
X190855766Y-66549500D01*
X190855761Y-66549501D01*
X190569793Y-66587149D01*
X190569786Y-66587150D01*
X190569783Y-66587151D01*
X190405084Y-66631282D01*
X190291155Y-66661809D01*
X190291139Y-66661814D01*
X190024663Y-66772191D01*
X190024647Y-66772199D01*
X189774851Y-66916420D01*
X189774835Y-66916431D01*
X189545997Y-67092024D01*
X189545990Y-67092030D01*
X189342030Y-67295990D01*
X189342024Y-67295997D01*
X189166431Y-67524835D01*
X189166420Y-67524851D01*
X189022199Y-67774647D01*
X189022191Y-67774663D01*
X188911814Y-68041139D01*
X188911809Y-68041155D01*
X188837152Y-68319780D01*
X188837149Y-68319793D01*
X188799501Y-68605761D01*
X188799500Y-68605778D01*
X138566545Y-68605778D01*
X138600500Y-68479057D01*
X138600500Y-68320943D01*
X138559577Y-68168216D01*
X138486210Y-68041139D01*
X138480524Y-68031290D01*
X138480518Y-68031282D01*
X138368717Y-67919481D01*
X138368709Y-67919475D01*
X138231790Y-67840426D01*
X138231786Y-67840424D01*
X138231784Y-67840423D01*
X138079057Y-67799500D01*
X137920943Y-67799500D01*
X137768216Y-67840423D01*
X137768209Y-67840426D01*
X137631290Y-67919475D01*
X137631282Y-67919481D01*
X137519481Y-68031282D01*
X137519475Y-68031290D01*
X137440426Y-68168209D01*
X137440423Y-68168216D01*
X137399500Y-68320943D01*
X84500500Y-68320943D01*
X84500500Y-62410097D01*
X87449500Y-62410097D01*
X87449500Y-65589885D01*
X87449501Y-65589903D01*
X87455804Y-65702158D01*
X87455805Y-65702165D01*
X87505971Y-65967299D01*
X87505973Y-65967309D01*
X87566948Y-66141565D01*
X87595102Y-66222025D01*
X87710530Y-66440426D01*
X87721196Y-66460606D01*
X87721199Y-66460612D01*
X87881444Y-66677736D01*
X88072263Y-66868555D01*
X88137124Y-66916425D01*
X88289390Y-67028802D01*
X88527975Y-67154898D01*
X88782690Y-67244026D01*
X88782700Y-67244028D01*
X88915266Y-67269111D01*
X89047843Y-67294196D01*
X89160095Y-67300500D01*
X92339904Y-67300499D01*
X92452157Y-67294196D01*
X92717310Y-67244026D01*
X92972025Y-67154898D01*
X93210610Y-67028802D01*
X93356754Y-66920943D01*
X110649500Y-66920943D01*
X110649500Y-67079057D01*
X110669822Y-67154898D01*
X110690423Y-67231783D01*
X110690426Y-67231790D01*
X110769475Y-67368709D01*
X110769479Y-67368714D01*
X110769480Y-67368716D01*
X110881284Y-67480520D01*
X110881286Y-67480521D01*
X110881290Y-67480524D01*
X110958056Y-67524844D01*
X111018216Y-67559577D01*
X111170943Y-67600500D01*
X111170945Y-67600500D01*
X111329055Y-67600500D01*
X111329057Y-67600500D01*
X111481784Y-67559577D01*
X111618716Y-67480520D01*
X111730520Y-67368716D01*
X111809577Y-67231784D01*
X111850500Y-67079057D01*
X111850500Y-66920943D01*
X111809577Y-66768216D01*
X111809573Y-66768209D01*
X111730524Y-66631290D01*
X111730518Y-66631282D01*
X111618717Y-66519481D01*
X111618709Y-66519475D01*
X111481790Y-66440426D01*
X111481786Y-66440424D01*
X111481784Y-66440423D01*
X111329057Y-66399500D01*
X111170943Y-66399500D01*
X111018216Y-66440423D01*
X111018209Y-66440426D01*
X110881290Y-66519475D01*
X110881282Y-66519481D01*
X110769481Y-66631282D01*
X110769475Y-66631290D01*
X110690426Y-66768209D01*
X110690423Y-66768216D01*
X110649500Y-66920943D01*
X93356754Y-66920943D01*
X93427737Y-66868555D01*
X93618555Y-66677737D01*
X93778802Y-66460610D01*
X93904898Y-66222025D01*
X93994026Y-65967310D01*
X94044196Y-65702157D01*
X94050500Y-65589905D01*
X94050499Y-62999999D01*
X99500000Y-62999999D01*
X99567250Y-63682814D01*
X99766422Y-64339396D01*
X100089851Y-64944489D01*
X100089856Y-64944496D01*
X100525125Y-65474873D01*
X101055502Y-65910142D01*
X101055509Y-65910147D01*
X101660602Y-66233576D01*
X101660604Y-66233576D01*
X101660607Y-66233578D01*
X102317183Y-66432748D01*
X102317182Y-66432748D01*
X102384434Y-66439371D01*
X103000000Y-66500000D01*
X103682816Y-66432748D01*
X104339392Y-66233578D01*
X104339396Y-66233576D01*
X104944489Y-65910147D01*
X104944496Y-65910142D01*
X105334709Y-65589903D01*
X105474873Y-65474873D01*
X105910143Y-64944495D01*
X105910143Y-64944493D01*
X105910147Y-64944489D01*
X106233576Y-64339396D01*
X106233576Y-64339395D01*
X106233578Y-64339392D01*
X106432748Y-63682816D01*
X106500000Y-63000000D01*
X106500000Y-62999999D01*
X173500000Y-62999999D01*
X173567250Y-63682814D01*
X173766422Y-64339396D01*
X174089851Y-64944489D01*
X174089856Y-64944496D01*
X174525125Y-65474873D01*
X175055502Y-65910142D01*
X175055509Y-65910147D01*
X175660602Y-66233576D01*
X175660604Y-66233576D01*
X175660607Y-66233578D01*
X176317183Y-66432748D01*
X176317182Y-66432748D01*
X176384434Y-66439371D01*
X177000000Y-66500000D01*
X177682816Y-66432748D01*
X178339392Y-66233578D01*
X178339396Y-66233576D01*
X178944489Y-65910147D01*
X178944496Y-65910142D01*
X179334709Y-65589903D01*
X179474873Y-65474873D01*
X179910143Y-64944495D01*
X179910143Y-64944493D01*
X179910147Y-64944489D01*
X180233576Y-64339396D01*
X180233576Y-64339395D01*
X180233578Y-64339392D01*
X180432748Y-63682816D01*
X180500000Y-63000000D01*
X180432748Y-62317183D01*
X180233578Y-61660607D01*
X180233576Y-61660604D01*
X180233576Y-61660602D01*
X179910147Y-61055509D01*
X179910142Y-61055502D01*
X179474873Y-60525125D01*
X178944496Y-60089856D01*
X178944489Y-60089851D01*
X178339396Y-59766422D01*
X177682814Y-59567250D01*
X177074597Y-59507347D01*
X177000000Y-59500000D01*
X176999999Y-59500000D01*
X176317184Y-59567250D01*
X175660602Y-59766422D01*
X175055509Y-60089851D01*
X175055502Y-60089856D01*
X174525125Y-60525125D01*
X174089856Y-61055502D01*
X174089851Y-61055509D01*
X173766422Y-61660602D01*
X173567250Y-62317184D01*
X173500000Y-62999999D01*
X106500000Y-62999999D01*
X106432748Y-62317183D01*
X106233578Y-61660607D01*
X106233576Y-61660604D01*
X106233576Y-61660602D01*
X105910146Y-61055509D01*
X105910142Y-61055502D01*
X105855933Y-60989448D01*
X128849500Y-60989448D01*
X128849500Y-61170551D01*
X128877829Y-61349410D01*
X128933787Y-61521636D01*
X128933788Y-61521639D01*
X129016006Y-61682997D01*
X129122441Y-61829494D01*
X129122445Y-61829499D01*
X129250500Y-61957554D01*
X129250505Y-61957558D01*
X129378287Y-62050396D01*
X129397006Y-62063996D01*
X129502484Y-62117740D01*
X129558360Y-62146211D01*
X129558363Y-62146212D01*
X129644476Y-62174191D01*
X129730591Y-62202171D01*
X129813429Y-62215291D01*
X129909449Y-62230500D01*
X129909454Y-62230500D01*
X130090551Y-62230500D01*
X130177259Y-62216765D01*
X130269409Y-62202171D01*
X130441639Y-62146211D01*
X130602994Y-62063996D01*
X130749501Y-61957553D01*
X130877553Y-61829501D01*
X130983996Y-61682994D01*
X131066211Y-61521639D01*
X131122171Y-61349409D01*
X131136765Y-61257259D01*
X131150500Y-61170551D01*
X131150500Y-60989448D01*
X131127637Y-60845102D01*
X131122171Y-60810591D01*
X131066211Y-60638361D01*
X131066211Y-60638360D01*
X131037740Y-60582484D01*
X130983996Y-60477006D01*
X130877553Y-60330499D01*
X130853954Y-60306900D01*
X163499500Y-60306900D01*
X163499500Y-62293091D01*
X163510123Y-62381562D01*
X163565639Y-62522342D01*
X163565640Y-62522344D01*
X163657077Y-62642922D01*
X163777655Y-62734359D01*
X163777658Y-62734361D01*
X163918436Y-62789876D01*
X164006901Y-62800500D01*
X165993098Y-62800499D01*
X166081564Y-62789876D01*
X166222342Y-62734361D01*
X166342922Y-62642922D01*
X166434361Y-62522342D01*
X166489876Y-62381564D01*
X166500500Y-62293099D01*
X166500499Y-60306902D01*
X166489876Y-60218436D01*
X166434361Y-60077658D01*
X166434359Y-60077655D01*
X166342922Y-59957077D01*
X166222344Y-59865640D01*
X166222342Y-59865639D01*
X166081564Y-59810124D01*
X166081561Y-59810123D01*
X165993099Y-59799500D01*
X164006908Y-59799500D01*
X163918437Y-59810123D01*
X163777657Y-59865639D01*
X163777655Y-59865640D01*
X163657077Y-59957077D01*
X163565640Y-60077655D01*
X163510124Y-60218437D01*
X163510123Y-60218438D01*
X163499500Y-60306900D01*
X130853954Y-60306900D01*
X130749501Y-60202447D01*
X130749499Y-60202445D01*
X130749494Y-60202441D01*
X130602997Y-60096006D01*
X130602996Y-60096005D01*
X130602994Y-60096004D01*
X130549431Y-60068712D01*
X130441639Y-60013788D01*
X130441636Y-60013787D01*
X130269410Y-59957829D01*
X130090551Y-59929500D01*
X130090546Y-59929500D01*
X129909454Y-59929500D01*
X129909449Y-59929500D01*
X129730589Y-59957829D01*
X129558363Y-60013787D01*
X129558360Y-60013788D01*
X129397002Y-60096006D01*
X129250505Y-60202441D01*
X129250500Y-60202445D01*
X129122445Y-60330500D01*
X129122441Y-60330505D01*
X129016006Y-60477002D01*
X128933788Y-60638360D01*
X128933787Y-60638363D01*
X128877829Y-60810589D01*
X128849500Y-60989448D01*
X105855933Y-60989448D01*
X105474873Y-60525125D01*
X104944496Y-60089856D01*
X104944489Y-60089851D01*
X104339396Y-59766422D01*
X103682814Y-59567250D01*
X103074597Y-59507347D01*
X103000000Y-59500000D01*
X102999999Y-59500000D01*
X102317184Y-59567250D01*
X101660602Y-59766422D01*
X101055509Y-60089851D01*
X101055502Y-60089856D01*
X100525125Y-60525125D01*
X100089856Y-61055502D01*
X100089851Y-61055509D01*
X99766422Y-61660602D01*
X99567250Y-62317184D01*
X99500000Y-62999999D01*
X94050499Y-62999999D01*
X94050499Y-62410096D01*
X94044196Y-62297843D01*
X94007391Y-62103330D01*
X93994028Y-62032700D01*
X93994026Y-62032690D01*
X93967735Y-61957554D01*
X93904898Y-61777975D01*
X93778802Y-61539390D01*
X93618555Y-61322263D01*
X93427737Y-61131445D01*
X93427736Y-61131444D01*
X93210612Y-60971199D01*
X93210606Y-60971196D01*
X92972027Y-60845103D01*
X92972026Y-60845102D01*
X92972025Y-60845102D01*
X92873392Y-60810589D01*
X92717309Y-60755973D01*
X92717299Y-60755971D01*
X92452166Y-60705805D01*
X92452159Y-60705804D01*
X92433448Y-60704753D01*
X92339905Y-60699500D01*
X92339895Y-60699500D01*
X89160114Y-60699500D01*
X89160096Y-60699501D01*
X89047841Y-60705804D01*
X89047834Y-60705805D01*
X88782700Y-60755971D01*
X88782690Y-60755973D01*
X88527972Y-60845103D01*
X88289393Y-60971196D01*
X88289387Y-60971199D01*
X88072263Y-61131444D01*
X87881444Y-61322263D01*
X87721199Y-61539387D01*
X87721196Y-61539393D01*
X87595103Y-61777972D01*
X87505973Y-62032690D01*
X87505971Y-62032700D01*
X87455805Y-62297833D01*
X87455804Y-62297840D01*
X87449500Y-62410097D01*
X84500500Y-62410097D01*
X84500500Y-56637860D01*
X87449500Y-56637860D01*
X87449500Y-56962139D01*
X87481284Y-57284857D01*
X87481287Y-57284874D01*
X87544545Y-57602902D01*
X87544548Y-57602913D01*
X87589191Y-57750084D01*
X87638686Y-57913246D01*
X87734480Y-58144514D01*
X87762786Y-58212849D01*
X87762788Y-58212854D01*
X87915646Y-58498830D01*
X87915657Y-58498848D01*
X88095811Y-58768467D01*
X88095821Y-58768481D01*
X88301546Y-59019158D01*
X88530841Y-59248453D01*
X88530846Y-59248457D01*
X88530847Y-59248458D01*
X88781524Y-59454183D01*
X89051158Y-59634347D01*
X89051167Y-59634352D01*
X89051169Y-59634353D01*
X89337145Y-59787211D01*
X89337147Y-59787211D01*
X89337153Y-59787215D01*
X89636754Y-59911314D01*
X89947077Y-60005449D01*
X89947083Y-60005450D01*
X89947086Y-60005451D01*
X89947097Y-60005454D01*
X90146528Y-60045122D01*
X90265132Y-60068714D01*
X90587857Y-60100500D01*
X90587860Y-60100500D01*
X90912140Y-60100500D01*
X90912143Y-60100500D01*
X91234868Y-60068714D01*
X91392295Y-60037399D01*
X91552902Y-60005454D01*
X91552913Y-60005451D01*
X91552913Y-60005450D01*
X91552923Y-60005449D01*
X91863246Y-59911314D01*
X92162847Y-59787215D01*
X92448842Y-59634347D01*
X92718476Y-59454183D01*
X92969153Y-59248458D01*
X93198458Y-59019153D01*
X93404183Y-58768476D01*
X93584347Y-58498842D01*
X93737215Y-58212847D01*
X93861314Y-57913246D01*
X93955449Y-57602923D01*
X93955451Y-57602913D01*
X93955454Y-57602902D01*
X93987399Y-57442295D01*
X94018714Y-57284868D01*
X94050500Y-56962143D01*
X94050500Y-56637857D01*
X94018714Y-56315132D01*
X93985967Y-56150500D01*
X93955454Y-55997097D01*
X93955451Y-55997086D01*
X93955450Y-55997083D01*
X93955449Y-55997077D01*
X93861314Y-55686754D01*
X93785048Y-55502631D01*
X97199500Y-55502631D01*
X97199500Y-57497356D01*
X97199502Y-57497382D01*
X97202413Y-57522487D01*
X97202415Y-57522491D01*
X97247793Y-57625264D01*
X97247794Y-57625265D01*
X97327235Y-57704706D01*
X97430009Y-57750085D01*
X97455135Y-57753000D01*
X99544864Y-57752999D01*
X99544879Y-57752997D01*
X99544882Y-57752997D01*
X99569987Y-57750086D01*
X99569988Y-57750085D01*
X99569991Y-57750085D01*
X99672765Y-57704706D01*
X99752206Y-57625265D01*
X99797585Y-57522491D01*
X99800500Y-57497365D01*
X99800499Y-57372714D01*
X99820183Y-57305677D01*
X99872987Y-57259922D01*
X99942145Y-57249978D01*
X100005701Y-57279002D01*
X100024815Y-57299828D01*
X100029065Y-57305677D01*
X100036765Y-57316275D01*
X100176225Y-57455735D01*
X100335785Y-57571662D01*
X100440985Y-57625264D01*
X100511517Y-57661202D01*
X100605301Y-57691674D01*
X100699088Y-57722147D01*
X100789307Y-57736436D01*
X100893882Y-57753000D01*
X100893887Y-57753000D01*
X101186118Y-57753000D01*
X101280552Y-57738042D01*
X101380912Y-57722147D01*
X101568485Y-57661201D01*
X101744215Y-57571662D01*
X101903775Y-57455735D01*
X102043235Y-57316275D01*
X102159162Y-57156715D01*
X102248701Y-56980985D01*
X102309647Y-56793412D01*
X102334284Y-56637860D01*
X102340500Y-56598618D01*
X102340500Y-56401381D01*
X102310752Y-56213566D01*
X102309647Y-56206588D01*
X102290476Y-56147585D01*
X102256012Y-56041513D01*
X102248701Y-56019016D01*
X102248701Y-56019015D01*
X102242528Y-56006900D01*
X111499500Y-56006900D01*
X111499500Y-57993091D01*
X111510123Y-58081562D01*
X111565639Y-58222342D01*
X111565640Y-58222344D01*
X111657077Y-58342922D01*
X111719908Y-58390568D01*
X111777658Y-58434361D01*
X111918436Y-58489876D01*
X112006901Y-58500500D01*
X113993098Y-58500499D01*
X114081564Y-58489876D01*
X114222342Y-58434361D01*
X114342922Y-58342922D01*
X114434361Y-58222342D01*
X114489876Y-58081564D01*
X114500500Y-57993099D01*
X114500499Y-56881902D01*
X116499500Y-56881902D01*
X116499500Y-57118097D01*
X116536446Y-57351368D01*
X116609433Y-57575996D01*
X116699622Y-57753000D01*
X116716657Y-57786433D01*
X116855483Y-57977510D01*
X117022490Y-58144517D01*
X117213567Y-58283343D01*
X117312991Y-58334002D01*
X117424003Y-58390566D01*
X117424005Y-58390566D01*
X117424008Y-58390568D01*
X117544412Y-58429689D01*
X117648631Y-58463553D01*
X117881903Y-58500500D01*
X117881908Y-58500500D01*
X118118097Y-58500500D01*
X118351368Y-58463553D01*
X118441211Y-58434361D01*
X118575992Y-58390568D01*
X118786433Y-58283343D01*
X118977510Y-58144517D01*
X119144517Y-57977510D01*
X119283343Y-57786433D01*
X119390568Y-57575992D01*
X119463553Y-57351368D01*
X119474085Y-57284874D01*
X119500500Y-57118097D01*
X119500500Y-56881902D01*
X119463553Y-56648631D01*
X119390566Y-56424003D01*
X119283342Y-56213566D01*
X119278271Y-56206586D01*
X119144517Y-56022490D01*
X118977510Y-55855483D01*
X118786433Y-55716657D01*
X118785548Y-55716206D01*
X118575996Y-55609433D01*
X118351368Y-55536446D01*
X118118097Y-55499500D01*
X118118092Y-55499500D01*
X117881908Y-55499500D01*
X117881903Y-55499500D01*
X117648631Y-55536446D01*
X117424003Y-55609433D01*
X117213566Y-55716657D01*
X117104550Y-55795862D01*
X117022490Y-55855483D01*
X117022488Y-55855485D01*
X117022487Y-55855485D01*
X116855485Y-56022487D01*
X116855485Y-56022488D01*
X116855483Y-56022490D01*
X116841662Y-56041513D01*
X116716657Y-56213566D01*
X116609433Y-56424003D01*
X116536446Y-56648631D01*
X116499500Y-56881902D01*
X114500499Y-56881902D01*
X114500499Y-56006902D01*
X114489876Y-55918436D01*
X114434361Y-55777658D01*
X114407955Y-55742836D01*
X114342922Y-55657077D01*
X114222344Y-55565640D01*
X114222342Y-55565639D01*
X114081564Y-55510124D01*
X114081561Y-55510123D01*
X113993099Y-55499500D01*
X112006908Y-55499500D01*
X111918437Y-55510123D01*
X111777657Y-55565639D01*
X111777655Y-55565640D01*
X111657077Y-55657077D01*
X111565640Y-55777655D01*
X111565639Y-55777658D01*
X111519413Y-55894882D01*
X111510124Y-55918437D01*
X111510123Y-55918438D01*
X111499500Y-56006900D01*
X102242528Y-56006900D01*
X102159162Y-55843285D01*
X102043235Y-55683725D01*
X101903775Y-55544265D01*
X101744215Y-55428338D01*
X101663385Y-55387153D01*
X101568482Y-55338797D01*
X101380913Y-55277853D01*
X101186118Y-55247000D01*
X101186113Y-55247000D01*
X100893887Y-55247000D01*
X100893882Y-55247000D01*
X100699086Y-55277853D01*
X100511517Y-55338797D01*
X100335784Y-55428338D01*
X100176222Y-55544267D01*
X100036767Y-55683722D01*
X100036762Y-55683728D01*
X100024815Y-55700172D01*
X99969485Y-55742836D01*
X99899871Y-55748814D01*
X99838077Y-55716206D01*
X99803721Y-55655367D01*
X99800499Y-55627284D01*
X99800499Y-55502643D01*
X99800499Y-55502636D01*
X99800497Y-55502617D01*
X99797586Y-55477512D01*
X99797585Y-55477510D01*
X99797585Y-55477509D01*
X99752206Y-55374735D01*
X99672765Y-55295294D01*
X99633265Y-55277853D01*
X99569992Y-55249915D01*
X99544865Y-55247000D01*
X97455143Y-55247000D01*
X97455117Y-55247002D01*
X97430012Y-55249913D01*
X97430008Y-55249915D01*
X97327235Y-55295293D01*
X97247794Y-55374734D01*
X97202415Y-55477506D01*
X97202415Y-55477508D01*
X97199500Y-55502631D01*
X93785048Y-55502631D01*
X93737215Y-55387153D01*
X93730577Y-55374735D01*
X93584353Y-55101169D01*
X93584352Y-55101167D01*
X93584347Y-55101158D01*
X93404183Y-54831524D01*
X93198458Y-54580847D01*
X93198457Y-54580846D01*
X93198453Y-54580841D01*
X92969158Y-54351546D01*
X92781339Y-54197407D01*
X92718479Y-54145819D01*
X92718467Y-54145811D01*
X92657585Y-54105131D01*
X122849500Y-54105131D01*
X122849500Y-55894856D01*
X122849502Y-55894882D01*
X122852413Y-55919987D01*
X122852415Y-55919991D01*
X122897793Y-56022764D01*
X122897794Y-56022765D01*
X122977235Y-56102206D01*
X123080009Y-56147585D01*
X123105135Y-56150500D01*
X124894864Y-56150499D01*
X124894879Y-56150497D01*
X124894882Y-56150497D01*
X124919987Y-56147586D01*
X124919988Y-56147585D01*
X124919991Y-56147585D01*
X125022765Y-56102206D01*
X125102206Y-56022765D01*
X125147585Y-55919991D01*
X125150500Y-55894865D01*
X125150499Y-55105131D01*
X128849500Y-55105131D01*
X128849500Y-56894856D01*
X128849502Y-56894882D01*
X128852413Y-56919987D01*
X128852415Y-56919991D01*
X128897793Y-57022764D01*
X128897794Y-57022765D01*
X128977235Y-57102206D01*
X129080009Y-57147585D01*
X129105135Y-57150500D01*
X130894864Y-57150499D01*
X130894879Y-57150497D01*
X130894882Y-57150497D01*
X130919987Y-57147586D01*
X130919988Y-57147585D01*
X130919991Y-57147585D01*
X131022765Y-57102206D01*
X131102206Y-57022765D01*
X131147585Y-56919991D01*
X131150500Y-56894865D01*
X131150500Y-56881902D01*
X143499500Y-56881902D01*
X143499500Y-57118097D01*
X143536446Y-57351368D01*
X143609433Y-57575996D01*
X143699622Y-57753000D01*
X143716657Y-57786433D01*
X143855483Y-57977510D01*
X144022490Y-58144517D01*
X144213567Y-58283343D01*
X144312991Y-58334002D01*
X144424003Y-58390566D01*
X144424005Y-58390566D01*
X144424008Y-58390568D01*
X144544412Y-58429689D01*
X144648631Y-58463553D01*
X144881903Y-58500500D01*
X144881908Y-58500500D01*
X145118097Y-58500500D01*
X145351368Y-58463553D01*
X145441211Y-58434361D01*
X145575992Y-58390568D01*
X145786433Y-58283343D01*
X145977510Y-58144517D01*
X146144517Y-57977510D01*
X146283343Y-57786433D01*
X146390568Y-57575992D01*
X146463553Y-57351368D01*
X146474085Y-57284874D01*
X146500500Y-57118097D01*
X146500500Y-56881902D01*
X146463553Y-56648631D01*
X146390566Y-56424003D01*
X146283342Y-56213566D01*
X146278271Y-56206586D01*
X146144517Y-56022490D01*
X145977510Y-55855483D01*
X145786433Y-55716657D01*
X145785548Y-55716206D01*
X145575996Y-55609433D01*
X145351368Y-55536446D01*
X145118097Y-55499500D01*
X145118092Y-55499500D01*
X144881908Y-55499500D01*
X144881903Y-55499500D01*
X144648631Y-55536446D01*
X144424003Y-55609433D01*
X144213566Y-55716657D01*
X144104550Y-55795862D01*
X144022490Y-55855483D01*
X144022488Y-55855485D01*
X144022487Y-55855485D01*
X143855485Y-56022487D01*
X143855485Y-56022488D01*
X143855483Y-56022490D01*
X143841662Y-56041513D01*
X143716657Y-56213566D01*
X143609433Y-56424003D01*
X143536446Y-56648631D01*
X143499500Y-56881902D01*
X131150500Y-56881902D01*
X131150499Y-55997097D01*
X131150499Y-55105143D01*
X131150499Y-55105136D01*
X131150497Y-55105117D01*
X131147586Y-55080012D01*
X131147585Y-55080010D01*
X131147585Y-55080009D01*
X131102206Y-54977235D01*
X131022765Y-54897794D01*
X131022763Y-54897793D01*
X130919992Y-54852415D01*
X130894865Y-54849500D01*
X129105143Y-54849500D01*
X129105117Y-54849502D01*
X129080012Y-54852413D01*
X129080008Y-54852415D01*
X128977235Y-54897793D01*
X128897794Y-54977234D01*
X128852415Y-55080006D01*
X128852415Y-55080008D01*
X128849500Y-55105131D01*
X125150499Y-55105131D01*
X125150499Y-54977235D01*
X125150499Y-54105143D01*
X125150499Y-54105136D01*
X125150497Y-54105117D01*
X125147586Y-54080012D01*
X125147585Y-54080010D01*
X125147585Y-54080009D01*
X125102206Y-53977235D01*
X125022765Y-53897794D01*
X125022763Y-53897793D01*
X124919992Y-53852415D01*
X124894865Y-53849500D01*
X123105143Y-53849500D01*
X123105117Y-53849502D01*
X123080012Y-53852413D01*
X123080008Y-53852415D01*
X122977235Y-53897793D01*
X122897794Y-53977234D01*
X122852415Y-54080006D01*
X122852415Y-54080008D01*
X122849500Y-54105131D01*
X92657585Y-54105131D01*
X92448848Y-53965657D01*
X92448847Y-53965656D01*
X92448842Y-53965653D01*
X92448837Y-53965650D01*
X92448830Y-53965646D01*
X92162854Y-53812788D01*
X92162849Y-53812786D01*
X91863247Y-53688686D01*
X91552913Y-53594548D01*
X91552902Y-53594545D01*
X91234874Y-53531287D01*
X91234857Y-53531284D01*
X90990812Y-53507248D01*
X90912143Y-53499500D01*
X90587857Y-53499500D01*
X90515099Y-53506666D01*
X90265142Y-53531284D01*
X90265125Y-53531287D01*
X89947097Y-53594545D01*
X89947086Y-53594548D01*
X89636752Y-53688686D01*
X89337150Y-53812786D01*
X89337145Y-53812788D01*
X89051169Y-53965646D01*
X89051151Y-53965657D01*
X88781532Y-54145811D01*
X88781518Y-54145821D01*
X88530841Y-54351546D01*
X88301546Y-54580841D01*
X88095821Y-54831518D01*
X88095811Y-54831532D01*
X87915657Y-55101151D01*
X87915646Y-55101169D01*
X87762788Y-55387145D01*
X87762786Y-55387150D01*
X87638686Y-55686752D01*
X87544548Y-55997086D01*
X87544545Y-55997097D01*
X87481287Y-56315125D01*
X87481284Y-56315142D01*
X87449500Y-56637860D01*
X84500500Y-56637860D01*
X84500500Y-51624500D01*
X84520185Y-51557461D01*
X84572989Y-51511706D01*
X84624500Y-51500500D01*
X195375500Y-51500500D01*
X195442539Y-51520185D01*
G37*
%TD.AperFunction*%
%TD*%
M02*
