ISO-10303-21;
HEADER;
/* Generated by software containing ST-Developer
 * from STEP Tools, Inc. (www.steptools.com) 
 */
/* OPTION: using custom renumber hook */

FILE_DESCRIPTION(
/* description */ ('STEP AP214',
'CAx-IF Rec.Pracs.---User Defined Attributes---1.5---2016-08-15'),
/* implementation_level */ '2;1');

FILE_NAME(
/* name */ '6a13bc7329e817fb99b76b60',
/* time_stamp */ '2026-05-25T03:05:23Z',
/* author */ (''),
/* organization */ (''),
/* preprocessor_version */ 'ST-DEVELOPER v20',
/* originating_system */ 'ONSHAPE BY PTC INC, 1.215',
/* authorisation */ '  ');

FILE_SCHEMA (('AUTOMOTIVE_DESIGN {1 0 10303 214 3 1 1}'));
ENDSEC;

DATA;
#10=PROPERTY_DEFINITION_REPRESENTATION(#14,#12);
#11=PROPERTY_DEFINITION_REPRESENTATION(#15,#13);
#12=REPRESENTATION('',(#16),#487);
#13=REPRESENTATION('',(#17),#487);
#14=PROPERTY_DEFINITION('pmi validation property','',#492);
#15=PROPERTY_DEFINITION('pmi validation property','',#492);
#16=VALUE_REPRESENTATION_ITEM('number of annotations',COUNT_MEASURE(0.));
#17=VALUE_REPRESENTATION_ITEM('number of views',COUNT_MEASURE(0.));
#18=SHAPE_REPRESENTATION_RELATIONSHIP('','',#301,#19);
#19=ADVANCED_BREP_SHAPE_REPRESENTATION('',(#299),#487);
#20=CYLINDRICAL_SURFACE('',#313,0.00145);
#21=CYLINDRICAL_SURFACE('',#316,0.00145);
#22=CYLINDRICAL_SURFACE('',#319,0.00145);
#23=CYLINDRICAL_SURFACE('',#322,0.00145);
#24=CIRCLE('',#309,0.00145);
#25=CIRCLE('',#310,0.00145);
#26=CIRCLE('',#311,0.00145);
#27=CIRCLE('',#312,0.00145);
#28=CIRCLE('',#314,0.00145);
#29=CIRCLE('',#317,0.00145);
#30=CIRCLE('',#320,0.00145);
#31=CIRCLE('',#323,0.00145);
#32=ORIENTED_EDGE('',*,*,#96,.T.);
#33=ORIENTED_EDGE('',*,*,#97,.F.);
#34=ORIENTED_EDGE('',*,*,#98,.F.);
#35=ORIENTED_EDGE('',*,*,#99,.T.);
#36=ORIENTED_EDGE('',*,*,#100,.T.);
#37=ORIENTED_EDGE('',*,*,#101,.F.);
#38=ORIENTED_EDGE('',*,*,#102,.F.);
#39=ORIENTED_EDGE('',*,*,#97,.T.);
#40=ORIENTED_EDGE('',*,*,#103,.T.);
#41=ORIENTED_EDGE('',*,*,#104,.F.);
#42=ORIENTED_EDGE('',*,*,#105,.F.);
#43=ORIENTED_EDGE('',*,*,#101,.T.);
#44=ORIENTED_EDGE('',*,*,#106,.F.);
#45=ORIENTED_EDGE('',*,*,#107,.F.);
#46=ORIENTED_EDGE('',*,*,#108,.F.);
#47=ORIENTED_EDGE('',*,*,#109,.F.);
#48=ORIENTED_EDGE('',*,*,#110,.T.);
#49=ORIENTED_EDGE('',*,*,#99,.F.);
#50=ORIENTED_EDGE('',*,*,#111,.F.);
#51=ORIENTED_EDGE('',*,*,#104,.T.);
#52=ORIENTED_EDGE('',*,*,#98,.T.);
#53=ORIENTED_EDGE('',*,*,#102,.T.);
#54=ORIENTED_EDGE('',*,*,#105,.T.);
#55=ORIENTED_EDGE('',*,*,#111,.T.);
#56=ORIENTED_EDGE('',*,*,#112,.F.);
#57=ORIENTED_EDGE('',*,*,#113,.F.);
#58=ORIENTED_EDGE('',*,*,#114,.F.);
#59=ORIENTED_EDGE('',*,*,#115,.F.);
#60=ORIENTED_EDGE('',*,*,#96,.F.);
#61=ORIENTED_EDGE('',*,*,#110,.F.);
#62=ORIENTED_EDGE('',*,*,#103,.F.);
#63=ORIENTED_EDGE('',*,*,#100,.F.);
#64=ORIENTED_EDGE('',*,*,#116,.F.);
#65=ORIENTED_EDGE('',*,*,#115,.T.);
#66=ORIENTED_EDGE('',*,*,#116,.T.);
#67=ORIENTED_EDGE('',*,*,#117,.F.);
#68=ORIENTED_EDGE('',*,*,#114,.T.);
#69=ORIENTED_EDGE('',*,*,#117,.T.);
#70=ORIENTED_EDGE('',*,*,#118,.F.);
#71=ORIENTED_EDGE('',*,*,#113,.T.);
#72=ORIENTED_EDGE('',*,*,#118,.T.);
#73=ORIENTED_EDGE('',*,*,#119,.F.);
#74=ORIENTED_EDGE('',*,*,#112,.T.);
#75=ORIENTED_EDGE('',*,*,#119,.T.);
#76=ORIENTED_EDGE('',*,*,#107,.T.);
#77=ORIENTED_EDGE('',*,*,#120,.F.);
#78=ORIENTED_EDGE('',*,*,#121,.F.);
#79=ORIENTED_EDGE('',*,*,#122,.T.);
#80=ORIENTED_EDGE('',*,*,#106,.T.);
#81=ORIENTED_EDGE('',*,*,#123,.F.);
#82=ORIENTED_EDGE('',*,*,#124,.F.);
#83=ORIENTED_EDGE('',*,*,#120,.T.);
#84=ORIENTED_EDGE('',*,*,#109,.T.);
#85=ORIENTED_EDGE('',*,*,#125,.F.);
#86=ORIENTED_EDGE('',*,*,#126,.F.);
#87=ORIENTED_EDGE('',*,*,#123,.T.);
#88=ORIENTED_EDGE('',*,*,#108,.T.);
#89=ORIENTED_EDGE('',*,*,#122,.F.);
#90=ORIENTED_EDGE('',*,*,#127,.F.);
#91=ORIENTED_EDGE('',*,*,#125,.T.);
#92=ORIENTED_EDGE('',*,*,#121,.T.);
#93=ORIENTED_EDGE('',*,*,#124,.T.);
#94=ORIENTED_EDGE('',*,*,#126,.T.);
#95=ORIENTED_EDGE('',*,*,#127,.T.);
#96=EDGE_CURVE('',#128,#129,#152,.T.);
#97=EDGE_CURVE('',#130,#129,#153,.T.);
#98=EDGE_CURVE('',#131,#130,#154,.T.);
#99=EDGE_CURVE('',#131,#128,#155,.T.);
#100=EDGE_CURVE('',#129,#132,#156,.T.);
#101=EDGE_CURVE('',#133,#132,#157,.T.);
#102=EDGE_CURVE('',#130,#133,#158,.T.);
#103=EDGE_CURVE('',#132,#134,#159,.T.);
#104=EDGE_CURVE('',#135,#134,#160,.T.);
#105=EDGE_CURVE('',#133,#135,#161,.T.);
#106=EDGE_CURVE('',#136,#137,#162,.T.);
#107=EDGE_CURVE('',#138,#136,#163,.T.);
#108=EDGE_CURVE('',#139,#138,#164,.T.);
#109=EDGE_CURVE('',#137,#139,#165,.T.);
#110=EDGE_CURVE('',#134,#128,#166,.T.);
#111=EDGE_CURVE('',#135,#131,#167,.T.);
#112=EDGE_CURVE('',#140,#140,#24,.T.);
#113=EDGE_CURVE('',#141,#141,#25,.T.);
#114=EDGE_CURVE('',#142,#142,#26,.T.);
#115=EDGE_CURVE('',#143,#143,#27,.T.);
#116=EDGE_CURVE('',#144,#144,#28,.T.);
#117=EDGE_CURVE('',#145,#145,#29,.T.);
#118=EDGE_CURVE('',#146,#146,#30,.T.);
#119=EDGE_CURVE('',#147,#147,#31,.T.);
#120=EDGE_CURVE('',#148,#136,#168,.T.);
#121=EDGE_CURVE('',#149,#148,#169,.T.);
#122=EDGE_CURVE('',#149,#138,#170,.T.);
#123=EDGE_CURVE('',#150,#137,#171,.T.);
#124=EDGE_CURVE('',#148,#150,#172,.T.);
#125=EDGE_CURVE('',#151,#139,#173,.T.);
#126=EDGE_CURVE('',#150,#151,#174,.T.);
#127=EDGE_CURVE('',#151,#149,#175,.T.);
#128=VERTEX_POINT('',#413);
#129=VERTEX_POINT('',#414);
#130=VERTEX_POINT('',#416);
#131=VERTEX_POINT('',#418);
#132=VERTEX_POINT('',#422);
#133=VERTEX_POINT('',#424);
#134=VERTEX_POINT('',#428);
#135=VERTEX_POINT('',#430);
#136=VERTEX_POINT('',#434);
#137=VERTEX_POINT('',#435);
#138=VERTEX_POINT('',#437);
#139=VERTEX_POINT('',#439);
#140=VERTEX_POINT('',#446);
#141=VERTEX_POINT('',#448);
#142=VERTEX_POINT('',#450);
#143=VERTEX_POINT('',#452);
#144=VERTEX_POINT('',#455);
#145=VERTEX_POINT('',#459);
#146=VERTEX_POINT('',#463);
#147=VERTEX_POINT('',#467);
#148=VERTEX_POINT('',#471);
#149=VERTEX_POINT('',#473);
#150=VERTEX_POINT('',#477);
#151=VERTEX_POINT('',#481);
#152=LINE('',#412,#176);
#153=LINE('',#415,#177);
#154=LINE('',#417,#178);
#155=LINE('',#419,#179);
#156=LINE('',#421,#180);
#157=LINE('',#423,#181);
#158=LINE('',#425,#182);
#159=LINE('',#427,#183);
#160=LINE('',#429,#184);
#161=LINE('',#431,#185);
#162=LINE('',#433,#186);
#163=LINE('',#436,#187);
#164=LINE('',#438,#188);
#165=LINE('',#440,#189);
#166=LINE('',#441,#190);
#167=LINE('',#442,#191);
#168=LINE('',#470,#192);
#169=LINE('',#472,#193);
#170=LINE('',#474,#194);
#171=LINE('',#476,#195);
#172=LINE('',#478,#196);
#173=LINE('',#480,#197);
#174=LINE('',#482,#198);
#175=LINE('',#484,#199);
#176=VECTOR('',#334,1.);
#177=VECTOR('',#335,1.);
#178=VECTOR('',#336,1.);
#179=VECTOR('',#337,1.);
#180=VECTOR('',#340,1.);
#181=VECTOR('',#341,1.);
#182=VECTOR('',#342,1.);
#183=VECTOR('',#345,1.);
#184=VECTOR('',#346,1.);
#185=VECTOR('',#347,1.);
#186=VECTOR('',#350,1.);
#187=VECTOR('',#351,1.);
#188=VECTOR('',#352,1.);
#189=VECTOR('',#353,1.);
#190=VECTOR('',#354,1.);
#191=VECTOR('',#355,1.);
#192=VECTOR('',#394,1.);
#193=VECTOR('',#395,1.);
#194=VECTOR('',#396,1.);
#195=VECTOR('',#399,1.);
#196=VECTOR('',#400,1.);
#197=VECTOR('',#403,1.);
#198=VECTOR('',#404,1.);
#199=VECTOR('',#407,1.);
#200=EDGE_LOOP('',(#32,#33,#34,#35));
#201=EDGE_LOOP('',(#36,#37,#38,#39));
#202=EDGE_LOOP('',(#40,#41,#42,#43));
#203=EDGE_LOOP('',(#44,#45,#46,#47));
#204=EDGE_LOOP('',(#48,#49,#50,#51));
#205=EDGE_LOOP('',(#52,#53,#54,#55));
#206=EDGE_LOOP('',(#56));
#207=EDGE_LOOP('',(#57));
#208=EDGE_LOOP('',(#58));
#209=EDGE_LOOP('',(#59));
#210=EDGE_LOOP('',(#60,#61,#62,#63));
#211=EDGE_LOOP('',(#64));
#212=EDGE_LOOP('',(#65));
#213=EDGE_LOOP('',(#66));
#214=EDGE_LOOP('',(#67));
#215=EDGE_LOOP('',(#68));
#216=EDGE_LOOP('',(#69));
#217=EDGE_LOOP('',(#70));
#218=EDGE_LOOP('',(#71));
#219=EDGE_LOOP('',(#72));
#220=EDGE_LOOP('',(#73));
#221=EDGE_LOOP('',(#74));
#222=EDGE_LOOP('',(#75));
#223=EDGE_LOOP('',(#76,#77,#78,#79));
#224=EDGE_LOOP('',(#80,#81,#82,#83));
#225=EDGE_LOOP('',(#84,#85,#86,#87));
#226=EDGE_LOOP('',(#88,#89,#90,#91));
#227=EDGE_LOOP('',(#92,#93,#94,#95));
#228=FACE_BOUND('',#200,.T.);
#229=FACE_BOUND('',#201,.T.);
#230=FACE_BOUND('',#202,.T.);
#231=FACE_BOUND('',#203,.T.);
#232=FACE_BOUND('',#204,.T.);
#233=FACE_BOUND('',#205,.T.);
#234=FACE_BOUND('',#206,.T.);
#235=FACE_BOUND('',#207,.T.);
#236=FACE_BOUND('',#208,.T.);
#237=FACE_BOUND('',#209,.T.);
#238=FACE_BOUND('',#210,.T.);
#239=FACE_BOUND('',#211,.T.);
#240=FACE_BOUND('',#212,.T.);
#241=FACE_BOUND('',#213,.T.);
#242=FACE_BOUND('',#214,.T.);
#243=FACE_BOUND('',#215,.T.);
#244=FACE_BOUND('',#216,.T.);
#245=FACE_BOUND('',#217,.T.);
#246=FACE_BOUND('',#218,.T.);
#247=FACE_BOUND('',#219,.T.);
#248=FACE_BOUND('',#220,.T.);
#249=FACE_BOUND('',#221,.T.);
#250=FACE_BOUND('',#222,.T.);
#251=FACE_BOUND('',#223,.T.);
#252=FACE_BOUND('',#224,.T.);
#253=FACE_BOUND('',#225,.T.);
#254=FACE_BOUND('',#226,.T.);
#255=FACE_BOUND('',#227,.T.);
#256=PLANE('',#303);
#257=PLANE('',#304);
#258=PLANE('',#305);
#259=PLANE('',#306);
#260=PLANE('',#307);
#261=PLANE('',#308);
#262=PLANE('',#315);
#263=PLANE('',#318);
#264=PLANE('',#321);
#265=PLANE('',#324);
#266=PLANE('',#325);
#267=PLANE('',#326);
#268=PLANE('',#327);
#269=PLANE('',#328);
#270=PLANE('',#329);
#271=ADVANCED_FACE('',(#228),#256,.F.);
#272=ADVANCED_FACE('',(#229),#257,.F.);
#273=ADVANCED_FACE('',(#230),#258,.F.);
#274=ADVANCED_FACE('',(#231,#232),#259,.F.);
#275=ADVANCED_FACE('',(#233),#260,.T.);
#276=ADVANCED_FACE('',(#234,#235,#236,#237,#238),#261,.F.);
#277=ADVANCED_FACE('',(#239,#240),#20,.F.);
#278=ADVANCED_FACE('',(#241),#262,.T.);
#279=ADVANCED_FACE('',(#242,#243),#21,.F.);
#280=ADVANCED_FACE('',(#244),#263,.T.);
#281=ADVANCED_FACE('',(#245,#246),#22,.F.);
#282=ADVANCED_FACE('',(#247),#264,.T.);
#283=ADVANCED_FACE('',(#248,#249),#23,.F.);
#284=ADVANCED_FACE('',(#250),#265,.T.);
#285=ADVANCED_FACE('',(#251),#266,.F.);
#286=ADVANCED_FACE('',(#252),#267,.F.);
#287=ADVANCED_FACE('',(#253),#268,.F.);
#288=ADVANCED_FACE('',(#254),#269,.F.);
#289=ADVANCED_FACE('',(#255),#270,.T.);
#290=CLOSED_SHELL('',(#271,#272,#273,#274,#275,#276,#277,#278,#279,#280,
#281,#282,#283,#284,#285,#286,#287,#288,#289));
#291=STYLED_ITEM('',(#292),#299);
#292=PRESENTATION_STYLE_ASSIGNMENT((#293));
#293=SURFACE_STYLE_USAGE(.BOTH.,#294);
#294=SURFACE_SIDE_STYLE('',(#295));
#295=SURFACE_STYLE_FILL_AREA(#296);
#296=FILL_AREA_STYLE('',(#297));
#297=FILL_AREA_STYLE_COLOUR('',#298);
#298=COLOUR_RGB('',0.615686274509804,0.811764705882353,0.929411764705882);
#299=MANIFOLD_SOLID_BREP('Part 1',#290);
#300=SHAPE_DEFINITION_REPRESENTATION(#492,#301);
#301=SHAPE_REPRESENTATION('Part 1',(#302),#487);
#302=AXIS2_PLACEMENT_3D('',#410,#330,#331);
#303=AXIS2_PLACEMENT_3D('',#411,#332,#333);
#304=AXIS2_PLACEMENT_3D('',#420,#338,#339);
#305=AXIS2_PLACEMENT_3D('',#426,#343,#344);
#306=AXIS2_PLACEMENT_3D('',#432,#348,#349);
#307=AXIS2_PLACEMENT_3D('',#443,#356,#357);
#308=AXIS2_PLACEMENT_3D('',#444,#358,#359);
#309=AXIS2_PLACEMENT_3D('',#445,#360,#361);
#310=AXIS2_PLACEMENT_3D('',#447,#362,#363);
#311=AXIS2_PLACEMENT_3D('',#449,#364,#365);
#312=AXIS2_PLACEMENT_3D('',#451,#366,#367);
#313=AXIS2_PLACEMENT_3D('',#453,#368,#369);
#314=AXIS2_PLACEMENT_3D('',#454,#370,#371);
#315=AXIS2_PLACEMENT_3D('',#456,#372,#373);
#316=AXIS2_PLACEMENT_3D('',#457,#374,#375);
#317=AXIS2_PLACEMENT_3D('',#458,#376,#377);
#318=AXIS2_PLACEMENT_3D('',#460,#378,#379);
#319=AXIS2_PLACEMENT_3D('',#461,#380,#381);
#320=AXIS2_PLACEMENT_3D('',#462,#382,#383);
#321=AXIS2_PLACEMENT_3D('',#464,#384,#385);
#322=AXIS2_PLACEMENT_3D('',#465,#386,#387);
#323=AXIS2_PLACEMENT_3D('',#466,#388,#389);
#324=AXIS2_PLACEMENT_3D('',#468,#390,#391);
#325=AXIS2_PLACEMENT_3D('',#469,#392,#393);
#326=AXIS2_PLACEMENT_3D('',#475,#397,#398);
#327=AXIS2_PLACEMENT_3D('',#479,#401,#402);
#328=AXIS2_PLACEMENT_3D('',#483,#405,#406);
#329=AXIS2_PLACEMENT_3D('',#485,#408,#409);
#330=DIRECTION('',(0.,0.,1.));
#331=DIRECTION('',(1.,0.,0.));
#332=DIRECTION('',(1.,0.,0.));
#333=DIRECTION('',(0.,0.,-1.));
#334=DIRECTION('',(0.,-1.,0.));
#335=DIRECTION('',(0.,0.,-1.));
#336=DIRECTION('',(0.,-1.,0.));
#337=DIRECTION('',(0.,0.,-1.));
#338=DIRECTION('',(0.,1.,0.));
#339=DIRECTION('',(0.,0.,1.));
#340=DIRECTION('',(1.,0.,0.));
#341=DIRECTION('',(0.,0.,-1.));
#342=DIRECTION('',(1.,0.,0.));
#343=DIRECTION('',(-1.,0.,0.));
#344=DIRECTION('',(0.,0.,1.));
#345=DIRECTION('',(0.,1.,0.));
#346=DIRECTION('',(0.,0.,-1.));
#347=DIRECTION('',(0.,1.,0.));
#348=DIRECTION('',(0.,-1.,0.));
#349=DIRECTION('',(0.,0.,-1.));
#350=DIRECTION('',(-1.,0.,0.));
#351=DIRECTION('',(0.,0.,-1.));
#352=DIRECTION('',(1.,0.,0.));
#353=DIRECTION('',(0.,0.,1.));
#354=DIRECTION('',(-1.,0.,0.));
#355=DIRECTION('',(-1.,0.,0.));
#356=DIRECTION('',(0.,0.,1.));
#357=DIRECTION('',(1.,0.,0.));
#358=DIRECTION('',(0.,0.,1.));
#359=DIRECTION('',(1.,0.,0.));
#360=DIRECTION('',(0.,0.,-1.));
#361=DIRECTION('',(-1.,0.,0.));
#362=DIRECTION('',(0.,0.,-1.));
#363=DIRECTION('',(-1.,0.,0.));
#364=DIRECTION('',(0.,0.,-1.));
#365=DIRECTION('',(-1.,0.,0.));
#366=DIRECTION('',(0.,0.,-1.));
#367=DIRECTION('',(-1.,0.,0.));
#368=DIRECTION('',(0.,0.,-1.));
#369=DIRECTION('',(-1.,0.,0.));
#370=DIRECTION('',(0.,0.,-1.));
#371=DIRECTION('',(-1.,0.,0.));
#372=DIRECTION('',(0.,0.,-1.));
#373=DIRECTION('',(1.,0.,0.));
#374=DIRECTION('',(0.,0.,-1.));
#375=DIRECTION('',(-1.,0.,0.));
#376=DIRECTION('',(0.,0.,-1.));
#377=DIRECTION('',(-1.,0.,0.));
#378=DIRECTION('',(0.,0.,-1.));
#379=DIRECTION('',(1.,0.,0.));
#380=DIRECTION('',(0.,0.,-1.));
#381=DIRECTION('',(-1.,0.,0.));
#382=DIRECTION('',(0.,0.,-1.));
#383=DIRECTION('',(-1.,0.,0.));
#384=DIRECTION('',(0.,0.,-1.));
#385=DIRECTION('',(1.,0.,0.));
#386=DIRECTION('',(0.,0.,-1.));
#387=DIRECTION('',(-1.,0.,0.));
#388=DIRECTION('',(0.,0.,-1.));
#389=DIRECTION('',(-1.,0.,0.));
#390=DIRECTION('',(0.,0.,-1.));
#391=DIRECTION('',(1.,0.,0.));
#392=DIRECTION('',(1.,0.,0.));
#393=DIRECTION('',(0.,0.,-1.));
#394=DIRECTION('',(0.,1.,0.));
#395=DIRECTION('',(0.,0.,-1.));
#396=DIRECTION('',(0.,1.,0.));
#397=DIRECTION('',(0.,0.,-1.));
#398=DIRECTION('',(-1.,0.,0.));
#399=DIRECTION('',(0.,1.,0.));
#400=DIRECTION('',(-1.,0.,0.));
#401=DIRECTION('',(-1.,0.,0.));
#402=DIRECTION('',(0.,0.,1.));
#403=DIRECTION('',(0.,1.,0.));
#404=DIRECTION('',(0.,0.,1.));
#405=DIRECTION('',(0.,0.,1.));
#406=DIRECTION('',(1.,0.,0.));
#407=DIRECTION('',(1.,0.,0.));
#408=DIRECTION('',(0.,1.,0.));
#409=DIRECTION('',(-1.,0.,0.));
#410=CARTESIAN_POINT('',(0.,0.,0.));
#411=CARTESIAN_POINT('',(-0.015,0.,0.19));
#412=CARTESIAN_POINT('',(-0.015,0.,0.));
#413=CARTESIAN_POINT('',(-0.015,0.02,0.));
#414=CARTESIAN_POINT('',(-0.015,-0.02,0.));
#415=CARTESIAN_POINT('',(-0.015,-0.02,0.19));
#416=CARTESIAN_POINT('',(-0.015,-0.02,0.19));
#417=CARTESIAN_POINT('',(-0.015,0.,0.19));
#418=CARTESIAN_POINT('',(-0.015,0.02,0.19));
#419=CARTESIAN_POINT('',(-0.015,0.02,0.19));
#420=CARTESIAN_POINT('',(0.,-0.02,0.19));
#421=CARTESIAN_POINT('',(0.,-0.02,0.));
#422=CARTESIAN_POINT('',(0.015,-0.02,0.));
#423=CARTESIAN_POINT('',(0.015,-0.02,0.19));
#424=CARTESIAN_POINT('',(0.015,-0.02,0.19));
#425=CARTESIAN_POINT('',(0.,-0.02,0.19));
#426=CARTESIAN_POINT('',(0.015,0.,0.19));
#427=CARTESIAN_POINT('',(0.015,0.,0.));
#428=CARTESIAN_POINT('',(0.015,0.02,0.));
#429=CARTESIAN_POINT('',(0.015,0.02,0.19));
#430=CARTESIAN_POINT('',(0.015,0.02,0.19));
#431=CARTESIAN_POINT('',(0.015,0.,0.19));
#432=CARTESIAN_POINT('',(0.,0.02,0.19));
#433=CARTESIAN_POINT('',(0.,0.02,0.1435));
#434=CARTESIAN_POINT('',(0.012525,0.02,0.1435));
#435=CARTESIAN_POINT('',(-0.012525,0.02,0.1435));
#436=CARTESIAN_POINT('',(0.012525,0.02,0.166325));
#437=CARTESIAN_POINT('',(0.012525,0.02,0.18915));
#438=CARTESIAN_POINT('',(0.,0.02,0.18915));
#439=CARTESIAN_POINT('',(-0.012525,0.02,0.18915));
#440=CARTESIAN_POINT('',(-0.012525,0.02,0.166325));
#441=CARTESIAN_POINT('',(0.,0.02,0.));
#442=CARTESIAN_POINT('',(0.,0.02,0.19));
#443=CARTESIAN_POINT('',(0.,0.,0.19));
#444=CARTESIAN_POINT('',(0.,0.,0.));
#445=CARTESIAN_POINT('',(0.00495,0.00495,0.));
#446=CARTESIAN_POINT('',(0.0035,0.00495,0.));
#447=CARTESIAN_POINT('',(-0.00495,-0.00495,0.));
#448=CARTESIAN_POINT('',(-0.0064,-0.00495,0.));
#449=CARTESIAN_POINT('',(-0.00495,0.00495,0.));
#450=CARTESIAN_POINT('',(-0.0064,0.00495,0.));
#451=CARTESIAN_POINT('',(0.00495,-0.00495,0.));
#452=CARTESIAN_POINT('',(0.0035,-0.00495,0.));
#453=CARTESIAN_POINT('',(0.00495,-0.00495,0.005));
#454=CARTESIAN_POINT('',(0.00495,-0.00495,0.005));
#455=CARTESIAN_POINT('',(0.0035,-0.00495,0.005));
#456=CARTESIAN_POINT('',(0.,0.,0.005));
#457=CARTESIAN_POINT('',(-0.00495,0.00495,0.005));
#458=CARTESIAN_POINT('',(-0.00495,0.00495,0.005));
#459=CARTESIAN_POINT('',(-0.0064,0.00495,0.005));
#460=CARTESIAN_POINT('',(0.,0.,0.005));
#461=CARTESIAN_POINT('',(-0.00495,-0.00495,0.005));
#462=CARTESIAN_POINT('',(-0.00495,-0.00495,0.005));
#463=CARTESIAN_POINT('',(-0.0064,-0.00495,0.005));
#464=CARTESIAN_POINT('',(0.,0.,0.005));
#465=CARTESIAN_POINT('',(0.00495,0.00495,0.005));
#466=CARTESIAN_POINT('',(0.00495,0.00495,0.005));
#467=CARTESIAN_POINT('',(0.0035,0.00495,0.005));
#468=CARTESIAN_POINT('',(0.,0.,0.005));
#469=CARTESIAN_POINT('',(0.012525,-0.01455,0.166325));
#470=CARTESIAN_POINT('',(0.012525,-0.01455,0.1435));
#471=CARTESIAN_POINT('',(0.012525,-0.01455,0.1435));
#472=CARTESIAN_POINT('',(0.012525,-0.01455,0.166325));
#473=CARTESIAN_POINT('',(0.012525,-0.01455,0.18915));
#474=CARTESIAN_POINT('',(0.012525,-0.01455,0.18915));
#475=CARTESIAN_POINT('',(0.,-0.01455,0.1435));
#476=CARTESIAN_POINT('',(-0.012525,-0.01455,0.1435));
#477=CARTESIAN_POINT('',(-0.012525,-0.01455,0.1435));
#478=CARTESIAN_POINT('',(0.,-0.01455,0.1435));
#479=CARTESIAN_POINT('',(-0.012525,-0.01455,0.166325));
#480=CARTESIAN_POINT('',(-0.012525,-0.01455,0.18915));
#481=CARTESIAN_POINT('',(-0.012525,-0.01455,0.18915));
#482=CARTESIAN_POINT('',(-0.012525,-0.01455,0.166325));
#483=CARTESIAN_POINT('',(0.,-0.01455,0.18915));
#484=CARTESIAN_POINT('',(0.,-0.01455,0.18915));
#485=CARTESIAN_POINT('',(0.,-0.01455,0.095));
#486=MECHANICAL_DESIGN_GEOMETRIC_PRESENTATION_REPRESENTATION('',(#291),
#487);
#487=(
GEOMETRIC_REPRESENTATION_CONTEXT(3)
GLOBAL_UNCERTAINTY_ASSIGNED_CONTEXT((#488))
GLOBAL_UNIT_ASSIGNED_CONTEXT((#491,#490,#489))
REPRESENTATION_CONTEXT('Part 1','TOP_LEVEL_ASSEMBLY_PART')
);
#488=UNCERTAINTY_MEASURE_WITH_UNIT(LENGTH_MEASURE(1.E-8),#491,
'DISTANCE_ACCURACY_VALUE','Maximum Tolerance applied to model');
#489=(
NAMED_UNIT(*)
SI_UNIT($,.STERADIAN.)
SOLID_ANGLE_UNIT()
);
#490=(
NAMED_UNIT(*)
PLANE_ANGLE_UNIT()
SI_UNIT($,.RADIAN.)
);
#491=(
LENGTH_UNIT()
NAMED_UNIT(*)
SI_UNIT($,.METRE.)
);
#492=PRODUCT_DEFINITION_SHAPE('','',#493);
#493=PRODUCT_DEFINITION('','',#495,#494);
#494=PRODUCT_DEFINITION_CONTEXT('',#501,'design');
#495=PRODUCT_DEFINITION_FORMATION_WITH_SPECIFIED_SOURCE('','',#497,
 .NOT_KNOWN.);
#496=PRODUCT_RELATED_PRODUCT_CATEGORY('','',(#497));
#497=PRODUCT('Part 1','Part 1','Part 1',(#499));
#498=PRODUCT_CATEGORY('','');
#499=PRODUCT_CONTEXT('',#501,'mechanical');
#500=APPLICATION_PROTOCOL_DEFINITION('international standard',
'automotive_design',2010,#501);
#501=APPLICATION_CONTEXT(
'core data for automotive mechanical design processes');
ENDSEC;
END-ISO-10303-21;
