ISO-10303-21;
HEADER;
/* Generated by software containing ST-Developer
 * from STEP Tools, Inc. (www.steptools.com) 
 */
/* OPTION: using custom renumber hook */

FILE_DESCRIPTION(
/* description */ ('STEP AP214',
'CAx-IF Rec.Pracs.---User Defined Attributes---1.5---2016-08-15'),
/* implementation_level */ '2;1');

FILE_NAME(
/* name */ '6a13bc6d29e817fb99b76b4b',
/* time_stamp */ '2026-05-25T03:05:18Z',
/* author */ (''),
/* organization */ (''),
/* preprocessor_version */ 'ST-DEVELOPER v20',
/* originating_system */ 'ONSHAPE BY PTC INC, 1.215',
/* authorisation */ '  ');

FILE_SCHEMA (('AUTOMOTIVE_DESIGN {1 0 10303 214 3 1 1}'));
ENDSEC;

DATA;
#10=PROPERTY_DEFINITION_REPRESENTATION(#14,#12);
#11=PROPERTY_DEFINITION_REPRESENTATION(#15,#13);
#12=REPRESENTATION('',(#16),#463);
#13=REPRESENTATION('',(#17),#463);
#14=PROPERTY_DEFINITION('pmi validation property','',#468);
#15=PROPERTY_DEFINITION('pmi validation property','',#468);
#16=VALUE_REPRESENTATION_ITEM('number of annotations',COUNT_MEASURE(0.));
#17=VALUE_REPRESENTATION_ITEM('number of views',COUNT_MEASURE(0.));
#18=SHAPE_REPRESENTATION_RELATIONSHIP('','',#293,#19);
#19=ADVANCED_BREP_SHAPE_REPRESENTATION('',(#291),#463);
#20=CYLINDRICAL_SURFACE('',#314,0.00145);
#21=CYLINDRICAL_SURFACE('',#315,0.00145);
#22=CYLINDRICAL_SURFACE('',#316,0.00145);
#23=CYLINDRICAL_SURFACE('',#317,0.00145);
#24=CIRCLE('',#301,0.00145);
#25=CIRCLE('',#302,0.00145);
#26=CIRCLE('',#303,0.00145);
#27=CIRCLE('',#304,0.00145);
#28=CIRCLE('',#307,0.00145);
#29=CIRCLE('',#308,0.00145);
#30=CIRCLE('',#309,0.00145);
#31=CIRCLE('',#310,0.00145);
#32=ORIENTED_EDGE('',*,*,#96,.T.);
#33=ORIENTED_EDGE('',*,*,#97,.F.);
#34=ORIENTED_EDGE('',*,*,#98,.F.);
#35=ORIENTED_EDGE('',*,*,#99,.T.);
#36=ORIENTED_EDGE('',*,*,#100,.T.);
#37=ORIENTED_EDGE('',*,*,#101,.F.);
#38=ORIENTED_EDGE('',*,*,#102,.F.);
#39=ORIENTED_EDGE('',*,*,#97,.T.);
#40=ORIENTED_EDGE('',*,*,#103,.T.);
#41=ORIENTED_EDGE('',*,*,#104,.F.);
#42=ORIENTED_EDGE('',*,*,#105,.F.);
#43=ORIENTED_EDGE('',*,*,#101,.T.);
#44=ORIENTED_EDGE('',*,*,#106,.F.);
#45=ORIENTED_EDGE('',*,*,#107,.F.);
#46=ORIENTED_EDGE('',*,*,#108,.F.);
#47=ORIENTED_EDGE('',*,*,#109,.F.);
#48=ORIENTED_EDGE('',*,*,#110,.T.);
#49=ORIENTED_EDGE('',*,*,#99,.F.);
#50=ORIENTED_EDGE('',*,*,#111,.F.);
#51=ORIENTED_EDGE('',*,*,#104,.T.);
#52=ORIENTED_EDGE('',*,*,#98,.T.);
#53=ORIENTED_EDGE('',*,*,#102,.T.);
#54=ORIENTED_EDGE('',*,*,#105,.T.);
#55=ORIENTED_EDGE('',*,*,#111,.T.);
#56=ORIENTED_EDGE('',*,*,#112,.F.);
#57=ORIENTED_EDGE('',*,*,#113,.F.);
#58=ORIENTED_EDGE('',*,*,#114,.F.);
#59=ORIENTED_EDGE('',*,*,#115,.F.);
#60=ORIENTED_EDGE('',*,*,#96,.F.);
#61=ORIENTED_EDGE('',*,*,#110,.F.);
#62=ORIENTED_EDGE('',*,*,#103,.F.);
#63=ORIENTED_EDGE('',*,*,#100,.F.);
#64=ORIENTED_EDGE('',*,*,#107,.T.);
#65=ORIENTED_EDGE('',*,*,#116,.F.);
#66=ORIENTED_EDGE('',*,*,#117,.F.);
#67=ORIENTED_EDGE('',*,*,#118,.T.);
#68=ORIENTED_EDGE('',*,*,#119,.T.);
#69=ORIENTED_EDGE('',*,*,#120,.T.);
#70=ORIENTED_EDGE('',*,*,#121,.T.);
#71=ORIENTED_EDGE('',*,*,#122,.T.);
#72=ORIENTED_EDGE('',*,*,#106,.T.);
#73=ORIENTED_EDGE('',*,*,#123,.F.);
#74=ORIENTED_EDGE('',*,*,#124,.F.);
#75=ORIENTED_EDGE('',*,*,#116,.T.);
#76=ORIENTED_EDGE('',*,*,#109,.T.);
#77=ORIENTED_EDGE('',*,*,#125,.F.);
#78=ORIENTED_EDGE('',*,*,#126,.F.);
#79=ORIENTED_EDGE('',*,*,#123,.T.);
#80=ORIENTED_EDGE('',*,*,#108,.T.);
#81=ORIENTED_EDGE('',*,*,#118,.F.);
#82=ORIENTED_EDGE('',*,*,#127,.F.);
#83=ORIENTED_EDGE('',*,*,#125,.T.);
#84=ORIENTED_EDGE('',*,*,#117,.T.);
#85=ORIENTED_EDGE('',*,*,#124,.T.);
#86=ORIENTED_EDGE('',*,*,#126,.T.);
#87=ORIENTED_EDGE('',*,*,#127,.T.);
#88=ORIENTED_EDGE('',*,*,#115,.T.);
#89=ORIENTED_EDGE('',*,*,#122,.F.);
#90=ORIENTED_EDGE('',*,*,#114,.T.);
#91=ORIENTED_EDGE('',*,*,#121,.F.);
#92=ORIENTED_EDGE('',*,*,#113,.T.);
#93=ORIENTED_EDGE('',*,*,#120,.F.);
#94=ORIENTED_EDGE('',*,*,#112,.T.);
#95=ORIENTED_EDGE('',*,*,#119,.F.);
#96=EDGE_CURVE('',#128,#129,#152,.T.);
#97=EDGE_CURVE('',#130,#129,#153,.T.);
#98=EDGE_CURVE('',#131,#130,#154,.T.);
#99=EDGE_CURVE('',#131,#128,#155,.T.);
#100=EDGE_CURVE('',#129,#132,#156,.T.);
#101=EDGE_CURVE('',#133,#132,#157,.T.);
#102=EDGE_CURVE('',#130,#133,#158,.T.);
#103=EDGE_CURVE('',#132,#134,#159,.T.);
#104=EDGE_CURVE('',#135,#134,#160,.T.);
#105=EDGE_CURVE('',#133,#135,#161,.T.);
#106=EDGE_CURVE('',#136,#137,#162,.T.);
#107=EDGE_CURVE('',#138,#136,#163,.T.);
#108=EDGE_CURVE('',#139,#138,#164,.T.);
#109=EDGE_CURVE('',#137,#139,#165,.T.);
#110=EDGE_CURVE('',#134,#128,#166,.T.);
#111=EDGE_CURVE('',#135,#131,#167,.T.);
#112=EDGE_CURVE('',#140,#140,#24,.T.);
#113=EDGE_CURVE('',#141,#141,#25,.T.);
#114=EDGE_CURVE('',#142,#142,#26,.T.);
#115=EDGE_CURVE('',#143,#143,#27,.T.);
#116=EDGE_CURVE('',#144,#136,#168,.T.);
#117=EDGE_CURVE('',#145,#144,#169,.T.);
#118=EDGE_CURVE('',#145,#138,#170,.T.);
#119=EDGE_CURVE('',#146,#146,#28,.T.);
#120=EDGE_CURVE('',#147,#147,#29,.T.);
#121=EDGE_CURVE('',#148,#148,#30,.T.);
#122=EDGE_CURVE('',#149,#149,#31,.T.);
#123=EDGE_CURVE('',#150,#137,#171,.T.);
#124=EDGE_CURVE('',#144,#150,#172,.T.);
#125=EDGE_CURVE('',#151,#139,#173,.T.);
#126=EDGE_CURVE('',#150,#151,#174,.T.);
#127=EDGE_CURVE('',#151,#145,#175,.T.);
#128=VERTEX_POINT('',#393);
#129=VERTEX_POINT('',#394);
#130=VERTEX_POINT('',#396);
#131=VERTEX_POINT('',#398);
#132=VERTEX_POINT('',#402);
#133=VERTEX_POINT('',#404);
#134=VERTEX_POINT('',#408);
#135=VERTEX_POINT('',#410);
#136=VERTEX_POINT('',#414);
#137=VERTEX_POINT('',#415);
#138=VERTEX_POINT('',#417);
#139=VERTEX_POINT('',#419);
#140=VERTEX_POINT('',#426);
#141=VERTEX_POINT('',#428);
#142=VERTEX_POINT('',#430);
#143=VERTEX_POINT('',#432);
#144=VERTEX_POINT('',#435);
#145=VERTEX_POINT('',#437);
#146=VERTEX_POINT('',#441);
#147=VERTEX_POINT('',#443);
#148=VERTEX_POINT('',#445);
#149=VERTEX_POINT('',#447);
#150=VERTEX_POINT('',#449);
#151=VERTEX_POINT('',#453);
#152=LINE('',#392,#176);
#153=LINE('',#395,#177);
#154=LINE('',#397,#178);
#155=LINE('',#399,#179);
#156=LINE('',#401,#180);
#157=LINE('',#403,#181);
#158=LINE('',#405,#182);
#159=LINE('',#407,#183);
#160=LINE('',#409,#184);
#161=LINE('',#411,#185);
#162=LINE('',#413,#186);
#163=LINE('',#416,#187);
#164=LINE('',#418,#188);
#165=LINE('',#420,#189);
#166=LINE('',#421,#190);
#167=LINE('',#422,#191);
#168=LINE('',#434,#192);
#169=LINE('',#436,#193);
#170=LINE('',#438,#194);
#171=LINE('',#448,#195);
#172=LINE('',#450,#196);
#173=LINE('',#452,#197);
#174=LINE('',#454,#198);
#175=LINE('',#456,#199);
#176=VECTOR('',#322,1.);
#177=VECTOR('',#323,1.);
#178=VECTOR('',#324,1.);
#179=VECTOR('',#325,1.);
#180=VECTOR('',#328,1.);
#181=VECTOR('',#329,1.);
#182=VECTOR('',#330,1.);
#183=VECTOR('',#333,1.);
#184=VECTOR('',#334,1.);
#185=VECTOR('',#335,1.);
#186=VECTOR('',#338,1.);
#187=VECTOR('',#339,1.);
#188=VECTOR('',#340,1.);
#189=VECTOR('',#341,1.);
#190=VECTOR('',#342,1.);
#191=VECTOR('',#343,1.);
#192=VECTOR('',#358,1.);
#193=VECTOR('',#359,1.);
#194=VECTOR('',#360,1.);
#195=VECTOR('',#371,1.);
#196=VECTOR('',#372,1.);
#197=VECTOR('',#375,1.);
#198=VECTOR('',#376,1.);
#199=VECTOR('',#379,1.);
#200=EDGE_LOOP('',(#32,#33,#34,#35));
#201=EDGE_LOOP('',(#36,#37,#38,#39));
#202=EDGE_LOOP('',(#40,#41,#42,#43));
#203=EDGE_LOOP('',(#44,#45,#46,#47));
#204=EDGE_LOOP('',(#48,#49,#50,#51));
#205=EDGE_LOOP('',(#52,#53,#54,#55));
#206=EDGE_LOOP('',(#56));
#207=EDGE_LOOP('',(#57));
#208=EDGE_LOOP('',(#58));
#209=EDGE_LOOP('',(#59));
#210=EDGE_LOOP('',(#60,#61,#62,#63));
#211=EDGE_LOOP('',(#64,#65,#66,#67));
#212=EDGE_LOOP('',(#68));
#213=EDGE_LOOP('',(#69));
#214=EDGE_LOOP('',(#70));
#215=EDGE_LOOP('',(#71));
#216=EDGE_LOOP('',(#72,#73,#74,#75));
#217=EDGE_LOOP('',(#76,#77,#78,#79));
#218=EDGE_LOOP('',(#80,#81,#82,#83));
#219=EDGE_LOOP('',(#84,#85,#86,#87));
#220=EDGE_LOOP('',(#88));
#221=EDGE_LOOP('',(#89));
#222=EDGE_LOOP('',(#90));
#223=EDGE_LOOP('',(#91));
#224=EDGE_LOOP('',(#92));
#225=EDGE_LOOP('',(#93));
#226=EDGE_LOOP('',(#94));
#227=EDGE_LOOP('',(#95));
#228=FACE_BOUND('',#200,.T.);
#229=FACE_BOUND('',#201,.T.);
#230=FACE_BOUND('',#202,.T.);
#231=FACE_BOUND('',#203,.T.);
#232=FACE_BOUND('',#204,.T.);
#233=FACE_BOUND('',#205,.T.);
#234=FACE_BOUND('',#206,.T.);
#235=FACE_BOUND('',#207,.T.);
#236=FACE_BOUND('',#208,.T.);
#237=FACE_BOUND('',#209,.T.);
#238=FACE_BOUND('',#210,.T.);
#239=FACE_BOUND('',#211,.T.);
#240=FACE_BOUND('',#212,.T.);
#241=FACE_BOUND('',#213,.T.);
#242=FACE_BOUND('',#214,.T.);
#243=FACE_BOUND('',#215,.T.);
#244=FACE_BOUND('',#216,.T.);
#245=FACE_BOUND('',#217,.T.);
#246=FACE_BOUND('',#218,.T.);
#247=FACE_BOUND('',#219,.T.);
#248=FACE_BOUND('',#220,.T.);
#249=FACE_BOUND('',#221,.T.);
#250=FACE_BOUND('',#222,.T.);
#251=FACE_BOUND('',#223,.T.);
#252=FACE_BOUND('',#224,.T.);
#253=FACE_BOUND('',#225,.T.);
#254=FACE_BOUND('',#226,.T.);
#255=FACE_BOUND('',#227,.T.);
#256=PLANE('',#295);
#257=PLANE('',#296);
#258=PLANE('',#297);
#259=PLANE('',#298);
#260=PLANE('',#299);
#261=PLANE('',#300);
#262=PLANE('',#305);
#263=PLANE('',#306);
#264=PLANE('',#311);
#265=PLANE('',#312);
#266=PLANE('',#313);
#267=ADVANCED_FACE('',(#228),#256,.F.);
#268=ADVANCED_FACE('',(#229),#257,.F.);
#269=ADVANCED_FACE('',(#230),#258,.F.);
#270=ADVANCED_FACE('',(#231,#232),#259,.F.);
#271=ADVANCED_FACE('',(#233),#260,.T.);
#272=ADVANCED_FACE('',(#234,#235,#236,#237,#238),#261,.F.);
#273=ADVANCED_FACE('',(#239),#262,.F.);
#274=ADVANCED_FACE('',(#240,#241,#242,#243,#244),#263,.F.);
#275=ADVANCED_FACE('',(#245),#264,.F.);
#276=ADVANCED_FACE('',(#246),#265,.F.);
#277=ADVANCED_FACE('',(#247),#266,.T.);
#278=ADVANCED_FACE('',(#248,#249),#20,.F.);
#279=ADVANCED_FACE('',(#250,#251),#21,.F.);
#280=ADVANCED_FACE('',(#252,#253),#22,.F.);
#281=ADVANCED_FACE('',(#254,#255),#23,.F.);
#282=CLOSED_SHELL('',(#267,#268,#269,#270,#271,#272,#273,#274,#275,#276,
#277,#278,#279,#280,#281));
#283=STYLED_ITEM('',(#284),#291);
#284=PRESENTATION_STYLE_ASSIGNMENT((#285));
#285=SURFACE_STYLE_USAGE(.BOTH.,#286);
#286=SURFACE_SIDE_STYLE('',(#287));
#287=SURFACE_STYLE_FILL_AREA(#288);
#288=FILL_AREA_STYLE('',(#289));
#289=FILL_AREA_STYLE_COLOUR('',#290);
#290=COLOUR_RGB('',0.615686274509804,0.811764705882353,0.929411764705882);
#291=MANIFOLD_SOLID_BREP('Part 1',#282);
#292=SHAPE_DEFINITION_REPRESENTATION(#468,#293);
#293=SHAPE_REPRESENTATION('Part 1',(#294),#463);
#294=AXIS2_PLACEMENT_3D('',#390,#318,#319);
#295=AXIS2_PLACEMENT_3D('',#391,#320,#321);
#296=AXIS2_PLACEMENT_3D('',#400,#326,#327);
#297=AXIS2_PLACEMENT_3D('',#406,#331,#332);
#298=AXIS2_PLACEMENT_3D('',#412,#336,#337);
#299=AXIS2_PLACEMENT_3D('',#423,#344,#345);
#300=AXIS2_PLACEMENT_3D('',#424,#346,#347);
#301=AXIS2_PLACEMENT_3D('',#425,#348,#349);
#302=AXIS2_PLACEMENT_3D('',#427,#350,#351);
#303=AXIS2_PLACEMENT_3D('',#429,#352,#353);
#304=AXIS2_PLACEMENT_3D('',#431,#354,#355);
#305=AXIS2_PLACEMENT_3D('',#433,#356,#357);
#306=AXIS2_PLACEMENT_3D('',#439,#361,#362);
#307=AXIS2_PLACEMENT_3D('',#440,#363,#364);
#308=AXIS2_PLACEMENT_3D('',#442,#365,#366);
#309=AXIS2_PLACEMENT_3D('',#444,#367,#368);
#310=AXIS2_PLACEMENT_3D('',#446,#369,#370);
#311=AXIS2_PLACEMENT_3D('',#451,#373,#374);
#312=AXIS2_PLACEMENT_3D('',#455,#377,#378);
#313=AXIS2_PLACEMENT_3D('',#457,#380,#381);
#314=AXIS2_PLACEMENT_3D('',#458,#382,#383);
#315=AXIS2_PLACEMENT_3D('',#459,#384,#385);
#316=AXIS2_PLACEMENT_3D('',#460,#386,#387);
#317=AXIS2_PLACEMENT_3D('',#461,#388,#389);
#318=DIRECTION('',(0.,0.,1.));
#319=DIRECTION('',(1.,0.,0.));
#320=DIRECTION('',(1.,0.,0.));
#321=DIRECTION('',(0.,0.,-1.));
#322=DIRECTION('',(0.,-1.,0.));
#323=DIRECTION('',(0.,0.,-1.));
#324=DIRECTION('',(0.,-1.,0.));
#325=DIRECTION('',(0.,0.,-1.));
#326=DIRECTION('',(0.,1.,0.));
#327=DIRECTION('',(0.,0.,1.));
#328=DIRECTION('',(1.,0.,0.));
#329=DIRECTION('',(0.,0.,-1.));
#330=DIRECTION('',(1.,0.,0.));
#331=DIRECTION('',(-1.,0.,0.));
#332=DIRECTION('',(0.,0.,1.));
#333=DIRECTION('',(0.,1.,0.));
#334=DIRECTION('',(0.,0.,-1.));
#335=DIRECTION('',(0.,1.,0.));
#336=DIRECTION('',(0.,-1.,0.));
#337=DIRECTION('',(0.,0.,-1.));
#338=DIRECTION('',(-1.,0.,0.));
#339=DIRECTION('',(0.,0.,-1.));
#340=DIRECTION('',(1.,0.,0.));
#341=DIRECTION('',(0.,0.,1.));
#342=DIRECTION('',(-1.,0.,0.));
#343=DIRECTION('',(-1.,0.,0.));
#344=DIRECTION('',(0.,0.,1.));
#345=DIRECTION('',(1.,0.,0.));
#346=DIRECTION('',(0.,0.,1.));
#347=DIRECTION('',(1.,0.,0.));
#348=DIRECTION('',(0.,0.,-1.));
#349=DIRECTION('',(-1.,0.,0.));
#350=DIRECTION('',(0.,0.,-1.));
#351=DIRECTION('',(-1.,0.,0.));
#352=DIRECTION('',(0.,0.,-1.));
#353=DIRECTION('',(-1.,0.,0.));
#354=DIRECTION('',(0.,0.,-1.));
#355=DIRECTION('',(-1.,0.,0.));
#356=DIRECTION('',(1.,0.,0.));
#357=DIRECTION('',(0.,0.,-1.));
#358=DIRECTION('',(0.,1.,0.));
#359=DIRECTION('',(0.,0.,-1.));
#360=DIRECTION('',(0.,1.,0.));
#361=DIRECTION('',(0.,0.,-1.));
#362=DIRECTION('',(-1.,0.,0.));
#363=DIRECTION('',(0.,0.,-1.));
#364=DIRECTION('',(-1.,0.,0.));
#365=DIRECTION('',(0.,0.,-1.));
#366=DIRECTION('',(-1.,0.,0.));
#367=DIRECTION('',(0.,0.,-1.));
#368=DIRECTION('',(-1.,0.,0.));
#369=DIRECTION('',(0.,0.,-1.));
#370=DIRECTION('',(-1.,0.,0.));
#371=DIRECTION('',(0.,1.,0.));
#372=DIRECTION('',(-1.,0.,0.));
#373=DIRECTION('',(-1.,0.,0.));
#374=DIRECTION('',(0.,0.,1.));
#375=DIRECTION('',(0.,1.,0.));
#376=DIRECTION('',(0.,0.,1.));
#377=DIRECTION('',(0.,0.,1.));
#378=DIRECTION('',(1.,0.,0.));
#379=DIRECTION('',(1.,0.,0.));
#380=DIRECTION('',(0.,1.,0.));
#381=DIRECTION('',(-1.,0.,0.));
#382=DIRECTION('',(0.,0.,-1.));
#383=DIRECTION('',(-1.,0.,0.));
#384=DIRECTION('',(0.,0.,-1.));
#385=DIRECTION('',(-1.,0.,0.));
#386=DIRECTION('',(0.,0.,-1.));
#387=DIRECTION('',(-1.,0.,0.));
#388=DIRECTION('',(0.,0.,-1.));
#389=DIRECTION('',(-1.,0.,0.));
#390=CARTESIAN_POINT('',(0.,0.,0.));
#391=CARTESIAN_POINT('',(-0.015,0.,0.052));
#392=CARTESIAN_POINT('',(-0.015,0.,0.));
#393=CARTESIAN_POINT('',(-0.015,0.018,0.));
#394=CARTESIAN_POINT('',(-0.015,-0.018,0.));
#395=CARTESIAN_POINT('',(-0.015,-0.018,0.052));
#396=CARTESIAN_POINT('',(-0.015,-0.018,0.052));
#397=CARTESIAN_POINT('',(-0.015,0.,0.052));
#398=CARTESIAN_POINT('',(-0.015,0.018,0.052));
#399=CARTESIAN_POINT('',(-0.015,0.018,0.052));
#400=CARTESIAN_POINT('',(0.,-0.018,0.052));
#401=CARTESIAN_POINT('',(0.,-0.018,0.));
#402=CARTESIAN_POINT('',(0.015,-0.018,0.));
#403=CARTESIAN_POINT('',(0.015,-0.018,0.052));
#404=CARTESIAN_POINT('',(0.015,-0.018,0.052));
#405=CARTESIAN_POINT('',(0.,-0.018,0.052));
#406=CARTESIAN_POINT('',(0.015,0.,0.052));
#407=CARTESIAN_POINT('',(0.015,0.,0.));
#408=CARTESIAN_POINT('',(0.015,0.018,0.));
#409=CARTESIAN_POINT('',(0.015,0.018,0.052));
#410=CARTESIAN_POINT('',(0.015,0.018,0.052));
#411=CARTESIAN_POINT('',(0.015,0.,0.052));
#412=CARTESIAN_POINT('',(0.,0.018,0.052));
#413=CARTESIAN_POINT('',(0.,0.018,0.004875));
#414=CARTESIAN_POINT('',(0.012525,0.018,0.004875));
#415=CARTESIAN_POINT('',(-0.012525,0.018,0.004875));
#416=CARTESIAN_POINT('',(0.012525,0.018,0.0277));
#417=CARTESIAN_POINT('',(0.012525,0.018,0.050525));
#418=CARTESIAN_POINT('',(0.,0.018,0.050525));
#419=CARTESIAN_POINT('',(-0.012525,0.018,0.050525));
#420=CARTESIAN_POINT('',(-0.012525,0.018,0.0277));
#421=CARTESIAN_POINT('',(0.,0.018,0.));
#422=CARTESIAN_POINT('',(0.,0.018,0.052));
#423=CARTESIAN_POINT('',(0.,0.,0.052));
#424=CARTESIAN_POINT('',(0.,0.,0.));
#425=CARTESIAN_POINT('',(0.00495,0.00495,0.));
#426=CARTESIAN_POINT('',(0.0035,0.00495,0.));
#427=CARTESIAN_POINT('',(-0.00495,-0.00495,0.));
#428=CARTESIAN_POINT('',(-0.0064,-0.00495,0.));
#429=CARTESIAN_POINT('',(-0.00495,0.00495,0.));
#430=CARTESIAN_POINT('',(-0.0064,0.00495,0.));
#431=CARTESIAN_POINT('',(0.00495,-0.00495,0.));
#432=CARTESIAN_POINT('',(0.0035,-0.00495,0.));
#433=CARTESIAN_POINT('',(0.012525,-0.01655,0.0277));
#434=CARTESIAN_POINT('',(0.012525,-0.01655,0.004875));
#435=CARTESIAN_POINT('',(0.012525,-0.01655,0.004875));
#436=CARTESIAN_POINT('',(0.012525,-0.01655,0.0277));
#437=CARTESIAN_POINT('',(0.012525,-0.01655,0.050525));
#438=CARTESIAN_POINT('',(0.012525,-0.01655,0.050525));
#439=CARTESIAN_POINT('',(0.,-0.01655,0.004875));
#440=CARTESIAN_POINT('',(0.00495,0.00495,0.004875));
#441=CARTESIAN_POINT('',(0.0035,0.00495,0.004875));
#442=CARTESIAN_POINT('',(-0.00495,-0.00495,0.004875));
#443=CARTESIAN_POINT('',(-0.0064,-0.00495,0.004875));
#444=CARTESIAN_POINT('',(-0.00495,0.00495,0.004875));
#445=CARTESIAN_POINT('',(-0.0064,0.00495,0.004875));
#446=CARTESIAN_POINT('',(0.00495,-0.00495,0.004875));
#447=CARTESIAN_POINT('',(0.0035,-0.00495,0.004875));
#448=CARTESIAN_POINT('',(-0.012525,-0.01655,0.004875));
#449=CARTESIAN_POINT('',(-0.012525,-0.01655,0.004875));
#450=CARTESIAN_POINT('',(0.,-0.01655,0.004875));
#451=CARTESIAN_POINT('',(-0.012525,-0.01655,0.0277));
#452=CARTESIAN_POINT('',(-0.012525,-0.01655,0.050525));
#453=CARTESIAN_POINT('',(-0.012525,-0.01655,0.050525));
#454=CARTESIAN_POINT('',(-0.012525,-0.01655,0.0277));
#455=CARTESIAN_POINT('',(0.,-0.01655,0.050525));
#456=CARTESIAN_POINT('',(0.,-0.01655,0.050525));
#457=CARTESIAN_POINT('',(0.,-0.01655,0.026));
#458=CARTESIAN_POINT('',(0.00495,-0.00495,0.005));
#459=CARTESIAN_POINT('',(-0.00495,0.00495,0.005));
#460=CARTESIAN_POINT('',(-0.00495,-0.00495,0.005));
#461=CARTESIAN_POINT('',(0.00495,0.00495,0.005));
#462=MECHANICAL_DESIGN_GEOMETRIC_PRESENTATION_REPRESENTATION('',(#283),
#463);
#463=(
GEOMETRIC_REPRESENTATION_CONTEXT(3)
GLOBAL_UNCERTAINTY_ASSIGNED_CONTEXT((#464))
GLOBAL_UNIT_ASSIGNED_CONTEXT((#467,#466,#465))
REPRESENTATION_CONTEXT('Part 1','TOP_LEVEL_ASSEMBLY_PART')
);
#464=UNCERTAINTY_MEASURE_WITH_UNIT(LENGTH_MEASURE(1.E-8),#467,
'DISTANCE_ACCURACY_VALUE','Maximum Tolerance applied to model');
#465=(
NAMED_UNIT(*)
SI_UNIT($,.STERADIAN.)
SOLID_ANGLE_UNIT()
);
#466=(
NAMED_UNIT(*)
PLANE_ANGLE_UNIT()
SI_UNIT($,.RADIAN.)
);
#467=(
LENGTH_UNIT()
NAMED_UNIT(*)
SI_UNIT($,.METRE.)
);
#468=PRODUCT_DEFINITION_SHAPE('','',#469);
#469=PRODUCT_DEFINITION('','',#471,#470);
#470=PRODUCT_DEFINITION_CONTEXT('',#477,'design');
#471=PRODUCT_DEFINITION_FORMATION_WITH_SPECIFIED_SOURCE('','',#473,
 .NOT_KNOWN.);
#472=PRODUCT_RELATED_PRODUCT_CATEGORY('','',(#473));
#473=PRODUCT('Part 1','Part 1','Part 1',(#475));
#474=PRODUCT_CATEGORY('','');
#475=PRODUCT_CONTEXT('',#477,'mechanical');
#476=APPLICATION_PROTOCOL_DEFINITION('international standard',
'automotive_design',2010,#477);
#477=APPLICATION_CONTEXT(
'core data for automotive mechanical design processes');
ENDSEC;
END-ISO-10303-21;
