ISO-10303-21;
HEADER;
/* Generated by software containing ST-Developer
 * from STEP Tools, Inc. (www.steptools.com) 
 */
/* OPTION: using custom renumber hook */

FILE_DESCRIPTION(
/* description */ ('STEP AP214',
'CAx-IF Rec.Pracs.---User Defined Attributes---1.5---2016-08-15'),
/* implementation_level */ '2;1');

FILE_NAME(
/* name */ '6a147ed5774d56fdd5a3945f',
/* time_stamp */ '2026-05-25T16:54:45Z',
/* author */ (''),
/* organization */ (''),
/* preprocessor_version */ 'ST-DEVELOPER v20',
/* originating_system */ 'ONSHAPE BY PTC INC, 1.215',
/* authorisation */ '  ');

FILE_SCHEMA (('AUTOMOTIVE_DESIGN {1 0 10303 214 3 1 1}'));
ENDSEC;

DATA;
#10=PROPERTY_DEFINITION_REPRESENTATION(#14,#12);
#11=PROPERTY_DEFINITION_REPRESENTATION(#15,#13);
#12=REPRESENTATION('',(#16),#1926);
#13=REPRESENTATION('',(#17),#1926);
#14=PROPERTY_DEFINITION('pmi validation property','',#1939);
#15=PROPERTY_DEFINITION('pmi validation property','',#1939);
#16=VALUE_REPRESENTATION_ITEM('number of annotations',COUNT_MEASURE(0.));
#17=VALUE_REPRESENTATION_ITEM('number of views',COUNT_MEASURE(0.));
#18=CONTEXT_DEPENDENT_SHAPE_REPRESENTATION(#26,#1941);
#19=CONTEXT_DEPENDENT_SHAPE_REPRESENTATION(#27,#1943);
#20=CONTEXT_DEPENDENT_SHAPE_REPRESENTATION(#28,#1945);
#21=CONTEXT_DEPENDENT_SHAPE_REPRESENTATION(#29,#1947);
#22=NEXT_ASSEMBLY_USAGE_OCCURRENCE('NAUO1','Part 1','Part 1',#1948,#1949,
'');
#23=NEXT_ASSEMBLY_USAGE_OCCURRENCE('NAUO2','Part 1','Part 1',#1948,#1950,
'');
#24=NEXT_ASSEMBLY_USAGE_OCCURRENCE('NAUO3','Part 1','Part 1',#1948,#1951,
'');
#25=NEXT_ASSEMBLY_USAGE_OCCURRENCE('NAUO4','Part 1','Part 1',#1948,#1952,
'');
#26=(
REPRESENTATION_RELATIONSHIP(' ',' ',#1179,#1178)
REPRESENTATION_RELATIONSHIP_WITH_TRANSFORMATION(#30)
SHAPE_REPRESENTATION_RELATIONSHIP()
);
#27=(
REPRESENTATION_RELATIONSHIP(' ',' ',#1180,#1178)
REPRESENTATION_RELATIONSHIP_WITH_TRANSFORMATION(#31)
SHAPE_REPRESENTATION_RELATIONSHIP()
);
#28=(
REPRESENTATION_RELATIONSHIP(' ',' ',#1181,#1178)
REPRESENTATION_RELATIONSHIP_WITH_TRANSFORMATION(#32)
SHAPE_REPRESENTATION_RELATIONSHIP()
);
#29=(
REPRESENTATION_RELATIONSHIP(' ',' ',#1182,#1178)
REPRESENTATION_RELATIONSHIP_WITH_TRANSFORMATION(#33)
SHAPE_REPRESENTATION_RELATIONSHIP()
);
#30=ITEM_DEFINED_TRANSFORMATION(' ',' ',#1183,#1211);
#31=ITEM_DEFINED_TRANSFORMATION(' ',' ',#1183,#1238);
#32=ITEM_DEFINED_TRANSFORMATION(' ',' ',#1183,#1262);
#33=ITEM_DEFINED_TRANSFORMATION(' ',' ',#1183,#1295);
#34=SHAPE_REPRESENTATION_RELATIONSHIP('','',#1179,#38);
#35=SHAPE_REPRESENTATION_RELATIONSHIP('','',#1180,#39);
#36=SHAPE_REPRESENTATION_RELATIONSHIP('','',#1181,#40);
#37=SHAPE_REPRESENTATION_RELATIONSHIP('','',#1182,#41);
#38=ADVANCED_BREP_SHAPE_REPRESENTATION('',(#1169),#1927);
#39=ADVANCED_BREP_SHAPE_REPRESENTATION('',(#1170),#1928);
#40=ADVANCED_BREP_SHAPE_REPRESENTATION('',(#1171),#1929);
#41=ADVANCED_BREP_SHAPE_REPRESENTATION('',(#1172),#1930);
#42=CYLINDRICAL_SURFACE('',#1194,0.00145);
#43=CYLINDRICAL_SURFACE('',#1197,0.00145);
#44=CYLINDRICAL_SURFACE('',#1200,0.00145);
#45=CYLINDRICAL_SURFACE('',#1203,0.00145);
#46=CYLINDRICAL_SURFACE('',#1223,0.00145);
#47=CYLINDRICAL_SURFACE('',#1226,0.00145);
#48=CYLINDRICAL_SURFACE('',#1229,0.00145);
#49=CYLINDRICAL_SURFACE('',#1232,0.00145);
#50=CYLINDRICAL_SURFACE('',#1235,0.002);
#51=CYLINDRICAL_SURFACE('',#1258,0.00145);
#52=CYLINDRICAL_SURFACE('',#1259,0.00145);
#53=CYLINDRICAL_SURFACE('',#1260,0.00145);
#54=CYLINDRICAL_SURFACE('',#1261,0.00145);
#55=CYLINDRICAL_SURFACE('',#1283,0.002);
#56=CYLINDRICAL_SURFACE('',#1286,0.002);
#57=CYLINDRICAL_SURFACE('',#1289,0.002);
#58=CYLINDRICAL_SURFACE('',#1292,0.002);
#59=CIRCLE('',#1190,0.00145);
#60=CIRCLE('',#1191,0.00145);
#61=CIRCLE('',#1192,0.00145);
#62=CIRCLE('',#1193,0.00145);
#63=CIRCLE('',#1195,0.00145);
#64=CIRCLE('',#1198,0.00145);
#65=CIRCLE('',#1201,0.00145);
#66=CIRCLE('',#1204,0.00145);
#67=CIRCLE('',#1217,0.00145);
#68=CIRCLE('',#1218,0.00145);
#69=CIRCLE('',#1219,0.00145);
#70=CIRCLE('',#1220,0.00145);
#71=CIRCLE('',#1222,0.002);
#72=CIRCLE('',#1224,0.00145);
#73=CIRCLE('',#1227,0.00145);
#74=CIRCLE('',#1230,0.00145);
#75=CIRCLE('',#1233,0.00145);
#76=CIRCLE('',#1236,0.002);
#77=CIRCLE('',#1245,0.00145);
#78=CIRCLE('',#1246,0.00145);
#79=CIRCLE('',#1247,0.00145);
#80=CIRCLE('',#1248,0.00145);
#81=CIRCLE('',#1251,0.00145);
#82=CIRCLE('',#1252,0.00145);
#83=CIRCLE('',#1253,0.00145);
#84=CIRCLE('',#1254,0.00145);
#85=CIRCLE('',#1269,0.002);
#86=CIRCLE('',#1270,0.002);
#87=CIRCLE('',#1271,0.002);
#88=CIRCLE('',#1272,0.002);
#89=CIRCLE('',#1284,0.002);
#90=CIRCLE('',#1287,0.002);
#91=CIRCLE('',#1290,0.002);
#92=CIRCLE('',#1293,0.002);
#93=ORIENTED_EDGE('',*,*,#353,.T.);
#94=ORIENTED_EDGE('',*,*,#354,.F.);
#95=ORIENTED_EDGE('',*,*,#355,.F.);
#96=ORIENTED_EDGE('',*,*,#356,.T.);
#97=ORIENTED_EDGE('',*,*,#357,.T.);
#98=ORIENTED_EDGE('',*,*,#358,.F.);
#99=ORIENTED_EDGE('',*,*,#359,.F.);
#100=ORIENTED_EDGE('',*,*,#354,.T.);
#101=ORIENTED_EDGE('',*,*,#360,.T.);
#102=ORIENTED_EDGE('',*,*,#361,.F.);
#103=ORIENTED_EDGE('',*,*,#362,.F.);
#104=ORIENTED_EDGE('',*,*,#358,.T.);
#105=ORIENTED_EDGE('',*,*,#363,.F.);
#106=ORIENTED_EDGE('',*,*,#364,.F.);
#107=ORIENTED_EDGE('',*,*,#365,.F.);
#108=ORIENTED_EDGE('',*,*,#366,.F.);
#109=ORIENTED_EDGE('',*,*,#367,.T.);
#110=ORIENTED_EDGE('',*,*,#356,.F.);
#111=ORIENTED_EDGE('',*,*,#368,.F.);
#112=ORIENTED_EDGE('',*,*,#361,.T.);
#113=ORIENTED_EDGE('',*,*,#355,.T.);
#114=ORIENTED_EDGE('',*,*,#359,.T.);
#115=ORIENTED_EDGE('',*,*,#362,.T.);
#116=ORIENTED_EDGE('',*,*,#368,.T.);
#117=ORIENTED_EDGE('',*,*,#369,.F.);
#118=ORIENTED_EDGE('',*,*,#370,.F.);
#119=ORIENTED_EDGE('',*,*,#371,.F.);
#120=ORIENTED_EDGE('',*,*,#372,.F.);
#121=ORIENTED_EDGE('',*,*,#353,.F.);
#122=ORIENTED_EDGE('',*,*,#367,.F.);
#123=ORIENTED_EDGE('',*,*,#360,.F.);
#124=ORIENTED_EDGE('',*,*,#357,.F.);
#125=ORIENTED_EDGE('',*,*,#373,.F.);
#126=ORIENTED_EDGE('',*,*,#372,.T.);
#127=ORIENTED_EDGE('',*,*,#373,.T.);
#128=ORIENTED_EDGE('',*,*,#374,.F.);
#129=ORIENTED_EDGE('',*,*,#371,.T.);
#130=ORIENTED_EDGE('',*,*,#374,.T.);
#131=ORIENTED_EDGE('',*,*,#375,.F.);
#132=ORIENTED_EDGE('',*,*,#370,.T.);
#133=ORIENTED_EDGE('',*,*,#375,.T.);
#134=ORIENTED_EDGE('',*,*,#376,.F.);
#135=ORIENTED_EDGE('',*,*,#369,.T.);
#136=ORIENTED_EDGE('',*,*,#376,.T.);
#137=ORIENTED_EDGE('',*,*,#364,.T.);
#138=ORIENTED_EDGE('',*,*,#377,.F.);
#139=ORIENTED_EDGE('',*,*,#378,.F.);
#140=ORIENTED_EDGE('',*,*,#379,.T.);
#141=ORIENTED_EDGE('',*,*,#363,.T.);
#142=ORIENTED_EDGE('',*,*,#380,.F.);
#143=ORIENTED_EDGE('',*,*,#381,.F.);
#144=ORIENTED_EDGE('',*,*,#377,.T.);
#145=ORIENTED_EDGE('',*,*,#366,.T.);
#146=ORIENTED_EDGE('',*,*,#382,.F.);
#147=ORIENTED_EDGE('',*,*,#383,.F.);
#148=ORIENTED_EDGE('',*,*,#380,.T.);
#149=ORIENTED_EDGE('',*,*,#365,.T.);
#150=ORIENTED_EDGE('',*,*,#379,.F.);
#151=ORIENTED_EDGE('',*,*,#384,.F.);
#152=ORIENTED_EDGE('',*,*,#382,.T.);
#153=ORIENTED_EDGE('',*,*,#378,.T.);
#154=ORIENTED_EDGE('',*,*,#381,.T.);
#155=ORIENTED_EDGE('',*,*,#383,.T.);
#156=ORIENTED_EDGE('',*,*,#384,.T.);
#157=ORIENTED_EDGE('',*,*,#385,.T.);
#158=ORIENTED_EDGE('',*,*,#386,.F.);
#159=ORIENTED_EDGE('',*,*,#387,.F.);
#160=ORIENTED_EDGE('',*,*,#388,.T.);
#161=ORIENTED_EDGE('',*,*,#389,.T.);
#162=ORIENTED_EDGE('',*,*,#390,.F.);
#163=ORIENTED_EDGE('',*,*,#391,.F.);
#164=ORIENTED_EDGE('',*,*,#386,.T.);
#165=ORIENTED_EDGE('',*,*,#392,.T.);
#166=ORIENTED_EDGE('',*,*,#393,.F.);
#167=ORIENTED_EDGE('',*,*,#394,.F.);
#168=ORIENTED_EDGE('',*,*,#390,.T.);
#169=ORIENTED_EDGE('',*,*,#395,.T.);
#170=ORIENTED_EDGE('',*,*,#388,.F.);
#171=ORIENTED_EDGE('',*,*,#396,.F.);
#172=ORIENTED_EDGE('',*,*,#393,.T.);
#173=ORIENTED_EDGE('',*,*,#397,.F.);
#174=ORIENTED_EDGE('',*,*,#398,.F.);
#175=ORIENTED_EDGE('',*,*,#399,.F.);
#176=ORIENTED_EDGE('',*,*,#400,.F.);
#177=ORIENTED_EDGE('',*,*,#387,.T.);
#178=ORIENTED_EDGE('',*,*,#391,.T.);
#179=ORIENTED_EDGE('',*,*,#394,.T.);
#180=ORIENTED_EDGE('',*,*,#396,.T.);
#181=ORIENTED_EDGE('',*,*,#401,.F.);
#182=ORIENTED_EDGE('',*,*,#385,.F.);
#183=ORIENTED_EDGE('',*,*,#395,.F.);
#184=ORIENTED_EDGE('',*,*,#392,.F.);
#185=ORIENTED_EDGE('',*,*,#389,.F.);
#186=ORIENTED_EDGE('',*,*,#402,.F.);
#187=ORIENTED_EDGE('',*,*,#400,.T.);
#188=ORIENTED_EDGE('',*,*,#402,.T.);
#189=ORIENTED_EDGE('',*,*,#403,.F.);
#190=ORIENTED_EDGE('',*,*,#399,.T.);
#191=ORIENTED_EDGE('',*,*,#403,.T.);
#192=ORIENTED_EDGE('',*,*,#404,.F.);
#193=ORIENTED_EDGE('',*,*,#398,.T.);
#194=ORIENTED_EDGE('',*,*,#404,.T.);
#195=ORIENTED_EDGE('',*,*,#405,.F.);
#196=ORIENTED_EDGE('',*,*,#397,.T.);
#197=ORIENTED_EDGE('',*,*,#405,.T.);
#198=ORIENTED_EDGE('',*,*,#406,.F.);
#199=ORIENTED_EDGE('',*,*,#401,.T.);
#200=ORIENTED_EDGE('',*,*,#406,.T.);
#201=ORIENTED_EDGE('',*,*,#407,.T.);
#202=ORIENTED_EDGE('',*,*,#408,.F.);
#203=ORIENTED_EDGE('',*,*,#409,.F.);
#204=ORIENTED_EDGE('',*,*,#410,.T.);
#205=ORIENTED_EDGE('',*,*,#411,.T.);
#206=ORIENTED_EDGE('',*,*,#412,.F.);
#207=ORIENTED_EDGE('',*,*,#413,.F.);
#208=ORIENTED_EDGE('',*,*,#408,.T.);
#209=ORIENTED_EDGE('',*,*,#414,.T.);
#210=ORIENTED_EDGE('',*,*,#415,.F.);
#211=ORIENTED_EDGE('',*,*,#416,.F.);
#212=ORIENTED_EDGE('',*,*,#412,.T.);
#213=ORIENTED_EDGE('',*,*,#417,.F.);
#214=ORIENTED_EDGE('',*,*,#418,.F.);
#215=ORIENTED_EDGE('',*,*,#419,.F.);
#216=ORIENTED_EDGE('',*,*,#420,.F.);
#217=ORIENTED_EDGE('',*,*,#421,.T.);
#218=ORIENTED_EDGE('',*,*,#410,.F.);
#219=ORIENTED_EDGE('',*,*,#422,.F.);
#220=ORIENTED_EDGE('',*,*,#415,.T.);
#221=ORIENTED_EDGE('',*,*,#409,.T.);
#222=ORIENTED_EDGE('',*,*,#413,.T.);
#223=ORIENTED_EDGE('',*,*,#416,.T.);
#224=ORIENTED_EDGE('',*,*,#422,.T.);
#225=ORIENTED_EDGE('',*,*,#423,.F.);
#226=ORIENTED_EDGE('',*,*,#424,.F.);
#227=ORIENTED_EDGE('',*,*,#425,.F.);
#228=ORIENTED_EDGE('',*,*,#426,.F.);
#229=ORIENTED_EDGE('',*,*,#407,.F.);
#230=ORIENTED_EDGE('',*,*,#421,.F.);
#231=ORIENTED_EDGE('',*,*,#414,.F.);
#232=ORIENTED_EDGE('',*,*,#411,.F.);
#233=ORIENTED_EDGE('',*,*,#418,.T.);
#234=ORIENTED_EDGE('',*,*,#427,.F.);
#235=ORIENTED_EDGE('',*,*,#428,.F.);
#236=ORIENTED_EDGE('',*,*,#429,.T.);
#237=ORIENTED_EDGE('',*,*,#430,.T.);
#238=ORIENTED_EDGE('',*,*,#431,.T.);
#239=ORIENTED_EDGE('',*,*,#432,.T.);
#240=ORIENTED_EDGE('',*,*,#433,.T.);
#241=ORIENTED_EDGE('',*,*,#417,.T.);
#242=ORIENTED_EDGE('',*,*,#434,.F.);
#243=ORIENTED_EDGE('',*,*,#435,.F.);
#244=ORIENTED_EDGE('',*,*,#427,.T.);
#245=ORIENTED_EDGE('',*,*,#420,.T.);
#246=ORIENTED_EDGE('',*,*,#436,.F.);
#247=ORIENTED_EDGE('',*,*,#437,.F.);
#248=ORIENTED_EDGE('',*,*,#434,.T.);
#249=ORIENTED_EDGE('',*,*,#419,.T.);
#250=ORIENTED_EDGE('',*,*,#429,.F.);
#251=ORIENTED_EDGE('',*,*,#438,.F.);
#252=ORIENTED_EDGE('',*,*,#436,.T.);
#253=ORIENTED_EDGE('',*,*,#428,.T.);
#254=ORIENTED_EDGE('',*,*,#435,.T.);
#255=ORIENTED_EDGE('',*,*,#437,.T.);
#256=ORIENTED_EDGE('',*,*,#438,.T.);
#257=ORIENTED_EDGE('',*,*,#426,.T.);
#258=ORIENTED_EDGE('',*,*,#433,.F.);
#259=ORIENTED_EDGE('',*,*,#425,.T.);
#260=ORIENTED_EDGE('',*,*,#432,.F.);
#261=ORIENTED_EDGE('',*,*,#424,.T.);
#262=ORIENTED_EDGE('',*,*,#431,.F.);
#263=ORIENTED_EDGE('',*,*,#423,.T.);
#264=ORIENTED_EDGE('',*,*,#430,.F.);
#265=ORIENTED_EDGE('',*,*,#439,.T.);
#266=ORIENTED_EDGE('',*,*,#440,.F.);
#267=ORIENTED_EDGE('',*,*,#441,.F.);
#268=ORIENTED_EDGE('',*,*,#442,.T.);
#269=ORIENTED_EDGE('',*,*,#443,.T.);
#270=ORIENTED_EDGE('',*,*,#444,.F.);
#271=ORIENTED_EDGE('',*,*,#445,.F.);
#272=ORIENTED_EDGE('',*,*,#440,.T.);
#273=ORIENTED_EDGE('',*,*,#446,.T.);
#274=ORIENTED_EDGE('',*,*,#447,.F.);
#275=ORIENTED_EDGE('',*,*,#448,.F.);
#276=ORIENTED_EDGE('',*,*,#444,.T.);
#277=ORIENTED_EDGE('',*,*,#449,.T.);
#278=ORIENTED_EDGE('',*,*,#442,.F.);
#279=ORIENTED_EDGE('',*,*,#450,.F.);
#280=ORIENTED_EDGE('',*,*,#447,.T.);
#281=ORIENTED_EDGE('',*,*,#451,.F.);
#282=ORIENTED_EDGE('',*,*,#452,.F.);
#283=ORIENTED_EDGE('',*,*,#453,.F.);
#284=ORIENTED_EDGE('',*,*,#454,.F.);
#285=ORIENTED_EDGE('',*,*,#441,.T.);
#286=ORIENTED_EDGE('',*,*,#445,.T.);
#287=ORIENTED_EDGE('',*,*,#448,.T.);
#288=ORIENTED_EDGE('',*,*,#450,.T.);
#289=ORIENTED_EDGE('',*,*,#455,.F.);
#290=ORIENTED_EDGE('',*,*,#456,.F.);
#291=ORIENTED_EDGE('',*,*,#457,.F.);
#292=ORIENTED_EDGE('',*,*,#458,.F.);
#293=ORIENTED_EDGE('',*,*,#439,.F.);
#294=ORIENTED_EDGE('',*,*,#449,.F.);
#295=ORIENTED_EDGE('',*,*,#446,.F.);
#296=ORIENTED_EDGE('',*,*,#443,.F.);
#297=ORIENTED_EDGE('',*,*,#451,.T.);
#298=ORIENTED_EDGE('',*,*,#459,.F.);
#299=ORIENTED_EDGE('',*,*,#460,.F.);
#300=ORIENTED_EDGE('',*,*,#461,.T.);
#301=ORIENTED_EDGE('',*,*,#454,.T.);
#302=ORIENTED_EDGE('',*,*,#462,.F.);
#303=ORIENTED_EDGE('',*,*,#463,.F.);
#304=ORIENTED_EDGE('',*,*,#459,.T.);
#305=ORIENTED_EDGE('',*,*,#453,.T.);
#306=ORIENTED_EDGE('',*,*,#464,.F.);
#307=ORIENTED_EDGE('',*,*,#465,.F.);
#308=ORIENTED_EDGE('',*,*,#462,.T.);
#309=ORIENTED_EDGE('',*,*,#452,.T.);
#310=ORIENTED_EDGE('',*,*,#461,.F.);
#311=ORIENTED_EDGE('',*,*,#466,.F.);
#312=ORIENTED_EDGE('',*,*,#464,.T.);
#313=ORIENTED_EDGE('',*,*,#467,.F.);
#314=ORIENTED_EDGE('',*,*,#468,.F.);
#315=ORIENTED_EDGE('',*,*,#469,.F.);
#316=ORIENTED_EDGE('',*,*,#470,.F.);
#317=ORIENTED_EDGE('',*,*,#460,.T.);
#318=ORIENTED_EDGE('',*,*,#463,.T.);
#319=ORIENTED_EDGE('',*,*,#465,.T.);
#320=ORIENTED_EDGE('',*,*,#466,.T.);
#321=ORIENTED_EDGE('',*,*,#467,.T.);
#322=ORIENTED_EDGE('',*,*,#471,.F.);
#323=ORIENTED_EDGE('',*,*,#472,.F.);
#324=ORIENTED_EDGE('',*,*,#473,.T.);
#325=ORIENTED_EDGE('',*,*,#470,.T.);
#326=ORIENTED_EDGE('',*,*,#474,.F.);
#327=ORIENTED_EDGE('',*,*,#475,.F.);
#328=ORIENTED_EDGE('',*,*,#471,.T.);
#329=ORIENTED_EDGE('',*,*,#469,.T.);
#330=ORIENTED_EDGE('',*,*,#476,.F.);
#331=ORIENTED_EDGE('',*,*,#477,.F.);
#332=ORIENTED_EDGE('',*,*,#474,.T.);
#333=ORIENTED_EDGE('',*,*,#468,.T.);
#334=ORIENTED_EDGE('',*,*,#473,.F.);
#335=ORIENTED_EDGE('',*,*,#478,.F.);
#336=ORIENTED_EDGE('',*,*,#476,.T.);
#337=ORIENTED_EDGE('',*,*,#472,.T.);
#338=ORIENTED_EDGE('',*,*,#475,.T.);
#339=ORIENTED_EDGE('',*,*,#477,.T.);
#340=ORIENTED_EDGE('',*,*,#478,.T.);
#341=ORIENTED_EDGE('',*,*,#479,.F.);
#342=ORIENTED_EDGE('',*,*,#458,.T.);
#343=ORIENTED_EDGE('',*,*,#479,.T.);
#344=ORIENTED_EDGE('',*,*,#480,.F.);
#345=ORIENTED_EDGE('',*,*,#457,.T.);
#346=ORIENTED_EDGE('',*,*,#480,.T.);
#347=ORIENTED_EDGE('',*,*,#481,.F.);
#348=ORIENTED_EDGE('',*,*,#456,.T.);
#349=ORIENTED_EDGE('',*,*,#481,.T.);
#350=ORIENTED_EDGE('',*,*,#482,.F.);
#351=ORIENTED_EDGE('',*,*,#455,.T.);
#352=ORIENTED_EDGE('',*,*,#482,.T.);
#353=EDGE_CURVE('',#483,#484,#581,.T.);
#354=EDGE_CURVE('',#485,#484,#582,.T.);
#355=EDGE_CURVE('',#486,#485,#583,.T.);
#356=EDGE_CURVE('',#486,#483,#584,.T.);
#357=EDGE_CURVE('',#484,#487,#585,.T.);
#358=EDGE_CURVE('',#488,#487,#586,.T.);
#359=EDGE_CURVE('',#485,#488,#587,.T.);
#360=EDGE_CURVE('',#487,#489,#588,.T.);
#361=EDGE_CURVE('',#490,#489,#589,.T.);
#362=EDGE_CURVE('',#488,#490,#590,.T.);
#363=EDGE_CURVE('',#491,#492,#591,.T.);
#364=EDGE_CURVE('',#493,#491,#592,.T.);
#365=EDGE_CURVE('',#494,#493,#593,.T.);
#366=EDGE_CURVE('',#492,#494,#594,.T.);
#367=EDGE_CURVE('',#489,#483,#595,.T.);
#368=EDGE_CURVE('',#490,#486,#596,.T.);
#369=EDGE_CURVE('',#495,#495,#59,.T.);
#370=EDGE_CURVE('',#496,#496,#60,.T.);
#371=EDGE_CURVE('',#497,#497,#61,.T.);
#372=EDGE_CURVE('',#498,#498,#62,.T.);
#373=EDGE_CURVE('',#499,#499,#63,.T.);
#374=EDGE_CURVE('',#500,#500,#64,.T.);
#375=EDGE_CURVE('',#501,#501,#65,.T.);
#376=EDGE_CURVE('',#502,#502,#66,.T.);
#377=EDGE_CURVE('',#503,#491,#597,.T.);
#378=EDGE_CURVE('',#504,#503,#598,.T.);
#379=EDGE_CURVE('',#504,#493,#599,.T.);
#380=EDGE_CURVE('',#505,#492,#600,.T.);
#381=EDGE_CURVE('',#503,#505,#601,.T.);
#382=EDGE_CURVE('',#506,#494,#602,.T.);
#383=EDGE_CURVE('',#505,#506,#603,.T.);
#384=EDGE_CURVE('',#506,#504,#604,.T.);
#385=EDGE_CURVE('',#507,#508,#605,.T.);
#386=EDGE_CURVE('',#509,#508,#606,.T.);
#387=EDGE_CURVE('',#510,#509,#607,.T.);
#388=EDGE_CURVE('',#510,#507,#608,.T.);
#389=EDGE_CURVE('',#508,#511,#609,.T.);
#390=EDGE_CURVE('',#512,#511,#610,.T.);
#391=EDGE_CURVE('',#509,#512,#611,.T.);
#392=EDGE_CURVE('',#511,#513,#612,.T.);
#393=EDGE_CURVE('',#514,#513,#613,.T.);
#394=EDGE_CURVE('',#512,#514,#614,.T.);
#395=EDGE_CURVE('',#513,#507,#615,.T.);
#396=EDGE_CURVE('',#514,#510,#616,.T.);
#397=EDGE_CURVE('',#515,#515,#67,.T.);
#398=EDGE_CURVE('',#516,#516,#68,.T.);
#399=EDGE_CURVE('',#517,#517,#69,.T.);
#400=EDGE_CURVE('',#518,#518,#70,.T.);
#401=EDGE_CURVE('',#519,#519,#71,.T.);
#402=EDGE_CURVE('',#520,#520,#72,.T.);
#403=EDGE_CURVE('',#521,#521,#73,.T.);
#404=EDGE_CURVE('',#522,#522,#74,.T.);
#405=EDGE_CURVE('',#523,#523,#75,.T.);
#406=EDGE_CURVE('',#524,#524,#76,.T.);
#407=EDGE_CURVE('',#525,#526,#617,.T.);
#408=EDGE_CURVE('',#527,#526,#618,.T.);
#409=EDGE_CURVE('',#528,#527,#619,.T.);
#410=EDGE_CURVE('',#528,#525,#620,.T.);
#411=EDGE_CURVE('',#526,#529,#621,.T.);
#412=EDGE_CURVE('',#530,#529,#622,.T.);
#413=EDGE_CURVE('',#527,#530,#623,.T.);
#414=EDGE_CURVE('',#529,#531,#624,.T.);
#415=EDGE_CURVE('',#532,#531,#625,.T.);
#416=EDGE_CURVE('',#530,#532,#626,.T.);
#417=EDGE_CURVE('',#533,#534,#627,.T.);
#418=EDGE_CURVE('',#535,#533,#628,.T.);
#419=EDGE_CURVE('',#536,#535,#629,.T.);
#420=EDGE_CURVE('',#534,#536,#630,.T.);
#421=EDGE_CURVE('',#531,#525,#631,.T.);
#422=EDGE_CURVE('',#532,#528,#632,.T.);
#423=EDGE_CURVE('',#537,#537,#77,.T.);
#424=EDGE_CURVE('',#538,#538,#78,.T.);
#425=EDGE_CURVE('',#539,#539,#79,.T.);
#426=EDGE_CURVE('',#540,#540,#80,.T.);
#427=EDGE_CURVE('',#541,#533,#633,.T.);
#428=EDGE_CURVE('',#542,#541,#634,.T.);
#429=EDGE_CURVE('',#542,#535,#635,.T.);
#430=EDGE_CURVE('',#543,#543,#81,.T.);
#431=EDGE_CURVE('',#544,#544,#82,.T.);
#432=EDGE_CURVE('',#545,#545,#83,.T.);
#433=EDGE_CURVE('',#546,#546,#84,.T.);
#434=EDGE_CURVE('',#547,#534,#636,.T.);
#435=EDGE_CURVE('',#541,#547,#637,.T.);
#436=EDGE_CURVE('',#548,#536,#638,.T.);
#437=EDGE_CURVE('',#547,#548,#639,.T.);
#438=EDGE_CURVE('',#548,#542,#640,.T.);
#439=EDGE_CURVE('',#549,#550,#641,.T.);
#440=EDGE_CURVE('',#551,#550,#642,.T.);
#441=EDGE_CURVE('',#552,#551,#643,.T.);
#442=EDGE_CURVE('',#552,#549,#644,.T.);
#443=EDGE_CURVE('',#550,#553,#645,.T.);
#444=EDGE_CURVE('',#554,#553,#646,.T.);
#445=EDGE_CURVE('',#551,#554,#647,.T.);
#446=EDGE_CURVE('',#553,#555,#648,.T.);
#447=EDGE_CURVE('',#556,#555,#649,.T.);
#448=EDGE_CURVE('',#554,#556,#650,.T.);
#449=EDGE_CURVE('',#555,#549,#651,.T.);
#450=EDGE_CURVE('',#556,#552,#652,.T.);
#451=EDGE_CURVE('',#557,#558,#653,.T.);
#452=EDGE_CURVE('',#559,#557,#654,.T.);
#453=EDGE_CURVE('',#560,#559,#655,.T.);
#454=EDGE_CURVE('',#558,#560,#656,.T.);
#455=EDGE_CURVE('',#561,#561,#85,.T.);
#456=EDGE_CURVE('',#562,#562,#86,.T.);
#457=EDGE_CURVE('',#563,#563,#87,.T.);
#458=EDGE_CURVE('',#564,#564,#88,.T.);
#459=EDGE_CURVE('',#565,#558,#657,.T.);
#460=EDGE_CURVE('',#566,#565,#658,.T.);
#461=EDGE_CURVE('',#566,#557,#659,.T.);
#462=EDGE_CURVE('',#567,#560,#660,.T.);
#463=EDGE_CURVE('',#565,#567,#661,.T.);
#464=EDGE_CURVE('',#568,#559,#662,.T.);
#465=EDGE_CURVE('',#567,#568,#663,.T.);
#466=EDGE_CURVE('',#568,#566,#664,.T.);
#467=EDGE_CURVE('',#569,#570,#665,.T.);
#468=EDGE_CURVE('',#571,#569,#666,.T.);
#469=EDGE_CURVE('',#572,#571,#667,.T.);
#470=EDGE_CURVE('',#570,#572,#668,.T.);
#471=EDGE_CURVE('',#573,#570,#669,.T.);
#472=EDGE_CURVE('',#574,#573,#670,.T.);
#473=EDGE_CURVE('',#574,#569,#671,.T.);
#474=EDGE_CURVE('',#575,#572,#672,.T.);
#475=EDGE_CURVE('',#573,#575,#673,.T.);
#476=EDGE_CURVE('',#576,#571,#674,.T.);
#477=EDGE_CURVE('',#575,#576,#675,.T.);
#478=EDGE_CURVE('',#576,#574,#676,.T.);
#479=EDGE_CURVE('',#577,#577,#89,.T.);
#480=EDGE_CURVE('',#578,#578,#90,.T.);
#481=EDGE_CURVE('',#579,#579,#91,.T.);
#482=EDGE_CURVE('',#580,#580,#92,.T.);
#483=VERTEX_POINT('',#1621);
#484=VERTEX_POINT('',#1622);
#485=VERTEX_POINT('',#1624);
#486=VERTEX_POINT('',#1626);
#487=VERTEX_POINT('',#1630);
#488=VERTEX_POINT('',#1632);
#489=VERTEX_POINT('',#1636);
#490=VERTEX_POINT('',#1638);
#491=VERTEX_POINT('',#1642);
#492=VERTEX_POINT('',#1643);
#493=VERTEX_POINT('',#1645);
#494=VERTEX_POINT('',#1647);
#495=VERTEX_POINT('',#1654);
#496=VERTEX_POINT('',#1656);
#497=VERTEX_POINT('',#1658);
#498=VERTEX_POINT('',#1660);
#499=VERTEX_POINT('',#1663);
#500=VERTEX_POINT('',#1667);
#501=VERTEX_POINT('',#1671);
#502=VERTEX_POINT('',#1675);
#503=VERTEX_POINT('',#1679);
#504=VERTEX_POINT('',#1681);
#505=VERTEX_POINT('',#1685);
#506=VERTEX_POINT('',#1689);
#507=VERTEX_POINT('',#1697);
#508=VERTEX_POINT('',#1698);
#509=VERTEX_POINT('',#1700);
#510=VERTEX_POINT('',#1702);
#511=VERTEX_POINT('',#1706);
#512=VERTEX_POINT('',#1708);
#513=VERTEX_POINT('',#1712);
#514=VERTEX_POINT('',#1714);
#515=VERTEX_POINT('',#1721);
#516=VERTEX_POINT('',#1723);
#517=VERTEX_POINT('',#1725);
#518=VERTEX_POINT('',#1727);
#519=VERTEX_POINT('',#1730);
#520=VERTEX_POINT('',#1733);
#521=VERTEX_POINT('',#1737);
#522=VERTEX_POINT('',#1741);
#523=VERTEX_POINT('',#1745);
#524=VERTEX_POINT('',#1749);
#525=VERTEX_POINT('',#1754);
#526=VERTEX_POINT('',#1755);
#527=VERTEX_POINT('',#1757);
#528=VERTEX_POINT('',#1759);
#529=VERTEX_POINT('',#1763);
#530=VERTEX_POINT('',#1765);
#531=VERTEX_POINT('',#1769);
#532=VERTEX_POINT('',#1771);
#533=VERTEX_POINT('',#1775);
#534=VERTEX_POINT('',#1776);
#535=VERTEX_POINT('',#1778);
#536=VERTEX_POINT('',#1780);
#537=VERTEX_POINT('',#1787);
#538=VERTEX_POINT('',#1789);
#539=VERTEX_POINT('',#1791);
#540=VERTEX_POINT('',#1793);
#541=VERTEX_POINT('',#1796);
#542=VERTEX_POINT('',#1798);
#543=VERTEX_POINT('',#1802);
#544=VERTEX_POINT('',#1804);
#545=VERTEX_POINT('',#1806);
#546=VERTEX_POINT('',#1808);
#547=VERTEX_POINT('',#1810);
#548=VERTEX_POINT('',#1814);
#549=VERTEX_POINT('',#1826);
#550=VERTEX_POINT('',#1827);
#551=VERTEX_POINT('',#1829);
#552=VERTEX_POINT('',#1831);
#553=VERTEX_POINT('',#1835);
#554=VERTEX_POINT('',#1837);
#555=VERTEX_POINT('',#1841);
#556=VERTEX_POINT('',#1843);
#557=VERTEX_POINT('',#1850);
#558=VERTEX_POINT('',#1851);
#559=VERTEX_POINT('',#1853);
#560=VERTEX_POINT('',#1855);
#561=VERTEX_POINT('',#1859);
#562=VERTEX_POINT('',#1861);
#563=VERTEX_POINT('',#1863);
#564=VERTEX_POINT('',#1865);
#565=VERTEX_POINT('',#1868);
#566=VERTEX_POINT('',#1870);
#567=VERTEX_POINT('',#1874);
#568=VERTEX_POINT('',#1878);
#569=VERTEX_POINT('',#1884);
#570=VERTEX_POINT('',#1885);
#571=VERTEX_POINT('',#1887);
#572=VERTEX_POINT('',#1889);
#573=VERTEX_POINT('',#1893);
#574=VERTEX_POINT('',#1895);
#575=VERTEX_POINT('',#1899);
#576=VERTEX_POINT('',#1903);
#577=VERTEX_POINT('',#1910);
#578=VERTEX_POINT('',#1914);
#579=VERTEX_POINT('',#1918);
#580=VERTEX_POINT('',#1922);
#581=LINE('',#1620,#677);
#582=LINE('',#1623,#678);
#583=LINE('',#1625,#679);
#584=LINE('',#1627,#680);
#585=LINE('',#1629,#681);
#586=LINE('',#1631,#682);
#587=LINE('',#1633,#683);
#588=LINE('',#1635,#684);
#589=LINE('',#1637,#685);
#590=LINE('',#1639,#686);
#591=LINE('',#1641,#687);
#592=LINE('',#1644,#688);
#593=LINE('',#1646,#689);
#594=LINE('',#1648,#690);
#595=LINE('',#1649,#691);
#596=LINE('',#1650,#692);
#597=LINE('',#1678,#693);
#598=LINE('',#1680,#694);
#599=LINE('',#1682,#695);
#600=LINE('',#1684,#696);
#601=LINE('',#1686,#697);
#602=LINE('',#1688,#698);
#603=LINE('',#1690,#699);
#604=LINE('',#1692,#700);
#605=LINE('',#1696,#701);
#606=LINE('',#1699,#702);
#607=LINE('',#1701,#703);
#608=LINE('',#1703,#704);
#609=LINE('',#1705,#705);
#610=LINE('',#1707,#706);
#611=LINE('',#1709,#707);
#612=LINE('',#1711,#708);
#613=LINE('',#1713,#709);
#614=LINE('',#1715,#710);
#615=LINE('',#1717,#711);
#616=LINE('',#1718,#712);
#617=LINE('',#1753,#713);
#618=LINE('',#1756,#714);
#619=LINE('',#1758,#715);
#620=LINE('',#1760,#716);
#621=LINE('',#1762,#717);
#622=LINE('',#1764,#718);
#623=LINE('',#1766,#719);
#624=LINE('',#1768,#720);
#625=LINE('',#1770,#721);
#626=LINE('',#1772,#722);
#627=LINE('',#1774,#723);
#628=LINE('',#1777,#724);
#629=LINE('',#1779,#725);
#630=LINE('',#1781,#726);
#631=LINE('',#1782,#727);
#632=LINE('',#1783,#728);
#633=LINE('',#1795,#729);
#634=LINE('',#1797,#730);
#635=LINE('',#1799,#731);
#636=LINE('',#1809,#732);
#637=LINE('',#1811,#733);
#638=LINE('',#1813,#734);
#639=LINE('',#1815,#735);
#640=LINE('',#1817,#736);
#641=LINE('',#1825,#737);
#642=LINE('',#1828,#738);
#643=LINE('',#1830,#739);
#644=LINE('',#1832,#740);
#645=LINE('',#1834,#741);
#646=LINE('',#1836,#742);
#647=LINE('',#1838,#743);
#648=LINE('',#1840,#744);
#649=LINE('',#1842,#745);
#650=LINE('',#1844,#746);
#651=LINE('',#1846,#747);
#652=LINE('',#1847,#748);
#653=LINE('',#1849,#749);
#654=LINE('',#1852,#750);
#655=LINE('',#1854,#751);
#656=LINE('',#1856,#752);
#657=LINE('',#1867,#753);
#658=LINE('',#1869,#754);
#659=LINE('',#1871,#755);
#660=LINE('',#1873,#756);
#661=LINE('',#1875,#757);
#662=LINE('',#1877,#758);
#663=LINE('',#1879,#759);
#664=LINE('',#1881,#760);
#665=LINE('',#1883,#761);
#666=LINE('',#1886,#762);
#667=LINE('',#1888,#763);
#668=LINE('',#1890,#764);
#669=LINE('',#1892,#765);
#670=LINE('',#1894,#766);
#671=LINE('',#1896,#767);
#672=LINE('',#1898,#768);
#673=LINE('',#1900,#769);
#674=LINE('',#1902,#770);
#675=LINE('',#1904,#771);
#676=LINE('',#1906,#772);
#677=VECTOR('',#1300,1.);
#678=VECTOR('',#1301,1.);
#679=VECTOR('',#1302,1.);
#680=VECTOR('',#1303,1.);
#681=VECTOR('',#1306,1.);
#682=VECTOR('',#1307,1.);
#683=VECTOR('',#1308,1.);
#684=VECTOR('',#1311,1.);
#685=VECTOR('',#1312,1.);
#686=VECTOR('',#1313,1.);
#687=VECTOR('',#1316,1.);
#688=VECTOR('',#1317,1.);
#689=VECTOR('',#1318,1.);
#690=VECTOR('',#1319,1.);
#691=VECTOR('',#1320,1.);
#692=VECTOR('',#1321,1.);
#693=VECTOR('',#1360,1.);
#694=VECTOR('',#1361,1.);
#695=VECTOR('',#1362,1.);
#696=VECTOR('',#1365,1.);
#697=VECTOR('',#1366,1.);
#698=VECTOR('',#1369,1.);
#699=VECTOR('',#1370,1.);
#700=VECTOR('',#1373,1.);
#701=VECTOR('',#1380,1.);
#702=VECTOR('',#1381,1.);
#703=VECTOR('',#1382,1.);
#704=VECTOR('',#1383,1.);
#705=VECTOR('',#1386,1.);
#706=VECTOR('',#1387,1.);
#707=VECTOR('',#1388,1.);
#708=VECTOR('',#1391,1.);
#709=VECTOR('',#1392,1.);
#710=VECTOR('',#1393,1.);
#711=VECTOR('',#1396,1.);
#712=VECTOR('',#1397,1.);
#713=VECTOR('',#1446,1.);
#714=VECTOR('',#1447,1.);
#715=VECTOR('',#1448,1.);
#716=VECTOR('',#1449,1.);
#717=VECTOR('',#1452,1.);
#718=VECTOR('',#1453,1.);
#719=VECTOR('',#1454,1.);
#720=VECTOR('',#1457,1.);
#721=VECTOR('',#1458,1.);
#722=VECTOR('',#1459,1.);
#723=VECTOR('',#1462,1.);
#724=VECTOR('',#1463,1.);
#725=VECTOR('',#1464,1.);
#726=VECTOR('',#1465,1.);
#727=VECTOR('',#1466,1.);
#728=VECTOR('',#1467,1.);
#729=VECTOR('',#1482,1.);
#730=VECTOR('',#1483,1.);
#731=VECTOR('',#1484,1.);
#732=VECTOR('',#1495,1.);
#733=VECTOR('',#1496,1.);
#734=VECTOR('',#1499,1.);
#735=VECTOR('',#1500,1.);
#736=VECTOR('',#1503,1.);
#737=VECTOR('',#1518,1.);
#738=VECTOR('',#1519,1.);
#739=VECTOR('',#1520,1.);
#740=VECTOR('',#1521,1.);
#741=VECTOR('',#1524,1.);
#742=VECTOR('',#1525,1.);
#743=VECTOR('',#1526,1.);
#744=VECTOR('',#1529,1.);
#745=VECTOR('',#1530,1.);
#746=VECTOR('',#1531,1.);
#747=VECTOR('',#1534,1.);
#748=VECTOR('',#1535,1.);
#749=VECTOR('',#1538,1.);
#750=VECTOR('',#1539,1.);
#751=VECTOR('',#1540,1.);
#752=VECTOR('',#1541,1.);
#753=VECTOR('',#1554,1.);
#754=VECTOR('',#1555,1.);
#755=VECTOR('',#1556,1.);
#756=VECTOR('',#1559,1.);
#757=VECTOR('',#1560,1.);
#758=VECTOR('',#1563,1.);
#759=VECTOR('',#1564,1.);
#760=VECTOR('',#1567,1.);
#761=VECTOR('',#1570,1.);
#762=VECTOR('',#1571,1.);
#763=VECTOR('',#1572,1.);
#764=VECTOR('',#1573,1.);
#765=VECTOR('',#1576,1.);
#766=VECTOR('',#1577,1.);
#767=VECTOR('',#1578,1.);
#768=VECTOR('',#1581,1.);
#769=VECTOR('',#1582,1.);
#770=VECTOR('',#1585,1.);
#771=VECTOR('',#1586,1.);
#772=VECTOR('',#1589,1.);
#773=EDGE_LOOP('',(#93,#94,#95,#96));
#774=EDGE_LOOP('',(#97,#98,#99,#100));
#775=EDGE_LOOP('',(#101,#102,#103,#104));
#776=EDGE_LOOP('',(#105,#106,#107,#108));
#777=EDGE_LOOP('',(#109,#110,#111,#112));
#778=EDGE_LOOP('',(#113,#114,#115,#116));
#779=EDGE_LOOP('',(#117));
#780=EDGE_LOOP('',(#118));
#781=EDGE_LOOP('',(#119));
#782=EDGE_LOOP('',(#120));
#783=EDGE_LOOP('',(#121,#122,#123,#124));
#784=EDGE_LOOP('',(#125));
#785=EDGE_LOOP('',(#126));
#786=EDGE_LOOP('',(#127));
#787=EDGE_LOOP('',(#128));
#788=EDGE_LOOP('',(#129));
#789=EDGE_LOOP('',(#130));
#790=EDGE_LOOP('',(#131));
#791=EDGE_LOOP('',(#132));
#792=EDGE_LOOP('',(#133));
#793=EDGE_LOOP('',(#134));
#794=EDGE_LOOP('',(#135));
#795=EDGE_LOOP('',(#136));
#796=EDGE_LOOP('',(#137,#138,#139,#140));
#797=EDGE_LOOP('',(#141,#142,#143,#144));
#798=EDGE_LOOP('',(#145,#146,#147,#148));
#799=EDGE_LOOP('',(#149,#150,#151,#152));
#800=EDGE_LOOP('',(#153,#154,#155,#156));
#801=EDGE_LOOP('',(#157,#158,#159,#160));
#802=EDGE_LOOP('',(#161,#162,#163,#164));
#803=EDGE_LOOP('',(#165,#166,#167,#168));
#804=EDGE_LOOP('',(#169,#170,#171,#172));
#805=EDGE_LOOP('',(#173));
#806=EDGE_LOOP('',(#174));
#807=EDGE_LOOP('',(#175));
#808=EDGE_LOOP('',(#176));
#809=EDGE_LOOP('',(#177,#178,#179,#180));
#810=EDGE_LOOP('',(#181));
#811=EDGE_LOOP('',(#182,#183,#184,#185));
#812=EDGE_LOOP('',(#186));
#813=EDGE_LOOP('',(#187));
#814=EDGE_LOOP('',(#188));
#815=EDGE_LOOP('',(#189));
#816=EDGE_LOOP('',(#190));
#817=EDGE_LOOP('',(#191));
#818=EDGE_LOOP('',(#192));
#819=EDGE_LOOP('',(#193));
#820=EDGE_LOOP('',(#194));
#821=EDGE_LOOP('',(#195));
#822=EDGE_LOOP('',(#196));
#823=EDGE_LOOP('',(#197));
#824=EDGE_LOOP('',(#198));
#825=EDGE_LOOP('',(#199));
#826=EDGE_LOOP('',(#200));
#827=EDGE_LOOP('',(#201,#202,#203,#204));
#828=EDGE_LOOP('',(#205,#206,#207,#208));
#829=EDGE_LOOP('',(#209,#210,#211,#212));
#830=EDGE_LOOP('',(#213,#214,#215,#216));
#831=EDGE_LOOP('',(#217,#218,#219,#220));
#832=EDGE_LOOP('',(#221,#222,#223,#224));
#833=EDGE_LOOP('',(#225));
#834=EDGE_LOOP('',(#226));
#835=EDGE_LOOP('',(#227));
#836=EDGE_LOOP('',(#228));
#837=EDGE_LOOP('',(#229,#230,#231,#232));
#838=EDGE_LOOP('',(#233,#234,#235,#236));
#839=EDGE_LOOP('',(#237));
#840=EDGE_LOOP('',(#238));
#841=EDGE_LOOP('',(#239));
#842=EDGE_LOOP('',(#240));
#843=EDGE_LOOP('',(#241,#242,#243,#244));
#844=EDGE_LOOP('',(#245,#246,#247,#248));
#845=EDGE_LOOP('',(#249,#250,#251,#252));
#846=EDGE_LOOP('',(#253,#254,#255,#256));
#847=EDGE_LOOP('',(#257));
#848=EDGE_LOOP('',(#258));
#849=EDGE_LOOP('',(#259));
#850=EDGE_LOOP('',(#260));
#851=EDGE_LOOP('',(#261));
#852=EDGE_LOOP('',(#262));
#853=EDGE_LOOP('',(#263));
#854=EDGE_LOOP('',(#264));
#855=EDGE_LOOP('',(#265,#266,#267,#268));
#856=EDGE_LOOP('',(#269,#270,#271,#272));
#857=EDGE_LOOP('',(#273,#274,#275,#276));
#858=EDGE_LOOP('',(#277,#278,#279,#280));
#859=EDGE_LOOP('',(#281,#282,#283,#284));
#860=EDGE_LOOP('',(#285,#286,#287,#288));
#861=EDGE_LOOP('',(#289));
#862=EDGE_LOOP('',(#290));
#863=EDGE_LOOP('',(#291));
#864=EDGE_LOOP('',(#292));
#865=EDGE_LOOP('',(#293,#294,#295,#296));
#866=EDGE_LOOP('',(#297,#298,#299,#300));
#867=EDGE_LOOP('',(#301,#302,#303,#304));
#868=EDGE_LOOP('',(#305,#306,#307,#308));
#869=EDGE_LOOP('',(#309,#310,#311,#312));
#870=EDGE_LOOP('',(#313,#314,#315,#316));
#871=EDGE_LOOP('',(#317,#318,#319,#320));
#872=EDGE_LOOP('',(#321,#322,#323,#324));
#873=EDGE_LOOP('',(#325,#326,#327,#328));
#874=EDGE_LOOP('',(#329,#330,#331,#332));
#875=EDGE_LOOP('',(#333,#334,#335,#336));
#876=EDGE_LOOP('',(#337,#338,#339,#340));
#877=EDGE_LOOP('',(#341));
#878=EDGE_LOOP('',(#342));
#879=EDGE_LOOP('',(#343));
#880=EDGE_LOOP('',(#344));
#881=EDGE_LOOP('',(#345));
#882=EDGE_LOOP('',(#346));
#883=EDGE_LOOP('',(#347));
#884=EDGE_LOOP('',(#348));
#885=EDGE_LOOP('',(#349));
#886=EDGE_LOOP('',(#350));
#887=EDGE_LOOP('',(#351));
#888=EDGE_LOOP('',(#352));
#889=FACE_BOUND('',#773,.T.);
#890=FACE_BOUND('',#774,.T.);
#891=FACE_BOUND('',#775,.T.);
#892=FACE_BOUND('',#776,.T.);
#893=FACE_BOUND('',#777,.T.);
#894=FACE_BOUND('',#778,.T.);
#895=FACE_BOUND('',#779,.T.);
#896=FACE_BOUND('',#780,.T.);
#897=FACE_BOUND('',#781,.T.);
#898=FACE_BOUND('',#782,.T.);
#899=FACE_BOUND('',#783,.T.);
#900=FACE_BOUND('',#784,.T.);
#901=FACE_BOUND('',#785,.T.);
#902=FACE_BOUND('',#786,.T.);
#903=FACE_BOUND('',#787,.T.);
#904=FACE_BOUND('',#788,.T.);
#905=FACE_BOUND('',#789,.T.);
#906=FACE_BOUND('',#790,.T.);
#907=FACE_BOUND('',#791,.T.);
#908=FACE_BOUND('',#792,.T.);
#909=FACE_BOUND('',#793,.T.);
#910=FACE_BOUND('',#794,.T.);
#911=FACE_BOUND('',#795,.T.);
#912=FACE_BOUND('',#796,.T.);
#913=FACE_BOUND('',#797,.T.);
#914=FACE_BOUND('',#798,.T.);
#915=FACE_BOUND('',#799,.T.);
#916=FACE_BOUND('',#800,.T.);
#917=FACE_BOUND('',#801,.T.);
#918=FACE_BOUND('',#802,.T.);
#919=FACE_BOUND('',#803,.T.);
#920=FACE_BOUND('',#804,.T.);
#921=FACE_BOUND('',#805,.T.);
#922=FACE_BOUND('',#806,.T.);
#923=FACE_BOUND('',#807,.T.);
#924=FACE_BOUND('',#808,.T.);
#925=FACE_BOUND('',#809,.T.);
#926=FACE_BOUND('',#810,.T.);
#927=FACE_BOUND('',#811,.T.);
#928=FACE_BOUND('',#812,.T.);
#929=FACE_BOUND('',#813,.T.);
#930=FACE_BOUND('',#814,.T.);
#931=FACE_BOUND('',#815,.T.);
#932=FACE_BOUND('',#816,.T.);
#933=FACE_BOUND('',#817,.T.);
#934=FACE_BOUND('',#818,.T.);
#935=FACE_BOUND('',#819,.T.);
#936=FACE_BOUND('',#820,.T.);
#937=FACE_BOUND('',#821,.T.);
#938=FACE_BOUND('',#822,.T.);
#939=FACE_BOUND('',#823,.T.);
#940=FACE_BOUND('',#824,.T.);
#941=FACE_BOUND('',#825,.T.);
#942=FACE_BOUND('',#826,.T.);
#943=FACE_BOUND('',#827,.T.);
#944=FACE_BOUND('',#828,.T.);
#945=FACE_BOUND('',#829,.T.);
#946=FACE_BOUND('',#830,.T.);
#947=FACE_BOUND('',#831,.T.);
#948=FACE_BOUND('',#832,.T.);
#949=FACE_BOUND('',#833,.T.);
#950=FACE_BOUND('',#834,.T.);
#951=FACE_BOUND('',#835,.T.);
#952=FACE_BOUND('',#836,.T.);
#953=FACE_BOUND('',#837,.T.);
#954=FACE_BOUND('',#838,.T.);
#955=FACE_BOUND('',#839,.T.);
#956=FACE_BOUND('',#840,.T.);
#957=FACE_BOUND('',#841,.T.);
#958=FACE_BOUND('',#842,.T.);
#959=FACE_BOUND('',#843,.T.);
#960=FACE_BOUND('',#844,.T.);
#961=FACE_BOUND('',#845,.T.);
#962=FACE_BOUND('',#846,.T.);
#963=FACE_BOUND('',#847,.T.);
#964=FACE_BOUND('',#848,.T.);
#965=FACE_BOUND('',#849,.T.);
#966=FACE_BOUND('',#850,.T.);
#967=FACE_BOUND('',#851,.T.);
#968=FACE_BOUND('',#852,.T.);
#969=FACE_BOUND('',#853,.T.);
#970=FACE_BOUND('',#854,.T.);
#971=FACE_BOUND('',#855,.T.);
#972=FACE_BOUND('',#856,.T.);
#973=FACE_BOUND('',#857,.T.);
#974=FACE_BOUND('',#858,.T.);
#975=FACE_BOUND('',#859,.T.);
#976=FACE_BOUND('',#860,.T.);
#977=FACE_BOUND('',#861,.T.);
#978=FACE_BOUND('',#862,.T.);
#979=FACE_BOUND('',#863,.T.);
#980=FACE_BOUND('',#864,.T.);
#981=FACE_BOUND('',#865,.T.);
#982=FACE_BOUND('',#866,.T.);
#983=FACE_BOUND('',#867,.T.);
#984=FACE_BOUND('',#868,.T.);
#985=FACE_BOUND('',#869,.T.);
#986=FACE_BOUND('',#870,.T.);
#987=FACE_BOUND('',#871,.T.);
#988=FACE_BOUND('',#872,.T.);
#989=FACE_BOUND('',#873,.T.);
#990=FACE_BOUND('',#874,.T.);
#991=FACE_BOUND('',#875,.T.);
#992=FACE_BOUND('',#876,.T.);
#993=FACE_BOUND('',#877,.T.);
#994=FACE_BOUND('',#878,.T.);
#995=FACE_BOUND('',#879,.T.);
#996=FACE_BOUND('',#880,.T.);
#997=FACE_BOUND('',#881,.T.);
#998=FACE_BOUND('',#882,.T.);
#999=FACE_BOUND('',#883,.T.);
#1000=FACE_BOUND('',#884,.T.);
#1001=FACE_BOUND('',#885,.T.);
#1002=FACE_BOUND('',#886,.T.);
#1003=FACE_BOUND('',#887,.T.);
#1004=FACE_BOUND('',#888,.T.);
#1005=PLANE('',#1184);
#1006=PLANE('',#1185);
#1007=PLANE('',#1186);
#1008=PLANE('',#1187);
#1009=PLANE('',#1188);
#1010=PLANE('',#1189);
#1011=PLANE('',#1196);
#1012=PLANE('',#1199);
#1013=PLANE('',#1202);
#1014=PLANE('',#1205);
#1015=PLANE('',#1206);
#1016=PLANE('',#1207);
#1017=PLANE('',#1208);
#1018=PLANE('',#1209);
#1019=PLANE('',#1210);
#1020=PLANE('',#1212);
#1021=PLANE('',#1213);
#1022=PLANE('',#1214);
#1023=PLANE('',#1215);
#1024=PLANE('',#1216);
#1025=PLANE('',#1221);
#1026=PLANE('',#1225);
#1027=PLANE('',#1228);
#1028=PLANE('',#1231);
#1029=PLANE('',#1234);
#1030=PLANE('',#1237);
#1031=PLANE('',#1239);
#1032=PLANE('',#1240);
#1033=PLANE('',#1241);
#1034=PLANE('',#1242);
#1035=PLANE('',#1243);
#1036=PLANE('',#1244);
#1037=PLANE('',#1249);
#1038=PLANE('',#1250);
#1039=PLANE('',#1255);
#1040=PLANE('',#1256);
#1041=PLANE('',#1257);
#1042=PLANE('',#1263);
#1043=PLANE('',#1264);
#1044=PLANE('',#1265);
#1045=PLANE('',#1266);
#1046=PLANE('',#1267);
#1047=PLANE('',#1268);
#1048=PLANE('',#1273);
#1049=PLANE('',#1274);
#1050=PLANE('',#1275);
#1051=PLANE('',#1276);
#1052=PLANE('',#1277);
#1053=PLANE('',#1278);
#1054=PLANE('',#1279);
#1055=PLANE('',#1280);
#1056=PLANE('',#1281);
#1057=PLANE('',#1282);
#1058=PLANE('',#1285);
#1059=PLANE('',#1288);
#1060=PLANE('',#1291);
#1061=PLANE('',#1294);
#1062=ADVANCED_FACE('',(#889),#1005,.F.);
#1063=ADVANCED_FACE('',(#890),#1006,.F.);
#1064=ADVANCED_FACE('',(#891),#1007,.F.);
#1065=ADVANCED_FACE('',(#892,#893),#1008,.F.);
#1066=ADVANCED_FACE('',(#894),#1009,.T.);
#1067=ADVANCED_FACE('',(#895,#896,#897,#898,#899),#1010,.F.);
#1068=ADVANCED_FACE('',(#900,#901),#42,.F.);
#1069=ADVANCED_FACE('',(#902),#1011,.T.);
#1070=ADVANCED_FACE('',(#903,#904),#43,.F.);
#1071=ADVANCED_FACE('',(#905),#1012,.T.);
#1072=ADVANCED_FACE('',(#906,#907),#44,.F.);
#1073=ADVANCED_FACE('',(#908),#1013,.T.);
#1074=ADVANCED_FACE('',(#909,#910),#45,.F.);
#1075=ADVANCED_FACE('',(#911),#1014,.T.);
#1076=ADVANCED_FACE('',(#912),#1015,.F.);
#1077=ADVANCED_FACE('',(#913),#1016,.F.);
#1078=ADVANCED_FACE('',(#914),#1017,.F.);
#1079=ADVANCED_FACE('',(#915),#1018,.F.);
#1080=ADVANCED_FACE('',(#916),#1019,.T.);
#1081=ADVANCED_FACE('',(#917),#1020,.F.);
#1082=ADVANCED_FACE('',(#918),#1021,.F.);
#1083=ADVANCED_FACE('',(#919),#1022,.F.);
#1084=ADVANCED_FACE('',(#920),#1023,.F.);
#1085=ADVANCED_FACE('',(#921,#922,#923,#924,#925),#1024,.T.);
#1086=ADVANCED_FACE('',(#926,#927),#1025,.F.);
#1087=ADVANCED_FACE('',(#928,#929),#46,.F.);
#1088=ADVANCED_FACE('',(#930),#1026,.T.);
#1089=ADVANCED_FACE('',(#931,#932),#47,.F.);
#1090=ADVANCED_FACE('',(#933),#1027,.T.);
#1091=ADVANCED_FACE('',(#934,#935),#48,.F.);
#1092=ADVANCED_FACE('',(#936),#1028,.T.);
#1093=ADVANCED_FACE('',(#937,#938),#49,.F.);
#1094=ADVANCED_FACE('',(#939),#1029,.T.);
#1095=ADVANCED_FACE('',(#940,#941),#50,.F.);
#1096=ADVANCED_FACE('',(#942),#1030,.T.);
#1097=ADVANCED_FACE('',(#943),#1031,.F.);
#1098=ADVANCED_FACE('',(#944),#1032,.F.);
#1099=ADVANCED_FACE('',(#945),#1033,.F.);
#1100=ADVANCED_FACE('',(#946,#947),#1034,.F.);
#1101=ADVANCED_FACE('',(#948),#1035,.T.);
#1102=ADVANCED_FACE('',(#949,#950,#951,#952,#953),#1036,.F.);
#1103=ADVANCED_FACE('',(#954),#1037,.F.);
#1104=ADVANCED_FACE('',(#955,#956,#957,#958,#959),#1038,.F.);
#1105=ADVANCED_FACE('',(#960),#1039,.F.);
#1106=ADVANCED_FACE('',(#961),#1040,.F.);
#1107=ADVANCED_FACE('',(#962),#1041,.T.);
#1108=ADVANCED_FACE('',(#963,#964),#51,.F.);
#1109=ADVANCED_FACE('',(#965,#966),#52,.F.);
#1110=ADVANCED_FACE('',(#967,#968),#53,.F.);
#1111=ADVANCED_FACE('',(#969,#970),#54,.F.);
#1112=ADVANCED_FACE('',(#971),#1042,.F.);
#1113=ADVANCED_FACE('',(#972),#1043,.F.);
#1114=ADVANCED_FACE('',(#973),#1044,.F.);
#1115=ADVANCED_FACE('',(#974),#1045,.F.);
#1116=ADVANCED_FACE('',(#975,#976),#1046,.T.);
#1117=ADVANCED_FACE('',(#977,#978,#979,#980,#981),#1047,.F.);
#1118=ADVANCED_FACE('',(#982),#1048,.F.);
#1119=ADVANCED_FACE('',(#983),#1049,.F.);
#1120=ADVANCED_FACE('',(#984),#1050,.F.);
#1121=ADVANCED_FACE('',(#985),#1051,.F.);
#1122=ADVANCED_FACE('',(#986,#987),#1052,.T.);
#1123=ADVANCED_FACE('',(#988),#1053,.F.);
#1124=ADVANCED_FACE('',(#989),#1054,.F.);
#1125=ADVANCED_FACE('',(#990),#1055,.F.);
#1126=ADVANCED_FACE('',(#991),#1056,.F.);
#1127=ADVANCED_FACE('',(#992),#1057,.T.);
#1128=ADVANCED_FACE('',(#993,#994),#55,.F.);
#1129=ADVANCED_FACE('',(#995),#1058,.T.);
#1130=ADVANCED_FACE('',(#996,#997),#56,.F.);
#1131=ADVANCED_FACE('',(#998),#1059,.T.);
#1132=ADVANCED_FACE('',(#999,#1000),#57,.F.);
#1133=ADVANCED_FACE('',(#1001),#1060,.T.);
#1134=ADVANCED_FACE('',(#1002,#1003),#58,.F.);
#1135=ADVANCED_FACE('',(#1004),#1061,.T.);
#1136=CLOSED_SHELL('',(#1062,#1063,#1064,#1065,#1066,#1067,#1068,#1069,
#1070,#1071,#1072,#1073,#1074,#1075,#1076,#1077,#1078,#1079,#1080));
#1137=CLOSED_SHELL('',(#1081,#1082,#1083,#1084,#1085,#1086,#1087,#1088,
#1089,#1090,#1091,#1092,#1093,#1094,#1095,#1096));
#1138=CLOSED_SHELL('',(#1097,#1098,#1099,#1100,#1101,#1102,#1103,#1104,
#1105,#1106,#1107,#1108,#1109,#1110,#1111));
#1139=CLOSED_SHELL('',(#1112,#1113,#1114,#1115,#1116,#1117,#1118,#1119,
#1120,#1121,#1122,#1123,#1124,#1125,#1126,#1127,#1128,#1129,#1130,#1131,
#1132,#1133,#1134,#1135));
#1140=STYLED_ITEM('',(#1144),#1169);
#1141=STYLED_ITEM('',(#1145),#1170);
#1142=STYLED_ITEM('',(#1146),#1171);
#1143=STYLED_ITEM('',(#1147),#1172);
#1144=PRESENTATION_STYLE_ASSIGNMENT((#1148));
#1145=PRESENTATION_STYLE_ASSIGNMENT((#1149));
#1146=PRESENTATION_STYLE_ASSIGNMENT((#1150));
#1147=PRESENTATION_STYLE_ASSIGNMENT((#1151));
#1148=SURFACE_STYLE_USAGE(.BOTH.,#1152);
#1149=SURFACE_STYLE_USAGE(.BOTH.,#1153);
#1150=SURFACE_STYLE_USAGE(.BOTH.,#1154);
#1151=SURFACE_STYLE_USAGE(.BOTH.,#1155);
#1152=SURFACE_SIDE_STYLE('',(#1156));
#1153=SURFACE_SIDE_STYLE('',(#1157));
#1154=SURFACE_SIDE_STYLE('',(#1158));
#1155=SURFACE_SIDE_STYLE('',(#1159));
#1156=SURFACE_STYLE_FILL_AREA(#1160);
#1157=SURFACE_STYLE_FILL_AREA(#1161);
#1158=SURFACE_STYLE_FILL_AREA(#1162);
#1159=SURFACE_STYLE_FILL_AREA(#1163);
#1160=FILL_AREA_STYLE('',(#1164));
#1161=FILL_AREA_STYLE('',(#1165));
#1162=FILL_AREA_STYLE('',(#1166));
#1163=FILL_AREA_STYLE('',(#1167));
#1164=FILL_AREA_STYLE_COLOUR('',#1168);
#1165=FILL_AREA_STYLE_COLOUR('',#1168);
#1166=FILL_AREA_STYLE_COLOUR('',#1168);
#1167=FILL_AREA_STYLE_COLOUR('',#1168);
#1168=COLOUR_RGB('',0.615686274509804,0.811764705882353,0.929411764705882);
#1169=MANIFOLD_SOLID_BREP('Part 1',#1136);
#1170=MANIFOLD_SOLID_BREP('Part 1',#1137);
#1171=MANIFOLD_SOLID_BREP('Part 1',#1138);
#1172=MANIFOLD_SOLID_BREP('Part 1',#1139);
#1173=SHAPE_DEFINITION_REPRESENTATION(#1939,#1178);
#1174=SHAPE_DEFINITION_REPRESENTATION(#1940,#1179);
#1175=SHAPE_DEFINITION_REPRESENTATION(#1942,#1180);
#1176=SHAPE_DEFINITION_REPRESENTATION(#1944,#1181);
#1177=SHAPE_DEFINITION_REPRESENTATION(#1946,#1182);
#1178=SHAPE_REPRESENTATION('Leg-V4-Assembly',(#1183,#1211,#1238,#1262,#1295),
#1926);
#1179=SHAPE_REPRESENTATION('Part 1',(#1183),#1927);
#1180=SHAPE_REPRESENTATION('Part 1',(#1183),#1928);
#1181=SHAPE_REPRESENTATION('Part 1',(#1183),#1929);
#1182=SHAPE_REPRESENTATION('Part 1',(#1183),#1930);
#1183=AXIS2_PLACEMENT_3D('',#1618,#1296,#1297);
#1184=AXIS2_PLACEMENT_3D('',#1619,#1298,#1299);
#1185=AXIS2_PLACEMENT_3D('',#1628,#1304,#1305);
#1186=AXIS2_PLACEMENT_3D('',#1634,#1309,#1310);
#1187=AXIS2_PLACEMENT_3D('',#1640,#1314,#1315);
#1188=AXIS2_PLACEMENT_3D('',#1651,#1322,#1323);
#1189=AXIS2_PLACEMENT_3D('',#1652,#1324,#1325);
#1190=AXIS2_PLACEMENT_3D('',#1653,#1326,#1327);
#1191=AXIS2_PLACEMENT_3D('',#1655,#1328,#1329);
#1192=AXIS2_PLACEMENT_3D('',#1657,#1330,#1331);
#1193=AXIS2_PLACEMENT_3D('',#1659,#1332,#1333);
#1194=AXIS2_PLACEMENT_3D('',#1661,#1334,#1335);
#1195=AXIS2_PLACEMENT_3D('',#1662,#1336,#1337);
#1196=AXIS2_PLACEMENT_3D('',#1664,#1338,#1339);
#1197=AXIS2_PLACEMENT_3D('',#1665,#1340,#1341);
#1198=AXIS2_PLACEMENT_3D('',#1666,#1342,#1343);
#1199=AXIS2_PLACEMENT_3D('',#1668,#1344,#1345);
#1200=AXIS2_PLACEMENT_3D('',#1669,#1346,#1347);
#1201=AXIS2_PLACEMENT_3D('',#1670,#1348,#1349);
#1202=AXIS2_PLACEMENT_3D('',#1672,#1350,#1351);
#1203=AXIS2_PLACEMENT_3D('',#1673,#1352,#1353);
#1204=AXIS2_PLACEMENT_3D('',#1674,#1354,#1355);
#1205=AXIS2_PLACEMENT_3D('',#1676,#1356,#1357);
#1206=AXIS2_PLACEMENT_3D('',#1677,#1358,#1359);
#1207=AXIS2_PLACEMENT_3D('',#1683,#1363,#1364);
#1208=AXIS2_PLACEMENT_3D('',#1687,#1367,#1368);
#1209=AXIS2_PLACEMENT_3D('',#1691,#1371,#1372);
#1210=AXIS2_PLACEMENT_3D('',#1693,#1374,#1375);
#1211=AXIS2_PLACEMENT_3D('',#1694,#1376,#1377);
#1212=AXIS2_PLACEMENT_3D('',#1695,#1378,#1379);
#1213=AXIS2_PLACEMENT_3D('',#1704,#1384,#1385);
#1214=AXIS2_PLACEMENT_3D('',#1710,#1389,#1390);
#1215=AXIS2_PLACEMENT_3D('',#1716,#1394,#1395);
#1216=AXIS2_PLACEMENT_3D('',#1719,#1398,#1399);
#1217=AXIS2_PLACEMENT_3D('',#1720,#1400,#1401);
#1218=AXIS2_PLACEMENT_3D('',#1722,#1402,#1403);
#1219=AXIS2_PLACEMENT_3D('',#1724,#1404,#1405);
#1220=AXIS2_PLACEMENT_3D('',#1726,#1406,#1407);
#1221=AXIS2_PLACEMENT_3D('',#1728,#1408,#1409);
#1222=AXIS2_PLACEMENT_3D('',#1729,#1410,#1411);
#1223=AXIS2_PLACEMENT_3D('',#1731,#1412,#1413);
#1224=AXIS2_PLACEMENT_3D('',#1732,#1414,#1415);
#1225=AXIS2_PLACEMENT_3D('',#1734,#1416,#1417);
#1226=AXIS2_PLACEMENT_3D('',#1735,#1418,#1419);
#1227=AXIS2_PLACEMENT_3D('',#1736,#1420,#1421);
#1228=AXIS2_PLACEMENT_3D('',#1738,#1422,#1423);
#1229=AXIS2_PLACEMENT_3D('',#1739,#1424,#1425);
#1230=AXIS2_PLACEMENT_3D('',#1740,#1426,#1427);
#1231=AXIS2_PLACEMENT_3D('',#1742,#1428,#1429);
#1232=AXIS2_PLACEMENT_3D('',#1743,#1430,#1431);
#1233=AXIS2_PLACEMENT_3D('',#1744,#1432,#1433);
#1234=AXIS2_PLACEMENT_3D('',#1746,#1434,#1435);
#1235=AXIS2_PLACEMENT_3D('',#1747,#1436,#1437);
#1236=AXIS2_PLACEMENT_3D('',#1748,#1438,#1439);
#1237=AXIS2_PLACEMENT_3D('',#1750,#1440,#1441);
#1238=AXIS2_PLACEMENT_3D('',#1751,#1442,#1443);
#1239=AXIS2_PLACEMENT_3D('',#1752,#1444,#1445);
#1240=AXIS2_PLACEMENT_3D('',#1761,#1450,#1451);
#1241=AXIS2_PLACEMENT_3D('',#1767,#1455,#1456);
#1242=AXIS2_PLACEMENT_3D('',#1773,#1460,#1461);
#1243=AXIS2_PLACEMENT_3D('',#1784,#1468,#1469);
#1244=AXIS2_PLACEMENT_3D('',#1785,#1470,#1471);
#1245=AXIS2_PLACEMENT_3D('',#1786,#1472,#1473);
#1246=AXIS2_PLACEMENT_3D('',#1788,#1474,#1475);
#1247=AXIS2_PLACEMENT_3D('',#1790,#1476,#1477);
#1248=AXIS2_PLACEMENT_3D('',#1792,#1478,#1479);
#1249=AXIS2_PLACEMENT_3D('',#1794,#1480,#1481);
#1250=AXIS2_PLACEMENT_3D('',#1800,#1485,#1486);
#1251=AXIS2_PLACEMENT_3D('',#1801,#1487,#1488);
#1252=AXIS2_PLACEMENT_3D('',#1803,#1489,#1490);
#1253=AXIS2_PLACEMENT_3D('',#1805,#1491,#1492);
#1254=AXIS2_PLACEMENT_3D('',#1807,#1493,#1494);
#1255=AXIS2_PLACEMENT_3D('',#1812,#1497,#1498);
#1256=AXIS2_PLACEMENT_3D('',#1816,#1501,#1502);
#1257=AXIS2_PLACEMENT_3D('',#1818,#1504,#1505);
#1258=AXIS2_PLACEMENT_3D('',#1819,#1506,#1507);
#1259=AXIS2_PLACEMENT_3D('',#1820,#1508,#1509);
#1260=AXIS2_PLACEMENT_3D('',#1821,#1510,#1511);
#1261=AXIS2_PLACEMENT_3D('',#1822,#1512,#1513);
#1262=AXIS2_PLACEMENT_3D('',#1823,#1514,#1515);
#1263=AXIS2_PLACEMENT_3D('',#1824,#1516,#1517);
#1264=AXIS2_PLACEMENT_3D('',#1833,#1522,#1523);
#1265=AXIS2_PLACEMENT_3D('',#1839,#1527,#1528);
#1266=AXIS2_PLACEMENT_3D('',#1845,#1532,#1533);
#1267=AXIS2_PLACEMENT_3D('',#1848,#1536,#1537);
#1268=AXIS2_PLACEMENT_3D('',#1857,#1542,#1543);
#1269=AXIS2_PLACEMENT_3D('',#1858,#1544,#1545);
#1270=AXIS2_PLACEMENT_3D('',#1860,#1546,#1547);
#1271=AXIS2_PLACEMENT_3D('',#1862,#1548,#1549);
#1272=AXIS2_PLACEMENT_3D('',#1864,#1550,#1551);
#1273=AXIS2_PLACEMENT_3D('',#1866,#1552,#1553);
#1274=AXIS2_PLACEMENT_3D('',#1872,#1557,#1558);
#1275=AXIS2_PLACEMENT_3D('',#1876,#1561,#1562);
#1276=AXIS2_PLACEMENT_3D('',#1880,#1565,#1566);
#1277=AXIS2_PLACEMENT_3D('',#1882,#1568,#1569);
#1278=AXIS2_PLACEMENT_3D('',#1891,#1574,#1575);
#1279=AXIS2_PLACEMENT_3D('',#1897,#1579,#1580);
#1280=AXIS2_PLACEMENT_3D('',#1901,#1583,#1584);
#1281=AXIS2_PLACEMENT_3D('',#1905,#1587,#1588);
#1282=AXIS2_PLACEMENT_3D('',#1907,#1590,#1591);
#1283=AXIS2_PLACEMENT_3D('',#1908,#1592,#1593);
#1284=AXIS2_PLACEMENT_3D('',#1909,#1594,#1595);
#1285=AXIS2_PLACEMENT_3D('',#1911,#1596,#1597);
#1286=AXIS2_PLACEMENT_3D('',#1912,#1598,#1599);
#1287=AXIS2_PLACEMENT_3D('',#1913,#1600,#1601);
#1288=AXIS2_PLACEMENT_3D('',#1915,#1602,#1603);
#1289=AXIS2_PLACEMENT_3D('',#1916,#1604,#1605);
#1290=AXIS2_PLACEMENT_3D('',#1917,#1606,#1607);
#1291=AXIS2_PLACEMENT_3D('',#1919,#1608,#1609);
#1292=AXIS2_PLACEMENT_3D('',#1920,#1610,#1611);
#1293=AXIS2_PLACEMENT_3D('',#1921,#1612,#1613);
#1294=AXIS2_PLACEMENT_3D('',#1923,#1614,#1615);
#1295=AXIS2_PLACEMENT_3D('',#1924,#1616,#1617);
#1296=DIRECTION('',(0.,0.,1.));
#1297=DIRECTION('',(1.,0.,0.));
#1298=DIRECTION('',(1.,0.,0.));
#1299=DIRECTION('',(0.,0.,-1.));
#1300=DIRECTION('',(0.,-1.,0.));
#1301=DIRECTION('',(0.,0.,-1.));
#1302=DIRECTION('',(0.,-1.,0.));
#1303=DIRECTION('',(0.,0.,-1.));
#1304=DIRECTION('',(0.,1.,0.));
#1305=DIRECTION('',(0.,0.,1.));
#1306=DIRECTION('',(1.,0.,0.));
#1307=DIRECTION('',(0.,0.,-1.));
#1308=DIRECTION('',(1.,0.,0.));
#1309=DIRECTION('',(-1.,0.,0.));
#1310=DIRECTION('',(0.,0.,1.));
#1311=DIRECTION('',(0.,1.,0.));
#1312=DIRECTION('',(0.,0.,-1.));
#1313=DIRECTION('',(0.,1.,0.));
#1314=DIRECTION('',(0.,-1.,0.));
#1315=DIRECTION('',(0.,0.,-1.));
#1316=DIRECTION('',(-1.,0.,0.));
#1317=DIRECTION('',(0.,0.,-1.));
#1318=DIRECTION('',(1.,0.,0.));
#1319=DIRECTION('',(0.,0.,1.));
#1320=DIRECTION('',(-1.,0.,0.));
#1321=DIRECTION('',(-1.,0.,0.));
#1322=DIRECTION('',(0.,0.,1.));
#1323=DIRECTION('',(1.,0.,0.));
#1324=DIRECTION('',(0.,0.,1.));
#1325=DIRECTION('',(1.,0.,0.));
#1326=DIRECTION('',(0.,0.,-1.));
#1327=DIRECTION('',(-1.,0.,0.));
#1328=DIRECTION('',(0.,0.,-1.));
#1329=DIRECTION('',(-1.,0.,0.));
#1330=DIRECTION('',(0.,0.,-1.));
#1331=DIRECTION('',(-1.,0.,0.));
#1332=DIRECTION('',(0.,0.,-1.));
#1333=DIRECTION('',(-1.,0.,0.));
#1334=DIRECTION('',(0.,0.,-1.));
#1335=DIRECTION('',(-1.,0.,0.));
#1336=DIRECTION('',(0.,0.,-1.));
#1337=DIRECTION('',(-1.,0.,0.));
#1338=DIRECTION('',(0.,0.,-1.));
#1339=DIRECTION('',(1.,0.,0.));
#1340=DIRECTION('',(0.,0.,-1.));
#1341=DIRECTION('',(-1.,0.,0.));
#1342=DIRECTION('',(0.,0.,-1.));
#1343=DIRECTION('',(-1.,0.,0.));
#1344=DIRECTION('',(0.,0.,-1.));
#1345=DIRECTION('',(1.,0.,0.));
#1346=DIRECTION('',(0.,0.,-1.));
#1347=DIRECTION('',(-1.,0.,0.));
#1348=DIRECTION('',(0.,0.,-1.));
#1349=DIRECTION('',(-1.,0.,0.));
#1350=DIRECTION('',(0.,0.,-1.));
#1351=DIRECTION('',(1.,0.,0.));
#1352=DIRECTION('',(0.,0.,-1.));
#1353=DIRECTION('',(-1.,0.,0.));
#1354=DIRECTION('',(0.,0.,-1.));
#1355=DIRECTION('',(-1.,0.,0.));
#1356=DIRECTION('',(0.,0.,-1.));
#1357=DIRECTION('',(1.,0.,0.));
#1358=DIRECTION('',(1.,0.,0.));
#1359=DIRECTION('',(0.,0.,-1.));
#1360=DIRECTION('',(0.,1.,0.));
#1361=DIRECTION('',(0.,0.,-1.));
#1362=DIRECTION('',(0.,1.,0.));
#1363=DIRECTION('',(0.,0.,-1.));
#1364=DIRECTION('',(-1.,0.,0.));
#1365=DIRECTION('',(0.,1.,0.));
#1366=DIRECTION('',(-1.,0.,0.));
#1367=DIRECTION('',(-1.,0.,0.));
#1368=DIRECTION('',(0.,0.,1.));
#1369=DIRECTION('',(0.,1.,0.));
#1370=DIRECTION('',(0.,0.,1.));
#1371=DIRECTION('',(0.,0.,1.));
#1372=DIRECTION('',(1.,0.,0.));
#1373=DIRECTION('',(1.,0.,0.));
#1374=DIRECTION('',(0.,1.,0.));
#1375=DIRECTION('',(-1.,0.,0.));
#1376=DIRECTION('',(0.,1.,0.));
#1377=DIRECTION('',(1.,0.,0.));
#1378=DIRECTION('',(1.,0.,0.));
#1379=DIRECTION('',(0.,0.,-1.));
#1380=DIRECTION('',(0.,-1.,0.));
#1381=DIRECTION('',(0.,0.,-1.));
#1382=DIRECTION('',(0.,-1.,0.));
#1383=DIRECTION('',(0.,0.,-1.));
#1384=DIRECTION('',(0.,1.,0.));
#1385=DIRECTION('',(0.,0.,1.));
#1386=DIRECTION('',(1.,0.,0.));
#1387=DIRECTION('',(0.,0.,-1.));
#1388=DIRECTION('',(1.,0.,0.));
#1389=DIRECTION('',(-1.,0.,0.));
#1390=DIRECTION('',(0.,0.,1.));
#1391=DIRECTION('',(0.,1.,0.));
#1392=DIRECTION('',(0.,0.,-1.));
#1393=DIRECTION('',(0.,1.,0.));
#1394=DIRECTION('',(0.,-1.,0.));
#1395=DIRECTION('',(0.,0.,-1.));
#1396=DIRECTION('',(-1.,0.,0.));
#1397=DIRECTION('',(-1.,0.,0.));
#1398=DIRECTION('',(0.,0.,1.));
#1399=DIRECTION('',(1.,0.,0.));
#1400=DIRECTION('',(0.,0.,1.));
#1401=DIRECTION('',(1.,0.,0.));
#1402=DIRECTION('',(0.,0.,1.));
#1403=DIRECTION('',(1.,0.,0.));
#1404=DIRECTION('',(0.,0.,1.));
#1405=DIRECTION('',(1.,0.,0.));
#1406=DIRECTION('',(0.,0.,1.));
#1407=DIRECTION('',(1.,0.,0.));
#1408=DIRECTION('',(0.,0.,1.));
#1409=DIRECTION('',(1.,0.,0.));
#1410=DIRECTION('',(0.,0.,-1.));
#1411=DIRECTION('',(-1.,0.,0.));
#1412=DIRECTION('',(0.,0.,1.));
#1413=DIRECTION('',(1.,0.,0.));
#1414=DIRECTION('',(0.,0.,1.));
#1415=DIRECTION('',(1.,0.,0.));
#1416=DIRECTION('',(0.,0.,1.));
#1417=DIRECTION('',(1.,0.,0.));
#1418=DIRECTION('',(0.,0.,1.));
#1419=DIRECTION('',(1.,0.,0.));
#1420=DIRECTION('',(0.,0.,1.));
#1421=DIRECTION('',(1.,0.,0.));
#1422=DIRECTION('',(0.,0.,1.));
#1423=DIRECTION('',(1.,0.,0.));
#1424=DIRECTION('',(0.,0.,1.));
#1425=DIRECTION('',(1.,0.,0.));
#1426=DIRECTION('',(0.,0.,1.));
#1427=DIRECTION('',(1.,0.,0.));
#1428=DIRECTION('',(0.,0.,1.));
#1429=DIRECTION('',(1.,0.,0.));
#1430=DIRECTION('',(0.,0.,1.));
#1431=DIRECTION('',(1.,0.,0.));
#1432=DIRECTION('',(0.,0.,1.));
#1433=DIRECTION('',(1.,0.,0.));
#1434=DIRECTION('',(0.,0.,1.));
#1435=DIRECTION('',(1.,0.,0.));
#1436=DIRECTION('',(0.,0.,-1.));
#1437=DIRECTION('',(-1.,0.,0.));
#1438=DIRECTION('',(0.,0.,-1.));
#1439=DIRECTION('',(-1.,0.,0.));
#1440=DIRECTION('',(0.,0.,-1.));
#1441=DIRECTION('',(1.,0.,0.));
#1442=DIRECTION('',(0.,0.,-1.));
#1443=DIRECTION('',(1.,-1.11022302462516E-16,0.));
#1444=DIRECTION('',(1.,0.,0.));
#1445=DIRECTION('',(0.,0.,-1.));
#1446=DIRECTION('',(0.,-1.,0.));
#1447=DIRECTION('',(0.,0.,-1.));
#1448=DIRECTION('',(0.,-1.,0.));
#1449=DIRECTION('',(0.,0.,-1.));
#1450=DIRECTION('',(0.,1.,0.));
#1451=DIRECTION('',(0.,0.,1.));
#1452=DIRECTION('',(1.,0.,0.));
#1453=DIRECTION('',(0.,0.,-1.));
#1454=DIRECTION('',(1.,0.,0.));
#1455=DIRECTION('',(-1.,0.,0.));
#1456=DIRECTION('',(0.,0.,1.));
#1457=DIRECTION('',(0.,1.,0.));
#1458=DIRECTION('',(0.,0.,-1.));
#1459=DIRECTION('',(0.,1.,0.));
#1460=DIRECTION('',(0.,-1.,0.));
#1461=DIRECTION('',(0.,0.,-1.));
#1462=DIRECTION('',(-1.,0.,0.));
#1463=DIRECTION('',(0.,0.,-1.));
#1464=DIRECTION('',(1.,0.,0.));
#1465=DIRECTION('',(0.,0.,1.));
#1466=DIRECTION('',(-1.,0.,0.));
#1467=DIRECTION('',(-1.,0.,0.));
#1468=DIRECTION('',(0.,0.,1.));
#1469=DIRECTION('',(1.,0.,0.));
#1470=DIRECTION('',(0.,0.,1.));
#1471=DIRECTION('',(1.,0.,0.));
#1472=DIRECTION('',(0.,0.,-1.));
#1473=DIRECTION('',(-1.,0.,0.));
#1474=DIRECTION('',(0.,0.,-1.));
#1475=DIRECTION('',(-1.,0.,0.));
#1476=DIRECTION('',(0.,0.,-1.));
#1477=DIRECTION('',(-1.,0.,0.));
#1478=DIRECTION('',(0.,0.,-1.));
#1479=DIRECTION('',(-1.,0.,0.));
#1480=DIRECTION('',(1.,0.,0.));
#1481=DIRECTION('',(0.,0.,-1.));
#1482=DIRECTION('',(0.,1.,0.));
#1483=DIRECTION('',(0.,0.,-1.));
#1484=DIRECTION('',(0.,1.,0.));
#1485=DIRECTION('',(0.,0.,-1.));
#1486=DIRECTION('',(-1.,0.,0.));
#1487=DIRECTION('',(0.,0.,-1.));
#1488=DIRECTION('',(-1.,0.,0.));
#1489=DIRECTION('',(0.,0.,-1.));
#1490=DIRECTION('',(-1.,0.,0.));
#1491=DIRECTION('',(0.,0.,-1.));
#1492=DIRECTION('',(-1.,0.,0.));
#1493=DIRECTION('',(0.,0.,-1.));
#1494=DIRECTION('',(-1.,0.,0.));
#1495=DIRECTION('',(0.,1.,0.));
#1496=DIRECTION('',(-1.,0.,0.));
#1497=DIRECTION('',(-1.,0.,0.));
#1498=DIRECTION('',(0.,0.,1.));
#1499=DIRECTION('',(0.,1.,0.));
#1500=DIRECTION('',(0.,0.,1.));
#1501=DIRECTION('',(0.,0.,1.));
#1502=DIRECTION('',(1.,0.,0.));
#1503=DIRECTION('',(1.,0.,0.));
#1504=DIRECTION('',(0.,1.,0.));
#1505=DIRECTION('',(-1.,0.,0.));
#1506=DIRECTION('',(0.,0.,-1.));
#1507=DIRECTION('',(-1.,0.,0.));
#1508=DIRECTION('',(0.,0.,-1.));
#1509=DIRECTION('',(-1.,0.,0.));
#1510=DIRECTION('',(0.,0.,-1.));
#1511=DIRECTION('',(-1.,0.,0.));
#1512=DIRECTION('',(0.,0.,-1.));
#1513=DIRECTION('',(-1.,0.,0.));
#1514=DIRECTION('',(0.,0.,-1.));
#1515=DIRECTION('',(1.,-1.11022302462516E-16,0.));
#1516=DIRECTION('',(1.,0.,0.));
#1517=DIRECTION('',(0.,0.,-1.));
#1518=DIRECTION('',(0.,-1.,0.));
#1519=DIRECTION('',(0.,0.,-1.));
#1520=DIRECTION('',(0.,-1.,0.));
#1521=DIRECTION('',(0.,0.,-1.));
#1522=DIRECTION('',(0.,1.,0.));
#1523=DIRECTION('',(0.,0.,1.));
#1524=DIRECTION('',(1.,0.,0.));
#1525=DIRECTION('',(0.,0.,-1.));
#1526=DIRECTION('',(1.,0.,0.));
#1527=DIRECTION('',(-1.,0.,0.));
#1528=DIRECTION('',(0.,0.,1.));
#1529=DIRECTION('',(0.,1.,0.));
#1530=DIRECTION('',(0.,0.,-1.));
#1531=DIRECTION('',(0.,1.,0.));
#1532=DIRECTION('',(0.,-1.,0.));
#1533=DIRECTION('',(0.,0.,-1.));
#1534=DIRECTION('',(-1.,0.,0.));
#1535=DIRECTION('',(-1.,0.,0.));
#1536=DIRECTION('',(0.,0.,1.));
#1537=DIRECTION('',(1.,0.,0.));
#1538=DIRECTION('',(0.,-1.,0.));
#1539=DIRECTION('',(-1.,0.,0.));
#1540=DIRECTION('',(0.,1.,0.));
#1541=DIRECTION('',(1.,0.,0.));
#1542=DIRECTION('',(0.,0.,1.));
#1543=DIRECTION('',(1.,0.,0.));
#1544=DIRECTION('',(0.,0.,-1.));
#1545=DIRECTION('',(-1.,0.,0.));
#1546=DIRECTION('',(0.,0.,-1.));
#1547=DIRECTION('',(-1.,0.,0.));
#1548=DIRECTION('',(0.,0.,-1.));
#1549=DIRECTION('',(-1.,0.,0.));
#1550=DIRECTION('',(0.,0.,-1.));
#1551=DIRECTION('',(-1.,0.,0.));
#1552=DIRECTION('',(1.,0.,0.));
#1553=DIRECTION('',(0.,0.,-1.));
#1554=DIRECTION('',(0.,0.,-1.));
#1555=DIRECTION('',(0.,-1.,0.));
#1556=DIRECTION('',(0.,0.,-1.));
#1557=DIRECTION('',(0.,1.,0.));
#1558=DIRECTION('',(0.,0.,1.));
#1559=DIRECTION('',(0.,0.,-1.));
#1560=DIRECTION('',(1.,0.,0.));
#1561=DIRECTION('',(-1.,0.,0.));
#1562=DIRECTION('',(0.,0.,1.));
#1563=DIRECTION('',(0.,0.,-1.));
#1564=DIRECTION('',(0.,1.,0.));
#1565=DIRECTION('',(0.,-1.,0.));
#1566=DIRECTION('',(0.,0.,-1.));
#1567=DIRECTION('',(-1.,0.,0.));
#1568=DIRECTION('',(0.,0.,1.));
#1569=DIRECTION('',(1.,0.,0.));
#1570=DIRECTION('',(0.,-1.,0.));
#1571=DIRECTION('',(-1.,0.,0.));
#1572=DIRECTION('',(0.,1.,0.));
#1573=DIRECTION('',(1.,0.,0.));
#1574=DIRECTION('',(-1.,0.,0.));
#1575=DIRECTION('',(0.,0.,1.));
#1576=DIRECTION('',(0.,0.,1.));
#1577=DIRECTION('',(0.,-1.,0.));
#1578=DIRECTION('',(0.,0.,1.));
#1579=DIRECTION('',(0.,-1.,0.));
#1580=DIRECTION('',(0.,0.,-1.));
#1581=DIRECTION('',(0.,0.,1.));
#1582=DIRECTION('',(1.,0.,0.));
#1583=DIRECTION('',(1.,0.,0.));
#1584=DIRECTION('',(0.,0.,-1.));
#1585=DIRECTION('',(0.,0.,1.));
#1586=DIRECTION('',(0.,1.,0.));
#1587=DIRECTION('',(0.,1.,0.));
#1588=DIRECTION('',(0.,0.,1.));
#1589=DIRECTION('',(-1.,0.,0.));
#1590=DIRECTION('',(0.,0.,1.));
#1591=DIRECTION('',(1.,0.,0.));
#1592=DIRECTION('',(0.,0.,-1.));
#1593=DIRECTION('',(-1.,0.,0.));
#1594=DIRECTION('',(0.,0.,-1.));
#1595=DIRECTION('',(-1.,0.,0.));
#1596=DIRECTION('',(0.,0.,-1.));
#1597=DIRECTION('',(1.,0.,0.));
#1598=DIRECTION('',(0.,0.,-1.));
#1599=DIRECTION('',(-1.,0.,0.));
#1600=DIRECTION('',(0.,0.,-1.));
#1601=DIRECTION('',(-1.,0.,0.));
#1602=DIRECTION('',(0.,0.,-1.));
#1603=DIRECTION('',(1.,0.,0.));
#1604=DIRECTION('',(0.,0.,-1.));
#1605=DIRECTION('',(-1.,0.,0.));
#1606=DIRECTION('',(0.,0.,-1.));
#1607=DIRECTION('',(-1.,0.,0.));
#1608=DIRECTION('',(0.,0.,-1.));
#1609=DIRECTION('',(1.,0.,0.));
#1610=DIRECTION('',(0.,0.,-1.));
#1611=DIRECTION('',(-1.,0.,0.));
#1612=DIRECTION('',(0.,0.,-1.));
#1613=DIRECTION('',(-1.,0.,0.));
#1614=DIRECTION('',(0.,0.,-1.));
#1615=DIRECTION('',(1.,0.,0.));
#1616=DIRECTION('',(0.,0.,1.));
#1617=DIRECTION('',(1.,0.,0.));
#1618=CARTESIAN_POINT('',(0.,0.,0.));
#1619=CARTESIAN_POINT('',(-0.015,0.,0.19));
#1620=CARTESIAN_POINT('',(-0.015,0.,0.));
#1621=CARTESIAN_POINT('',(-0.015,0.02,0.));
#1622=CARTESIAN_POINT('',(-0.015,-0.02,0.));
#1623=CARTESIAN_POINT('',(-0.015,-0.02,0.19));
#1624=CARTESIAN_POINT('',(-0.015,-0.02,0.19));
#1625=CARTESIAN_POINT('',(-0.015,0.,0.19));
#1626=CARTESIAN_POINT('',(-0.015,0.02,0.19));
#1627=CARTESIAN_POINT('',(-0.015,0.02,0.19));
#1628=CARTESIAN_POINT('',(0.,-0.02,0.19));
#1629=CARTESIAN_POINT('',(0.,-0.02,0.));
#1630=CARTESIAN_POINT('',(0.015,-0.02,0.));
#1631=CARTESIAN_POINT('',(0.015,-0.02,0.19));
#1632=CARTESIAN_POINT('',(0.015,-0.02,0.19));
#1633=CARTESIAN_POINT('',(0.,-0.02,0.19));
#1634=CARTESIAN_POINT('',(0.015,0.,0.19));
#1635=CARTESIAN_POINT('',(0.015,0.,0.));
#1636=CARTESIAN_POINT('',(0.015,0.02,0.));
#1637=CARTESIAN_POINT('',(0.015,0.02,0.19));
#1638=CARTESIAN_POINT('',(0.015,0.02,0.19));
#1639=CARTESIAN_POINT('',(0.015,0.,0.19));
#1640=CARTESIAN_POINT('',(0.,0.02,0.19));
#1641=CARTESIAN_POINT('',(0.,0.02,0.1435));
#1642=CARTESIAN_POINT('',(0.012525,0.02,0.1435));
#1643=CARTESIAN_POINT('',(-0.012525,0.02,0.1435));
#1644=CARTESIAN_POINT('',(0.012525,0.02,0.166325));
#1645=CARTESIAN_POINT('',(0.012525,0.02,0.18915));
#1646=CARTESIAN_POINT('',(0.,0.02,0.18915));
#1647=CARTESIAN_POINT('',(-0.012525,0.02,0.18915));
#1648=CARTESIAN_POINT('',(-0.012525,0.02,0.166325));
#1649=CARTESIAN_POINT('',(0.,0.02,0.));
#1650=CARTESIAN_POINT('',(0.,0.02,0.19));
#1651=CARTESIAN_POINT('',(0.,0.,0.19));
#1652=CARTESIAN_POINT('',(0.,0.,0.));
#1653=CARTESIAN_POINT('',(0.00495,0.00495,0.));
#1654=CARTESIAN_POINT('',(0.0035,0.00495,0.));
#1655=CARTESIAN_POINT('',(-0.00495,-0.00495,0.));
#1656=CARTESIAN_POINT('',(-0.0064,-0.00495,0.));
#1657=CARTESIAN_POINT('',(-0.00495,0.00495,0.));
#1658=CARTESIAN_POINT('',(-0.0064,0.00495,0.));
#1659=CARTESIAN_POINT('',(0.00495,-0.00495,0.));
#1660=CARTESIAN_POINT('',(0.0035,-0.00495,0.));
#1661=CARTESIAN_POINT('',(0.00495,-0.00495,0.005));
#1662=CARTESIAN_POINT('',(0.00495,-0.00495,0.005));
#1663=CARTESIAN_POINT('',(0.0035,-0.00495,0.005));
#1664=CARTESIAN_POINT('',(0.,0.,0.005));
#1665=CARTESIAN_POINT('',(-0.00495,0.00495,0.005));
#1666=CARTESIAN_POINT('',(-0.00495,0.00495,0.005));
#1667=CARTESIAN_POINT('',(-0.0064,0.00495,0.005));
#1668=CARTESIAN_POINT('',(0.,0.,0.005));
#1669=CARTESIAN_POINT('',(-0.00495,-0.00495,0.005));
#1670=CARTESIAN_POINT('',(-0.00495,-0.00495,0.005));
#1671=CARTESIAN_POINT('',(-0.0064,-0.00495,0.005));
#1672=CARTESIAN_POINT('',(0.,0.,0.005));
#1673=CARTESIAN_POINT('',(0.00495,0.00495,0.005));
#1674=CARTESIAN_POINT('',(0.00495,0.00495,0.005));
#1675=CARTESIAN_POINT('',(0.0035,0.00495,0.005));
#1676=CARTESIAN_POINT('',(0.,0.,0.005));
#1677=CARTESIAN_POINT('',(0.012525,-0.01455,0.166325));
#1678=CARTESIAN_POINT('',(0.012525,-0.01455,0.1435));
#1679=CARTESIAN_POINT('',(0.012525,-0.01455,0.1435));
#1680=CARTESIAN_POINT('',(0.012525,-0.01455,0.166325));
#1681=CARTESIAN_POINT('',(0.012525,-0.01455,0.18915));
#1682=CARTESIAN_POINT('',(0.012525,-0.01455,0.18915));
#1683=CARTESIAN_POINT('',(0.,-0.01455,0.1435));
#1684=CARTESIAN_POINT('',(-0.012525,-0.01455,0.1435));
#1685=CARTESIAN_POINT('',(-0.012525,-0.01455,0.1435));
#1686=CARTESIAN_POINT('',(0.,-0.01455,0.1435));
#1687=CARTESIAN_POINT('',(-0.012525,-0.01455,0.166325));
#1688=CARTESIAN_POINT('',(-0.012525,-0.01455,0.18915));
#1689=CARTESIAN_POINT('',(-0.012525,-0.01455,0.18915));
#1690=CARTESIAN_POINT('',(-0.012525,-0.01455,0.166325));
#1691=CARTESIAN_POINT('',(0.,-0.01455,0.18915));
#1692=CARTESIAN_POINT('',(0.,-0.01455,0.18915));
#1693=CARTESIAN_POINT('',(0.,-0.01455,0.095));
#1694=CARTESIAN_POINT('',(0.0125,-0.018,0.0348678438293504));
#1695=CARTESIAN_POINT('',(-0.011,0.,0.134));
#1696=CARTESIAN_POINT('',(-0.011,0.,0.));
#1697=CARTESIAN_POINT('',(-0.011,0.01,0.));
#1698=CARTESIAN_POINT('',(-0.011,-0.01,0.));
#1699=CARTESIAN_POINT('',(-0.011,-0.01,0.134));
#1700=CARTESIAN_POINT('',(-0.011,-0.01,0.134));
#1701=CARTESIAN_POINT('',(-0.011,0.,0.134));
#1702=CARTESIAN_POINT('',(-0.011,0.01,0.134));
#1703=CARTESIAN_POINT('',(-0.011,0.01,0.134));
#1704=CARTESIAN_POINT('',(0.,-0.01,0.134));
#1705=CARTESIAN_POINT('',(0.,-0.01,0.));
#1706=CARTESIAN_POINT('',(0.011,-0.01,0.));
#1707=CARTESIAN_POINT('',(0.011,-0.01,0.134));
#1708=CARTESIAN_POINT('',(0.011,-0.01,0.134));
#1709=CARTESIAN_POINT('',(0.,-0.01,0.134));
#1710=CARTESIAN_POINT('',(0.011,0.,0.134));
#1711=CARTESIAN_POINT('',(0.011,0.,0.));
#1712=CARTESIAN_POINT('',(0.011,0.01,0.));
#1713=CARTESIAN_POINT('',(0.011,0.01,0.134));
#1714=CARTESIAN_POINT('',(0.011,0.01,0.134));
#1715=CARTESIAN_POINT('',(0.011,0.,0.134));
#1716=CARTESIAN_POINT('',(0.,0.01,0.134));
#1717=CARTESIAN_POINT('',(0.,0.01,0.));
#1718=CARTESIAN_POINT('',(0.,0.01,0.134));
#1719=CARTESIAN_POINT('',(0.,0.,0.134));
#1720=CARTESIAN_POINT('',(0.00495,-0.00495,0.134));
#1721=CARTESIAN_POINT('',(0.0064,-0.00495,0.134));
#1722=CARTESIAN_POINT('',(-0.00495,0.00495,0.134));
#1723=CARTESIAN_POINT('',(-0.0035,0.00495,0.134));
#1724=CARTESIAN_POINT('',(-0.00495,-0.00495,0.134));
#1725=CARTESIAN_POINT('',(-0.0035,-0.00495,0.134));
#1726=CARTESIAN_POINT('',(0.00495,0.00495,0.134));
#1727=CARTESIAN_POINT('',(0.0064,0.00495,0.134));
#1728=CARTESIAN_POINT('',(0.,0.,0.));
#1729=CARTESIAN_POINT('',(0.,-1.22464679914735E-19,0.));
#1730=CARTESIAN_POINT('',(-0.002,-1.22464679914735E-19,0.));
#1731=CARTESIAN_POINT('',(0.00495,0.00495,0.129));
#1732=CARTESIAN_POINT('',(0.00495,0.00495,0.129));
#1733=CARTESIAN_POINT('',(0.0064,0.00495,0.129));
#1734=CARTESIAN_POINT('',(0.,0.,0.129));
#1735=CARTESIAN_POINT('',(-0.00495,-0.00495,0.129));
#1736=CARTESIAN_POINT('',(-0.00495,-0.00495,0.129));
#1737=CARTESIAN_POINT('',(-0.0035,-0.00495,0.129));
#1738=CARTESIAN_POINT('',(0.,0.,0.129));
#1739=CARTESIAN_POINT('',(-0.00495,0.00495,0.129));
#1740=CARTESIAN_POINT('',(-0.00495,0.00495,0.129));
#1741=CARTESIAN_POINT('',(-0.0035,0.00495,0.129));
#1742=CARTESIAN_POINT('',(0.,0.,0.129));
#1743=CARTESIAN_POINT('',(0.00495,-0.00495,0.129));
#1744=CARTESIAN_POINT('',(0.00495,-0.00495,0.129));
#1745=CARTESIAN_POINT('',(0.0064,-0.00495,0.129));
#1746=CARTESIAN_POINT('',(0.,0.,0.129));
#1747=CARTESIAN_POINT('',(0.,-1.22464679914735E-19,0.008));
#1748=CARTESIAN_POINT('',(0.,-1.22464679914735E-19,0.008));
#1749=CARTESIAN_POINT('',(-0.002,-1.22464679914735E-19,0.008));
#1750=CARTESIAN_POINT('',(0.,0.,0.008));
#1751=CARTESIAN_POINT('',(0.0125,0.148099629688459,0.14886784382935));
#1752=CARTESIAN_POINT('',(-0.015,0.,0.052));
#1753=CARTESIAN_POINT('',(-0.015,0.,0.));
#1754=CARTESIAN_POINT('',(-0.015,0.018,0.));
#1755=CARTESIAN_POINT('',(-0.015,-0.018,0.));
#1756=CARTESIAN_POINT('',(-0.015,-0.018,0.052));
#1757=CARTESIAN_POINT('',(-0.015,-0.018,0.052));
#1758=CARTESIAN_POINT('',(-0.015,0.,0.052));
#1759=CARTESIAN_POINT('',(-0.015,0.018,0.052));
#1760=CARTESIAN_POINT('',(-0.015,0.018,0.052));
#1761=CARTESIAN_POINT('',(0.,-0.018,0.052));
#1762=CARTESIAN_POINT('',(0.,-0.018,0.));
#1763=CARTESIAN_POINT('',(0.015,-0.018,0.));
#1764=CARTESIAN_POINT('',(0.015,-0.018,0.052));
#1765=CARTESIAN_POINT('',(0.015,-0.018,0.052));
#1766=CARTESIAN_POINT('',(0.,-0.018,0.052));
#1767=CARTESIAN_POINT('',(0.015,0.,0.052));
#1768=CARTESIAN_POINT('',(0.015,0.,0.));
#1769=CARTESIAN_POINT('',(0.015,0.018,0.));
#1770=CARTESIAN_POINT('',(0.015,0.018,0.052));
#1771=CARTESIAN_POINT('',(0.015,0.018,0.052));
#1772=CARTESIAN_POINT('',(0.015,0.,0.052));
#1773=CARTESIAN_POINT('',(0.,0.018,0.052));
#1774=CARTESIAN_POINT('',(0.,0.018,0.004875));
#1775=CARTESIAN_POINT('',(0.012525,0.018,0.004875));
#1776=CARTESIAN_POINT('',(-0.012525,0.018,0.004875));
#1777=CARTESIAN_POINT('',(0.012525,0.018,0.0277));
#1778=CARTESIAN_POINT('',(0.012525,0.018,0.050525));
#1779=CARTESIAN_POINT('',(0.,0.018,0.050525));
#1780=CARTESIAN_POINT('',(-0.012525,0.018,0.050525));
#1781=CARTESIAN_POINT('',(-0.012525,0.018,0.0277));
#1782=CARTESIAN_POINT('',(0.,0.018,0.));
#1783=CARTESIAN_POINT('',(0.,0.018,0.052));
#1784=CARTESIAN_POINT('',(0.,0.,0.052));
#1785=CARTESIAN_POINT('',(0.,0.,0.));
#1786=CARTESIAN_POINT('',(0.00495,0.00495,0.));
#1787=CARTESIAN_POINT('',(0.0035,0.00495,0.));
#1788=CARTESIAN_POINT('',(-0.00495,-0.00495,0.));
#1789=CARTESIAN_POINT('',(-0.0064,-0.00495,0.));
#1790=CARTESIAN_POINT('',(-0.00495,0.00495,0.));
#1791=CARTESIAN_POINT('',(-0.0064,0.00495,0.));
#1792=CARTESIAN_POINT('',(0.00495,-0.00495,0.));
#1793=CARTESIAN_POINT('',(0.0035,-0.00495,0.));
#1794=CARTESIAN_POINT('',(0.012525,-0.01655,0.0277));
#1795=CARTESIAN_POINT('',(0.012525,-0.01655,0.004875));
#1796=CARTESIAN_POINT('',(0.012525,-0.01655,0.004875));
#1797=CARTESIAN_POINT('',(0.012525,-0.01655,0.0277));
#1798=CARTESIAN_POINT('',(0.012525,-0.01655,0.050525));
#1799=CARTESIAN_POINT('',(0.012525,-0.01655,0.050525));
#1800=CARTESIAN_POINT('',(0.,-0.01655,0.004875));
#1801=CARTESIAN_POINT('',(0.00495,0.00495,0.004875));
#1802=CARTESIAN_POINT('',(0.0035,0.00495,0.004875));
#1803=CARTESIAN_POINT('',(-0.00495,-0.00495,0.004875));
#1804=CARTESIAN_POINT('',(-0.0064,-0.00495,0.004875));
#1805=CARTESIAN_POINT('',(-0.00495,0.00495,0.004875));
#1806=CARTESIAN_POINT('',(-0.0064,0.00495,0.004875));
#1807=CARTESIAN_POINT('',(0.00495,-0.00495,0.004875));
#1808=CARTESIAN_POINT('',(0.0035,-0.00495,0.004875));
#1809=CARTESIAN_POINT('',(-0.012525,-0.01655,0.004875));
#1810=CARTESIAN_POINT('',(-0.012525,-0.01655,0.004875));
#1811=CARTESIAN_POINT('',(0.,-0.01655,0.004875));
#1812=CARTESIAN_POINT('',(-0.012525,-0.01655,0.0277));
#1813=CARTESIAN_POINT('',(-0.012525,-0.01655,0.050525));
#1814=CARTESIAN_POINT('',(-0.012525,-0.01655,0.050525));
#1815=CARTESIAN_POINT('',(-0.012525,-0.01655,0.0277));
#1816=CARTESIAN_POINT('',(0.,-0.01655,0.050525));
#1817=CARTESIAN_POINT('',(0.,-0.01655,0.050525));
#1818=CARTESIAN_POINT('',(0.,-0.01655,0.026));
#1819=CARTESIAN_POINT('',(0.00495,-0.00495,0.005));
#1820=CARTESIAN_POINT('',(-0.00495,0.00495,0.005));
#1821=CARTESIAN_POINT('',(-0.00495,-0.00495,0.005));
#1822=CARTESIAN_POINT('',(0.00495,0.00495,0.005));
#1823=CARTESIAN_POINT('',(0.0125,3.68186021176216E-34,0.042));
#1824=CARTESIAN_POINT('',(-0.03,0.,0.006));
#1825=CARTESIAN_POINT('',(-0.03,0.,0.));
#1826=CARTESIAN_POINT('',(-0.03,0.02,0.));
#1827=CARTESIAN_POINT('',(-0.03,-0.02,0.));
#1828=CARTESIAN_POINT('',(-0.03,-0.02,0.006));
#1829=CARTESIAN_POINT('',(-0.03,-0.02,0.006));
#1830=CARTESIAN_POINT('',(-0.03,0.,0.006));
#1831=CARTESIAN_POINT('',(-0.03,0.02,0.006));
#1832=CARTESIAN_POINT('',(-0.03,0.02,0.006));
#1833=CARTESIAN_POINT('',(0.,-0.02,0.006));
#1834=CARTESIAN_POINT('',(0.,-0.02,0.));
#1835=CARTESIAN_POINT('',(0.03,-0.02,0.));
#1836=CARTESIAN_POINT('',(0.03,-0.02,0.006));
#1837=CARTESIAN_POINT('',(0.03,-0.02,0.006));
#1838=CARTESIAN_POINT('',(0.,-0.02,0.006));
#1839=CARTESIAN_POINT('',(0.03,0.,0.006));
#1840=CARTESIAN_POINT('',(0.03,0.,0.));
#1841=CARTESIAN_POINT('',(0.03,0.02,0.));
#1842=CARTESIAN_POINT('',(0.03,0.02,0.006));
#1843=CARTESIAN_POINT('',(0.03,0.02,0.006));
#1844=CARTESIAN_POINT('',(0.03,0.,0.006));
#1845=CARTESIAN_POINT('',(0.,0.02,0.006));
#1846=CARTESIAN_POINT('',(0.,0.02,0.));
#1847=CARTESIAN_POINT('',(0.,0.02,0.006));
#1848=CARTESIAN_POINT('',(0.,0.,0.006));
#1849=CARTESIAN_POINT('',(-0.0265,0.,0.006));
#1850=CARTESIAN_POINT('',(-0.0265,0.017,0.006));
#1851=CARTESIAN_POINT('',(-0.0265,-0.017,0.006));
#1852=CARTESIAN_POINT('',(0.,0.017,0.006));
#1853=CARTESIAN_POINT('',(0.0265,0.017,0.006));
#1854=CARTESIAN_POINT('',(0.0265,0.,0.006));
#1855=CARTESIAN_POINT('',(0.0265,-0.017,0.006));
#1856=CARTESIAN_POINT('',(0.,-0.017,0.006));
#1857=CARTESIAN_POINT('',(0.,0.,0.));
#1858=CARTESIAN_POINT('',(-0.015,-0.015,0.));
#1859=CARTESIAN_POINT('',(-0.017,-0.015,0.));
#1860=CARTESIAN_POINT('',(0.015,0.015,0.));
#1861=CARTESIAN_POINT('',(0.013,0.015,0.));
#1862=CARTESIAN_POINT('',(-0.015,0.015,0.));
#1863=CARTESIAN_POINT('',(-0.017,0.015,0.));
#1864=CARTESIAN_POINT('',(0.015,-0.015,0.));
#1865=CARTESIAN_POINT('',(0.013,-0.015,0.));
#1866=CARTESIAN_POINT('',(-0.0265,0.,0.042));
#1867=CARTESIAN_POINT('',(-0.0265,-0.017,0.042));
#1868=CARTESIAN_POINT('',(-0.0265,-0.017,0.042));
#1869=CARTESIAN_POINT('',(-0.0265,0.,0.042));
#1870=CARTESIAN_POINT('',(-0.0265,0.017,0.042));
#1871=CARTESIAN_POINT('',(-0.0265,0.017,0.042));
#1872=CARTESIAN_POINT('',(0.,-0.017,0.042));
#1873=CARTESIAN_POINT('',(0.0265,-0.017,0.042));
#1874=CARTESIAN_POINT('',(0.0265,-0.017,0.042));
#1875=CARTESIAN_POINT('',(0.,-0.017,0.042));
#1876=CARTESIAN_POINT('',(0.0265,0.,0.042));
#1877=CARTESIAN_POINT('',(0.0265,0.017,0.042));
#1878=CARTESIAN_POINT('',(0.0265,0.017,0.042));
#1879=CARTESIAN_POINT('',(0.0265,0.,0.042));
#1880=CARTESIAN_POINT('',(0.,0.017,0.042));
#1881=CARTESIAN_POINT('',(0.,0.017,0.042));
#1882=CARTESIAN_POINT('',(0.,0.,0.042));
#1883=CARTESIAN_POINT('',(-0.022825,0.,0.042));
#1884=CARTESIAN_POINT('',(-0.022825,0.012525,0.042));
#1885=CARTESIAN_POINT('',(-0.022825,-0.012525,0.042));
#1886=CARTESIAN_POINT('',(0.,0.012525,0.042));
#1887=CARTESIAN_POINT('',(0.022825,0.012525,0.042));
#1888=CARTESIAN_POINT('',(0.022825,0.,0.042));
#1889=CARTESIAN_POINT('',(0.022825,-0.012525,0.042));
#1890=CARTESIAN_POINT('',(0.,-0.012525,0.042));
#1891=CARTESIAN_POINT('',(-0.022825,0.,0.006));
#1892=CARTESIAN_POINT('',(-0.022825,-0.012525,0.006));
#1893=CARTESIAN_POINT('',(-0.022825,-0.012525,0.006));
#1894=CARTESIAN_POINT('',(-0.022825,0.,0.006));
#1895=CARTESIAN_POINT('',(-0.022825,0.012525,0.006));
#1896=CARTESIAN_POINT('',(-0.022825,0.012525,0.006));
#1897=CARTESIAN_POINT('',(0.,-0.012525,0.006));
#1898=CARTESIAN_POINT('',(0.022825,-0.012525,0.006));
#1899=CARTESIAN_POINT('',(0.022825,-0.012525,0.006));
#1900=CARTESIAN_POINT('',(0.,-0.012525,0.006));
#1901=CARTESIAN_POINT('',(0.022825,0.,0.006));
#1902=CARTESIAN_POINT('',(0.022825,0.012525,0.006));
#1903=CARTESIAN_POINT('',(0.022825,0.012525,0.006));
#1904=CARTESIAN_POINT('',(0.022825,0.,0.006));
#1905=CARTESIAN_POINT('',(0.,0.012525,0.006));
#1906=CARTESIAN_POINT('',(0.,0.012525,0.006));
#1907=CARTESIAN_POINT('',(0.,0.,0.006));
#1908=CARTESIAN_POINT('',(0.015,-0.015,0.0057));
#1909=CARTESIAN_POINT('',(0.015,-0.015,0.0057));
#1910=CARTESIAN_POINT('',(0.013,-0.015,0.0057));
#1911=CARTESIAN_POINT('',(0.,0.,0.0057));
#1912=CARTESIAN_POINT('',(-0.015,0.015,0.0057));
#1913=CARTESIAN_POINT('',(-0.015,0.015,0.0057));
#1914=CARTESIAN_POINT('',(-0.017,0.015,0.0057));
#1915=CARTESIAN_POINT('',(0.,0.,0.0057));
#1916=CARTESIAN_POINT('',(0.015,0.015,0.0057));
#1917=CARTESIAN_POINT('',(0.015,0.015,0.0057));
#1918=CARTESIAN_POINT('',(0.013,0.015,0.0057));
#1919=CARTESIAN_POINT('',(0.,0.,0.0057));
#1920=CARTESIAN_POINT('',(-0.015,-0.015,0.0057));
#1921=CARTESIAN_POINT('',(-0.015,-0.015,0.0057));
#1922=CARTESIAN_POINT('',(-0.017,-0.015,0.0057));
#1923=CARTESIAN_POINT('',(0.,0.,0.0057));
#1924=CARTESIAN_POINT('',(0.,0.,0.));
#1925=MECHANICAL_DESIGN_GEOMETRIC_PRESENTATION_REPRESENTATION('',(#1140,
#1141,#1142,#1143),#1926);
#1926=(
GEOMETRIC_REPRESENTATION_CONTEXT(3)
GLOBAL_UNCERTAINTY_ASSIGNED_CONTEXT((#1931))
GLOBAL_UNIT_ASSIGNED_CONTEXT((#1938,#1937,#1936))
REPRESENTATION_CONTEXT('Leg-V4-Assembly','TOP_LEVEL_ASSEMBLY_PART')
);
#1927=(
GEOMETRIC_REPRESENTATION_CONTEXT(3)
GLOBAL_UNCERTAINTY_ASSIGNED_CONTEXT((#1932))
GLOBAL_UNIT_ASSIGNED_CONTEXT((#1938,#1937,#1936))
REPRESENTATION_CONTEXT('Part 1','COMPONENT_PART')
);
#1928=(
GEOMETRIC_REPRESENTATION_CONTEXT(3)
GLOBAL_UNCERTAINTY_ASSIGNED_CONTEXT((#1933))
GLOBAL_UNIT_ASSIGNED_CONTEXT((#1938,#1937,#1936))
REPRESENTATION_CONTEXT('Part 1','COMPONENT_PART')
);
#1929=(
GEOMETRIC_REPRESENTATION_CONTEXT(3)
GLOBAL_UNCERTAINTY_ASSIGNED_CONTEXT((#1934))
GLOBAL_UNIT_ASSIGNED_CONTEXT((#1938,#1937,#1936))
REPRESENTATION_CONTEXT('Part 1','COMPONENT_PART')
);
#1930=(
GEOMETRIC_REPRESENTATION_CONTEXT(3)
GLOBAL_UNCERTAINTY_ASSIGNED_CONTEXT((#1935))
GLOBAL_UNIT_ASSIGNED_CONTEXT((#1938,#1937,#1936))
REPRESENTATION_CONTEXT('Part 1','COMPONENT_PART')
);
#1931=UNCERTAINTY_MEASURE_WITH_UNIT(LENGTH_MEASURE(1.E-8),#1938,
'DISTANCE_ACCURACY_VALUE','Maximum Tolerance applied to model');
#1932=UNCERTAINTY_MEASURE_WITH_UNIT(LENGTH_MEASURE(1.E-8),#1938,
'DISTANCE_ACCURACY_VALUE','Maximum Tolerance applied to model');
#1933=UNCERTAINTY_MEASURE_WITH_UNIT(LENGTH_MEASURE(1.E-8),#1938,
'DISTANCE_ACCURACY_VALUE','Maximum Tolerance applied to model');
#1934=UNCERTAINTY_MEASURE_WITH_UNIT(LENGTH_MEASURE(1.E-8),#1938,
'DISTANCE_ACCURACY_VALUE','Maximum Tolerance applied to model');
#1935=UNCERTAINTY_MEASURE_WITH_UNIT(LENGTH_MEASURE(1.E-8),#1938,
'DISTANCE_ACCURACY_VALUE','Maximum Tolerance applied to model');
#1936=(
NAMED_UNIT(*)
SI_UNIT($,.STERADIAN.)
SOLID_ANGLE_UNIT()
);
#1937=(
NAMED_UNIT(*)
PLANE_ANGLE_UNIT()
SI_UNIT($,.RADIAN.)
);
#1938=(
LENGTH_UNIT()
NAMED_UNIT(*)
SI_UNIT($,.METRE.)
);
#1939=PRODUCT_DEFINITION_SHAPE('','',#1948);
#1940=PRODUCT_DEFINITION_SHAPE('','',#1949);
#1941=PRODUCT_DEFINITION_SHAPE(' ','NAUO PRDDFN',#22);
#1942=PRODUCT_DEFINITION_SHAPE('','',#1950);
#1943=PRODUCT_DEFINITION_SHAPE(' ','NAUO PRDDFN',#23);
#1944=PRODUCT_DEFINITION_SHAPE('','',#1951);
#1945=PRODUCT_DEFINITION_SHAPE(' ','NAUO PRDDFN',#24);
#1946=PRODUCT_DEFINITION_SHAPE('','',#1952);
#1947=PRODUCT_DEFINITION_SHAPE(' ','NAUO PRDDFN',#25);
#1948=PRODUCT_DEFINITION('','',#1958,#1953);
#1949=PRODUCT_DEFINITION('','',#1959,#1954);
#1950=PRODUCT_DEFINITION('','',#1960,#1955);
#1951=PRODUCT_DEFINITION('','',#1961,#1956);
#1952=PRODUCT_DEFINITION('','',#1962,#1957);
#1953=PRODUCT_DEFINITION_CONTEXT('',#1984,'design');
#1954=PRODUCT_DEFINITION_CONTEXT('',#1984,'design');
#1955=PRODUCT_DEFINITION_CONTEXT('',#1984,'design');
#1956=PRODUCT_DEFINITION_CONTEXT('',#1984,'design');
#1957=PRODUCT_DEFINITION_CONTEXT('',#1984,'design');
#1958=PRODUCT_DEFINITION_FORMATION_WITH_SPECIFIED_SOURCE('','',#1968,
 .NOT_KNOWN.);
#1959=PRODUCT_DEFINITION_FORMATION_WITH_SPECIFIED_SOURCE('','',#1969,
 .NOT_KNOWN.);
#1960=PRODUCT_DEFINITION_FORMATION_WITH_SPECIFIED_SOURCE('','',#1970,
 .NOT_KNOWN.);
#1961=PRODUCT_DEFINITION_FORMATION_WITH_SPECIFIED_SOURCE('','',#1971,
 .NOT_KNOWN.);
#1962=PRODUCT_DEFINITION_FORMATION_WITH_SPECIFIED_SOURCE('','',#1972,
 .NOT_KNOWN.);
#1963=PRODUCT_RELATED_PRODUCT_CATEGORY('','',(#1968));
#1964=PRODUCT_RELATED_PRODUCT_CATEGORY('','',(#1969));
#1965=PRODUCT_RELATED_PRODUCT_CATEGORY('','',(#1970));
#1966=PRODUCT_RELATED_PRODUCT_CATEGORY('','',(#1971));
#1967=PRODUCT_RELATED_PRODUCT_CATEGORY('','',(#1972));
#1968=PRODUCT('Leg-V4-Assembly','Leg-V4-Assembly','Leg-V4-Assembly',(#1978));
#1969=PRODUCT('Part 1','Part 1','Part 1',(#1979));
#1970=PRODUCT('Part 1','Part 1','Part 1',(#1980));
#1971=PRODUCT('Part 1','Part 1','Part 1',(#1981));
#1972=PRODUCT('Part 1','Part 1','Part 1',(#1982));
#1973=PRODUCT_CATEGORY('','');
#1974=PRODUCT_CATEGORY('','');
#1975=PRODUCT_CATEGORY('','');
#1976=PRODUCT_CATEGORY('','');
#1977=PRODUCT_CATEGORY('','');
#1978=PRODUCT_CONTEXT('',#1984,'mechanical');
#1979=PRODUCT_CONTEXT('',#1984,'mechanical');
#1980=PRODUCT_CONTEXT('',#1984,'mechanical');
#1981=PRODUCT_CONTEXT('',#1984,'mechanical');
#1982=PRODUCT_CONTEXT('',#1984,'mechanical');
#1983=APPLICATION_PROTOCOL_DEFINITION('international standard',
'automotive_design',2010,#1984);
#1984=APPLICATION_CONTEXT(
'core data for automotive mechanical design processes');
ENDSEC;
END-ISO-10303-21;
