ISO-10303-21;
HEADER;
/* Generated by software containing ST-Developer
 * from STEP Tools, Inc. (www.steptools.com) 
 */
/* OPTION: using custom renumber hook */

FILE_DESCRIPTION(
/* description */ ('STEP AP214',
'CAx-IF Rec.Pracs.---User Defined Attributes---1.5---2016-08-15'),
/* implementation_level */ '2;1');

FILE_NAME(
/* name */ '6a13bc6829e817fb99b76b30',
/* time_stamp */ '2026-05-25T03:05:12Z',
/* author */ (''),
/* organization */ (''),
/* preprocessor_version */ 'ST-DEVELOPER v20',
/* originating_system */ 'ONSHAPE BY PTC INC, 1.215',
/* authorisation */ '  ');

FILE_SCHEMA (('AUTOMOTIVE_DESIGN {1 0 10303 214 3 1 1}'));
ENDSEC;

DATA;
#10=PROPERTY_DEFINITION_REPRESENTATION(#14,#12);
#11=PROPERTY_DEFINITION_REPRESENTATION(#15,#13);
#12=REPRESENTATION('',(#16),#629);
#13=REPRESENTATION('',(#17),#629);
#14=PROPERTY_DEFINITION('pmi validation property','',#634);
#15=PROPERTY_DEFINITION('pmi validation property','',#634);
#16=VALUE_REPRESENTATION_ITEM('number of annotations',COUNT_MEASURE(0.));
#17=VALUE_REPRESENTATION_ITEM('number of views',COUNT_MEASURE(0.));
#18=SHAPE_REPRESENTATION_RELATIONSHIP('','',#391,#19);
#19=ADVANCED_BREP_SHAPE_REPRESENTATION('',(#389),#629);
#20=CYLINDRICAL_SURFACE('',#413,0.002);
#21=CYLINDRICAL_SURFACE('',#416,0.002);
#22=CYLINDRICAL_SURFACE('',#419,0.002);
#23=CYLINDRICAL_SURFACE('',#422,0.002);
#24=CIRCLE('',#399,0.002);
#25=CIRCLE('',#400,0.002);
#26=CIRCLE('',#401,0.002);
#27=CIRCLE('',#402,0.002);
#28=CIRCLE('',#414,0.002);
#29=CIRCLE('',#417,0.002);
#30=CIRCLE('',#420,0.002);
#31=CIRCLE('',#423,0.002);
#32=ORIENTED_EDGE('',*,*,#120,.T.);
#33=ORIENTED_EDGE('',*,*,#121,.F.);
#34=ORIENTED_EDGE('',*,*,#122,.F.);
#35=ORIENTED_EDGE('',*,*,#123,.T.);
#36=ORIENTED_EDGE('',*,*,#124,.T.);
#37=ORIENTED_EDGE('',*,*,#125,.F.);
#38=ORIENTED_EDGE('',*,*,#126,.F.);
#39=ORIENTED_EDGE('',*,*,#121,.T.);
#40=ORIENTED_EDGE('',*,*,#127,.T.);
#41=ORIENTED_EDGE('',*,*,#128,.F.);
#42=ORIENTED_EDGE('',*,*,#129,.F.);
#43=ORIENTED_EDGE('',*,*,#125,.T.);
#44=ORIENTED_EDGE('',*,*,#130,.T.);
#45=ORIENTED_EDGE('',*,*,#123,.F.);
#46=ORIENTED_EDGE('',*,*,#131,.F.);
#47=ORIENTED_EDGE('',*,*,#128,.T.);
#48=ORIENTED_EDGE('',*,*,#132,.F.);
#49=ORIENTED_EDGE('',*,*,#133,.F.);
#50=ORIENTED_EDGE('',*,*,#134,.F.);
#51=ORIENTED_EDGE('',*,*,#135,.F.);
#52=ORIENTED_EDGE('',*,*,#122,.T.);
#53=ORIENTED_EDGE('',*,*,#126,.T.);
#54=ORIENTED_EDGE('',*,*,#129,.T.);
#55=ORIENTED_EDGE('',*,*,#131,.T.);
#56=ORIENTED_EDGE('',*,*,#136,.F.);
#57=ORIENTED_EDGE('',*,*,#137,.F.);
#58=ORIENTED_EDGE('',*,*,#138,.F.);
#59=ORIENTED_EDGE('',*,*,#139,.F.);
#60=ORIENTED_EDGE('',*,*,#120,.F.);
#61=ORIENTED_EDGE('',*,*,#130,.F.);
#62=ORIENTED_EDGE('',*,*,#127,.F.);
#63=ORIENTED_EDGE('',*,*,#124,.F.);
#64=ORIENTED_EDGE('',*,*,#132,.T.);
#65=ORIENTED_EDGE('',*,*,#140,.F.);
#66=ORIENTED_EDGE('',*,*,#141,.F.);
#67=ORIENTED_EDGE('',*,*,#142,.T.);
#68=ORIENTED_EDGE('',*,*,#135,.T.);
#69=ORIENTED_EDGE('',*,*,#143,.F.);
#70=ORIENTED_EDGE('',*,*,#144,.F.);
#71=ORIENTED_EDGE('',*,*,#140,.T.);
#72=ORIENTED_EDGE('',*,*,#134,.T.);
#73=ORIENTED_EDGE('',*,*,#145,.F.);
#74=ORIENTED_EDGE('',*,*,#146,.F.);
#75=ORIENTED_EDGE('',*,*,#143,.T.);
#76=ORIENTED_EDGE('',*,*,#133,.T.);
#77=ORIENTED_EDGE('',*,*,#142,.F.);
#78=ORIENTED_EDGE('',*,*,#147,.F.);
#79=ORIENTED_EDGE('',*,*,#145,.T.);
#80=ORIENTED_EDGE('',*,*,#148,.F.);
#81=ORIENTED_EDGE('',*,*,#149,.F.);
#82=ORIENTED_EDGE('',*,*,#150,.F.);
#83=ORIENTED_EDGE('',*,*,#151,.F.);
#84=ORIENTED_EDGE('',*,*,#141,.T.);
#85=ORIENTED_EDGE('',*,*,#144,.T.);
#86=ORIENTED_EDGE('',*,*,#146,.T.);
#87=ORIENTED_EDGE('',*,*,#147,.T.);
#88=ORIENTED_EDGE('',*,*,#148,.T.);
#89=ORIENTED_EDGE('',*,*,#152,.F.);
#90=ORIENTED_EDGE('',*,*,#153,.F.);
#91=ORIENTED_EDGE('',*,*,#154,.T.);
#92=ORIENTED_EDGE('',*,*,#151,.T.);
#93=ORIENTED_EDGE('',*,*,#155,.F.);
#94=ORIENTED_EDGE('',*,*,#156,.F.);
#95=ORIENTED_EDGE('',*,*,#152,.T.);
#96=ORIENTED_EDGE('',*,*,#150,.T.);
#97=ORIENTED_EDGE('',*,*,#157,.F.);
#98=ORIENTED_EDGE('',*,*,#158,.F.);
#99=ORIENTED_EDGE('',*,*,#155,.T.);
#100=ORIENTED_EDGE('',*,*,#149,.T.);
#101=ORIENTED_EDGE('',*,*,#154,.F.);
#102=ORIENTED_EDGE('',*,*,#159,.F.);
#103=ORIENTED_EDGE('',*,*,#157,.T.);
#104=ORIENTED_EDGE('',*,*,#153,.T.);
#105=ORIENTED_EDGE('',*,*,#156,.T.);
#106=ORIENTED_EDGE('',*,*,#158,.T.);
#107=ORIENTED_EDGE('',*,*,#159,.T.);
#108=ORIENTED_EDGE('',*,*,#160,.F.);
#109=ORIENTED_EDGE('',*,*,#139,.T.);
#110=ORIENTED_EDGE('',*,*,#160,.T.);
#111=ORIENTED_EDGE('',*,*,#161,.F.);
#112=ORIENTED_EDGE('',*,*,#138,.T.);
#113=ORIENTED_EDGE('',*,*,#161,.T.);
#114=ORIENTED_EDGE('',*,*,#162,.F.);
#115=ORIENTED_EDGE('',*,*,#137,.T.);
#116=ORIENTED_EDGE('',*,*,#162,.T.);
#117=ORIENTED_EDGE('',*,*,#163,.F.);
#118=ORIENTED_EDGE('',*,*,#136,.T.);
#119=ORIENTED_EDGE('',*,*,#163,.T.);
#120=EDGE_CURVE('',#164,#165,#196,.T.);
#121=EDGE_CURVE('',#166,#165,#197,.T.);
#122=EDGE_CURVE('',#167,#166,#198,.T.);
#123=EDGE_CURVE('',#167,#164,#199,.T.);
#124=EDGE_CURVE('',#165,#168,#200,.T.);
#125=EDGE_CURVE('',#169,#168,#201,.T.);
#126=EDGE_CURVE('',#166,#169,#202,.T.);
#127=EDGE_CURVE('',#168,#170,#203,.T.);
#128=EDGE_CURVE('',#171,#170,#204,.T.);
#129=EDGE_CURVE('',#169,#171,#205,.T.);
#130=EDGE_CURVE('',#170,#164,#206,.T.);
#131=EDGE_CURVE('',#171,#167,#207,.T.);
#132=EDGE_CURVE('',#172,#173,#208,.T.);
#133=EDGE_CURVE('',#174,#172,#209,.T.);
#134=EDGE_CURVE('',#175,#174,#210,.T.);
#135=EDGE_CURVE('',#173,#175,#211,.T.);
#136=EDGE_CURVE('',#176,#176,#24,.T.);
#137=EDGE_CURVE('',#177,#177,#25,.T.);
#138=EDGE_CURVE('',#178,#178,#26,.T.);
#139=EDGE_CURVE('',#179,#179,#27,.T.);
#140=EDGE_CURVE('',#180,#173,#212,.T.);
#141=EDGE_CURVE('',#181,#180,#213,.T.);
#142=EDGE_CURVE('',#181,#172,#214,.T.);
#143=EDGE_CURVE('',#182,#175,#215,.T.);
#144=EDGE_CURVE('',#180,#182,#216,.T.);
#145=EDGE_CURVE('',#183,#174,#217,.T.);
#146=EDGE_CURVE('',#182,#183,#218,.T.);
#147=EDGE_CURVE('',#183,#181,#219,.T.);
#148=EDGE_CURVE('',#184,#185,#220,.T.);
#149=EDGE_CURVE('',#186,#184,#221,.T.);
#150=EDGE_CURVE('',#187,#186,#222,.T.);
#151=EDGE_CURVE('',#185,#187,#223,.T.);
#152=EDGE_CURVE('',#188,#185,#224,.T.);
#153=EDGE_CURVE('',#189,#188,#225,.T.);
#154=EDGE_CURVE('',#189,#184,#226,.T.);
#155=EDGE_CURVE('',#190,#187,#227,.T.);
#156=EDGE_CURVE('',#188,#190,#228,.T.);
#157=EDGE_CURVE('',#191,#186,#229,.T.);
#158=EDGE_CURVE('',#190,#191,#230,.T.);
#159=EDGE_CURVE('',#191,#189,#231,.T.);
#160=EDGE_CURVE('',#192,#192,#28,.T.);
#161=EDGE_CURVE('',#193,#193,#29,.T.);
#162=EDGE_CURVE('',#194,#194,#30,.T.);
#163=EDGE_CURVE('',#195,#195,#31,.T.);
#164=VERTEX_POINT('',#530);
#165=VERTEX_POINT('',#531);
#166=VERTEX_POINT('',#533);
#167=VERTEX_POINT('',#535);
#168=VERTEX_POINT('',#539);
#169=VERTEX_POINT('',#541);
#170=VERTEX_POINT('',#545);
#171=VERTEX_POINT('',#547);
#172=VERTEX_POINT('',#554);
#173=VERTEX_POINT('',#555);
#174=VERTEX_POINT('',#557);
#175=VERTEX_POINT('',#559);
#176=VERTEX_POINT('',#563);
#177=VERTEX_POINT('',#565);
#178=VERTEX_POINT('',#567);
#179=VERTEX_POINT('',#569);
#180=VERTEX_POINT('',#572);
#181=VERTEX_POINT('',#574);
#182=VERTEX_POINT('',#578);
#183=VERTEX_POINT('',#582);
#184=VERTEX_POINT('',#588);
#185=VERTEX_POINT('',#589);
#186=VERTEX_POINT('',#591);
#187=VERTEX_POINT('',#593);
#188=VERTEX_POINT('',#597);
#189=VERTEX_POINT('',#599);
#190=VERTEX_POINT('',#603);
#191=VERTEX_POINT('',#607);
#192=VERTEX_POINT('',#614);
#193=VERTEX_POINT('',#618);
#194=VERTEX_POINT('',#622);
#195=VERTEX_POINT('',#626);
#196=LINE('',#529,#232);
#197=LINE('',#532,#233);
#198=LINE('',#534,#234);
#199=LINE('',#536,#235);
#200=LINE('',#538,#236);
#201=LINE('',#540,#237);
#202=LINE('',#542,#238);
#203=LINE('',#544,#239);
#204=LINE('',#546,#240);
#205=LINE('',#548,#241);
#206=LINE('',#550,#242);
#207=LINE('',#551,#243);
#208=LINE('',#553,#244);
#209=LINE('',#556,#245);
#210=LINE('',#558,#246);
#211=LINE('',#560,#247);
#212=LINE('',#571,#248);
#213=LINE('',#573,#249);
#214=LINE('',#575,#250);
#215=LINE('',#577,#251);
#216=LINE('',#579,#252);
#217=LINE('',#581,#253);
#218=LINE('',#583,#254);
#219=LINE('',#585,#255);
#220=LINE('',#587,#256);
#221=LINE('',#590,#257);
#222=LINE('',#592,#258);
#223=LINE('',#594,#259);
#224=LINE('',#596,#260);
#225=LINE('',#598,#261);
#226=LINE('',#600,#262);
#227=LINE('',#602,#263);
#228=LINE('',#604,#264);
#229=LINE('',#606,#265);
#230=LINE('',#608,#266);
#231=LINE('',#610,#267);
#232=VECTOR('',#429,1.);
#233=VECTOR('',#430,1.);
#234=VECTOR('',#431,1.);
#235=VECTOR('',#432,1.);
#236=VECTOR('',#435,1.);
#237=VECTOR('',#436,1.);
#238=VECTOR('',#437,1.);
#239=VECTOR('',#440,1.);
#240=VECTOR('',#441,1.);
#241=VECTOR('',#442,1.);
#242=VECTOR('',#445,1.);
#243=VECTOR('',#446,1.);
#244=VECTOR('',#449,1.);
#245=VECTOR('',#450,1.);
#246=VECTOR('',#451,1.);
#247=VECTOR('',#452,1.);
#248=VECTOR('',#465,1.);
#249=VECTOR('',#466,1.);
#250=VECTOR('',#467,1.);
#251=VECTOR('',#470,1.);
#252=VECTOR('',#471,1.);
#253=VECTOR('',#474,1.);
#254=VECTOR('',#475,1.);
#255=VECTOR('',#478,1.);
#256=VECTOR('',#481,1.);
#257=VECTOR('',#482,1.);
#258=VECTOR('',#483,1.);
#259=VECTOR('',#484,1.);
#260=VECTOR('',#487,1.);
#261=VECTOR('',#488,1.);
#262=VECTOR('',#489,1.);
#263=VECTOR('',#492,1.);
#264=VECTOR('',#493,1.);
#265=VECTOR('',#496,1.);
#266=VECTOR('',#497,1.);
#267=VECTOR('',#500,1.);
#268=EDGE_LOOP('',(#32,#33,#34,#35));
#269=EDGE_LOOP('',(#36,#37,#38,#39));
#270=EDGE_LOOP('',(#40,#41,#42,#43));
#271=EDGE_LOOP('',(#44,#45,#46,#47));
#272=EDGE_LOOP('',(#48,#49,#50,#51));
#273=EDGE_LOOP('',(#52,#53,#54,#55));
#274=EDGE_LOOP('',(#56));
#275=EDGE_LOOP('',(#57));
#276=EDGE_LOOP('',(#58));
#277=EDGE_LOOP('',(#59));
#278=EDGE_LOOP('',(#60,#61,#62,#63));
#279=EDGE_LOOP('',(#64,#65,#66,#67));
#280=EDGE_LOOP('',(#68,#69,#70,#71));
#281=EDGE_LOOP('',(#72,#73,#74,#75));
#282=EDGE_LOOP('',(#76,#77,#78,#79));
#283=EDGE_LOOP('',(#80,#81,#82,#83));
#284=EDGE_LOOP('',(#84,#85,#86,#87));
#285=EDGE_LOOP('',(#88,#89,#90,#91));
#286=EDGE_LOOP('',(#92,#93,#94,#95));
#287=EDGE_LOOP('',(#96,#97,#98,#99));
#288=EDGE_LOOP('',(#100,#101,#102,#103));
#289=EDGE_LOOP('',(#104,#105,#106,#107));
#290=EDGE_LOOP('',(#108));
#291=EDGE_LOOP('',(#109));
#292=EDGE_LOOP('',(#110));
#293=EDGE_LOOP('',(#111));
#294=EDGE_LOOP('',(#112));
#295=EDGE_LOOP('',(#113));
#296=EDGE_LOOP('',(#114));
#297=EDGE_LOOP('',(#115));
#298=EDGE_LOOP('',(#116));
#299=EDGE_LOOP('',(#117));
#300=EDGE_LOOP('',(#118));
#301=EDGE_LOOP('',(#119));
#302=FACE_BOUND('',#268,.T.);
#303=FACE_BOUND('',#269,.T.);
#304=FACE_BOUND('',#270,.T.);
#305=FACE_BOUND('',#271,.T.);
#306=FACE_BOUND('',#272,.T.);
#307=FACE_BOUND('',#273,.T.);
#308=FACE_BOUND('',#274,.T.);
#309=FACE_BOUND('',#275,.T.);
#310=FACE_BOUND('',#276,.T.);
#311=FACE_BOUND('',#277,.T.);
#312=FACE_BOUND('',#278,.T.);
#313=FACE_BOUND('',#279,.T.);
#314=FACE_BOUND('',#280,.T.);
#315=FACE_BOUND('',#281,.T.);
#316=FACE_BOUND('',#282,.T.);
#317=FACE_BOUND('',#283,.T.);
#318=FACE_BOUND('',#284,.T.);
#319=FACE_BOUND('',#285,.T.);
#320=FACE_BOUND('',#286,.T.);
#321=FACE_BOUND('',#287,.T.);
#322=FACE_BOUND('',#288,.T.);
#323=FACE_BOUND('',#289,.T.);
#324=FACE_BOUND('',#290,.T.);
#325=FACE_BOUND('',#291,.T.);
#326=FACE_BOUND('',#292,.T.);
#327=FACE_BOUND('',#293,.T.);
#328=FACE_BOUND('',#294,.T.);
#329=FACE_BOUND('',#295,.T.);
#330=FACE_BOUND('',#296,.T.);
#331=FACE_BOUND('',#297,.T.);
#332=FACE_BOUND('',#298,.T.);
#333=FACE_BOUND('',#299,.T.);
#334=FACE_BOUND('',#300,.T.);
#335=FACE_BOUND('',#301,.T.);
#336=PLANE('',#393);
#337=PLANE('',#394);
#338=PLANE('',#395);
#339=PLANE('',#396);
#340=PLANE('',#397);
#341=PLANE('',#398);
#342=PLANE('',#403);
#343=PLANE('',#404);
#344=PLANE('',#405);
#345=PLANE('',#406);
#346=PLANE('',#407);
#347=PLANE('',#408);
#348=PLANE('',#409);
#349=PLANE('',#410);
#350=PLANE('',#411);
#351=PLANE('',#412);
#352=PLANE('',#415);
#353=PLANE('',#418);
#354=PLANE('',#421);
#355=PLANE('',#424);
#356=ADVANCED_FACE('',(#302),#336,.F.);
#357=ADVANCED_FACE('',(#303),#337,.F.);
#358=ADVANCED_FACE('',(#304),#338,.F.);
#359=ADVANCED_FACE('',(#305),#339,.F.);
#360=ADVANCED_FACE('',(#306,#307),#340,.T.);
#361=ADVANCED_FACE('',(#308,#309,#310,#311,#312),#341,.F.);
#362=ADVANCED_FACE('',(#313),#342,.F.);
#363=ADVANCED_FACE('',(#314),#343,.F.);
#364=ADVANCED_FACE('',(#315),#344,.F.);
#365=ADVANCED_FACE('',(#316),#345,.F.);
#366=ADVANCED_FACE('',(#317,#318),#346,.T.);
#367=ADVANCED_FACE('',(#319),#347,.F.);
#368=ADVANCED_FACE('',(#320),#348,.F.);
#369=ADVANCED_FACE('',(#321),#349,.F.);
#370=ADVANCED_FACE('',(#322),#350,.F.);
#371=ADVANCED_FACE('',(#323),#351,.T.);
#372=ADVANCED_FACE('',(#324,#325),#20,.F.);
#373=ADVANCED_FACE('',(#326),#352,.T.);
#374=ADVANCED_FACE('',(#327,#328),#21,.F.);
#375=ADVANCED_FACE('',(#329),#353,.T.);
#376=ADVANCED_FACE('',(#330,#331),#22,.F.);
#377=ADVANCED_FACE('',(#332),#354,.T.);
#378=ADVANCED_FACE('',(#333,#334),#23,.F.);
#379=ADVANCED_FACE('',(#335),#355,.T.);
#380=CLOSED_SHELL('',(#356,#357,#358,#359,#360,#361,#362,#363,#364,#365,
#366,#367,#368,#369,#370,#371,#372,#373,#374,#375,#376,#377,#378,#379));
#381=STYLED_ITEM('',(#382),#389);
#382=PRESENTATION_STYLE_ASSIGNMENT((#383));
#383=SURFACE_STYLE_USAGE(.BOTH.,#384);
#384=SURFACE_SIDE_STYLE('',(#385));
#385=SURFACE_STYLE_FILL_AREA(#386);
#386=FILL_AREA_STYLE('',(#387));
#387=FILL_AREA_STYLE_COLOUR('',#388);
#388=COLOUR_RGB('',0.615686274509804,0.811764705882353,0.929411764705882);
#389=MANIFOLD_SOLID_BREP('Part 1',#380);
#390=SHAPE_DEFINITION_REPRESENTATION(#634,#391);
#391=SHAPE_REPRESENTATION('Part 1',(#392),#629);
#392=AXIS2_PLACEMENT_3D('',#527,#425,#426);
#393=AXIS2_PLACEMENT_3D('',#528,#427,#428);
#394=AXIS2_PLACEMENT_3D('',#537,#433,#434);
#395=AXIS2_PLACEMENT_3D('',#543,#438,#439);
#396=AXIS2_PLACEMENT_3D('',#549,#443,#444);
#397=AXIS2_PLACEMENT_3D('',#552,#447,#448);
#398=AXIS2_PLACEMENT_3D('',#561,#453,#454);
#399=AXIS2_PLACEMENT_3D('',#562,#455,#456);
#400=AXIS2_PLACEMENT_3D('',#564,#457,#458);
#401=AXIS2_PLACEMENT_3D('',#566,#459,#460);
#402=AXIS2_PLACEMENT_3D('',#568,#461,#462);
#403=AXIS2_PLACEMENT_3D('',#570,#463,#464);
#404=AXIS2_PLACEMENT_3D('',#576,#468,#469);
#405=AXIS2_PLACEMENT_3D('',#580,#472,#473);
#406=AXIS2_PLACEMENT_3D('',#584,#476,#477);
#407=AXIS2_PLACEMENT_3D('',#586,#479,#480);
#408=AXIS2_PLACEMENT_3D('',#595,#485,#486);
#409=AXIS2_PLACEMENT_3D('',#601,#490,#491);
#410=AXIS2_PLACEMENT_3D('',#605,#494,#495);
#411=AXIS2_PLACEMENT_3D('',#609,#498,#499);
#412=AXIS2_PLACEMENT_3D('',#611,#501,#502);
#413=AXIS2_PLACEMENT_3D('',#612,#503,#504);
#414=AXIS2_PLACEMENT_3D('',#613,#505,#506);
#415=AXIS2_PLACEMENT_3D('',#615,#507,#508);
#416=AXIS2_PLACEMENT_3D('',#616,#509,#510);
#417=AXIS2_PLACEMENT_3D('',#617,#511,#512);
#418=AXIS2_PLACEMENT_3D('',#619,#513,#514);
#419=AXIS2_PLACEMENT_3D('',#620,#515,#516);
#420=AXIS2_PLACEMENT_3D('',#621,#517,#518);
#421=AXIS2_PLACEMENT_3D('',#623,#519,#520);
#422=AXIS2_PLACEMENT_3D('',#624,#521,#522);
#423=AXIS2_PLACEMENT_3D('',#625,#523,#524);
#424=AXIS2_PLACEMENT_3D('',#627,#525,#526);
#425=DIRECTION('',(0.,0.,1.));
#426=DIRECTION('',(1.,0.,0.));
#427=DIRECTION('',(1.,0.,0.));
#428=DIRECTION('',(0.,0.,-1.));
#429=DIRECTION('',(0.,-1.,0.));
#430=DIRECTION('',(0.,0.,-1.));
#431=DIRECTION('',(0.,-1.,0.));
#432=DIRECTION('',(0.,0.,-1.));
#433=DIRECTION('',(0.,1.,0.));
#434=DIRECTION('',(0.,0.,1.));
#435=DIRECTION('',(1.,0.,0.));
#436=DIRECTION('',(0.,0.,-1.));
#437=DIRECTION('',(1.,0.,0.));
#438=DIRECTION('',(-1.,0.,0.));
#439=DIRECTION('',(0.,0.,1.));
#440=DIRECTION('',(0.,1.,0.));
#441=DIRECTION('',(0.,0.,-1.));
#442=DIRECTION('',(0.,1.,0.));
#443=DIRECTION('',(0.,-1.,0.));
#444=DIRECTION('',(0.,0.,-1.));
#445=DIRECTION('',(-1.,0.,0.));
#446=DIRECTION('',(-1.,0.,0.));
#447=DIRECTION('',(0.,0.,1.));
#448=DIRECTION('',(1.,0.,0.));
#449=DIRECTION('',(0.,-1.,0.));
#450=DIRECTION('',(-1.,0.,0.));
#451=DIRECTION('',(0.,1.,0.));
#452=DIRECTION('',(1.,0.,0.));
#453=DIRECTION('',(0.,0.,1.));
#454=DIRECTION('',(1.,0.,0.));
#455=DIRECTION('',(0.,0.,-1.));
#456=DIRECTION('',(-1.,0.,0.));
#457=DIRECTION('',(0.,0.,-1.));
#458=DIRECTION('',(-1.,0.,0.));
#459=DIRECTION('',(0.,0.,-1.));
#460=DIRECTION('',(-1.,0.,0.));
#461=DIRECTION('',(0.,0.,-1.));
#462=DIRECTION('',(-1.,0.,0.));
#463=DIRECTION('',(1.,0.,0.));
#464=DIRECTION('',(0.,0.,-1.));
#465=DIRECTION('',(0.,0.,-1.));
#466=DIRECTION('',(0.,-1.,0.));
#467=DIRECTION('',(0.,0.,-1.));
#468=DIRECTION('',(0.,1.,0.));
#469=DIRECTION('',(0.,0.,1.));
#470=DIRECTION('',(0.,0.,-1.));
#471=DIRECTION('',(1.,0.,0.));
#472=DIRECTION('',(-1.,0.,0.));
#473=DIRECTION('',(0.,0.,1.));
#474=DIRECTION('',(0.,0.,-1.));
#475=DIRECTION('',(0.,1.,0.));
#476=DIRECTION('',(0.,-1.,0.));
#477=DIRECTION('',(0.,0.,-1.));
#478=DIRECTION('',(-1.,0.,0.));
#479=DIRECTION('',(0.,0.,1.));
#480=DIRECTION('',(1.,0.,0.));
#481=DIRECTION('',(0.,-1.,0.));
#482=DIRECTION('',(-1.,0.,0.));
#483=DIRECTION('',(0.,1.,0.));
#484=DIRECTION('',(1.,0.,0.));
#485=DIRECTION('',(-1.,0.,0.));
#486=DIRECTION('',(0.,0.,1.));
#487=DIRECTION('',(0.,0.,1.));
#488=DIRECTION('',(0.,-1.,0.));
#489=DIRECTION('',(0.,0.,1.));
#490=DIRECTION('',(0.,-1.,0.));
#491=DIRECTION('',(0.,0.,-1.));
#492=DIRECTION('',(0.,0.,1.));
#493=DIRECTION('',(1.,0.,0.));
#494=DIRECTION('',(1.,0.,0.));
#495=DIRECTION('',(0.,0.,-1.));
#496=DIRECTION('',(0.,0.,1.));
#497=DIRECTION('',(0.,1.,0.));
#498=DIRECTION('',(0.,1.,0.));
#499=DIRECTION('',(0.,0.,1.));
#500=DIRECTION('',(-1.,0.,0.));
#501=DIRECTION('',(0.,0.,1.));
#502=DIRECTION('',(1.,0.,0.));
#503=DIRECTION('',(0.,0.,-1.));
#504=DIRECTION('',(-1.,0.,0.));
#505=DIRECTION('',(0.,0.,-1.));
#506=DIRECTION('',(-1.,0.,0.));
#507=DIRECTION('',(0.,0.,-1.));
#508=DIRECTION('',(1.,0.,0.));
#509=DIRECTION('',(0.,0.,-1.));
#510=DIRECTION('',(-1.,0.,0.));
#511=DIRECTION('',(0.,0.,-1.));
#512=DIRECTION('',(-1.,0.,0.));
#513=DIRECTION('',(0.,0.,-1.));
#514=DIRECTION('',(1.,0.,0.));
#515=DIRECTION('',(0.,0.,-1.));
#516=DIRECTION('',(-1.,0.,0.));
#517=DIRECTION('',(0.,0.,-1.));
#518=DIRECTION('',(-1.,0.,0.));
#519=DIRECTION('',(0.,0.,-1.));
#520=DIRECTION('',(1.,0.,0.));
#521=DIRECTION('',(0.,0.,-1.));
#522=DIRECTION('',(-1.,0.,0.));
#523=DIRECTION('',(0.,0.,-1.));
#524=DIRECTION('',(-1.,0.,0.));
#525=DIRECTION('',(0.,0.,-1.));
#526=DIRECTION('',(1.,0.,0.));
#527=CARTESIAN_POINT('',(0.,0.,0.));
#528=CARTESIAN_POINT('',(-0.03,0.,0.006));
#529=CARTESIAN_POINT('',(-0.03,0.,0.));
#530=CARTESIAN_POINT('',(-0.03,0.02,0.));
#531=CARTESIAN_POINT('',(-0.03,-0.02,0.));
#532=CARTESIAN_POINT('',(-0.03,-0.02,0.006));
#533=CARTESIAN_POINT('',(-0.03,-0.02,0.006));
#534=CARTESIAN_POINT('',(-0.03,0.,0.006));
#535=CARTESIAN_POINT('',(-0.03,0.02,0.006));
#536=CARTESIAN_POINT('',(-0.03,0.02,0.006));
#537=CARTESIAN_POINT('',(0.,-0.02,0.006));
#538=CARTESIAN_POINT('',(0.,-0.02,0.));
#539=CARTESIAN_POINT('',(0.03,-0.02,0.));
#540=CARTESIAN_POINT('',(0.03,-0.02,0.006));
#541=CARTESIAN_POINT('',(0.03,-0.02,0.006));
#542=CARTESIAN_POINT('',(0.,-0.02,0.006));
#543=CARTESIAN_POINT('',(0.03,0.,0.006));
#544=CARTESIAN_POINT('',(0.03,0.,0.));
#545=CARTESIAN_POINT('',(0.03,0.02,0.));
#546=CARTESIAN_POINT('',(0.03,0.02,0.006));
#547=CARTESIAN_POINT('',(0.03,0.02,0.006));
#548=CARTESIAN_POINT('',(0.03,0.,0.006));
#549=CARTESIAN_POINT('',(0.,0.02,0.006));
#550=CARTESIAN_POINT('',(0.,0.02,0.));
#551=CARTESIAN_POINT('',(0.,0.02,0.006));
#552=CARTESIAN_POINT('',(0.,0.,0.006));
#553=CARTESIAN_POINT('',(-0.0265,0.,0.006));
#554=CARTESIAN_POINT('',(-0.0265,0.017,0.006));
#555=CARTESIAN_POINT('',(-0.0265,-0.017,0.006));
#556=CARTESIAN_POINT('',(0.,0.017,0.006));
#557=CARTESIAN_POINT('',(0.0265,0.017,0.006));
#558=CARTESIAN_POINT('',(0.0265,0.,0.006));
#559=CARTESIAN_POINT('',(0.0265,-0.017,0.006));
#560=CARTESIAN_POINT('',(0.,-0.017,0.006));
#561=CARTESIAN_POINT('',(0.,0.,0.));
#562=CARTESIAN_POINT('',(-0.015,-0.015,0.));
#563=CARTESIAN_POINT('',(-0.017,-0.015,0.));
#564=CARTESIAN_POINT('',(0.015,0.015,0.));
#565=CARTESIAN_POINT('',(0.013,0.015,0.));
#566=CARTESIAN_POINT('',(-0.015,0.015,0.));
#567=CARTESIAN_POINT('',(-0.017,0.015,0.));
#568=CARTESIAN_POINT('',(0.015,-0.015,0.));
#569=CARTESIAN_POINT('',(0.013,-0.015,0.));
#570=CARTESIAN_POINT('',(-0.0265,0.,0.042));
#571=CARTESIAN_POINT('',(-0.0265,-0.017,0.042));
#572=CARTESIAN_POINT('',(-0.0265,-0.017,0.042));
#573=CARTESIAN_POINT('',(-0.0265,0.,0.042));
#574=CARTESIAN_POINT('',(-0.0265,0.017,0.042));
#575=CARTESIAN_POINT('',(-0.0265,0.017,0.042));
#576=CARTESIAN_POINT('',(0.,-0.017,0.042));
#577=CARTESIAN_POINT('',(0.0265,-0.017,0.042));
#578=CARTESIAN_POINT('',(0.0265,-0.017,0.042));
#579=CARTESIAN_POINT('',(0.,-0.017,0.042));
#580=CARTESIAN_POINT('',(0.0265,0.,0.042));
#581=CARTESIAN_POINT('',(0.0265,0.017,0.042));
#582=CARTESIAN_POINT('',(0.0265,0.017,0.042));
#583=CARTESIAN_POINT('',(0.0265,0.,0.042));
#584=CARTESIAN_POINT('',(0.,0.017,0.042));
#585=CARTESIAN_POINT('',(0.,0.017,0.042));
#586=CARTESIAN_POINT('',(0.,0.,0.042));
#587=CARTESIAN_POINT('',(-0.022825,0.,0.042));
#588=CARTESIAN_POINT('',(-0.022825,0.012525,0.042));
#589=CARTESIAN_POINT('',(-0.022825,-0.012525,0.042));
#590=CARTESIAN_POINT('',(0.,0.012525,0.042));
#591=CARTESIAN_POINT('',(0.022825,0.012525,0.042));
#592=CARTESIAN_POINT('',(0.022825,0.,0.042));
#593=CARTESIAN_POINT('',(0.022825,-0.012525,0.042));
#594=CARTESIAN_POINT('',(0.,-0.012525,0.042));
#595=CARTESIAN_POINT('',(-0.022825,0.,0.006));
#596=CARTESIAN_POINT('',(-0.022825,-0.012525,0.006));
#597=CARTESIAN_POINT('',(-0.022825,-0.012525,0.006));
#598=CARTESIAN_POINT('',(-0.022825,0.,0.006));
#599=CARTESIAN_POINT('',(-0.022825,0.012525,0.006));
#600=CARTESIAN_POINT('',(-0.022825,0.012525,0.006));
#601=CARTESIAN_POINT('',(0.,-0.012525,0.006));
#602=CARTESIAN_POINT('',(0.022825,-0.012525,0.006));
#603=CARTESIAN_POINT('',(0.022825,-0.012525,0.006));
#604=CARTESIAN_POINT('',(0.,-0.012525,0.006));
#605=CARTESIAN_POINT('',(0.022825,0.,0.006));
#606=CARTESIAN_POINT('',(0.022825,0.012525,0.006));
#607=CARTESIAN_POINT('',(0.022825,0.012525,0.006));
#608=CARTESIAN_POINT('',(0.022825,0.,0.006));
#609=CARTESIAN_POINT('',(0.,0.012525,0.006));
#610=CARTESIAN_POINT('',(0.,0.012525,0.006));
#611=CARTESIAN_POINT('',(0.,0.,0.006));
#612=CARTESIAN_POINT('',(0.015,-0.015,0.0057));
#613=CARTESIAN_POINT('',(0.015,-0.015,0.0057));
#614=CARTESIAN_POINT('',(0.013,-0.015,0.0057));
#615=CARTESIAN_POINT('',(0.,0.,0.0057));
#616=CARTESIAN_POINT('',(-0.015,0.015,0.0057));
#617=CARTESIAN_POINT('',(-0.015,0.015,0.0057));
#618=CARTESIAN_POINT('',(-0.017,0.015,0.0057));
#619=CARTESIAN_POINT('',(0.,0.,0.0057));
#620=CARTESIAN_POINT('',(0.015,0.015,0.0057));
#621=CARTESIAN_POINT('',(0.015,0.015,0.0057));
#622=CARTESIAN_POINT('',(0.013,0.015,0.0057));
#623=CARTESIAN_POINT('',(0.,0.,0.0057));
#624=CARTESIAN_POINT('',(-0.015,-0.015,0.0057));
#625=CARTESIAN_POINT('',(-0.015,-0.015,0.0057));
#626=CARTESIAN_POINT('',(-0.017,-0.015,0.0057));
#627=CARTESIAN_POINT('',(0.,0.,0.0057));
#628=MECHANICAL_DESIGN_GEOMETRIC_PRESENTATION_REPRESENTATION('',(#381),
#629);
#629=(
GEOMETRIC_REPRESENTATION_CONTEXT(3)
GLOBAL_UNCERTAINTY_ASSIGNED_CONTEXT((#630))
GLOBAL_UNIT_ASSIGNED_CONTEXT((#633,#632,#631))
REPRESENTATION_CONTEXT('Part 1','TOP_LEVEL_ASSEMBLY_PART')
);
#630=UNCERTAINTY_MEASURE_WITH_UNIT(LENGTH_MEASURE(1.E-8),#633,
'DISTANCE_ACCURACY_VALUE','Maximum Tolerance applied to model');
#631=(
NAMED_UNIT(*)
SI_UNIT($,.STERADIAN.)
SOLID_ANGLE_UNIT()
);
#632=(
NAMED_UNIT(*)
PLANE_ANGLE_UNIT()
SI_UNIT($,.RADIAN.)
);
#633=(
LENGTH_UNIT()
NAMED_UNIT(*)
SI_UNIT($,.METRE.)
);
#634=PRODUCT_DEFINITION_SHAPE('','',#635);
#635=PRODUCT_DEFINITION('','',#637,#636);
#636=PRODUCT_DEFINITION_CONTEXT('',#643,'design');
#637=PRODUCT_DEFINITION_FORMATION_WITH_SPECIFIED_SOURCE('','',#639,
 .NOT_KNOWN.);
#638=PRODUCT_RELATED_PRODUCT_CATEGORY('','',(#639));
#639=PRODUCT('Part 1','Part 1','Part 1',(#641));
#640=PRODUCT_CATEGORY('','');
#641=PRODUCT_CONTEXT('',#643,'mechanical');
#642=APPLICATION_PROTOCOL_DEFINITION('international standard',
'automotive_design',2010,#643);
#643=APPLICATION_CONTEXT(
'core data for automotive mechanical design processes');
ENDSEC;
END-ISO-10303-21;
