ISO-10303-21;
HEADER;
/* Generated by software containing ST-Developer
 * from STEP Tools, Inc. (www.steptools.com) 
 */
/* OPTION: using custom renumber hook */

FILE_DESCRIPTION(
/* description */ ('STEP AP214',
'CAx-IF Rec.Pracs.---User Defined Attributes---1.5---2016-08-15'),
/* implementation_level */ '2;1');

FILE_NAME(
/* name */ '6a13bc7929e817fb99b76b72',
/* time_stamp */ '2026-05-25T03:05:29Z',
/* author */ (''),
/* organization */ (''),
/* preprocessor_version */ 'ST-DEVELOPER v20',
/* originating_system */ 'ONSHAPE BY PTC INC, 1.215',
/* authorisation */ '  ');

FILE_SCHEMA (('AUTOMOTIVE_DESIGN {1 0 10303 214 3 1 1}'));
ENDSEC;

DATA;
#10=PROPERTY_DEFINITION_REPRESENTATION(#14,#12);
#11=PROPERTY_DEFINITION_REPRESENTATION(#15,#13);
#12=REPRESENTATION('',(#16),#385);
#13=REPRESENTATION('',(#17),#385);
#14=PROPERTY_DEFINITION('pmi validation property','',#390);
#15=PROPERTY_DEFINITION('pmi validation property','',#390);
#16=VALUE_REPRESENTATION_ITEM('number of annotations',COUNT_MEASURE(0.));
#17=VALUE_REPRESENTATION_ITEM('number of views',COUNT_MEASURE(0.));
#18=SHAPE_REPRESENTATION_RELATIONSHIP('','',#233,#19);
#19=ADVANCED_BREP_SHAPE_REPRESENTATION('',(#231),#385);
#20=CYLINDRICAL_SURFACE('',#246,0.00145);
#21=CYLINDRICAL_SURFACE('',#249,0.00145);
#22=CYLINDRICAL_SURFACE('',#252,0.00145);
#23=CYLINDRICAL_SURFACE('',#255,0.00145);
#24=CYLINDRICAL_SURFACE('',#258,0.002);
#25=CIRCLE('',#240,0.00145);
#26=CIRCLE('',#241,0.00145);
#27=CIRCLE('',#242,0.00145);
#28=CIRCLE('',#243,0.00145);
#29=CIRCLE('',#245,0.002);
#30=CIRCLE('',#247,0.00145);
#31=CIRCLE('',#250,0.00145);
#32=CIRCLE('',#253,0.00145);
#33=CIRCLE('',#256,0.00145);
#34=CIRCLE('',#259,0.002);
#35=ORIENTED_EDGE('',*,*,#79,.T.);
#36=ORIENTED_EDGE('',*,*,#80,.F.);
#37=ORIENTED_EDGE('',*,*,#81,.F.);
#38=ORIENTED_EDGE('',*,*,#82,.T.);
#39=ORIENTED_EDGE('',*,*,#83,.T.);
#40=ORIENTED_EDGE('',*,*,#84,.F.);
#41=ORIENTED_EDGE('',*,*,#85,.F.);
#42=ORIENTED_EDGE('',*,*,#80,.T.);
#43=ORIENTED_EDGE('',*,*,#86,.T.);
#44=ORIENTED_EDGE('',*,*,#87,.F.);
#45=ORIENTED_EDGE('',*,*,#88,.F.);
#46=ORIENTED_EDGE('',*,*,#84,.T.);
#47=ORIENTED_EDGE('',*,*,#89,.T.);
#48=ORIENTED_EDGE('',*,*,#82,.F.);
#49=ORIENTED_EDGE('',*,*,#90,.F.);
#50=ORIENTED_EDGE('',*,*,#87,.T.);
#51=ORIENTED_EDGE('',*,*,#91,.F.);
#52=ORIENTED_EDGE('',*,*,#92,.F.);
#53=ORIENTED_EDGE('',*,*,#93,.F.);
#54=ORIENTED_EDGE('',*,*,#94,.F.);
#55=ORIENTED_EDGE('',*,*,#81,.T.);
#56=ORIENTED_EDGE('',*,*,#85,.T.);
#57=ORIENTED_EDGE('',*,*,#88,.T.);
#58=ORIENTED_EDGE('',*,*,#90,.T.);
#59=ORIENTED_EDGE('',*,*,#95,.F.);
#60=ORIENTED_EDGE('',*,*,#79,.F.);
#61=ORIENTED_EDGE('',*,*,#89,.F.);
#62=ORIENTED_EDGE('',*,*,#86,.F.);
#63=ORIENTED_EDGE('',*,*,#83,.F.);
#64=ORIENTED_EDGE('',*,*,#96,.F.);
#65=ORIENTED_EDGE('',*,*,#94,.T.);
#66=ORIENTED_EDGE('',*,*,#96,.T.);
#67=ORIENTED_EDGE('',*,*,#97,.F.);
#68=ORIENTED_EDGE('',*,*,#93,.T.);
#69=ORIENTED_EDGE('',*,*,#97,.T.);
#70=ORIENTED_EDGE('',*,*,#98,.F.);
#71=ORIENTED_EDGE('',*,*,#92,.T.);
#72=ORIENTED_EDGE('',*,*,#98,.T.);
#73=ORIENTED_EDGE('',*,*,#99,.F.);
#74=ORIENTED_EDGE('',*,*,#91,.T.);
#75=ORIENTED_EDGE('',*,*,#99,.T.);
#76=ORIENTED_EDGE('',*,*,#100,.F.);
#77=ORIENTED_EDGE('',*,*,#95,.T.);
#78=ORIENTED_EDGE('',*,*,#100,.T.);
#79=EDGE_CURVE('',#101,#102,#119,.T.);
#80=EDGE_CURVE('',#103,#102,#120,.T.);
#81=EDGE_CURVE('',#104,#103,#121,.T.);
#82=EDGE_CURVE('',#104,#101,#122,.T.);
#83=EDGE_CURVE('',#102,#105,#123,.T.);
#84=EDGE_CURVE('',#106,#105,#124,.T.);
#85=EDGE_CURVE('',#103,#106,#125,.T.);
#86=EDGE_CURVE('',#105,#107,#126,.T.);
#87=EDGE_CURVE('',#108,#107,#127,.T.);
#88=EDGE_CURVE('',#106,#108,#128,.T.);
#89=EDGE_CURVE('',#107,#101,#129,.T.);
#90=EDGE_CURVE('',#108,#104,#130,.T.);
#91=EDGE_CURVE('',#109,#109,#25,.T.);
#92=EDGE_CURVE('',#110,#110,#26,.T.);
#93=EDGE_CURVE('',#111,#111,#27,.T.);
#94=EDGE_CURVE('',#112,#112,#28,.T.);
#95=EDGE_CURVE('',#113,#113,#29,.T.);
#96=EDGE_CURVE('',#114,#114,#30,.T.);
#97=EDGE_CURVE('',#115,#115,#31,.T.);
#98=EDGE_CURVE('',#116,#116,#32,.T.);
#99=EDGE_CURVE('',#117,#117,#33,.T.);
#100=EDGE_CURVE('',#118,#118,#34,.T.);
#101=VERTEX_POINT('',#330);
#102=VERTEX_POINT('',#331);
#103=VERTEX_POINT('',#333);
#104=VERTEX_POINT('',#335);
#105=VERTEX_POINT('',#339);
#106=VERTEX_POINT('',#341);
#107=VERTEX_POINT('',#345);
#108=VERTEX_POINT('',#347);
#109=VERTEX_POINT('',#354);
#110=VERTEX_POINT('',#356);
#111=VERTEX_POINT('',#358);
#112=VERTEX_POINT('',#360);
#113=VERTEX_POINT('',#363);
#114=VERTEX_POINT('',#366);
#115=VERTEX_POINT('',#370);
#116=VERTEX_POINT('',#374);
#117=VERTEX_POINT('',#378);
#118=VERTEX_POINT('',#382);
#119=LINE('',#329,#131);
#120=LINE('',#332,#132);
#121=LINE('',#334,#133);
#122=LINE('',#336,#134);
#123=LINE('',#338,#135);
#124=LINE('',#340,#136);
#125=LINE('',#342,#137);
#126=LINE('',#344,#138);
#127=LINE('',#346,#139);
#128=LINE('',#348,#140);
#129=LINE('',#350,#141);
#130=LINE('',#351,#142);
#131=VECTOR('',#265,1.);
#132=VECTOR('',#266,1.);
#133=VECTOR('',#267,1.);
#134=VECTOR('',#268,1.);
#135=VECTOR('',#271,1.);
#136=VECTOR('',#272,1.);
#137=VECTOR('',#273,1.);
#138=VECTOR('',#276,1.);
#139=VECTOR('',#277,1.);
#140=VECTOR('',#278,1.);
#141=VECTOR('',#281,1.);
#142=VECTOR('',#282,1.);
#143=EDGE_LOOP('',(#35,#36,#37,#38));
#144=EDGE_LOOP('',(#39,#40,#41,#42));
#145=EDGE_LOOP('',(#43,#44,#45,#46));
#146=EDGE_LOOP('',(#47,#48,#49,#50));
#147=EDGE_LOOP('',(#51));
#148=EDGE_LOOP('',(#52));
#149=EDGE_LOOP('',(#53));
#150=EDGE_LOOP('',(#54));
#151=EDGE_LOOP('',(#55,#56,#57,#58));
#152=EDGE_LOOP('',(#59));
#153=EDGE_LOOP('',(#60,#61,#62,#63));
#154=EDGE_LOOP('',(#64));
#155=EDGE_LOOP('',(#65));
#156=EDGE_LOOP('',(#66));
#157=EDGE_LOOP('',(#67));
#158=EDGE_LOOP('',(#68));
#159=EDGE_LOOP('',(#69));
#160=EDGE_LOOP('',(#70));
#161=EDGE_LOOP('',(#71));
#162=EDGE_LOOP('',(#72));
#163=EDGE_LOOP('',(#73));
#164=EDGE_LOOP('',(#74));
#165=EDGE_LOOP('',(#75));
#166=EDGE_LOOP('',(#76));
#167=EDGE_LOOP('',(#77));
#168=EDGE_LOOP('',(#78));
#169=FACE_BOUND('',#143,.T.);
#170=FACE_BOUND('',#144,.T.);
#171=FACE_BOUND('',#145,.T.);
#172=FACE_BOUND('',#146,.T.);
#173=FACE_BOUND('',#147,.T.);
#174=FACE_BOUND('',#148,.T.);
#175=FACE_BOUND('',#149,.T.);
#176=FACE_BOUND('',#150,.T.);
#177=FACE_BOUND('',#151,.T.);
#178=FACE_BOUND('',#152,.T.);
#179=FACE_BOUND('',#153,.T.);
#180=FACE_BOUND('',#154,.T.);
#181=FACE_BOUND('',#155,.T.);
#182=FACE_BOUND('',#156,.T.);
#183=FACE_BOUND('',#157,.T.);
#184=FACE_BOUND('',#158,.T.);
#185=FACE_BOUND('',#159,.T.);
#186=FACE_BOUND('',#160,.T.);
#187=FACE_BOUND('',#161,.T.);
#188=FACE_BOUND('',#162,.T.);
#189=FACE_BOUND('',#163,.T.);
#190=FACE_BOUND('',#164,.T.);
#191=FACE_BOUND('',#165,.T.);
#192=FACE_BOUND('',#166,.T.);
#193=FACE_BOUND('',#167,.T.);
#194=FACE_BOUND('',#168,.T.);
#195=PLANE('',#235);
#196=PLANE('',#236);
#197=PLANE('',#237);
#198=PLANE('',#238);
#199=PLANE('',#239);
#200=PLANE('',#244);
#201=PLANE('',#248);
#202=PLANE('',#251);
#203=PLANE('',#254);
#204=PLANE('',#257);
#205=PLANE('',#260);
#206=ADVANCED_FACE('',(#169),#195,.F.);
#207=ADVANCED_FACE('',(#170),#196,.F.);
#208=ADVANCED_FACE('',(#171),#197,.F.);
#209=ADVANCED_FACE('',(#172),#198,.F.);
#210=ADVANCED_FACE('',(#173,#174,#175,#176,#177),#199,.T.);
#211=ADVANCED_FACE('',(#178,#179),#200,.F.);
#212=ADVANCED_FACE('',(#180,#181),#20,.F.);
#213=ADVANCED_FACE('',(#182),#201,.T.);
#214=ADVANCED_FACE('',(#183,#184),#21,.F.);
#215=ADVANCED_FACE('',(#185),#202,.T.);
#216=ADVANCED_FACE('',(#186,#187),#22,.F.);
#217=ADVANCED_FACE('',(#188),#203,.T.);
#218=ADVANCED_FACE('',(#189,#190),#23,.F.);
#219=ADVANCED_FACE('',(#191),#204,.T.);
#220=ADVANCED_FACE('',(#192,#193),#24,.F.);
#221=ADVANCED_FACE('',(#194),#205,.T.);
#222=CLOSED_SHELL('',(#206,#207,#208,#209,#210,#211,#212,#213,#214,#215,
#216,#217,#218,#219,#220,#221));
#223=STYLED_ITEM('',(#224),#231);
#224=PRESENTATION_STYLE_ASSIGNMENT((#225));
#225=SURFACE_STYLE_USAGE(.BOTH.,#226);
#226=SURFACE_SIDE_STYLE('',(#227));
#227=SURFACE_STYLE_FILL_AREA(#228);
#228=FILL_AREA_STYLE('',(#229));
#229=FILL_AREA_STYLE_COLOUR('',#230);
#230=COLOUR_RGB('',0.615686274509804,0.811764705882353,0.929411764705882);
#231=MANIFOLD_SOLID_BREP('Part 1',#222);
#232=SHAPE_DEFINITION_REPRESENTATION(#390,#233);
#233=SHAPE_REPRESENTATION('Part 1',(#234),#385);
#234=AXIS2_PLACEMENT_3D('',#327,#261,#262);
#235=AXIS2_PLACEMENT_3D('',#328,#263,#264);
#236=AXIS2_PLACEMENT_3D('',#337,#269,#270);
#237=AXIS2_PLACEMENT_3D('',#343,#274,#275);
#238=AXIS2_PLACEMENT_3D('',#349,#279,#280);
#239=AXIS2_PLACEMENT_3D('',#352,#283,#284);
#240=AXIS2_PLACEMENT_3D('',#353,#285,#286);
#241=AXIS2_PLACEMENT_3D('',#355,#287,#288);
#242=AXIS2_PLACEMENT_3D('',#357,#289,#290);
#243=AXIS2_PLACEMENT_3D('',#359,#291,#292);
#244=AXIS2_PLACEMENT_3D('',#361,#293,#294);
#245=AXIS2_PLACEMENT_3D('',#362,#295,#296);
#246=AXIS2_PLACEMENT_3D('',#364,#297,#298);
#247=AXIS2_PLACEMENT_3D('',#365,#299,#300);
#248=AXIS2_PLACEMENT_3D('',#367,#301,#302);
#249=AXIS2_PLACEMENT_3D('',#368,#303,#304);
#250=AXIS2_PLACEMENT_3D('',#369,#305,#306);
#251=AXIS2_PLACEMENT_3D('',#371,#307,#308);
#252=AXIS2_PLACEMENT_3D('',#372,#309,#310);
#253=AXIS2_PLACEMENT_3D('',#373,#311,#312);
#254=AXIS2_PLACEMENT_3D('',#375,#313,#314);
#255=AXIS2_PLACEMENT_3D('',#376,#315,#316);
#256=AXIS2_PLACEMENT_3D('',#377,#317,#318);
#257=AXIS2_PLACEMENT_3D('',#379,#319,#320);
#258=AXIS2_PLACEMENT_3D('',#380,#321,#322);
#259=AXIS2_PLACEMENT_3D('',#381,#323,#324);
#260=AXIS2_PLACEMENT_3D('',#383,#325,#326);
#261=DIRECTION('',(0.,0.,1.));
#262=DIRECTION('',(1.,0.,0.));
#263=DIRECTION('',(1.,0.,0.));
#264=DIRECTION('',(0.,0.,-1.));
#265=DIRECTION('',(0.,-1.,0.));
#266=DIRECTION('',(0.,0.,-1.));
#267=DIRECTION('',(0.,-1.,0.));
#268=DIRECTION('',(0.,0.,-1.));
#269=DIRECTION('',(0.,1.,0.));
#270=DIRECTION('',(0.,0.,1.));
#271=DIRECTION('',(1.,0.,0.));
#272=DIRECTION('',(0.,0.,-1.));
#273=DIRECTION('',(1.,0.,0.));
#274=DIRECTION('',(-1.,0.,0.));
#275=DIRECTION('',(0.,0.,1.));
#276=DIRECTION('',(0.,1.,0.));
#277=DIRECTION('',(0.,0.,-1.));
#278=DIRECTION('',(0.,1.,0.));
#279=DIRECTION('',(0.,-1.,0.));
#280=DIRECTION('',(0.,0.,-1.));
#281=DIRECTION('',(-1.,0.,0.));
#282=DIRECTION('',(-1.,0.,0.));
#283=DIRECTION('',(0.,0.,1.));
#284=DIRECTION('',(1.,0.,0.));
#285=DIRECTION('',(0.,0.,1.));
#286=DIRECTION('',(1.,0.,0.));
#287=DIRECTION('',(0.,0.,1.));
#288=DIRECTION('',(1.,0.,0.));
#289=DIRECTION('',(0.,0.,1.));
#290=DIRECTION('',(1.,0.,0.));
#291=DIRECTION('',(0.,0.,1.));
#292=DIRECTION('',(1.,0.,0.));
#293=DIRECTION('',(0.,0.,1.));
#294=DIRECTION('',(1.,0.,0.));
#295=DIRECTION('',(0.,0.,-1.));
#296=DIRECTION('',(-1.,0.,0.));
#297=DIRECTION('',(0.,0.,1.));
#298=DIRECTION('',(1.,0.,0.));
#299=DIRECTION('',(0.,0.,1.));
#300=DIRECTION('',(1.,0.,0.));
#301=DIRECTION('',(0.,0.,1.));
#302=DIRECTION('',(1.,0.,0.));
#303=DIRECTION('',(0.,0.,1.));
#304=DIRECTION('',(1.,0.,0.));
#305=DIRECTION('',(0.,0.,1.));
#306=DIRECTION('',(1.,0.,0.));
#307=DIRECTION('',(0.,0.,1.));
#308=DIRECTION('',(1.,0.,0.));
#309=DIRECTION('',(0.,0.,1.));
#310=DIRECTION('',(1.,0.,0.));
#311=DIRECTION('',(0.,0.,1.));
#312=DIRECTION('',(1.,0.,0.));
#313=DIRECTION('',(0.,0.,1.));
#314=DIRECTION('',(1.,0.,0.));
#315=DIRECTION('',(0.,0.,1.));
#316=DIRECTION('',(1.,0.,0.));
#317=DIRECTION('',(0.,0.,1.));
#318=DIRECTION('',(1.,0.,0.));
#319=DIRECTION('',(0.,0.,1.));
#320=DIRECTION('',(1.,0.,0.));
#321=DIRECTION('',(0.,0.,-1.));
#322=DIRECTION('',(-1.,0.,0.));
#323=DIRECTION('',(0.,0.,-1.));
#324=DIRECTION('',(-1.,0.,0.));
#325=DIRECTION('',(0.,0.,-1.));
#326=DIRECTION('',(1.,0.,0.));
#327=CARTESIAN_POINT('',(0.,0.,0.));
#328=CARTESIAN_POINT('',(-0.011,0.,0.134));
#329=CARTESIAN_POINT('',(-0.011,0.,0.));
#330=CARTESIAN_POINT('',(-0.011,0.01,0.));
#331=CARTESIAN_POINT('',(-0.011,-0.01,0.));
#332=CARTESIAN_POINT('',(-0.011,-0.01,0.134));
#333=CARTESIAN_POINT('',(-0.011,-0.01,0.134));
#334=CARTESIAN_POINT('',(-0.011,0.,0.134));
#335=CARTESIAN_POINT('',(-0.011,0.01,0.134));
#336=CARTESIAN_POINT('',(-0.011,0.01,0.134));
#337=CARTESIAN_POINT('',(0.,-0.01,0.134));
#338=CARTESIAN_POINT('',(0.,-0.01,0.));
#339=CARTESIAN_POINT('',(0.011,-0.01,0.));
#340=CARTESIAN_POINT('',(0.011,-0.01,0.134));
#341=CARTESIAN_POINT('',(0.011,-0.01,0.134));
#342=CARTESIAN_POINT('',(0.,-0.01,0.134));
#343=CARTESIAN_POINT('',(0.011,0.,0.134));
#344=CARTESIAN_POINT('',(0.011,0.,0.));
#345=CARTESIAN_POINT('',(0.011,0.01,0.));
#346=CARTESIAN_POINT('',(0.011,0.01,0.134));
#347=CARTESIAN_POINT('',(0.011,0.01,0.134));
#348=CARTESIAN_POINT('',(0.011,0.,0.134));
#349=CARTESIAN_POINT('',(0.,0.01,0.134));
#350=CARTESIAN_POINT('',(0.,0.01,0.));
#351=CARTESIAN_POINT('',(0.,0.01,0.134));
#352=CARTESIAN_POINT('',(0.,0.,0.134));
#353=CARTESIAN_POINT('',(0.00495,-0.00495,0.134));
#354=CARTESIAN_POINT('',(0.0064,-0.00495,0.134));
#355=CARTESIAN_POINT('',(-0.00495,0.00495,0.134));
#356=CARTESIAN_POINT('',(-0.0035,0.00495,0.134));
#357=CARTESIAN_POINT('',(-0.00495,-0.00495,0.134));
#358=CARTESIAN_POINT('',(-0.0035,-0.00495,0.134));
#359=CARTESIAN_POINT('',(0.00495,0.00495,0.134));
#360=CARTESIAN_POINT('',(0.0064,0.00495,0.134));
#361=CARTESIAN_POINT('',(0.,0.,0.));
#362=CARTESIAN_POINT('',(0.,-1.22464679914735E-19,0.));
#363=CARTESIAN_POINT('',(-0.002,-1.22464679914735E-19,0.));
#364=CARTESIAN_POINT('',(0.00495,0.00495,0.129));
#365=CARTESIAN_POINT('',(0.00495,0.00495,0.129));
#366=CARTESIAN_POINT('',(0.0064,0.00495,0.129));
#367=CARTESIAN_POINT('',(0.,0.,0.129));
#368=CARTESIAN_POINT('',(-0.00495,-0.00495,0.129));
#369=CARTESIAN_POINT('',(-0.00495,-0.00495,0.129));
#370=CARTESIAN_POINT('',(-0.0035,-0.00495,0.129));
#371=CARTESIAN_POINT('',(0.,0.,0.129));
#372=CARTESIAN_POINT('',(-0.00495,0.00495,0.129));
#373=CARTESIAN_POINT('',(-0.00495,0.00495,0.129));
#374=CARTESIAN_POINT('',(-0.0035,0.00495,0.129));
#375=CARTESIAN_POINT('',(0.,0.,0.129));
#376=CARTESIAN_POINT('',(0.00495,-0.00495,0.129));
#377=CARTESIAN_POINT('',(0.00495,-0.00495,0.129));
#378=CARTESIAN_POINT('',(0.0064,-0.00495,0.129));
#379=CARTESIAN_POINT('',(0.,0.,0.129));
#380=CARTESIAN_POINT('',(0.,-1.22464679914735E-19,0.008));
#381=CARTESIAN_POINT('',(0.,-1.22464679914735E-19,0.008));
#382=CARTESIAN_POINT('',(-0.002,-1.22464679914735E-19,0.008));
#383=CARTESIAN_POINT('',(0.,0.,0.008));
#384=MECHANICAL_DESIGN_GEOMETRIC_PRESENTATION_REPRESENTATION('',(#223),
#385);
#385=(
GEOMETRIC_REPRESENTATION_CONTEXT(3)
GLOBAL_UNCERTAINTY_ASSIGNED_CONTEXT((#386))
GLOBAL_UNIT_ASSIGNED_CONTEXT((#389,#388,#387))
REPRESENTATION_CONTEXT('Part 1','TOP_LEVEL_ASSEMBLY_PART')
);
#386=UNCERTAINTY_MEASURE_WITH_UNIT(LENGTH_MEASURE(1.E-8),#389,
'DISTANCE_ACCURACY_VALUE','Maximum Tolerance applied to model');
#387=(
NAMED_UNIT(*)
SI_UNIT($,.STERADIAN.)
SOLID_ANGLE_UNIT()
);
#388=(
NAMED_UNIT(*)
PLANE_ANGLE_UNIT()
SI_UNIT($,.RADIAN.)
);
#389=(
LENGTH_UNIT()
NAMED_UNIT(*)
SI_UNIT($,.METRE.)
);
#390=PRODUCT_DEFINITION_SHAPE('','',#391);
#391=PRODUCT_DEFINITION('','',#393,#392);
#392=PRODUCT_DEFINITION_CONTEXT('',#399,'design');
#393=PRODUCT_DEFINITION_FORMATION_WITH_SPECIFIED_SOURCE('','',#395,
 .NOT_KNOWN.);
#394=PRODUCT_RELATED_PRODUCT_CATEGORY('','',(#395));
#395=PRODUCT('Part 1','Part 1','Part 1',(#397));
#396=PRODUCT_CATEGORY('','');
#397=PRODUCT_CONTEXT('',#399,'mechanical');
#398=APPLICATION_PROTOCOL_DEFINITION('international standard',
'automotive_design',2010,#399);
#399=APPLICATION_CONTEXT(
'core data for automotive mechanical design processes');
ENDSEC;
END-ISO-10303-21;
