ISO-10303-21;
HEADER;
/* Generated by software containing ST-Developer
 * from STEP Tools, Inc. (www.steptools.com) 
 */
/* OPTION: using custom renumber hook */

FILE_DESCRIPTION(
/* description */ ('STEP AP214',
'CAx-IF Rec.Pracs.---User Defined Attributes---1.5---2016-08-15'),
/* implementation_level */ '2;1');

FILE_NAME(
/* name */ '6a1505a229e817fb99be26c6',
/* time_stamp */ '2026-05-26T02:29:55Z',
/* author */ (''),
/* organization */ (''),
/* preprocessor_version */ 'ST-DEVELOPER v20',
/* originating_system */ 'ONSHAPE BY PTC INC, 1.215',
/* authorisation */ '  ');

FILE_SCHEMA (('AUTOMOTIVE_DESIGN {1 0 10303 214 3 1 1}'));
ENDSEC;

DATA;
#10=PROPERTY_DEFINITION_REPRESENTATION(#14,#12);
#11=PROPERTY_DEFINITION_REPRESENTATION(#15,#13);
#12=REPRESENTATION('',(#16),#1547);
#13=REPRESENTATION('',(#17),#1547);
#14=PROPERTY_DEFINITION('pmi validation property','',#1558);
#15=PROPERTY_DEFINITION('pmi validation property','',#1558);
#16=VALUE_REPRESENTATION_ITEM('number of annotations',COUNT_MEASURE(0.));
#17=VALUE_REPRESENTATION_ITEM('number of views',COUNT_MEASURE(0.));
#18=CONTEXT_DEPENDENT_SHAPE_REPRESENTATION(#24,#1560);
#19=CONTEXT_DEPENDENT_SHAPE_REPRESENTATION(#25,#1562);
#20=CONTEXT_DEPENDENT_SHAPE_REPRESENTATION(#26,#1564);
#21=NEXT_ASSEMBLY_USAGE_OCCURRENCE('NAUO1','Part 1','Part 1',#1565,#1566,
'');
#22=NEXT_ASSEMBLY_USAGE_OCCURRENCE('NAUO2','Part 1','Part 1',#1565,#1567,
'');
#23=NEXT_ASSEMBLY_USAGE_OCCURRENCE('NAUO3','Part 1','Part 1',#1565,#1568,
'');
#24=(
REPRESENTATION_RELATIONSHIP(' ',' ',#941,#940)
REPRESENTATION_RELATIONSHIP_WITH_TRANSFORMATION(#27)
SHAPE_REPRESENTATION_RELATIONSHIP()
);
#25=(
REPRESENTATION_RELATIONSHIP(' ',' ',#942,#940)
REPRESENTATION_RELATIONSHIP_WITH_TRANSFORMATION(#28)
SHAPE_REPRESENTATION_RELATIONSHIP()
);
#26=(
REPRESENTATION_RELATIONSHIP(' ',' ',#943,#940)
REPRESENTATION_RELATIONSHIP_WITH_TRANSFORMATION(#29)
SHAPE_REPRESENTATION_RELATIONSHIP()
);
#27=ITEM_DEFINED_TRANSFORMATION(' ',' ',#944,#971);
#28=ITEM_DEFINED_TRANSFORMATION(' ',' ',#944,#999);
#29=ITEM_DEFINED_TRANSFORMATION(' ',' ',#944,#1036);
#30=SHAPE_REPRESENTATION_RELATIONSHIP('','',#941,#33);
#31=SHAPE_REPRESENTATION_RELATIONSHIP('','',#942,#34);
#32=SHAPE_REPRESENTATION_RELATIONSHIP('','',#943,#35);
#33=ADVANCED_BREP_SHAPE_REPRESENTATION('',(#933),#1548);
#34=ADVANCED_BREP_SHAPE_REPRESENTATION('',(#934),#1549);
#35=ADVANCED_BREP_SHAPE_REPRESENTATION('',(#935),#1550);
#36=CYLINDRICAL_SURFACE('',#956,0.00145);
#37=CYLINDRICAL_SURFACE('',#959,0.00145);
#38=CYLINDRICAL_SURFACE('',#962,0.00145);
#39=CYLINDRICAL_SURFACE('',#965,0.00145);
#40=CYLINDRICAL_SURFACE('',#968,0.002);
#41=CYLINDRICAL_SURFACE('',#982,0.00145);
#42=CYLINDRICAL_SURFACE('',#985,0.00145);
#43=CYLINDRICAL_SURFACE('',#988,0.00145);
#44=CYLINDRICAL_SURFACE('',#991,0.00145);
#45=CYLINDRICAL_SURFACE('',#1016,0.011);
#46=CYLINDRICAL_SURFACE('',#1024,0.002);
#47=CYLINDRICAL_SURFACE('',#1027,0.002);
#48=CYLINDRICAL_SURFACE('',#1030,0.002);
#49=CYLINDRICAL_SURFACE('',#1033,0.002);
#50=CIRCLE('',#950,0.00145);
#51=CIRCLE('',#951,0.00145);
#52=CIRCLE('',#952,0.00145);
#53=CIRCLE('',#953,0.00145);
#54=CIRCLE('',#955,0.002);
#55=CIRCLE('',#957,0.00145);
#56=CIRCLE('',#960,0.00145);
#57=CIRCLE('',#963,0.00145);
#58=CIRCLE('',#966,0.00145);
#59=CIRCLE('',#969,0.002);
#60=CIRCLE('',#978,0.00145);
#61=CIRCLE('',#979,0.00145);
#62=CIRCLE('',#980,0.00145);
#63=CIRCLE('',#981,0.00145);
#64=CIRCLE('',#983,0.00145);
#65=CIRCLE('',#986,0.00145);
#66=CIRCLE('',#989,0.00145);
#67=CIRCLE('',#992,0.00145);
#68=CIRCLE('',#1006,0.002);
#69=CIRCLE('',#1007,0.002);
#70=CIRCLE('',#1008,0.002);
#71=CIRCLE('',#1009,0.002);
#72=CIRCLE('',#1015,0.011);
#73=CIRCLE('',#1017,0.011);
#74=CIRCLE('',#1025,0.002);
#75=CIRCLE('',#1028,0.002);
#76=CIRCLE('',#1031,0.002);
#77=CIRCLE('',#1034,0.002);
#78=ORIENTED_EDGE('',*,*,#286,.T.);
#79=ORIENTED_EDGE('',*,*,#287,.F.);
#80=ORIENTED_EDGE('',*,*,#288,.F.);
#81=ORIENTED_EDGE('',*,*,#289,.T.);
#82=ORIENTED_EDGE('',*,*,#290,.T.);
#83=ORIENTED_EDGE('',*,*,#291,.F.);
#84=ORIENTED_EDGE('',*,*,#292,.F.);
#85=ORIENTED_EDGE('',*,*,#287,.T.);
#86=ORIENTED_EDGE('',*,*,#293,.T.);
#87=ORIENTED_EDGE('',*,*,#294,.F.);
#88=ORIENTED_EDGE('',*,*,#295,.F.);
#89=ORIENTED_EDGE('',*,*,#291,.T.);
#90=ORIENTED_EDGE('',*,*,#296,.T.);
#91=ORIENTED_EDGE('',*,*,#289,.F.);
#92=ORIENTED_EDGE('',*,*,#297,.F.);
#93=ORIENTED_EDGE('',*,*,#294,.T.);
#94=ORIENTED_EDGE('',*,*,#298,.F.);
#95=ORIENTED_EDGE('',*,*,#299,.F.);
#96=ORIENTED_EDGE('',*,*,#300,.F.);
#97=ORIENTED_EDGE('',*,*,#301,.F.);
#98=ORIENTED_EDGE('',*,*,#288,.T.);
#99=ORIENTED_EDGE('',*,*,#292,.T.);
#100=ORIENTED_EDGE('',*,*,#295,.T.);
#101=ORIENTED_EDGE('',*,*,#297,.T.);
#102=ORIENTED_EDGE('',*,*,#302,.F.);
#103=ORIENTED_EDGE('',*,*,#286,.F.);
#104=ORIENTED_EDGE('',*,*,#296,.F.);
#105=ORIENTED_EDGE('',*,*,#293,.F.);
#106=ORIENTED_EDGE('',*,*,#290,.F.);
#107=ORIENTED_EDGE('',*,*,#303,.F.);
#108=ORIENTED_EDGE('',*,*,#301,.T.);
#109=ORIENTED_EDGE('',*,*,#303,.T.);
#110=ORIENTED_EDGE('',*,*,#304,.F.);
#111=ORIENTED_EDGE('',*,*,#300,.T.);
#112=ORIENTED_EDGE('',*,*,#304,.T.);
#113=ORIENTED_EDGE('',*,*,#305,.F.);
#114=ORIENTED_EDGE('',*,*,#299,.T.);
#115=ORIENTED_EDGE('',*,*,#305,.T.);
#116=ORIENTED_EDGE('',*,*,#306,.F.);
#117=ORIENTED_EDGE('',*,*,#298,.T.);
#118=ORIENTED_EDGE('',*,*,#306,.T.);
#119=ORIENTED_EDGE('',*,*,#307,.F.);
#120=ORIENTED_EDGE('',*,*,#302,.T.);
#121=ORIENTED_EDGE('',*,*,#307,.T.);
#122=ORIENTED_EDGE('',*,*,#308,.T.);
#123=ORIENTED_EDGE('',*,*,#309,.F.);
#124=ORIENTED_EDGE('',*,*,#310,.F.);
#125=ORIENTED_EDGE('',*,*,#311,.T.);
#126=ORIENTED_EDGE('',*,*,#312,.T.);
#127=ORIENTED_EDGE('',*,*,#313,.F.);
#128=ORIENTED_EDGE('',*,*,#314,.F.);
#129=ORIENTED_EDGE('',*,*,#309,.T.);
#130=ORIENTED_EDGE('',*,*,#315,.T.);
#131=ORIENTED_EDGE('',*,*,#316,.F.);
#132=ORIENTED_EDGE('',*,*,#317,.F.);
#133=ORIENTED_EDGE('',*,*,#313,.T.);
#134=ORIENTED_EDGE('',*,*,#318,.F.);
#135=ORIENTED_EDGE('',*,*,#319,.F.);
#136=ORIENTED_EDGE('',*,*,#320,.F.);
#137=ORIENTED_EDGE('',*,*,#321,.F.);
#138=ORIENTED_EDGE('',*,*,#322,.T.);
#139=ORIENTED_EDGE('',*,*,#311,.F.);
#140=ORIENTED_EDGE('',*,*,#323,.F.);
#141=ORIENTED_EDGE('',*,*,#316,.T.);
#142=ORIENTED_EDGE('',*,*,#310,.T.);
#143=ORIENTED_EDGE('',*,*,#314,.T.);
#144=ORIENTED_EDGE('',*,*,#317,.T.);
#145=ORIENTED_EDGE('',*,*,#323,.T.);
#146=ORIENTED_EDGE('',*,*,#324,.F.);
#147=ORIENTED_EDGE('',*,*,#325,.F.);
#148=ORIENTED_EDGE('',*,*,#326,.F.);
#149=ORIENTED_EDGE('',*,*,#327,.F.);
#150=ORIENTED_EDGE('',*,*,#308,.F.);
#151=ORIENTED_EDGE('',*,*,#322,.F.);
#152=ORIENTED_EDGE('',*,*,#315,.F.);
#153=ORIENTED_EDGE('',*,*,#312,.F.);
#154=ORIENTED_EDGE('',*,*,#328,.F.);
#155=ORIENTED_EDGE('',*,*,#327,.T.);
#156=ORIENTED_EDGE('',*,*,#328,.T.);
#157=ORIENTED_EDGE('',*,*,#329,.F.);
#158=ORIENTED_EDGE('',*,*,#326,.T.);
#159=ORIENTED_EDGE('',*,*,#329,.T.);
#160=ORIENTED_EDGE('',*,*,#330,.F.);
#161=ORIENTED_EDGE('',*,*,#325,.T.);
#162=ORIENTED_EDGE('',*,*,#330,.T.);
#163=ORIENTED_EDGE('',*,*,#331,.F.);
#164=ORIENTED_EDGE('',*,*,#324,.T.);
#165=ORIENTED_EDGE('',*,*,#331,.T.);
#166=ORIENTED_EDGE('',*,*,#319,.T.);
#167=ORIENTED_EDGE('',*,*,#332,.F.);
#168=ORIENTED_EDGE('',*,*,#333,.F.);
#169=ORIENTED_EDGE('',*,*,#334,.T.);
#170=ORIENTED_EDGE('',*,*,#318,.T.);
#171=ORIENTED_EDGE('',*,*,#335,.F.);
#172=ORIENTED_EDGE('',*,*,#336,.F.);
#173=ORIENTED_EDGE('',*,*,#332,.T.);
#174=ORIENTED_EDGE('',*,*,#321,.T.);
#175=ORIENTED_EDGE('',*,*,#337,.F.);
#176=ORIENTED_EDGE('',*,*,#338,.F.);
#177=ORIENTED_EDGE('',*,*,#335,.T.);
#178=ORIENTED_EDGE('',*,*,#320,.T.);
#179=ORIENTED_EDGE('',*,*,#334,.F.);
#180=ORIENTED_EDGE('',*,*,#339,.F.);
#181=ORIENTED_EDGE('',*,*,#337,.T.);
#182=ORIENTED_EDGE('',*,*,#333,.T.);
#183=ORIENTED_EDGE('',*,*,#336,.T.);
#184=ORIENTED_EDGE('',*,*,#338,.T.);
#185=ORIENTED_EDGE('',*,*,#339,.T.);
#186=ORIENTED_EDGE('',*,*,#340,.T.);
#187=ORIENTED_EDGE('',*,*,#341,.F.);
#188=ORIENTED_EDGE('',*,*,#342,.F.);
#189=ORIENTED_EDGE('',*,*,#343,.T.);
#190=ORIENTED_EDGE('',*,*,#344,.T.);
#191=ORIENTED_EDGE('',*,*,#345,.F.);
#192=ORIENTED_EDGE('',*,*,#346,.F.);
#193=ORIENTED_EDGE('',*,*,#341,.T.);
#194=ORIENTED_EDGE('',*,*,#347,.T.);
#195=ORIENTED_EDGE('',*,*,#348,.F.);
#196=ORIENTED_EDGE('',*,*,#349,.F.);
#197=ORIENTED_EDGE('',*,*,#345,.T.);
#198=ORIENTED_EDGE('',*,*,#350,.T.);
#199=ORIENTED_EDGE('',*,*,#343,.F.);
#200=ORIENTED_EDGE('',*,*,#351,.F.);
#201=ORIENTED_EDGE('',*,*,#348,.T.);
#202=ORIENTED_EDGE('',*,*,#352,.F.);
#203=ORIENTED_EDGE('',*,*,#353,.F.);
#204=ORIENTED_EDGE('',*,*,#354,.F.);
#205=ORIENTED_EDGE('',*,*,#355,.F.);
#206=ORIENTED_EDGE('',*,*,#342,.T.);
#207=ORIENTED_EDGE('',*,*,#346,.T.);
#208=ORIENTED_EDGE('',*,*,#349,.T.);
#209=ORIENTED_EDGE('',*,*,#351,.T.);
#210=ORIENTED_EDGE('',*,*,#356,.F.);
#211=ORIENTED_EDGE('',*,*,#357,.F.);
#212=ORIENTED_EDGE('',*,*,#358,.F.);
#213=ORIENTED_EDGE('',*,*,#359,.F.);
#214=ORIENTED_EDGE('',*,*,#340,.F.);
#215=ORIENTED_EDGE('',*,*,#350,.F.);
#216=ORIENTED_EDGE('',*,*,#347,.F.);
#217=ORIENTED_EDGE('',*,*,#344,.F.);
#218=ORIENTED_EDGE('',*,*,#352,.T.);
#219=ORIENTED_EDGE('',*,*,#360,.F.);
#220=ORIENTED_EDGE('',*,*,#361,.F.);
#221=ORIENTED_EDGE('',*,*,#362,.T.);
#222=ORIENTED_EDGE('',*,*,#355,.T.);
#223=ORIENTED_EDGE('',*,*,#363,.F.);
#224=ORIENTED_EDGE('',*,*,#364,.F.);
#225=ORIENTED_EDGE('',*,*,#360,.T.);
#226=ORIENTED_EDGE('',*,*,#354,.T.);
#227=ORIENTED_EDGE('',*,*,#365,.F.);
#228=ORIENTED_EDGE('',*,*,#366,.F.);
#229=ORIENTED_EDGE('',*,*,#363,.T.);
#230=ORIENTED_EDGE('',*,*,#353,.T.);
#231=ORIENTED_EDGE('',*,*,#362,.F.);
#232=ORIENTED_EDGE('',*,*,#367,.F.);
#233=ORIENTED_EDGE('',*,*,#365,.T.);
#234=ORIENTED_EDGE('',*,*,#368,.F.);
#235=ORIENTED_EDGE('',*,*,#369,.F.);
#236=ORIENTED_EDGE('',*,*,#370,.F.);
#237=ORIENTED_EDGE('',*,*,#371,.F.);
#238=ORIENTED_EDGE('',*,*,#372,.F.);
#239=ORIENTED_EDGE('',*,*,#373,.F.);
#240=ORIENTED_EDGE('',*,*,#361,.T.);
#241=ORIENTED_EDGE('',*,*,#364,.T.);
#242=ORIENTED_EDGE('',*,*,#366,.T.);
#243=ORIENTED_EDGE('',*,*,#367,.T.);
#244=ORIENTED_EDGE('',*,*,#369,.T.);
#245=ORIENTED_EDGE('',*,*,#374,.T.);
#246=ORIENTED_EDGE('',*,*,#375,.F.);
#247=ORIENTED_EDGE('',*,*,#376,.T.);
#248=ORIENTED_EDGE('',*,*,#377,.F.);
#249=ORIENTED_EDGE('',*,*,#375,.T.);
#250=ORIENTED_EDGE('',*,*,#368,.T.);
#251=ORIENTED_EDGE('',*,*,#378,.F.);
#252=ORIENTED_EDGE('',*,*,#379,.F.);
#253=ORIENTED_EDGE('',*,*,#380,.T.);
#254=ORIENTED_EDGE('',*,*,#370,.T.);
#255=ORIENTED_EDGE('',*,*,#376,.F.);
#256=ORIENTED_EDGE('',*,*,#377,.T.);
#257=ORIENTED_EDGE('',*,*,#374,.F.);
#258=ORIENTED_EDGE('',*,*,#371,.T.);
#259=ORIENTED_EDGE('',*,*,#380,.F.);
#260=ORIENTED_EDGE('',*,*,#381,.F.);
#261=ORIENTED_EDGE('',*,*,#382,.T.);
#262=ORIENTED_EDGE('',*,*,#373,.T.);
#263=ORIENTED_EDGE('',*,*,#383,.F.);
#264=ORIENTED_EDGE('',*,*,#384,.F.);
#265=ORIENTED_EDGE('',*,*,#378,.T.);
#266=ORIENTED_EDGE('',*,*,#372,.T.);
#267=ORIENTED_EDGE('',*,*,#382,.F.);
#268=ORIENTED_EDGE('',*,*,#385,.F.);
#269=ORIENTED_EDGE('',*,*,#383,.T.);
#270=ORIENTED_EDGE('',*,*,#381,.T.);
#271=ORIENTED_EDGE('',*,*,#379,.T.);
#272=ORIENTED_EDGE('',*,*,#384,.T.);
#273=ORIENTED_EDGE('',*,*,#385,.T.);
#274=ORIENTED_EDGE('',*,*,#386,.F.);
#275=ORIENTED_EDGE('',*,*,#359,.T.);
#276=ORIENTED_EDGE('',*,*,#386,.T.);
#277=ORIENTED_EDGE('',*,*,#387,.F.);
#278=ORIENTED_EDGE('',*,*,#358,.T.);
#279=ORIENTED_EDGE('',*,*,#387,.T.);
#280=ORIENTED_EDGE('',*,*,#388,.F.);
#281=ORIENTED_EDGE('',*,*,#357,.T.);
#282=ORIENTED_EDGE('',*,*,#388,.T.);
#283=ORIENTED_EDGE('',*,*,#389,.F.);
#284=ORIENTED_EDGE('',*,*,#356,.T.);
#285=ORIENTED_EDGE('',*,*,#389,.T.);
#286=EDGE_CURVE('',#390,#391,#468,.T.);
#287=EDGE_CURVE('',#392,#391,#469,.T.);
#288=EDGE_CURVE('',#393,#392,#470,.T.);
#289=EDGE_CURVE('',#393,#390,#471,.T.);
#290=EDGE_CURVE('',#391,#394,#472,.T.);
#291=EDGE_CURVE('',#395,#394,#473,.T.);
#292=EDGE_CURVE('',#392,#395,#474,.T.);
#293=EDGE_CURVE('',#394,#396,#475,.T.);
#294=EDGE_CURVE('',#397,#396,#476,.T.);
#295=EDGE_CURVE('',#395,#397,#477,.T.);
#296=EDGE_CURVE('',#396,#390,#478,.T.);
#297=EDGE_CURVE('',#397,#393,#479,.T.);
#298=EDGE_CURVE('',#398,#398,#50,.T.);
#299=EDGE_CURVE('',#399,#399,#51,.T.);
#300=EDGE_CURVE('',#400,#400,#52,.T.);
#301=EDGE_CURVE('',#401,#401,#53,.T.);
#302=EDGE_CURVE('',#402,#402,#54,.T.);
#303=EDGE_CURVE('',#403,#403,#55,.T.);
#304=EDGE_CURVE('',#404,#404,#56,.T.);
#305=EDGE_CURVE('',#405,#405,#57,.T.);
#306=EDGE_CURVE('',#406,#406,#58,.T.);
#307=EDGE_CURVE('',#407,#407,#59,.T.);
#308=EDGE_CURVE('',#408,#409,#480,.T.);
#309=EDGE_CURVE('',#410,#409,#481,.T.);
#310=EDGE_CURVE('',#411,#410,#482,.T.);
#311=EDGE_CURVE('',#411,#408,#483,.T.);
#312=EDGE_CURVE('',#409,#412,#484,.T.);
#313=EDGE_CURVE('',#413,#412,#485,.T.);
#314=EDGE_CURVE('',#410,#413,#486,.T.);
#315=EDGE_CURVE('',#412,#414,#487,.T.);
#316=EDGE_CURVE('',#415,#414,#488,.T.);
#317=EDGE_CURVE('',#413,#415,#489,.T.);
#318=EDGE_CURVE('',#416,#417,#490,.T.);
#319=EDGE_CURVE('',#418,#416,#491,.T.);
#320=EDGE_CURVE('',#419,#418,#492,.T.);
#321=EDGE_CURVE('',#417,#419,#493,.T.);
#322=EDGE_CURVE('',#414,#408,#494,.T.);
#323=EDGE_CURVE('',#415,#411,#495,.T.);
#324=EDGE_CURVE('',#420,#420,#60,.T.);
#325=EDGE_CURVE('',#421,#421,#61,.T.);
#326=EDGE_CURVE('',#422,#422,#62,.T.);
#327=EDGE_CURVE('',#423,#423,#63,.T.);
#328=EDGE_CURVE('',#424,#424,#64,.T.);
#329=EDGE_CURVE('',#425,#425,#65,.T.);
#330=EDGE_CURVE('',#426,#426,#66,.T.);
#331=EDGE_CURVE('',#427,#427,#67,.T.);
#332=EDGE_CURVE('',#428,#416,#496,.T.);
#333=EDGE_CURVE('',#429,#428,#497,.T.);
#334=EDGE_CURVE('',#429,#418,#498,.T.);
#335=EDGE_CURVE('',#430,#417,#499,.T.);
#336=EDGE_CURVE('',#428,#430,#500,.T.);
#337=EDGE_CURVE('',#431,#419,#501,.T.);
#338=EDGE_CURVE('',#430,#431,#502,.T.);
#339=EDGE_CURVE('',#431,#429,#503,.T.);
#340=EDGE_CURVE('',#432,#433,#504,.T.);
#341=EDGE_CURVE('',#434,#433,#505,.T.);
#342=EDGE_CURVE('',#435,#434,#506,.T.);
#343=EDGE_CURVE('',#435,#432,#507,.T.);
#344=EDGE_CURVE('',#433,#436,#508,.T.);
#345=EDGE_CURVE('',#437,#436,#509,.T.);
#346=EDGE_CURVE('',#434,#437,#510,.T.);
#347=EDGE_CURVE('',#436,#438,#511,.T.);
#348=EDGE_CURVE('',#439,#438,#512,.T.);
#349=EDGE_CURVE('',#437,#439,#513,.T.);
#350=EDGE_CURVE('',#438,#432,#514,.T.);
#351=EDGE_CURVE('',#439,#435,#515,.T.);
#352=EDGE_CURVE('',#440,#441,#516,.T.);
#353=EDGE_CURVE('',#442,#440,#517,.T.);
#354=EDGE_CURVE('',#443,#442,#518,.T.);
#355=EDGE_CURVE('',#441,#443,#519,.T.);
#356=EDGE_CURVE('',#444,#444,#68,.T.);
#357=EDGE_CURVE('',#445,#445,#69,.T.);
#358=EDGE_CURVE('',#446,#446,#70,.T.);
#359=EDGE_CURVE('',#447,#447,#71,.T.);
#360=EDGE_CURVE('',#448,#441,#520,.T.);
#361=EDGE_CURVE('',#449,#448,#521,.T.);
#362=EDGE_CURVE('',#449,#440,#522,.T.);
#363=EDGE_CURVE('',#450,#443,#523,.T.);
#364=EDGE_CURVE('',#448,#450,#524,.T.);
#365=EDGE_CURVE('',#451,#442,#525,.T.);
#366=EDGE_CURVE('',#450,#451,#526,.T.);
#367=EDGE_CURVE('',#451,#449,#527,.T.);
#368=EDGE_CURVE('',#452,#453,#528,.T.);
#369=EDGE_CURVE('',#454,#452,#72,.T.);
#370=EDGE_CURVE('',#455,#454,#529,.T.);
#371=EDGE_CURVE('',#456,#455,#530,.T.);
#372=EDGE_CURVE('',#457,#456,#531,.T.);
#373=EDGE_CURVE('',#453,#457,#532,.T.);
#374=EDGE_CURVE('',#452,#458,#533,.F.);
#375=EDGE_CURVE('',#459,#458,#73,.T.);
#376=EDGE_CURVE('',#459,#454,#534,.T.);
#377=EDGE_CURVE('',#459,#458,#535,.T.);
#378=EDGE_CURVE('',#460,#453,#536,.T.);
#379=EDGE_CURVE('',#461,#460,#537,.T.);
#380=EDGE_CURVE('',#461,#455,#538,.T.);
#381=EDGE_CURVE('',#462,#461,#539,.T.);
#382=EDGE_CURVE('',#462,#456,#540,.T.);
#383=EDGE_CURVE('',#463,#457,#541,.T.);
#384=EDGE_CURVE('',#460,#463,#542,.T.);
#385=EDGE_CURVE('',#463,#462,#543,.T.);
#386=EDGE_CURVE('',#464,#464,#74,.T.);
#387=EDGE_CURVE('',#465,#465,#75,.T.);
#388=EDGE_CURVE('',#466,#466,#76,.T.);
#389=EDGE_CURVE('',#467,#467,#77,.T.);
#390=VERTEX_POINT('',#1302);
#391=VERTEX_POINT('',#1303);
#392=VERTEX_POINT('',#1305);
#393=VERTEX_POINT('',#1307);
#394=VERTEX_POINT('',#1311);
#395=VERTEX_POINT('',#1313);
#396=VERTEX_POINT('',#1317);
#397=VERTEX_POINT('',#1319);
#398=VERTEX_POINT('',#1326);
#399=VERTEX_POINT('',#1328);
#400=VERTEX_POINT('',#1330);
#401=VERTEX_POINT('',#1332);
#402=VERTEX_POINT('',#1335);
#403=VERTEX_POINT('',#1338);
#404=VERTEX_POINT('',#1342);
#405=VERTEX_POINT('',#1346);
#406=VERTEX_POINT('',#1350);
#407=VERTEX_POINT('',#1354);
#408=VERTEX_POINT('',#1359);
#409=VERTEX_POINT('',#1360);
#410=VERTEX_POINT('',#1362);
#411=VERTEX_POINT('',#1364);
#412=VERTEX_POINT('',#1368);
#413=VERTEX_POINT('',#1370);
#414=VERTEX_POINT('',#1374);
#415=VERTEX_POINT('',#1376);
#416=VERTEX_POINT('',#1380);
#417=VERTEX_POINT('',#1381);
#418=VERTEX_POINT('',#1383);
#419=VERTEX_POINT('',#1385);
#420=VERTEX_POINT('',#1392);
#421=VERTEX_POINT('',#1394);
#422=VERTEX_POINT('',#1396);
#423=VERTEX_POINT('',#1398);
#424=VERTEX_POINT('',#1401);
#425=VERTEX_POINT('',#1405);
#426=VERTEX_POINT('',#1409);
#427=VERTEX_POINT('',#1413);
#428=VERTEX_POINT('',#1417);
#429=VERTEX_POINT('',#1419);
#430=VERTEX_POINT('',#1423);
#431=VERTEX_POINT('',#1427);
#432=VERTEX_POINT('',#1435);
#433=VERTEX_POINT('',#1436);
#434=VERTEX_POINT('',#1438);
#435=VERTEX_POINT('',#1440);
#436=VERTEX_POINT('',#1444);
#437=VERTEX_POINT('',#1446);
#438=VERTEX_POINT('',#1450);
#439=VERTEX_POINT('',#1452);
#440=VERTEX_POINT('',#1459);
#441=VERTEX_POINT('',#1460);
#442=VERTEX_POINT('',#1462);
#443=VERTEX_POINT('',#1464);
#444=VERTEX_POINT('',#1468);
#445=VERTEX_POINT('',#1470);
#446=VERTEX_POINT('',#1472);
#447=VERTEX_POINT('',#1474);
#448=VERTEX_POINT('',#1477);
#449=VERTEX_POINT('',#1479);
#450=VERTEX_POINT('',#1483);
#451=VERTEX_POINT('',#1487);
#452=VERTEX_POINT('',#1493);
#453=VERTEX_POINT('',#1494);
#454=VERTEX_POINT('',#1496);
#455=VERTEX_POINT('',#1498);
#456=VERTEX_POINT('',#1500);
#457=VERTEX_POINT('',#1502);
#458=VERTEX_POINT('',#1506);
#459=VERTEX_POINT('',#1508);
#460=VERTEX_POINT('',#1514);
#461=VERTEX_POINT('',#1516);
#462=VERTEX_POINT('',#1520);
#463=VERTEX_POINT('',#1524);
#464=VERTEX_POINT('',#1531);
#465=VERTEX_POINT('',#1535);
#466=VERTEX_POINT('',#1539);
#467=VERTEX_POINT('',#1543);
#468=LINE('',#1301,#544);
#469=LINE('',#1304,#545);
#470=LINE('',#1306,#546);
#471=LINE('',#1308,#547);
#472=LINE('',#1310,#548);
#473=LINE('',#1312,#549);
#474=LINE('',#1314,#550);
#475=LINE('',#1316,#551);
#476=LINE('',#1318,#552);
#477=LINE('',#1320,#553);
#478=LINE('',#1322,#554);
#479=LINE('',#1323,#555);
#480=LINE('',#1358,#556);
#481=LINE('',#1361,#557);
#482=LINE('',#1363,#558);
#483=LINE('',#1365,#559);
#484=LINE('',#1367,#560);
#485=LINE('',#1369,#561);
#486=LINE('',#1371,#562);
#487=LINE('',#1373,#563);
#488=LINE('',#1375,#564);
#489=LINE('',#1377,#565);
#490=LINE('',#1379,#566);
#491=LINE('',#1382,#567);
#492=LINE('',#1384,#568);
#493=LINE('',#1386,#569);
#494=LINE('',#1387,#570);
#495=LINE('',#1388,#571);
#496=LINE('',#1416,#572);
#497=LINE('',#1418,#573);
#498=LINE('',#1420,#574);
#499=LINE('',#1422,#575);
#500=LINE('',#1424,#576);
#501=LINE('',#1426,#577);
#502=LINE('',#1428,#578);
#503=LINE('',#1430,#579);
#504=LINE('',#1434,#580);
#505=LINE('',#1437,#581);
#506=LINE('',#1439,#582);
#507=LINE('',#1441,#583);
#508=LINE('',#1443,#584);
#509=LINE('',#1445,#585);
#510=LINE('',#1447,#586);
#511=LINE('',#1449,#587);
#512=LINE('',#1451,#588);
#513=LINE('',#1453,#589);
#514=LINE('',#1455,#590);
#515=LINE('',#1456,#591);
#516=LINE('',#1458,#592);
#517=LINE('',#1461,#593);
#518=LINE('',#1463,#594);
#519=LINE('',#1465,#595);
#520=LINE('',#1476,#596);
#521=LINE('',#1478,#597);
#522=LINE('',#1480,#598);
#523=LINE('',#1482,#599);
#524=LINE('',#1484,#600);
#525=LINE('',#1486,#601);
#526=LINE('',#1488,#602);
#527=LINE('',#1490,#603);
#528=LINE('',#1492,#604);
#529=LINE('',#1497,#605);
#530=LINE('',#1499,#606);
#531=LINE('',#1501,#607);
#532=LINE('',#1503,#608);
#533=LINE('',#1505,#609);
#534=LINE('',#1509,#610);
#535=LINE('',#1511,#611);
#536=LINE('',#1513,#612);
#537=LINE('',#1515,#613);
#538=LINE('',#1517,#614);
#539=LINE('',#1519,#615);
#540=LINE('',#1521,#616);
#541=LINE('',#1523,#617);
#542=LINE('',#1525,#618);
#543=LINE('',#1527,#619);
#544=VECTOR('',#1041,1.);
#545=VECTOR('',#1042,1.);
#546=VECTOR('',#1043,1.);
#547=VECTOR('',#1044,1.);
#548=VECTOR('',#1047,1.);
#549=VECTOR('',#1048,1.);
#550=VECTOR('',#1049,1.);
#551=VECTOR('',#1052,1.);
#552=VECTOR('',#1053,1.);
#553=VECTOR('',#1054,1.);
#554=VECTOR('',#1057,1.);
#555=VECTOR('',#1058,1.);
#556=VECTOR('',#1107,1.);
#557=VECTOR('',#1108,1.);
#558=VECTOR('',#1109,1.);
#559=VECTOR('',#1110,1.);
#560=VECTOR('',#1113,1.);
#561=VECTOR('',#1114,1.);
#562=VECTOR('',#1115,1.);
#563=VECTOR('',#1118,1.);
#564=VECTOR('',#1119,1.);
#565=VECTOR('',#1120,1.);
#566=VECTOR('',#1123,1.);
#567=VECTOR('',#1124,1.);
#568=VECTOR('',#1125,1.);
#569=VECTOR('',#1126,1.);
#570=VECTOR('',#1127,1.);
#571=VECTOR('',#1128,1.);
#572=VECTOR('',#1167,1.);
#573=VECTOR('',#1168,1.);
#574=VECTOR('',#1169,1.);
#575=VECTOR('',#1172,1.);
#576=VECTOR('',#1173,1.);
#577=VECTOR('',#1176,1.);
#578=VECTOR('',#1177,1.);
#579=VECTOR('',#1180,1.);
#580=VECTOR('',#1187,1.);
#581=VECTOR('',#1188,1.);
#582=VECTOR('',#1189,1.);
#583=VECTOR('',#1190,1.);
#584=VECTOR('',#1193,1.);
#585=VECTOR('',#1194,1.);
#586=VECTOR('',#1195,1.);
#587=VECTOR('',#1198,1.);
#588=VECTOR('',#1199,1.);
#589=VECTOR('',#1200,1.);
#590=VECTOR('',#1203,1.);
#591=VECTOR('',#1204,1.);
#592=VECTOR('',#1207,1.);
#593=VECTOR('',#1208,1.);
#594=VECTOR('',#1209,1.);
#595=VECTOR('',#1210,1.);
#596=VECTOR('',#1223,1.);
#597=VECTOR('',#1224,1.);
#598=VECTOR('',#1225,1.);
#599=VECTOR('',#1228,1.);
#600=VECTOR('',#1229,1.);
#601=VECTOR('',#1232,1.);
#602=VECTOR('',#1233,1.);
#603=VECTOR('',#1236,1.);
#604=VECTOR('',#1239,1.);
#605=VECTOR('',#1242,1.);
#606=VECTOR('',#1243,1.);
#607=VECTOR('',#1244,1.);
#608=VECTOR('',#1245,1.);
#609=VECTOR('',#1248,1.);
#610=VECTOR('',#1251,1.);
#611=VECTOR('',#1254,1.);
#612=VECTOR('',#1257,1.);
#613=VECTOR('',#1258,1.);
#614=VECTOR('',#1259,1.);
#615=VECTOR('',#1262,1.);
#616=VECTOR('',#1263,1.);
#617=VECTOR('',#1266,1.);
#618=VECTOR('',#1267,1.);
#619=VECTOR('',#1270,1.);
#620=EDGE_LOOP('',(#78,#79,#80,#81));
#621=EDGE_LOOP('',(#82,#83,#84,#85));
#622=EDGE_LOOP('',(#86,#87,#88,#89));
#623=EDGE_LOOP('',(#90,#91,#92,#93));
#624=EDGE_LOOP('',(#94));
#625=EDGE_LOOP('',(#95));
#626=EDGE_LOOP('',(#96));
#627=EDGE_LOOP('',(#97));
#628=EDGE_LOOP('',(#98,#99,#100,#101));
#629=EDGE_LOOP('',(#102));
#630=EDGE_LOOP('',(#103,#104,#105,#106));
#631=EDGE_LOOP('',(#107));
#632=EDGE_LOOP('',(#108));
#633=EDGE_LOOP('',(#109));
#634=EDGE_LOOP('',(#110));
#635=EDGE_LOOP('',(#111));
#636=EDGE_LOOP('',(#112));
#637=EDGE_LOOP('',(#113));
#638=EDGE_LOOP('',(#114));
#639=EDGE_LOOP('',(#115));
#640=EDGE_LOOP('',(#116));
#641=EDGE_LOOP('',(#117));
#642=EDGE_LOOP('',(#118));
#643=EDGE_LOOP('',(#119));
#644=EDGE_LOOP('',(#120));
#645=EDGE_LOOP('',(#121));
#646=EDGE_LOOP('',(#122,#123,#124,#125));
#647=EDGE_LOOP('',(#126,#127,#128,#129));
#648=EDGE_LOOP('',(#130,#131,#132,#133));
#649=EDGE_LOOP('',(#134,#135,#136,#137));
#650=EDGE_LOOP('',(#138,#139,#140,#141));
#651=EDGE_LOOP('',(#142,#143,#144,#145));
#652=EDGE_LOOP('',(#146));
#653=EDGE_LOOP('',(#147));
#654=EDGE_LOOP('',(#148));
#655=EDGE_LOOP('',(#149));
#656=EDGE_LOOP('',(#150,#151,#152,#153));
#657=EDGE_LOOP('',(#154));
#658=EDGE_LOOP('',(#155));
#659=EDGE_LOOP('',(#156));
#660=EDGE_LOOP('',(#157));
#661=EDGE_LOOP('',(#158));
#662=EDGE_LOOP('',(#159));
#663=EDGE_LOOP('',(#160));
#664=EDGE_LOOP('',(#161));
#665=EDGE_LOOP('',(#162));
#666=EDGE_LOOP('',(#163));
#667=EDGE_LOOP('',(#164));
#668=EDGE_LOOP('',(#165));
#669=EDGE_LOOP('',(#166,#167,#168,#169));
#670=EDGE_LOOP('',(#170,#171,#172,#173));
#671=EDGE_LOOP('',(#174,#175,#176,#177));
#672=EDGE_LOOP('',(#178,#179,#180,#181));
#673=EDGE_LOOP('',(#182,#183,#184,#185));
#674=EDGE_LOOP('',(#186,#187,#188,#189));
#675=EDGE_LOOP('',(#190,#191,#192,#193));
#676=EDGE_LOOP('',(#194,#195,#196,#197));
#677=EDGE_LOOP('',(#198,#199,#200,#201));
#678=EDGE_LOOP('',(#202,#203,#204,#205));
#679=EDGE_LOOP('',(#206,#207,#208,#209));
#680=EDGE_LOOP('',(#210));
#681=EDGE_LOOP('',(#211));
#682=EDGE_LOOP('',(#212));
#683=EDGE_LOOP('',(#213));
#684=EDGE_LOOP('',(#214,#215,#216,#217));
#685=EDGE_LOOP('',(#218,#219,#220,#221));
#686=EDGE_LOOP('',(#222,#223,#224,#225));
#687=EDGE_LOOP('',(#226,#227,#228,#229));
#688=EDGE_LOOP('',(#230,#231,#232,#233));
#689=EDGE_LOOP('',(#234,#235,#236,#237,#238,#239));
#690=EDGE_LOOP('',(#240,#241,#242,#243));
#691=EDGE_LOOP('',(#244,#245,#246,#247));
#692=EDGE_LOOP('',(#248,#249));
#693=EDGE_LOOP('',(#250,#251,#252,#253,#254,#255,#256,#257));
#694=EDGE_LOOP('',(#258,#259,#260,#261));
#695=EDGE_LOOP('',(#262,#263,#264,#265));
#696=EDGE_LOOP('',(#266,#267,#268,#269));
#697=EDGE_LOOP('',(#270,#271,#272,#273));
#698=EDGE_LOOP('',(#274));
#699=EDGE_LOOP('',(#275));
#700=EDGE_LOOP('',(#276));
#701=EDGE_LOOP('',(#277));
#702=EDGE_LOOP('',(#278));
#703=EDGE_LOOP('',(#279));
#704=EDGE_LOOP('',(#280));
#705=EDGE_LOOP('',(#281));
#706=EDGE_LOOP('',(#282));
#707=EDGE_LOOP('',(#283));
#708=EDGE_LOOP('',(#284));
#709=EDGE_LOOP('',(#285));
#710=FACE_BOUND('',#620,.T.);
#711=FACE_BOUND('',#621,.T.);
#712=FACE_BOUND('',#622,.T.);
#713=FACE_BOUND('',#623,.T.);
#714=FACE_BOUND('',#624,.T.);
#715=FACE_BOUND('',#625,.T.);
#716=FACE_BOUND('',#626,.T.);
#717=FACE_BOUND('',#627,.T.);
#718=FACE_BOUND('',#628,.T.);
#719=FACE_BOUND('',#629,.T.);
#720=FACE_BOUND('',#630,.T.);
#721=FACE_BOUND('',#631,.T.);
#722=FACE_BOUND('',#632,.T.);
#723=FACE_BOUND('',#633,.T.);
#724=FACE_BOUND('',#634,.T.);
#725=FACE_BOUND('',#635,.T.);
#726=FACE_BOUND('',#636,.T.);
#727=FACE_BOUND('',#637,.T.);
#728=FACE_BOUND('',#638,.T.);
#729=FACE_BOUND('',#639,.T.);
#730=FACE_BOUND('',#640,.T.);
#731=FACE_BOUND('',#641,.T.);
#732=FACE_BOUND('',#642,.T.);
#733=FACE_BOUND('',#643,.T.);
#734=FACE_BOUND('',#644,.T.);
#735=FACE_BOUND('',#645,.T.);
#736=FACE_BOUND('',#646,.T.);
#737=FACE_BOUND('',#647,.T.);
#738=FACE_BOUND('',#648,.T.);
#739=FACE_BOUND('',#649,.T.);
#740=FACE_BOUND('',#650,.T.);
#741=FACE_BOUND('',#651,.T.);
#742=FACE_BOUND('',#652,.T.);
#743=FACE_BOUND('',#653,.T.);
#744=FACE_BOUND('',#654,.T.);
#745=FACE_BOUND('',#655,.T.);
#746=FACE_BOUND('',#656,.T.);
#747=FACE_BOUND('',#657,.T.);
#748=FACE_BOUND('',#658,.T.);
#749=FACE_BOUND('',#659,.T.);
#750=FACE_BOUND('',#660,.T.);
#751=FACE_BOUND('',#661,.T.);
#752=FACE_BOUND('',#662,.T.);
#753=FACE_BOUND('',#663,.T.);
#754=FACE_BOUND('',#664,.T.);
#755=FACE_BOUND('',#665,.T.);
#756=FACE_BOUND('',#666,.T.);
#757=FACE_BOUND('',#667,.T.);
#758=FACE_BOUND('',#668,.T.);
#759=FACE_BOUND('',#669,.T.);
#760=FACE_BOUND('',#670,.T.);
#761=FACE_BOUND('',#671,.T.);
#762=FACE_BOUND('',#672,.T.);
#763=FACE_BOUND('',#673,.T.);
#764=FACE_BOUND('',#674,.T.);
#765=FACE_BOUND('',#675,.T.);
#766=FACE_BOUND('',#676,.T.);
#767=FACE_BOUND('',#677,.T.);
#768=FACE_BOUND('',#678,.T.);
#769=FACE_BOUND('',#679,.T.);
#770=FACE_BOUND('',#680,.T.);
#771=FACE_BOUND('',#681,.T.);
#772=FACE_BOUND('',#682,.T.);
#773=FACE_BOUND('',#683,.T.);
#774=FACE_BOUND('',#684,.T.);
#775=FACE_BOUND('',#685,.T.);
#776=FACE_BOUND('',#686,.T.);
#777=FACE_BOUND('',#687,.T.);
#778=FACE_BOUND('',#688,.T.);
#779=FACE_BOUND('',#689,.T.);
#780=FACE_BOUND('',#690,.T.);
#781=FACE_BOUND('',#691,.T.);
#782=FACE_BOUND('',#692,.T.);
#783=FACE_BOUND('',#693,.T.);
#784=FACE_BOUND('',#694,.T.);
#785=FACE_BOUND('',#695,.T.);
#786=FACE_BOUND('',#696,.T.);
#787=FACE_BOUND('',#697,.T.);
#788=FACE_BOUND('',#698,.T.);
#789=FACE_BOUND('',#699,.T.);
#790=FACE_BOUND('',#700,.T.);
#791=FACE_BOUND('',#701,.T.);
#792=FACE_BOUND('',#702,.T.);
#793=FACE_BOUND('',#703,.T.);
#794=FACE_BOUND('',#704,.T.);
#795=FACE_BOUND('',#705,.T.);
#796=FACE_BOUND('',#706,.T.);
#797=FACE_BOUND('',#707,.T.);
#798=FACE_BOUND('',#708,.T.);
#799=FACE_BOUND('',#709,.T.);
#800=PLANE('',#945);
#801=PLANE('',#946);
#802=PLANE('',#947);
#803=PLANE('',#948);
#804=PLANE('',#949);
#805=PLANE('',#954);
#806=PLANE('',#958);
#807=PLANE('',#961);
#808=PLANE('',#964);
#809=PLANE('',#967);
#810=PLANE('',#970);
#811=PLANE('',#972);
#812=PLANE('',#973);
#813=PLANE('',#974);
#814=PLANE('',#975);
#815=PLANE('',#976);
#816=PLANE('',#977);
#817=PLANE('',#984);
#818=PLANE('',#987);
#819=PLANE('',#990);
#820=PLANE('',#993);
#821=PLANE('',#994);
#822=PLANE('',#995);
#823=PLANE('',#996);
#824=PLANE('',#997);
#825=PLANE('',#998);
#826=PLANE('',#1000);
#827=PLANE('',#1001);
#828=PLANE('',#1002);
#829=PLANE('',#1003);
#830=PLANE('',#1004);
#831=PLANE('',#1005);
#832=PLANE('',#1010);
#833=PLANE('',#1011);
#834=PLANE('',#1012);
#835=PLANE('',#1013);
#836=PLANE('',#1014);
#837=PLANE('',#1018);
#838=PLANE('',#1019);
#839=PLANE('',#1020);
#840=PLANE('',#1021);
#841=PLANE('',#1022);
#842=PLANE('',#1023);
#843=PLANE('',#1026);
#844=PLANE('',#1029);
#845=PLANE('',#1032);
#846=PLANE('',#1035);
#847=ADVANCED_FACE('',(#710),#800,.F.);
#848=ADVANCED_FACE('',(#711),#801,.F.);
#849=ADVANCED_FACE('',(#712),#802,.F.);
#850=ADVANCED_FACE('',(#713),#803,.F.);
#851=ADVANCED_FACE('',(#714,#715,#716,#717,#718),#804,.T.);
#852=ADVANCED_FACE('',(#719,#720),#805,.F.);
#853=ADVANCED_FACE('',(#721,#722),#36,.F.);
#854=ADVANCED_FACE('',(#723),#806,.T.);
#855=ADVANCED_FACE('',(#724,#725),#37,.F.);
#856=ADVANCED_FACE('',(#726),#807,.T.);
#857=ADVANCED_FACE('',(#727,#728),#38,.F.);
#858=ADVANCED_FACE('',(#729),#808,.T.);
#859=ADVANCED_FACE('',(#730,#731),#39,.F.);
#860=ADVANCED_FACE('',(#732),#809,.T.);
#861=ADVANCED_FACE('',(#733,#734),#40,.F.);
#862=ADVANCED_FACE('',(#735),#810,.T.);
#863=ADVANCED_FACE('',(#736),#811,.F.);
#864=ADVANCED_FACE('',(#737),#812,.F.);
#865=ADVANCED_FACE('',(#738),#813,.F.);
#866=ADVANCED_FACE('',(#739,#740),#814,.F.);
#867=ADVANCED_FACE('',(#741),#815,.T.);
#868=ADVANCED_FACE('',(#742,#743,#744,#745,#746),#816,.F.);
#869=ADVANCED_FACE('',(#747,#748),#41,.F.);
#870=ADVANCED_FACE('',(#749),#817,.T.);
#871=ADVANCED_FACE('',(#750,#751),#42,.F.);
#872=ADVANCED_FACE('',(#752),#818,.T.);
#873=ADVANCED_FACE('',(#753,#754),#43,.F.);
#874=ADVANCED_FACE('',(#755),#819,.T.);
#875=ADVANCED_FACE('',(#756,#757),#44,.F.);
#876=ADVANCED_FACE('',(#758),#820,.T.);
#877=ADVANCED_FACE('',(#759),#821,.F.);
#878=ADVANCED_FACE('',(#760),#822,.F.);
#879=ADVANCED_FACE('',(#761),#823,.F.);
#880=ADVANCED_FACE('',(#762),#824,.F.);
#881=ADVANCED_FACE('',(#763),#825,.T.);
#882=ADVANCED_FACE('',(#764),#826,.F.);
#883=ADVANCED_FACE('',(#765),#827,.F.);
#884=ADVANCED_FACE('',(#766),#828,.F.);
#885=ADVANCED_FACE('',(#767),#829,.F.);
#886=ADVANCED_FACE('',(#768,#769),#830,.T.);
#887=ADVANCED_FACE('',(#770,#771,#772,#773,#774),#831,.F.);
#888=ADVANCED_FACE('',(#775),#832,.F.);
#889=ADVANCED_FACE('',(#776),#833,.F.);
#890=ADVANCED_FACE('',(#777),#834,.F.);
#891=ADVANCED_FACE('',(#778),#835,.F.);
#892=ADVANCED_FACE('',(#779,#780),#836,.T.);
#893=ADVANCED_FACE('',(#781),#45,.F.);
#894=ADVANCED_FACE('',(#782),#837,.T.);
#895=ADVANCED_FACE('',(#783),#838,.F.);
#896=ADVANCED_FACE('',(#784),#839,.F.);
#897=ADVANCED_FACE('',(#785),#840,.F.);
#898=ADVANCED_FACE('',(#786),#841,.F.);
#899=ADVANCED_FACE('',(#787),#842,.T.);
#900=ADVANCED_FACE('',(#788,#789),#46,.F.);
#901=ADVANCED_FACE('',(#790),#843,.T.);
#902=ADVANCED_FACE('',(#791,#792),#47,.F.);
#903=ADVANCED_FACE('',(#793),#844,.T.);
#904=ADVANCED_FACE('',(#794,#795),#48,.F.);
#905=ADVANCED_FACE('',(#796),#845,.T.);
#906=ADVANCED_FACE('',(#797,#798),#49,.F.);
#907=ADVANCED_FACE('',(#799),#846,.T.);
#908=CLOSED_SHELL('',(#847,#848,#849,#850,#851,#852,#853,#854,#855,#856,
#857,#858,#859,#860,#861,#862));
#909=CLOSED_SHELL('',(#863,#864,#865,#866,#867,#868,#869,#870,#871,#872,
#873,#874,#875,#876,#877,#878,#879,#880,#881));
#910=CLOSED_SHELL('',(#882,#883,#884,#885,#886,#887,#888,#889,#890,#891,
#892,#893,#894,#895,#896,#897,#898,#899,#900,#901,#902,#903,#904,#905,#906,
#907));
#911=STYLED_ITEM('',(#914),#933);
#912=STYLED_ITEM('',(#915),#934);
#913=STYLED_ITEM('',(#916),#935);
#914=PRESENTATION_STYLE_ASSIGNMENT((#917));
#915=PRESENTATION_STYLE_ASSIGNMENT((#918));
#916=PRESENTATION_STYLE_ASSIGNMENT((#919));
#917=SURFACE_STYLE_USAGE(.BOTH.,#920);
#918=SURFACE_STYLE_USAGE(.BOTH.,#921);
#919=SURFACE_STYLE_USAGE(.BOTH.,#922);
#920=SURFACE_SIDE_STYLE('',(#923));
#921=SURFACE_SIDE_STYLE('',(#924));
#922=SURFACE_SIDE_STYLE('',(#925));
#923=SURFACE_STYLE_FILL_AREA(#926);
#924=SURFACE_STYLE_FILL_AREA(#927);
#925=SURFACE_STYLE_FILL_AREA(#928);
#926=FILL_AREA_STYLE('',(#929));
#927=FILL_AREA_STYLE('',(#930));
#928=FILL_AREA_STYLE('',(#931));
#929=FILL_AREA_STYLE_COLOUR('',#932);
#930=FILL_AREA_STYLE_COLOUR('',#932);
#931=FILL_AREA_STYLE_COLOUR('',#932);
#932=COLOUR_RGB('',0.615686274509804,0.811764705882353,0.929411764705882);
#933=MANIFOLD_SOLID_BREP('Part 1',#908);
#934=MANIFOLD_SOLID_BREP('Part 1',#909);
#935=MANIFOLD_SOLID_BREP('Part 1',#910);
#936=SHAPE_DEFINITION_REPRESENTATION(#1558,#940);
#937=SHAPE_DEFINITION_REPRESENTATION(#1559,#941);
#938=SHAPE_DEFINITION_REPRESENTATION(#1561,#942);
#939=SHAPE_DEFINITION_REPRESENTATION(#1563,#943);
#940=SHAPE_REPRESENTATION('Leg-V2-Assembly',(#944,#971,#999,#1036),#1547);
#941=SHAPE_REPRESENTATION('Part 1',(#944),#1548);
#942=SHAPE_REPRESENTATION('Part 1',(#944),#1549);
#943=SHAPE_REPRESENTATION('Part 1',(#944),#1550);
#944=AXIS2_PLACEMENT_3D('',#1299,#1037,#1038);
#945=AXIS2_PLACEMENT_3D('',#1300,#1039,#1040);
#946=AXIS2_PLACEMENT_3D('',#1309,#1045,#1046);
#947=AXIS2_PLACEMENT_3D('',#1315,#1050,#1051);
#948=AXIS2_PLACEMENT_3D('',#1321,#1055,#1056);
#949=AXIS2_PLACEMENT_3D('',#1324,#1059,#1060);
#950=AXIS2_PLACEMENT_3D('',#1325,#1061,#1062);
#951=AXIS2_PLACEMENT_3D('',#1327,#1063,#1064);
#952=AXIS2_PLACEMENT_3D('',#1329,#1065,#1066);
#953=AXIS2_PLACEMENT_3D('',#1331,#1067,#1068);
#954=AXIS2_PLACEMENT_3D('',#1333,#1069,#1070);
#955=AXIS2_PLACEMENT_3D('',#1334,#1071,#1072);
#956=AXIS2_PLACEMENT_3D('',#1336,#1073,#1074);
#957=AXIS2_PLACEMENT_3D('',#1337,#1075,#1076);
#958=AXIS2_PLACEMENT_3D('',#1339,#1077,#1078);
#959=AXIS2_PLACEMENT_3D('',#1340,#1079,#1080);
#960=AXIS2_PLACEMENT_3D('',#1341,#1081,#1082);
#961=AXIS2_PLACEMENT_3D('',#1343,#1083,#1084);
#962=AXIS2_PLACEMENT_3D('',#1344,#1085,#1086);
#963=AXIS2_PLACEMENT_3D('',#1345,#1087,#1088);
#964=AXIS2_PLACEMENT_3D('',#1347,#1089,#1090);
#965=AXIS2_PLACEMENT_3D('',#1348,#1091,#1092);
#966=AXIS2_PLACEMENT_3D('',#1349,#1093,#1094);
#967=AXIS2_PLACEMENT_3D('',#1351,#1095,#1096);
#968=AXIS2_PLACEMENT_3D('',#1352,#1097,#1098);
#969=AXIS2_PLACEMENT_3D('',#1353,#1099,#1100);
#970=AXIS2_PLACEMENT_3D('',#1355,#1101,#1102);
#971=AXIS2_PLACEMENT_3D('',#1356,#1103,#1104);
#972=AXIS2_PLACEMENT_3D('',#1357,#1105,#1106);
#973=AXIS2_PLACEMENT_3D('',#1366,#1111,#1112);
#974=AXIS2_PLACEMENT_3D('',#1372,#1116,#1117);
#975=AXIS2_PLACEMENT_3D('',#1378,#1121,#1122);
#976=AXIS2_PLACEMENT_3D('',#1389,#1129,#1130);
#977=AXIS2_PLACEMENT_3D('',#1390,#1131,#1132);
#978=AXIS2_PLACEMENT_3D('',#1391,#1133,#1134);
#979=AXIS2_PLACEMENT_3D('',#1393,#1135,#1136);
#980=AXIS2_PLACEMENT_3D('',#1395,#1137,#1138);
#981=AXIS2_PLACEMENT_3D('',#1397,#1139,#1140);
#982=AXIS2_PLACEMENT_3D('',#1399,#1141,#1142);
#983=AXIS2_PLACEMENT_3D('',#1400,#1143,#1144);
#984=AXIS2_PLACEMENT_3D('',#1402,#1145,#1146);
#985=AXIS2_PLACEMENT_3D('',#1403,#1147,#1148);
#986=AXIS2_PLACEMENT_3D('',#1404,#1149,#1150);
#987=AXIS2_PLACEMENT_3D('',#1406,#1151,#1152);
#988=AXIS2_PLACEMENT_3D('',#1407,#1153,#1154);
#989=AXIS2_PLACEMENT_3D('',#1408,#1155,#1156);
#990=AXIS2_PLACEMENT_3D('',#1410,#1157,#1158);
#991=AXIS2_PLACEMENT_3D('',#1411,#1159,#1160);
#992=AXIS2_PLACEMENT_3D('',#1412,#1161,#1162);
#993=AXIS2_PLACEMENT_3D('',#1414,#1163,#1164);
#994=AXIS2_PLACEMENT_3D('',#1415,#1165,#1166);
#995=AXIS2_PLACEMENT_3D('',#1421,#1170,#1171);
#996=AXIS2_PLACEMENT_3D('',#1425,#1174,#1175);
#997=AXIS2_PLACEMENT_3D('',#1429,#1178,#1179);
#998=AXIS2_PLACEMENT_3D('',#1431,#1181,#1182);
#999=AXIS2_PLACEMENT_3D('',#1432,#1183,#1184);
#1000=AXIS2_PLACEMENT_3D('',#1433,#1185,#1186);
#1001=AXIS2_PLACEMENT_3D('',#1442,#1191,#1192);
#1002=AXIS2_PLACEMENT_3D('',#1448,#1196,#1197);
#1003=AXIS2_PLACEMENT_3D('',#1454,#1201,#1202);
#1004=AXIS2_PLACEMENT_3D('',#1457,#1205,#1206);
#1005=AXIS2_PLACEMENT_3D('',#1466,#1211,#1212);
#1006=AXIS2_PLACEMENT_3D('',#1467,#1213,#1214);
#1007=AXIS2_PLACEMENT_3D('',#1469,#1215,#1216);
#1008=AXIS2_PLACEMENT_3D('',#1471,#1217,#1218);
#1009=AXIS2_PLACEMENT_3D('',#1473,#1219,#1220);
#1010=AXIS2_PLACEMENT_3D('',#1475,#1221,#1222);
#1011=AXIS2_PLACEMENT_3D('',#1481,#1226,#1227);
#1012=AXIS2_PLACEMENT_3D('',#1485,#1230,#1231);
#1013=AXIS2_PLACEMENT_3D('',#1489,#1234,#1235);
#1014=AXIS2_PLACEMENT_3D('',#1491,#1237,#1238);
#1015=AXIS2_PLACEMENT_3D('',#1495,#1240,#1241);
#1016=AXIS2_PLACEMENT_3D('',#1504,#1246,#1247);
#1017=AXIS2_PLACEMENT_3D('',#1507,#1249,#1250);
#1018=AXIS2_PLACEMENT_3D('',#1510,#1252,#1253);
#1019=AXIS2_PLACEMENT_3D('',#1512,#1255,#1256);
#1020=AXIS2_PLACEMENT_3D('',#1518,#1260,#1261);
#1021=AXIS2_PLACEMENT_3D('',#1522,#1264,#1265);
#1022=AXIS2_PLACEMENT_3D('',#1526,#1268,#1269);
#1023=AXIS2_PLACEMENT_3D('',#1528,#1271,#1272);
#1024=AXIS2_PLACEMENT_3D('',#1529,#1273,#1274);
#1025=AXIS2_PLACEMENT_3D('',#1530,#1275,#1276);
#1026=AXIS2_PLACEMENT_3D('',#1532,#1277,#1278);
#1027=AXIS2_PLACEMENT_3D('',#1533,#1279,#1280);
#1028=AXIS2_PLACEMENT_3D('',#1534,#1281,#1282);
#1029=AXIS2_PLACEMENT_3D('',#1536,#1283,#1284);
#1030=AXIS2_PLACEMENT_3D('',#1537,#1285,#1286);
#1031=AXIS2_PLACEMENT_3D('',#1538,#1287,#1288);
#1032=AXIS2_PLACEMENT_3D('',#1540,#1289,#1290);
#1033=AXIS2_PLACEMENT_3D('',#1541,#1291,#1292);
#1034=AXIS2_PLACEMENT_3D('',#1542,#1293,#1294);
#1035=AXIS2_PLACEMENT_3D('',#1544,#1295,#1296);
#1036=AXIS2_PLACEMENT_3D('',#1545,#1297,#1298);
#1037=DIRECTION('',(0.,0.,1.));
#1038=DIRECTION('',(1.,0.,0.));
#1039=DIRECTION('',(1.,0.,0.));
#1040=DIRECTION('',(0.,0.,-1.));
#1041=DIRECTION('',(0.,-1.,0.));
#1042=DIRECTION('',(0.,0.,-1.));
#1043=DIRECTION('',(0.,-1.,0.));
#1044=DIRECTION('',(0.,0.,-1.));
#1045=DIRECTION('',(0.,1.,0.));
#1046=DIRECTION('',(0.,0.,1.));
#1047=DIRECTION('',(1.,0.,0.));
#1048=DIRECTION('',(0.,0.,-1.));
#1049=DIRECTION('',(1.,0.,0.));
#1050=DIRECTION('',(-1.,0.,0.));
#1051=DIRECTION('',(0.,0.,1.));
#1052=DIRECTION('',(0.,1.,0.));
#1053=DIRECTION('',(0.,0.,-1.));
#1054=DIRECTION('',(0.,1.,0.));
#1055=DIRECTION('',(0.,-1.,0.));
#1056=DIRECTION('',(0.,0.,-1.));
#1057=DIRECTION('',(-1.,0.,0.));
#1058=DIRECTION('',(-1.,0.,0.));
#1059=DIRECTION('',(0.,0.,1.));
#1060=DIRECTION('',(1.,0.,0.));
#1061=DIRECTION('',(0.,0.,1.));
#1062=DIRECTION('',(1.,0.,0.));
#1063=DIRECTION('',(0.,0.,1.));
#1064=DIRECTION('',(1.,0.,0.));
#1065=DIRECTION('',(0.,0.,1.));
#1066=DIRECTION('',(1.,0.,0.));
#1067=DIRECTION('',(0.,0.,1.));
#1068=DIRECTION('',(1.,0.,0.));
#1069=DIRECTION('',(0.,0.,1.));
#1070=DIRECTION('',(1.,0.,0.));
#1071=DIRECTION('',(0.,0.,-1.));
#1072=DIRECTION('',(-1.,0.,0.));
#1073=DIRECTION('',(0.,0.,1.));
#1074=DIRECTION('',(1.,0.,0.));
#1075=DIRECTION('',(0.,0.,1.));
#1076=DIRECTION('',(1.,0.,0.));
#1077=DIRECTION('',(0.,0.,1.));
#1078=DIRECTION('',(1.,0.,0.));
#1079=DIRECTION('',(0.,0.,1.));
#1080=DIRECTION('',(1.,0.,0.));
#1081=DIRECTION('',(0.,0.,1.));
#1082=DIRECTION('',(1.,0.,0.));
#1083=DIRECTION('',(0.,0.,1.));
#1084=DIRECTION('',(1.,0.,0.));
#1085=DIRECTION('',(0.,0.,1.));
#1086=DIRECTION('',(1.,0.,0.));
#1087=DIRECTION('',(0.,0.,1.));
#1088=DIRECTION('',(1.,0.,0.));
#1089=DIRECTION('',(0.,0.,1.));
#1090=DIRECTION('',(1.,0.,0.));
#1091=DIRECTION('',(0.,0.,1.));
#1092=DIRECTION('',(1.,0.,0.));
#1093=DIRECTION('',(0.,0.,1.));
#1094=DIRECTION('',(1.,0.,0.));
#1095=DIRECTION('',(0.,0.,1.));
#1096=DIRECTION('',(1.,0.,0.));
#1097=DIRECTION('',(0.,0.,-1.));
#1098=DIRECTION('',(-1.,0.,0.));
#1099=DIRECTION('',(0.,0.,-1.));
#1100=DIRECTION('',(-1.,0.,0.));
#1101=DIRECTION('',(0.,0.,-1.));
#1102=DIRECTION('',(1.,0.,0.));
#1103=DIRECTION('',(0.,-1.,0.));
#1104=DIRECTION('',(1.,0.,0.));
#1105=DIRECTION('',(1.,0.,0.));
#1106=DIRECTION('',(0.,0.,-1.));
#1107=DIRECTION('',(0.,-1.,0.));
#1108=DIRECTION('',(0.,0.,-1.));
#1109=DIRECTION('',(0.,-1.,0.));
#1110=DIRECTION('',(0.,0.,-1.));
#1111=DIRECTION('',(0.,1.,0.));
#1112=DIRECTION('',(0.,0.,1.));
#1113=DIRECTION('',(1.,0.,0.));
#1114=DIRECTION('',(0.,0.,-1.));
#1115=DIRECTION('',(1.,0.,0.));
#1116=DIRECTION('',(-1.,0.,0.));
#1117=DIRECTION('',(0.,0.,1.));
#1118=DIRECTION('',(0.,1.,0.));
#1119=DIRECTION('',(0.,0.,-1.));
#1120=DIRECTION('',(0.,1.,0.));
#1121=DIRECTION('',(0.,-1.,0.));
#1122=DIRECTION('',(0.,0.,-1.));
#1123=DIRECTION('',(-1.,0.,0.));
#1124=DIRECTION('',(0.,0.,-1.));
#1125=DIRECTION('',(1.,0.,0.));
#1126=DIRECTION('',(0.,0.,1.));
#1127=DIRECTION('',(-1.,0.,0.));
#1128=DIRECTION('',(-1.,0.,0.));
#1129=DIRECTION('',(0.,0.,1.));
#1130=DIRECTION('',(1.,0.,0.));
#1131=DIRECTION('',(0.,0.,1.));
#1132=DIRECTION('',(1.,0.,0.));
#1133=DIRECTION('',(0.,0.,-1.));
#1134=DIRECTION('',(-1.,0.,0.));
#1135=DIRECTION('',(0.,0.,-1.));
#1136=DIRECTION('',(-1.,0.,0.));
#1137=DIRECTION('',(0.,0.,-1.));
#1138=DIRECTION('',(-1.,0.,0.));
#1139=DIRECTION('',(0.,0.,-1.));
#1140=DIRECTION('',(-1.,0.,0.));
#1141=DIRECTION('',(0.,0.,-1.));
#1142=DIRECTION('',(-1.,0.,0.));
#1143=DIRECTION('',(0.,0.,-1.));
#1144=DIRECTION('',(-1.,0.,0.));
#1145=DIRECTION('',(0.,0.,-1.));
#1146=DIRECTION('',(1.,0.,0.));
#1147=DIRECTION('',(0.,0.,-1.));
#1148=DIRECTION('',(-1.,0.,0.));
#1149=DIRECTION('',(0.,0.,-1.));
#1150=DIRECTION('',(-1.,0.,0.));
#1151=DIRECTION('',(0.,0.,-1.));
#1152=DIRECTION('',(1.,0.,0.));
#1153=DIRECTION('',(0.,0.,-1.));
#1154=DIRECTION('',(-1.,0.,0.));
#1155=DIRECTION('',(0.,0.,-1.));
#1156=DIRECTION('',(-1.,0.,0.));
#1157=DIRECTION('',(0.,0.,-1.));
#1158=DIRECTION('',(1.,0.,0.));
#1159=DIRECTION('',(0.,0.,-1.));
#1160=DIRECTION('',(-1.,0.,0.));
#1161=DIRECTION('',(0.,0.,-1.));
#1162=DIRECTION('',(-1.,0.,0.));
#1163=DIRECTION('',(0.,0.,-1.));
#1164=DIRECTION('',(1.,0.,0.));
#1165=DIRECTION('',(1.,0.,0.));
#1166=DIRECTION('',(0.,0.,-1.));
#1167=DIRECTION('',(0.,1.,0.));
#1168=DIRECTION('',(0.,0.,-1.));
#1169=DIRECTION('',(0.,1.,0.));
#1170=DIRECTION('',(0.,0.,-1.));
#1171=DIRECTION('',(-1.,0.,0.));
#1172=DIRECTION('',(0.,1.,0.));
#1173=DIRECTION('',(-1.,0.,0.));
#1174=DIRECTION('',(-1.,0.,0.));
#1175=DIRECTION('',(0.,0.,1.));
#1176=DIRECTION('',(0.,1.,0.));
#1177=DIRECTION('',(0.,0.,1.));
#1178=DIRECTION('',(0.,0.,1.));
#1179=DIRECTION('',(1.,0.,0.));
#1180=DIRECTION('',(1.,0.,0.));
#1181=DIRECTION('',(0.,1.,0.));
#1182=DIRECTION('',(-1.,0.,0.));
#1183=DIRECTION('',(0.,0.,-1.));
#1184=DIRECTION('',(1.,-1.11022302462516E-16,0.));
#1185=DIRECTION('',(1.,0.,0.));
#1186=DIRECTION('',(0.,0.,-1.));
#1187=DIRECTION('',(0.,-1.,0.));
#1188=DIRECTION('',(0.,0.,-1.));
#1189=DIRECTION('',(0.,-1.,0.));
#1190=DIRECTION('',(0.,0.,-1.));
#1191=DIRECTION('',(0.,1.,0.));
#1192=DIRECTION('',(0.,0.,1.));
#1193=DIRECTION('',(1.,0.,0.));
#1194=DIRECTION('',(0.,0.,-1.));
#1195=DIRECTION('',(1.,0.,0.));
#1196=DIRECTION('',(-1.,0.,0.));
#1197=DIRECTION('',(0.,0.,1.));
#1198=DIRECTION('',(0.,1.,0.));
#1199=DIRECTION('',(0.,0.,-1.));
#1200=DIRECTION('',(0.,1.,0.));
#1201=DIRECTION('',(0.,-1.,0.));
#1202=DIRECTION('',(0.,0.,-1.));
#1203=DIRECTION('',(-1.,0.,0.));
#1204=DIRECTION('',(-1.,0.,0.));
#1205=DIRECTION('',(0.,0.,1.));
#1206=DIRECTION('',(1.,0.,0.));
#1207=DIRECTION('',(0.,-1.,0.));
#1208=DIRECTION('',(-1.,0.,0.));
#1209=DIRECTION('',(0.,1.,0.));
#1210=DIRECTION('',(1.,0.,0.));
#1211=DIRECTION('',(0.,0.,1.));
#1212=DIRECTION('',(1.,0.,0.));
#1213=DIRECTION('',(0.,0.,-1.));
#1214=DIRECTION('',(-1.,0.,0.));
#1215=DIRECTION('',(0.,0.,-1.));
#1216=DIRECTION('',(-1.,0.,0.));
#1217=DIRECTION('',(0.,0.,-1.));
#1218=DIRECTION('',(-1.,0.,0.));
#1219=DIRECTION('',(0.,0.,-1.));
#1220=DIRECTION('',(-1.,0.,0.));
#1221=DIRECTION('',(1.,0.,0.));
#1222=DIRECTION('',(0.,0.,-1.));
#1223=DIRECTION('',(0.,0.,-1.));
#1224=DIRECTION('',(0.,-1.,0.));
#1225=DIRECTION('',(0.,0.,-1.));
#1226=DIRECTION('',(0.,1.,0.));
#1227=DIRECTION('',(0.,0.,1.));
#1228=DIRECTION('',(0.,0.,-1.));
#1229=DIRECTION('',(1.,0.,0.));
#1230=DIRECTION('',(-1.,0.,0.));
#1231=DIRECTION('',(0.,0.,1.));
#1232=DIRECTION('',(0.,0.,-1.));
#1233=DIRECTION('',(0.,1.,0.));
#1234=DIRECTION('',(0.,-1.,0.));
#1235=DIRECTION('',(0.,0.,-1.));
#1236=DIRECTION('',(-1.,0.,0.));
#1237=DIRECTION('',(0.,0.,1.));
#1238=DIRECTION('',(1.,0.,0.));
#1239=DIRECTION('',(0.,1.,0.));
#1240=DIRECTION('',(0.,0.,1.));
#1241=DIRECTION('',(1.,0.,0.));
#1242=DIRECTION('',(0.,1.,0.));
#1243=DIRECTION('',(1.,0.,0.));
#1244=DIRECTION('',(0.,-1.,0.));
#1245=DIRECTION('',(-1.,0.,0.));
#1246=DIRECTION('',(0.,0.,1.));
#1247=DIRECTION('',(1.,0.,0.));
#1248=DIRECTION('',(0.,0.,1.));
#1249=DIRECTION('',(0.,0.,1.));
#1250=DIRECTION('',(1.,0.,0.));
#1251=DIRECTION('',(0.,0.,1.));
#1252=DIRECTION('',(0.,0.,1.));
#1253=DIRECTION('',(1.,0.,0.));
#1254=DIRECTION('',(0.,1.,0.));
#1255=DIRECTION('',(1.,0.,0.));
#1256=DIRECTION('',(0.,0.,-1.));
#1257=DIRECTION('',(0.,0.,1.));
#1258=DIRECTION('',(0.,1.,0.));
#1259=DIRECTION('',(0.,0.,1.));
#1260=DIRECTION('',(0.,-1.,0.));
#1261=DIRECTION('',(0.,0.,-1.));
#1262=DIRECTION('',(1.,0.,0.));
#1263=DIRECTION('',(0.,0.,1.));
#1264=DIRECTION('',(0.,1.,0.));
#1265=DIRECTION('',(0.,0.,1.));
#1266=DIRECTION('',(0.,0.,1.));
#1267=DIRECTION('',(-1.,0.,0.));
#1268=DIRECTION('',(-1.,0.,0.));
#1269=DIRECTION('',(0.,0.,1.));
#1270=DIRECTION('',(0.,-1.,0.));
#1271=DIRECTION('',(0.,0.,1.));
#1272=DIRECTION('',(1.,0.,0.));
#1273=DIRECTION('',(0.,0.,-1.));
#1274=DIRECTION('',(-1.,0.,0.));
#1275=DIRECTION('',(0.,0.,-1.));
#1276=DIRECTION('',(-1.,0.,0.));
#1277=DIRECTION('',(0.,0.,-1.));
#1278=DIRECTION('',(1.,0.,0.));
#1279=DIRECTION('',(0.,0.,-1.));
#1280=DIRECTION('',(-1.,0.,0.));
#1281=DIRECTION('',(0.,0.,-1.));
#1282=DIRECTION('',(-1.,0.,0.));
#1283=DIRECTION('',(0.,0.,-1.));
#1284=DIRECTION('',(1.,0.,0.));
#1285=DIRECTION('',(0.,0.,-1.));
#1286=DIRECTION('',(-1.,0.,0.));
#1287=DIRECTION('',(0.,0.,-1.));
#1288=DIRECTION('',(-1.,0.,0.));
#1289=DIRECTION('',(0.,0.,-1.));
#1290=DIRECTION('',(1.,0.,0.));
#1291=DIRECTION('',(0.,0.,-1.));
#1292=DIRECTION('',(-1.,0.,0.));
#1293=DIRECTION('',(0.,0.,-1.));
#1294=DIRECTION('',(-1.,0.,0.));
#1295=DIRECTION('',(0.,0.,-1.));
#1296=DIRECTION('',(1.,0.,0.));
#1297=DIRECTION('',(0.,0.,1.));
#1298=DIRECTION('',(1.,0.,0.));
#1299=CARTESIAN_POINT('',(0.,0.,0.));
#1300=CARTESIAN_POINT('',(-0.011,0.,0.134));
#1301=CARTESIAN_POINT('',(-0.011,0.,0.));
#1302=CARTESIAN_POINT('',(-0.011,0.01,0.));
#1303=CARTESIAN_POINT('',(-0.011,-0.01,0.));
#1304=CARTESIAN_POINT('',(-0.011,-0.01,0.134));
#1305=CARTESIAN_POINT('',(-0.011,-0.01,0.134));
#1306=CARTESIAN_POINT('',(-0.011,0.,0.134));
#1307=CARTESIAN_POINT('',(-0.011,0.01,0.134));
#1308=CARTESIAN_POINT('',(-0.011,0.01,0.134));
#1309=CARTESIAN_POINT('',(0.,-0.01,0.134));
#1310=CARTESIAN_POINT('',(0.,-0.01,0.));
#1311=CARTESIAN_POINT('',(0.011,-0.01,0.));
#1312=CARTESIAN_POINT('',(0.011,-0.01,0.134));
#1313=CARTESIAN_POINT('',(0.011,-0.01,0.134));
#1314=CARTESIAN_POINT('',(0.,-0.01,0.134));
#1315=CARTESIAN_POINT('',(0.011,0.,0.134));
#1316=CARTESIAN_POINT('',(0.011,0.,0.));
#1317=CARTESIAN_POINT('',(0.011,0.01,0.));
#1318=CARTESIAN_POINT('',(0.011,0.01,0.134));
#1319=CARTESIAN_POINT('',(0.011,0.01,0.134));
#1320=CARTESIAN_POINT('',(0.011,0.,0.134));
#1321=CARTESIAN_POINT('',(0.,0.01,0.134));
#1322=CARTESIAN_POINT('',(0.,0.01,0.));
#1323=CARTESIAN_POINT('',(0.,0.01,0.134));
#1324=CARTESIAN_POINT('',(0.,0.,0.134));
#1325=CARTESIAN_POINT('',(0.00495,-0.00495,0.134));
#1326=CARTESIAN_POINT('',(0.0064,-0.00495,0.134));
#1327=CARTESIAN_POINT('',(-0.00495,0.00495,0.134));
#1328=CARTESIAN_POINT('',(-0.0035,0.00495,0.134));
#1329=CARTESIAN_POINT('',(-0.00495,-0.00495,0.134));
#1330=CARTESIAN_POINT('',(-0.0035,-0.00495,0.134));
#1331=CARTESIAN_POINT('',(0.00495,0.00495,0.134));
#1332=CARTESIAN_POINT('',(0.0064,0.00495,0.134));
#1333=CARTESIAN_POINT('',(0.,0.,0.));
#1334=CARTESIAN_POINT('',(0.,-1.22464679914735E-19,0.));
#1335=CARTESIAN_POINT('',(-0.002,-1.22464679914735E-19,0.));
#1336=CARTESIAN_POINT('',(0.00495,0.00495,0.129));
#1337=CARTESIAN_POINT('',(0.00495,0.00495,0.129));
#1338=CARTESIAN_POINT('',(0.0064,0.00495,0.129));
#1339=CARTESIAN_POINT('',(0.,0.,0.129));
#1340=CARTESIAN_POINT('',(-0.00495,-0.00495,0.129));
#1341=CARTESIAN_POINT('',(-0.00495,-0.00495,0.129));
#1342=CARTESIAN_POINT('',(-0.0035,-0.00495,0.129));
#1343=CARTESIAN_POINT('',(0.,0.,0.129));
#1344=CARTESIAN_POINT('',(-0.00495,0.00495,0.129));
#1345=CARTESIAN_POINT('',(-0.00495,0.00495,0.129));
#1346=CARTESIAN_POINT('',(-0.0035,0.00495,0.129));
#1347=CARTESIAN_POINT('',(0.,0.,0.129));
#1348=CARTESIAN_POINT('',(0.00495,-0.00495,0.129));
#1349=CARTESIAN_POINT('',(0.00495,-0.00495,0.129));
#1350=CARTESIAN_POINT('',(0.0064,-0.00495,0.129));
#1351=CARTESIAN_POINT('',(0.,0.,0.129));
#1352=CARTESIAN_POINT('',(0.,-1.22464679914735E-19,0.008));
#1353=CARTESIAN_POINT('',(0.,-1.22464679914735E-19,0.008));
#1354=CARTESIAN_POINT('',(-0.002,-1.22464679914735E-19,0.008));
#1355=CARTESIAN_POINT('',(0.,0.,0.008));
#1356=CARTESIAN_POINT('',(0.0123732608147058,0.114,-0.123549629688459));
#1357=CARTESIAN_POINT('',(-0.015,0.,0.19));
#1358=CARTESIAN_POINT('',(-0.015,0.,0.));
#1359=CARTESIAN_POINT('',(-0.015,0.02,0.));
#1360=CARTESIAN_POINT('',(-0.015,-0.02,0.));
#1361=CARTESIAN_POINT('',(-0.015,-0.02,0.19));
#1362=CARTESIAN_POINT('',(-0.015,-0.02,0.19));
#1363=CARTESIAN_POINT('',(-0.015,0.,0.19));
#1364=CARTESIAN_POINT('',(-0.015,0.02,0.19));
#1365=CARTESIAN_POINT('',(-0.015,0.02,0.19));
#1366=CARTESIAN_POINT('',(0.,-0.02,0.19));
#1367=CARTESIAN_POINT('',(0.,-0.02,0.));
#1368=CARTESIAN_POINT('',(0.015,-0.02,0.));
#1369=CARTESIAN_POINT('',(0.015,-0.02,0.19));
#1370=CARTESIAN_POINT('',(0.015,-0.02,0.19));
#1371=CARTESIAN_POINT('',(0.,-0.02,0.19));
#1372=CARTESIAN_POINT('',(0.015,0.,0.19));
#1373=CARTESIAN_POINT('',(0.015,0.,0.));
#1374=CARTESIAN_POINT('',(0.015,0.02,0.));
#1375=CARTESIAN_POINT('',(0.015,0.02,0.19));
#1376=CARTESIAN_POINT('',(0.015,0.02,0.19));
#1377=CARTESIAN_POINT('',(0.015,0.,0.19));
#1378=CARTESIAN_POINT('',(0.,0.02,0.19));
#1379=CARTESIAN_POINT('',(0.,0.02,0.1435));
#1380=CARTESIAN_POINT('',(0.012525,0.02,0.1435));
#1381=CARTESIAN_POINT('',(-0.012525,0.02,0.1435));
#1382=CARTESIAN_POINT('',(0.012525,0.02,0.166325));
#1383=CARTESIAN_POINT('',(0.012525,0.02,0.18915));
#1384=CARTESIAN_POINT('',(0.,0.02,0.18915));
#1385=CARTESIAN_POINT('',(-0.012525,0.02,0.18915));
#1386=CARTESIAN_POINT('',(-0.012525,0.02,0.166325));
#1387=CARTESIAN_POINT('',(0.,0.02,0.));
#1388=CARTESIAN_POINT('',(0.,0.02,0.19));
#1389=CARTESIAN_POINT('',(0.,0.,0.19));
#1390=CARTESIAN_POINT('',(0.,0.,0.));
#1391=CARTESIAN_POINT('',(0.00495,0.00495,0.));
#1392=CARTESIAN_POINT('',(0.0035,0.00495,0.));
#1393=CARTESIAN_POINT('',(-0.00495,-0.00495,0.));
#1394=CARTESIAN_POINT('',(-0.0064,-0.00495,0.));
#1395=CARTESIAN_POINT('',(-0.00495,0.00495,0.));
#1396=CARTESIAN_POINT('',(-0.0064,0.00495,0.));
#1397=CARTESIAN_POINT('',(0.00495,-0.00495,0.));
#1398=CARTESIAN_POINT('',(0.0035,-0.00495,0.));
#1399=CARTESIAN_POINT('',(0.00495,-0.00495,0.005));
#1400=CARTESIAN_POINT('',(0.00495,-0.00495,0.005));
#1401=CARTESIAN_POINT('',(0.0035,-0.00495,0.005));
#1402=CARTESIAN_POINT('',(0.,0.,0.005));
#1403=CARTESIAN_POINT('',(-0.00495,0.00495,0.005));
#1404=CARTESIAN_POINT('',(-0.00495,0.00495,0.005));
#1405=CARTESIAN_POINT('',(-0.0064,0.00495,0.005));
#1406=CARTESIAN_POINT('',(0.,0.,0.005));
#1407=CARTESIAN_POINT('',(-0.00495,-0.00495,0.005));
#1408=CARTESIAN_POINT('',(-0.00495,-0.00495,0.005));
#1409=CARTESIAN_POINT('',(-0.0064,-0.00495,0.005));
#1410=CARTESIAN_POINT('',(0.,0.,0.005));
#1411=CARTESIAN_POINT('',(0.00495,0.00495,0.005));
#1412=CARTESIAN_POINT('',(0.00495,0.00495,0.005));
#1413=CARTESIAN_POINT('',(0.0035,0.00495,0.005));
#1414=CARTESIAN_POINT('',(0.,0.,0.005));
#1415=CARTESIAN_POINT('',(0.012525,-0.01455,0.166325));
#1416=CARTESIAN_POINT('',(0.012525,-0.01455,0.1435));
#1417=CARTESIAN_POINT('',(0.012525,-0.01455,0.1435));
#1418=CARTESIAN_POINT('',(0.012525,-0.01455,0.166325));
#1419=CARTESIAN_POINT('',(0.012525,-0.01455,0.18915));
#1420=CARTESIAN_POINT('',(0.012525,-0.01455,0.18915));
#1421=CARTESIAN_POINT('',(0.,-0.01455,0.1435));
#1422=CARTESIAN_POINT('',(-0.012525,-0.01455,0.1435));
#1423=CARTESIAN_POINT('',(-0.012525,-0.01455,0.1435));
#1424=CARTESIAN_POINT('',(0.,-0.01455,0.1435));
#1425=CARTESIAN_POINT('',(-0.012525,-0.01455,0.166325));
#1426=CARTESIAN_POINT('',(-0.012525,-0.01455,0.18915));
#1427=CARTESIAN_POINT('',(-0.012525,-0.01455,0.18915));
#1428=CARTESIAN_POINT('',(-0.012525,-0.01455,0.166325));
#1429=CARTESIAN_POINT('',(0.,-0.01455,0.18915));
#1430=CARTESIAN_POINT('',(0.,-0.01455,0.18915));
#1431=CARTESIAN_POINT('',(0.,-0.01455,0.095));
#1432=CARTESIAN_POINT('',(0.0123732608147058,6.76366813940064E-19,0.04255));
#1433=CARTESIAN_POINT('',(-0.031825,0.,0.006));
#1434=CARTESIAN_POINT('',(-0.031825,0.,0.));
#1435=CARTESIAN_POINT('',(-0.031825,0.021525,0.));
#1436=CARTESIAN_POINT('',(-0.031825,-0.021525,0.));
#1437=CARTESIAN_POINT('',(-0.031825,-0.021525,0.006));
#1438=CARTESIAN_POINT('',(-0.031825,-0.021525,0.006));
#1439=CARTESIAN_POINT('',(-0.031825,0.,0.006));
#1440=CARTESIAN_POINT('',(-0.031825,0.021525,0.006));
#1441=CARTESIAN_POINT('',(-0.031825,0.021525,0.006));
#1442=CARTESIAN_POINT('',(0.,-0.021525,0.006));
#1443=CARTESIAN_POINT('',(0.,-0.021525,0.));
#1444=CARTESIAN_POINT('',(0.031825,-0.021525,0.));
#1445=CARTESIAN_POINT('',(0.031825,-0.021525,0.006));
#1446=CARTESIAN_POINT('',(0.031825,-0.021525,0.006));
#1447=CARTESIAN_POINT('',(0.,-0.021525,0.006));
#1448=CARTESIAN_POINT('',(0.031825,0.,0.006));
#1449=CARTESIAN_POINT('',(0.031825,0.,0.));
#1450=CARTESIAN_POINT('',(0.031825,0.021525,0.));
#1451=CARTESIAN_POINT('',(0.031825,0.021525,0.006));
#1452=CARTESIAN_POINT('',(0.031825,0.021525,0.006));
#1453=CARTESIAN_POINT('',(0.031825,0.,0.006));
#1454=CARTESIAN_POINT('',(0.,0.021525,0.006));
#1455=CARTESIAN_POINT('',(0.,0.021525,0.));
#1456=CARTESIAN_POINT('',(0.,0.021525,0.006));
#1457=CARTESIAN_POINT('',(0.,0.,0.006));
#1458=CARTESIAN_POINT('',(-0.026825,0.,0.006));
#1459=CARTESIAN_POINT('',(-0.026825,0.016525,0.006));
#1460=CARTESIAN_POINT('',(-0.026825,-0.016525,0.006));
#1461=CARTESIAN_POINT('',(0.,0.016525,0.006));
#1462=CARTESIAN_POINT('',(0.026825,0.016525,0.006));
#1463=CARTESIAN_POINT('',(0.026825,0.,0.006));
#1464=CARTESIAN_POINT('',(0.026825,-0.016525,0.006));
#1465=CARTESIAN_POINT('',(0.,-0.016525,0.006));
#1466=CARTESIAN_POINT('',(0.,0.,0.));
#1467=CARTESIAN_POINT('',(-0.015,-0.015,0.));
#1468=CARTESIAN_POINT('',(-0.017,-0.015,0.));
#1469=CARTESIAN_POINT('',(0.015,0.015,0.));
#1470=CARTESIAN_POINT('',(0.013,0.015,0.));
#1471=CARTESIAN_POINT('',(-0.015,0.015,0.));
#1472=CARTESIAN_POINT('',(-0.017,0.015,0.));
#1473=CARTESIAN_POINT('',(0.015,-0.015,0.));
#1474=CARTESIAN_POINT('',(0.013,-0.015,0.));
#1475=CARTESIAN_POINT('',(-0.026825,0.,0.04255));
#1476=CARTESIAN_POINT('',(-0.026825,-0.016525,0.04255));
#1477=CARTESIAN_POINT('',(-0.026825,-0.016525,0.04255));
#1478=CARTESIAN_POINT('',(-0.026825,0.,0.04255));
#1479=CARTESIAN_POINT('',(-0.026825,0.016525,0.04255));
#1480=CARTESIAN_POINT('',(-0.026825,0.016525,0.04255));
#1481=CARTESIAN_POINT('',(0.,-0.016525,0.04255));
#1482=CARTESIAN_POINT('',(0.026825,-0.016525,0.04255));
#1483=CARTESIAN_POINT('',(0.026825,-0.016525,0.04255));
#1484=CARTESIAN_POINT('',(0.,-0.016525,0.04255));
#1485=CARTESIAN_POINT('',(0.026825,0.,0.04255));
#1486=CARTESIAN_POINT('',(0.026825,0.016525,0.04255));
#1487=CARTESIAN_POINT('',(0.026825,0.016525,0.04255));
#1488=CARTESIAN_POINT('',(0.026825,0.,0.04255));
#1489=CARTESIAN_POINT('',(0.,0.016525,0.04255));
#1490=CARTESIAN_POINT('',(0.,0.016525,0.04255));
#1491=CARTESIAN_POINT('',(0.,0.,0.04255));
#1492=CARTESIAN_POINT('',(0.022825,0.,0.04255));
#1493=CARTESIAN_POINT('',(0.022825,0.00379399196098253,0.04255));
#1494=CARTESIAN_POINT('',(0.022825,0.012525,0.04255));
#1495=CARTESIAN_POINT('',(0.0125,6.73555739531044E-19,0.04255));
#1496=CARTESIAN_POINT('',(0.022825,-0.00379399196098252,0.04255));
#1497=CARTESIAN_POINT('',(0.022825,0.,0.04255));
#1498=CARTESIAN_POINT('',(0.022825,-0.012525,0.04255));
#1499=CARTESIAN_POINT('',(0.,-0.012525,0.04255));
#1500=CARTESIAN_POINT('',(-0.022825,-0.012525,0.04255));
#1501=CARTESIAN_POINT('',(-0.022825,0.,0.04255));
#1502=CARTESIAN_POINT('',(-0.022825,0.012525,0.04255));
#1503=CARTESIAN_POINT('',(0.,0.012525,0.04255));
#1504=CARTESIAN_POINT('',(0.0125,6.73555739531044E-19,0.03955));
#1505=CARTESIAN_POINT('',(0.022825,0.00379399196098253,0.03955));
#1506=CARTESIAN_POINT('',(0.022825,0.00379399196098253,0.03955));
#1507=CARTESIAN_POINT('',(0.0125,6.73555739531044E-19,0.03955));
#1508=CARTESIAN_POINT('',(0.022825,-0.00379399196098252,0.03955));
#1509=CARTESIAN_POINT('',(0.022825,-0.00379399196098252,0.03955));
#1510=CARTESIAN_POINT('',(0.,0.,0.03955));
#1511=CARTESIAN_POINT('',(0.022825,0.,0.03955));
#1512=CARTESIAN_POINT('',(0.022825,0.,0.008));
#1513=CARTESIAN_POINT('',(0.022825,0.012525,0.008));
#1514=CARTESIAN_POINT('',(0.022825,0.012525,0.008));
#1515=CARTESIAN_POINT('',(0.022825,0.,0.008));
#1516=CARTESIAN_POINT('',(0.022825,-0.012525,0.008));
#1517=CARTESIAN_POINT('',(0.022825,-0.012525,0.008));
#1518=CARTESIAN_POINT('',(0.,-0.012525,0.008));
#1519=CARTESIAN_POINT('',(0.,-0.012525,0.008));
#1520=CARTESIAN_POINT('',(-0.022825,-0.012525,0.008));
#1521=CARTESIAN_POINT('',(-0.022825,-0.012525,0.008));
#1522=CARTESIAN_POINT('',(0.,0.012525,0.008));
#1523=CARTESIAN_POINT('',(-0.022825,0.012525,0.008));
#1524=CARTESIAN_POINT('',(-0.022825,0.012525,0.008));
#1525=CARTESIAN_POINT('',(0.,0.012525,0.008));
#1526=CARTESIAN_POINT('',(-0.022825,0.,0.008));
#1527=CARTESIAN_POINT('',(-0.022825,0.,0.008));
#1528=CARTESIAN_POINT('',(0.,0.,0.008));
#1529=CARTESIAN_POINT('',(0.015,-0.015,0.0057));
#1530=CARTESIAN_POINT('',(0.015,-0.015,0.0057));
#1531=CARTESIAN_POINT('',(0.013,-0.015,0.0057));
#1532=CARTESIAN_POINT('',(0.,0.,0.0057));
#1533=CARTESIAN_POINT('',(-0.015,0.015,0.0057));
#1534=CARTESIAN_POINT('',(-0.015,0.015,0.0057));
#1535=CARTESIAN_POINT('',(-0.017,0.015,0.0057));
#1536=CARTESIAN_POINT('',(0.,0.,0.0057));
#1537=CARTESIAN_POINT('',(0.015,0.015,0.0057));
#1538=CARTESIAN_POINT('',(0.015,0.015,0.0057));
#1539=CARTESIAN_POINT('',(0.013,0.015,0.0057));
#1540=CARTESIAN_POINT('',(0.,0.,0.0057));
#1541=CARTESIAN_POINT('',(-0.015,-0.015,0.0057));
#1542=CARTESIAN_POINT('',(-0.015,-0.015,0.0057));
#1543=CARTESIAN_POINT('',(-0.017,-0.015,0.0057));
#1544=CARTESIAN_POINT('',(0.,0.,0.0057));
#1545=CARTESIAN_POINT('',(0.,0.,0.));
#1546=MECHANICAL_DESIGN_GEOMETRIC_PRESENTATION_REPRESENTATION('',(#911,
#912,#913),#1547);
#1547=(
GEOMETRIC_REPRESENTATION_CONTEXT(3)
GLOBAL_UNCERTAINTY_ASSIGNED_CONTEXT((#1551))
GLOBAL_UNIT_ASSIGNED_CONTEXT((#1557,#1556,#1555))
REPRESENTATION_CONTEXT('Leg-V2-Assembly','TOP_LEVEL_ASSEMBLY_PART')
);
#1548=(
GEOMETRIC_REPRESENTATION_CONTEXT(3)
GLOBAL_UNCERTAINTY_ASSIGNED_CONTEXT((#1552))
GLOBAL_UNIT_ASSIGNED_CONTEXT((#1557,#1556,#1555))
REPRESENTATION_CONTEXT('Part 1','COMPONENT_PART')
);
#1549=(
GEOMETRIC_REPRESENTATION_CONTEXT(3)
GLOBAL_UNCERTAINTY_ASSIGNED_CONTEXT((#1553))
GLOBAL_UNIT_ASSIGNED_CONTEXT((#1557,#1556,#1555))
REPRESENTATION_CONTEXT('Part 1','COMPONENT_PART')
);
#1550=(
GEOMETRIC_REPRESENTATION_CONTEXT(3)
GLOBAL_UNCERTAINTY_ASSIGNED_CONTEXT((#1554))
GLOBAL_UNIT_ASSIGNED_CONTEXT((#1557,#1556,#1555))
REPRESENTATION_CONTEXT('Part 1','COMPONENT_PART')
);
#1551=UNCERTAINTY_MEASURE_WITH_UNIT(LENGTH_MEASURE(1.E-8),#1557,
'DISTANCE_ACCURACY_VALUE','Maximum Tolerance applied to model');
#1552=UNCERTAINTY_MEASURE_WITH_UNIT(LENGTH_MEASURE(1.E-8),#1557,
'DISTANCE_ACCURACY_VALUE','Maximum Tolerance applied to model');
#1553=UNCERTAINTY_MEASURE_WITH_UNIT(LENGTH_MEASURE(1.E-8),#1557,
'DISTANCE_ACCURACY_VALUE','Maximum Tolerance applied to model');
#1554=UNCERTAINTY_MEASURE_WITH_UNIT(LENGTH_MEASURE(1.E-8),#1557,
'DISTANCE_ACCURACY_VALUE','Maximum Tolerance applied to model');
#1555=(
NAMED_UNIT(*)
SI_UNIT($,.STERADIAN.)
SOLID_ANGLE_UNIT()
);
#1556=(
NAMED_UNIT(*)
PLANE_ANGLE_UNIT()
SI_UNIT($,.RADIAN.)
);
#1557=(
LENGTH_UNIT()
NAMED_UNIT(*)
SI_UNIT($,.METRE.)
);
#1558=PRODUCT_DEFINITION_SHAPE('','',#1565);
#1559=PRODUCT_DEFINITION_SHAPE('','',#1566);
#1560=PRODUCT_DEFINITION_SHAPE(' ','NAUO PRDDFN',#21);
#1561=PRODUCT_DEFINITION_SHAPE('','',#1567);
#1562=PRODUCT_DEFINITION_SHAPE(' ','NAUO PRDDFN',#22);
#1563=PRODUCT_DEFINITION_SHAPE('','',#1568);
#1564=PRODUCT_DEFINITION_SHAPE(' ','NAUO PRDDFN',#23);
#1565=PRODUCT_DEFINITION('','',#1573,#1569);
#1566=PRODUCT_DEFINITION('','',#1574,#1570);
#1567=PRODUCT_DEFINITION('','',#1575,#1571);
#1568=PRODUCT_DEFINITION('','',#1576,#1572);
#1569=PRODUCT_DEFINITION_CONTEXT('',#1594,'design');
#1570=PRODUCT_DEFINITION_CONTEXT('',#1594,'design');
#1571=PRODUCT_DEFINITION_CONTEXT('',#1594,'design');
#1572=PRODUCT_DEFINITION_CONTEXT('',#1594,'design');
#1573=PRODUCT_DEFINITION_FORMATION_WITH_SPECIFIED_SOURCE('','',#1581,
 .NOT_KNOWN.);
#1574=PRODUCT_DEFINITION_FORMATION_WITH_SPECIFIED_SOURCE('','',#1582,
 .NOT_KNOWN.);
#1575=PRODUCT_DEFINITION_FORMATION_WITH_SPECIFIED_SOURCE('','',#1583,
 .NOT_KNOWN.);
#1576=PRODUCT_DEFINITION_FORMATION_WITH_SPECIFIED_SOURCE('','',#1584,
 .NOT_KNOWN.);
#1577=PRODUCT_RELATED_PRODUCT_CATEGORY('','',(#1581));
#1578=PRODUCT_RELATED_PRODUCT_CATEGORY('','',(#1582));
#1579=PRODUCT_RELATED_PRODUCT_CATEGORY('','',(#1583));
#1580=PRODUCT_RELATED_PRODUCT_CATEGORY('','',(#1584));
#1581=PRODUCT('Leg-V2-Assembly','Leg-V2-Assembly','Leg-V2-Assembly',(#1589));
#1582=PRODUCT('Part 1','Part 1','Part 1',(#1590));
#1583=PRODUCT('Part 1','Part 1','Part 1',(#1591));
#1584=PRODUCT('Part 1','Part 1','Part 1',(#1592));
#1585=PRODUCT_CATEGORY('','');
#1586=PRODUCT_CATEGORY('','');
#1587=PRODUCT_CATEGORY('','');
#1588=PRODUCT_CATEGORY('','');
#1589=PRODUCT_CONTEXT('',#1594,'mechanical');
#1590=PRODUCT_CONTEXT('',#1594,'mechanical');
#1591=PRODUCT_CONTEXT('',#1594,'mechanical');
#1592=PRODUCT_CONTEXT('',#1594,'mechanical');
#1593=APPLICATION_PROTOCOL_DEFINITION('international standard',
'automotive_design',2010,#1594);
#1594=APPLICATION_CONTEXT(
'core data for automotive mechanical design processes');
ENDSEC;
END-ISO-10303-21;
