%TF.GenerationSoftware,KiCad,Pcbnew,9.0.5*%
%TF.CreationDate,2026-06-14T11:39:57-07:00*%
%TF.ProjectId,nova_pcb_v6_logic,6e6f7661-5f70-4636-925f-76365f6c6f67,rev?*%
%TF.SameCoordinates,Original*%
%TF.FileFunction,Legend,Top*%
%TF.FilePolarity,Positive*%
%FSLAX46Y46*%
G04 Gerber Fmt 4.6, Leading zero omitted, Abs format (unit mm)*
G04 Created by KiCad (PCBNEW 9.0.5) date 2026-06-14 11:39:57*
%MOMM*%
%LPD*%
G01*
G04 APERTURE LIST*
%ADD10C,0.150000*%
%ADD11C,0.120000*%
%ADD12C,0.600000*%
G04 APERTURE END LIST*
D10*
X147704819Y-129559523D02*
X148419104Y-129559523D01*
X148419104Y-129559523D02*
X148561961Y-129607142D01*
X148561961Y-129607142D02*
X148657200Y-129702380D01*
X148657200Y-129702380D02*
X148704819Y-129845237D01*
X148704819Y-129845237D02*
X148704819Y-129940475D01*
X147800057Y-129130951D02*
X147752438Y-129083332D01*
X147752438Y-129083332D02*
X147704819Y-128988094D01*
X147704819Y-128988094D02*
X147704819Y-128749999D01*
X147704819Y-128749999D02*
X147752438Y-128654761D01*
X147752438Y-128654761D02*
X147800057Y-128607142D01*
X147800057Y-128607142D02*
X147895295Y-128559523D01*
X147895295Y-128559523D02*
X147990533Y-128559523D01*
X147990533Y-128559523D02*
X148133390Y-128607142D01*
X148133390Y-128607142D02*
X148704819Y-129178570D01*
X148704819Y-129178570D02*
X148704819Y-128559523D01*
X147704819Y-127940475D02*
X147704819Y-127845237D01*
X147704819Y-127845237D02*
X147752438Y-127749999D01*
X147752438Y-127749999D02*
X147800057Y-127702380D01*
X147800057Y-127702380D02*
X147895295Y-127654761D01*
X147895295Y-127654761D02*
X148085771Y-127607142D01*
X148085771Y-127607142D02*
X148323866Y-127607142D01*
X148323866Y-127607142D02*
X148514342Y-127654761D01*
X148514342Y-127654761D02*
X148609580Y-127702380D01*
X148609580Y-127702380D02*
X148657200Y-127749999D01*
X148657200Y-127749999D02*
X148704819Y-127845237D01*
X148704819Y-127845237D02*
X148704819Y-127940475D01*
X148704819Y-127940475D02*
X148657200Y-128035713D01*
X148657200Y-128035713D02*
X148609580Y-128083332D01*
X148609580Y-128083332D02*
X148514342Y-128130951D01*
X148514342Y-128130951D02*
X148323866Y-128178570D01*
X148323866Y-128178570D02*
X148085771Y-128178570D01*
X148085771Y-128178570D02*
X147895295Y-128130951D01*
X147895295Y-128130951D02*
X147800057Y-128083332D01*
X147800057Y-128083332D02*
X147752438Y-128035713D01*
X147752438Y-128035713D02*
X147704819Y-127940475D01*
X163690476Y-100904819D02*
X163690476Y-101619104D01*
X163690476Y-101619104D02*
X163642857Y-101761961D01*
X163642857Y-101761961D02*
X163547619Y-101857200D01*
X163547619Y-101857200D02*
X163404762Y-101904819D01*
X163404762Y-101904819D02*
X163309524Y-101904819D01*
X164690476Y-101904819D02*
X164119048Y-101904819D01*
X164404762Y-101904819D02*
X164404762Y-100904819D01*
X164404762Y-100904819D02*
X164309524Y-101047676D01*
X164309524Y-101047676D02*
X164214286Y-101142914D01*
X164214286Y-101142914D02*
X164119048Y-101190533D01*
X165642857Y-101904819D02*
X165071429Y-101904819D01*
X165357143Y-101904819D02*
X165357143Y-100904819D01*
X165357143Y-100904819D02*
X165261905Y-101047676D01*
X165261905Y-101047676D02*
X165166667Y-101142914D01*
X165166667Y-101142914D02*
X165071429Y-101190533D01*
X175190476Y-92074819D02*
X175190476Y-92789104D01*
X175190476Y-92789104D02*
X175142857Y-92931961D01*
X175142857Y-92931961D02*
X175047619Y-93027200D01*
X175047619Y-93027200D02*
X174904762Y-93074819D01*
X174904762Y-93074819D02*
X174809524Y-93074819D01*
X176190476Y-93074819D02*
X175619048Y-93074819D01*
X175904762Y-93074819D02*
X175904762Y-92074819D01*
X175904762Y-92074819D02*
X175809524Y-92217676D01*
X175809524Y-92217676D02*
X175714286Y-92312914D01*
X175714286Y-92312914D02*
X175619048Y-92360533D01*
X176809524Y-92074819D02*
X176904762Y-92074819D01*
X176904762Y-92074819D02*
X177000000Y-92122438D01*
X177000000Y-92122438D02*
X177047619Y-92170057D01*
X177047619Y-92170057D02*
X177095238Y-92265295D01*
X177095238Y-92265295D02*
X177142857Y-92455771D01*
X177142857Y-92455771D02*
X177142857Y-92693866D01*
X177142857Y-92693866D02*
X177095238Y-92884342D01*
X177095238Y-92884342D02*
X177047619Y-92979580D01*
X177047619Y-92979580D02*
X177000000Y-93027200D01*
X177000000Y-93027200D02*
X176904762Y-93074819D01*
X176904762Y-93074819D02*
X176809524Y-93074819D01*
X176809524Y-93074819D02*
X176714286Y-93027200D01*
X176714286Y-93027200D02*
X176666667Y-92979580D01*
X176666667Y-92979580D02*
X176619048Y-92884342D01*
X176619048Y-92884342D02*
X176571429Y-92693866D01*
X176571429Y-92693866D02*
X176571429Y-92455771D01*
X176571429Y-92455771D02*
X176619048Y-92265295D01*
X176619048Y-92265295D02*
X176666667Y-92170057D01*
X176666667Y-92170057D02*
X176714286Y-92122438D01*
X176714286Y-92122438D02*
X176809524Y-92074819D01*
X166083333Y-64564580D02*
X166035714Y-64612200D01*
X166035714Y-64612200D02*
X165892857Y-64659819D01*
X165892857Y-64659819D02*
X165797619Y-64659819D01*
X165797619Y-64659819D02*
X165654762Y-64612200D01*
X165654762Y-64612200D02*
X165559524Y-64516961D01*
X165559524Y-64516961D02*
X165511905Y-64421723D01*
X165511905Y-64421723D02*
X165464286Y-64231247D01*
X165464286Y-64231247D02*
X165464286Y-64088390D01*
X165464286Y-64088390D02*
X165511905Y-63897914D01*
X165511905Y-63897914D02*
X165559524Y-63802676D01*
X165559524Y-63802676D02*
X165654762Y-63707438D01*
X165654762Y-63707438D02*
X165797619Y-63659819D01*
X165797619Y-63659819D02*
X165892857Y-63659819D01*
X165892857Y-63659819D02*
X166035714Y-63707438D01*
X166035714Y-63707438D02*
X166083333Y-63755057D01*
X167035714Y-64659819D02*
X166464286Y-64659819D01*
X166750000Y-64659819D02*
X166750000Y-63659819D01*
X166750000Y-63659819D02*
X166654762Y-63802676D01*
X166654762Y-63802676D02*
X166559524Y-63897914D01*
X166559524Y-63897914D02*
X166464286Y-63945533D01*
X102238095Y-133604819D02*
X102238095Y-132604819D01*
X102238095Y-133081009D02*
X102809523Y-133081009D01*
X102809523Y-133604819D02*
X102809523Y-132604819D01*
X103190476Y-132604819D02*
X103809523Y-132604819D01*
X103809523Y-132604819D02*
X103476190Y-132985771D01*
X103476190Y-132985771D02*
X103619047Y-132985771D01*
X103619047Y-132985771D02*
X103714285Y-133033390D01*
X103714285Y-133033390D02*
X103761904Y-133081009D01*
X103761904Y-133081009D02*
X103809523Y-133176247D01*
X103809523Y-133176247D02*
X103809523Y-133414342D01*
X103809523Y-133414342D02*
X103761904Y-133509580D01*
X103761904Y-133509580D02*
X103714285Y-133557200D01*
X103714285Y-133557200D02*
X103619047Y-133604819D01*
X103619047Y-133604819D02*
X103333333Y-133604819D01*
X103333333Y-133604819D02*
X103238095Y-133557200D01*
X103238095Y-133557200D02*
X103190476Y-133509580D01*
X167833333Y-87884819D02*
X167500000Y-87408628D01*
X167261905Y-87884819D02*
X167261905Y-86884819D01*
X167261905Y-86884819D02*
X167642857Y-86884819D01*
X167642857Y-86884819D02*
X167738095Y-86932438D01*
X167738095Y-86932438D02*
X167785714Y-86980057D01*
X167785714Y-86980057D02*
X167833333Y-87075295D01*
X167833333Y-87075295D02*
X167833333Y-87218152D01*
X167833333Y-87218152D02*
X167785714Y-87313390D01*
X167785714Y-87313390D02*
X167738095Y-87361009D01*
X167738095Y-87361009D02*
X167642857Y-87408628D01*
X167642857Y-87408628D02*
X167261905Y-87408628D01*
X168785714Y-87884819D02*
X168214286Y-87884819D01*
X168500000Y-87884819D02*
X168500000Y-86884819D01*
X168500000Y-86884819D02*
X168404762Y-87027676D01*
X168404762Y-87027676D02*
X168309524Y-87122914D01*
X168309524Y-87122914D02*
X168214286Y-87170533D01*
X117238095Y-61474819D02*
X117238095Y-62284342D01*
X117238095Y-62284342D02*
X117285714Y-62379580D01*
X117285714Y-62379580D02*
X117333333Y-62427200D01*
X117333333Y-62427200D02*
X117428571Y-62474819D01*
X117428571Y-62474819D02*
X117619047Y-62474819D01*
X117619047Y-62474819D02*
X117714285Y-62427200D01*
X117714285Y-62427200D02*
X117761904Y-62379580D01*
X117761904Y-62379580D02*
X117809523Y-62284342D01*
X117809523Y-62284342D02*
X117809523Y-61474819D01*
X118714285Y-61474819D02*
X118523809Y-61474819D01*
X118523809Y-61474819D02*
X118428571Y-61522438D01*
X118428571Y-61522438D02*
X118380952Y-61570057D01*
X118380952Y-61570057D02*
X118285714Y-61712914D01*
X118285714Y-61712914D02*
X118238095Y-61903390D01*
X118238095Y-61903390D02*
X118238095Y-62284342D01*
X118238095Y-62284342D02*
X118285714Y-62379580D01*
X118285714Y-62379580D02*
X118333333Y-62427200D01*
X118333333Y-62427200D02*
X118428571Y-62474819D01*
X118428571Y-62474819D02*
X118619047Y-62474819D01*
X118619047Y-62474819D02*
X118714285Y-62427200D01*
X118714285Y-62427200D02*
X118761904Y-62379580D01*
X118761904Y-62379580D02*
X118809523Y-62284342D01*
X118809523Y-62284342D02*
X118809523Y-62046247D01*
X118809523Y-62046247D02*
X118761904Y-61951009D01*
X118761904Y-61951009D02*
X118714285Y-61903390D01*
X118714285Y-61903390D02*
X118619047Y-61855771D01*
X118619047Y-61855771D02*
X118428571Y-61855771D01*
X118428571Y-61855771D02*
X118333333Y-61903390D01*
X118333333Y-61903390D02*
X118285714Y-61951009D01*
X118285714Y-61951009D02*
X118238095Y-62046247D01*
X176238095Y-133604819D02*
X176238095Y-132604819D01*
X176238095Y-133081009D02*
X176809523Y-133081009D01*
X176809523Y-133604819D02*
X176809523Y-132604819D01*
X177714285Y-132938152D02*
X177714285Y-133604819D01*
X177476190Y-132557200D02*
X177238095Y-133271485D01*
X177238095Y-133271485D02*
X177857142Y-133271485D01*
X167166666Y-91361009D02*
X166833333Y-91361009D01*
X166833333Y-91884819D02*
X166833333Y-90884819D01*
X166833333Y-90884819D02*
X167309523Y-90884819D01*
X168023809Y-91361009D02*
X168166666Y-91408628D01*
X168166666Y-91408628D02*
X168214285Y-91456247D01*
X168214285Y-91456247D02*
X168261904Y-91551485D01*
X168261904Y-91551485D02*
X168261904Y-91694342D01*
X168261904Y-91694342D02*
X168214285Y-91789580D01*
X168214285Y-91789580D02*
X168166666Y-91837200D01*
X168166666Y-91837200D02*
X168071428Y-91884819D01*
X168071428Y-91884819D02*
X167690476Y-91884819D01*
X167690476Y-91884819D02*
X167690476Y-90884819D01*
X167690476Y-90884819D02*
X168023809Y-90884819D01*
X168023809Y-90884819D02*
X168119047Y-90932438D01*
X168119047Y-90932438D02*
X168166666Y-90980057D01*
X168166666Y-90980057D02*
X168214285Y-91075295D01*
X168214285Y-91075295D02*
X168214285Y-91170533D01*
X168214285Y-91170533D02*
X168166666Y-91265771D01*
X168166666Y-91265771D02*
X168119047Y-91313390D01*
X168119047Y-91313390D02*
X168023809Y-91361009D01*
X168023809Y-91361009D02*
X167690476Y-91361009D01*
X169214285Y-91884819D02*
X168642857Y-91884819D01*
X168928571Y-91884819D02*
X168928571Y-90884819D01*
X168928571Y-90884819D02*
X168833333Y-91027676D01*
X168833333Y-91027676D02*
X168738095Y-91122914D01*
X168738095Y-91122914D02*
X168642857Y-91170533D01*
X102238095Y-67604819D02*
X102238095Y-66604819D01*
X102238095Y-67081009D02*
X102809523Y-67081009D01*
X102809523Y-67604819D02*
X102809523Y-66604819D01*
X103809523Y-67604819D02*
X103238095Y-67604819D01*
X103523809Y-67604819D02*
X103523809Y-66604819D01*
X103523809Y-66604819D02*
X103428571Y-66747676D01*
X103428571Y-66747676D02*
X103333333Y-66842914D01*
X103333333Y-66842914D02*
X103238095Y-66890533D01*
X159166666Y-83074819D02*
X159166666Y-83789104D01*
X159166666Y-83789104D02*
X159119047Y-83931961D01*
X159119047Y-83931961D02*
X159023809Y-84027200D01*
X159023809Y-84027200D02*
X158880952Y-84074819D01*
X158880952Y-84074819D02*
X158785714Y-84074819D01*
X159642857Y-84074819D02*
X159642857Y-83074819D01*
X159642857Y-83074819D02*
X160023809Y-83074819D01*
X160023809Y-83074819D02*
X160119047Y-83122438D01*
X160119047Y-83122438D02*
X160166666Y-83170057D01*
X160166666Y-83170057D02*
X160214285Y-83265295D01*
X160214285Y-83265295D02*
X160214285Y-83408152D01*
X160214285Y-83408152D02*
X160166666Y-83503390D01*
X160166666Y-83503390D02*
X160119047Y-83551009D01*
X160119047Y-83551009D02*
X160023809Y-83598628D01*
X160023809Y-83598628D02*
X159642857Y-83598628D01*
X161166666Y-84074819D02*
X160595238Y-84074819D01*
X160880952Y-84074819D02*
X160880952Y-83074819D01*
X160880952Y-83074819D02*
X160785714Y-83217676D01*
X160785714Y-83217676D02*
X160690476Y-83312914D01*
X160690476Y-83312914D02*
X160595238Y-83360533D01*
X138861905Y-112634819D02*
X138861905Y-113444342D01*
X138861905Y-113444342D02*
X138909524Y-113539580D01*
X138909524Y-113539580D02*
X138957143Y-113587200D01*
X138957143Y-113587200D02*
X139052381Y-113634819D01*
X139052381Y-113634819D02*
X139242857Y-113634819D01*
X139242857Y-113634819D02*
X139338095Y-113587200D01*
X139338095Y-113587200D02*
X139385714Y-113539580D01*
X139385714Y-113539580D02*
X139433333Y-113444342D01*
X139433333Y-113444342D02*
X139433333Y-112634819D01*
X140433333Y-113634819D02*
X139861905Y-113634819D01*
X140147619Y-113634819D02*
X140147619Y-112634819D01*
X140147619Y-112634819D02*
X140052381Y-112777676D01*
X140052381Y-112777676D02*
X139957143Y-112872914D01*
X139957143Y-112872914D02*
X139861905Y-112920533D01*
X140814286Y-112730057D02*
X140861905Y-112682438D01*
X140861905Y-112682438D02*
X140957143Y-112634819D01*
X140957143Y-112634819D02*
X141195238Y-112634819D01*
X141195238Y-112634819D02*
X141290476Y-112682438D01*
X141290476Y-112682438D02*
X141338095Y-112730057D01*
X141338095Y-112730057D02*
X141385714Y-112825295D01*
X141385714Y-112825295D02*
X141385714Y-112920533D01*
X141385714Y-112920533D02*
X141338095Y-113063390D01*
X141338095Y-113063390D02*
X140766667Y-113634819D01*
X140766667Y-113634819D02*
X141385714Y-113634819D01*
X141361904Y-73085180D02*
X141361904Y-72275657D01*
X141361904Y-72275657D02*
X141314285Y-72180419D01*
X141314285Y-72180419D02*
X141266666Y-72132800D01*
X141266666Y-72132800D02*
X141171428Y-72085180D01*
X141171428Y-72085180D02*
X140980952Y-72085180D01*
X140980952Y-72085180D02*
X140885714Y-72132800D01*
X140885714Y-72132800D02*
X140838095Y-72180419D01*
X140838095Y-72180419D02*
X140790476Y-72275657D01*
X140790476Y-72275657D02*
X140790476Y-73085180D01*
X140361904Y-72132800D02*
X140219047Y-72085180D01*
X140219047Y-72085180D02*
X139980952Y-72085180D01*
X139980952Y-72085180D02*
X139885714Y-72132800D01*
X139885714Y-72132800D02*
X139838095Y-72180419D01*
X139838095Y-72180419D02*
X139790476Y-72275657D01*
X139790476Y-72275657D02*
X139790476Y-72370895D01*
X139790476Y-72370895D02*
X139838095Y-72466133D01*
X139838095Y-72466133D02*
X139885714Y-72513752D01*
X139885714Y-72513752D02*
X139980952Y-72561371D01*
X139980952Y-72561371D02*
X140171428Y-72608990D01*
X140171428Y-72608990D02*
X140266666Y-72656609D01*
X140266666Y-72656609D02*
X140314285Y-72704228D01*
X140314285Y-72704228D02*
X140361904Y-72799466D01*
X140361904Y-72799466D02*
X140361904Y-72894704D01*
X140361904Y-72894704D02*
X140314285Y-72989942D01*
X140314285Y-72989942D02*
X140266666Y-73037561D01*
X140266666Y-73037561D02*
X140171428Y-73085180D01*
X140171428Y-73085180D02*
X139933333Y-73085180D01*
X139933333Y-73085180D02*
X139790476Y-73037561D01*
X139028571Y-72608990D02*
X138885714Y-72561371D01*
X138885714Y-72561371D02*
X138838095Y-72513752D01*
X138838095Y-72513752D02*
X138790476Y-72418514D01*
X138790476Y-72418514D02*
X138790476Y-72275657D01*
X138790476Y-72275657D02*
X138838095Y-72180419D01*
X138838095Y-72180419D02*
X138885714Y-72132800D01*
X138885714Y-72132800D02*
X138980952Y-72085180D01*
X138980952Y-72085180D02*
X139361904Y-72085180D01*
X139361904Y-72085180D02*
X139361904Y-73085180D01*
X139361904Y-73085180D02*
X139028571Y-73085180D01*
X139028571Y-73085180D02*
X138933333Y-73037561D01*
X138933333Y-73037561D02*
X138885714Y-72989942D01*
X138885714Y-72989942D02*
X138838095Y-72894704D01*
X138838095Y-72894704D02*
X138838095Y-72799466D01*
X138838095Y-72799466D02*
X138885714Y-72704228D01*
X138885714Y-72704228D02*
X138933333Y-72656609D01*
X138933333Y-72656609D02*
X139028571Y-72608990D01*
X139028571Y-72608990D02*
X139361904Y-72608990D01*
X161238095Y-64174819D02*
X161238095Y-64984342D01*
X161238095Y-64984342D02*
X161285714Y-65079580D01*
X161285714Y-65079580D02*
X161333333Y-65127200D01*
X161333333Y-65127200D02*
X161428571Y-65174819D01*
X161428571Y-65174819D02*
X161619047Y-65174819D01*
X161619047Y-65174819D02*
X161714285Y-65127200D01*
X161714285Y-65127200D02*
X161761904Y-65079580D01*
X161761904Y-65079580D02*
X161809523Y-64984342D01*
X161809523Y-64984342D02*
X161809523Y-64174819D01*
X162190476Y-64174819D02*
X162857142Y-64174819D01*
X162857142Y-64174819D02*
X162428571Y-65174819D01*
X176238095Y-67604819D02*
X176238095Y-66604819D01*
X176238095Y-67081009D02*
X176809523Y-67081009D01*
X176809523Y-67604819D02*
X176809523Y-66604819D01*
X177238095Y-66700057D02*
X177285714Y-66652438D01*
X177285714Y-66652438D02*
X177380952Y-66604819D01*
X177380952Y-66604819D02*
X177619047Y-66604819D01*
X177619047Y-66604819D02*
X177714285Y-66652438D01*
X177714285Y-66652438D02*
X177761904Y-66700057D01*
X177761904Y-66700057D02*
X177809523Y-66795295D01*
X177809523Y-66795295D02*
X177809523Y-66890533D01*
X177809523Y-66890533D02*
X177761904Y-67033390D01*
X177761904Y-67033390D02*
X177190476Y-67604819D01*
X177190476Y-67604819D02*
X177809523Y-67604819D01*
X175666666Y-71074819D02*
X175666666Y-71789104D01*
X175666666Y-71789104D02*
X175619047Y-71931961D01*
X175619047Y-71931961D02*
X175523809Y-72027200D01*
X175523809Y-72027200D02*
X175380952Y-72074819D01*
X175380952Y-72074819D02*
X175285714Y-72074819D01*
X176190476Y-72074819D02*
X176380952Y-72074819D01*
X176380952Y-72074819D02*
X176476190Y-72027200D01*
X176476190Y-72027200D02*
X176523809Y-71979580D01*
X176523809Y-71979580D02*
X176619047Y-71836723D01*
X176619047Y-71836723D02*
X176666666Y-71646247D01*
X176666666Y-71646247D02*
X176666666Y-71265295D01*
X176666666Y-71265295D02*
X176619047Y-71170057D01*
X176619047Y-71170057D02*
X176571428Y-71122438D01*
X176571428Y-71122438D02*
X176476190Y-71074819D01*
X176476190Y-71074819D02*
X176285714Y-71074819D01*
X176285714Y-71074819D02*
X176190476Y-71122438D01*
X176190476Y-71122438D02*
X176142857Y-71170057D01*
X176142857Y-71170057D02*
X176095238Y-71265295D01*
X176095238Y-71265295D02*
X176095238Y-71503390D01*
X176095238Y-71503390D02*
X176142857Y-71598628D01*
X176142857Y-71598628D02*
X176190476Y-71646247D01*
X176190476Y-71646247D02*
X176285714Y-71693866D01*
X176285714Y-71693866D02*
X176476190Y-71693866D01*
X176476190Y-71693866D02*
X176571428Y-71646247D01*
X176571428Y-71646247D02*
X176619047Y-71598628D01*
X176619047Y-71598628D02*
X176666666Y-71503390D01*
D11*
%TO.C,J20*%
X134790000Y-118170000D02*
X157910000Y-118170000D01*
X134790000Y-127290000D02*
X134790000Y-118170000D01*
X136090000Y-119480000D02*
X156610000Y-119480000D01*
X136090000Y-125980000D02*
X136090000Y-119480000D01*
X139500000Y-128680000D02*
X140500000Y-128680000D01*
X140000000Y-127680000D02*
X139500000Y-128680000D01*
X140500000Y-128680000D02*
X140000000Y-127680000D01*
X144300000Y-125980000D02*
X136090000Y-125980000D01*
X144300000Y-127290000D02*
X144300000Y-125980000D01*
X148400000Y-125980000D02*
X148400000Y-127290000D01*
X156610000Y-119480000D02*
X156610000Y-125980000D01*
X156610000Y-125980000D02*
X148400000Y-125980000D01*
X157910000Y-118170000D02*
X157910000Y-127290000D01*
X157910000Y-127290000D02*
X134790000Y-127290000D01*
%TO.C,J11*%
X159150000Y-102250000D02*
X159150000Y-103500000D01*
X159440000Y-102540000D02*
X159440000Y-108510000D01*
X159440000Y-108510000D02*
X169560000Y-108510000D01*
X159450000Y-102550000D02*
X159450000Y-103300000D01*
X159450000Y-103300000D02*
X161250000Y-103300000D01*
X159450000Y-104800000D02*
X160200000Y-104800000D01*
X160200000Y-104800000D02*
X160200000Y-107750000D01*
X160200000Y-107750000D02*
X164500000Y-107750000D01*
X160400000Y-102250000D02*
X159150000Y-102250000D01*
X161250000Y-102550000D02*
X159450000Y-102550000D01*
X161250000Y-103300000D02*
X161250000Y-102550000D01*
X162750000Y-102550000D02*
X162750000Y-103300000D01*
X162750000Y-103300000D02*
X166250000Y-103300000D01*
X166250000Y-102550000D02*
X162750000Y-102550000D01*
X166250000Y-103300000D02*
X166250000Y-102550000D01*
X167750000Y-102550000D02*
X167750000Y-103300000D01*
X167750000Y-103300000D02*
X169550000Y-103300000D01*
X168800000Y-104800000D02*
X168800000Y-107750000D01*
X168800000Y-107750000D02*
X164500000Y-107750000D01*
X169550000Y-102550000D02*
X167750000Y-102550000D01*
X169550000Y-103300000D02*
X169550000Y-102550000D01*
X169550000Y-104800000D02*
X168800000Y-104800000D01*
X169560000Y-102540000D02*
X159440000Y-102540000D01*
X169560000Y-108510000D02*
X169560000Y-102540000D01*
%TO.C,J10*%
X174620000Y-93620000D02*
X176000000Y-93620000D01*
X174620000Y-95000000D02*
X174620000Y-93620000D01*
X174620000Y-96270000D02*
X174620000Y-111620000D01*
X174620000Y-96270000D02*
X177380000Y-96270000D01*
X174620000Y-111620000D02*
X177380000Y-111620000D01*
X177380000Y-96270000D02*
X177380000Y-111620000D01*
%TO.C,C1*%
X166390580Y-62265000D02*
X166109420Y-62265000D01*
X166390580Y-63285000D02*
X166109420Y-63285000D01*
%TO.C,R1*%
X168237258Y-85477500D02*
X167762742Y-85477500D01*
X168237258Y-86522500D02*
X167762742Y-86522500D01*
%TO.C,U6*%
X109110000Y-65520000D02*
X126890000Y-65520000D01*
X126890000Y-126480000D01*
X109110000Y-126480000D01*
X109110000Y-65520000D01*
X114500000Y-63020000D02*
X121500000Y-63020000D01*
X121500000Y-65520000D01*
X114500000Y-65520000D01*
X114500000Y-63020000D01*
D12*
X109180000Y-66790000D02*
G75*
G02*
X108580000Y-66790000I-300000J0D01*
G01*
X108580000Y-66790000D02*
G75*
G02*
X109180000Y-66790000I300000J0D01*
G01*
D11*
%TO.C,FB1*%
X168162779Y-89490000D02*
X167837221Y-89490000D01*
X168162779Y-90510000D02*
X167837221Y-90510000D01*
%TO.C,JP1*%
X158620000Y-84620000D02*
X160000000Y-84620000D01*
X158620000Y-86000000D02*
X158620000Y-84620000D01*
X158620000Y-87270000D02*
X158620000Y-92460000D01*
X158620000Y-87270000D02*
X161380000Y-87270000D01*
X158620000Y-92460000D02*
X161380000Y-92460000D01*
X161380000Y-87270000D02*
X161380000Y-92460000D01*
%TO.C,U12*%
X131080000Y-68600000D02*
X131080000Y-112040000D01*
X131080000Y-68600000D02*
X136160000Y-68600000D01*
X131080000Y-112040000D02*
X149120000Y-112040000D01*
X133750000Y-71270000D02*
X131080000Y-71270000D01*
X133750000Y-109370000D02*
X131080000Y-109370000D01*
X133750000Y-109370000D02*
X133750000Y-71270000D01*
X136160000Y-66060000D02*
X144040000Y-66060000D01*
X136160000Y-76480000D02*
X136160000Y-66060000D01*
X144040000Y-66060000D02*
X144040000Y-76480000D01*
X144040000Y-76480000D02*
X136160000Y-76480000D01*
X146450000Y-71270000D02*
X149120000Y-71270000D01*
X146450000Y-106830000D02*
X146450000Y-71270000D01*
X146450000Y-106830000D02*
X146450000Y-109370000D01*
X146450000Y-106830000D02*
X149120000Y-106830000D01*
X146450000Y-109370000D02*
X149120000Y-109370000D01*
X149120000Y-68600000D02*
X144040000Y-68600000D01*
X149120000Y-106830000D02*
X149120000Y-68600000D01*
X149120000Y-112040000D02*
X149120000Y-109370000D01*
%TO.C,U7*%
X159940000Y-65565000D02*
X164060000Y-65565000D01*
X159940000Y-65630000D02*
X159940000Y-65565000D01*
X159940000Y-74435000D02*
X159940000Y-74370000D01*
X164060000Y-65565000D02*
X164060000Y-65630000D01*
X164060000Y-74370000D02*
X164060000Y-74435000D01*
X164060000Y-74435000D02*
X159940000Y-74435000D01*
X159400000Y-65630000D02*
X159160000Y-65300000D01*
X159640000Y-65300000D01*
X159400000Y-65630000D01*
G36*
X159400000Y-65630000D02*
G01*
X159160000Y-65300000D01*
X159640000Y-65300000D01*
X159400000Y-65630000D01*
G37*
%TO.C,J9*%
X174620000Y-72620000D02*
X176000000Y-72620000D01*
X174620000Y-74000000D02*
X174620000Y-72620000D01*
X174620000Y-75270000D02*
X174620000Y-77920000D01*
X174620000Y-75270000D02*
X177380000Y-75270000D01*
X174620000Y-77920000D02*
X177380000Y-77920000D01*
X177380000Y-75270000D02*
X177380000Y-77920000D01*
%TD*%
M02*
