%TF.GenerationSoftware,KiCad,Pcbnew,9.0.5*%
%TF.CreationDate,2026-06-22T13:43:08-07:00*%
%TF.ProjectId,nova_pcb_v6_logic,6e6f7661-5f70-4636-925f-76365f6c6f67,rev?*%
%TF.SameCoordinates,Original*%
%TF.FileFunction,Copper,L3,Inr*%
%TF.FilePolarity,Positive*%
%FSLAX46Y46*%
G04 Gerber Fmt 4.6, Leading zero omitted, Abs format (unit mm)*
G04 Created by KiCad (PCBNEW 9.0.5) date 2026-06-22 13:43:08*
%MOMM*%
%LPD*%
G01*
G04 APERTURE LIST*
G04 Aperture macros list*
%AMRoundRect*
0 Rectangle with rounded corners*
0 $1 Rounding radius*
0 $2 $3 $4 $5 $6 $7 $8 $9 X,Y pos of 4 corners*
0 Add a 4 corners polygon primitive as box body*
4,1,4,$2,$3,$4,$5,$6,$7,$8,$9,$2,$3,0*
0 Add four circle primitives for the rounded corners*
1,1,$1+$1,$2,$3*
1,1,$1+$1,$4,$5*
1,1,$1+$1,$6,$7*
1,1,$1+$1,$8,$9*
0 Add four rect primitives between the rounded corners*
20,1,$1+$1,$2,$3,$4,$5,0*
20,1,$1+$1,$4,$5,$6,$7,0*
20,1,$1+$1,$6,$7,$8,$9,0*
20,1,$1+$1,$8,$9,$2,$3,0*%
G04 Aperture macros list end*
%TA.AperFunction,ComponentPad*%
%ADD10RoundRect,0.250000X0.600000X0.600000X-0.600000X0.600000X-0.600000X-0.600000X0.600000X-0.600000X0*%
%TD*%
%TA.AperFunction,ComponentPad*%
%ADD11C,1.700000*%
%TD*%
%TA.AperFunction,ComponentPad*%
%ADD12RoundRect,0.250000X0.600000X0.725000X-0.600000X0.725000X-0.600000X-0.725000X0.600000X-0.725000X0*%
%TD*%
%TA.AperFunction,ComponentPad*%
%ADD13O,1.700000X1.950000*%
%TD*%
%TA.AperFunction,ComponentPad*%
%ADD14R,1.700000X1.700000*%
%TD*%
%TA.AperFunction,ComponentPad*%
%ADD15R,1.600000X1.600000*%
%TD*%
%TA.AperFunction,ComponentPad*%
%ADD16O,1.600000X1.600000*%
%TD*%
%TA.AperFunction,ViaPad*%
%ADD17C,0.600000*%
%TD*%
%TA.AperFunction,ViaPad*%
%ADD18C,0.800000*%
%TD*%
G04 APERTURE END LIST*
D10*
%TO.N,V5_AUX*%
%TO.C,J20*%
X140000000Y-124000000D03*
D11*
X140000000Y-121460000D03*
%TO.N,GND*%
X142540000Y-124000000D03*
X142540000Y-121460000D03*
%TO.N,+3V3*%
X145080000Y-124000000D03*
%TO.N,BUS_SERVO*%
X145080000Y-121460000D03*
%TO.N,I2C_SDA*%
X147620000Y-124000000D03*
%TO.N,I2C_SCL*%
X147620000Y-121460000D03*
%TO.N,BATT_LOW*%
X150160000Y-124000000D03*
%TO.N,GND*%
X150160000Y-121460000D03*
X152700000Y-124000000D03*
X152700000Y-121460000D03*
%TD*%
D12*
%TO.N,V5_AUX*%
%TO.C,J11*%
X156750000Y-104975000D03*
D13*
%TO.N,GND*%
X159250000Y-104975000D03*
%TO.N,/07 Aux MCU + Peripherals/LED_DATA*%
X161750000Y-104975000D03*
%TD*%
D14*
%TO.N,Net-(J21-Pin_1)*%
%TO.C,J21*%
X105000000Y-82225000D03*
D11*
%TO.N,GND*%
X105000000Y-84765000D03*
%TD*%
D14*
%TO.N,GND*%
%TO.C,J10*%
X176000000Y-95000000D03*
D11*
%TO.N,V5_AUX*%
X176000000Y-97540000D03*
%TO.N,/07 Aux MCU + Peripherals/SPI_SCK_F*%
X176000000Y-100080000D03*
%TO.N,/07 Aux MCU + Peripherals/SPI_MOSI_F*%
X176000000Y-102620000D03*
%TO.N,/07 Aux MCU + Peripherals/OLED_RST_F*%
X176000000Y-105160000D03*
%TO.N,/07 Aux MCU + Peripherals/OLED_DC_F*%
X176000000Y-107700000D03*
%TO.N,/07 Aux MCU + Peripherals/OLED_CS_F*%
X176000000Y-110240000D03*
%TD*%
D14*
%TO.N,V5_AUX*%
%TO.C,U6*%
X125620000Y-66790000D03*
D11*
%TO.N,GND*%
X110380000Y-66790000D03*
X125620000Y-69330000D03*
%TO.N,/04 Bus Master (Pattern B)/TEENSY_TX*%
X110380000Y-71870000D03*
%TO.N,/04 Bus Master (Pattern B)/TEENSY_RX*%
X110380000Y-69330000D03*
%TO.N,/04 Bus Master (Pattern B)/OE_TX*%
X110380000Y-74410000D03*
%TO.N,/04 Bus Master (Pattern B)/OE_RX*%
X110380000Y-76950000D03*
%TO.N,I2C_SDA*%
X125620000Y-87110000D03*
%TO.N,I2C_SCL*%
X125620000Y-84570000D03*
%TO.N,BATT_LOW*%
X110380000Y-79490000D03*
%TO.N,N/C*%
X110380000Y-102350000D03*
%TO.N,+3V3*%
X125620000Y-71870000D03*
%TO.N,Net-(J21-Pin_1)*%
X110380000Y-82030000D03*
%TO.N,N/C*%
X110380000Y-84570000D03*
X110380000Y-87110000D03*
X110380000Y-89650000D03*
X110380000Y-92190000D03*
X110380000Y-94730000D03*
X110380000Y-97270000D03*
X110380000Y-99810000D03*
X125620000Y-99810000D03*
X125620000Y-97270000D03*
X125620000Y-94730000D03*
X125620000Y-92190000D03*
X125620000Y-89650000D03*
X125620000Y-82030000D03*
X125620000Y-79490000D03*
X125620000Y-76950000D03*
X125620000Y-74410000D03*
X110380000Y-104890000D03*
X110380000Y-107430000D03*
X110380000Y-109970000D03*
X110380000Y-112510000D03*
X110380000Y-115050000D03*
X110380000Y-117590000D03*
X110380000Y-120130000D03*
X110380000Y-122670000D03*
X110380000Y-125210000D03*
X125620000Y-125210000D03*
X125620000Y-122670000D03*
X125620000Y-120130000D03*
X125620000Y-117590000D03*
X125620000Y-115050000D03*
X125620000Y-112510000D03*
X125620000Y-109970000D03*
X125620000Y-107430000D03*
X125620000Y-104890000D03*
X125620000Y-102350000D03*
%TD*%
D14*
%TO.N,/04 Bus Master (Pattern B)/MASTER_A*%
%TO.C,JP1*%
X160000000Y-86000000D03*
D11*
%TO.N,BUS_SIGNAL*%
X160000000Y-88540000D03*
%TO.N,/04 Bus Master (Pattern B)/MASTER_B*%
X160000000Y-91080000D03*
%TD*%
D15*
%TO.N,unconnected-(U12-D1{slash}TX-Pad1)*%
%TO.C,U12*%
X147720000Y-108100000D03*
D16*
%TO.N,unconnected-(U12-D0{slash}RX-Pad2)*%
X147720000Y-105560000D03*
%TO.N,unconnected-(U12-~{RESET}-Pad3)*%
X147720000Y-103020000D03*
%TO.N,GND*%
X147720000Y-100480000D03*
%TO.N,unconnected-(U12-D2-Pad5)*%
X147720000Y-97940000D03*
%TO.N,unconnected-(U12-D3-Pad6)*%
X147720000Y-95400000D03*
%TO.N,unconnected-(U12-D4-Pad7)*%
X147720000Y-92860000D03*
%TO.N,unconnected-(U12-D5-Pad8)*%
X147720000Y-90320000D03*
%TO.N,/07 Aux MCU + Peripherals/LED_DATA*%
X147720000Y-87780000D03*
%TO.N,unconnected-(U12-D7-Pad10)*%
X147720000Y-85240000D03*
%TO.N,/07 Aux MCU + Peripherals/OLED_RST*%
X147720000Y-82700000D03*
%TO.N,/07 Aux MCU + Peripherals/OLED_DC*%
X147720000Y-80160000D03*
%TO.N,/07 Aux MCU + Peripherals/OLED_CS*%
X147720000Y-77620000D03*
%TO.N,/07 Aux MCU + Peripherals/SPI_MOSI*%
X147720000Y-75080000D03*
%TO.N,unconnected-(U12-D12-Pad15)*%
X147720000Y-72540000D03*
%TO.N,/07 Aux MCU + Peripherals/SPI_SCK*%
X132480000Y-72540000D03*
%TO.N,unconnected-(U12-3V3-Pad17)*%
X132480000Y-75080000D03*
%TO.N,unconnected-(U12-AREF-Pad18)*%
X132480000Y-77620000D03*
%TO.N,unconnected-(U12-A0-Pad19)*%
X132480000Y-80160000D03*
%TO.N,unconnected-(U12-A1-Pad20)*%
X132480000Y-82700000D03*
%TO.N,unconnected-(U12-A2-Pad21)*%
X132480000Y-85240000D03*
%TO.N,unconnected-(U12-A3-Pad22)*%
X132480000Y-87780000D03*
%TO.N,unconnected-(U12-A4-Pad23)*%
X132480000Y-90320000D03*
%TO.N,unconnected-(U12-A5-Pad24)*%
X132480000Y-92860000D03*
%TO.N,unconnected-(U12-A6-Pad25)*%
X132480000Y-95400000D03*
%TO.N,unconnected-(U12-A7-Pad26)*%
X132480000Y-97940000D03*
%TO.N,V5_AUX*%
X132480000Y-100480000D03*
%TO.N,unconnected-(U12-~{RESET}-Pad28)*%
X132480000Y-103020000D03*
%TO.N,GND*%
X132480000Y-105560000D03*
%TO.N,unconnected-(U12-VIN-Pad30)*%
X132480000Y-108100000D03*
%TD*%
D14*
%TO.N,GND*%
%TO.C,J9*%
X176000000Y-74000000D03*
D11*
%TO.N,/04 Bus Master (Pattern B)/MASTER_A*%
X176000000Y-76540000D03*
%TD*%
D17*
%TO.N,GND*%
X159525000Y-75500000D03*
D18*
%TO.N,/07 Aux MCU + Peripherals/OLED_CS*%
X154631300Y-104837400D03*
%TO.N,/04 Bus Master (Pattern B)/MASTER_B*%
X157259700Y-69180000D03*
%TO.N,/04 Bus Master (Pattern B)/TEENSY_RX*%
X114401600Y-73897900D03*
%TD*%
%TA.AperFunction,Conductor*%
%TO.N,V5_AUX*%
G36*
X141306376Y-121468652D02*
G01*
X141364609Y-121507261D01*
X141392219Y-121567720D01*
X141417828Y-121729410D01*
X141473787Y-121901636D01*
X141473788Y-121901639D01*
X141529664Y-122011300D01*
X141555869Y-122062730D01*
X141556006Y-122062997D01*
X141662441Y-122209494D01*
X141662445Y-122209499D01*
X141790500Y-122337554D01*
X141790505Y-122337558D01*
X141877261Y-122400589D01*
X141937006Y-122443996D01*
X142042484Y-122497740D01*
X142098360Y-122526211D01*
X142098363Y-122526212D01*
X142184476Y-122554191D01*
X142270591Y-122582171D01*
X142343639Y-122593740D01*
X142430678Y-122607527D01*
X142493813Y-122637456D01*
X142530744Y-122696768D01*
X142529746Y-122766631D01*
X142491136Y-122824863D01*
X142430678Y-122852473D01*
X142270589Y-122877829D01*
X142098363Y-122933787D01*
X142098360Y-122933788D01*
X141937002Y-123016006D01*
X141790505Y-123122441D01*
X141790500Y-123122445D01*
X141662445Y-123250500D01*
X141662441Y-123250505D01*
X141556006Y-123397002D01*
X141473788Y-123558360D01*
X141473787Y-123558363D01*
X141417829Y-123730589D01*
X141396473Y-123865423D01*
X141366544Y-123928558D01*
X141307232Y-123965489D01*
X141237369Y-123964491D01*
X141179137Y-123925881D01*
X141151023Y-123861917D01*
X141150000Y-123846025D01*
X141150000Y-123356946D01*
X141139386Y-123268556D01*
X141083920Y-123127904D01*
X140992564Y-123007435D01*
X140872095Y-122916079D01*
X140731443Y-122860613D01*
X140643054Y-122850000D01*
X140150773Y-122850000D01*
X140083734Y-122830315D01*
X140037979Y-122777511D01*
X140028035Y-122708353D01*
X140057060Y-122644797D01*
X140115838Y-122607023D01*
X140131375Y-122603527D01*
X140269293Y-122581682D01*
X140441444Y-122525748D01*
X140441452Y-122525745D01*
X140602730Y-122443568D01*
X140618532Y-122432085D01*
X140618533Y-122432085D01*
X140129410Y-121942962D01*
X140192993Y-121925925D01*
X140307007Y-121860099D01*
X140400099Y-121767007D01*
X140465925Y-121652993D01*
X140482962Y-121589409D01*
X140972085Y-122078532D01*
X140983568Y-122062730D01*
X141065745Y-121901452D01*
X141065748Y-121901444D01*
X141121683Y-121729292D01*
X141147273Y-121567721D01*
X141177202Y-121504586D01*
X141236513Y-121467654D01*
X141306376Y-121468652D01*
G37*
%TD.AperFunction*%
%TA.AperFunction,Conductor*%
G36*
X181442539Y-57520185D02*
G01*
X181488294Y-57572989D01*
X181499500Y-57624500D01*
X181499500Y-134375500D01*
X181479815Y-134442539D01*
X181427011Y-134488294D01*
X181375500Y-134499500D01*
X98624500Y-134499500D01*
X98557461Y-134479815D01*
X98511706Y-134427011D01*
X98500500Y-134375500D01*
X98500500Y-128999999D01*
X99500000Y-128999999D01*
X99567250Y-129682814D01*
X99766422Y-130339396D01*
X100089851Y-130944489D01*
X100089856Y-130944496D01*
X100525125Y-131474873D01*
X101055502Y-131910142D01*
X101055509Y-131910147D01*
X101660602Y-132233576D01*
X101660604Y-132233576D01*
X101660607Y-132233578D01*
X102317183Y-132432748D01*
X102317182Y-132432748D01*
X102384434Y-132439371D01*
X103000000Y-132500000D01*
X103682816Y-132432748D01*
X104339392Y-132233578D01*
X104339396Y-132233576D01*
X104944489Y-131910147D01*
X104944496Y-131910142D01*
X105474873Y-131474873D01*
X105910142Y-130944496D01*
X105910147Y-130944489D01*
X106233576Y-130339396D01*
X106233576Y-130339395D01*
X106233578Y-130339392D01*
X106432748Y-129682816D01*
X106500000Y-129000000D01*
X106500000Y-128999999D01*
X173500000Y-128999999D01*
X173567250Y-129682814D01*
X173766422Y-130339396D01*
X174089851Y-130944489D01*
X174089856Y-130944496D01*
X174525125Y-131474873D01*
X175055502Y-131910142D01*
X175055509Y-131910147D01*
X175660602Y-132233576D01*
X175660604Y-132233576D01*
X175660607Y-132233578D01*
X176317183Y-132432748D01*
X176317182Y-132432748D01*
X176384434Y-132439371D01*
X177000000Y-132500000D01*
X177682816Y-132432748D01*
X178339392Y-132233578D01*
X178339396Y-132233576D01*
X178944489Y-131910147D01*
X178944496Y-131910142D01*
X179474873Y-131474873D01*
X179910142Y-130944496D01*
X179910147Y-130944489D01*
X180233576Y-130339396D01*
X180233576Y-130339395D01*
X180233578Y-130339392D01*
X180432748Y-129682816D01*
X180500000Y-129000000D01*
X180432748Y-128317183D01*
X180233578Y-127660607D01*
X180233576Y-127660604D01*
X180233576Y-127660602D01*
X179910147Y-127055509D01*
X179910142Y-127055502D01*
X179474873Y-126525125D01*
X178944496Y-126089856D01*
X178944489Y-126089851D01*
X178339396Y-125766422D01*
X177682814Y-125567250D01*
X177074597Y-125507347D01*
X177000000Y-125500000D01*
X176999999Y-125500000D01*
X176317184Y-125567250D01*
X175660602Y-125766422D01*
X175055509Y-126089851D01*
X175055502Y-126089856D01*
X174525125Y-126525125D01*
X174089856Y-127055502D01*
X174089851Y-127055509D01*
X173766422Y-127660602D01*
X173567250Y-128317184D01*
X173500000Y-128999999D01*
X106500000Y-128999999D01*
X106432748Y-128317183D01*
X106233578Y-127660607D01*
X106233576Y-127660604D01*
X106233576Y-127660602D01*
X105910147Y-127055509D01*
X105910142Y-127055502D01*
X105474873Y-126525125D01*
X104944496Y-126089856D01*
X104944489Y-126089851D01*
X104339396Y-125766422D01*
X103682814Y-125567250D01*
X103074597Y-125507347D01*
X103000000Y-125500000D01*
X102999999Y-125500000D01*
X102317184Y-125567250D01*
X101660602Y-125766422D01*
X101055509Y-126089851D01*
X101055502Y-126089856D01*
X100525125Y-126525125D01*
X100089856Y-127055502D01*
X100089851Y-127055509D01*
X99766422Y-127660602D01*
X99567250Y-128317184D01*
X99500000Y-128999999D01*
X98500500Y-128999999D01*
X98500500Y-81330131D01*
X103849500Y-81330131D01*
X103849500Y-83119856D01*
X103849502Y-83119882D01*
X103852413Y-83144987D01*
X103852415Y-83144991D01*
X103897793Y-83247764D01*
X103897794Y-83247765D01*
X103977235Y-83327206D01*
X104080009Y-83372585D01*
X104105135Y-83375500D01*
X104842873Y-83375499D01*
X104909910Y-83395183D01*
X104955665Y-83447987D01*
X104965609Y-83517146D01*
X104936584Y-83580702D01*
X104877806Y-83618476D01*
X104862270Y-83621972D01*
X104730589Y-83642829D01*
X104558363Y-83698787D01*
X104558360Y-83698788D01*
X104397002Y-83781006D01*
X104250505Y-83887441D01*
X104250500Y-83887445D01*
X104122445Y-84015500D01*
X104122441Y-84015505D01*
X104016006Y-84162002D01*
X103933788Y-84323360D01*
X103933787Y-84323363D01*
X103877829Y-84495589D01*
X103849500Y-84674448D01*
X103849500Y-84855551D01*
X103877829Y-85034410D01*
X103933787Y-85206636D01*
X103933788Y-85206639D01*
X104016006Y-85367997D01*
X104122441Y-85514494D01*
X104122445Y-85514499D01*
X104250500Y-85642554D01*
X104250505Y-85642558D01*
X104353692Y-85717527D01*
X104397006Y-85748996D01*
X104502484Y-85802740D01*
X104558360Y-85831211D01*
X104558363Y-85831212D01*
X104644476Y-85859191D01*
X104730591Y-85887171D01*
X104813429Y-85900291D01*
X104909449Y-85915500D01*
X104909454Y-85915500D01*
X105090551Y-85915500D01*
X105177259Y-85901765D01*
X105269409Y-85887171D01*
X105441639Y-85831211D01*
X105602994Y-85748996D01*
X105749501Y-85642553D01*
X105877553Y-85514501D01*
X105983996Y-85367994D01*
X106066211Y-85206639D01*
X106122171Y-85034409D01*
X106143809Y-84897793D01*
X106150500Y-84855551D01*
X106150500Y-84674448D01*
X106134019Y-84570397D01*
X106122171Y-84495591D01*
X106066211Y-84323361D01*
X106066211Y-84323360D01*
X106037740Y-84267484D01*
X105983996Y-84162006D01*
X105959551Y-84128360D01*
X105877558Y-84015505D01*
X105877554Y-84015500D01*
X105749499Y-83887445D01*
X105749494Y-83887441D01*
X105602997Y-83781006D01*
X105602996Y-83781005D01*
X105602994Y-83781004D01*
X105551300Y-83754664D01*
X105441639Y-83698788D01*
X105441636Y-83698787D01*
X105269410Y-83642829D01*
X105137728Y-83621972D01*
X105074594Y-83592042D01*
X105037663Y-83532731D01*
X105038661Y-83462868D01*
X105077271Y-83404636D01*
X105141235Y-83376522D01*
X105157120Y-83375499D01*
X105894864Y-83375499D01*
X105894879Y-83375497D01*
X105894882Y-83375497D01*
X105919987Y-83372586D01*
X105919988Y-83372585D01*
X105919991Y-83372585D01*
X106022765Y-83327206D01*
X106102206Y-83247765D01*
X106147585Y-83144991D01*
X106150500Y-83119865D01*
X106150499Y-81330136D01*
X106150497Y-81330117D01*
X106147586Y-81305012D01*
X106147585Y-81305010D01*
X106147585Y-81305009D01*
X106102206Y-81202235D01*
X106022765Y-81122794D01*
X105973932Y-81101232D01*
X105919992Y-81077415D01*
X105894865Y-81074500D01*
X104105143Y-81074500D01*
X104105117Y-81074502D01*
X104080012Y-81077413D01*
X104080008Y-81077415D01*
X103977235Y-81122793D01*
X103897794Y-81202234D01*
X103852415Y-81305006D01*
X103852415Y-81305008D01*
X103849500Y-81330131D01*
X98500500Y-81330131D01*
X98500500Y-66699448D01*
X109229500Y-66699448D01*
X109229500Y-66880551D01*
X109257829Y-67059410D01*
X109313787Y-67231636D01*
X109313788Y-67231639D01*
X109396006Y-67392997D01*
X109502441Y-67539494D01*
X109502445Y-67539499D01*
X109630500Y-67667554D01*
X109630505Y-67667558D01*
X109688753Y-67709877D01*
X109777006Y-67773996D01*
X109852523Y-67812474D01*
X109938360Y-67856211D01*
X109938363Y-67856212D01*
X110024476Y-67884191D01*
X110110591Y-67912171D01*
X110183639Y-67923740D01*
X110270678Y-67937527D01*
X110333813Y-67967456D01*
X110370744Y-68026768D01*
X110369746Y-68096631D01*
X110331136Y-68154863D01*
X110270678Y-68182473D01*
X110110589Y-68207829D01*
X109938363Y-68263787D01*
X109938360Y-68263788D01*
X109777002Y-68346006D01*
X109630505Y-68452441D01*
X109630500Y-68452445D01*
X109502445Y-68580500D01*
X109502441Y-68580505D01*
X109396006Y-68727002D01*
X109313788Y-68888360D01*
X109313787Y-68888363D01*
X109257829Y-69060589D01*
X109229500Y-69239448D01*
X109229500Y-69420551D01*
X109257829Y-69599410D01*
X109313787Y-69771636D01*
X109313788Y-69771639D01*
X109396006Y-69932997D01*
X109502441Y-70079494D01*
X109502445Y-70079499D01*
X109630500Y-70207554D01*
X109630505Y-70207558D01*
X109758287Y-70300396D01*
X109777006Y-70313996D01*
X109882484Y-70367740D01*
X109938360Y-70396211D01*
X109938363Y-70396212D01*
X110024476Y-70424191D01*
X110110591Y-70452171D01*
X110183639Y-70463740D01*
X110270678Y-70477527D01*
X110333813Y-70507456D01*
X110370744Y-70566768D01*
X110369746Y-70636631D01*
X110331136Y-70694863D01*
X110270678Y-70722473D01*
X110110589Y-70747829D01*
X109938363Y-70803787D01*
X109938360Y-70803788D01*
X109777002Y-70886006D01*
X109630505Y-70992441D01*
X109630500Y-70992445D01*
X109502445Y-71120500D01*
X109502441Y-71120505D01*
X109396006Y-71267002D01*
X109313788Y-71428360D01*
X109313787Y-71428363D01*
X109257829Y-71600589D01*
X109229500Y-71779448D01*
X109229500Y-71960551D01*
X109257829Y-72139410D01*
X109313787Y-72311636D01*
X109313788Y-72311639D01*
X109396006Y-72472997D01*
X109502441Y-72619494D01*
X109502445Y-72619499D01*
X109630500Y-72747554D01*
X109630505Y-72747558D01*
X109699522Y-72797701D01*
X109777006Y-72853996D01*
X109862962Y-72897793D01*
X109938360Y-72936211D01*
X109938363Y-72936212D01*
X110019102Y-72962445D01*
X110110591Y-72992171D01*
X110183639Y-73003740D01*
X110270678Y-73017527D01*
X110333813Y-73047456D01*
X110370744Y-73106768D01*
X110369746Y-73176631D01*
X110331136Y-73234863D01*
X110270678Y-73262473D01*
X110110589Y-73287829D01*
X109938363Y-73343787D01*
X109938360Y-73343788D01*
X109777002Y-73426006D01*
X109630505Y-73532441D01*
X109630500Y-73532445D01*
X109502445Y-73660500D01*
X109502441Y-73660505D01*
X109396006Y-73807002D01*
X109313788Y-73968360D01*
X109313787Y-73968363D01*
X109257829Y-74140589D01*
X109229500Y-74319448D01*
X109229500Y-74500551D01*
X109257829Y-74679410D01*
X109313787Y-74851636D01*
X109313788Y-74851639D01*
X109396006Y-75012997D01*
X109502441Y-75159494D01*
X109502445Y-75159499D01*
X109630500Y-75287554D01*
X109630505Y-75287558D01*
X109739907Y-75367042D01*
X109777006Y-75393996D01*
X109882484Y-75447740D01*
X109938360Y-75476211D01*
X109938363Y-75476212D01*
X110019102Y-75502445D01*
X110110591Y-75532171D01*
X110183639Y-75543740D01*
X110270678Y-75557527D01*
X110333813Y-75587456D01*
X110370744Y-75646768D01*
X110369746Y-75716631D01*
X110331136Y-75774863D01*
X110270678Y-75802473D01*
X110110589Y-75827829D01*
X109938363Y-75883787D01*
X109938360Y-75883788D01*
X109777002Y-75966006D01*
X109630505Y-76072441D01*
X109630500Y-76072445D01*
X109502445Y-76200500D01*
X109502441Y-76200505D01*
X109396006Y-76347002D01*
X109313788Y-76508360D01*
X109313787Y-76508363D01*
X109257829Y-76680589D01*
X109229500Y-76859448D01*
X109229500Y-77040551D01*
X109257829Y-77219410D01*
X109313787Y-77391636D01*
X109313788Y-77391639D01*
X109396006Y-77552997D01*
X109502441Y-77699494D01*
X109502445Y-77699499D01*
X109630500Y-77827554D01*
X109630505Y-77827558D01*
X109699522Y-77877701D01*
X109777006Y-77933996D01*
X109882484Y-77987740D01*
X109938360Y-78016211D01*
X109938363Y-78016212D01*
X110019102Y-78042445D01*
X110110591Y-78072171D01*
X110183639Y-78083740D01*
X110270678Y-78097527D01*
X110333813Y-78127456D01*
X110370744Y-78186768D01*
X110369746Y-78256631D01*
X110331136Y-78314863D01*
X110270678Y-78342473D01*
X110110589Y-78367829D01*
X109938363Y-78423787D01*
X109938360Y-78423788D01*
X109777002Y-78506006D01*
X109630505Y-78612441D01*
X109630500Y-78612445D01*
X109502445Y-78740500D01*
X109502441Y-78740505D01*
X109396006Y-78887002D01*
X109313788Y-79048360D01*
X109313787Y-79048363D01*
X109257829Y-79220589D01*
X109229500Y-79399448D01*
X109229500Y-79580551D01*
X109257829Y-79759410D01*
X109313787Y-79931636D01*
X109313788Y-79931639D01*
X109396006Y-80092997D01*
X109502441Y-80239494D01*
X109502445Y-80239499D01*
X109630500Y-80367554D01*
X109630505Y-80367558D01*
X109699522Y-80417701D01*
X109777006Y-80473996D01*
X109882484Y-80527740D01*
X109938360Y-80556211D01*
X109938363Y-80556212D01*
X110019102Y-80582445D01*
X110110591Y-80612171D01*
X110183639Y-80623740D01*
X110270678Y-80637527D01*
X110333813Y-80667456D01*
X110370744Y-80726768D01*
X110369746Y-80796631D01*
X110331136Y-80854863D01*
X110270678Y-80882473D01*
X110110589Y-80907829D01*
X109938363Y-80963787D01*
X109938360Y-80963788D01*
X109777002Y-81046006D01*
X109630505Y-81152441D01*
X109630500Y-81152445D01*
X109502445Y-81280500D01*
X109502441Y-81280505D01*
X109396006Y-81427002D01*
X109313788Y-81588360D01*
X109313787Y-81588363D01*
X109257829Y-81760589D01*
X109229500Y-81939448D01*
X109229500Y-82120551D01*
X109257829Y-82299410D01*
X109313787Y-82471636D01*
X109313788Y-82471639D01*
X109396006Y-82632997D01*
X109502441Y-82779494D01*
X109502445Y-82779499D01*
X109630500Y-82907554D01*
X109630505Y-82907558D01*
X109699522Y-82957701D01*
X109777006Y-83013996D01*
X109882484Y-83067740D01*
X109938360Y-83096211D01*
X109938363Y-83096212D01*
X110011162Y-83119865D01*
X110110591Y-83152171D01*
X110183639Y-83163740D01*
X110270678Y-83177527D01*
X110333813Y-83207456D01*
X110370744Y-83266768D01*
X110369746Y-83336631D01*
X110331136Y-83394863D01*
X110270678Y-83422473D01*
X110110589Y-83447829D01*
X109938363Y-83503787D01*
X109938360Y-83503788D01*
X109777002Y-83586006D01*
X109630505Y-83692441D01*
X109630500Y-83692445D01*
X109502445Y-83820500D01*
X109502441Y-83820505D01*
X109396006Y-83967002D01*
X109313788Y-84128360D01*
X109313787Y-84128363D01*
X109257829Y-84300589D01*
X109229500Y-84479448D01*
X109229500Y-84660551D01*
X109257829Y-84839410D01*
X109313787Y-85011636D01*
X109313788Y-85011639D01*
X109396006Y-85172997D01*
X109502441Y-85319494D01*
X109502445Y-85319499D01*
X109630500Y-85447554D01*
X109630505Y-85447558D01*
X109758287Y-85540396D01*
X109777006Y-85553996D01*
X109882484Y-85607740D01*
X109938360Y-85636211D01*
X109938363Y-85636212D01*
X109957895Y-85642558D01*
X110110591Y-85692171D01*
X110183639Y-85703740D01*
X110270678Y-85717527D01*
X110333813Y-85747456D01*
X110370744Y-85806768D01*
X110369746Y-85876631D01*
X110331136Y-85934863D01*
X110270678Y-85962473D01*
X110110589Y-85987829D01*
X109938363Y-86043787D01*
X109938360Y-86043788D01*
X109777002Y-86126006D01*
X109630505Y-86232441D01*
X109630500Y-86232445D01*
X109502445Y-86360500D01*
X109502441Y-86360505D01*
X109396006Y-86507002D01*
X109313788Y-86668360D01*
X109313787Y-86668363D01*
X109257829Y-86840589D01*
X109229500Y-87019448D01*
X109229500Y-87200551D01*
X109257829Y-87379410D01*
X109313787Y-87551636D01*
X109313788Y-87551639D01*
X109396006Y-87712997D01*
X109502441Y-87859494D01*
X109502445Y-87859499D01*
X109630500Y-87987554D01*
X109630505Y-87987558D01*
X109699522Y-88037701D01*
X109777006Y-88093996D01*
X109882484Y-88147740D01*
X109938360Y-88176211D01*
X109938363Y-88176212D01*
X110019102Y-88202445D01*
X110110591Y-88232171D01*
X110183639Y-88243740D01*
X110270678Y-88257527D01*
X110333813Y-88287456D01*
X110370744Y-88346768D01*
X110369746Y-88416631D01*
X110331136Y-88474863D01*
X110270678Y-88502473D01*
X110110589Y-88527829D01*
X109938363Y-88583787D01*
X109938360Y-88583788D01*
X109777002Y-88666006D01*
X109630505Y-88772441D01*
X109630500Y-88772445D01*
X109502445Y-88900500D01*
X109502441Y-88900505D01*
X109396006Y-89047002D01*
X109313788Y-89208360D01*
X109313787Y-89208363D01*
X109257829Y-89380589D01*
X109229500Y-89559448D01*
X109229500Y-89740551D01*
X109257829Y-89919410D01*
X109313787Y-90091636D01*
X109313788Y-90091639D01*
X109396006Y-90252997D01*
X109502441Y-90399494D01*
X109502445Y-90399499D01*
X109630500Y-90527554D01*
X109630505Y-90527558D01*
X109699522Y-90577701D01*
X109777006Y-90633996D01*
X109882484Y-90687740D01*
X109938360Y-90716211D01*
X109938363Y-90716212D01*
X110019102Y-90742445D01*
X110110591Y-90772171D01*
X110183639Y-90783740D01*
X110270678Y-90797527D01*
X110333813Y-90827456D01*
X110370744Y-90886768D01*
X110369746Y-90956631D01*
X110331136Y-91014863D01*
X110270678Y-91042473D01*
X110110589Y-91067829D01*
X109938363Y-91123787D01*
X109938360Y-91123788D01*
X109777002Y-91206006D01*
X109630505Y-91312441D01*
X109630500Y-91312445D01*
X109502445Y-91440500D01*
X109502441Y-91440505D01*
X109396006Y-91587002D01*
X109313788Y-91748360D01*
X109313787Y-91748363D01*
X109257829Y-91920589D01*
X109229500Y-92099448D01*
X109229500Y-92280551D01*
X109257829Y-92459410D01*
X109313787Y-92631636D01*
X109313788Y-92631639D01*
X109396006Y-92792997D01*
X109502441Y-92939494D01*
X109502445Y-92939499D01*
X109630500Y-93067554D01*
X109630505Y-93067558D01*
X109699522Y-93117701D01*
X109777006Y-93173996D01*
X109882484Y-93227740D01*
X109938360Y-93256211D01*
X109938363Y-93256212D01*
X110019102Y-93282445D01*
X110110591Y-93312171D01*
X110183639Y-93323740D01*
X110270678Y-93337527D01*
X110333813Y-93367456D01*
X110370744Y-93426768D01*
X110369746Y-93496631D01*
X110331136Y-93554863D01*
X110270678Y-93582473D01*
X110110589Y-93607829D01*
X109938363Y-93663787D01*
X109938360Y-93663788D01*
X109777002Y-93746006D01*
X109630505Y-93852441D01*
X109630500Y-93852445D01*
X109502445Y-93980500D01*
X109502441Y-93980505D01*
X109396006Y-94127002D01*
X109313788Y-94288360D01*
X109313787Y-94288363D01*
X109257829Y-94460589D01*
X109229500Y-94639448D01*
X109229500Y-94820551D01*
X109257829Y-94999410D01*
X109313787Y-95171636D01*
X109313788Y-95171639D01*
X109396006Y-95332997D01*
X109502441Y-95479494D01*
X109502445Y-95479499D01*
X109630500Y-95607554D01*
X109630505Y-95607558D01*
X109699522Y-95657701D01*
X109777006Y-95713996D01*
X109882484Y-95767740D01*
X109938360Y-95796211D01*
X109938363Y-95796212D01*
X110019102Y-95822445D01*
X110110591Y-95852171D01*
X110183639Y-95863740D01*
X110270678Y-95877527D01*
X110333813Y-95907456D01*
X110370744Y-95966768D01*
X110369746Y-96036631D01*
X110331136Y-96094863D01*
X110270678Y-96122473D01*
X110110589Y-96147829D01*
X109938363Y-96203787D01*
X109938360Y-96203788D01*
X109777002Y-96286006D01*
X109630505Y-96392441D01*
X109630500Y-96392445D01*
X109502445Y-96520500D01*
X109502441Y-96520505D01*
X109396006Y-96667002D01*
X109313788Y-96828360D01*
X109313787Y-96828363D01*
X109257829Y-97000589D01*
X109229500Y-97179448D01*
X109229500Y-97360551D01*
X109257829Y-97539410D01*
X109313787Y-97711636D01*
X109313788Y-97711639D01*
X109396006Y-97872997D01*
X109502441Y-98019494D01*
X109502445Y-98019499D01*
X109630500Y-98147554D01*
X109630505Y-98147558D01*
X109699522Y-98197701D01*
X109777006Y-98253996D01*
X109882484Y-98307740D01*
X109938360Y-98336211D01*
X109938363Y-98336212D01*
X110019102Y-98362445D01*
X110110591Y-98392171D01*
X110183639Y-98403740D01*
X110270678Y-98417527D01*
X110333813Y-98447456D01*
X110370744Y-98506768D01*
X110369746Y-98576631D01*
X110331136Y-98634863D01*
X110270678Y-98662473D01*
X110110589Y-98687829D01*
X109938363Y-98743787D01*
X109938360Y-98743788D01*
X109777002Y-98826006D01*
X109630505Y-98932441D01*
X109630500Y-98932445D01*
X109502445Y-99060500D01*
X109502441Y-99060505D01*
X109396006Y-99207002D01*
X109313788Y-99368360D01*
X109313787Y-99368363D01*
X109257829Y-99540589D01*
X109229500Y-99719448D01*
X109229500Y-99900551D01*
X109257829Y-100079410D01*
X109313787Y-100251636D01*
X109313788Y-100251639D01*
X109396006Y-100412997D01*
X109502441Y-100559494D01*
X109502445Y-100559499D01*
X109630500Y-100687554D01*
X109630505Y-100687558D01*
X109699522Y-100737701D01*
X109777006Y-100793996D01*
X109882484Y-100847740D01*
X109938360Y-100876211D01*
X109938363Y-100876212D01*
X110019102Y-100902445D01*
X110110591Y-100932171D01*
X110183639Y-100943740D01*
X110270678Y-100957527D01*
X110333813Y-100987456D01*
X110370744Y-101046768D01*
X110369746Y-101116631D01*
X110331136Y-101174863D01*
X110270678Y-101202473D01*
X110110589Y-101227829D01*
X109938363Y-101283787D01*
X109938360Y-101283788D01*
X109777002Y-101366006D01*
X109630505Y-101472441D01*
X109630500Y-101472445D01*
X109502445Y-101600500D01*
X109502441Y-101600505D01*
X109396006Y-101747002D01*
X109313788Y-101908360D01*
X109313787Y-101908363D01*
X109257829Y-102080589D01*
X109229500Y-102259448D01*
X109229500Y-102440551D01*
X109257829Y-102619410D01*
X109313787Y-102791636D01*
X109313788Y-102791639D01*
X109396006Y-102952997D01*
X109502441Y-103099494D01*
X109502445Y-103099499D01*
X109630500Y-103227554D01*
X109630505Y-103227558D01*
X109699522Y-103277701D01*
X109777006Y-103333996D01*
X109882484Y-103387740D01*
X109938360Y-103416211D01*
X109938363Y-103416212D01*
X110019102Y-103442445D01*
X110110591Y-103472171D01*
X110183639Y-103483740D01*
X110270678Y-103497527D01*
X110333813Y-103527456D01*
X110370744Y-103586768D01*
X110369746Y-103656631D01*
X110331136Y-103714863D01*
X110270678Y-103742473D01*
X110110589Y-103767829D01*
X109938363Y-103823787D01*
X109938360Y-103823788D01*
X109777002Y-103906006D01*
X109630505Y-104012441D01*
X109630500Y-104012445D01*
X109502445Y-104140500D01*
X109502441Y-104140505D01*
X109396006Y-104287002D01*
X109313788Y-104448360D01*
X109313787Y-104448363D01*
X109257829Y-104620589D01*
X109229500Y-104799448D01*
X109229500Y-104980551D01*
X109257829Y-105159410D01*
X109313787Y-105331636D01*
X109313788Y-105331639D01*
X109396006Y-105492997D01*
X109502441Y-105639494D01*
X109502445Y-105639499D01*
X109630500Y-105767554D01*
X109630505Y-105767558D01*
X109743291Y-105849501D01*
X109777006Y-105873996D01*
X109882484Y-105927740D01*
X109938360Y-105956211D01*
X109938363Y-105956212D01*
X110004046Y-105977553D01*
X110110591Y-106012171D01*
X110183639Y-106023740D01*
X110270678Y-106037527D01*
X110333813Y-106067456D01*
X110370744Y-106126768D01*
X110369746Y-106196631D01*
X110331136Y-106254863D01*
X110270678Y-106282473D01*
X110110589Y-106307829D01*
X109938363Y-106363787D01*
X109938360Y-106363788D01*
X109777002Y-106446006D01*
X109630505Y-106552441D01*
X109630500Y-106552445D01*
X109502445Y-106680500D01*
X109502441Y-106680505D01*
X109396006Y-106827002D01*
X109313788Y-106988360D01*
X109313787Y-106988363D01*
X109257829Y-107160589D01*
X109229500Y-107339448D01*
X109229500Y-107520551D01*
X109257829Y-107699410D01*
X109313787Y-107871636D01*
X109313788Y-107871639D01*
X109396006Y-108032997D01*
X109502441Y-108179494D01*
X109502445Y-108179499D01*
X109630500Y-108307554D01*
X109630505Y-108307558D01*
X109699522Y-108357701D01*
X109777006Y-108413996D01*
X109882484Y-108467740D01*
X109938360Y-108496211D01*
X109938363Y-108496212D01*
X110019102Y-108522445D01*
X110110591Y-108552171D01*
X110183639Y-108563740D01*
X110270678Y-108577527D01*
X110333813Y-108607456D01*
X110370744Y-108666768D01*
X110369746Y-108736631D01*
X110331136Y-108794863D01*
X110270678Y-108822473D01*
X110110589Y-108847829D01*
X109938363Y-108903787D01*
X109938360Y-108903788D01*
X109777002Y-108986006D01*
X109630505Y-109092441D01*
X109630500Y-109092445D01*
X109502445Y-109220500D01*
X109502441Y-109220505D01*
X109396006Y-109367002D01*
X109313788Y-109528360D01*
X109313787Y-109528363D01*
X109257829Y-109700589D01*
X109229500Y-109879448D01*
X109229500Y-110060551D01*
X109257829Y-110239410D01*
X109313787Y-110411636D01*
X109313788Y-110411639D01*
X109396006Y-110572997D01*
X109502441Y-110719494D01*
X109502445Y-110719499D01*
X109630500Y-110847554D01*
X109630505Y-110847558D01*
X109758287Y-110940396D01*
X109777006Y-110953996D01*
X109882484Y-111007740D01*
X109938360Y-111036211D01*
X109938363Y-111036212D01*
X110024476Y-111064191D01*
X110110591Y-111092171D01*
X110183639Y-111103740D01*
X110270678Y-111117527D01*
X110333813Y-111147456D01*
X110370744Y-111206768D01*
X110369746Y-111276631D01*
X110331136Y-111334863D01*
X110270678Y-111362473D01*
X110110589Y-111387829D01*
X109938363Y-111443787D01*
X109938360Y-111443788D01*
X109777002Y-111526006D01*
X109630505Y-111632441D01*
X109630500Y-111632445D01*
X109502445Y-111760500D01*
X109502441Y-111760505D01*
X109396006Y-111907002D01*
X109313788Y-112068360D01*
X109313787Y-112068363D01*
X109257829Y-112240589D01*
X109229500Y-112419448D01*
X109229500Y-112600551D01*
X109257829Y-112779410D01*
X109313787Y-112951636D01*
X109313788Y-112951639D01*
X109396006Y-113112997D01*
X109502441Y-113259494D01*
X109502445Y-113259499D01*
X109630500Y-113387554D01*
X109630505Y-113387558D01*
X109758287Y-113480396D01*
X109777006Y-113493996D01*
X109882484Y-113547740D01*
X109938360Y-113576211D01*
X109938363Y-113576212D01*
X110024476Y-113604191D01*
X110110591Y-113632171D01*
X110183639Y-113643740D01*
X110270678Y-113657527D01*
X110333813Y-113687456D01*
X110370744Y-113746768D01*
X110369746Y-113816631D01*
X110331136Y-113874863D01*
X110270678Y-113902473D01*
X110110589Y-113927829D01*
X109938363Y-113983787D01*
X109938360Y-113983788D01*
X109777002Y-114066006D01*
X109630505Y-114172441D01*
X109630500Y-114172445D01*
X109502445Y-114300500D01*
X109502441Y-114300505D01*
X109396006Y-114447002D01*
X109313788Y-114608360D01*
X109313787Y-114608363D01*
X109257829Y-114780589D01*
X109229500Y-114959448D01*
X109229500Y-115140551D01*
X109257829Y-115319410D01*
X109313787Y-115491636D01*
X109313788Y-115491639D01*
X109396006Y-115652997D01*
X109502441Y-115799494D01*
X109502445Y-115799499D01*
X109630500Y-115927554D01*
X109630505Y-115927558D01*
X109758287Y-116020396D01*
X109777006Y-116033996D01*
X109882484Y-116087740D01*
X109938360Y-116116211D01*
X109938363Y-116116212D01*
X110024476Y-116144191D01*
X110110591Y-116172171D01*
X110183639Y-116183740D01*
X110270678Y-116197527D01*
X110333813Y-116227456D01*
X110370744Y-116286768D01*
X110369746Y-116356631D01*
X110331136Y-116414863D01*
X110270678Y-116442473D01*
X110110589Y-116467829D01*
X109938363Y-116523787D01*
X109938360Y-116523788D01*
X109777002Y-116606006D01*
X109630505Y-116712441D01*
X109630500Y-116712445D01*
X109502445Y-116840500D01*
X109502441Y-116840505D01*
X109396006Y-116987002D01*
X109313788Y-117148360D01*
X109313787Y-117148363D01*
X109257829Y-117320589D01*
X109229500Y-117499448D01*
X109229500Y-117680551D01*
X109257829Y-117859410D01*
X109313787Y-118031636D01*
X109313788Y-118031639D01*
X109396006Y-118192997D01*
X109502441Y-118339494D01*
X109502445Y-118339499D01*
X109630500Y-118467554D01*
X109630505Y-118467558D01*
X109758287Y-118560396D01*
X109777006Y-118573996D01*
X109882484Y-118627740D01*
X109938360Y-118656211D01*
X109938363Y-118656212D01*
X110024476Y-118684191D01*
X110110591Y-118712171D01*
X110183639Y-118723740D01*
X110270678Y-118737527D01*
X110333813Y-118767456D01*
X110370744Y-118826768D01*
X110369746Y-118896631D01*
X110331136Y-118954863D01*
X110270678Y-118982473D01*
X110110589Y-119007829D01*
X109938363Y-119063787D01*
X109938360Y-119063788D01*
X109777002Y-119146006D01*
X109630505Y-119252441D01*
X109630500Y-119252445D01*
X109502445Y-119380500D01*
X109502441Y-119380505D01*
X109396006Y-119527002D01*
X109313788Y-119688360D01*
X109313787Y-119688363D01*
X109257829Y-119860589D01*
X109229500Y-120039448D01*
X109229500Y-120220551D01*
X109257829Y-120399410D01*
X109313787Y-120571636D01*
X109313788Y-120571639D01*
X109396006Y-120732997D01*
X109502441Y-120879494D01*
X109502445Y-120879499D01*
X109630500Y-121007554D01*
X109630505Y-121007558D01*
X109702550Y-121059901D01*
X109777006Y-121113996D01*
X109882484Y-121167740D01*
X109938360Y-121196211D01*
X109938363Y-121196212D01*
X110024476Y-121224191D01*
X110110591Y-121252171D01*
X110183639Y-121263740D01*
X110270678Y-121277527D01*
X110333813Y-121307456D01*
X110370744Y-121366768D01*
X110369746Y-121436631D01*
X110331136Y-121494863D01*
X110270678Y-121522473D01*
X110110589Y-121547829D01*
X109938363Y-121603787D01*
X109938360Y-121603788D01*
X109777002Y-121686006D01*
X109630505Y-121792441D01*
X109630500Y-121792445D01*
X109502445Y-121920500D01*
X109502441Y-121920505D01*
X109396006Y-122067002D01*
X109313788Y-122228360D01*
X109313787Y-122228363D01*
X109257829Y-122400589D01*
X109229500Y-122579448D01*
X109229500Y-122760551D01*
X109257829Y-122939410D01*
X109313787Y-123111636D01*
X109313788Y-123111639D01*
X109396006Y-123272997D01*
X109502441Y-123419494D01*
X109502445Y-123419499D01*
X109630500Y-123547554D01*
X109630505Y-123547558D01*
X109702550Y-123599901D01*
X109777006Y-123653996D01*
X109882484Y-123707740D01*
X109938360Y-123736211D01*
X109938363Y-123736212D01*
X110024476Y-123764191D01*
X110110591Y-123792171D01*
X110183639Y-123803740D01*
X110270678Y-123817527D01*
X110333813Y-123847456D01*
X110370744Y-123906768D01*
X110369746Y-123976631D01*
X110331136Y-124034863D01*
X110270678Y-124062473D01*
X110110589Y-124087829D01*
X109938363Y-124143787D01*
X109938360Y-124143788D01*
X109777002Y-124226006D01*
X109630505Y-124332441D01*
X109630500Y-124332445D01*
X109502445Y-124460500D01*
X109502441Y-124460505D01*
X109396006Y-124607002D01*
X109313788Y-124768360D01*
X109313787Y-124768363D01*
X109257829Y-124940589D01*
X109229500Y-125119448D01*
X109229500Y-125300551D01*
X109257829Y-125479410D01*
X109313787Y-125651636D01*
X109313788Y-125651639D01*
X109396006Y-125812997D01*
X109502441Y-125959494D01*
X109502445Y-125959499D01*
X109630500Y-126087554D01*
X109630505Y-126087558D01*
X109758287Y-126180396D01*
X109777006Y-126193996D01*
X109882484Y-126247740D01*
X109938360Y-126276211D01*
X109938363Y-126276212D01*
X110024476Y-126304191D01*
X110110591Y-126332171D01*
X110193429Y-126345291D01*
X110289449Y-126360500D01*
X110289454Y-126360500D01*
X110470551Y-126360500D01*
X110557259Y-126346765D01*
X110649409Y-126332171D01*
X110821639Y-126276211D01*
X110982994Y-126193996D01*
X111129501Y-126087553D01*
X111257553Y-125959501D01*
X111363996Y-125812994D01*
X111446211Y-125651639D01*
X111502171Y-125479409D01*
X111516765Y-125387259D01*
X111530500Y-125300551D01*
X111530500Y-125119448D01*
X111514019Y-125015397D01*
X111502171Y-124940591D01*
X111446211Y-124768361D01*
X111446211Y-124768360D01*
X111417740Y-124712484D01*
X111363996Y-124607006D01*
X111286252Y-124500000D01*
X111257558Y-124460505D01*
X111257554Y-124460500D01*
X111129499Y-124332445D01*
X111129494Y-124332441D01*
X110982997Y-124226006D01*
X110982996Y-124226005D01*
X110982994Y-124226004D01*
X110918207Y-124192993D01*
X110821639Y-124143788D01*
X110821636Y-124143787D01*
X110649410Y-124087829D01*
X110489321Y-124062473D01*
X110426186Y-124032544D01*
X110389255Y-123973232D01*
X110390253Y-123903370D01*
X110428863Y-123845137D01*
X110489321Y-123817527D01*
X110559425Y-123806422D01*
X110649409Y-123792171D01*
X110821639Y-123736211D01*
X110982994Y-123653996D01*
X111129501Y-123547553D01*
X111257553Y-123419501D01*
X111363996Y-123272994D01*
X111446211Y-123111639D01*
X111502171Y-122939409D01*
X111520947Y-122820863D01*
X111530500Y-122760551D01*
X111530500Y-122579448D01*
X111514019Y-122475397D01*
X111502171Y-122400591D01*
X111446211Y-122228361D01*
X111446211Y-122228360D01*
X111417740Y-122172484D01*
X111363996Y-122067006D01*
X111286252Y-121960000D01*
X111257558Y-121920505D01*
X111257554Y-121920500D01*
X111129499Y-121792445D01*
X111129494Y-121792441D01*
X110982997Y-121686006D01*
X110982996Y-121686005D01*
X110982994Y-121686004D01*
X110918207Y-121652993D01*
X110821639Y-121603788D01*
X110821636Y-121603787D01*
X110649410Y-121547829D01*
X110489321Y-121522473D01*
X110426186Y-121492544D01*
X110389255Y-121433232D01*
X110390253Y-121363370D01*
X110428863Y-121305137D01*
X110489321Y-121277527D01*
X110559425Y-121266422D01*
X110649409Y-121252171D01*
X110821639Y-121196211D01*
X110982994Y-121113996D01*
X111129501Y-121007553D01*
X111257553Y-120879501D01*
X111363996Y-120732994D01*
X111446211Y-120571639D01*
X111502171Y-120399409D01*
X111516765Y-120307259D01*
X111530500Y-120220551D01*
X111530500Y-120039448D01*
X111514019Y-119935397D01*
X111502171Y-119860591D01*
X111446211Y-119688361D01*
X111446211Y-119688360D01*
X111417740Y-119632484D01*
X111363996Y-119527006D01*
X111350396Y-119508287D01*
X111257558Y-119380505D01*
X111257554Y-119380500D01*
X111129499Y-119252445D01*
X111129494Y-119252441D01*
X110982997Y-119146006D01*
X110982996Y-119146005D01*
X110982994Y-119146004D01*
X110931300Y-119119664D01*
X110821639Y-119063788D01*
X110821636Y-119063787D01*
X110649410Y-119007829D01*
X110489321Y-118982473D01*
X110426186Y-118952544D01*
X110389255Y-118893232D01*
X110390253Y-118823370D01*
X110428863Y-118765137D01*
X110489321Y-118737527D01*
X110559425Y-118726422D01*
X110649409Y-118712171D01*
X110821639Y-118656211D01*
X110982994Y-118573996D01*
X111129501Y-118467553D01*
X111257553Y-118339501D01*
X111363996Y-118192994D01*
X111446211Y-118031639D01*
X111502171Y-117859409D01*
X111516765Y-117767259D01*
X111530500Y-117680551D01*
X111530500Y-117499448D01*
X111514019Y-117395397D01*
X111502171Y-117320591D01*
X111446211Y-117148361D01*
X111446211Y-117148360D01*
X111417740Y-117092484D01*
X111363996Y-116987006D01*
X111350396Y-116968287D01*
X111257558Y-116840505D01*
X111257554Y-116840500D01*
X111129499Y-116712445D01*
X111129494Y-116712441D01*
X110982997Y-116606006D01*
X110982996Y-116606005D01*
X110982994Y-116606004D01*
X110931300Y-116579664D01*
X110821639Y-116523788D01*
X110821636Y-116523787D01*
X110649410Y-116467829D01*
X110489321Y-116442473D01*
X110426186Y-116412544D01*
X110389255Y-116353232D01*
X110390253Y-116283370D01*
X110428863Y-116225137D01*
X110489321Y-116197527D01*
X110559425Y-116186422D01*
X110649409Y-116172171D01*
X110821639Y-116116211D01*
X110982994Y-116033996D01*
X111129501Y-115927553D01*
X111257553Y-115799501D01*
X111363996Y-115652994D01*
X111446211Y-115491639D01*
X111502171Y-115319409D01*
X111516765Y-115227259D01*
X111530500Y-115140551D01*
X111530500Y-114959448D01*
X111514019Y-114855397D01*
X111502171Y-114780591D01*
X111446211Y-114608361D01*
X111446211Y-114608360D01*
X111417740Y-114552484D01*
X111363996Y-114447006D01*
X111350396Y-114428287D01*
X111257558Y-114300505D01*
X111257554Y-114300500D01*
X111129499Y-114172445D01*
X111129494Y-114172441D01*
X110982997Y-114066006D01*
X110982996Y-114066005D01*
X110982994Y-114066004D01*
X110931300Y-114039664D01*
X110821639Y-113983788D01*
X110821636Y-113983787D01*
X110649410Y-113927829D01*
X110489321Y-113902473D01*
X110426186Y-113872544D01*
X110389255Y-113813232D01*
X110390253Y-113743370D01*
X110428863Y-113685137D01*
X110489321Y-113657527D01*
X110559425Y-113646422D01*
X110649409Y-113632171D01*
X110821639Y-113576211D01*
X110982994Y-113493996D01*
X111129501Y-113387553D01*
X111257553Y-113259501D01*
X111363996Y-113112994D01*
X111446211Y-112951639D01*
X111502171Y-112779409D01*
X111516765Y-112687259D01*
X111530500Y-112600551D01*
X111530500Y-112419448D01*
X111514019Y-112315397D01*
X111502171Y-112240591D01*
X111446211Y-112068361D01*
X111446211Y-112068360D01*
X111417740Y-112012484D01*
X111363996Y-111907006D01*
X111350396Y-111888287D01*
X111257558Y-111760505D01*
X111257554Y-111760500D01*
X111129499Y-111632445D01*
X111129494Y-111632441D01*
X110982997Y-111526006D01*
X110982996Y-111526005D01*
X110982994Y-111526004D01*
X110931300Y-111499664D01*
X110821639Y-111443788D01*
X110821636Y-111443787D01*
X110649410Y-111387829D01*
X110489321Y-111362473D01*
X110426186Y-111332544D01*
X110389255Y-111273232D01*
X110390253Y-111203370D01*
X110428863Y-111145137D01*
X110489321Y-111117527D01*
X110559425Y-111106422D01*
X110649409Y-111092171D01*
X110821639Y-111036211D01*
X110982994Y-110953996D01*
X111129501Y-110847553D01*
X111257553Y-110719501D01*
X111363996Y-110572994D01*
X111446211Y-110411639D01*
X111502171Y-110239409D01*
X111516765Y-110147259D01*
X111530500Y-110060551D01*
X111530500Y-109879448D01*
X111514019Y-109775397D01*
X111502171Y-109700591D01*
X111446211Y-109528361D01*
X111446211Y-109528360D01*
X111417740Y-109472484D01*
X111363996Y-109367006D01*
X111350396Y-109348287D01*
X111257558Y-109220505D01*
X111257554Y-109220500D01*
X111129499Y-109092445D01*
X111129494Y-109092441D01*
X110982997Y-108986006D01*
X110982996Y-108986005D01*
X110982994Y-108986004D01*
X110931300Y-108959664D01*
X110821639Y-108903788D01*
X110821636Y-108903787D01*
X110649410Y-108847829D01*
X110489321Y-108822473D01*
X110426186Y-108792544D01*
X110389255Y-108733232D01*
X110390253Y-108663370D01*
X110428863Y-108605137D01*
X110489321Y-108577527D01*
X110559425Y-108566422D01*
X110649409Y-108552171D01*
X110821639Y-108496211D01*
X110982994Y-108413996D01*
X111129501Y-108307553D01*
X111257553Y-108179501D01*
X111363996Y-108032994D01*
X111446211Y-107871639D01*
X111502171Y-107699409D01*
X111516765Y-107607259D01*
X111530500Y-107520551D01*
X111530500Y-107339448D01*
X111513166Y-107230009D01*
X111502171Y-107160591D01*
X111458635Y-107026598D01*
X111446212Y-106988363D01*
X111446211Y-106988360D01*
X111417740Y-106932484D01*
X111363996Y-106827006D01*
X111350396Y-106808287D01*
X111257558Y-106680505D01*
X111257554Y-106680500D01*
X111129499Y-106552445D01*
X111129494Y-106552441D01*
X110982997Y-106446006D01*
X110982996Y-106446005D01*
X110982994Y-106446004D01*
X110886364Y-106396768D01*
X110821639Y-106363788D01*
X110821636Y-106363787D01*
X110649410Y-106307829D01*
X110489321Y-106282473D01*
X110426186Y-106252544D01*
X110389255Y-106193232D01*
X110390253Y-106123370D01*
X110428863Y-106065137D01*
X110489321Y-106037527D01*
X110559425Y-106026422D01*
X110649409Y-106012171D01*
X110821639Y-105956211D01*
X110982994Y-105873996D01*
X111129501Y-105767553D01*
X111257553Y-105639501D01*
X111363996Y-105492994D01*
X111446211Y-105331639D01*
X111502171Y-105159409D01*
X111521474Y-105037535D01*
X111530500Y-104980551D01*
X111530500Y-104799448D01*
X111510767Y-104674863D01*
X111502171Y-104620591D01*
X111458635Y-104486598D01*
X111446212Y-104448363D01*
X111446211Y-104448360D01*
X111416910Y-104390854D01*
X111363996Y-104287006D01*
X111350396Y-104268287D01*
X111257558Y-104140505D01*
X111257554Y-104140500D01*
X111129499Y-104012445D01*
X111129494Y-104012441D01*
X110982997Y-103906006D01*
X110982996Y-103906005D01*
X110982994Y-103906004D01*
X110904494Y-103866006D01*
X110821639Y-103823788D01*
X110821636Y-103823787D01*
X110649410Y-103767829D01*
X110489321Y-103742473D01*
X110426186Y-103712544D01*
X110389255Y-103653232D01*
X110390253Y-103583370D01*
X110428863Y-103525137D01*
X110489321Y-103497527D01*
X110559425Y-103486422D01*
X110649409Y-103472171D01*
X110821639Y-103416211D01*
X110982994Y-103333996D01*
X111129501Y-103227553D01*
X111257553Y-103099501D01*
X111363996Y-102952994D01*
X111446211Y-102791639D01*
X111502171Y-102619409D01*
X111516765Y-102527259D01*
X111530500Y-102440551D01*
X111530500Y-102259448D01*
X111514019Y-102155397D01*
X111502171Y-102080591D01*
X111458635Y-101946598D01*
X111446212Y-101908363D01*
X111446211Y-101908360D01*
X111417740Y-101852484D01*
X111363996Y-101747006D01*
X111350396Y-101728287D01*
X111257558Y-101600505D01*
X111257554Y-101600500D01*
X111129499Y-101472445D01*
X111129494Y-101472441D01*
X110982997Y-101366006D01*
X110982996Y-101366005D01*
X110982994Y-101366004D01*
X110891551Y-101319411D01*
X110821639Y-101283788D01*
X110821636Y-101283787D01*
X110649410Y-101227829D01*
X110489321Y-101202473D01*
X110426186Y-101172544D01*
X110389255Y-101113232D01*
X110390253Y-101043370D01*
X110428863Y-100985137D01*
X110489321Y-100957527D01*
X110562569Y-100945925D01*
X110649409Y-100932171D01*
X110821639Y-100876211D01*
X110982994Y-100793996D01*
X111129501Y-100687553D01*
X111257553Y-100559501D01*
X111363996Y-100412994D01*
X111446211Y-100251639D01*
X111502171Y-100079409D01*
X111517916Y-99980000D01*
X111530500Y-99900551D01*
X111530500Y-99719448D01*
X111514019Y-99615397D01*
X111502171Y-99540591D01*
X111458635Y-99406598D01*
X111446212Y-99368363D01*
X111446211Y-99368360D01*
X111417740Y-99312484D01*
X111363996Y-99207006D01*
X111350396Y-99188287D01*
X111257558Y-99060505D01*
X111257554Y-99060500D01*
X111129499Y-98932445D01*
X111129494Y-98932441D01*
X110982997Y-98826006D01*
X110982996Y-98826005D01*
X110982994Y-98826004D01*
X110891551Y-98779411D01*
X110821639Y-98743788D01*
X110821636Y-98743787D01*
X110649410Y-98687829D01*
X110489321Y-98662473D01*
X110426186Y-98632544D01*
X110389255Y-98573232D01*
X110390253Y-98503370D01*
X110428863Y-98445137D01*
X110489321Y-98417527D01*
X110559425Y-98406422D01*
X110649409Y-98392171D01*
X110821639Y-98336211D01*
X110982994Y-98253996D01*
X111129501Y-98147553D01*
X111257553Y-98019501D01*
X111363996Y-97872994D01*
X111446211Y-97711639D01*
X111502171Y-97539409D01*
X111530078Y-97363213D01*
X111530500Y-97360551D01*
X111530500Y-97179448D01*
X111513810Y-97074075D01*
X111502171Y-97000591D01*
X111458635Y-96866598D01*
X111446212Y-96828363D01*
X111446211Y-96828360D01*
X111417740Y-96772484D01*
X111363996Y-96667006D01*
X111350396Y-96648287D01*
X111257558Y-96520505D01*
X111257554Y-96520500D01*
X111129499Y-96392445D01*
X111129494Y-96392441D01*
X110982997Y-96286006D01*
X110982996Y-96286005D01*
X110982994Y-96286004D01*
X110891551Y-96239411D01*
X110821639Y-96203788D01*
X110821636Y-96203787D01*
X110649410Y-96147829D01*
X110489321Y-96122473D01*
X110426186Y-96092544D01*
X110389255Y-96033232D01*
X110390253Y-95963370D01*
X110428863Y-95905137D01*
X110489321Y-95877527D01*
X110559425Y-95866422D01*
X110649409Y-95852171D01*
X110821639Y-95796211D01*
X110982994Y-95713996D01*
X111129501Y-95607553D01*
X111257553Y-95479501D01*
X111363996Y-95332994D01*
X111446211Y-95171639D01*
X111502171Y-94999409D01*
X111516765Y-94907259D01*
X111530500Y-94820551D01*
X111530500Y-94639448D01*
X111514019Y-94535397D01*
X111502171Y-94460591D01*
X111458635Y-94326598D01*
X111446212Y-94288363D01*
X111446211Y-94288360D01*
X111379711Y-94157849D01*
X111363996Y-94127006D01*
X111329849Y-94080006D01*
X111257558Y-93980505D01*
X111257554Y-93980500D01*
X111129499Y-93852445D01*
X111129494Y-93852441D01*
X110982997Y-93746006D01*
X110982996Y-93746005D01*
X110982994Y-93746004D01*
X110891551Y-93699411D01*
X110821639Y-93663788D01*
X110821636Y-93663787D01*
X110649410Y-93607829D01*
X110489321Y-93582473D01*
X110426186Y-93552544D01*
X110389255Y-93493232D01*
X110390253Y-93423370D01*
X110428863Y-93365137D01*
X110489321Y-93337527D01*
X110559425Y-93326422D01*
X110649409Y-93312171D01*
X110821639Y-93256211D01*
X110982994Y-93173996D01*
X111129501Y-93067553D01*
X111257553Y-92939501D01*
X111363996Y-92792994D01*
X111446211Y-92631639D01*
X111502171Y-92459409D01*
X111516765Y-92367259D01*
X111530500Y-92280551D01*
X111530500Y-92099448D01*
X111508025Y-91957553D01*
X111502171Y-91920591D01*
X111458635Y-91786598D01*
X111446212Y-91748363D01*
X111446211Y-91748360D01*
X111412905Y-91682994D01*
X111363996Y-91587006D01*
X111350396Y-91568287D01*
X111257558Y-91440505D01*
X111257554Y-91440500D01*
X111129499Y-91312445D01*
X111129494Y-91312441D01*
X110982997Y-91206006D01*
X110982996Y-91206005D01*
X110982994Y-91206004D01*
X110913414Y-91170551D01*
X110821639Y-91123788D01*
X110821636Y-91123787D01*
X110649410Y-91067829D01*
X110489321Y-91042473D01*
X110426186Y-91012544D01*
X110389255Y-90953232D01*
X110390253Y-90883370D01*
X110428863Y-90825137D01*
X110489321Y-90797527D01*
X110559425Y-90786422D01*
X110649409Y-90772171D01*
X110821639Y-90716211D01*
X110982994Y-90633996D01*
X111129501Y-90527553D01*
X111257553Y-90399501D01*
X111363996Y-90252994D01*
X111446211Y-90091639D01*
X111502171Y-89919409D01*
X111524763Y-89776768D01*
X111530500Y-89740551D01*
X111530500Y-89559448D01*
X111508025Y-89417553D01*
X111502171Y-89380591D01*
X111458635Y-89246598D01*
X111446212Y-89208363D01*
X111446211Y-89208360D01*
X111412905Y-89142994D01*
X111363996Y-89047006D01*
X111350396Y-89028287D01*
X111257558Y-88900505D01*
X111257554Y-88900500D01*
X111129499Y-88772445D01*
X111129494Y-88772441D01*
X110982997Y-88666006D01*
X110982996Y-88666005D01*
X110982994Y-88666004D01*
X110913414Y-88630551D01*
X110821639Y-88583788D01*
X110821636Y-88583787D01*
X110649410Y-88527829D01*
X110489321Y-88502473D01*
X110426186Y-88472544D01*
X110389255Y-88413232D01*
X110390253Y-88343370D01*
X110428863Y-88285137D01*
X110489321Y-88257527D01*
X110559425Y-88246422D01*
X110649409Y-88232171D01*
X110821639Y-88176211D01*
X110982994Y-88093996D01*
X111129501Y-87987553D01*
X111257553Y-87859501D01*
X111363996Y-87712994D01*
X111446211Y-87551639D01*
X111502171Y-87379409D01*
X111526946Y-87222987D01*
X111530500Y-87200551D01*
X111530500Y-87019448D01*
X111510770Y-86894882D01*
X111502171Y-86840591D01*
X111458635Y-86706598D01*
X111446212Y-86668363D01*
X111446211Y-86668360D01*
X111417740Y-86612484D01*
X111363996Y-86507006D01*
X111350396Y-86488287D01*
X111257558Y-86360505D01*
X111257554Y-86360500D01*
X111129499Y-86232445D01*
X111129494Y-86232441D01*
X110982997Y-86126006D01*
X110982996Y-86126005D01*
X110982994Y-86126004D01*
X110891551Y-86079411D01*
X110821639Y-86043788D01*
X110821636Y-86043787D01*
X110649410Y-85987829D01*
X110489321Y-85962473D01*
X110426186Y-85932544D01*
X110389255Y-85873232D01*
X110390253Y-85803370D01*
X110428863Y-85745137D01*
X110489321Y-85717527D01*
X110559425Y-85706422D01*
X110649409Y-85692171D01*
X110821639Y-85636211D01*
X110982994Y-85553996D01*
X111129501Y-85447553D01*
X111257553Y-85319501D01*
X111363996Y-85172994D01*
X111446211Y-85011639D01*
X111502171Y-84839409D01*
X111516765Y-84747259D01*
X111530500Y-84660551D01*
X111530500Y-84479448D01*
X111514019Y-84375397D01*
X111502171Y-84300591D01*
X111458635Y-84166598D01*
X111446212Y-84128363D01*
X111446211Y-84128360D01*
X111417740Y-84072484D01*
X111363996Y-83967006D01*
X111350396Y-83948287D01*
X111257558Y-83820505D01*
X111257554Y-83820500D01*
X111129499Y-83692445D01*
X111129494Y-83692441D01*
X110982997Y-83586006D01*
X110982996Y-83586005D01*
X110982994Y-83586004D01*
X110878441Y-83532731D01*
X110821639Y-83503788D01*
X110821636Y-83503787D01*
X110649410Y-83447829D01*
X110489321Y-83422473D01*
X110426186Y-83392544D01*
X110389255Y-83333232D01*
X110390253Y-83263370D01*
X110428863Y-83205137D01*
X110489321Y-83177527D01*
X110559425Y-83166422D01*
X110649409Y-83152171D01*
X110821639Y-83096211D01*
X110982994Y-83013996D01*
X111129501Y-82907553D01*
X111257553Y-82779501D01*
X111363996Y-82632994D01*
X111446211Y-82471639D01*
X111502171Y-82299409D01*
X111516765Y-82207259D01*
X111530500Y-82120551D01*
X111530500Y-81939448D01*
X111514019Y-81835397D01*
X111502171Y-81760591D01*
X111458635Y-81626598D01*
X111446212Y-81588363D01*
X111446211Y-81588360D01*
X111417740Y-81532484D01*
X111363996Y-81427006D01*
X111350396Y-81408287D01*
X111257558Y-81280505D01*
X111257554Y-81280500D01*
X111129499Y-81152445D01*
X111129494Y-81152441D01*
X110982997Y-81046006D01*
X110982996Y-81046005D01*
X110982994Y-81046004D01*
X110891551Y-80999411D01*
X110821639Y-80963788D01*
X110821636Y-80963787D01*
X110649410Y-80907829D01*
X110489321Y-80882473D01*
X110426186Y-80852544D01*
X110389255Y-80793232D01*
X110390253Y-80723370D01*
X110428863Y-80665137D01*
X110489321Y-80637527D01*
X110559425Y-80626422D01*
X110649409Y-80612171D01*
X110821639Y-80556211D01*
X110982994Y-80473996D01*
X111129501Y-80367553D01*
X111257553Y-80239501D01*
X111363996Y-80092994D01*
X111446211Y-79931639D01*
X111502171Y-79759409D01*
X111516765Y-79667259D01*
X111530500Y-79580551D01*
X111530500Y-79399448D01*
X111514019Y-79295397D01*
X111502171Y-79220591D01*
X111458635Y-79086598D01*
X111446212Y-79048363D01*
X111446211Y-79048360D01*
X111417740Y-78992484D01*
X111363996Y-78887006D01*
X111350396Y-78868287D01*
X111257558Y-78740505D01*
X111257554Y-78740500D01*
X111129499Y-78612445D01*
X111129494Y-78612441D01*
X110982997Y-78506006D01*
X110982996Y-78506005D01*
X110982994Y-78506004D01*
X110891551Y-78459411D01*
X110821639Y-78423788D01*
X110821636Y-78423787D01*
X110649410Y-78367829D01*
X110489321Y-78342473D01*
X110426186Y-78312544D01*
X110389255Y-78253232D01*
X110390253Y-78183370D01*
X110428863Y-78125137D01*
X110489321Y-78097527D01*
X110559425Y-78086422D01*
X110649409Y-78072171D01*
X110821639Y-78016211D01*
X110982994Y-77933996D01*
X111129501Y-77827553D01*
X111257553Y-77699501D01*
X111363996Y-77552994D01*
X111446211Y-77391639D01*
X111502171Y-77219409D01*
X111516765Y-77127259D01*
X111530500Y-77040551D01*
X111530500Y-76859448D01*
X111514019Y-76755397D01*
X111502171Y-76680591D01*
X111458635Y-76546598D01*
X111446212Y-76508363D01*
X111446211Y-76508360D01*
X111416193Y-76449448D01*
X111363996Y-76347006D01*
X111308476Y-76270589D01*
X111257558Y-76200505D01*
X111257554Y-76200500D01*
X111129499Y-76072445D01*
X111129494Y-76072441D01*
X110982997Y-75966006D01*
X110982996Y-75966005D01*
X110982994Y-75966004D01*
X110891551Y-75919411D01*
X110821639Y-75883788D01*
X110821636Y-75883787D01*
X110649410Y-75827829D01*
X110489321Y-75802473D01*
X110426186Y-75772544D01*
X110389255Y-75713232D01*
X110390253Y-75643370D01*
X110428863Y-75585137D01*
X110489321Y-75557527D01*
X110559425Y-75546422D01*
X110649409Y-75532171D01*
X110821639Y-75476211D01*
X110982994Y-75393996D01*
X111129501Y-75287553D01*
X111257553Y-75159501D01*
X111363996Y-75012994D01*
X111446211Y-74851639D01*
X111502171Y-74679409D01*
X111519266Y-74571478D01*
X111530500Y-74500551D01*
X111530500Y-74319448D01*
X111514019Y-74215397D01*
X111502171Y-74140591D01*
X111458635Y-74006598D01*
X111446212Y-73968363D01*
X111446211Y-73968360D01*
X111445465Y-73966895D01*
X113701099Y-73966895D01*
X113728018Y-74102222D01*
X113728021Y-74102232D01*
X113780821Y-74229704D01*
X113780828Y-74229717D01*
X113857485Y-74344441D01*
X113857488Y-74344445D01*
X113955054Y-74442011D01*
X113955058Y-74442014D01*
X114069782Y-74518671D01*
X114069795Y-74518678D01*
X114197267Y-74571478D01*
X114197272Y-74571480D01*
X114197276Y-74571480D01*
X114197277Y-74571481D01*
X114332604Y-74598400D01*
X114332607Y-74598400D01*
X114470595Y-74598400D01*
X114561641Y-74580289D01*
X114605928Y-74571480D01*
X114733411Y-74518675D01*
X114848142Y-74442014D01*
X114945714Y-74344442D01*
X115022375Y-74229711D01*
X115075180Y-74102228D01*
X115094202Y-74006598D01*
X115102100Y-73966895D01*
X115102100Y-73828904D01*
X115075181Y-73693577D01*
X115075180Y-73693576D01*
X115075180Y-73693572D01*
X115041973Y-73613402D01*
X115022378Y-73566095D01*
X115022371Y-73566082D01*
X114945714Y-73451358D01*
X114945711Y-73451354D01*
X114848145Y-73353788D01*
X114848141Y-73353785D01*
X114733417Y-73277128D01*
X114733404Y-73277121D01*
X114605932Y-73224321D01*
X114605922Y-73224318D01*
X114470595Y-73197400D01*
X114470593Y-73197400D01*
X114332607Y-73197400D01*
X114332605Y-73197400D01*
X114197277Y-73224318D01*
X114197267Y-73224321D01*
X114069795Y-73277121D01*
X114069782Y-73277128D01*
X113955058Y-73353785D01*
X113955054Y-73353788D01*
X113857488Y-73451354D01*
X113857485Y-73451358D01*
X113780828Y-73566082D01*
X113780821Y-73566095D01*
X113728021Y-73693567D01*
X113728018Y-73693577D01*
X113701100Y-73828904D01*
X113701100Y-73828907D01*
X113701100Y-73966893D01*
X113701100Y-73966895D01*
X113701099Y-73966895D01*
X111445465Y-73966895D01*
X111400735Y-73879110D01*
X111375155Y-73828907D01*
X111363996Y-73807006D01*
X111350396Y-73788287D01*
X111257558Y-73660505D01*
X111257554Y-73660500D01*
X111129499Y-73532445D01*
X111129494Y-73532441D01*
X110982997Y-73426006D01*
X110982996Y-73426005D01*
X110982994Y-73426004D01*
X110891551Y-73379411D01*
X110821639Y-73343788D01*
X110821636Y-73343787D01*
X110649410Y-73287829D01*
X110489321Y-73262473D01*
X110426186Y-73232544D01*
X110389255Y-73173232D01*
X110390253Y-73103370D01*
X110428863Y-73045137D01*
X110489321Y-73017527D01*
X110559425Y-73006422D01*
X110649409Y-72992171D01*
X110821639Y-72936211D01*
X110982994Y-72853996D01*
X111129501Y-72747553D01*
X111257553Y-72619501D01*
X111363996Y-72472994D01*
X111446211Y-72311639D01*
X111502171Y-72139409D01*
X111516765Y-72047259D01*
X111530500Y-71960551D01*
X111530500Y-71779448D01*
X111514019Y-71675397D01*
X111502171Y-71600591D01*
X111458635Y-71466598D01*
X111446212Y-71428363D01*
X111446211Y-71428360D01*
X111417740Y-71372484D01*
X111363996Y-71267006D01*
X111350396Y-71248287D01*
X111257558Y-71120505D01*
X111257554Y-71120500D01*
X111129499Y-70992445D01*
X111129494Y-70992441D01*
X110982997Y-70886006D01*
X110982996Y-70886005D01*
X110982994Y-70886004D01*
X110931300Y-70859664D01*
X110821639Y-70803788D01*
X110821636Y-70803787D01*
X110649410Y-70747829D01*
X110489321Y-70722473D01*
X110426186Y-70692544D01*
X110389255Y-70633232D01*
X110390253Y-70563370D01*
X110428863Y-70505137D01*
X110489321Y-70477527D01*
X110559425Y-70466422D01*
X110649409Y-70452171D01*
X110821639Y-70396211D01*
X110982994Y-70313996D01*
X111129501Y-70207553D01*
X111257553Y-70079501D01*
X111363996Y-69932994D01*
X111446211Y-69771639D01*
X111502171Y-69599409D01*
X111516765Y-69507259D01*
X111530500Y-69420551D01*
X111530500Y-69239448D01*
X124469500Y-69239448D01*
X124469500Y-69420551D01*
X124497829Y-69599410D01*
X124553787Y-69771636D01*
X124553788Y-69771639D01*
X124636006Y-69932997D01*
X124742441Y-70079494D01*
X124742445Y-70079499D01*
X124870500Y-70207554D01*
X124870505Y-70207558D01*
X124998287Y-70300396D01*
X125017006Y-70313996D01*
X125122484Y-70367740D01*
X125178360Y-70396211D01*
X125178363Y-70396212D01*
X125264476Y-70424191D01*
X125350591Y-70452171D01*
X125423639Y-70463740D01*
X125510678Y-70477527D01*
X125573813Y-70507456D01*
X125610744Y-70566768D01*
X125609746Y-70636631D01*
X125571136Y-70694863D01*
X125510678Y-70722473D01*
X125350589Y-70747829D01*
X125178363Y-70803787D01*
X125178360Y-70803788D01*
X125017002Y-70886006D01*
X124870505Y-70992441D01*
X124870500Y-70992445D01*
X124742445Y-71120500D01*
X124742441Y-71120505D01*
X124636006Y-71267002D01*
X124553788Y-71428360D01*
X124553787Y-71428363D01*
X124497829Y-71600589D01*
X124469500Y-71779448D01*
X124469500Y-71960551D01*
X124497829Y-72139410D01*
X124553787Y-72311636D01*
X124553788Y-72311639D01*
X124636006Y-72472997D01*
X124742441Y-72619494D01*
X124742445Y-72619499D01*
X124870500Y-72747554D01*
X124870505Y-72747558D01*
X124939522Y-72797701D01*
X125017006Y-72853996D01*
X125102962Y-72897793D01*
X125178360Y-72936211D01*
X125178363Y-72936212D01*
X125259102Y-72962445D01*
X125350591Y-72992171D01*
X125423639Y-73003740D01*
X125510678Y-73017527D01*
X125573813Y-73047456D01*
X125610744Y-73106768D01*
X125609746Y-73176631D01*
X125571136Y-73234863D01*
X125510678Y-73262473D01*
X125350589Y-73287829D01*
X125178363Y-73343787D01*
X125178360Y-73343788D01*
X125017002Y-73426006D01*
X124870505Y-73532441D01*
X124870500Y-73532445D01*
X124742445Y-73660500D01*
X124742441Y-73660505D01*
X124636006Y-73807002D01*
X124553788Y-73968360D01*
X124553787Y-73968363D01*
X124497829Y-74140589D01*
X124469500Y-74319448D01*
X124469500Y-74500551D01*
X124497829Y-74679410D01*
X124553787Y-74851636D01*
X124553788Y-74851639D01*
X124636006Y-75012997D01*
X124742441Y-75159494D01*
X124742445Y-75159499D01*
X124870500Y-75287554D01*
X124870505Y-75287558D01*
X124979907Y-75367042D01*
X125017006Y-75393996D01*
X125122484Y-75447740D01*
X125178360Y-75476211D01*
X125178363Y-75476212D01*
X125259102Y-75502445D01*
X125350591Y-75532171D01*
X125423639Y-75543740D01*
X125510678Y-75557527D01*
X125573813Y-75587456D01*
X125610744Y-75646768D01*
X125609746Y-75716631D01*
X125571136Y-75774863D01*
X125510678Y-75802473D01*
X125350589Y-75827829D01*
X125178363Y-75883787D01*
X125178360Y-75883788D01*
X125017002Y-75966006D01*
X124870505Y-76072441D01*
X124870500Y-76072445D01*
X124742445Y-76200500D01*
X124742441Y-76200505D01*
X124636006Y-76347002D01*
X124553788Y-76508360D01*
X124553787Y-76508363D01*
X124497829Y-76680589D01*
X124469500Y-76859448D01*
X124469500Y-77040551D01*
X124497829Y-77219410D01*
X124553787Y-77391636D01*
X124553788Y-77391639D01*
X124636006Y-77552997D01*
X124742441Y-77699494D01*
X124742445Y-77699499D01*
X124870500Y-77827554D01*
X124870505Y-77827558D01*
X124939522Y-77877701D01*
X125017006Y-77933996D01*
X125122484Y-77987740D01*
X125178360Y-78016211D01*
X125178363Y-78016212D01*
X125259102Y-78042445D01*
X125350591Y-78072171D01*
X125423639Y-78083740D01*
X125510678Y-78097527D01*
X125573813Y-78127456D01*
X125610744Y-78186768D01*
X125609746Y-78256631D01*
X125571136Y-78314863D01*
X125510678Y-78342473D01*
X125350589Y-78367829D01*
X125178363Y-78423787D01*
X125178360Y-78423788D01*
X125017002Y-78506006D01*
X124870505Y-78612441D01*
X124870500Y-78612445D01*
X124742445Y-78740500D01*
X124742441Y-78740505D01*
X124636006Y-78887002D01*
X124553788Y-79048360D01*
X124553787Y-79048363D01*
X124497829Y-79220589D01*
X124469500Y-79399448D01*
X124469500Y-79580551D01*
X124497829Y-79759410D01*
X124553787Y-79931636D01*
X124553788Y-79931639D01*
X124636006Y-80092997D01*
X124742441Y-80239494D01*
X124742445Y-80239499D01*
X124870500Y-80367554D01*
X124870505Y-80367558D01*
X124939522Y-80417701D01*
X125017006Y-80473996D01*
X125122484Y-80527740D01*
X125178360Y-80556211D01*
X125178363Y-80556212D01*
X125259102Y-80582445D01*
X125350591Y-80612171D01*
X125423639Y-80623740D01*
X125510678Y-80637527D01*
X125573813Y-80667456D01*
X125610744Y-80726768D01*
X125609746Y-80796631D01*
X125571136Y-80854863D01*
X125510678Y-80882473D01*
X125350589Y-80907829D01*
X125178363Y-80963787D01*
X125178360Y-80963788D01*
X125017002Y-81046006D01*
X124870505Y-81152441D01*
X124870500Y-81152445D01*
X124742445Y-81280500D01*
X124742441Y-81280505D01*
X124636006Y-81427002D01*
X124553788Y-81588360D01*
X124553787Y-81588363D01*
X124497829Y-81760589D01*
X124469500Y-81939448D01*
X124469500Y-82120551D01*
X124497829Y-82299410D01*
X124553787Y-82471636D01*
X124553788Y-82471639D01*
X124636006Y-82632997D01*
X124742441Y-82779494D01*
X124742445Y-82779499D01*
X124870500Y-82907554D01*
X124870505Y-82907558D01*
X124939522Y-82957701D01*
X125017006Y-83013996D01*
X125122484Y-83067740D01*
X125178360Y-83096211D01*
X125178363Y-83096212D01*
X125251162Y-83119865D01*
X125350591Y-83152171D01*
X125423639Y-83163740D01*
X125510678Y-83177527D01*
X125573813Y-83207456D01*
X125610744Y-83266768D01*
X125609746Y-83336631D01*
X125571136Y-83394863D01*
X125510678Y-83422473D01*
X125350589Y-83447829D01*
X125178363Y-83503787D01*
X125178360Y-83503788D01*
X125017002Y-83586006D01*
X124870505Y-83692441D01*
X124870500Y-83692445D01*
X124742445Y-83820500D01*
X124742441Y-83820505D01*
X124636006Y-83967002D01*
X124553788Y-84128360D01*
X124553787Y-84128363D01*
X124497829Y-84300589D01*
X124469500Y-84479448D01*
X124469500Y-84660551D01*
X124497829Y-84839410D01*
X124553787Y-85011636D01*
X124553788Y-85011639D01*
X124636006Y-85172997D01*
X124742441Y-85319494D01*
X124742445Y-85319499D01*
X124870500Y-85447554D01*
X124870505Y-85447558D01*
X124998287Y-85540396D01*
X125017006Y-85553996D01*
X125122484Y-85607740D01*
X125178360Y-85636211D01*
X125178363Y-85636212D01*
X125197895Y-85642558D01*
X125350591Y-85692171D01*
X125423639Y-85703740D01*
X125510678Y-85717527D01*
X125573813Y-85747456D01*
X125610744Y-85806768D01*
X125609746Y-85876631D01*
X125571136Y-85934863D01*
X125510678Y-85962473D01*
X125350589Y-85987829D01*
X125178363Y-86043787D01*
X125178360Y-86043788D01*
X125017002Y-86126006D01*
X124870505Y-86232441D01*
X124870500Y-86232445D01*
X124742445Y-86360500D01*
X124742441Y-86360505D01*
X124636006Y-86507002D01*
X124553788Y-86668360D01*
X124553787Y-86668363D01*
X124497829Y-86840589D01*
X124469500Y-87019448D01*
X124469500Y-87200551D01*
X124497829Y-87379410D01*
X124553787Y-87551636D01*
X124553788Y-87551639D01*
X124636006Y-87712997D01*
X124742441Y-87859494D01*
X124742445Y-87859499D01*
X124870500Y-87987554D01*
X124870505Y-87987558D01*
X124939522Y-88037701D01*
X125017006Y-88093996D01*
X125122484Y-88147740D01*
X125178360Y-88176211D01*
X125178363Y-88176212D01*
X125259102Y-88202445D01*
X125350591Y-88232171D01*
X125423639Y-88243740D01*
X125510678Y-88257527D01*
X125573813Y-88287456D01*
X125610744Y-88346768D01*
X125609746Y-88416631D01*
X125571136Y-88474863D01*
X125510678Y-88502473D01*
X125350589Y-88527829D01*
X125178363Y-88583787D01*
X125178360Y-88583788D01*
X125017002Y-88666006D01*
X124870505Y-88772441D01*
X124870500Y-88772445D01*
X124742445Y-88900500D01*
X124742441Y-88900505D01*
X124636006Y-89047002D01*
X124553788Y-89208360D01*
X124553787Y-89208363D01*
X124497829Y-89380589D01*
X124469500Y-89559448D01*
X124469500Y-89740551D01*
X124497829Y-89919410D01*
X124553787Y-90091636D01*
X124553788Y-90091639D01*
X124636006Y-90252997D01*
X124742441Y-90399494D01*
X124742445Y-90399499D01*
X124870500Y-90527554D01*
X124870505Y-90527558D01*
X124939522Y-90577701D01*
X125017006Y-90633996D01*
X125122484Y-90687740D01*
X125178360Y-90716211D01*
X125178363Y-90716212D01*
X125259102Y-90742445D01*
X125350591Y-90772171D01*
X125423639Y-90783740D01*
X125510678Y-90797527D01*
X125573813Y-90827456D01*
X125610744Y-90886768D01*
X125609746Y-90956631D01*
X125571136Y-91014863D01*
X125510678Y-91042473D01*
X125350589Y-91067829D01*
X125178363Y-91123787D01*
X125178360Y-91123788D01*
X125017002Y-91206006D01*
X124870505Y-91312441D01*
X124870500Y-91312445D01*
X124742445Y-91440500D01*
X124742441Y-91440505D01*
X124636006Y-91587002D01*
X124553788Y-91748360D01*
X124553787Y-91748363D01*
X124497829Y-91920589D01*
X124469500Y-92099448D01*
X124469500Y-92280551D01*
X124497829Y-92459410D01*
X124553787Y-92631636D01*
X124553788Y-92631639D01*
X124636006Y-92792997D01*
X124742441Y-92939494D01*
X124742445Y-92939499D01*
X124870500Y-93067554D01*
X124870505Y-93067558D01*
X124939522Y-93117701D01*
X125017006Y-93173996D01*
X125122484Y-93227740D01*
X125178360Y-93256211D01*
X125178363Y-93256212D01*
X125259102Y-93282445D01*
X125350591Y-93312171D01*
X125423639Y-93323740D01*
X125510678Y-93337527D01*
X125573813Y-93367456D01*
X125610744Y-93426768D01*
X125609746Y-93496631D01*
X125571136Y-93554863D01*
X125510678Y-93582473D01*
X125350589Y-93607829D01*
X125178363Y-93663787D01*
X125178360Y-93663788D01*
X125017002Y-93746006D01*
X124870505Y-93852441D01*
X124870500Y-93852445D01*
X124742445Y-93980500D01*
X124742441Y-93980505D01*
X124636006Y-94127002D01*
X124553788Y-94288360D01*
X124553787Y-94288363D01*
X124497829Y-94460589D01*
X124469500Y-94639448D01*
X124469500Y-94820551D01*
X124497829Y-94999410D01*
X124553787Y-95171636D01*
X124553788Y-95171639D01*
X124636006Y-95332997D01*
X124742441Y-95479494D01*
X124742445Y-95479499D01*
X124870500Y-95607554D01*
X124870505Y-95607558D01*
X124939522Y-95657701D01*
X125017006Y-95713996D01*
X125122484Y-95767740D01*
X125178360Y-95796211D01*
X125178363Y-95796212D01*
X125259102Y-95822445D01*
X125350591Y-95852171D01*
X125423639Y-95863740D01*
X125510678Y-95877527D01*
X125573813Y-95907456D01*
X125610744Y-95966768D01*
X125609746Y-96036631D01*
X125571136Y-96094863D01*
X125510678Y-96122473D01*
X125350589Y-96147829D01*
X125178363Y-96203787D01*
X125178360Y-96203788D01*
X125017002Y-96286006D01*
X124870505Y-96392441D01*
X124870500Y-96392445D01*
X124742445Y-96520500D01*
X124742441Y-96520505D01*
X124636006Y-96667002D01*
X124553788Y-96828360D01*
X124553787Y-96828363D01*
X124497829Y-97000589D01*
X124469500Y-97179448D01*
X124469500Y-97360551D01*
X124497829Y-97539410D01*
X124553787Y-97711636D01*
X124553788Y-97711639D01*
X124636006Y-97872997D01*
X124742441Y-98019494D01*
X124742445Y-98019499D01*
X124870500Y-98147554D01*
X124870505Y-98147558D01*
X124939522Y-98197701D01*
X125017006Y-98253996D01*
X125122484Y-98307740D01*
X125178360Y-98336211D01*
X125178363Y-98336212D01*
X125259102Y-98362445D01*
X125350591Y-98392171D01*
X125423639Y-98403740D01*
X125510678Y-98417527D01*
X125573813Y-98447456D01*
X125610744Y-98506768D01*
X125609746Y-98576631D01*
X125571136Y-98634863D01*
X125510678Y-98662473D01*
X125350589Y-98687829D01*
X125178363Y-98743787D01*
X125178360Y-98743788D01*
X125017002Y-98826006D01*
X124870505Y-98932441D01*
X124870500Y-98932445D01*
X124742445Y-99060500D01*
X124742441Y-99060505D01*
X124636006Y-99207002D01*
X124553788Y-99368360D01*
X124553787Y-99368363D01*
X124497829Y-99540589D01*
X124469500Y-99719448D01*
X124469500Y-99900551D01*
X124497829Y-100079410D01*
X124553787Y-100251636D01*
X124553788Y-100251639D01*
X124636006Y-100412997D01*
X124742441Y-100559494D01*
X124742445Y-100559499D01*
X124870500Y-100687554D01*
X124870505Y-100687558D01*
X124939522Y-100737701D01*
X125017006Y-100793996D01*
X125122484Y-100847740D01*
X125178360Y-100876211D01*
X125178363Y-100876212D01*
X125259102Y-100902445D01*
X125350591Y-100932171D01*
X125423639Y-100943740D01*
X125510678Y-100957527D01*
X125573813Y-100987456D01*
X125610744Y-101046768D01*
X125609746Y-101116631D01*
X125571136Y-101174863D01*
X125510678Y-101202473D01*
X125350589Y-101227829D01*
X125178363Y-101283787D01*
X125178360Y-101283788D01*
X125017002Y-101366006D01*
X124870505Y-101472441D01*
X124870500Y-101472445D01*
X124742445Y-101600500D01*
X124742441Y-101600505D01*
X124636006Y-101747002D01*
X124553788Y-101908360D01*
X124553787Y-101908363D01*
X124497829Y-102080589D01*
X124469500Y-102259448D01*
X124469500Y-102440551D01*
X124497829Y-102619410D01*
X124553787Y-102791636D01*
X124553788Y-102791639D01*
X124636006Y-102952997D01*
X124742441Y-103099494D01*
X124742445Y-103099499D01*
X124870500Y-103227554D01*
X124870505Y-103227558D01*
X124939522Y-103277701D01*
X125017006Y-103333996D01*
X125122484Y-103387740D01*
X125178360Y-103416211D01*
X125178363Y-103416212D01*
X125259102Y-103442445D01*
X125350591Y-103472171D01*
X125423639Y-103483740D01*
X125510678Y-103497527D01*
X125573813Y-103527456D01*
X125610744Y-103586768D01*
X125609746Y-103656631D01*
X125571136Y-103714863D01*
X125510678Y-103742473D01*
X125350589Y-103767829D01*
X125178363Y-103823787D01*
X125178360Y-103823788D01*
X125017002Y-103906006D01*
X124870505Y-104012441D01*
X124870500Y-104012445D01*
X124742445Y-104140500D01*
X124742441Y-104140505D01*
X124636006Y-104287002D01*
X124553788Y-104448360D01*
X124553787Y-104448363D01*
X124497829Y-104620589D01*
X124469500Y-104799448D01*
X124469500Y-104980551D01*
X124497829Y-105159410D01*
X124553787Y-105331636D01*
X124553788Y-105331639D01*
X124636006Y-105492997D01*
X124742441Y-105639494D01*
X124742445Y-105639499D01*
X124870500Y-105767554D01*
X124870505Y-105767558D01*
X124983291Y-105849501D01*
X125017006Y-105873996D01*
X125122484Y-105927740D01*
X125178360Y-105956211D01*
X125178363Y-105956212D01*
X125244046Y-105977553D01*
X125350591Y-106012171D01*
X125423639Y-106023740D01*
X125510678Y-106037527D01*
X125573813Y-106067456D01*
X125610744Y-106126768D01*
X125609746Y-106196631D01*
X125571136Y-106254863D01*
X125510678Y-106282473D01*
X125350589Y-106307829D01*
X125178363Y-106363787D01*
X125178360Y-106363788D01*
X125017002Y-106446006D01*
X124870505Y-106552441D01*
X124870500Y-106552445D01*
X124742445Y-106680500D01*
X124742441Y-106680505D01*
X124636006Y-106827002D01*
X124553788Y-106988360D01*
X124553787Y-106988363D01*
X124497829Y-107160589D01*
X124469500Y-107339448D01*
X124469500Y-107520551D01*
X124497829Y-107699410D01*
X124553787Y-107871636D01*
X124553788Y-107871639D01*
X124636006Y-108032997D01*
X124742441Y-108179494D01*
X124742445Y-108179499D01*
X124870500Y-108307554D01*
X124870505Y-108307558D01*
X124939522Y-108357701D01*
X125017006Y-108413996D01*
X125122484Y-108467740D01*
X125178360Y-108496211D01*
X125178363Y-108496212D01*
X125259102Y-108522445D01*
X125350591Y-108552171D01*
X125423639Y-108563740D01*
X125510678Y-108577527D01*
X125573813Y-108607456D01*
X125610744Y-108666768D01*
X125609746Y-108736631D01*
X125571136Y-108794863D01*
X125510678Y-108822473D01*
X125350589Y-108847829D01*
X125178363Y-108903787D01*
X125178360Y-108903788D01*
X125017002Y-108986006D01*
X124870505Y-109092441D01*
X124870500Y-109092445D01*
X124742445Y-109220500D01*
X124742441Y-109220505D01*
X124636006Y-109367002D01*
X124553788Y-109528360D01*
X124553787Y-109528363D01*
X124497829Y-109700589D01*
X124469500Y-109879448D01*
X124469500Y-110060551D01*
X124497829Y-110239410D01*
X124553787Y-110411636D01*
X124553788Y-110411639D01*
X124636006Y-110572997D01*
X124742441Y-110719494D01*
X124742445Y-110719499D01*
X124870500Y-110847554D01*
X124870505Y-110847558D01*
X124998287Y-110940396D01*
X125017006Y-110953996D01*
X125122484Y-111007740D01*
X125178360Y-111036211D01*
X125178363Y-111036212D01*
X125264476Y-111064191D01*
X125350591Y-111092171D01*
X125423639Y-111103740D01*
X125510678Y-111117527D01*
X125573813Y-111147456D01*
X125610744Y-111206768D01*
X125609746Y-111276631D01*
X125571136Y-111334863D01*
X125510678Y-111362473D01*
X125350589Y-111387829D01*
X125178363Y-111443787D01*
X125178360Y-111443788D01*
X125017002Y-111526006D01*
X124870505Y-111632441D01*
X124870500Y-111632445D01*
X124742445Y-111760500D01*
X124742441Y-111760505D01*
X124636006Y-111907002D01*
X124553788Y-112068360D01*
X124553787Y-112068363D01*
X124497829Y-112240589D01*
X124469500Y-112419448D01*
X124469500Y-112600551D01*
X124497829Y-112779410D01*
X124553787Y-112951636D01*
X124553788Y-112951639D01*
X124636006Y-113112997D01*
X124742441Y-113259494D01*
X124742445Y-113259499D01*
X124870500Y-113387554D01*
X124870505Y-113387558D01*
X124998287Y-113480396D01*
X125017006Y-113493996D01*
X125122484Y-113547740D01*
X125178360Y-113576211D01*
X125178363Y-113576212D01*
X125264476Y-113604191D01*
X125350591Y-113632171D01*
X125423639Y-113643740D01*
X125510678Y-113657527D01*
X125573813Y-113687456D01*
X125610744Y-113746768D01*
X125609746Y-113816631D01*
X125571136Y-113874863D01*
X125510678Y-113902473D01*
X125350589Y-113927829D01*
X125178363Y-113983787D01*
X125178360Y-113983788D01*
X125017002Y-114066006D01*
X124870505Y-114172441D01*
X124870500Y-114172445D01*
X124742445Y-114300500D01*
X124742441Y-114300505D01*
X124636006Y-114447002D01*
X124553788Y-114608360D01*
X124553787Y-114608363D01*
X124497829Y-114780589D01*
X124469500Y-114959448D01*
X124469500Y-115140551D01*
X124497829Y-115319410D01*
X124553787Y-115491636D01*
X124553788Y-115491639D01*
X124636006Y-115652997D01*
X124742441Y-115799494D01*
X124742445Y-115799499D01*
X124870500Y-115927554D01*
X124870505Y-115927558D01*
X124998287Y-116020396D01*
X125017006Y-116033996D01*
X125122484Y-116087740D01*
X125178360Y-116116211D01*
X125178363Y-116116212D01*
X125264476Y-116144191D01*
X125350591Y-116172171D01*
X125423639Y-116183740D01*
X125510678Y-116197527D01*
X125573813Y-116227456D01*
X125610744Y-116286768D01*
X125609746Y-116356631D01*
X125571136Y-116414863D01*
X125510678Y-116442473D01*
X125350589Y-116467829D01*
X125178363Y-116523787D01*
X125178360Y-116523788D01*
X125017002Y-116606006D01*
X124870505Y-116712441D01*
X124870500Y-116712445D01*
X124742445Y-116840500D01*
X124742441Y-116840505D01*
X124636006Y-116987002D01*
X124553788Y-117148360D01*
X124553787Y-117148363D01*
X124497829Y-117320589D01*
X124469500Y-117499448D01*
X124469500Y-117680551D01*
X124497829Y-117859410D01*
X124553787Y-118031636D01*
X124553788Y-118031639D01*
X124636006Y-118192997D01*
X124742441Y-118339494D01*
X124742445Y-118339499D01*
X124870500Y-118467554D01*
X124870505Y-118467558D01*
X124998287Y-118560396D01*
X125017006Y-118573996D01*
X125122484Y-118627740D01*
X125178360Y-118656211D01*
X125178363Y-118656212D01*
X125264476Y-118684191D01*
X125350591Y-118712171D01*
X125423639Y-118723740D01*
X125510678Y-118737527D01*
X125573813Y-118767456D01*
X125610744Y-118826768D01*
X125609746Y-118896631D01*
X125571136Y-118954863D01*
X125510678Y-118982473D01*
X125350589Y-119007829D01*
X125178363Y-119063787D01*
X125178360Y-119063788D01*
X125017002Y-119146006D01*
X124870505Y-119252441D01*
X124870500Y-119252445D01*
X124742445Y-119380500D01*
X124742441Y-119380505D01*
X124636006Y-119527002D01*
X124553788Y-119688360D01*
X124553787Y-119688363D01*
X124497829Y-119860589D01*
X124469500Y-120039448D01*
X124469500Y-120220551D01*
X124497829Y-120399410D01*
X124553787Y-120571636D01*
X124553788Y-120571639D01*
X124636006Y-120732997D01*
X124742441Y-120879494D01*
X124742445Y-120879499D01*
X124870500Y-121007554D01*
X124870505Y-121007558D01*
X124942550Y-121059901D01*
X125017006Y-121113996D01*
X125122484Y-121167740D01*
X125178360Y-121196211D01*
X125178363Y-121196212D01*
X125264476Y-121224191D01*
X125350591Y-121252171D01*
X125423639Y-121263740D01*
X125510678Y-121277527D01*
X125573813Y-121307456D01*
X125610744Y-121366768D01*
X125609746Y-121436631D01*
X125571136Y-121494863D01*
X125510678Y-121522473D01*
X125350589Y-121547829D01*
X125178363Y-121603787D01*
X125178360Y-121603788D01*
X125017002Y-121686006D01*
X124870505Y-121792441D01*
X124870500Y-121792445D01*
X124742445Y-121920500D01*
X124742441Y-121920505D01*
X124636006Y-122067002D01*
X124553788Y-122228360D01*
X124553787Y-122228363D01*
X124497829Y-122400589D01*
X124469500Y-122579448D01*
X124469500Y-122760551D01*
X124497829Y-122939410D01*
X124553787Y-123111636D01*
X124553788Y-123111639D01*
X124636006Y-123272997D01*
X124742441Y-123419494D01*
X124742445Y-123419499D01*
X124870500Y-123547554D01*
X124870505Y-123547558D01*
X124942550Y-123599901D01*
X125017006Y-123653996D01*
X125122484Y-123707740D01*
X125178360Y-123736211D01*
X125178363Y-123736212D01*
X125264476Y-123764191D01*
X125350591Y-123792171D01*
X125423639Y-123803740D01*
X125510678Y-123817527D01*
X125573813Y-123847456D01*
X125610744Y-123906768D01*
X125609746Y-123976631D01*
X125571136Y-124034863D01*
X125510678Y-124062473D01*
X125350589Y-124087829D01*
X125178363Y-124143787D01*
X125178360Y-124143788D01*
X125017002Y-124226006D01*
X124870505Y-124332441D01*
X124870500Y-124332445D01*
X124742445Y-124460500D01*
X124742441Y-124460505D01*
X124636006Y-124607002D01*
X124553788Y-124768360D01*
X124553787Y-124768363D01*
X124497829Y-124940589D01*
X124469500Y-125119448D01*
X124469500Y-125300551D01*
X124497829Y-125479410D01*
X124553787Y-125651636D01*
X124553788Y-125651639D01*
X124636006Y-125812997D01*
X124742441Y-125959494D01*
X124742445Y-125959499D01*
X124870500Y-126087554D01*
X124870505Y-126087558D01*
X124998287Y-126180396D01*
X125017006Y-126193996D01*
X125122484Y-126247740D01*
X125178360Y-126276211D01*
X125178363Y-126276212D01*
X125264476Y-126304191D01*
X125350591Y-126332171D01*
X125433429Y-126345291D01*
X125529449Y-126360500D01*
X125529454Y-126360500D01*
X125710551Y-126360500D01*
X125797259Y-126346765D01*
X125889409Y-126332171D01*
X126061639Y-126276211D01*
X126222994Y-126193996D01*
X126369501Y-126087553D01*
X126497553Y-125959501D01*
X126603996Y-125812994D01*
X126686211Y-125651639D01*
X126742171Y-125479409D01*
X126756765Y-125387259D01*
X126770500Y-125300551D01*
X126770500Y-125119448D01*
X126754019Y-125015397D01*
X126742171Y-124940591D01*
X126686211Y-124768361D01*
X126686211Y-124768360D01*
X126657740Y-124712484D01*
X126603996Y-124607006D01*
X126526252Y-124500000D01*
X126497558Y-124460505D01*
X126497554Y-124460500D01*
X126369499Y-124332445D01*
X126369494Y-124332441D01*
X126323429Y-124298972D01*
X126323406Y-124298957D01*
X126222993Y-124226003D01*
X126061639Y-124143788D01*
X126061636Y-124143787D01*
X125889410Y-124087829D01*
X125729321Y-124062473D01*
X125666186Y-124032544D01*
X125629255Y-123973232D01*
X125630253Y-123903370D01*
X125668863Y-123845137D01*
X125729321Y-123817527D01*
X125799425Y-123806422D01*
X125889409Y-123792171D01*
X126061639Y-123736211D01*
X126222994Y-123653996D01*
X126369501Y-123547553D01*
X126497553Y-123419501D01*
X126508708Y-123404146D01*
X126598653Y-123280349D01*
X126601096Y-123276985D01*
X126603996Y-123272994D01*
X126686211Y-123111639D01*
X126742171Y-122939409D01*
X126760947Y-122820863D01*
X126770500Y-122760551D01*
X126770500Y-122579448D01*
X126754019Y-122475397D01*
X126742171Y-122400591D01*
X126686211Y-122228361D01*
X126686211Y-122228360D01*
X126657740Y-122172484D01*
X126603996Y-122067006D01*
X126526252Y-121960000D01*
X126497558Y-121920505D01*
X126497554Y-121920500D01*
X126369499Y-121792445D01*
X126369494Y-121792441D01*
X126222997Y-121686006D01*
X126222996Y-121686005D01*
X126222994Y-121686004D01*
X126158207Y-121652993D01*
X126061639Y-121603788D01*
X126061636Y-121603787D01*
X125889410Y-121547829D01*
X125729321Y-121522473D01*
X125715974Y-121516146D01*
X125701288Y-121514570D01*
X125685039Y-121501481D01*
X125666186Y-121492544D01*
X125658379Y-121480006D01*
X125646876Y-121470740D01*
X125640282Y-121450943D01*
X125629255Y-121433232D01*
X125629465Y-121418463D01*
X125624799Y-121404450D01*
X125629954Y-121384232D01*
X125630165Y-121369493D01*
X138850000Y-121369493D01*
X138850000Y-121550506D01*
X138878317Y-121729293D01*
X138934251Y-121901444D01*
X138934252Y-121901447D01*
X139016431Y-122062730D01*
X139027913Y-122078532D01*
X139027913Y-122078533D01*
X139517037Y-121589409D01*
X139534075Y-121652993D01*
X139599901Y-121767007D01*
X139692993Y-121860099D01*
X139807007Y-121925925D01*
X139870590Y-121942962D01*
X139381466Y-122432085D01*
X139381466Y-122432086D01*
X139397267Y-122443566D01*
X139397275Y-122443571D01*
X139558552Y-122525747D01*
X139558555Y-122525748D01*
X139730706Y-122581682D01*
X139868625Y-122603527D01*
X139931760Y-122633456D01*
X139968691Y-122692768D01*
X139967693Y-122762630D01*
X139929083Y-122820863D01*
X139865120Y-122848977D01*
X139849227Y-122850000D01*
X139356946Y-122850000D01*
X139268556Y-122860613D01*
X139127904Y-122916079D01*
X139007435Y-123007435D01*
X138916079Y-123127904D01*
X138860613Y-123268556D01*
X138850000Y-123356946D01*
X138850000Y-123750000D01*
X139566988Y-123750000D01*
X139534075Y-123807007D01*
X139500000Y-123934174D01*
X139500000Y-124065826D01*
X139534075Y-124192993D01*
X139566988Y-124250000D01*
X138850000Y-124250000D01*
X138850000Y-124643053D01*
X138860613Y-124731443D01*
X138916079Y-124872095D01*
X139007435Y-124992564D01*
X139127904Y-125083920D01*
X139268556Y-125139386D01*
X139356946Y-125150000D01*
X139750000Y-125150000D01*
X139750000Y-124433012D01*
X139807007Y-124465925D01*
X139934174Y-124500000D01*
X140065826Y-124500000D01*
X140192993Y-124465925D01*
X140250000Y-124433012D01*
X140250000Y-125150000D01*
X140643054Y-125150000D01*
X140731443Y-125139386D01*
X140872095Y-125083920D01*
X140992564Y-124992564D01*
X141083920Y-124872095D01*
X141139386Y-124731443D01*
X141150000Y-124643053D01*
X141150000Y-124153974D01*
X141169685Y-124086935D01*
X141222489Y-124041180D01*
X141291647Y-124031236D01*
X141355203Y-124060261D01*
X141392977Y-124119039D01*
X141396473Y-124134576D01*
X141417829Y-124269410D01*
X141473787Y-124441636D01*
X141473788Y-124441639D01*
X141556006Y-124602997D01*
X141662441Y-124749494D01*
X141662445Y-124749499D01*
X141790500Y-124877554D01*
X141790505Y-124877558D01*
X141877261Y-124940589D01*
X141937006Y-124983996D01*
X142042484Y-125037740D01*
X142098360Y-125066211D01*
X142098363Y-125066212D01*
X142184476Y-125094191D01*
X142270591Y-125122171D01*
X142353429Y-125135291D01*
X142449449Y-125150500D01*
X142449454Y-125150500D01*
X142630551Y-125150500D01*
X142717259Y-125136765D01*
X142809409Y-125122171D01*
X142981639Y-125066211D01*
X143142994Y-124983996D01*
X143289501Y-124877553D01*
X143417553Y-124749501D01*
X143523996Y-124602994D01*
X143606211Y-124441639D01*
X143662171Y-124269409D01*
X143680454Y-124153974D01*
X143687527Y-124109321D01*
X143717456Y-124046186D01*
X143776768Y-124009255D01*
X143846630Y-124010253D01*
X143904863Y-124048863D01*
X143932473Y-124109321D01*
X143957829Y-124269410D01*
X144013787Y-124441636D01*
X144013788Y-124441639D01*
X144096006Y-124602997D01*
X144202441Y-124749494D01*
X144202445Y-124749499D01*
X144330500Y-124877554D01*
X144330505Y-124877558D01*
X144417261Y-124940589D01*
X144477006Y-124983996D01*
X144582484Y-125037740D01*
X144638360Y-125066211D01*
X144638363Y-125066212D01*
X144724476Y-125094191D01*
X144810591Y-125122171D01*
X144893429Y-125135291D01*
X144989449Y-125150500D01*
X144989454Y-125150500D01*
X145170551Y-125150500D01*
X145257259Y-125136765D01*
X145349409Y-125122171D01*
X145521639Y-125066211D01*
X145682994Y-124983996D01*
X145829501Y-124877553D01*
X145957553Y-124749501D01*
X146063996Y-124602994D01*
X146146211Y-124441639D01*
X146202171Y-124269409D01*
X146220454Y-124153974D01*
X146227527Y-124109321D01*
X146257456Y-124046186D01*
X146316768Y-124009255D01*
X146386630Y-124010253D01*
X146444863Y-124048863D01*
X146472473Y-124109321D01*
X146497829Y-124269410D01*
X146553787Y-124441636D01*
X146553788Y-124441639D01*
X146636006Y-124602997D01*
X146742441Y-124749494D01*
X146742445Y-124749499D01*
X146870500Y-124877554D01*
X146870505Y-124877558D01*
X146957261Y-124940589D01*
X147017006Y-124983996D01*
X147122484Y-125037740D01*
X147178360Y-125066211D01*
X147178363Y-125066212D01*
X147264476Y-125094191D01*
X147350591Y-125122171D01*
X147433429Y-125135291D01*
X147529449Y-125150500D01*
X147529454Y-125150500D01*
X147710551Y-125150500D01*
X147797259Y-125136765D01*
X147889409Y-125122171D01*
X148061639Y-125066211D01*
X148222994Y-124983996D01*
X148369501Y-124877553D01*
X148497553Y-124749501D01*
X148603996Y-124602994D01*
X148686211Y-124441639D01*
X148742171Y-124269409D01*
X148760454Y-124153974D01*
X148767527Y-124109321D01*
X148797456Y-124046186D01*
X148856768Y-124009255D01*
X148926630Y-124010253D01*
X148984863Y-124048863D01*
X149012473Y-124109321D01*
X149037829Y-124269410D01*
X149093787Y-124441636D01*
X149093788Y-124441639D01*
X149176006Y-124602997D01*
X149282441Y-124749494D01*
X149282445Y-124749499D01*
X149410500Y-124877554D01*
X149410505Y-124877558D01*
X149497261Y-124940589D01*
X149557006Y-124983996D01*
X149662484Y-125037740D01*
X149718360Y-125066211D01*
X149718363Y-125066212D01*
X149804476Y-125094191D01*
X149890591Y-125122171D01*
X149973429Y-125135291D01*
X150069449Y-125150500D01*
X150069454Y-125150500D01*
X150250551Y-125150500D01*
X150337259Y-125136765D01*
X150429409Y-125122171D01*
X150601639Y-125066211D01*
X150762994Y-124983996D01*
X150909501Y-124877553D01*
X151037553Y-124749501D01*
X151143996Y-124602994D01*
X151226211Y-124441639D01*
X151282171Y-124269409D01*
X151300454Y-124153974D01*
X151307527Y-124109321D01*
X151337456Y-124046186D01*
X151396768Y-124009255D01*
X151466630Y-124010253D01*
X151524863Y-124048863D01*
X151552473Y-124109321D01*
X151577829Y-124269410D01*
X151633787Y-124441636D01*
X151633788Y-124441639D01*
X151716006Y-124602997D01*
X151822441Y-124749494D01*
X151822445Y-124749499D01*
X151950500Y-124877554D01*
X151950505Y-124877558D01*
X152037261Y-124940589D01*
X152097006Y-124983996D01*
X152202484Y-125037740D01*
X152258360Y-125066211D01*
X152258363Y-125066212D01*
X152344476Y-125094191D01*
X152430591Y-125122171D01*
X152513429Y-125135291D01*
X152609449Y-125150500D01*
X152609454Y-125150500D01*
X152790551Y-125150500D01*
X152877259Y-125136765D01*
X152969409Y-125122171D01*
X153141639Y-125066211D01*
X153302994Y-124983996D01*
X153449501Y-124877553D01*
X153577553Y-124749501D01*
X153683996Y-124602994D01*
X153766211Y-124441639D01*
X153822171Y-124269409D01*
X153842067Y-124143789D01*
X153850500Y-124090551D01*
X153850500Y-123909448D01*
X153823061Y-123736212D01*
X153822171Y-123730591D01*
X153766211Y-123558361D01*
X153766211Y-123558360D01*
X153736474Y-123500000D01*
X153683996Y-123397006D01*
X153654891Y-123356946D01*
X153577558Y-123250505D01*
X153577554Y-123250500D01*
X153449499Y-123122445D01*
X153449494Y-123122441D01*
X153302997Y-123016006D01*
X153302996Y-123016005D01*
X153302994Y-123016004D01*
X153251300Y-122989664D01*
X153141639Y-122933788D01*
X153141636Y-122933787D01*
X152969410Y-122877829D01*
X152809321Y-122852473D01*
X152746186Y-122822544D01*
X152709255Y-122763232D01*
X152710253Y-122693370D01*
X152748863Y-122635137D01*
X152809321Y-122607527D01*
X152879425Y-122596422D01*
X152969409Y-122582171D01*
X153141639Y-122526211D01*
X153302994Y-122443996D01*
X153449501Y-122337553D01*
X153577553Y-122209501D01*
X153683996Y-122062994D01*
X153766211Y-121901639D01*
X153822171Y-121729409D01*
X153842067Y-121603789D01*
X153850500Y-121550551D01*
X153850500Y-121369448D01*
X153823061Y-121196212D01*
X153822171Y-121190591D01*
X153766273Y-121018552D01*
X153766212Y-121018363D01*
X153766211Y-121018360D01*
X153736474Y-120960000D01*
X153683996Y-120857006D01*
X153593899Y-120732997D01*
X153577558Y-120710505D01*
X153577554Y-120710500D01*
X153449499Y-120582445D01*
X153449494Y-120582441D01*
X153302997Y-120476006D01*
X153302996Y-120476005D01*
X153302994Y-120476004D01*
X153251300Y-120449664D01*
X153141639Y-120393788D01*
X153141636Y-120393787D01*
X152969410Y-120337829D01*
X152790551Y-120309500D01*
X152790546Y-120309500D01*
X152609454Y-120309500D01*
X152609449Y-120309500D01*
X152430589Y-120337829D01*
X152258363Y-120393787D01*
X152258360Y-120393788D01*
X152097002Y-120476006D01*
X151950505Y-120582441D01*
X151950500Y-120582445D01*
X151822445Y-120710500D01*
X151822441Y-120710505D01*
X151716006Y-120857002D01*
X151633788Y-121018360D01*
X151633787Y-121018363D01*
X151577829Y-121190589D01*
X151552473Y-121350678D01*
X151522544Y-121413813D01*
X151463232Y-121450744D01*
X151393369Y-121449746D01*
X151335137Y-121411136D01*
X151307527Y-121350678D01*
X151283061Y-121196212D01*
X151282171Y-121190591D01*
X151226273Y-121018552D01*
X151226212Y-121018363D01*
X151226211Y-121018360D01*
X151196474Y-120960000D01*
X151143996Y-120857006D01*
X151053899Y-120732997D01*
X151037558Y-120710505D01*
X151037554Y-120710500D01*
X150909499Y-120582445D01*
X150909494Y-120582441D01*
X150762997Y-120476006D01*
X150762996Y-120476005D01*
X150762994Y-120476004D01*
X150711300Y-120449664D01*
X150601639Y-120393788D01*
X150601636Y-120393787D01*
X150429410Y-120337829D01*
X150250551Y-120309500D01*
X150250546Y-120309500D01*
X150069454Y-120309500D01*
X150069449Y-120309500D01*
X149890589Y-120337829D01*
X149718363Y-120393787D01*
X149718360Y-120393788D01*
X149557002Y-120476006D01*
X149410505Y-120582441D01*
X149410500Y-120582445D01*
X149282445Y-120710500D01*
X149282441Y-120710505D01*
X149176006Y-120857002D01*
X149093788Y-121018360D01*
X149093787Y-121018363D01*
X149037829Y-121190589D01*
X149012473Y-121350678D01*
X148982544Y-121413813D01*
X148923232Y-121450744D01*
X148853369Y-121449746D01*
X148795137Y-121411136D01*
X148767527Y-121350678D01*
X148743061Y-121196212D01*
X148742171Y-121190591D01*
X148686273Y-121018552D01*
X148686212Y-121018363D01*
X148686211Y-121018360D01*
X148656474Y-120960000D01*
X148603996Y-120857006D01*
X148513899Y-120732997D01*
X148497558Y-120710505D01*
X148497554Y-120710500D01*
X148369499Y-120582445D01*
X148369494Y-120582441D01*
X148222997Y-120476006D01*
X148222996Y-120476005D01*
X148222994Y-120476004D01*
X148171300Y-120449664D01*
X148061639Y-120393788D01*
X148061636Y-120393787D01*
X147889410Y-120337829D01*
X147710551Y-120309500D01*
X147710546Y-120309500D01*
X147529454Y-120309500D01*
X147529449Y-120309500D01*
X147350589Y-120337829D01*
X147178363Y-120393787D01*
X147178360Y-120393788D01*
X147017002Y-120476006D01*
X146870505Y-120582441D01*
X146870500Y-120582445D01*
X146742445Y-120710500D01*
X146742441Y-120710505D01*
X146636006Y-120857002D01*
X146553788Y-121018360D01*
X146553787Y-121018363D01*
X146497829Y-121190589D01*
X146472473Y-121350678D01*
X146442544Y-121413813D01*
X146383232Y-121450744D01*
X146313369Y-121449746D01*
X146255137Y-121411136D01*
X146227527Y-121350678D01*
X146203061Y-121196212D01*
X146202171Y-121190591D01*
X146146273Y-121018552D01*
X146146212Y-121018363D01*
X146146211Y-121018360D01*
X146116474Y-120960000D01*
X146063996Y-120857006D01*
X145973899Y-120732997D01*
X145957558Y-120710505D01*
X145957554Y-120710500D01*
X145829499Y-120582445D01*
X145829494Y-120582441D01*
X145682997Y-120476006D01*
X145682996Y-120476005D01*
X145682994Y-120476004D01*
X145631300Y-120449664D01*
X145521639Y-120393788D01*
X145521636Y-120393787D01*
X145349410Y-120337829D01*
X145170551Y-120309500D01*
X145170546Y-120309500D01*
X144989454Y-120309500D01*
X144989449Y-120309500D01*
X144810589Y-120337829D01*
X144638363Y-120393787D01*
X144638360Y-120393788D01*
X144477002Y-120476006D01*
X144330505Y-120582441D01*
X144330500Y-120582445D01*
X144202445Y-120710500D01*
X144202441Y-120710505D01*
X144096006Y-120857002D01*
X144013788Y-121018360D01*
X144013787Y-121018363D01*
X143957829Y-121190589D01*
X143932473Y-121350678D01*
X143902544Y-121413813D01*
X143843232Y-121450744D01*
X143773369Y-121449746D01*
X143715137Y-121411136D01*
X143687527Y-121350678D01*
X143663061Y-121196212D01*
X143662171Y-121190591D01*
X143606273Y-121018552D01*
X143606212Y-121018363D01*
X143606211Y-121018360D01*
X143576474Y-120960000D01*
X143523996Y-120857006D01*
X143433899Y-120732997D01*
X143417558Y-120710505D01*
X143417554Y-120710500D01*
X143289499Y-120582445D01*
X143289494Y-120582441D01*
X143142997Y-120476006D01*
X143142996Y-120476005D01*
X143142994Y-120476004D01*
X143091300Y-120449664D01*
X142981639Y-120393788D01*
X142981636Y-120393787D01*
X142809410Y-120337829D01*
X142630551Y-120309500D01*
X142630546Y-120309500D01*
X142449454Y-120309500D01*
X142449449Y-120309500D01*
X142270589Y-120337829D01*
X142098363Y-120393787D01*
X142098360Y-120393788D01*
X141937002Y-120476006D01*
X141790505Y-120582441D01*
X141790500Y-120582445D01*
X141662445Y-120710500D01*
X141662441Y-120710505D01*
X141556006Y-120857002D01*
X141473788Y-121018360D01*
X141473787Y-121018363D01*
X141417829Y-121190589D01*
X141392219Y-121352280D01*
X141362289Y-121415414D01*
X141302978Y-121452345D01*
X141233115Y-121451347D01*
X141174883Y-121412737D01*
X141147273Y-121352279D01*
X141121682Y-121190706D01*
X141065748Y-121018555D01*
X141065747Y-121018552D01*
X140983571Y-120857275D01*
X140983566Y-120857267D01*
X140972085Y-120841466D01*
X140482962Y-121330589D01*
X140465925Y-121267007D01*
X140400099Y-121152993D01*
X140307007Y-121059901D01*
X140192993Y-120994075D01*
X140129409Y-120977037D01*
X140618533Y-120487913D01*
X140602730Y-120476431D01*
X140441447Y-120394252D01*
X140441444Y-120394251D01*
X140269293Y-120338317D01*
X140090506Y-120310000D01*
X139909494Y-120310000D01*
X139730706Y-120338317D01*
X139558555Y-120394251D01*
X139558547Y-120394254D01*
X139397269Y-120476432D01*
X139381466Y-120487912D01*
X139381466Y-120487913D01*
X139870591Y-120977037D01*
X139807007Y-120994075D01*
X139692993Y-121059901D01*
X139599901Y-121152993D01*
X139534075Y-121267007D01*
X139517037Y-121330590D01*
X139027912Y-120841466D01*
X139016432Y-120857269D01*
X138934254Y-121018547D01*
X138934251Y-121018555D01*
X138878317Y-121190706D01*
X138850000Y-121369493D01*
X125630165Y-121369493D01*
X125630253Y-121363370D01*
X125638414Y-121351060D01*
X125642065Y-121336747D01*
X125657333Y-121322525D01*
X125668863Y-121305137D01*
X125683271Y-121298367D01*
X125693193Y-121289127D01*
X125723980Y-121279241D01*
X125726679Y-121277974D01*
X125727992Y-121277736D01*
X125889409Y-121252171D01*
X126061639Y-121196211D01*
X126222994Y-121113996D01*
X126369501Y-121007553D01*
X126497553Y-120879501D01*
X126603996Y-120732994D01*
X126686211Y-120571639D01*
X126686213Y-120571633D01*
X126710510Y-120496855D01*
X126710510Y-120496854D01*
X126719784Y-120468309D01*
X126742171Y-120399409D01*
X126756765Y-120307259D01*
X126770500Y-120220551D01*
X126770500Y-120039448D01*
X126754019Y-119935397D01*
X126742171Y-119860591D01*
X126686211Y-119688361D01*
X126686211Y-119688360D01*
X126657740Y-119632484D01*
X126603996Y-119527006D01*
X126590396Y-119508287D01*
X126497558Y-119380505D01*
X126497554Y-119380500D01*
X126369499Y-119252445D01*
X126369494Y-119252441D01*
X126222997Y-119146006D01*
X126222996Y-119146005D01*
X126222994Y-119146004D01*
X126171300Y-119119664D01*
X126061639Y-119063788D01*
X126061636Y-119063787D01*
X125889410Y-119007829D01*
X125729321Y-118982473D01*
X125666186Y-118952544D01*
X125629255Y-118893232D01*
X125630253Y-118823370D01*
X125668863Y-118765137D01*
X125729321Y-118737527D01*
X125799425Y-118726422D01*
X125889409Y-118712171D01*
X126061639Y-118656211D01*
X126222994Y-118573996D01*
X126369501Y-118467553D01*
X126497553Y-118339501D01*
X126603996Y-118192994D01*
X126686211Y-118031639D01*
X126742171Y-117859409D01*
X126756765Y-117767259D01*
X126770500Y-117680551D01*
X126770500Y-117499448D01*
X126754019Y-117395397D01*
X126742171Y-117320591D01*
X126686211Y-117148361D01*
X126686211Y-117148360D01*
X126657740Y-117092484D01*
X126603996Y-116987006D01*
X126590396Y-116968287D01*
X126497558Y-116840505D01*
X126497554Y-116840500D01*
X126369499Y-116712445D01*
X126369494Y-116712441D01*
X126222997Y-116606006D01*
X126222996Y-116606005D01*
X126222994Y-116606004D01*
X126171300Y-116579664D01*
X126061639Y-116523788D01*
X126061636Y-116523787D01*
X125889410Y-116467829D01*
X125729321Y-116442473D01*
X125666186Y-116412544D01*
X125629255Y-116353232D01*
X125630253Y-116283370D01*
X125668863Y-116225137D01*
X125729321Y-116197527D01*
X125799425Y-116186422D01*
X125889409Y-116172171D01*
X126061639Y-116116211D01*
X126222994Y-116033996D01*
X126369501Y-115927553D01*
X126497553Y-115799501D01*
X126603996Y-115652994D01*
X126686211Y-115491639D01*
X126742171Y-115319409D01*
X126756765Y-115227259D01*
X126770500Y-115140551D01*
X126770500Y-114959448D01*
X126754019Y-114855397D01*
X126742171Y-114780591D01*
X126686211Y-114608361D01*
X126686211Y-114608360D01*
X126657740Y-114552484D01*
X126603996Y-114447006D01*
X126590396Y-114428287D01*
X126497558Y-114300505D01*
X126497554Y-114300500D01*
X126369499Y-114172445D01*
X126369494Y-114172441D01*
X126222997Y-114066006D01*
X126222996Y-114066005D01*
X126222994Y-114066004D01*
X126171300Y-114039664D01*
X126061639Y-113983788D01*
X126061636Y-113983787D01*
X125889410Y-113927829D01*
X125729321Y-113902473D01*
X125666186Y-113872544D01*
X125629255Y-113813232D01*
X125630253Y-113743370D01*
X125668863Y-113685137D01*
X125729321Y-113657527D01*
X125799425Y-113646422D01*
X125889409Y-113632171D01*
X126061639Y-113576211D01*
X126222994Y-113493996D01*
X126369501Y-113387553D01*
X126497553Y-113259501D01*
X126603996Y-113112994D01*
X126686211Y-112951639D01*
X126742171Y-112779409D01*
X126756765Y-112687259D01*
X126770500Y-112600551D01*
X126770500Y-112419448D01*
X126754019Y-112315397D01*
X126742171Y-112240591D01*
X126686211Y-112068361D01*
X126686211Y-112068360D01*
X126657740Y-112012484D01*
X126603996Y-111907006D01*
X126590396Y-111888287D01*
X126497558Y-111760505D01*
X126497554Y-111760500D01*
X126369499Y-111632445D01*
X126369494Y-111632441D01*
X126222997Y-111526006D01*
X126222996Y-111526005D01*
X126222994Y-111526004D01*
X126171300Y-111499664D01*
X126061639Y-111443788D01*
X126061636Y-111443787D01*
X125889410Y-111387829D01*
X125729321Y-111362473D01*
X125666186Y-111332544D01*
X125629255Y-111273232D01*
X125630253Y-111203370D01*
X125668863Y-111145137D01*
X125729321Y-111117527D01*
X125799425Y-111106422D01*
X125889409Y-111092171D01*
X126061639Y-111036211D01*
X126222994Y-110953996D01*
X126369501Y-110847553D01*
X126497553Y-110719501D01*
X126603996Y-110572994D01*
X126686211Y-110411639D01*
X126742171Y-110239409D01*
X126756765Y-110147259D01*
X126770500Y-110060551D01*
X126770500Y-109879448D01*
X126754019Y-109775397D01*
X126742171Y-109700591D01*
X126686211Y-109528361D01*
X126686211Y-109528360D01*
X126657740Y-109472484D01*
X126603996Y-109367006D01*
X126590396Y-109348287D01*
X126497558Y-109220505D01*
X126497554Y-109220500D01*
X126369499Y-109092445D01*
X126369494Y-109092441D01*
X126222997Y-108986006D01*
X126222996Y-108986005D01*
X126222994Y-108986004D01*
X126171300Y-108959664D01*
X126061639Y-108903788D01*
X126061636Y-108903787D01*
X125889410Y-108847829D01*
X125729321Y-108822473D01*
X125666186Y-108792544D01*
X125629255Y-108733232D01*
X125630253Y-108663370D01*
X125668863Y-108605137D01*
X125729321Y-108577527D01*
X125799425Y-108566422D01*
X125889409Y-108552171D01*
X126061639Y-108496211D01*
X126222994Y-108413996D01*
X126369501Y-108307553D01*
X126497553Y-108179501D01*
X126603996Y-108032994D01*
X126613985Y-108013389D01*
X131379500Y-108013389D01*
X131379500Y-108186611D01*
X131406598Y-108357701D01*
X131451603Y-108496212D01*
X131460128Y-108522447D01*
X131475273Y-108552171D01*
X131538768Y-108676788D01*
X131640586Y-108816928D01*
X131763072Y-108939414D01*
X131903212Y-109041232D01*
X132057555Y-109119873D01*
X132222299Y-109173402D01*
X132393389Y-109200500D01*
X132393390Y-109200500D01*
X132566610Y-109200500D01*
X132566611Y-109200500D01*
X132737701Y-109173402D01*
X132902445Y-109119873D01*
X133056788Y-109041232D01*
X133196928Y-108939414D01*
X133319414Y-108816928D01*
X133421232Y-108676788D01*
X133499873Y-108522445D01*
X133553402Y-108357701D01*
X133580500Y-108186611D01*
X133580500Y-108013389D01*
X133553402Y-107842299D01*
X133499873Y-107677555D01*
X133421232Y-107523212D01*
X133319414Y-107383072D01*
X133196928Y-107260586D01*
X133189420Y-107255131D01*
X146619500Y-107255131D01*
X146619500Y-108944856D01*
X146619502Y-108944882D01*
X146622413Y-108969987D01*
X146622415Y-108969991D01*
X146667793Y-109072764D01*
X146667794Y-109072765D01*
X146747235Y-109152206D01*
X146850009Y-109197585D01*
X146875135Y-109200500D01*
X148564864Y-109200499D01*
X148564879Y-109200497D01*
X148564882Y-109200497D01*
X148589987Y-109197586D01*
X148589988Y-109197585D01*
X148589991Y-109197585D01*
X148692765Y-109152206D01*
X148772206Y-109072765D01*
X148817585Y-108969991D01*
X148820500Y-108944865D01*
X148820499Y-107255136D01*
X148820497Y-107255117D01*
X148817586Y-107230012D01*
X148817585Y-107230010D01*
X148817585Y-107230009D01*
X148772206Y-107127235D01*
X148692765Y-107047794D01*
X148692763Y-107047793D01*
X148589992Y-107002415D01*
X148564865Y-106999500D01*
X146875143Y-106999500D01*
X146875117Y-106999502D01*
X146850012Y-107002413D01*
X146850008Y-107002415D01*
X146747235Y-107047793D01*
X146667794Y-107127234D01*
X146622415Y-107230006D01*
X146622415Y-107230008D01*
X146619500Y-107255131D01*
X133189420Y-107255131D01*
X133056788Y-107158768D01*
X132902445Y-107080127D01*
X132737701Y-107026598D01*
X132737699Y-107026597D01*
X132737698Y-107026597D01*
X132606271Y-107005781D01*
X132566611Y-106999500D01*
X132393389Y-106999500D01*
X132353728Y-107005781D01*
X132222302Y-107026597D01*
X132057552Y-107080128D01*
X131903211Y-107158768D01*
X131823256Y-107216859D01*
X131763072Y-107260586D01*
X131763070Y-107260588D01*
X131763069Y-107260588D01*
X131640588Y-107383069D01*
X131640588Y-107383070D01*
X131640586Y-107383072D01*
X131606063Y-107430589D01*
X131538768Y-107523211D01*
X131460128Y-107677552D01*
X131406597Y-107842302D01*
X131379500Y-108013389D01*
X126613985Y-108013389D01*
X126636394Y-107969410D01*
X126645153Y-107952221D01*
X126686211Y-107871639D01*
X126686212Y-107871636D01*
X126695744Y-107842299D01*
X126742171Y-107699409D01*
X126756765Y-107607259D01*
X126770500Y-107520551D01*
X126770500Y-107339448D01*
X126753166Y-107230009D01*
X126742171Y-107160591D01*
X126698635Y-107026598D01*
X126686212Y-106988363D01*
X126686211Y-106988360D01*
X126657740Y-106932484D01*
X126603996Y-106827006D01*
X126590396Y-106808287D01*
X126497558Y-106680505D01*
X126497554Y-106680500D01*
X126369499Y-106552445D01*
X126369494Y-106552441D01*
X126222997Y-106446006D01*
X126222996Y-106446005D01*
X126222994Y-106446004D01*
X126126364Y-106396768D01*
X126061639Y-106363788D01*
X126061636Y-106363787D01*
X125889410Y-106307829D01*
X125729321Y-106282473D01*
X125666186Y-106252544D01*
X125629255Y-106193232D01*
X125630253Y-106123370D01*
X125668863Y-106065137D01*
X125729321Y-106037527D01*
X125799425Y-106026422D01*
X125889409Y-106012171D01*
X126061639Y-105956211D01*
X126222994Y-105873996D01*
X126369501Y-105767553D01*
X126497553Y-105639501D01*
X126603996Y-105492994D01*
X126613985Y-105473389D01*
X131379500Y-105473389D01*
X131379500Y-105646611D01*
X131406598Y-105817701D01*
X131458537Y-105977553D01*
X131460128Y-105982447D01*
X131475273Y-106012171D01*
X131538768Y-106136788D01*
X131640586Y-106276928D01*
X131763072Y-106399414D01*
X131903212Y-106501232D01*
X132057555Y-106579873D01*
X132222299Y-106633402D01*
X132393389Y-106660500D01*
X132393390Y-106660500D01*
X132566610Y-106660500D01*
X132566611Y-106660500D01*
X132737701Y-106633402D01*
X132902445Y-106579873D01*
X133056788Y-106501232D01*
X133196928Y-106399414D01*
X133319414Y-106276928D01*
X133421232Y-106136788D01*
X133499873Y-105982445D01*
X133553402Y-105817701D01*
X133580500Y-105646611D01*
X133580500Y-105473389D01*
X146619500Y-105473389D01*
X146619500Y-105646611D01*
X146646598Y-105817701D01*
X146698537Y-105977553D01*
X146700128Y-105982447D01*
X146715273Y-106012171D01*
X146778768Y-106136788D01*
X146880586Y-106276928D01*
X147003072Y-106399414D01*
X147143212Y-106501232D01*
X147297555Y-106579873D01*
X147462299Y-106633402D01*
X147633389Y-106660500D01*
X147633390Y-106660500D01*
X147806610Y-106660500D01*
X147806611Y-106660500D01*
X147977701Y-106633402D01*
X148142445Y-106579873D01*
X148296788Y-106501232D01*
X148436928Y-106399414D01*
X148559414Y-106276928D01*
X148661232Y-106136788D01*
X148739873Y-105982445D01*
X148793402Y-105817701D01*
X148820500Y-105646611D01*
X148820500Y-105473389D01*
X148793402Y-105302299D01*
X148739873Y-105137555D01*
X148661232Y-104983212D01*
X148605421Y-104906395D01*
X153930799Y-104906395D01*
X153957718Y-105041722D01*
X153957721Y-105041732D01*
X154010521Y-105169204D01*
X154010528Y-105169217D01*
X154087185Y-105283941D01*
X154087188Y-105283945D01*
X154184754Y-105381511D01*
X154184758Y-105381514D01*
X154299482Y-105458171D01*
X154299495Y-105458178D01*
X154383552Y-105492995D01*
X154426972Y-105510980D01*
X154426976Y-105510980D01*
X154426977Y-105510981D01*
X154562304Y-105537900D01*
X154562307Y-105537900D01*
X154700295Y-105537900D01*
X154791341Y-105519789D01*
X154835628Y-105510980D01*
X154963111Y-105458175D01*
X155077842Y-105381514D01*
X155175414Y-105283942D01*
X155252075Y-105169211D01*
X155256577Y-105158343D01*
X155269897Y-105126186D01*
X155291047Y-105075122D01*
X155304880Y-105041728D01*
X155317050Y-104980546D01*
X155331800Y-104906395D01*
X155331800Y-104768404D01*
X155304881Y-104633077D01*
X155304880Y-104633076D01*
X155304880Y-104633072D01*
X155299710Y-104620591D01*
X155252078Y-104505595D01*
X155252071Y-104505582D01*
X155175414Y-104390858D01*
X155175411Y-104390854D01*
X155077845Y-104293288D01*
X155077841Y-104293285D01*
X154963117Y-104216628D01*
X154963104Y-104216621D01*
X154939746Y-104206946D01*
X155600000Y-104206946D01*
X155600000Y-104725000D01*
X156345854Y-104725000D01*
X156307370Y-104791657D01*
X156275000Y-104912465D01*
X156275000Y-105037535D01*
X156307370Y-105158343D01*
X156345854Y-105225000D01*
X155600000Y-105225000D01*
X155600000Y-105743053D01*
X155610613Y-105831443D01*
X155666079Y-105972095D01*
X155757435Y-106092564D01*
X155877904Y-106183920D01*
X156018556Y-106239386D01*
X156106946Y-106250000D01*
X156500000Y-106250000D01*
X156500000Y-105379145D01*
X156566657Y-105417630D01*
X156687465Y-105450000D01*
X156812535Y-105450000D01*
X156933343Y-105417630D01*
X157000000Y-105379145D01*
X157000000Y-106250000D01*
X157393054Y-106250000D01*
X157481443Y-106239386D01*
X157622095Y-106183920D01*
X157742564Y-106092564D01*
X157833920Y-105972095D01*
X157889386Y-105831443D01*
X157900000Y-105743053D01*
X157900000Y-105451130D01*
X157919685Y-105384091D01*
X157972489Y-105338336D01*
X158041647Y-105328392D01*
X158105203Y-105357417D01*
X158141931Y-105412813D01*
X158183786Y-105541633D01*
X158183788Y-105541639D01*
X158266006Y-105702997D01*
X158372441Y-105849494D01*
X158372445Y-105849499D01*
X158500500Y-105977554D01*
X158500505Y-105977558D01*
X158628287Y-106070396D01*
X158647006Y-106083996D01*
X158752484Y-106137740D01*
X158808360Y-106166211D01*
X158808363Y-106166212D01*
X158891524Y-106193232D01*
X158980591Y-106222171D01*
X159063429Y-106235291D01*
X159159449Y-106250500D01*
X159159454Y-106250500D01*
X159340551Y-106250500D01*
X159427259Y-106236765D01*
X159519409Y-106222171D01*
X159691639Y-106166211D01*
X159852994Y-106083996D01*
X159999501Y-105977553D01*
X160127553Y-105849501D01*
X160233996Y-105702994D01*
X160316211Y-105541639D01*
X160372171Y-105369409D01*
X160376292Y-105343388D01*
X160377527Y-105335594D01*
X160407456Y-105272459D01*
X160466768Y-105235528D01*
X160536630Y-105236526D01*
X160594863Y-105275136D01*
X160622473Y-105335594D01*
X160627829Y-105369410D01*
X160683787Y-105541636D01*
X160683788Y-105541639D01*
X160766006Y-105702997D01*
X160872441Y-105849494D01*
X160872445Y-105849499D01*
X161000500Y-105977554D01*
X161000505Y-105977558D01*
X161128287Y-106070396D01*
X161147006Y-106083996D01*
X161252484Y-106137740D01*
X161308360Y-106166211D01*
X161308363Y-106166212D01*
X161391524Y-106193232D01*
X161480591Y-106222171D01*
X161563429Y-106235291D01*
X161659449Y-106250500D01*
X161659454Y-106250500D01*
X161840551Y-106250500D01*
X161927259Y-106236765D01*
X162019409Y-106222171D01*
X162191639Y-106166211D01*
X162352994Y-106083996D01*
X162499501Y-105977553D01*
X162627553Y-105849501D01*
X162733996Y-105702994D01*
X162816211Y-105541639D01*
X162872171Y-105369409D01*
X162893376Y-105235528D01*
X162900500Y-105190551D01*
X162900500Y-104759448D01*
X162878506Y-104620589D01*
X162872171Y-104580591D01*
X162816211Y-104408361D01*
X162816211Y-104408360D01*
X162787740Y-104352484D01*
X162733996Y-104247006D01*
X162682412Y-104176006D01*
X162627558Y-104100505D01*
X162627554Y-104100500D01*
X162499499Y-103972445D01*
X162499494Y-103972441D01*
X162352997Y-103866006D01*
X162352996Y-103866005D01*
X162352994Y-103866004D01*
X162270143Y-103823789D01*
X162191639Y-103783788D01*
X162191636Y-103783787D01*
X162019410Y-103727829D01*
X161840551Y-103699500D01*
X161840546Y-103699500D01*
X161659454Y-103699500D01*
X161659449Y-103699500D01*
X161480589Y-103727829D01*
X161308363Y-103783787D01*
X161308360Y-103783788D01*
X161147002Y-103866006D01*
X161000505Y-103972441D01*
X161000500Y-103972445D01*
X160872445Y-104100500D01*
X160872441Y-104100505D01*
X160766006Y-104247002D01*
X160683788Y-104408360D01*
X160683787Y-104408363D01*
X160627829Y-104580589D01*
X160622473Y-104614406D01*
X160592543Y-104677540D01*
X160533232Y-104714471D01*
X160463369Y-104713473D01*
X160405137Y-104674863D01*
X160377527Y-104614406D01*
X160374431Y-104594862D01*
X160372171Y-104580591D01*
X160316211Y-104408361D01*
X160316211Y-104408360D01*
X160287740Y-104352484D01*
X160233996Y-104247006D01*
X160182412Y-104176006D01*
X160127558Y-104100505D01*
X160127554Y-104100500D01*
X159999499Y-103972445D01*
X159999494Y-103972441D01*
X159852997Y-103866006D01*
X159852996Y-103866005D01*
X159852994Y-103866004D01*
X159770143Y-103823789D01*
X159691639Y-103783788D01*
X159691636Y-103783787D01*
X159519410Y-103727829D01*
X159340551Y-103699500D01*
X159340546Y-103699500D01*
X159159454Y-103699500D01*
X159159449Y-103699500D01*
X158980589Y-103727829D01*
X158808363Y-103783787D01*
X158808360Y-103783788D01*
X158647002Y-103866006D01*
X158500505Y-103972441D01*
X158500500Y-103972445D01*
X158372445Y-104100500D01*
X158372441Y-104100505D01*
X158266006Y-104247002D01*
X158183788Y-104408360D01*
X158183787Y-104408363D01*
X158141931Y-104537187D01*
X158102494Y-104594862D01*
X158038135Y-104622061D01*
X157969289Y-104610147D01*
X157917813Y-104562903D01*
X157900000Y-104498869D01*
X157900000Y-104206946D01*
X157889386Y-104118556D01*
X157833920Y-103977904D01*
X157742564Y-103857435D01*
X157622095Y-103766079D01*
X157481443Y-103710613D01*
X157393054Y-103700000D01*
X157000000Y-103700000D01*
X157000000Y-104570854D01*
X156933343Y-104532370D01*
X156812535Y-104500000D01*
X156687465Y-104500000D01*
X156566657Y-104532370D01*
X156500000Y-104570854D01*
X156500000Y-103700000D01*
X156106946Y-103700000D01*
X156018556Y-103710613D01*
X155877904Y-103766079D01*
X155757435Y-103857435D01*
X155666079Y-103977904D01*
X155610613Y-104118556D01*
X155600000Y-104206946D01*
X154939746Y-104206946D01*
X154835632Y-104163821D01*
X154835622Y-104163818D01*
X154700295Y-104136900D01*
X154700293Y-104136900D01*
X154562307Y-104136900D01*
X154562305Y-104136900D01*
X154426977Y-104163818D01*
X154426967Y-104163821D01*
X154299495Y-104216621D01*
X154299482Y-104216628D01*
X154184758Y-104293285D01*
X154184754Y-104293288D01*
X154087188Y-104390854D01*
X154087185Y-104390858D01*
X154010528Y-104505582D01*
X154010521Y-104505595D01*
X153957721Y-104633067D01*
X153957718Y-104633077D01*
X153930800Y-104768404D01*
X153930800Y-104768407D01*
X153930800Y-104906393D01*
X153930800Y-104906395D01*
X153930799Y-104906395D01*
X148605421Y-104906395D01*
X148559414Y-104843072D01*
X148436928Y-104720586D01*
X148296788Y-104618768D01*
X148142445Y-104540127D01*
X147977701Y-104486598D01*
X147977699Y-104486597D01*
X147977698Y-104486597D01*
X147846271Y-104465781D01*
X147806611Y-104459500D01*
X147633389Y-104459500D01*
X147593728Y-104465781D01*
X147462302Y-104486597D01*
X147297552Y-104540128D01*
X147143211Y-104618768D01*
X147123524Y-104633072D01*
X147003072Y-104720586D01*
X147003070Y-104720588D01*
X147003069Y-104720588D01*
X146880588Y-104843069D01*
X146880588Y-104843070D01*
X146880586Y-104843072D01*
X146880585Y-104843074D01*
X146778768Y-104983211D01*
X146700128Y-105137552D01*
X146646597Y-105302302D01*
X146623204Y-105450000D01*
X146619500Y-105473389D01*
X133580500Y-105473389D01*
X133553402Y-105302299D01*
X133499873Y-105137555D01*
X133421232Y-104983212D01*
X133319414Y-104843072D01*
X133196928Y-104720586D01*
X133056788Y-104618768D01*
X132902445Y-104540127D01*
X132737701Y-104486598D01*
X132737699Y-104486597D01*
X132737698Y-104486597D01*
X132606271Y-104465781D01*
X132566611Y-104459500D01*
X132393389Y-104459500D01*
X132353728Y-104465781D01*
X132222302Y-104486597D01*
X132057552Y-104540128D01*
X131903211Y-104618768D01*
X131883524Y-104633072D01*
X131763072Y-104720586D01*
X131763070Y-104720588D01*
X131763069Y-104720588D01*
X131640588Y-104843069D01*
X131640588Y-104843070D01*
X131640586Y-104843072D01*
X131640585Y-104843074D01*
X131538768Y-104983211D01*
X131460128Y-105137552D01*
X131406597Y-105302302D01*
X131383204Y-105450000D01*
X131379500Y-105473389D01*
X126613985Y-105473389D01*
X126636394Y-105429410D01*
X126645153Y-105412221D01*
X126686211Y-105331639D01*
X126686212Y-105331636D01*
X126701709Y-105283941D01*
X126742171Y-105159409D01*
X126761474Y-105037535D01*
X126770500Y-104980551D01*
X126770500Y-104799448D01*
X126750767Y-104674863D01*
X126742171Y-104620591D01*
X126698635Y-104486598D01*
X126686212Y-104448363D01*
X126686211Y-104448360D01*
X126656910Y-104390854D01*
X126603996Y-104287006D01*
X126590396Y-104268287D01*
X126497558Y-104140505D01*
X126497554Y-104140500D01*
X126369499Y-104012445D01*
X126369494Y-104012441D01*
X126222997Y-103906006D01*
X126222996Y-103906005D01*
X126222994Y-103906004D01*
X126144494Y-103866006D01*
X126061639Y-103823788D01*
X126061636Y-103823787D01*
X125889410Y-103767829D01*
X125729321Y-103742473D01*
X125666186Y-103712544D01*
X125629255Y-103653232D01*
X125630253Y-103583370D01*
X125668863Y-103525137D01*
X125729321Y-103497527D01*
X125799425Y-103486422D01*
X125889409Y-103472171D01*
X126061639Y-103416211D01*
X126222994Y-103333996D01*
X126369501Y-103227553D01*
X126497553Y-103099501D01*
X126603996Y-102952994D01*
X126613985Y-102933389D01*
X131379500Y-102933389D01*
X131379500Y-103106611D01*
X131406598Y-103277701D01*
X131451603Y-103416212D01*
X131460128Y-103442447D01*
X131475273Y-103472171D01*
X131538768Y-103596788D01*
X131640586Y-103736928D01*
X131763072Y-103859414D01*
X131903212Y-103961232D01*
X132057555Y-104039873D01*
X132222299Y-104093402D01*
X132393389Y-104120500D01*
X132393390Y-104120500D01*
X132566610Y-104120500D01*
X132566611Y-104120500D01*
X132737701Y-104093402D01*
X132902445Y-104039873D01*
X133056788Y-103961232D01*
X133196928Y-103859414D01*
X133319414Y-103736928D01*
X133421232Y-103596788D01*
X133499873Y-103442445D01*
X133553402Y-103277701D01*
X133580500Y-103106611D01*
X133580500Y-102933389D01*
X146619500Y-102933389D01*
X146619500Y-103106611D01*
X146646598Y-103277701D01*
X146691603Y-103416212D01*
X146700128Y-103442447D01*
X146715273Y-103472171D01*
X146778768Y-103596788D01*
X146880586Y-103736928D01*
X147003072Y-103859414D01*
X147143212Y-103961232D01*
X147297555Y-104039873D01*
X147462299Y-104093402D01*
X147633389Y-104120500D01*
X147633390Y-104120500D01*
X147806610Y-104120500D01*
X147806611Y-104120500D01*
X147977701Y-104093402D01*
X148142445Y-104039873D01*
X148296788Y-103961232D01*
X148436928Y-103859414D01*
X148559414Y-103736928D01*
X148661232Y-103596788D01*
X148739873Y-103442445D01*
X148793402Y-103277701D01*
X148820500Y-103106611D01*
X148820500Y-102933389D01*
X148793402Y-102762299D01*
X148739873Y-102597555D01*
X148661232Y-102443212D01*
X148559414Y-102303072D01*
X148436928Y-102180586D01*
X148296788Y-102078768D01*
X148142445Y-102000127D01*
X147977701Y-101946598D01*
X147977699Y-101946597D01*
X147977698Y-101946597D01*
X147846271Y-101925781D01*
X147806611Y-101919500D01*
X147633389Y-101919500D01*
X147593728Y-101925781D01*
X147462302Y-101946597D01*
X147297552Y-102000128D01*
X147143211Y-102078768D01*
X147063256Y-102136859D01*
X147003072Y-102180586D01*
X147003070Y-102180588D01*
X147003069Y-102180588D01*
X146880588Y-102303069D01*
X146880588Y-102303070D01*
X146880586Y-102303072D01*
X146846063Y-102350589D01*
X146778768Y-102443211D01*
X146700128Y-102597552D01*
X146646597Y-102762302D01*
X146619500Y-102933389D01*
X133580500Y-102933389D01*
X133553402Y-102762299D01*
X133499873Y-102597555D01*
X133421232Y-102443212D01*
X133319414Y-102303072D01*
X133196928Y-102180586D01*
X133056788Y-102078768D01*
X132902445Y-102000127D01*
X132737701Y-101946598D01*
X132737699Y-101946597D01*
X132737698Y-101946597D01*
X132606271Y-101925781D01*
X132566611Y-101919500D01*
X132393389Y-101919500D01*
X132353728Y-101925781D01*
X132222302Y-101946597D01*
X132057552Y-102000128D01*
X131903211Y-102078768D01*
X131823256Y-102136859D01*
X131763072Y-102180586D01*
X131763070Y-102180588D01*
X131763069Y-102180588D01*
X131640588Y-102303069D01*
X131640588Y-102303070D01*
X131640586Y-102303072D01*
X131606063Y-102350589D01*
X131538768Y-102443211D01*
X131460128Y-102597552D01*
X131406597Y-102762302D01*
X131379500Y-102933389D01*
X126613985Y-102933389D01*
X126636394Y-102889410D01*
X126645153Y-102872221D01*
X126686211Y-102791639D01*
X126686212Y-102791636D01*
X126695744Y-102762299D01*
X126742171Y-102619409D01*
X126756765Y-102527259D01*
X126770500Y-102440551D01*
X126770500Y-102259448D01*
X126754019Y-102155397D01*
X126742171Y-102080591D01*
X126698635Y-101946598D01*
X126686212Y-101908363D01*
X126686211Y-101908360D01*
X126657740Y-101852484D01*
X126603996Y-101747006D01*
X126590396Y-101728287D01*
X126497558Y-101600505D01*
X126497554Y-101600500D01*
X126369499Y-101472445D01*
X126369494Y-101472441D01*
X126222997Y-101366006D01*
X126222996Y-101366005D01*
X126222994Y-101366004D01*
X126131551Y-101319411D01*
X126061639Y-101283788D01*
X126061636Y-101283787D01*
X125889410Y-101227829D01*
X125729321Y-101202473D01*
X125666186Y-101172544D01*
X125629255Y-101113232D01*
X125630253Y-101043370D01*
X125668863Y-100985137D01*
X125729321Y-100957527D01*
X125802569Y-100945925D01*
X125889409Y-100932171D01*
X126061639Y-100876211D01*
X126222994Y-100793996D01*
X126369501Y-100687553D01*
X126497553Y-100559501D01*
X126603996Y-100412994D01*
X126686211Y-100251639D01*
X126693242Y-100229999D01*
X131405884Y-100229999D01*
X131405885Y-100230000D01*
X132046988Y-100230000D01*
X132014075Y-100287007D01*
X131980000Y-100414174D01*
X131980000Y-100545826D01*
X132014075Y-100672993D01*
X132046988Y-100730000D01*
X131405885Y-100730000D01*
X131407085Y-100737584D01*
X131460591Y-100902255D01*
X131539195Y-101056524D01*
X131640967Y-101196602D01*
X131763397Y-101319032D01*
X131903475Y-101420804D01*
X132057744Y-101499408D01*
X132222415Y-101552914D01*
X132222414Y-101552914D01*
X132229999Y-101554115D01*
X132230000Y-101554114D01*
X132230000Y-100913012D01*
X132287007Y-100945925D01*
X132414174Y-100980000D01*
X132545826Y-100980000D01*
X132672993Y-100945925D01*
X132730000Y-100913012D01*
X132730000Y-101554115D01*
X132737584Y-101552914D01*
X132902255Y-101499408D01*
X133056524Y-101420804D01*
X133196602Y-101319032D01*
X133319032Y-101196602D01*
X133420804Y-101056524D01*
X133499408Y-100902255D01*
X133552914Y-100737584D01*
X133554115Y-100730000D01*
X132913012Y-100730000D01*
X132945925Y-100672993D01*
X132980000Y-100545826D01*
X132980000Y-100414174D01*
X132974431Y-100393389D01*
X146619500Y-100393389D01*
X146619500Y-100566611D01*
X146646598Y-100737701D01*
X146700065Y-100902255D01*
X146700128Y-100902447D01*
X146715273Y-100932171D01*
X146778768Y-101056788D01*
X146880586Y-101196928D01*
X147003072Y-101319414D01*
X147143212Y-101421232D01*
X147297555Y-101499873D01*
X147462299Y-101553402D01*
X147633389Y-101580500D01*
X147633390Y-101580500D01*
X147806610Y-101580500D01*
X147806611Y-101580500D01*
X147977701Y-101553402D01*
X148142445Y-101499873D01*
X148296788Y-101421232D01*
X148436928Y-101319414D01*
X148559414Y-101196928D01*
X148661232Y-101056788D01*
X148739873Y-100902445D01*
X148793402Y-100737701D01*
X148820500Y-100566611D01*
X148820500Y-100393389D01*
X148793402Y-100222299D01*
X148739873Y-100057555D01*
X148739871Y-100057552D01*
X148739871Y-100057550D01*
X148731376Y-100040878D01*
X148731375Y-100040876D01*
X148661233Y-99903213D01*
X148645937Y-99882160D01*
X148559414Y-99763072D01*
X148436928Y-99640586D01*
X148296788Y-99538768D01*
X148142445Y-99460127D01*
X147977701Y-99406598D01*
X147977699Y-99406597D01*
X147977698Y-99406597D01*
X147846271Y-99385781D01*
X147806611Y-99379500D01*
X147633389Y-99379500D01*
X147593728Y-99385781D01*
X147462302Y-99406597D01*
X147297552Y-99460128D01*
X147143211Y-99538768D01*
X147063256Y-99596859D01*
X147003072Y-99640586D01*
X147003070Y-99640588D01*
X147003069Y-99640588D01*
X146880588Y-99763069D01*
X146880588Y-99763070D01*
X146880586Y-99763072D01*
X146880350Y-99763397D01*
X146778768Y-99903211D01*
X146700128Y-100057552D01*
X146646597Y-100222302D01*
X146619500Y-100393389D01*
X132974431Y-100393389D01*
X132945925Y-100287007D01*
X132913012Y-100230000D01*
X133554115Y-100230000D01*
X133554115Y-100229999D01*
X133552914Y-100222415D01*
X133499408Y-100057744D01*
X133420804Y-99903475D01*
X133319032Y-99763397D01*
X133196602Y-99640967D01*
X133056524Y-99539195D01*
X132902257Y-99460591D01*
X132737589Y-99407087D01*
X132737581Y-99407085D01*
X132730000Y-99405884D01*
X132730000Y-100046988D01*
X132672993Y-100014075D01*
X132545826Y-99980000D01*
X132414174Y-99980000D01*
X132287007Y-100014075D01*
X132230000Y-100046988D01*
X132230000Y-99405884D01*
X132229999Y-99405884D01*
X132222418Y-99407085D01*
X132222410Y-99407087D01*
X132057742Y-99460591D01*
X131903475Y-99539195D01*
X131763397Y-99640967D01*
X131640967Y-99763397D01*
X131539195Y-99903475D01*
X131460591Y-100057744D01*
X131407085Y-100222415D01*
X131405884Y-100229999D01*
X126693242Y-100229999D01*
X126742171Y-100079409D01*
X126757916Y-99980000D01*
X126770500Y-99900551D01*
X126770500Y-99719448D01*
X126754019Y-99615397D01*
X126742171Y-99540591D01*
X126698635Y-99406598D01*
X126686212Y-99368363D01*
X126686211Y-99368360D01*
X126657740Y-99312484D01*
X126603996Y-99207006D01*
X126590396Y-99188287D01*
X126497558Y-99060505D01*
X126497554Y-99060500D01*
X126369499Y-98932445D01*
X126369494Y-98932441D01*
X126222997Y-98826006D01*
X126222996Y-98826005D01*
X126222994Y-98826004D01*
X126131551Y-98779411D01*
X126061639Y-98743788D01*
X126061636Y-98743787D01*
X125889410Y-98687829D01*
X125729321Y-98662473D01*
X125666186Y-98632544D01*
X125629255Y-98573232D01*
X125630253Y-98503370D01*
X125668863Y-98445137D01*
X125729321Y-98417527D01*
X125799425Y-98406422D01*
X125889409Y-98392171D01*
X126061639Y-98336211D01*
X126222994Y-98253996D01*
X126369501Y-98147553D01*
X126497553Y-98019501D01*
X126603996Y-97872994D01*
X126613985Y-97853389D01*
X131379500Y-97853389D01*
X131379500Y-98026611D01*
X131406598Y-98197701D01*
X131451603Y-98336212D01*
X131460128Y-98362447D01*
X131475273Y-98392171D01*
X131538768Y-98516788D01*
X131640586Y-98656928D01*
X131763072Y-98779414D01*
X131903212Y-98881232D01*
X132057555Y-98959873D01*
X132222299Y-99013402D01*
X132393389Y-99040500D01*
X132393390Y-99040500D01*
X132566610Y-99040500D01*
X132566611Y-99040500D01*
X132737701Y-99013402D01*
X132902445Y-98959873D01*
X133056788Y-98881232D01*
X133196928Y-98779414D01*
X133319414Y-98656928D01*
X133421232Y-98516788D01*
X133499873Y-98362445D01*
X133553402Y-98197701D01*
X133580500Y-98026611D01*
X133580500Y-97853389D01*
X146619500Y-97853389D01*
X146619500Y-98026611D01*
X146646598Y-98197701D01*
X146691603Y-98336212D01*
X146700128Y-98362447D01*
X146715273Y-98392171D01*
X146778768Y-98516788D01*
X146880586Y-98656928D01*
X147003072Y-98779414D01*
X147143212Y-98881232D01*
X147297555Y-98959873D01*
X147462299Y-99013402D01*
X147633389Y-99040500D01*
X147633390Y-99040500D01*
X147806610Y-99040500D01*
X147806611Y-99040500D01*
X147977701Y-99013402D01*
X148142445Y-98959873D01*
X148296788Y-98881232D01*
X148436928Y-98779414D01*
X148559414Y-98656928D01*
X148661232Y-98516788D01*
X148739873Y-98362445D01*
X148793402Y-98197701D01*
X148820500Y-98026611D01*
X148820500Y-97853389D01*
X148793402Y-97682299D01*
X148739873Y-97517555D01*
X148739871Y-97517552D01*
X148739870Y-97517547D01*
X148739869Y-97517546D01*
X148731396Y-97500916D01*
X148731395Y-97500915D01*
X148661233Y-97363213D01*
X148645937Y-97342160D01*
X148559414Y-97223072D01*
X148436928Y-97100586D01*
X148296788Y-96998768D01*
X148142445Y-96920127D01*
X147977701Y-96866598D01*
X147977699Y-96866597D01*
X147977698Y-96866597D01*
X147846271Y-96845781D01*
X147806611Y-96839500D01*
X147633389Y-96839500D01*
X147593728Y-96845781D01*
X147462302Y-96866597D01*
X147297552Y-96920128D01*
X147143211Y-96998768D01*
X147086461Y-97040000D01*
X147003072Y-97100586D01*
X147003070Y-97100588D01*
X147003069Y-97100588D01*
X146880588Y-97223069D01*
X146880588Y-97223070D01*
X146880586Y-97223072D01*
X146873378Y-97232993D01*
X146778768Y-97363211D01*
X146700128Y-97517552D01*
X146646597Y-97682302D01*
X146629188Y-97792221D01*
X146619500Y-97853389D01*
X133580500Y-97853389D01*
X133553402Y-97682299D01*
X133499873Y-97517555D01*
X133421232Y-97363212D01*
X133319414Y-97223072D01*
X133196928Y-97100586D01*
X133056788Y-96998768D01*
X132902445Y-96920127D01*
X132737701Y-96866598D01*
X132737699Y-96866597D01*
X132737698Y-96866597D01*
X132606271Y-96845781D01*
X132566611Y-96839500D01*
X132393389Y-96839500D01*
X132353728Y-96845781D01*
X132222302Y-96866597D01*
X132057552Y-96920128D01*
X131903211Y-96998768D01*
X131846461Y-97040000D01*
X131763072Y-97100586D01*
X131763070Y-97100588D01*
X131763069Y-97100588D01*
X131640588Y-97223069D01*
X131640588Y-97223070D01*
X131640586Y-97223072D01*
X131633378Y-97232993D01*
X131538768Y-97363211D01*
X131460128Y-97517552D01*
X131406597Y-97682302D01*
X131389188Y-97792221D01*
X131379500Y-97853389D01*
X126613985Y-97853389D01*
X126619167Y-97843218D01*
X126645153Y-97792221D01*
X126686211Y-97711639D01*
X126686212Y-97711636D01*
X126720591Y-97605826D01*
X126742171Y-97539409D01*
X126770078Y-97363213D01*
X126770500Y-97360551D01*
X126770500Y-97179448D01*
X126753810Y-97074075D01*
X126742171Y-97000591D01*
X126698635Y-96866598D01*
X126686212Y-96828363D01*
X126686211Y-96828360D01*
X126657740Y-96772484D01*
X126603996Y-96667006D01*
X126590396Y-96648287D01*
X126497558Y-96520505D01*
X126497554Y-96520500D01*
X126369499Y-96392445D01*
X126369494Y-96392441D01*
X126222997Y-96286006D01*
X126222996Y-96286005D01*
X126222994Y-96286004D01*
X126131551Y-96239411D01*
X126061639Y-96203788D01*
X126061636Y-96203787D01*
X125889410Y-96147829D01*
X125729321Y-96122473D01*
X125666186Y-96092544D01*
X125629255Y-96033232D01*
X125630253Y-95963370D01*
X125668863Y-95905137D01*
X125729321Y-95877527D01*
X125799425Y-95866422D01*
X125889409Y-95852171D01*
X126061639Y-95796211D01*
X126222994Y-95713996D01*
X126369501Y-95607553D01*
X126497553Y-95479501D01*
X126603996Y-95332994D01*
X126613985Y-95313389D01*
X131379500Y-95313389D01*
X131379500Y-95486611D01*
X131406598Y-95657701D01*
X131451603Y-95796212D01*
X131460128Y-95822447D01*
X131475273Y-95852171D01*
X131538768Y-95976788D01*
X131640586Y-96116928D01*
X131763072Y-96239414D01*
X131903212Y-96341232D01*
X132057555Y-96419873D01*
X132222299Y-96473402D01*
X132393389Y-96500500D01*
X132393390Y-96500500D01*
X132566610Y-96500500D01*
X132566611Y-96500500D01*
X132737701Y-96473402D01*
X132902445Y-96419873D01*
X133056788Y-96341232D01*
X133196928Y-96239414D01*
X133319414Y-96116928D01*
X133421232Y-95976788D01*
X133499873Y-95822445D01*
X133553402Y-95657701D01*
X133580500Y-95486611D01*
X133580500Y-95313389D01*
X146619500Y-95313389D01*
X146619500Y-95486611D01*
X146646598Y-95657701D01*
X146691603Y-95796212D01*
X146700128Y-95822447D01*
X146715273Y-95852171D01*
X146778768Y-95976788D01*
X146880586Y-96116928D01*
X147003072Y-96239414D01*
X147143212Y-96341232D01*
X147297555Y-96419873D01*
X147462299Y-96473402D01*
X147633389Y-96500500D01*
X147633390Y-96500500D01*
X147806610Y-96500500D01*
X147806611Y-96500500D01*
X147977701Y-96473402D01*
X148142445Y-96419873D01*
X148296788Y-96341232D01*
X148436928Y-96239414D01*
X148559414Y-96116928D01*
X148661232Y-95976788D01*
X148739873Y-95822445D01*
X148793402Y-95657701D01*
X148820500Y-95486611D01*
X148820500Y-95313389D01*
X148793402Y-95142299D01*
X148739873Y-94977555D01*
X148661232Y-94823212D01*
X148559414Y-94683072D01*
X148436928Y-94560586D01*
X148296788Y-94458768D01*
X148142445Y-94380127D01*
X147977701Y-94326598D01*
X147977699Y-94326597D01*
X147977698Y-94326597D01*
X147846271Y-94305781D01*
X147806611Y-94299500D01*
X147633389Y-94299500D01*
X147593728Y-94305781D01*
X147462302Y-94326597D01*
X147297552Y-94380128D01*
X147143211Y-94458768D01*
X147063256Y-94516859D01*
X147003072Y-94560586D01*
X147003070Y-94560588D01*
X147003069Y-94560588D01*
X146880588Y-94683069D01*
X146880588Y-94683070D01*
X146880586Y-94683072D01*
X146836859Y-94743256D01*
X146778768Y-94823211D01*
X146700128Y-94977552D01*
X146646597Y-95142302D01*
X146641951Y-95171636D01*
X146619500Y-95313389D01*
X133580500Y-95313389D01*
X133553402Y-95142299D01*
X133499873Y-94977555D01*
X133421232Y-94823212D01*
X133319414Y-94683072D01*
X133196928Y-94560586D01*
X133056788Y-94458768D01*
X132902445Y-94380127D01*
X132737701Y-94326598D01*
X132737699Y-94326597D01*
X132737698Y-94326597D01*
X132606271Y-94305781D01*
X132566611Y-94299500D01*
X132393389Y-94299500D01*
X132353728Y-94305781D01*
X132222302Y-94326597D01*
X132057552Y-94380128D01*
X131903211Y-94458768D01*
X131823256Y-94516859D01*
X131763072Y-94560586D01*
X131763070Y-94560588D01*
X131763069Y-94560588D01*
X131640588Y-94683069D01*
X131640588Y-94683070D01*
X131640586Y-94683072D01*
X131596859Y-94743256D01*
X131538768Y-94823211D01*
X131460128Y-94977552D01*
X131406597Y-95142302D01*
X131401951Y-95171636D01*
X131379500Y-95313389D01*
X126613985Y-95313389D01*
X126619167Y-95303218D01*
X126645153Y-95252221D01*
X126686211Y-95171639D01*
X126686212Y-95171636D01*
X126695744Y-95142299D01*
X126742171Y-94999409D01*
X126756765Y-94907259D01*
X126770500Y-94820551D01*
X126770500Y-94639448D01*
X126754019Y-94535397D01*
X126742171Y-94460591D01*
X126698635Y-94326598D01*
X126686212Y-94288363D01*
X126686206Y-94288350D01*
X126619712Y-94157849D01*
X126619711Y-94157848D01*
X126603995Y-94127004D01*
X126588103Y-94105131D01*
X174849500Y-94105131D01*
X174849500Y-95894856D01*
X174849502Y-95894882D01*
X174852413Y-95919987D01*
X174852415Y-95919991D01*
X174897793Y-96022764D01*
X174897794Y-96022765D01*
X174977235Y-96102206D01*
X175080009Y-96147585D01*
X175105135Y-96150500D01*
X175846073Y-96150499D01*
X175913111Y-96170183D01*
X175958866Y-96222987D01*
X175968810Y-96292146D01*
X175939785Y-96355702D01*
X175881007Y-96393476D01*
X175865470Y-96396972D01*
X175730706Y-96418316D01*
X175558555Y-96474251D01*
X175558547Y-96474254D01*
X175397269Y-96556432D01*
X175381466Y-96567912D01*
X175381466Y-96567913D01*
X175870591Y-97057037D01*
X175807007Y-97074075D01*
X175692993Y-97139901D01*
X175599901Y-97232993D01*
X175534075Y-97347007D01*
X175517037Y-97410590D01*
X175027913Y-96921466D01*
X175027912Y-96921466D01*
X175016432Y-96937269D01*
X174934254Y-97098547D01*
X174934251Y-97098555D01*
X174878317Y-97270706D01*
X174850000Y-97449493D01*
X174850000Y-97630506D01*
X174878317Y-97809293D01*
X174934251Y-97981444D01*
X174934252Y-97981447D01*
X175016431Y-98142730D01*
X175027913Y-98158532D01*
X175027913Y-98158533D01*
X175517037Y-97669409D01*
X175534075Y-97732993D01*
X175599901Y-97847007D01*
X175692993Y-97940099D01*
X175807007Y-98005925D01*
X175870590Y-98022962D01*
X175381466Y-98512085D01*
X175381466Y-98512086D01*
X175397267Y-98523566D01*
X175397275Y-98523571D01*
X175558552Y-98605747D01*
X175558555Y-98605748D01*
X175730706Y-98661682D01*
X175892279Y-98687273D01*
X175955413Y-98717202D01*
X175992345Y-98776513D01*
X175991347Y-98846376D01*
X175952738Y-98904609D01*
X175892280Y-98932219D01*
X175730589Y-98957829D01*
X175558363Y-99013787D01*
X175558360Y-99013788D01*
X175397002Y-99096006D01*
X175250505Y-99202441D01*
X175250500Y-99202445D01*
X175122445Y-99330500D01*
X175122441Y-99330505D01*
X175016006Y-99477002D01*
X174933788Y-99638360D01*
X174933787Y-99638363D01*
X174877829Y-99810589D01*
X174849500Y-99989448D01*
X174849500Y-100170551D01*
X174877829Y-100349410D01*
X174933787Y-100521636D01*
X174933788Y-100521639D01*
X174976393Y-100605254D01*
X175010908Y-100672993D01*
X175016006Y-100682997D01*
X175122441Y-100829494D01*
X175122445Y-100829499D01*
X175250500Y-100957554D01*
X175250505Y-100957558D01*
X175288465Y-100985137D01*
X175397006Y-101063996D01*
X175500307Y-101116631D01*
X175558360Y-101146211D01*
X175558363Y-101146212D01*
X175639407Y-101172544D01*
X175730591Y-101202171D01*
X175803639Y-101213740D01*
X175890678Y-101227527D01*
X175953813Y-101257456D01*
X175990744Y-101316768D01*
X175989746Y-101386631D01*
X175951136Y-101444863D01*
X175890678Y-101472473D01*
X175730589Y-101497829D01*
X175558363Y-101553787D01*
X175558360Y-101553788D01*
X175397002Y-101636006D01*
X175250505Y-101742441D01*
X175250500Y-101742445D01*
X175122445Y-101870500D01*
X175122441Y-101870505D01*
X175016006Y-102017002D01*
X174933788Y-102178360D01*
X174933787Y-102178363D01*
X174877829Y-102350589D01*
X174849500Y-102529448D01*
X174849500Y-102710551D01*
X174877829Y-102889410D01*
X174933787Y-103061636D01*
X174933788Y-103061639D01*
X175016006Y-103222997D01*
X175122441Y-103369494D01*
X175122445Y-103369499D01*
X175250500Y-103497554D01*
X175250505Y-103497558D01*
X175288465Y-103525137D01*
X175397006Y-103603996D01*
X175500307Y-103656631D01*
X175558360Y-103686211D01*
X175558363Y-103686212D01*
X175633464Y-103710613D01*
X175730591Y-103742171D01*
X175803639Y-103753740D01*
X175890678Y-103767527D01*
X175953813Y-103797456D01*
X175990744Y-103856768D01*
X175989746Y-103926631D01*
X175951136Y-103984863D01*
X175890678Y-104012473D01*
X175730589Y-104037829D01*
X175558363Y-104093787D01*
X175558360Y-104093788D01*
X175397002Y-104176006D01*
X175250505Y-104282441D01*
X175250500Y-104282445D01*
X175122445Y-104410500D01*
X175122441Y-104410505D01*
X175016006Y-104557002D01*
X174933788Y-104718360D01*
X174933787Y-104718363D01*
X174877829Y-104890589D01*
X174849500Y-105069448D01*
X174849500Y-105250551D01*
X174877829Y-105429410D01*
X174933787Y-105601636D01*
X174933788Y-105601639D01*
X174985432Y-105702994D01*
X175005843Y-105743053D01*
X175016006Y-105762997D01*
X175122441Y-105909494D01*
X175122445Y-105909499D01*
X175250500Y-106037554D01*
X175250505Y-106037558D01*
X175368617Y-106123370D01*
X175397006Y-106143996D01*
X175500307Y-106196631D01*
X175558360Y-106226211D01*
X175558363Y-106226212D01*
X175598910Y-106239386D01*
X175730591Y-106282171D01*
X175803639Y-106293740D01*
X175890678Y-106307527D01*
X175953813Y-106337456D01*
X175990744Y-106396768D01*
X175989746Y-106466631D01*
X175951136Y-106524863D01*
X175890678Y-106552473D01*
X175730589Y-106577829D01*
X175558363Y-106633787D01*
X175558360Y-106633788D01*
X175397002Y-106716006D01*
X175250505Y-106822441D01*
X175250500Y-106822445D01*
X175122445Y-106950500D01*
X175122441Y-106950505D01*
X175016006Y-107097002D01*
X174933788Y-107258360D01*
X174933787Y-107258363D01*
X174877829Y-107430589D01*
X174849500Y-107609448D01*
X174849500Y-107790551D01*
X174877829Y-107969410D01*
X174933787Y-108141636D01*
X174933788Y-108141639D01*
X175016006Y-108302997D01*
X175122441Y-108449494D01*
X175122445Y-108449499D01*
X175250500Y-108577554D01*
X175250505Y-108577558D01*
X175288465Y-108605137D01*
X175397006Y-108683996D01*
X175500307Y-108736631D01*
X175558360Y-108766211D01*
X175558363Y-108766212D01*
X175639407Y-108792544D01*
X175730591Y-108822171D01*
X175803639Y-108833740D01*
X175890678Y-108847527D01*
X175953813Y-108877456D01*
X175990744Y-108936768D01*
X175989746Y-109006631D01*
X175951136Y-109064863D01*
X175890678Y-109092473D01*
X175730589Y-109117829D01*
X175558363Y-109173787D01*
X175558360Y-109173788D01*
X175397002Y-109256006D01*
X175250505Y-109362441D01*
X175250500Y-109362445D01*
X175122445Y-109490500D01*
X175122441Y-109490505D01*
X175016006Y-109637002D01*
X174933788Y-109798360D01*
X174933787Y-109798363D01*
X174877829Y-109970589D01*
X174849500Y-110149448D01*
X174849500Y-110330551D01*
X174877829Y-110509410D01*
X174933787Y-110681636D01*
X174933788Y-110681639D01*
X175016006Y-110842997D01*
X175122441Y-110989494D01*
X175122445Y-110989499D01*
X175250500Y-111117554D01*
X175250505Y-111117558D01*
X175288465Y-111145137D01*
X175397006Y-111223996D01*
X175500307Y-111276631D01*
X175558360Y-111306211D01*
X175558363Y-111306212D01*
X175639407Y-111332544D01*
X175730591Y-111362171D01*
X175813429Y-111375291D01*
X175909449Y-111390500D01*
X175909454Y-111390500D01*
X176090551Y-111390500D01*
X176177259Y-111376765D01*
X176269409Y-111362171D01*
X176441639Y-111306211D01*
X176602994Y-111223996D01*
X176749501Y-111117553D01*
X176877553Y-110989501D01*
X176983996Y-110842994D01*
X177066211Y-110681639D01*
X177122171Y-110509409D01*
X177137657Y-110411636D01*
X177150500Y-110330551D01*
X177150500Y-110149448D01*
X177134019Y-110045397D01*
X177122171Y-109970591D01*
X177066211Y-109798361D01*
X177066211Y-109798360D01*
X177016393Y-109700589D01*
X176983996Y-109637006D01*
X176905063Y-109528363D01*
X176877558Y-109490505D01*
X176877554Y-109490500D01*
X176749499Y-109362445D01*
X176749494Y-109362441D01*
X176602997Y-109256006D01*
X176602996Y-109256005D01*
X176602994Y-109256004D01*
X176533312Y-109220499D01*
X176441639Y-109173788D01*
X176441636Y-109173787D01*
X176269410Y-109117829D01*
X176109321Y-109092473D01*
X176046186Y-109062544D01*
X176009255Y-109003232D01*
X176010253Y-108933370D01*
X176048863Y-108875137D01*
X176109321Y-108847527D01*
X176179425Y-108836422D01*
X176269409Y-108822171D01*
X176441639Y-108766211D01*
X176602994Y-108683996D01*
X176749501Y-108577553D01*
X176877553Y-108449501D01*
X176983996Y-108302994D01*
X177066211Y-108141639D01*
X177122171Y-107969409D01*
X177142303Y-107842299D01*
X177150500Y-107790551D01*
X177150500Y-107609448D01*
X177134019Y-107505397D01*
X177122171Y-107430591D01*
X177066211Y-107258361D01*
X177066211Y-107258360D01*
X177016393Y-107160589D01*
X176983996Y-107097006D01*
X176913155Y-106999501D01*
X176877558Y-106950505D01*
X176877554Y-106950500D01*
X176749499Y-106822445D01*
X176749494Y-106822441D01*
X176602997Y-106716006D01*
X176602996Y-106716005D01*
X176602994Y-106716004D01*
X176533312Y-106680499D01*
X176441639Y-106633788D01*
X176441636Y-106633787D01*
X176269410Y-106577829D01*
X176109321Y-106552473D01*
X176046186Y-106522544D01*
X176009255Y-106463232D01*
X176010253Y-106393370D01*
X176048863Y-106335137D01*
X176109321Y-106307527D01*
X176179425Y-106296422D01*
X176269409Y-106282171D01*
X176441639Y-106226211D01*
X176602994Y-106143996D01*
X176749501Y-106037553D01*
X176877553Y-105909501D01*
X176983996Y-105762994D01*
X177066211Y-105601639D01*
X177122171Y-105429409D01*
X177137657Y-105331636D01*
X177150500Y-105250551D01*
X177150500Y-105069448D01*
X177124674Y-104906395D01*
X177122171Y-104890591D01*
X177066211Y-104718361D01*
X177066211Y-104718360D01*
X177016393Y-104620589D01*
X176983996Y-104557006D01*
X176946640Y-104505589D01*
X176877558Y-104410505D01*
X176877554Y-104410500D01*
X176749499Y-104282445D01*
X176749494Y-104282441D01*
X176602997Y-104176006D01*
X176602996Y-104176005D01*
X176602994Y-104176004D01*
X176526249Y-104136900D01*
X176441639Y-104093788D01*
X176441636Y-104093787D01*
X176269410Y-104037829D01*
X176109321Y-104012473D01*
X176046186Y-103982544D01*
X176009255Y-103923232D01*
X176010253Y-103853370D01*
X176048863Y-103795137D01*
X176109321Y-103767527D01*
X176179425Y-103756422D01*
X176269409Y-103742171D01*
X176441639Y-103686211D01*
X176602994Y-103603996D01*
X176749501Y-103497553D01*
X176877553Y-103369501D01*
X176983996Y-103222994D01*
X177066211Y-103061639D01*
X177122171Y-102889409D01*
X177142303Y-102762299D01*
X177150500Y-102710551D01*
X177150500Y-102529448D01*
X177134019Y-102425397D01*
X177122171Y-102350591D01*
X177066211Y-102178361D01*
X177066211Y-102178360D01*
X177016393Y-102080589D01*
X176983996Y-102017006D01*
X176932841Y-101946597D01*
X176877558Y-101870505D01*
X176877554Y-101870500D01*
X176749499Y-101742445D01*
X176749494Y-101742441D01*
X176602997Y-101636006D01*
X176602996Y-101636005D01*
X176602994Y-101636004D01*
X176533312Y-101600499D01*
X176441639Y-101553788D01*
X176441636Y-101553787D01*
X176269410Y-101497829D01*
X176109321Y-101472473D01*
X176046186Y-101442544D01*
X176009255Y-101383232D01*
X176010253Y-101313370D01*
X176048863Y-101255137D01*
X176109321Y-101227527D01*
X176179425Y-101216422D01*
X176269409Y-101202171D01*
X176441639Y-101146211D01*
X176602994Y-101063996D01*
X176749501Y-100957553D01*
X176877553Y-100829501D01*
X176983996Y-100682994D01*
X177066211Y-100521639D01*
X177122171Y-100349409D01*
X177137657Y-100251636D01*
X177150500Y-100170551D01*
X177150500Y-99989448D01*
X177134019Y-99885397D01*
X177122171Y-99810591D01*
X177066211Y-99638361D01*
X177066211Y-99638360D01*
X177015683Y-99539195D01*
X176983996Y-99477006D01*
X176932323Y-99405884D01*
X176877558Y-99330505D01*
X176877554Y-99330500D01*
X176749499Y-99202445D01*
X176749494Y-99202441D01*
X176602997Y-99096006D01*
X176602996Y-99096005D01*
X176602994Y-99096004D01*
X176533312Y-99060499D01*
X176441639Y-99013788D01*
X176441636Y-99013787D01*
X176269410Y-98957828D01*
X176107720Y-98932219D01*
X176044585Y-98902289D01*
X176007654Y-98842978D01*
X176008652Y-98773115D01*
X176047262Y-98714883D01*
X176107721Y-98687273D01*
X176269292Y-98661683D01*
X176441444Y-98605748D01*
X176441452Y-98605745D01*
X176602730Y-98523568D01*
X176618532Y-98512085D01*
X176618533Y-98512085D01*
X176129410Y-98022962D01*
X176192993Y-98005925D01*
X176307007Y-97940099D01*
X176400099Y-97847007D01*
X176465925Y-97732993D01*
X176482962Y-97669410D01*
X176972085Y-98158533D01*
X176972085Y-98158532D01*
X176983568Y-98142730D01*
X177065745Y-97981452D01*
X177065748Y-97981444D01*
X177121682Y-97809293D01*
X177150000Y-97630506D01*
X177150000Y-97449493D01*
X177121682Y-97270706D01*
X177065748Y-97098555D01*
X177065747Y-97098552D01*
X176983571Y-96937275D01*
X176983566Y-96937267D01*
X176972085Y-96921466D01*
X176482962Y-97410589D01*
X176465925Y-97347007D01*
X176400099Y-97232993D01*
X176307007Y-97139901D01*
X176192993Y-97074075D01*
X176129409Y-97057037D01*
X176618533Y-96567913D01*
X176602730Y-96556431D01*
X176441447Y-96474252D01*
X176441444Y-96474251D01*
X176269293Y-96418317D01*
X176134528Y-96396972D01*
X176071393Y-96367043D01*
X176034462Y-96307731D01*
X176035460Y-96237869D01*
X176074070Y-96179636D01*
X176138034Y-96151522D01*
X176153919Y-96150499D01*
X176894864Y-96150499D01*
X176894879Y-96150497D01*
X176894882Y-96150497D01*
X176919987Y-96147586D01*
X176919988Y-96147585D01*
X176919991Y-96147585D01*
X177022765Y-96102206D01*
X177102206Y-96022765D01*
X177147585Y-95919991D01*
X177150500Y-95894865D01*
X177150499Y-94105136D01*
X177150497Y-94105117D01*
X177147586Y-94080012D01*
X177147585Y-94080010D01*
X177147585Y-94080009D01*
X177102206Y-93977235D01*
X177022765Y-93897794D01*
X176982178Y-93879873D01*
X176919992Y-93852415D01*
X176894865Y-93849500D01*
X175105143Y-93849500D01*
X175105117Y-93849502D01*
X175080012Y-93852413D01*
X175080008Y-93852415D01*
X174977235Y-93897793D01*
X174897794Y-93977234D01*
X174852415Y-94080006D01*
X174852415Y-94080008D01*
X174849500Y-94105131D01*
X126588103Y-94105131D01*
X126497558Y-93980505D01*
X126497554Y-93980500D01*
X126369499Y-93852445D01*
X126369494Y-93852441D01*
X126222997Y-93746006D01*
X126222996Y-93746005D01*
X126222994Y-93746004D01*
X126131551Y-93699411D01*
X126061639Y-93663788D01*
X126061636Y-93663787D01*
X125889410Y-93607829D01*
X125729321Y-93582473D01*
X125666186Y-93552544D01*
X125629255Y-93493232D01*
X125630253Y-93423370D01*
X125668863Y-93365137D01*
X125729321Y-93337527D01*
X125799425Y-93326422D01*
X125889409Y-93312171D01*
X126061639Y-93256211D01*
X126222994Y-93173996D01*
X126369501Y-93067553D01*
X126497553Y-92939501D01*
X126603996Y-92792994D01*
X126613985Y-92773389D01*
X131379500Y-92773389D01*
X131379500Y-92946611D01*
X131406598Y-93117701D01*
X131451603Y-93256212D01*
X131460128Y-93282447D01*
X131475273Y-93312171D01*
X131538768Y-93436788D01*
X131640586Y-93576928D01*
X131763072Y-93699414D01*
X131903212Y-93801232D01*
X132057555Y-93879873D01*
X132222299Y-93933402D01*
X132393389Y-93960500D01*
X132393390Y-93960500D01*
X132566610Y-93960500D01*
X132566611Y-93960500D01*
X132737701Y-93933402D01*
X132902445Y-93879873D01*
X133056788Y-93801232D01*
X133196928Y-93699414D01*
X133319414Y-93576928D01*
X133421232Y-93436788D01*
X133499873Y-93282445D01*
X133553402Y-93117701D01*
X133580500Y-92946611D01*
X133580500Y-92773389D01*
X146619500Y-92773389D01*
X146619500Y-92946611D01*
X146646598Y-93117701D01*
X146691603Y-93256212D01*
X146700128Y-93282447D01*
X146715273Y-93312171D01*
X146778768Y-93436788D01*
X146880586Y-93576928D01*
X147003072Y-93699414D01*
X147143212Y-93801232D01*
X147297555Y-93879873D01*
X147462299Y-93933402D01*
X147633389Y-93960500D01*
X147633390Y-93960500D01*
X147806610Y-93960500D01*
X147806611Y-93960500D01*
X147977701Y-93933402D01*
X148142445Y-93879873D01*
X148296788Y-93801232D01*
X148436928Y-93699414D01*
X148559414Y-93576928D01*
X148661232Y-93436788D01*
X148739873Y-93282445D01*
X148793402Y-93117701D01*
X148820500Y-92946611D01*
X148820500Y-92773389D01*
X148793402Y-92602299D01*
X148739873Y-92437555D01*
X148661232Y-92283212D01*
X148559414Y-92143072D01*
X148436928Y-92020586D01*
X148296788Y-91918768D01*
X148142445Y-91840127D01*
X147977701Y-91786598D01*
X147977699Y-91786597D01*
X147977698Y-91786597D01*
X147846271Y-91765781D01*
X147806611Y-91759500D01*
X147633389Y-91759500D01*
X147593728Y-91765781D01*
X147462302Y-91786597D01*
X147297552Y-91840128D01*
X147143211Y-91918768D01*
X147089822Y-91957558D01*
X147003072Y-92020586D01*
X147003070Y-92020588D01*
X147003069Y-92020588D01*
X146880588Y-92143069D01*
X146880588Y-92143070D01*
X146880586Y-92143072D01*
X146878305Y-92146212D01*
X146778768Y-92283211D01*
X146700128Y-92437552D01*
X146646597Y-92602302D01*
X146641951Y-92631636D01*
X146619500Y-92773389D01*
X133580500Y-92773389D01*
X133553402Y-92602299D01*
X133499873Y-92437555D01*
X133421232Y-92283212D01*
X133319414Y-92143072D01*
X133196928Y-92020586D01*
X133056788Y-91918768D01*
X132902445Y-91840127D01*
X132737701Y-91786598D01*
X132737699Y-91786597D01*
X132737698Y-91786597D01*
X132606271Y-91765781D01*
X132566611Y-91759500D01*
X132393389Y-91759500D01*
X132353728Y-91765781D01*
X132222302Y-91786597D01*
X132057552Y-91840128D01*
X131903211Y-91918768D01*
X131849822Y-91957558D01*
X131763072Y-92020586D01*
X131763070Y-92020588D01*
X131763069Y-92020588D01*
X131640588Y-92143069D01*
X131640588Y-92143070D01*
X131640586Y-92143072D01*
X131638305Y-92146212D01*
X131538768Y-92283211D01*
X131460128Y-92437552D01*
X131406597Y-92602302D01*
X131401951Y-92631636D01*
X131379500Y-92773389D01*
X126613985Y-92773389D01*
X126619167Y-92763218D01*
X126645153Y-92712221D01*
X126686211Y-92631639D01*
X126686212Y-92631636D01*
X126695744Y-92602299D01*
X126742171Y-92459409D01*
X126756765Y-92367259D01*
X126770500Y-92280551D01*
X126770500Y-92099448D01*
X126748025Y-91957553D01*
X126742171Y-91920591D01*
X126698635Y-91786598D01*
X126686212Y-91748363D01*
X126686211Y-91748360D01*
X126652905Y-91682994D01*
X126603996Y-91587006D01*
X126590396Y-91568287D01*
X126497558Y-91440505D01*
X126497554Y-91440500D01*
X126369499Y-91312445D01*
X126369494Y-91312441D01*
X126222997Y-91206006D01*
X126222996Y-91206005D01*
X126222994Y-91206004D01*
X126153414Y-91170551D01*
X126061639Y-91123788D01*
X126061636Y-91123787D01*
X125889410Y-91067829D01*
X125729321Y-91042473D01*
X125666186Y-91012544D01*
X125629255Y-90953232D01*
X125630253Y-90883370D01*
X125668863Y-90825137D01*
X125729321Y-90797527D01*
X125799425Y-90786422D01*
X125889409Y-90772171D01*
X126061639Y-90716211D01*
X126222994Y-90633996D01*
X126369501Y-90527553D01*
X126497553Y-90399501D01*
X126603996Y-90252994D01*
X126613985Y-90233389D01*
X131379500Y-90233389D01*
X131379500Y-90406611D01*
X131406598Y-90577701D01*
X131451603Y-90716212D01*
X131460128Y-90742447D01*
X131475273Y-90772171D01*
X131538768Y-90896788D01*
X131640586Y-91036928D01*
X131763072Y-91159414D01*
X131903212Y-91261232D01*
X132057555Y-91339873D01*
X132222299Y-91393402D01*
X132393389Y-91420500D01*
X132393390Y-91420500D01*
X132566610Y-91420500D01*
X132566611Y-91420500D01*
X132737701Y-91393402D01*
X132902445Y-91339873D01*
X133056788Y-91261232D01*
X133196928Y-91159414D01*
X133319414Y-91036928D01*
X133421232Y-90896788D01*
X133499873Y-90742445D01*
X133553402Y-90577701D01*
X133580500Y-90406611D01*
X133580500Y-90233389D01*
X146619500Y-90233389D01*
X146619500Y-90406611D01*
X146646598Y-90577701D01*
X146691603Y-90716212D01*
X146700128Y-90742447D01*
X146715273Y-90772171D01*
X146778768Y-90896788D01*
X146880586Y-91036928D01*
X147003072Y-91159414D01*
X147143212Y-91261232D01*
X147297555Y-91339873D01*
X147462299Y-91393402D01*
X147633389Y-91420500D01*
X147633390Y-91420500D01*
X147806610Y-91420500D01*
X147806611Y-91420500D01*
X147977701Y-91393402D01*
X148142445Y-91339873D01*
X148296788Y-91261232D01*
X148436928Y-91159414D01*
X148559414Y-91036928D01*
X148661232Y-90896788D01*
X148739873Y-90742445D01*
X148793402Y-90577701D01*
X148820500Y-90406611D01*
X148820500Y-90233389D01*
X148793402Y-90062299D01*
X148739873Y-89897555D01*
X148661232Y-89743212D01*
X148559414Y-89603072D01*
X148436928Y-89480586D01*
X148296788Y-89378768D01*
X148142445Y-89300127D01*
X147977701Y-89246598D01*
X147977699Y-89246597D01*
X147977698Y-89246597D01*
X147846271Y-89225781D01*
X147806611Y-89219500D01*
X147633389Y-89219500D01*
X147593728Y-89225781D01*
X147462302Y-89246597D01*
X147297552Y-89300128D01*
X147143211Y-89378768D01*
X147089822Y-89417558D01*
X147003072Y-89480586D01*
X147003070Y-89480588D01*
X147003069Y-89480588D01*
X146880588Y-89603069D01*
X146880588Y-89603070D01*
X146880586Y-89603072D01*
X146878305Y-89606212D01*
X146778768Y-89743211D01*
X146700128Y-89897552D01*
X146646597Y-90062302D01*
X146641259Y-90096006D01*
X146619500Y-90233389D01*
X133580500Y-90233389D01*
X133553402Y-90062299D01*
X133499873Y-89897555D01*
X133421232Y-89743212D01*
X133319414Y-89603072D01*
X133196928Y-89480586D01*
X133056788Y-89378768D01*
X132902445Y-89300127D01*
X132737701Y-89246598D01*
X132737699Y-89246597D01*
X132737698Y-89246597D01*
X132606271Y-89225781D01*
X132566611Y-89219500D01*
X132393389Y-89219500D01*
X132353728Y-89225781D01*
X132222302Y-89246597D01*
X132057552Y-89300128D01*
X131903211Y-89378768D01*
X131849822Y-89417558D01*
X131763072Y-89480586D01*
X131763070Y-89480588D01*
X131763069Y-89480588D01*
X131640588Y-89603069D01*
X131640588Y-89603070D01*
X131640586Y-89603072D01*
X131638305Y-89606212D01*
X131538768Y-89743211D01*
X131460128Y-89897552D01*
X131406597Y-90062302D01*
X131401259Y-90096006D01*
X131379500Y-90233389D01*
X126613985Y-90233389D01*
X126629751Y-90202447D01*
X126645153Y-90172221D01*
X126686211Y-90091639D01*
X126686212Y-90091636D01*
X126695744Y-90062299D01*
X126742171Y-89919409D01*
X126764763Y-89776768D01*
X126770500Y-89740551D01*
X126770500Y-89559448D01*
X126748025Y-89417553D01*
X126742171Y-89380591D01*
X126698635Y-89246598D01*
X126686212Y-89208363D01*
X126686211Y-89208360D01*
X126652905Y-89142994D01*
X126603996Y-89047006D01*
X126590396Y-89028287D01*
X126497558Y-88900505D01*
X126497554Y-88900500D01*
X126369499Y-88772445D01*
X126369494Y-88772441D01*
X126222997Y-88666006D01*
X126222996Y-88666005D01*
X126222994Y-88666004D01*
X126153414Y-88630551D01*
X126061639Y-88583788D01*
X126061636Y-88583787D01*
X125889410Y-88527829D01*
X125729321Y-88502473D01*
X125666186Y-88472544D01*
X125629255Y-88413232D01*
X125630253Y-88343370D01*
X125668863Y-88285137D01*
X125729321Y-88257527D01*
X125799425Y-88246422D01*
X125889409Y-88232171D01*
X126061639Y-88176211D01*
X126222994Y-88093996D01*
X126369501Y-87987553D01*
X126497553Y-87859501D01*
X126603996Y-87712994D01*
X126613985Y-87693389D01*
X131379500Y-87693389D01*
X131379500Y-87866611D01*
X131406598Y-88037701D01*
X131451603Y-88176212D01*
X131460128Y-88202447D01*
X131475273Y-88232171D01*
X131538768Y-88356788D01*
X131640586Y-88496928D01*
X131763072Y-88619414D01*
X131903212Y-88721232D01*
X132057555Y-88799873D01*
X132222299Y-88853402D01*
X132393389Y-88880500D01*
X132393390Y-88880500D01*
X132566610Y-88880500D01*
X132566611Y-88880500D01*
X132737701Y-88853402D01*
X132902445Y-88799873D01*
X133056788Y-88721232D01*
X133196928Y-88619414D01*
X133319414Y-88496928D01*
X133421232Y-88356788D01*
X133499873Y-88202445D01*
X133553402Y-88037701D01*
X133580500Y-87866611D01*
X133580500Y-87693389D01*
X146619500Y-87693389D01*
X146619500Y-87866611D01*
X146646598Y-88037701D01*
X146691603Y-88176212D01*
X146700128Y-88202447D01*
X146715273Y-88232171D01*
X146778768Y-88356788D01*
X146880586Y-88496928D01*
X147003072Y-88619414D01*
X147143212Y-88721232D01*
X147297555Y-88799873D01*
X147462299Y-88853402D01*
X147633389Y-88880500D01*
X147633390Y-88880500D01*
X147806610Y-88880500D01*
X147806611Y-88880500D01*
X147977701Y-88853402D01*
X148142445Y-88799873D01*
X148296788Y-88721232D01*
X148436928Y-88619414D01*
X148559414Y-88496928D01*
X148661232Y-88356788D01*
X148739873Y-88202445D01*
X148793402Y-88037701D01*
X148820500Y-87866611D01*
X148820500Y-87693389D01*
X148793402Y-87522299D01*
X148739873Y-87357555D01*
X148661232Y-87203212D01*
X148559414Y-87063072D01*
X148436928Y-86940586D01*
X148296788Y-86838768D01*
X148142445Y-86760127D01*
X147977701Y-86706598D01*
X147977699Y-86706597D01*
X147977698Y-86706597D01*
X147846271Y-86685781D01*
X147806611Y-86679500D01*
X147633389Y-86679500D01*
X147593728Y-86685781D01*
X147462302Y-86706597D01*
X147297552Y-86760128D01*
X147143211Y-86838768D01*
X147066014Y-86894856D01*
X147003072Y-86940586D01*
X147003070Y-86940588D01*
X147003069Y-86940588D01*
X146880588Y-87063069D01*
X146880588Y-87063070D01*
X146880586Y-87063072D01*
X146836859Y-87123256D01*
X146778768Y-87203211D01*
X146700128Y-87357552D01*
X146646597Y-87522302D01*
X146641259Y-87556006D01*
X146619500Y-87693389D01*
X133580500Y-87693389D01*
X133553402Y-87522299D01*
X133499873Y-87357555D01*
X133421232Y-87203212D01*
X133319414Y-87063072D01*
X133196928Y-86940586D01*
X133056788Y-86838768D01*
X132902445Y-86760127D01*
X132737701Y-86706598D01*
X132737699Y-86706597D01*
X132737698Y-86706597D01*
X132606271Y-86685781D01*
X132566611Y-86679500D01*
X132393389Y-86679500D01*
X132353728Y-86685781D01*
X132222302Y-86706597D01*
X132057552Y-86760128D01*
X131903211Y-86838768D01*
X131826014Y-86894856D01*
X131763072Y-86940586D01*
X131763070Y-86940588D01*
X131763069Y-86940588D01*
X131640588Y-87063069D01*
X131640588Y-87063070D01*
X131640586Y-87063072D01*
X131596859Y-87123256D01*
X131538768Y-87203211D01*
X131460128Y-87357552D01*
X131406597Y-87522302D01*
X131401259Y-87556006D01*
X131379500Y-87693389D01*
X126613985Y-87693389D01*
X126629751Y-87662447D01*
X126645153Y-87632221D01*
X126686211Y-87551639D01*
X126686212Y-87551636D01*
X126695744Y-87522299D01*
X126742171Y-87379409D01*
X126766946Y-87222987D01*
X126770500Y-87200551D01*
X126770500Y-87019448D01*
X126750770Y-86894882D01*
X126742171Y-86840591D01*
X126698635Y-86706598D01*
X126686212Y-86668363D01*
X126686211Y-86668360D01*
X126657740Y-86612484D01*
X126603996Y-86507006D01*
X126590396Y-86488287D01*
X126497558Y-86360505D01*
X126497554Y-86360500D01*
X126369499Y-86232445D01*
X126369494Y-86232441D01*
X126222997Y-86126006D01*
X126222996Y-86126005D01*
X126222994Y-86126004D01*
X126131551Y-86079411D01*
X126061639Y-86043788D01*
X126061636Y-86043787D01*
X125889410Y-85987829D01*
X125729321Y-85962473D01*
X125666186Y-85932544D01*
X125629255Y-85873232D01*
X125630253Y-85803370D01*
X125668863Y-85745137D01*
X125729321Y-85717527D01*
X125799425Y-85706422D01*
X125889409Y-85692171D01*
X126061639Y-85636211D01*
X126222994Y-85553996D01*
X126369501Y-85447553D01*
X126497553Y-85319501D01*
X126603996Y-85172994D01*
X126613985Y-85153389D01*
X131379500Y-85153389D01*
X131379500Y-85326611D01*
X131406598Y-85497701D01*
X131453665Y-85642558D01*
X131460128Y-85662447D01*
X131475273Y-85692171D01*
X131538768Y-85816788D01*
X131640586Y-85956928D01*
X131763072Y-86079414D01*
X131903212Y-86181232D01*
X132057555Y-86259873D01*
X132222299Y-86313402D01*
X132393389Y-86340500D01*
X132393390Y-86340500D01*
X132566610Y-86340500D01*
X132566611Y-86340500D01*
X132737701Y-86313402D01*
X132902445Y-86259873D01*
X133056788Y-86181232D01*
X133196928Y-86079414D01*
X133319414Y-85956928D01*
X133421232Y-85816788D01*
X133499873Y-85662445D01*
X133553402Y-85497701D01*
X133580500Y-85326611D01*
X133580500Y-85153389D01*
X146619500Y-85153389D01*
X146619500Y-85326611D01*
X146646598Y-85497701D01*
X146693665Y-85642558D01*
X146700128Y-85662447D01*
X146715273Y-85692171D01*
X146778768Y-85816788D01*
X146880586Y-85956928D01*
X147003072Y-86079414D01*
X147143212Y-86181232D01*
X147297555Y-86259873D01*
X147462299Y-86313402D01*
X147633389Y-86340500D01*
X147633390Y-86340500D01*
X147806610Y-86340500D01*
X147806611Y-86340500D01*
X147977701Y-86313402D01*
X148142445Y-86259873D01*
X148296788Y-86181232D01*
X148436928Y-86079414D01*
X148559414Y-85956928D01*
X148661232Y-85816788D01*
X148739873Y-85662445D01*
X148793402Y-85497701D01*
X148820500Y-85326611D01*
X148820500Y-85153389D01*
X148812857Y-85105131D01*
X158849500Y-85105131D01*
X158849500Y-86894856D01*
X158849502Y-86894882D01*
X158852413Y-86919987D01*
X158852415Y-86919991D01*
X158897793Y-87022764D01*
X158897794Y-87022765D01*
X158977235Y-87102206D01*
X159080009Y-87147585D01*
X159105135Y-87150500D01*
X159842873Y-87150499D01*
X159909910Y-87170183D01*
X159955665Y-87222987D01*
X159965609Y-87292146D01*
X159936584Y-87355702D01*
X159877806Y-87393476D01*
X159862270Y-87396972D01*
X159730589Y-87417829D01*
X159558363Y-87473787D01*
X159558360Y-87473788D01*
X159397002Y-87556006D01*
X159250505Y-87662441D01*
X159250500Y-87662445D01*
X159122445Y-87790500D01*
X159122441Y-87790505D01*
X159016006Y-87937002D01*
X158933788Y-88098360D01*
X158933787Y-88098363D01*
X158877829Y-88270589D01*
X158849500Y-88449448D01*
X158849500Y-88630551D01*
X158877829Y-88809410D01*
X158933787Y-88981636D01*
X158933788Y-88981639D01*
X159016006Y-89142997D01*
X159122441Y-89289494D01*
X159122445Y-89289499D01*
X159250500Y-89417554D01*
X159250505Y-89417558D01*
X159378287Y-89510396D01*
X159397006Y-89523996D01*
X159466596Y-89559454D01*
X159558360Y-89606211D01*
X159558363Y-89606212D01*
X159644476Y-89634191D01*
X159730591Y-89662171D01*
X159803639Y-89673740D01*
X159890678Y-89687527D01*
X159953813Y-89717456D01*
X159990744Y-89776768D01*
X159989746Y-89846631D01*
X159951136Y-89904863D01*
X159890678Y-89932473D01*
X159730589Y-89957829D01*
X159558363Y-90013787D01*
X159558360Y-90013788D01*
X159397002Y-90096006D01*
X159250505Y-90202441D01*
X159250500Y-90202445D01*
X159122445Y-90330500D01*
X159122441Y-90330505D01*
X159016006Y-90477002D01*
X158933788Y-90638360D01*
X158933787Y-90638363D01*
X158877829Y-90810589D01*
X158849500Y-90989448D01*
X158849500Y-91170551D01*
X158877829Y-91349410D01*
X158933787Y-91521636D01*
X158933788Y-91521639D01*
X159016006Y-91682997D01*
X159122441Y-91829494D01*
X159122445Y-91829499D01*
X159250500Y-91957554D01*
X159250505Y-91957558D01*
X159378287Y-92050396D01*
X159397006Y-92063996D01*
X159466596Y-92099454D01*
X159558360Y-92146211D01*
X159558363Y-92146212D01*
X159644476Y-92174191D01*
X159730591Y-92202171D01*
X159813429Y-92215291D01*
X159909449Y-92230500D01*
X159909454Y-92230500D01*
X160090551Y-92230500D01*
X160177259Y-92216765D01*
X160269409Y-92202171D01*
X160441639Y-92146211D01*
X160602994Y-92063996D01*
X160749501Y-91957553D01*
X160877553Y-91829501D01*
X160983996Y-91682994D01*
X161066211Y-91521639D01*
X161122171Y-91349409D01*
X161144884Y-91206004D01*
X161150500Y-91170551D01*
X161150500Y-90989448D01*
X161124842Y-90827456D01*
X161122171Y-90810591D01*
X161066211Y-90638361D01*
X161066211Y-90638360D01*
X161035301Y-90577697D01*
X160983996Y-90477006D01*
X160970396Y-90458287D01*
X160877558Y-90330505D01*
X160877554Y-90330500D01*
X160749499Y-90202445D01*
X160749494Y-90202441D01*
X160602997Y-90096006D01*
X160602996Y-90096005D01*
X160602994Y-90096004D01*
X160536845Y-90062299D01*
X160441639Y-90013788D01*
X160441636Y-90013787D01*
X160269410Y-89957829D01*
X160109321Y-89932473D01*
X160046186Y-89902544D01*
X160009255Y-89843232D01*
X160010253Y-89773370D01*
X160048863Y-89715137D01*
X160109321Y-89687527D01*
X160179425Y-89676422D01*
X160269409Y-89662171D01*
X160441639Y-89606211D01*
X160602994Y-89523996D01*
X160749501Y-89417553D01*
X160877553Y-89289501D01*
X160983996Y-89142994D01*
X161066211Y-88981639D01*
X161122171Y-88809409D01*
X161144884Y-88666004D01*
X161150500Y-88630551D01*
X161150500Y-88449448D01*
X161124842Y-88287456D01*
X161122171Y-88270591D01*
X161066211Y-88098361D01*
X161066211Y-88098360D01*
X161035301Y-88037697D01*
X160983996Y-87937006D01*
X160970396Y-87918287D01*
X160877558Y-87790505D01*
X160877554Y-87790500D01*
X160749499Y-87662445D01*
X160749494Y-87662441D01*
X160602997Y-87556006D01*
X160602996Y-87556005D01*
X160602994Y-87556004D01*
X160536845Y-87522299D01*
X160441639Y-87473788D01*
X160441636Y-87473787D01*
X160269410Y-87417829D01*
X160137728Y-87396972D01*
X160074594Y-87367042D01*
X160037663Y-87307731D01*
X160038661Y-87237868D01*
X160077271Y-87179636D01*
X160141235Y-87151522D01*
X160157120Y-87150499D01*
X160894864Y-87150499D01*
X160894879Y-87150497D01*
X160894882Y-87150497D01*
X160919987Y-87147586D01*
X160919988Y-87147585D01*
X160919991Y-87147585D01*
X161022765Y-87102206D01*
X161102206Y-87022765D01*
X161147585Y-86919991D01*
X161150500Y-86894865D01*
X161150499Y-85105136D01*
X161150497Y-85105117D01*
X161147586Y-85080012D01*
X161147585Y-85080010D01*
X161147585Y-85080009D01*
X161102206Y-84977235D01*
X161022765Y-84897794D01*
X161022763Y-84897793D01*
X160919992Y-84852415D01*
X160894865Y-84849500D01*
X159105143Y-84849500D01*
X159105117Y-84849502D01*
X159080012Y-84852413D01*
X159080008Y-84852415D01*
X158977235Y-84897793D01*
X158897794Y-84977234D01*
X158852415Y-85080006D01*
X158852415Y-85080008D01*
X158849500Y-85105131D01*
X148812857Y-85105131D01*
X148801656Y-85034410D01*
X148793403Y-84982303D01*
X148793402Y-84982302D01*
X148793402Y-84982299D01*
X148739873Y-84817555D01*
X148661232Y-84663212D01*
X148559414Y-84523072D01*
X148436928Y-84400586D01*
X148296788Y-84298768D01*
X148142445Y-84220127D01*
X147977701Y-84166598D01*
X147977699Y-84166597D01*
X147977698Y-84166597D01*
X147846271Y-84145781D01*
X147806611Y-84139500D01*
X147633389Y-84139500D01*
X147593728Y-84145781D01*
X147462302Y-84166597D01*
X147297552Y-84220128D01*
X147143211Y-84298768D01*
X147063256Y-84356859D01*
X147003072Y-84400586D01*
X147003070Y-84400588D01*
X147003069Y-84400588D01*
X146880588Y-84523069D01*
X146880588Y-84523070D01*
X146880586Y-84523072D01*
X146836859Y-84583256D01*
X146778768Y-84663211D01*
X146700128Y-84817552D01*
X146646597Y-84982302D01*
X146627141Y-85105143D01*
X146619500Y-85153389D01*
X133580500Y-85153389D01*
X133553402Y-84982299D01*
X133499873Y-84817555D01*
X133421232Y-84663212D01*
X133319414Y-84523072D01*
X133196928Y-84400586D01*
X133056788Y-84298768D01*
X132902445Y-84220127D01*
X132737701Y-84166598D01*
X132737699Y-84166597D01*
X132737698Y-84166597D01*
X132606271Y-84145781D01*
X132566611Y-84139500D01*
X132393389Y-84139500D01*
X132353728Y-84145781D01*
X132222302Y-84166597D01*
X132057552Y-84220128D01*
X131903211Y-84298768D01*
X131823256Y-84356859D01*
X131763072Y-84400586D01*
X131763070Y-84400588D01*
X131763069Y-84400588D01*
X131640588Y-84523069D01*
X131640588Y-84523070D01*
X131640586Y-84523072D01*
X131596859Y-84583256D01*
X131538768Y-84663211D01*
X131460128Y-84817552D01*
X131406597Y-84982302D01*
X131387141Y-85105143D01*
X131379500Y-85153389D01*
X126613985Y-85153389D01*
X126619167Y-85143218D01*
X126645153Y-85092221D01*
X126686211Y-85011639D01*
X126686212Y-85011636D01*
X126697390Y-84977234D01*
X126742171Y-84839409D01*
X126756765Y-84747259D01*
X126770500Y-84660551D01*
X126770500Y-84479448D01*
X126754019Y-84375397D01*
X126742171Y-84300591D01*
X126698635Y-84166598D01*
X126686212Y-84128363D01*
X126686211Y-84128360D01*
X126657740Y-84072484D01*
X126603996Y-83967006D01*
X126590396Y-83948287D01*
X126497558Y-83820505D01*
X126497554Y-83820500D01*
X126369499Y-83692445D01*
X126369494Y-83692441D01*
X126222997Y-83586006D01*
X126222996Y-83586005D01*
X126222994Y-83586004D01*
X126118441Y-83532731D01*
X126061639Y-83503788D01*
X126061636Y-83503787D01*
X125889410Y-83447829D01*
X125729321Y-83422473D01*
X125666186Y-83392544D01*
X125629255Y-83333232D01*
X125630253Y-83263370D01*
X125668863Y-83205137D01*
X125729321Y-83177527D01*
X125799425Y-83166422D01*
X125889409Y-83152171D01*
X126061639Y-83096211D01*
X126222994Y-83013996D01*
X126369501Y-82907553D01*
X126497553Y-82779501D01*
X126603996Y-82632994D01*
X126613985Y-82613389D01*
X131379500Y-82613389D01*
X131379500Y-82786611D01*
X131406598Y-82957701D01*
X131459294Y-83119882D01*
X131460128Y-83122447D01*
X131475273Y-83152171D01*
X131538768Y-83276788D01*
X131640586Y-83416928D01*
X131763072Y-83539414D01*
X131903212Y-83641232D01*
X132057555Y-83719873D01*
X132222299Y-83773402D01*
X132393389Y-83800500D01*
X132393390Y-83800500D01*
X132566610Y-83800500D01*
X132566611Y-83800500D01*
X132737701Y-83773402D01*
X132902445Y-83719873D01*
X133056788Y-83641232D01*
X133196928Y-83539414D01*
X133319414Y-83416928D01*
X133421232Y-83276788D01*
X133499873Y-83122445D01*
X133553402Y-82957701D01*
X133580500Y-82786611D01*
X133580500Y-82613389D01*
X146619500Y-82613389D01*
X146619500Y-82786611D01*
X146646598Y-82957701D01*
X146699294Y-83119882D01*
X146700128Y-83122447D01*
X146715273Y-83152171D01*
X146778768Y-83276788D01*
X146880586Y-83416928D01*
X147003072Y-83539414D01*
X147143212Y-83641232D01*
X147297555Y-83719873D01*
X147462299Y-83773402D01*
X147633389Y-83800500D01*
X147633390Y-83800500D01*
X147806610Y-83800500D01*
X147806611Y-83800500D01*
X147977701Y-83773402D01*
X148142445Y-83719873D01*
X148296788Y-83641232D01*
X148436928Y-83539414D01*
X148559414Y-83416928D01*
X148661232Y-83276788D01*
X148739873Y-83122445D01*
X148793402Y-82957701D01*
X148820500Y-82786611D01*
X148820500Y-82613389D01*
X148793402Y-82442299D01*
X148739873Y-82277555D01*
X148661232Y-82123212D01*
X148559414Y-81983072D01*
X148436928Y-81860586D01*
X148296788Y-81758768D01*
X148142445Y-81680127D01*
X147977701Y-81626598D01*
X147977699Y-81626597D01*
X147977698Y-81626597D01*
X147846271Y-81605781D01*
X147806611Y-81599500D01*
X147633389Y-81599500D01*
X147593728Y-81605781D01*
X147462302Y-81626597D01*
X147297552Y-81680128D01*
X147143211Y-81758768D01*
X147063256Y-81816859D01*
X147003072Y-81860586D01*
X147003070Y-81860588D01*
X147003069Y-81860588D01*
X146880588Y-81983069D01*
X146880588Y-81983070D01*
X146880586Y-81983072D01*
X146836859Y-82043256D01*
X146778768Y-82123211D01*
X146700128Y-82277552D01*
X146646597Y-82442302D01*
X146641951Y-82471636D01*
X146619500Y-82613389D01*
X133580500Y-82613389D01*
X133553402Y-82442299D01*
X133499873Y-82277555D01*
X133421232Y-82123212D01*
X133319414Y-81983072D01*
X133196928Y-81860586D01*
X133056788Y-81758768D01*
X132902445Y-81680127D01*
X132737701Y-81626598D01*
X132737699Y-81626597D01*
X132737698Y-81626597D01*
X132606271Y-81605781D01*
X132566611Y-81599500D01*
X132393389Y-81599500D01*
X132353728Y-81605781D01*
X132222302Y-81626597D01*
X132057552Y-81680128D01*
X131903211Y-81758768D01*
X131823256Y-81816859D01*
X131763072Y-81860586D01*
X131763070Y-81860588D01*
X131763069Y-81860588D01*
X131640588Y-81983069D01*
X131640588Y-81983070D01*
X131640586Y-81983072D01*
X131596859Y-82043256D01*
X131538768Y-82123211D01*
X131460128Y-82277552D01*
X131406597Y-82442302D01*
X131401951Y-82471636D01*
X131379500Y-82613389D01*
X126613985Y-82613389D01*
X126619167Y-82603218D01*
X126645153Y-82552221D01*
X126686211Y-82471639D01*
X126686212Y-82471636D01*
X126695744Y-82442299D01*
X126742171Y-82299409D01*
X126756765Y-82207259D01*
X126770500Y-82120551D01*
X126770500Y-81939448D01*
X126754019Y-81835397D01*
X126742171Y-81760591D01*
X126698635Y-81626598D01*
X126686212Y-81588363D01*
X126686211Y-81588360D01*
X126657740Y-81532484D01*
X126603996Y-81427006D01*
X126590396Y-81408287D01*
X126497558Y-81280505D01*
X126497554Y-81280500D01*
X126369499Y-81152445D01*
X126369494Y-81152441D01*
X126222997Y-81046006D01*
X126222996Y-81046005D01*
X126222994Y-81046004D01*
X126131551Y-80999411D01*
X126061639Y-80963788D01*
X126061636Y-80963787D01*
X125889410Y-80907829D01*
X125729321Y-80882473D01*
X125666186Y-80852544D01*
X125629255Y-80793232D01*
X125630253Y-80723370D01*
X125668863Y-80665137D01*
X125729321Y-80637527D01*
X125799425Y-80626422D01*
X125889409Y-80612171D01*
X126061639Y-80556211D01*
X126222994Y-80473996D01*
X126369501Y-80367553D01*
X126497553Y-80239501D01*
X126603996Y-80092994D01*
X126613985Y-80073389D01*
X131379500Y-80073389D01*
X131379500Y-80246611D01*
X131406598Y-80417701D01*
X131451603Y-80556212D01*
X131460128Y-80582447D01*
X131475273Y-80612171D01*
X131538768Y-80736788D01*
X131640586Y-80876928D01*
X131763072Y-80999414D01*
X131903212Y-81101232D01*
X132057555Y-81179873D01*
X132222299Y-81233402D01*
X132393389Y-81260500D01*
X132393390Y-81260500D01*
X132566610Y-81260500D01*
X132566611Y-81260500D01*
X132737701Y-81233402D01*
X132902445Y-81179873D01*
X133056788Y-81101232D01*
X133196928Y-80999414D01*
X133319414Y-80876928D01*
X133421232Y-80736788D01*
X133499873Y-80582445D01*
X133553402Y-80417701D01*
X133580500Y-80246611D01*
X133580500Y-80073389D01*
X146619500Y-80073389D01*
X146619500Y-80246611D01*
X146646598Y-80417701D01*
X146691603Y-80556212D01*
X146700128Y-80582447D01*
X146715273Y-80612171D01*
X146778768Y-80736788D01*
X146880586Y-80876928D01*
X147003072Y-80999414D01*
X147143212Y-81101232D01*
X147297555Y-81179873D01*
X147462299Y-81233402D01*
X147633389Y-81260500D01*
X147633390Y-81260500D01*
X147806610Y-81260500D01*
X147806611Y-81260500D01*
X147977701Y-81233402D01*
X148142445Y-81179873D01*
X148296788Y-81101232D01*
X148436928Y-80999414D01*
X148559414Y-80876928D01*
X148661232Y-80736788D01*
X148739873Y-80582445D01*
X148793402Y-80417701D01*
X148820500Y-80246611D01*
X148820500Y-80073389D01*
X148793402Y-79902299D01*
X148739873Y-79737555D01*
X148661232Y-79583212D01*
X148559414Y-79443072D01*
X148436928Y-79320586D01*
X148296788Y-79218768D01*
X148142445Y-79140127D01*
X147977701Y-79086598D01*
X147977699Y-79086597D01*
X147977698Y-79086597D01*
X147846271Y-79065781D01*
X147806611Y-79059500D01*
X147633389Y-79059500D01*
X147593728Y-79065781D01*
X147462302Y-79086597D01*
X147297552Y-79140128D01*
X147143211Y-79218768D01*
X147063256Y-79276859D01*
X147003072Y-79320586D01*
X147003070Y-79320588D01*
X147003069Y-79320588D01*
X146880588Y-79443069D01*
X146880588Y-79443070D01*
X146880586Y-79443072D01*
X146836859Y-79503256D01*
X146778768Y-79583211D01*
X146700128Y-79737552D01*
X146646597Y-79902302D01*
X146641951Y-79931636D01*
X146619500Y-80073389D01*
X133580500Y-80073389D01*
X133553402Y-79902299D01*
X133499873Y-79737555D01*
X133421232Y-79583212D01*
X133319414Y-79443072D01*
X133196928Y-79320586D01*
X133056788Y-79218768D01*
X132902445Y-79140127D01*
X132737701Y-79086598D01*
X132737699Y-79086597D01*
X132737698Y-79086597D01*
X132606271Y-79065781D01*
X132566611Y-79059500D01*
X132393389Y-79059500D01*
X132353728Y-79065781D01*
X132222302Y-79086597D01*
X132057552Y-79140128D01*
X131903211Y-79218768D01*
X131823256Y-79276859D01*
X131763072Y-79320586D01*
X131763070Y-79320588D01*
X131763069Y-79320588D01*
X131640588Y-79443069D01*
X131640588Y-79443070D01*
X131640586Y-79443072D01*
X131596859Y-79503256D01*
X131538768Y-79583211D01*
X131460128Y-79737552D01*
X131406597Y-79902302D01*
X131401951Y-79931636D01*
X131379500Y-80073389D01*
X126613985Y-80073389D01*
X126619167Y-80063218D01*
X126645153Y-80012221D01*
X126686211Y-79931639D01*
X126686212Y-79931636D01*
X126695744Y-79902299D01*
X126742171Y-79759409D01*
X126756765Y-79667259D01*
X126770500Y-79580551D01*
X126770500Y-79399448D01*
X126754019Y-79295397D01*
X126742171Y-79220591D01*
X126698635Y-79086598D01*
X126686212Y-79048363D01*
X126686211Y-79048360D01*
X126657740Y-78992484D01*
X126603996Y-78887006D01*
X126590396Y-78868287D01*
X126497558Y-78740505D01*
X126497554Y-78740500D01*
X126369499Y-78612445D01*
X126369494Y-78612441D01*
X126222997Y-78506006D01*
X126222996Y-78506005D01*
X126222994Y-78506004D01*
X126131551Y-78459411D01*
X126061639Y-78423788D01*
X126061636Y-78423787D01*
X125889410Y-78367829D01*
X125729321Y-78342473D01*
X125666186Y-78312544D01*
X125629255Y-78253232D01*
X125630253Y-78183370D01*
X125668863Y-78125137D01*
X125729321Y-78097527D01*
X125799425Y-78086422D01*
X125889409Y-78072171D01*
X126061639Y-78016211D01*
X126222994Y-77933996D01*
X126369501Y-77827553D01*
X126497553Y-77699501D01*
X126603996Y-77552994D01*
X126613985Y-77533389D01*
X131379500Y-77533389D01*
X131379500Y-77706611D01*
X131406598Y-77877701D01*
X131451603Y-78016212D01*
X131460128Y-78042447D01*
X131475273Y-78072171D01*
X131538768Y-78196788D01*
X131640586Y-78336928D01*
X131763072Y-78459414D01*
X131903212Y-78561232D01*
X132057555Y-78639873D01*
X132222299Y-78693402D01*
X132393389Y-78720500D01*
X132393390Y-78720500D01*
X132566610Y-78720500D01*
X132566611Y-78720500D01*
X132737701Y-78693402D01*
X132902445Y-78639873D01*
X133056788Y-78561232D01*
X133196928Y-78459414D01*
X133319414Y-78336928D01*
X133421232Y-78196788D01*
X133499873Y-78042445D01*
X133553402Y-77877701D01*
X133580500Y-77706611D01*
X133580500Y-77533389D01*
X146619500Y-77533389D01*
X146619500Y-77706611D01*
X146646598Y-77877701D01*
X146691603Y-78016212D01*
X146700128Y-78042447D01*
X146715273Y-78072171D01*
X146778768Y-78196788D01*
X146880586Y-78336928D01*
X147003072Y-78459414D01*
X147143212Y-78561232D01*
X147297555Y-78639873D01*
X147462299Y-78693402D01*
X147633389Y-78720500D01*
X147633390Y-78720500D01*
X147806610Y-78720500D01*
X147806611Y-78720500D01*
X147977701Y-78693402D01*
X148142445Y-78639873D01*
X148296788Y-78561232D01*
X148436928Y-78459414D01*
X148559414Y-78336928D01*
X148661232Y-78196788D01*
X148739873Y-78042445D01*
X148793402Y-77877701D01*
X148820500Y-77706611D01*
X148820500Y-77533389D01*
X148793402Y-77362299D01*
X148739873Y-77197555D01*
X148661232Y-77043212D01*
X148559414Y-76903072D01*
X148436928Y-76780586D01*
X148296788Y-76678768D01*
X148142445Y-76600127D01*
X147977701Y-76546598D01*
X147977699Y-76546597D01*
X147977698Y-76546597D01*
X147846271Y-76525781D01*
X147806611Y-76519500D01*
X147633389Y-76519500D01*
X147593728Y-76525781D01*
X147462302Y-76546597D01*
X147297552Y-76600128D01*
X147143211Y-76678768D01*
X147063256Y-76736859D01*
X147003072Y-76780586D01*
X147003070Y-76780588D01*
X147003069Y-76780588D01*
X146880588Y-76903069D01*
X146880588Y-76903070D01*
X146880586Y-76903072D01*
X146836859Y-76963256D01*
X146778768Y-77043211D01*
X146700128Y-77197552D01*
X146646597Y-77362302D01*
X146629188Y-77472221D01*
X146619500Y-77533389D01*
X133580500Y-77533389D01*
X133553402Y-77362299D01*
X133499873Y-77197555D01*
X133421232Y-77043212D01*
X133319414Y-76903072D01*
X133196928Y-76780586D01*
X133056788Y-76678768D01*
X132902445Y-76600127D01*
X132737701Y-76546598D01*
X132737699Y-76546597D01*
X132737698Y-76546597D01*
X132606271Y-76525781D01*
X132566611Y-76519500D01*
X132393389Y-76519500D01*
X132353728Y-76525781D01*
X132222302Y-76546597D01*
X132057552Y-76600128D01*
X131903211Y-76678768D01*
X131823256Y-76736859D01*
X131763072Y-76780586D01*
X131763070Y-76780588D01*
X131763069Y-76780588D01*
X131640588Y-76903069D01*
X131640588Y-76903070D01*
X131640586Y-76903072D01*
X131596859Y-76963256D01*
X131538768Y-77043211D01*
X131460128Y-77197552D01*
X131406597Y-77362302D01*
X131389188Y-77472221D01*
X131379500Y-77533389D01*
X126613985Y-77533389D01*
X126619167Y-77523218D01*
X126645153Y-77472221D01*
X126686211Y-77391639D01*
X126686212Y-77391636D01*
X126719397Y-77289501D01*
X126742171Y-77219409D01*
X126756765Y-77127259D01*
X126770500Y-77040551D01*
X126770500Y-76859448D01*
X126754019Y-76755397D01*
X126742171Y-76680591D01*
X126698635Y-76546598D01*
X126686212Y-76508363D01*
X126686211Y-76508360D01*
X126656193Y-76449448D01*
X126603996Y-76347006D01*
X126548476Y-76270589D01*
X126497558Y-76200505D01*
X126497554Y-76200500D01*
X126369499Y-76072445D01*
X126369494Y-76072441D01*
X126222997Y-75966006D01*
X126222996Y-75966005D01*
X126222994Y-75966004D01*
X126131551Y-75919411D01*
X126061639Y-75883788D01*
X126061636Y-75883787D01*
X125889410Y-75827829D01*
X125729321Y-75802473D01*
X125666186Y-75772544D01*
X125629255Y-75713232D01*
X125630253Y-75643370D01*
X125668863Y-75585137D01*
X125729321Y-75557527D01*
X125799425Y-75546422D01*
X125889409Y-75532171D01*
X126061639Y-75476211D01*
X126222994Y-75393996D01*
X126369501Y-75287553D01*
X126497553Y-75159501D01*
X126603996Y-75012994D01*
X126613985Y-74993389D01*
X131379500Y-74993389D01*
X131379500Y-75166610D01*
X131406596Y-75337693D01*
X131406598Y-75337701D01*
X131451603Y-75476212D01*
X131460128Y-75502447D01*
X131475273Y-75532171D01*
X131538768Y-75656788D01*
X131640586Y-75796928D01*
X131763072Y-75919414D01*
X131903212Y-76021232D01*
X132057555Y-76099873D01*
X132222299Y-76153402D01*
X132393389Y-76180500D01*
X132393390Y-76180500D01*
X132566610Y-76180500D01*
X132566611Y-76180500D01*
X132737701Y-76153402D01*
X132902445Y-76099873D01*
X133056788Y-76021232D01*
X133196928Y-75919414D01*
X133319414Y-75796928D01*
X133421232Y-75656788D01*
X133499873Y-75502445D01*
X133553402Y-75337701D01*
X133580500Y-75166611D01*
X133580500Y-74993389D01*
X146619500Y-74993389D01*
X146619500Y-75166610D01*
X146646596Y-75337693D01*
X146646598Y-75337701D01*
X146691603Y-75476212D01*
X146700128Y-75502447D01*
X146715273Y-75532171D01*
X146778768Y-75656788D01*
X146880586Y-75796928D01*
X147003072Y-75919414D01*
X147143212Y-76021232D01*
X147297555Y-76099873D01*
X147462299Y-76153402D01*
X147633389Y-76180500D01*
X147633390Y-76180500D01*
X147806610Y-76180500D01*
X147806611Y-76180500D01*
X147977701Y-76153402D01*
X148142445Y-76099873D01*
X148296788Y-76021232D01*
X148436928Y-75919414D01*
X148559414Y-75796928D01*
X148661232Y-75656788D01*
X148739873Y-75502445D01*
X148766355Y-75420943D01*
X158924500Y-75420943D01*
X158924500Y-75579057D01*
X158946845Y-75662447D01*
X158965423Y-75731783D01*
X158965426Y-75731790D01*
X159044475Y-75868709D01*
X159044479Y-75868714D01*
X159044480Y-75868716D01*
X159156284Y-75980520D01*
X159156286Y-75980521D01*
X159156290Y-75980524D01*
X159293209Y-76059573D01*
X159293216Y-76059577D01*
X159445943Y-76100500D01*
X159445945Y-76100500D01*
X159604055Y-76100500D01*
X159604057Y-76100500D01*
X159756784Y-76059577D01*
X159893716Y-75980520D01*
X160005520Y-75868716D01*
X160084577Y-75731784D01*
X160125500Y-75579057D01*
X160125500Y-75420943D01*
X160084577Y-75268216D01*
X160033436Y-75179636D01*
X160005524Y-75131290D01*
X160005518Y-75131282D01*
X159893717Y-75019481D01*
X159893709Y-75019475D01*
X159756790Y-74940426D01*
X159756786Y-74940424D01*
X159756784Y-74940423D01*
X159604057Y-74899500D01*
X159445943Y-74899500D01*
X159293216Y-74940423D01*
X159293209Y-74940426D01*
X159156290Y-75019475D01*
X159156282Y-75019481D01*
X159044481Y-75131282D01*
X159044475Y-75131290D01*
X158965426Y-75268209D01*
X158965423Y-75268216D01*
X158924500Y-75420943D01*
X148766355Y-75420943D01*
X148793402Y-75337701D01*
X148820500Y-75166611D01*
X148820500Y-74993389D01*
X148793402Y-74822299D01*
X148739873Y-74657555D01*
X148661232Y-74503212D01*
X148559414Y-74363072D01*
X148436928Y-74240586D01*
X148296788Y-74138768D01*
X148142445Y-74060127D01*
X147977701Y-74006598D01*
X147977699Y-74006597D01*
X147977698Y-74006597D01*
X147846271Y-73985781D01*
X147806611Y-73979500D01*
X147633389Y-73979500D01*
X147593728Y-73985781D01*
X147462302Y-74006597D01*
X147297552Y-74060128D01*
X147143211Y-74138768D01*
X147063256Y-74196859D01*
X147003072Y-74240586D01*
X147003070Y-74240588D01*
X147003069Y-74240588D01*
X146880588Y-74363069D01*
X146880588Y-74363070D01*
X146880586Y-74363072D01*
X146836859Y-74423256D01*
X146778768Y-74503211D01*
X146700128Y-74657552D01*
X146646597Y-74822302D01*
X146619500Y-74993389D01*
X133580500Y-74993389D01*
X133553402Y-74822299D01*
X133499873Y-74657555D01*
X133421232Y-74503212D01*
X133319414Y-74363072D01*
X133196928Y-74240586D01*
X133056788Y-74138768D01*
X132902445Y-74060127D01*
X132737701Y-74006598D01*
X132737699Y-74006597D01*
X132737698Y-74006597D01*
X132606271Y-73985781D01*
X132566611Y-73979500D01*
X132393389Y-73979500D01*
X132353728Y-73985781D01*
X132222302Y-74006597D01*
X132057552Y-74060128D01*
X131903211Y-74138768D01*
X131823256Y-74196859D01*
X131763072Y-74240586D01*
X131763070Y-74240588D01*
X131763069Y-74240588D01*
X131640588Y-74363069D01*
X131640588Y-74363070D01*
X131640586Y-74363072D01*
X131596859Y-74423256D01*
X131538768Y-74503211D01*
X131460128Y-74657552D01*
X131406597Y-74822302D01*
X131379500Y-74993389D01*
X126613985Y-74993389D01*
X126619167Y-74983218D01*
X126645153Y-74932221D01*
X126686211Y-74851639D01*
X126686212Y-74851636D01*
X126695744Y-74822299D01*
X126742171Y-74679409D01*
X126759266Y-74571478D01*
X126770500Y-74500551D01*
X126770500Y-74319448D01*
X126754019Y-74215397D01*
X126742171Y-74140591D01*
X126698635Y-74006598D01*
X126686212Y-73968363D01*
X126686211Y-73968360D01*
X126640735Y-73879110D01*
X126603996Y-73807006D01*
X126590396Y-73788287D01*
X126497558Y-73660505D01*
X126497554Y-73660500D01*
X126369499Y-73532445D01*
X126369494Y-73532441D01*
X126222997Y-73426006D01*
X126222996Y-73426005D01*
X126222994Y-73426004D01*
X126131551Y-73379411D01*
X126061639Y-73343788D01*
X126061636Y-73343787D01*
X125889410Y-73287829D01*
X125729321Y-73262473D01*
X125666186Y-73232544D01*
X125629255Y-73173232D01*
X125630253Y-73103370D01*
X125668863Y-73045137D01*
X125729321Y-73017527D01*
X125799425Y-73006422D01*
X125889409Y-72992171D01*
X126061639Y-72936211D01*
X126222994Y-72853996D01*
X126369501Y-72747553D01*
X126497553Y-72619501D01*
X126603996Y-72472994D01*
X126613985Y-72453389D01*
X131379500Y-72453389D01*
X131379500Y-72626611D01*
X131406598Y-72797701D01*
X131451603Y-72936212D01*
X131460128Y-72962447D01*
X131475273Y-72992171D01*
X131538768Y-73116788D01*
X131640586Y-73256928D01*
X131763072Y-73379414D01*
X131903212Y-73481232D01*
X132057555Y-73559873D01*
X132222299Y-73613402D01*
X132393389Y-73640500D01*
X132393390Y-73640500D01*
X132566610Y-73640500D01*
X132566611Y-73640500D01*
X132737701Y-73613402D01*
X132902445Y-73559873D01*
X133056788Y-73481232D01*
X133196928Y-73379414D01*
X133319414Y-73256928D01*
X133421232Y-73116788D01*
X133499873Y-72962445D01*
X133553402Y-72797701D01*
X133580500Y-72626611D01*
X133580500Y-72453389D01*
X146619500Y-72453389D01*
X146619500Y-72626611D01*
X146646598Y-72797701D01*
X146691603Y-72936212D01*
X146700128Y-72962447D01*
X146715273Y-72992171D01*
X146778768Y-73116788D01*
X146880586Y-73256928D01*
X147003072Y-73379414D01*
X147143212Y-73481232D01*
X147297555Y-73559873D01*
X147462299Y-73613402D01*
X147633389Y-73640500D01*
X147633390Y-73640500D01*
X147806610Y-73640500D01*
X147806611Y-73640500D01*
X147977701Y-73613402D01*
X148142445Y-73559873D01*
X148296788Y-73481232D01*
X148436928Y-73379414D01*
X148559414Y-73256928D01*
X148661232Y-73116788D01*
X148667171Y-73105131D01*
X174849500Y-73105131D01*
X174849500Y-74894856D01*
X174849502Y-74894882D01*
X174852413Y-74919987D01*
X174852415Y-74919991D01*
X174897793Y-75022764D01*
X174897794Y-75022765D01*
X174977235Y-75102206D01*
X175080009Y-75147585D01*
X175105135Y-75150500D01*
X175842873Y-75150499D01*
X175909910Y-75170183D01*
X175955665Y-75222987D01*
X175965609Y-75292146D01*
X175936584Y-75355702D01*
X175877806Y-75393476D01*
X175862270Y-75396972D01*
X175730589Y-75417829D01*
X175558363Y-75473787D01*
X175558360Y-75473788D01*
X175397002Y-75556006D01*
X175250505Y-75662441D01*
X175250500Y-75662445D01*
X175122445Y-75790500D01*
X175122441Y-75790505D01*
X175016006Y-75937002D01*
X174933788Y-76098360D01*
X174933787Y-76098363D01*
X174877829Y-76270589D01*
X174849500Y-76449448D01*
X174849500Y-76630551D01*
X174877829Y-76809410D01*
X174933787Y-76981636D01*
X174933788Y-76981639D01*
X175016006Y-77142997D01*
X175122441Y-77289494D01*
X175122445Y-77289499D01*
X175250500Y-77417554D01*
X175250505Y-77417558D01*
X175325743Y-77472221D01*
X175397006Y-77523996D01*
X175502484Y-77577740D01*
X175558360Y-77606211D01*
X175558363Y-77606212D01*
X175644476Y-77634191D01*
X175730591Y-77662171D01*
X175813429Y-77675291D01*
X175909449Y-77690500D01*
X175909454Y-77690500D01*
X176090551Y-77690500D01*
X176177259Y-77676765D01*
X176269409Y-77662171D01*
X176441639Y-77606211D01*
X176602994Y-77523996D01*
X176749501Y-77417553D01*
X176877553Y-77289501D01*
X176983996Y-77142994D01*
X177066211Y-76981639D01*
X177122171Y-76809409D01*
X177142574Y-76680589D01*
X177150500Y-76630551D01*
X177150500Y-76449448D01*
X177134019Y-76345397D01*
X177122171Y-76270591D01*
X177066906Y-76100499D01*
X177066212Y-76098363D01*
X177066211Y-76098360D01*
X177037740Y-76042484D01*
X176983996Y-75937006D01*
X176945331Y-75883788D01*
X176877558Y-75790505D01*
X176877554Y-75790500D01*
X176749499Y-75662445D01*
X176749494Y-75662441D01*
X176602997Y-75556006D01*
X176602996Y-75556005D01*
X176602994Y-75556004D01*
X176551300Y-75529664D01*
X176441639Y-75473788D01*
X176441636Y-75473787D01*
X176269410Y-75417829D01*
X176137728Y-75396972D01*
X176074594Y-75367042D01*
X176037663Y-75307731D01*
X176038661Y-75237868D01*
X176077271Y-75179636D01*
X176141235Y-75151522D01*
X176157120Y-75150499D01*
X176894864Y-75150499D01*
X176894879Y-75150497D01*
X176894882Y-75150497D01*
X176919987Y-75147586D01*
X176919988Y-75147585D01*
X176919991Y-75147585D01*
X177022765Y-75102206D01*
X177102206Y-75022765D01*
X177147585Y-74919991D01*
X177150500Y-74894865D01*
X177150499Y-73105136D01*
X177150294Y-73103370D01*
X177147586Y-73080012D01*
X177147585Y-73080010D01*
X177147585Y-73080009D01*
X177102206Y-72977235D01*
X177022765Y-72897794D01*
X177022763Y-72897793D01*
X176919992Y-72852415D01*
X176894865Y-72849500D01*
X175105143Y-72849500D01*
X175105117Y-72849502D01*
X175080012Y-72852413D01*
X175080008Y-72852415D01*
X174977235Y-72897793D01*
X174897794Y-72977234D01*
X174852415Y-73080006D01*
X174852415Y-73080008D01*
X174849500Y-73105131D01*
X148667171Y-73105131D01*
X148685986Y-73068203D01*
X148697678Y-73045259D01*
X148697679Y-73045257D01*
X148732337Y-72977235D01*
X148739873Y-72962445D01*
X148793402Y-72797701D01*
X148820500Y-72626611D01*
X148820500Y-72453389D01*
X148793402Y-72282299D01*
X148739873Y-72117555D01*
X148661232Y-71963212D01*
X148559414Y-71823072D01*
X148436928Y-71700586D01*
X148296788Y-71598768D01*
X148142445Y-71520127D01*
X147977701Y-71466598D01*
X147977699Y-71466597D01*
X147977698Y-71466597D01*
X147846271Y-71445781D01*
X147806611Y-71439500D01*
X147633389Y-71439500D01*
X147593728Y-71445781D01*
X147462302Y-71466597D01*
X147297552Y-71520128D01*
X147143211Y-71598768D01*
X147063256Y-71656859D01*
X147003072Y-71700586D01*
X147003070Y-71700588D01*
X147003069Y-71700588D01*
X146880588Y-71823069D01*
X146880588Y-71823070D01*
X146880586Y-71823072D01*
X146836859Y-71883256D01*
X146778768Y-71963211D01*
X146700128Y-72117552D01*
X146646597Y-72282302D01*
X146641951Y-72311636D01*
X146619500Y-72453389D01*
X133580500Y-72453389D01*
X133553402Y-72282299D01*
X133499873Y-72117555D01*
X133421232Y-71963212D01*
X133319414Y-71823072D01*
X133196928Y-71700586D01*
X133056788Y-71598768D01*
X132902445Y-71520127D01*
X132737701Y-71466598D01*
X132737699Y-71466597D01*
X132737698Y-71466597D01*
X132606271Y-71445781D01*
X132566611Y-71439500D01*
X132393389Y-71439500D01*
X132353728Y-71445781D01*
X132222302Y-71466597D01*
X132057552Y-71520128D01*
X131903211Y-71598768D01*
X131823256Y-71656859D01*
X131763072Y-71700586D01*
X131763070Y-71700588D01*
X131763069Y-71700588D01*
X131640588Y-71823069D01*
X131640588Y-71823070D01*
X131640586Y-71823072D01*
X131596859Y-71883256D01*
X131538768Y-71963211D01*
X131460128Y-72117552D01*
X131406597Y-72282302D01*
X131401951Y-72311636D01*
X131379500Y-72453389D01*
X126613985Y-72453389D01*
X126619167Y-72443218D01*
X126645153Y-72392221D01*
X126686211Y-72311639D01*
X126686212Y-72311636D01*
X126695744Y-72282299D01*
X126742171Y-72139409D01*
X126756765Y-72047259D01*
X126770500Y-71960551D01*
X126770500Y-71779448D01*
X126754019Y-71675397D01*
X126742171Y-71600591D01*
X126698635Y-71466598D01*
X126686212Y-71428363D01*
X126686211Y-71428360D01*
X126657740Y-71372484D01*
X126603996Y-71267006D01*
X126590396Y-71248287D01*
X126497558Y-71120505D01*
X126497554Y-71120500D01*
X126369499Y-70992445D01*
X126369494Y-70992441D01*
X126222997Y-70886006D01*
X126222996Y-70886005D01*
X126222994Y-70886004D01*
X126171300Y-70859664D01*
X126061639Y-70803788D01*
X126061636Y-70803787D01*
X125889410Y-70747829D01*
X125729321Y-70722473D01*
X125666186Y-70692544D01*
X125629255Y-70633232D01*
X125630253Y-70563370D01*
X125668863Y-70505137D01*
X125729321Y-70477527D01*
X125799425Y-70466422D01*
X125889409Y-70452171D01*
X126061639Y-70396211D01*
X126222994Y-70313996D01*
X126369501Y-70207553D01*
X126497553Y-70079501D01*
X126603996Y-69932994D01*
X126686211Y-69771639D01*
X126742171Y-69599409D01*
X126756765Y-69507259D01*
X126770500Y-69420551D01*
X126770500Y-69248995D01*
X156559199Y-69248995D01*
X156586118Y-69384322D01*
X156586121Y-69384332D01*
X156638921Y-69511804D01*
X156638928Y-69511817D01*
X156715585Y-69626541D01*
X156715588Y-69626545D01*
X156813154Y-69724111D01*
X156813158Y-69724114D01*
X156927882Y-69800771D01*
X156927895Y-69800778D01*
X157055367Y-69853578D01*
X157055372Y-69853580D01*
X157055376Y-69853580D01*
X157055377Y-69853581D01*
X157190704Y-69880500D01*
X157190707Y-69880500D01*
X157328695Y-69880500D01*
X157419741Y-69862389D01*
X157464028Y-69853580D01*
X157591511Y-69800775D01*
X157706242Y-69724114D01*
X157803814Y-69626542D01*
X157880475Y-69511811D01*
X157933280Y-69384328D01*
X157960200Y-69248993D01*
X157960200Y-69111007D01*
X157960200Y-69111004D01*
X157933281Y-68975677D01*
X157933280Y-68975676D01*
X157933280Y-68975672D01*
X157897115Y-68888361D01*
X157880478Y-68848195D01*
X157880471Y-68848182D01*
X157803814Y-68733458D01*
X157803811Y-68733454D01*
X157706245Y-68635888D01*
X157706241Y-68635885D01*
X157591517Y-68559228D01*
X157591504Y-68559221D01*
X157464032Y-68506421D01*
X157464022Y-68506418D01*
X157328695Y-68479500D01*
X157328693Y-68479500D01*
X157190707Y-68479500D01*
X157190705Y-68479500D01*
X157055377Y-68506418D01*
X157055367Y-68506421D01*
X156927895Y-68559221D01*
X156927882Y-68559228D01*
X156813158Y-68635885D01*
X156813154Y-68635888D01*
X156715588Y-68733454D01*
X156715585Y-68733458D01*
X156638928Y-68848182D01*
X156638921Y-68848195D01*
X156586121Y-68975667D01*
X156586118Y-68975677D01*
X156559200Y-69111004D01*
X156559200Y-69111007D01*
X156559200Y-69248993D01*
X156559200Y-69248995D01*
X156559199Y-69248995D01*
X126770500Y-69248995D01*
X126770500Y-69239448D01*
X126752264Y-69124313D01*
X126748160Y-69098405D01*
X126742171Y-69060591D01*
X126686211Y-68888361D01*
X126686211Y-68888360D01*
X126607281Y-68733454D01*
X126603996Y-68727006D01*
X126590396Y-68708287D01*
X126497558Y-68580505D01*
X126497554Y-68580500D01*
X126369499Y-68452445D01*
X126369494Y-68452441D01*
X126222997Y-68346006D01*
X126222996Y-68346005D01*
X126222994Y-68346004D01*
X126171300Y-68319664D01*
X126061639Y-68263788D01*
X126061636Y-68263787D01*
X125889410Y-68207829D01*
X125754571Y-68186472D01*
X125691437Y-68156542D01*
X125654506Y-68097231D01*
X125655504Y-68027368D01*
X125694114Y-67969136D01*
X125758078Y-67941022D01*
X125773970Y-67939999D01*
X126514786Y-67939999D01*
X126514808Y-67939997D01*
X126539869Y-67937091D01*
X126539873Y-67937090D01*
X126642474Y-67891788D01*
X126642479Y-67891785D01*
X126721785Y-67812479D01*
X126721788Y-67812474D01*
X126767089Y-67709877D01*
X126767089Y-67709875D01*
X126769999Y-67684794D01*
X126770000Y-67684791D01*
X126770000Y-67040000D01*
X126053012Y-67040000D01*
X126085925Y-66982993D01*
X126120000Y-66855826D01*
X126120000Y-66724174D01*
X126085925Y-66597007D01*
X126053012Y-66540000D01*
X126769999Y-66540000D01*
X126769999Y-65895214D01*
X126769997Y-65895191D01*
X126767091Y-65870130D01*
X126767090Y-65870126D01*
X126721788Y-65767525D01*
X126721785Y-65767520D01*
X126642479Y-65688214D01*
X126642474Y-65688211D01*
X126539876Y-65642910D01*
X126514794Y-65640000D01*
X125870000Y-65640000D01*
X125870000Y-66356988D01*
X125812993Y-66324075D01*
X125685826Y-66290000D01*
X125554174Y-66290000D01*
X125427007Y-66324075D01*
X125370000Y-66356988D01*
X125370000Y-65640000D01*
X124725214Y-65640000D01*
X124725191Y-65640002D01*
X124700130Y-65642908D01*
X124700126Y-65642909D01*
X124597525Y-65688211D01*
X124597520Y-65688214D01*
X124518214Y-65767520D01*
X124518211Y-65767525D01*
X124472910Y-65870122D01*
X124472910Y-65870124D01*
X124470000Y-65895205D01*
X124470000Y-66540000D01*
X125186988Y-66540000D01*
X125154075Y-66597007D01*
X125120000Y-66724174D01*
X125120000Y-66855826D01*
X125154075Y-66982993D01*
X125186988Y-67040000D01*
X124470001Y-67040000D01*
X124470001Y-67684785D01*
X124470002Y-67684808D01*
X124472908Y-67709869D01*
X124472909Y-67709873D01*
X124518211Y-67812474D01*
X124518214Y-67812479D01*
X124597520Y-67891785D01*
X124597525Y-67891788D01*
X124700123Y-67937089D01*
X124725206Y-67939999D01*
X125466028Y-67939999D01*
X125533067Y-67959683D01*
X125578822Y-68012487D01*
X125588766Y-68081646D01*
X125559741Y-68145202D01*
X125500963Y-68182976D01*
X125485427Y-68186472D01*
X125350589Y-68207829D01*
X125178363Y-68263787D01*
X125178360Y-68263788D01*
X125017002Y-68346006D01*
X124870505Y-68452441D01*
X124870500Y-68452445D01*
X124742445Y-68580500D01*
X124742441Y-68580505D01*
X124636006Y-68727002D01*
X124553788Y-68888360D01*
X124553787Y-68888363D01*
X124497829Y-69060589D01*
X124469500Y-69239448D01*
X111530500Y-69239448D01*
X111514019Y-69135397D01*
X111502171Y-69060591D01*
X111446211Y-68888361D01*
X111446211Y-68888360D01*
X111367281Y-68733454D01*
X111363996Y-68727006D01*
X111350396Y-68708287D01*
X111257558Y-68580505D01*
X111257554Y-68580500D01*
X111129499Y-68452445D01*
X111129494Y-68452441D01*
X110982997Y-68346006D01*
X110982996Y-68346005D01*
X110982994Y-68346004D01*
X110931300Y-68319664D01*
X110821639Y-68263788D01*
X110821636Y-68263787D01*
X110649410Y-68207829D01*
X110489321Y-68182473D01*
X110426186Y-68152544D01*
X110389255Y-68093232D01*
X110390253Y-68023370D01*
X110428863Y-67965137D01*
X110489321Y-67937527D01*
X110559425Y-67926422D01*
X110649409Y-67912171D01*
X110821639Y-67856211D01*
X110982994Y-67773996D01*
X111129501Y-67667553D01*
X111257553Y-67539501D01*
X111363996Y-67392994D01*
X111446211Y-67231639D01*
X111502171Y-67059409D01*
X111516765Y-66967259D01*
X111530500Y-66880551D01*
X111530500Y-66699448D01*
X111505245Y-66540000D01*
X111502171Y-66520591D01*
X111446211Y-66348361D01*
X111446211Y-66348360D01*
X111416474Y-66290000D01*
X111363996Y-66187006D01*
X111350396Y-66168287D01*
X111257558Y-66040505D01*
X111257554Y-66040500D01*
X111129499Y-65912445D01*
X111129494Y-65912441D01*
X110982997Y-65806006D01*
X110982996Y-65806005D01*
X110982994Y-65806004D01*
X110931300Y-65779664D01*
X110821639Y-65723788D01*
X110821636Y-65723787D01*
X110649410Y-65667829D01*
X110470551Y-65639500D01*
X110470546Y-65639500D01*
X110289454Y-65639500D01*
X110289449Y-65639500D01*
X110110589Y-65667829D01*
X109938363Y-65723787D01*
X109938360Y-65723788D01*
X109777002Y-65806006D01*
X109630505Y-65912441D01*
X109630500Y-65912445D01*
X109502445Y-66040500D01*
X109502441Y-66040505D01*
X109396006Y-66187002D01*
X109313788Y-66348360D01*
X109313787Y-66348363D01*
X109257829Y-66520589D01*
X109229500Y-66699448D01*
X98500500Y-66699448D01*
X98500500Y-62999999D01*
X99500000Y-62999999D01*
X99567250Y-63682814D01*
X99766422Y-64339396D01*
X100089851Y-64944489D01*
X100089856Y-64944496D01*
X100525125Y-65474873D01*
X101055502Y-65910142D01*
X101055509Y-65910147D01*
X101660602Y-66233576D01*
X101660604Y-66233576D01*
X101660607Y-66233578D01*
X102317183Y-66432748D01*
X102317182Y-66432748D01*
X102384434Y-66439371D01*
X103000000Y-66500000D01*
X103682816Y-66432748D01*
X104339392Y-66233578D01*
X104426522Y-66187006D01*
X104944489Y-65910147D01*
X104944496Y-65910142D01*
X105118276Y-65767525D01*
X105474873Y-65474873D01*
X105910143Y-64944495D01*
X105910143Y-64944493D01*
X105910147Y-64944489D01*
X106233576Y-64339396D01*
X106233576Y-64339395D01*
X106233578Y-64339392D01*
X106432748Y-63682816D01*
X106500000Y-63000000D01*
X106500000Y-62999999D01*
X173500000Y-62999999D01*
X173567250Y-63682814D01*
X173766422Y-64339396D01*
X174089851Y-64944489D01*
X174089856Y-64944496D01*
X174525125Y-65474873D01*
X175055502Y-65910142D01*
X175055509Y-65910147D01*
X175660602Y-66233576D01*
X175660604Y-66233576D01*
X175660607Y-66233578D01*
X176317183Y-66432748D01*
X176317182Y-66432748D01*
X176384434Y-66439371D01*
X177000000Y-66500000D01*
X177682816Y-66432748D01*
X178339392Y-66233578D01*
X178426522Y-66187006D01*
X178944489Y-65910147D01*
X178944496Y-65910142D01*
X179118276Y-65767525D01*
X179474873Y-65474873D01*
X179910143Y-64944495D01*
X179910143Y-64944493D01*
X179910147Y-64944489D01*
X180233576Y-64339396D01*
X180233576Y-64339395D01*
X180233578Y-64339392D01*
X180432748Y-63682816D01*
X180500000Y-63000000D01*
X180432748Y-62317183D01*
X180233578Y-61660607D01*
X180233576Y-61660604D01*
X180233576Y-61660602D01*
X179910147Y-61055509D01*
X179910142Y-61055502D01*
X179474873Y-60525125D01*
X178944496Y-60089856D01*
X178944489Y-60089851D01*
X178339396Y-59766422D01*
X177682814Y-59567250D01*
X177074597Y-59507347D01*
X177000000Y-59500000D01*
X176999999Y-59500000D01*
X176317184Y-59567250D01*
X175660602Y-59766422D01*
X175055509Y-60089851D01*
X175055502Y-60089856D01*
X174525125Y-60525125D01*
X174089856Y-61055502D01*
X174089851Y-61055509D01*
X173766422Y-61660602D01*
X173567250Y-62317184D01*
X173500000Y-62999999D01*
X106500000Y-62999999D01*
X106432748Y-62317183D01*
X106233578Y-61660607D01*
X106233576Y-61660604D01*
X106233576Y-61660602D01*
X105910147Y-61055509D01*
X105910142Y-61055502D01*
X105474873Y-60525125D01*
X104944496Y-60089856D01*
X104944489Y-60089851D01*
X104339396Y-59766422D01*
X103682814Y-59567250D01*
X103074597Y-59507347D01*
X103000000Y-59500000D01*
X102999999Y-59500000D01*
X102317184Y-59567250D01*
X101660602Y-59766422D01*
X101055509Y-60089851D01*
X101055502Y-60089856D01*
X100525125Y-60525125D01*
X100089856Y-61055502D01*
X100089851Y-61055509D01*
X99766422Y-61660602D01*
X99567250Y-62317184D01*
X99500000Y-62999999D01*
X98500500Y-62999999D01*
X98500500Y-57624500D01*
X98520185Y-57557461D01*
X98572989Y-57511706D01*
X98624500Y-57500500D01*
X181375500Y-57500500D01*
X181442539Y-57520185D01*
G37*
%TD.AperFunction*%
%TD*%
M02*
