M48
; DRILL file {KiCad 9.0.5} date 2026-06-14T11:39:58-0700
; FORMAT={-:-/ absolute / metric / decimal}
; #@! TF.CreationDate,2026-06-14T11:39:58-07:00
; #@! TF.GenerationSoftware,Kicad,Pcbnew,9.0.5
; #@! TF.FileFunction,Plated,1,4,PTH
FMAT,2
METRIC
; #@! TA.AperFunction,Plated,PTH,ViaDrill
T1C0.400
; #@! TA.AperFunction,Plated,PTH,ComponentDrill
T2C0.950
; #@! TA.AperFunction,Plated,PTH,ComponentDrill
T3C1.000
%
G90
G05
T1
X160.621Y-76.081
X162.421Y-89.222
T2
X162.0Y-105.0
X164.5Y-105.0
X167.0Y-105.0
T3
X110.38Y-66.79
X110.38Y-69.33
X110.38Y-71.87
X110.38Y-74.41
X110.38Y-76.95
X110.38Y-79.49
X110.38Y-82.03
X110.38Y-84.57
X110.38Y-87.11
X110.38Y-89.65
X110.38Y-92.19
X110.38Y-94.73
X110.38Y-97.27
X110.38Y-99.81
X110.38Y-102.35
X110.38Y-104.89
X110.38Y-107.43
X110.38Y-109.97
X110.38Y-112.51
X110.38Y-115.05
X110.38Y-117.59
X110.38Y-120.13
X110.38Y-122.67
X110.38Y-125.21
X125.62Y-66.79
X125.62Y-69.33
X125.62Y-71.87
X125.62Y-74.41
X125.62Y-76.95
X125.62Y-79.49
X125.62Y-82.03
X125.62Y-84.57
X125.62Y-87.11
X125.62Y-89.65
X125.62Y-92.19
X125.62Y-94.73
X125.62Y-97.27
X125.62Y-99.81
X125.62Y-102.35
X125.62Y-104.89
X125.62Y-107.43
X125.62Y-109.97
X125.62Y-112.51
X125.62Y-115.05
X125.62Y-117.59
X125.62Y-120.13
X125.62Y-122.67
X125.62Y-125.21
X132.48Y-72.54
X132.48Y-75.08
X132.48Y-77.62
X132.48Y-80.16
X132.48Y-82.7
X132.48Y-85.24
X132.48Y-87.78
X132.48Y-90.32
X132.48Y-92.86
X132.48Y-95.4
X132.48Y-97.94
X132.48Y-100.48
X132.48Y-103.02
X132.48Y-105.56
X132.48Y-108.1
X140.0Y-121.46
X140.0Y-124.0
X142.54Y-121.46
X142.54Y-124.0
X145.08Y-121.46
X145.08Y-124.0
X147.62Y-121.46
X147.62Y-124.0
X147.72Y-72.54
X147.72Y-75.08
X147.72Y-77.62
X147.72Y-80.16
X147.72Y-82.7
X147.72Y-85.24
X147.72Y-87.78
X147.72Y-90.32
X147.72Y-92.86
X147.72Y-95.4
X147.72Y-97.94
X147.72Y-100.48
X147.72Y-103.02
X147.72Y-105.56
X147.72Y-108.1
X150.16Y-121.46
X150.16Y-124.0
X152.7Y-121.46
X152.7Y-124.0
X160.0Y-86.0
X160.0Y-88.54
X160.0Y-91.08
X176.0Y-74.0
X176.0Y-76.54
X176.0Y-95.0
X176.0Y-97.54
X176.0Y-100.08
X176.0Y-102.62
X176.0Y-105.16
X176.0Y-107.7
X176.0Y-110.24
M30
