%TF.GenerationSoftware,KiCad,Pcbnew,9.0.5*%
%TF.CreationDate,2026-06-14T11:39:57-07:00*%
%TF.ProjectId,nova_pcb_v6_logic,6e6f7661-5f70-4636-925f-76365f6c6f67,rev?*%
%TF.SameCoordinates,Original*%
%TF.FileFunction,Copper,L4,Bot*%
%TF.FilePolarity,Positive*%
%FSLAX46Y46*%
G04 Gerber Fmt 4.6, Leading zero omitted, Abs format (unit mm)*
G04 Created by KiCad (PCBNEW 9.0.5) date 2026-06-14 11:39:57*
%MOMM*%
%LPD*%
G01*
G04 APERTURE LIST*
G04 Aperture macros list*
%AMRoundRect*
0 Rectangle with rounded corners*
0 $1 Rounding radius*
0 $2 $3 $4 $5 $6 $7 $8 $9 X,Y pos of 4 corners*
0 Add a 4 corners polygon primitive as box body*
4,1,4,$2,$3,$4,$5,$6,$7,$8,$9,$2,$3,0*
0 Add four circle primitives for the rounded corners*
1,1,$1+$1,$2,$3*
1,1,$1+$1,$4,$5*
1,1,$1+$1,$6,$7*
1,1,$1+$1,$8,$9*
0 Add four rect primitives between the rounded corners*
20,1,$1+$1,$2,$3,$4,$5,0*
20,1,$1+$1,$4,$5,$6,$7,0*
20,1,$1+$1,$6,$7,$8,$9,0*
20,1,$1+$1,$8,$9,$2,$3,0*%
G04 Aperture macros list end*
%TA.AperFunction,ComponentPad*%
%ADD10RoundRect,0.250000X0.600000X0.600000X-0.600000X0.600000X-0.600000X-0.600000X0.600000X-0.600000X0*%
%TD*%
%TA.AperFunction,ComponentPad*%
%ADD11C,1.700000*%
%TD*%
%TA.AperFunction,ComponentPad*%
%ADD12RoundRect,0.250000X0.600000X0.725000X-0.600000X0.725000X-0.600000X-0.725000X0.600000X-0.725000X0*%
%TD*%
%TA.AperFunction,ComponentPad*%
%ADD13O,1.700000X1.950000*%
%TD*%
%TA.AperFunction,ComponentPad*%
%ADD14R,1.700000X1.700000*%
%TD*%
%TA.AperFunction,ComponentPad*%
%ADD15R,1.600000X1.600000*%
%TD*%
%TA.AperFunction,ComponentPad*%
%ADD16O,1.600000X1.600000*%
%TD*%
%TA.AperFunction,ViaPad*%
%ADD17C,0.800000*%
%TD*%
%TA.AperFunction,Conductor*%
%ADD18C,0.250000*%
%TD*%
G04 APERTURE END LIST*
D10*
%TO.P,J20,1,Pin_1*%
%TO.N,V5_AUX*%
X140000000Y-124000000D03*
D11*
%TO.P,J20,2,Pin_2*%
X140000000Y-121460000D03*
%TO.P,J20,3,Pin_3*%
%TO.N,GND*%
X142540000Y-124000000D03*
%TO.P,J20,4,Pin_4*%
X142540000Y-121460000D03*
%TO.P,J20,5,Pin_5*%
%TO.N,+3V3*%
X145080000Y-124000000D03*
%TO.P,J20,6,Pin_6*%
%TO.N,BUS_SERVO*%
X145080000Y-121460000D03*
%TO.P,J20,7,Pin_7*%
%TO.N,I2C_SDA*%
X147620000Y-124000000D03*
%TO.P,J20,8,Pin_8*%
%TO.N,I2C_SCL*%
X147620000Y-121460000D03*
%TO.P,J20,9,Pin_9*%
%TO.N,BATT_LOW*%
X150160000Y-124000000D03*
%TO.P,J20,10,Pin_10*%
%TO.N,GND*%
X150160000Y-121460000D03*
%TO.P,J20,11,Pin_11*%
X152700000Y-124000000D03*
%TO.P,J20,12,Pin_12*%
X152700000Y-121460000D03*
%TD*%
D12*
%TO.P,J11,1,Pin_1*%
%TO.N,V5_AUX*%
X162000000Y-105000000D03*
D13*
%TO.P,J11,2,Pin_2*%
%TO.N,GND*%
X164500000Y-105000000D03*
%TO.P,J11,3,Pin_3*%
%TO.N,/07 Aux MCU + Peripherals/LED_DATA*%
X167000000Y-105000000D03*
%TD*%
D14*
%TO.P,J10,1,Pin_1*%
%TO.N,GND*%
X176000000Y-95000000D03*
D11*
%TO.P,J10,2,Pin_2*%
%TO.N,/07 Aux MCU + Peripherals/NANO_3V3*%
X176000000Y-97540000D03*
%TO.P,J10,3,Pin_3*%
%TO.N,/07 Aux MCU + Peripherals/SPI_SCK*%
X176000000Y-100080000D03*
%TO.P,J10,4,Pin_4*%
%TO.N,/07 Aux MCU + Peripherals/SPI_MOSI*%
X176000000Y-102620000D03*
%TO.P,J10,5,Pin_5*%
%TO.N,/07 Aux MCU + Peripherals/OLED_CS*%
X176000000Y-105160000D03*
%TO.P,J10,6,Pin_6*%
%TO.N,/07 Aux MCU + Peripherals/OLED_DC*%
X176000000Y-107700000D03*
%TO.P,J10,7,Pin_7*%
%TO.N,/07 Aux MCU + Peripherals/OLED_RST*%
X176000000Y-110240000D03*
%TD*%
D14*
%TO.P,U6,1,Pin_1*%
%TO.N,V5_AUX*%
X125620000Y-66790000D03*
D11*
%TO.P,U6,2,Pin_2*%
%TO.N,GND*%
X110380000Y-66790000D03*
X125620000Y-69330000D03*
%TO.P,U6,3,Pin_3*%
%TO.N,/04 Bus Master (Pattern B)/TEENSY_TX*%
X110380000Y-71870000D03*
%TO.P,U6,4,Pin_4*%
%TO.N,/04 Bus Master (Pattern B)/TEENSY_RX*%
X110380000Y-69330000D03*
%TO.P,U6,5,Pin_5*%
%TO.N,/04 Bus Master (Pattern B)/OE_TX*%
X110380000Y-74410000D03*
%TO.P,U6,6,Pin_6*%
%TO.N,/04 Bus Master (Pattern B)/OE_RX*%
X110380000Y-76950000D03*
%TO.P,U6,7,Pin_7*%
%TO.N,I2C_SDA*%
X125620000Y-87110000D03*
%TO.P,U6,8,Pin_8*%
%TO.N,I2C_SCL*%
X125620000Y-84570000D03*
%TO.P,U6,9,Pin_9*%
%TO.N,BATT_LOW*%
X110380000Y-79490000D03*
%TO.P,U6,T3V3*%
%TO.N,N/C*%
X110380000Y-102350000D03*
%TO.P,U6,T3V3O,3V3*%
%TO.N,+3V3*%
X125620000Y-71870000D03*
%TO.P,U6,T5*%
%TO.N,N/C*%
X110380000Y-82030000D03*
%TO.P,U6,T6*%
X110380000Y-84570000D03*
%TO.P,U6,T7*%
X110380000Y-87110000D03*
%TO.P,U6,T8*%
X110380000Y-89650000D03*
%TO.P,U6,T9*%
X110380000Y-92190000D03*
%TO.P,U6,T10*%
X110380000Y-94730000D03*
%TO.P,U6,T11*%
X110380000Y-97270000D03*
%TO.P,U6,T12*%
X110380000Y-99810000D03*
%TO.P,U6,T13*%
X125620000Y-99810000D03*
%TO.P,U6,T14*%
X125620000Y-97270000D03*
%TO.P,U6,T15*%
X125620000Y-94730000D03*
%TO.P,U6,T16*%
X125620000Y-92190000D03*
%TO.P,U6,T17*%
X125620000Y-89650000D03*
%TO.P,U6,T20*%
X125620000Y-82030000D03*
%TO.P,U6,T21*%
X125620000Y-79490000D03*
%TO.P,U6,T22*%
X125620000Y-76950000D03*
%TO.P,U6,T23*%
X125620000Y-74410000D03*
%TO.P,U6,T24*%
X110380000Y-104890000D03*
%TO.P,U6,T25*%
X110380000Y-107430000D03*
%TO.P,U6,T26*%
X110380000Y-109970000D03*
%TO.P,U6,T27*%
X110380000Y-112510000D03*
%TO.P,U6,T28*%
X110380000Y-115050000D03*
%TO.P,U6,T29*%
X110380000Y-117590000D03*
%TO.P,U6,T30*%
X110380000Y-120130000D03*
%TO.P,U6,T31*%
X110380000Y-122670000D03*
%TO.P,U6,T32*%
X110380000Y-125210000D03*
%TO.P,U6,T33*%
X125620000Y-125210000D03*
%TO.P,U6,T34*%
X125620000Y-122670000D03*
%TO.P,U6,T35*%
X125620000Y-120130000D03*
%TO.P,U6,T36*%
X125620000Y-117590000D03*
%TO.P,U6,T37*%
X125620000Y-115050000D03*
%TO.P,U6,T38*%
X125620000Y-112510000D03*
%TO.P,U6,T39*%
X125620000Y-109970000D03*
%TO.P,U6,T40*%
X125620000Y-107430000D03*
%TO.P,U6,T41*%
X125620000Y-104890000D03*
%TO.P,U6,TGND_2*%
X125620000Y-102350000D03*
%TD*%
D14*
%TO.P,JP1,1,Pin_1*%
%TO.N,/04 Bus Master (Pattern B)/MASTER_A*%
X160000000Y-86000000D03*
D11*
%TO.P,JP1,2,Pin_2*%
%TO.N,BUS_SIGNAL*%
X160000000Y-88540000D03*
%TO.P,JP1,3,Pin_3*%
%TO.N,/04 Bus Master (Pattern B)/MASTER_B*%
X160000000Y-91080000D03*
%TD*%
D15*
%TO.P,U12,1,D1/TX*%
%TO.N,unconnected-(U12-D1{slash}TX-Pad1)*%
X147720000Y-108100000D03*
D16*
%TO.P,U12,2,D0/RX*%
%TO.N,unconnected-(U12-D0{slash}RX-Pad2)*%
X147720000Y-105560000D03*
%TO.P,U12,3,~{RESET}*%
%TO.N,unconnected-(U12-~{RESET}-Pad3)*%
X147720000Y-103020000D03*
%TO.P,U12,4,GND*%
%TO.N,GND*%
X147720000Y-100480000D03*
%TO.P,U12,5,D2*%
%TO.N,unconnected-(U12-D2-Pad5)*%
X147720000Y-97940000D03*
%TO.P,U12,6,D3*%
%TO.N,unconnected-(U12-D3-Pad6)*%
X147720000Y-95400000D03*
%TO.P,U12,7,D4*%
%TO.N,unconnected-(U12-D4-Pad7)*%
X147720000Y-92860000D03*
%TO.P,U12,8,D5*%
%TO.N,unconnected-(U12-D5-Pad8)*%
X147720000Y-90320000D03*
%TO.P,U12,9,D6*%
%TO.N,/07 Aux MCU + Peripherals/LED_DATA*%
X147720000Y-87780000D03*
%TO.P,U12,10,D7*%
%TO.N,unconnected-(U12-D7-Pad10)*%
X147720000Y-85240000D03*
%TO.P,U12,11,D8*%
%TO.N,/07 Aux MCU + Peripherals/OLED_RST*%
X147720000Y-82700000D03*
%TO.P,U12,12,D9*%
%TO.N,/07 Aux MCU + Peripherals/OLED_DC*%
X147720000Y-80160000D03*
%TO.P,U12,13,D10*%
%TO.N,/07 Aux MCU + Peripherals/OLED_CS*%
X147720000Y-77620000D03*
%TO.P,U12,14,D11*%
%TO.N,/07 Aux MCU + Peripherals/SPI_MOSI*%
X147720000Y-75080000D03*
%TO.P,U12,15,D12*%
%TO.N,unconnected-(U12-D12-Pad15)*%
X147720000Y-72540000D03*
%TO.P,U12,16,D13*%
%TO.N,/07 Aux MCU + Peripherals/SPI_SCK*%
X132480000Y-72540000D03*
%TO.P,U12,17,3V3*%
%TO.N,/07 Aux MCU + Peripherals/NANO_3V3*%
X132480000Y-75080000D03*
%TO.P,U12,18,AREF*%
%TO.N,unconnected-(U12-AREF-Pad18)*%
X132480000Y-77620000D03*
%TO.P,U12,19,A0*%
%TO.N,unconnected-(U12-A0-Pad19)*%
X132480000Y-80160000D03*
%TO.P,U12,20,A1*%
%TO.N,unconnected-(U12-A1-Pad20)*%
X132480000Y-82700000D03*
%TO.P,U12,21,A2*%
%TO.N,unconnected-(U12-A2-Pad21)*%
X132480000Y-85240000D03*
%TO.P,U12,22,A3*%
%TO.N,unconnected-(U12-A3-Pad22)*%
X132480000Y-87780000D03*
%TO.P,U12,23,A4*%
%TO.N,unconnected-(U12-A4-Pad23)*%
X132480000Y-90320000D03*
%TO.P,U12,24,A5*%
%TO.N,unconnected-(U12-A5-Pad24)*%
X132480000Y-92860000D03*
%TO.P,U12,25,A6*%
%TO.N,unconnected-(U12-A6-Pad25)*%
X132480000Y-95400000D03*
%TO.P,U12,26,A7*%
%TO.N,unconnected-(U12-A7-Pad26)*%
X132480000Y-97940000D03*
%TO.P,U12,27,+5V*%
%TO.N,V5_AUX*%
X132480000Y-100480000D03*
%TO.P,U12,28,~{RESET}*%
%TO.N,unconnected-(U12-~{RESET}-Pad28)*%
X132480000Y-103020000D03*
%TO.P,U12,29,GND*%
%TO.N,GND*%
X132480000Y-105560000D03*
%TO.P,U12,30,VIN*%
%TO.N,unconnected-(U12-VIN-Pad30)*%
X132480000Y-108100000D03*
%TD*%
D14*
%TO.P,J9,1,Pin_1*%
%TO.N,GND*%
X176000000Y-74000000D03*
D11*
%TO.P,J9,2,Pin_2*%
%TO.N,/04 Bus Master (Pattern B)/MASTER_A*%
X176000000Y-76540000D03*
%TD*%
D17*
%TO.N,/04 Bus Master (Pattern B)/MASTER_B*%
X160621200Y-76081200D03*
X162421100Y-89222100D03*
%TD*%
D18*
%TO.N,/07 Aux MCU + Peripherals/OLED_CS*%
X148001800Y-78746700D02*
X147720000Y-78746700D01*
X148846700Y-79591600D02*
X148001800Y-78746700D01*
X176000000Y-105160000D02*
X172405200Y-105160000D01*
X172405200Y-105160000D02*
X148846700Y-81601500D01*
X148846700Y-81601500D02*
X148846700Y-79591600D01*
X147720000Y-77620000D02*
X147720000Y-78746700D01*
%TO.N,/07 Aux MCU + Peripherals/SPI_MOSI*%
X159519200Y-89810100D02*
X161981500Y-89810100D01*
X174791400Y-102620000D02*
X176000000Y-102620000D01*
X158506300Y-86711300D02*
X158506300Y-88797200D01*
X148001700Y-76206700D02*
X158506300Y-86711300D01*
X161981500Y-89810100D02*
X174791400Y-102620000D01*
X147720000Y-76206700D02*
X148001700Y-76206700D01*
X158506300Y-88797200D02*
X159519200Y-89810100D01*
X147720000Y-75080000D02*
X147720000Y-76206700D01*
%TO.N,/07 Aux MCU + Peripherals/OLED_DC*%
X146576100Y-82148900D02*
X146576100Y-83182400D01*
X147438300Y-81286700D02*
X146576100Y-82148900D01*
X147363700Y-83970000D02*
X148953700Y-83970000D01*
X147720000Y-80160000D02*
X147720000Y-81286700D01*
X172683700Y-107700000D02*
X176000000Y-107700000D01*
X147720000Y-81286700D02*
X147438300Y-81286700D01*
X148953700Y-83970000D02*
X172683700Y-107700000D01*
X146576100Y-83182400D02*
X147363700Y-83970000D01*
%TO.N,/07 Aux MCU + Peripherals/OLED_RST*%
X172576700Y-106430000D02*
X148846700Y-82700000D01*
X147720000Y-82700000D02*
X148846700Y-82700000D01*
X177203400Y-109036600D02*
X177203400Y-107145900D01*
X176487500Y-106430000D02*
X172576700Y-106430000D01*
X176000000Y-110240000D02*
X177203400Y-109036600D01*
X177203400Y-107145900D02*
X176487500Y-106430000D01*
%TO.N,/07 Aux MCU + Peripherals/LED_DATA*%
X147720000Y-87780000D02*
X149265200Y-87780000D01*
X165823300Y-104338100D02*
X165823300Y-105000000D01*
X149265200Y-87780000D02*
X165823300Y-104338100D01*
X167000000Y-105000000D02*
X165823300Y-105000000D01*
%TO.N,I2C_SCL*%
X130483600Y-92493700D02*
X130483600Y-89433600D01*
X147620000Y-121460000D02*
X146335600Y-120175600D01*
X146335600Y-120175600D02*
X146335600Y-107603100D01*
X132862500Y-94130000D02*
X132119900Y-94130000D01*
X130483600Y-89433600D02*
X125620000Y-84570000D01*
X146335600Y-107603100D02*
X132862500Y-94130000D01*
X132119900Y-94130000D02*
X130483600Y-92493700D01*
%TO.N,+3V3*%
X127484100Y-94578100D02*
X132045300Y-99139300D01*
X125317300Y-88473300D02*
X126112400Y-88473300D01*
X125620000Y-71870000D02*
X124425900Y-73064100D01*
X124425900Y-73064100D02*
X124425900Y-87581900D01*
X143880700Y-122800700D02*
X145080000Y-124000000D01*
X135864500Y-102128600D02*
X135864500Y-111814600D01*
X132045300Y-99139300D02*
X132875200Y-99139300D01*
X135864500Y-111814600D02*
X143880700Y-119830800D01*
X132875200Y-99139300D02*
X135864500Y-102128600D01*
X124425900Y-87581900D02*
X125317300Y-88473300D01*
X143880700Y-119830800D02*
X143880700Y-122800700D01*
X126112400Y-88473300D02*
X127484100Y-89845000D01*
X127484100Y-89845000D02*
X127484100Y-94578100D01*
%TO.N,I2C_SDA*%
X147620000Y-124000000D02*
X146350000Y-122730000D01*
X132271200Y-96807500D02*
X128941600Y-93477900D01*
X137650200Y-101437400D02*
X133020300Y-96807500D01*
X133020300Y-96807500D02*
X132271200Y-96807500D01*
X128941600Y-93477900D02*
X128941600Y-90431600D01*
X146350000Y-122730000D02*
X146350000Y-120947400D01*
X146350000Y-120947400D02*
X137650200Y-112247600D01*
X128941600Y-90431600D02*
X125620000Y-87110000D01*
X137650200Y-112247600D02*
X137650200Y-101437400D01*
%TO.N,BATT_LOW*%
X150160000Y-124000000D02*
X148867400Y-125292600D01*
X139125200Y-125292600D02*
X127467000Y-113634400D01*
X111744800Y-80854800D02*
X110380000Y-79490000D01*
X126015500Y-98540000D02*
X125132000Y-98540000D01*
X127467000Y-99991500D02*
X126015500Y-98540000D01*
X111744800Y-85152800D02*
X111744800Y-80854800D01*
X127467000Y-113634400D02*
X127467000Y-99991500D01*
X125132000Y-98540000D02*
X111744800Y-85152800D01*
X148867400Y-125292600D02*
X139125200Y-125292600D01*
%TO.N,/04 Bus Master (Pattern B)/MASTER_B*%
X160621200Y-76081200D02*
X162421100Y-77881100D01*
X162421100Y-77881100D02*
X162421100Y-89222100D01*
%TD*%
%TA.AperFunction,Conductor*%
%TO.N,GND*%
G36*
X126904908Y-89876930D02*
G01*
X126937879Y-89900527D01*
X127022281Y-89984929D01*
X127055766Y-90046252D01*
X127058600Y-90072610D01*
X127058600Y-94522082D01*
X127058600Y-94634118D01*
X127087597Y-94742337D01*
X127143615Y-94839363D01*
X127143617Y-94839365D01*
X131766274Y-99462022D01*
X131799759Y-99523345D01*
X131794775Y-99593037D01*
X131766274Y-99637384D01*
X131640588Y-99763069D01*
X131640588Y-99763070D01*
X131640586Y-99763072D01*
X131640350Y-99763397D01*
X131538768Y-99903211D01*
X131460128Y-100057552D01*
X131406597Y-100222302D01*
X131379500Y-100393389D01*
X131379500Y-100566611D01*
X131406598Y-100737701D01*
X131460065Y-100902255D01*
X131460128Y-100902447D01*
X131475273Y-100932171D01*
X131538768Y-101056788D01*
X131640586Y-101196928D01*
X131763072Y-101319414D01*
X131903212Y-101421232D01*
X132057555Y-101499873D01*
X132222299Y-101553402D01*
X132393389Y-101580500D01*
X132393390Y-101580500D01*
X132566610Y-101580500D01*
X132566611Y-101580500D01*
X132737701Y-101553402D01*
X132902445Y-101499873D01*
X133056788Y-101421232D01*
X133196928Y-101319414D01*
X133319414Y-101196928D01*
X133421232Y-101056788D01*
X133499873Y-100902445D01*
X133553402Y-100737701D01*
X133558873Y-100703159D01*
X133588802Y-100640024D01*
X133648113Y-100603092D01*
X133717976Y-100604090D01*
X133769027Y-100634875D01*
X135402681Y-102268529D01*
X135436166Y-102329852D01*
X135439000Y-102356210D01*
X135439000Y-111758582D01*
X135439000Y-111870618D01*
X135467997Y-111978837D01*
X135524015Y-112075863D01*
X135524017Y-112075865D01*
X143418881Y-119970729D01*
X143452366Y-120032052D01*
X143455200Y-120058410D01*
X143455200Y-120460089D01*
X143435515Y-120527128D01*
X143382711Y-120572883D01*
X143313553Y-120582827D01*
X143258315Y-120560408D01*
X143142730Y-120476431D01*
X142981447Y-120394252D01*
X142981444Y-120394251D01*
X142809293Y-120338317D01*
X142630506Y-120310000D01*
X142449494Y-120310000D01*
X142270706Y-120338317D01*
X142098555Y-120394251D01*
X142098547Y-120394254D01*
X141937269Y-120476432D01*
X141921466Y-120487912D01*
X141921466Y-120487913D01*
X142410590Y-120977037D01*
X142347007Y-120994075D01*
X142232993Y-121059901D01*
X142139901Y-121152993D01*
X142074075Y-121267007D01*
X142057037Y-121330590D01*
X141567913Y-120841466D01*
X141567912Y-120841466D01*
X141556432Y-120857269D01*
X141474254Y-121018547D01*
X141474251Y-121018555D01*
X141418317Y-121190706D01*
X141392726Y-121352279D01*
X141362797Y-121415414D01*
X141303485Y-121452345D01*
X141233622Y-121451347D01*
X141175390Y-121412737D01*
X141147780Y-121352279D01*
X141134274Y-121267007D01*
X141122171Y-121190591D01*
X141066273Y-121018552D01*
X141066212Y-121018363D01*
X141066211Y-121018360D01*
X141036474Y-120960000D01*
X140983996Y-120857006D01*
X140893899Y-120732997D01*
X140877558Y-120710505D01*
X140877554Y-120710500D01*
X140749499Y-120582445D01*
X140749494Y-120582441D01*
X140602997Y-120476006D01*
X140602996Y-120476005D01*
X140602994Y-120476004D01*
X140551300Y-120449664D01*
X140441639Y-120393788D01*
X140441636Y-120393787D01*
X140269410Y-120337829D01*
X140090551Y-120309500D01*
X140090546Y-120309500D01*
X139909454Y-120309500D01*
X139909449Y-120309500D01*
X139730589Y-120337829D01*
X139558363Y-120393787D01*
X139558360Y-120393788D01*
X139397002Y-120476006D01*
X139250505Y-120582441D01*
X139250500Y-120582445D01*
X139122445Y-120710500D01*
X139122441Y-120710505D01*
X139016006Y-120857002D01*
X138933788Y-121018360D01*
X138933787Y-121018363D01*
X138877829Y-121190589D01*
X138849500Y-121369448D01*
X138849500Y-121550551D01*
X138877829Y-121729410D01*
X138933787Y-121901636D01*
X138933788Y-121901639D01*
X138989664Y-122011300D01*
X139015869Y-122062730D01*
X139016006Y-122062997D01*
X139122441Y-122209494D01*
X139122445Y-122209499D01*
X139250500Y-122337554D01*
X139250505Y-122337558D01*
X139352386Y-122411578D01*
X139397006Y-122443996D01*
X139491760Y-122492276D01*
X139558360Y-122526211D01*
X139558363Y-122526212D01*
X139643125Y-122553752D01*
X139730591Y-122582171D01*
X139797769Y-122592811D01*
X139862267Y-122603027D01*
X139925402Y-122632956D01*
X139962333Y-122692268D01*
X139961335Y-122762131D01*
X139922725Y-122820363D01*
X139858761Y-122848477D01*
X139842869Y-122849500D01*
X139356898Y-122849500D01*
X139317853Y-122854188D01*
X139268438Y-122860122D01*
X139127656Y-122915639D01*
X139007077Y-123007077D01*
X138915639Y-123127656D01*
X138860122Y-123268438D01*
X138859575Y-123272997D01*
X138849500Y-123356898D01*
X138849500Y-123356903D01*
X138849500Y-124115790D01*
X138829815Y-124182829D01*
X138777011Y-124228584D01*
X138707853Y-124238528D01*
X138644297Y-124209503D01*
X138637819Y-124203471D01*
X127928819Y-113494471D01*
X127895334Y-113433148D01*
X127892500Y-113406790D01*
X127892500Y-108013389D01*
X131379500Y-108013389D01*
X131379500Y-108186611D01*
X131406598Y-108357701D01*
X131451603Y-108496212D01*
X131460128Y-108522447D01*
X131475273Y-108552171D01*
X131538768Y-108676788D01*
X131640586Y-108816928D01*
X131763072Y-108939414D01*
X131903212Y-109041232D01*
X132057555Y-109119873D01*
X132222299Y-109173402D01*
X132393389Y-109200500D01*
X132393390Y-109200500D01*
X132566610Y-109200500D01*
X132566611Y-109200500D01*
X132737701Y-109173402D01*
X132902445Y-109119873D01*
X133056788Y-109041232D01*
X133196928Y-108939414D01*
X133319414Y-108816928D01*
X133421232Y-108676788D01*
X133499873Y-108522445D01*
X133553402Y-108357701D01*
X133580500Y-108186611D01*
X133580500Y-108013389D01*
X133553402Y-107842299D01*
X133499873Y-107677555D01*
X133421232Y-107523212D01*
X133319414Y-107383072D01*
X133196928Y-107260586D01*
X133056788Y-107158768D01*
X132902445Y-107080127D01*
X132737701Y-107026598D01*
X132737699Y-107026597D01*
X132737698Y-107026597D01*
X132606271Y-107005781D01*
X132566611Y-106999500D01*
X132393389Y-106999500D01*
X132353728Y-107005781D01*
X132222302Y-107026597D01*
X132057552Y-107080128D01*
X131903211Y-107158768D01*
X131829387Y-107212405D01*
X131763072Y-107260586D01*
X131763070Y-107260588D01*
X131763069Y-107260588D01*
X131640588Y-107383069D01*
X131640588Y-107383070D01*
X131640586Y-107383072D01*
X131596859Y-107443256D01*
X131538768Y-107523211D01*
X131460128Y-107677552D01*
X131406597Y-107842302D01*
X131401951Y-107871636D01*
X131379500Y-108013389D01*
X127892500Y-108013389D01*
X127892500Y-105309999D01*
X131405884Y-105309999D01*
X131405885Y-105310000D01*
X132046988Y-105310000D01*
X132014075Y-105367007D01*
X131980000Y-105494174D01*
X131980000Y-105625826D01*
X132014075Y-105752993D01*
X132046988Y-105810000D01*
X131405885Y-105810000D01*
X131407085Y-105817584D01*
X131460591Y-105982255D01*
X131539195Y-106136524D01*
X131640967Y-106276602D01*
X131763397Y-106399032D01*
X131903475Y-106500804D01*
X132057744Y-106579408D01*
X132222415Y-106632914D01*
X132222414Y-106632914D01*
X132229999Y-106634115D01*
X132230000Y-106634114D01*
X132230000Y-105993012D01*
X132287007Y-106025925D01*
X132414174Y-106060000D01*
X132545826Y-106060000D01*
X132672993Y-106025925D01*
X132730000Y-105993012D01*
X132730000Y-106634115D01*
X132737584Y-106632914D01*
X132902255Y-106579408D01*
X133056524Y-106500804D01*
X133196602Y-106399032D01*
X133319032Y-106276602D01*
X133420804Y-106136524D01*
X133499408Y-105982255D01*
X133552914Y-105817584D01*
X133554115Y-105810000D01*
X132913012Y-105810000D01*
X132945925Y-105752993D01*
X132980000Y-105625826D01*
X132980000Y-105494174D01*
X132945925Y-105367007D01*
X132913012Y-105310000D01*
X133554115Y-105310000D01*
X133554115Y-105309999D01*
X133552914Y-105302415D01*
X133499408Y-105137744D01*
X133420804Y-104983475D01*
X133319032Y-104843397D01*
X133196602Y-104720967D01*
X133056524Y-104619195D01*
X132902257Y-104540591D01*
X132737589Y-104487087D01*
X132737581Y-104487085D01*
X132730000Y-104485884D01*
X132730000Y-105126988D01*
X132672993Y-105094075D01*
X132545826Y-105060000D01*
X132414174Y-105060000D01*
X132287007Y-105094075D01*
X132230000Y-105126988D01*
X132230000Y-104485884D01*
X132229999Y-104485884D01*
X132222418Y-104487085D01*
X132222410Y-104487087D01*
X132057742Y-104540591D01*
X131903475Y-104619195D01*
X131763397Y-104720967D01*
X131640967Y-104843397D01*
X131539195Y-104983475D01*
X131460591Y-105137744D01*
X131407085Y-105302415D01*
X131405884Y-105309999D01*
X127892500Y-105309999D01*
X127892500Y-102933389D01*
X131379500Y-102933389D01*
X131379500Y-103106611D01*
X131406598Y-103277701D01*
X131451603Y-103416212D01*
X131460128Y-103442447D01*
X131475273Y-103472171D01*
X131538768Y-103596788D01*
X131640586Y-103736928D01*
X131763072Y-103859414D01*
X131903212Y-103961232D01*
X132057555Y-104039873D01*
X132222299Y-104093402D01*
X132393389Y-104120500D01*
X132393390Y-104120500D01*
X132566610Y-104120500D01*
X132566611Y-104120500D01*
X132737701Y-104093402D01*
X132902445Y-104039873D01*
X133056788Y-103961232D01*
X133196928Y-103859414D01*
X133319414Y-103736928D01*
X133421232Y-103596788D01*
X133499873Y-103442445D01*
X133553402Y-103277701D01*
X133580500Y-103106611D01*
X133580500Y-102933389D01*
X133553402Y-102762299D01*
X133499873Y-102597555D01*
X133421232Y-102443212D01*
X133319414Y-102303072D01*
X133196928Y-102180586D01*
X133056788Y-102078768D01*
X132902445Y-102000127D01*
X132737701Y-101946598D01*
X132737699Y-101946597D01*
X132737698Y-101946597D01*
X132606271Y-101925781D01*
X132566611Y-101919500D01*
X132393389Y-101919500D01*
X132353728Y-101925781D01*
X132222302Y-101946597D01*
X132057552Y-102000128D01*
X131903211Y-102078768D01*
X131823256Y-102136859D01*
X131763072Y-102180586D01*
X131763070Y-102180588D01*
X131763069Y-102180588D01*
X131640588Y-102303069D01*
X131640588Y-102303070D01*
X131640586Y-102303072D01*
X131639296Y-102304848D01*
X131538768Y-102443211D01*
X131460128Y-102597552D01*
X131406597Y-102762302D01*
X131379500Y-102933389D01*
X127892500Y-102933389D01*
X127892500Y-99935484D01*
X127892500Y-99935482D01*
X127863503Y-99827263D01*
X127807485Y-99730237D01*
X127728263Y-99651015D01*
X126384832Y-98307584D01*
X126351347Y-98246261D01*
X126356331Y-98176569D01*
X126384832Y-98132222D01*
X126404512Y-98112542D01*
X126497553Y-98019501D01*
X126603996Y-97872994D01*
X126686211Y-97711639D01*
X126742171Y-97539409D01*
X126756765Y-97447259D01*
X126770500Y-97360551D01*
X126770500Y-97179448D01*
X126749205Y-97045002D01*
X126742171Y-97000591D01*
X126698635Y-96866598D01*
X126686212Y-96828363D01*
X126686211Y-96828360D01*
X126657740Y-96772484D01*
X126603996Y-96667006D01*
X126590396Y-96648287D01*
X126497558Y-96520505D01*
X126497554Y-96520500D01*
X126369499Y-96392445D01*
X126369494Y-96392441D01*
X126222997Y-96286006D01*
X126222996Y-96286005D01*
X126222994Y-96286004D01*
X126131551Y-96239411D01*
X126061639Y-96203788D01*
X126061636Y-96203787D01*
X125889410Y-96147829D01*
X125729321Y-96122473D01*
X125666186Y-96092544D01*
X125629255Y-96033232D01*
X125630253Y-95963370D01*
X125668863Y-95905137D01*
X125729321Y-95877527D01*
X125799425Y-95866422D01*
X125889409Y-95852171D01*
X126061639Y-95796211D01*
X126222994Y-95713996D01*
X126369501Y-95607553D01*
X126497553Y-95479501D01*
X126603996Y-95332994D01*
X126686211Y-95171639D01*
X126742171Y-94999409D01*
X126756765Y-94907259D01*
X126770500Y-94820551D01*
X126770500Y-94639448D01*
X126750190Y-94511221D01*
X126742171Y-94460591D01*
X126698635Y-94326598D01*
X126686212Y-94288363D01*
X126686211Y-94288360D01*
X126657740Y-94232484D01*
X126603996Y-94127006D01*
X126569936Y-94080126D01*
X126497558Y-93980505D01*
X126497554Y-93980500D01*
X126369499Y-93852445D01*
X126369494Y-93852441D01*
X126222997Y-93746006D01*
X126222996Y-93746005D01*
X126222994Y-93746004D01*
X126131551Y-93699411D01*
X126061639Y-93663788D01*
X126061636Y-93663787D01*
X125889410Y-93607829D01*
X125729321Y-93582473D01*
X125666186Y-93552544D01*
X125629255Y-93493232D01*
X125630253Y-93423370D01*
X125668863Y-93365137D01*
X125729321Y-93337527D01*
X125799425Y-93326422D01*
X125889409Y-93312171D01*
X126061639Y-93256211D01*
X126222994Y-93173996D01*
X126369501Y-93067553D01*
X126497553Y-92939501D01*
X126603996Y-92792994D01*
X126686211Y-92631639D01*
X126742171Y-92459409D01*
X126764655Y-92317452D01*
X126770500Y-92280551D01*
X126770500Y-92099448D01*
X126748025Y-91957553D01*
X126742171Y-91920591D01*
X126698635Y-91786598D01*
X126686212Y-91748363D01*
X126686211Y-91748360D01*
X126652905Y-91682994D01*
X126603996Y-91587006D01*
X126590396Y-91568287D01*
X126497558Y-91440505D01*
X126497554Y-91440500D01*
X126369499Y-91312445D01*
X126369494Y-91312441D01*
X126222997Y-91206006D01*
X126222996Y-91206005D01*
X126222994Y-91206004D01*
X126153414Y-91170551D01*
X126061639Y-91123788D01*
X126061636Y-91123787D01*
X125889410Y-91067829D01*
X125729321Y-91042473D01*
X125666186Y-91012544D01*
X125629255Y-90953232D01*
X125630253Y-90883370D01*
X125668863Y-90825137D01*
X125729321Y-90797527D01*
X125812128Y-90784411D01*
X125889409Y-90772171D01*
X126061639Y-90716211D01*
X126222994Y-90633996D01*
X126369501Y-90527553D01*
X126497553Y-90399501D01*
X126603996Y-90252994D01*
X126686211Y-90091639D01*
X126732267Y-89949891D01*
X126771704Y-89892215D01*
X126836062Y-89865016D01*
X126904908Y-89876930D01*
G37*
%TD.AperFunction*%
%TA.AperFunction,Conductor*%
G36*
X143392175Y-122351937D02*
G01*
X143440870Y-122402043D01*
X143455200Y-122459910D01*
X143455200Y-122744682D01*
X143455200Y-122856718D01*
X143484197Y-122964937D01*
X143540215Y-123061963D01*
X143540216Y-123061964D01*
X143540217Y-123061965D01*
X143702564Y-123224312D01*
X143965655Y-123487402D01*
X143999140Y-123548725D01*
X143995905Y-123613400D01*
X143957829Y-123730586D01*
X143932219Y-123892280D01*
X143902289Y-123955414D01*
X143842978Y-123992345D01*
X143773115Y-123991347D01*
X143714883Y-123952737D01*
X143687273Y-123892279D01*
X143661682Y-123730706D01*
X143605748Y-123558555D01*
X143605747Y-123558552D01*
X143523571Y-123397275D01*
X143523569Y-123397272D01*
X143520299Y-123392771D01*
X143510540Y-123383012D01*
X143022962Y-123870589D01*
X143005925Y-123807007D01*
X142940099Y-123692993D01*
X142847007Y-123599901D01*
X142732993Y-123534075D01*
X142669409Y-123517037D01*
X143158533Y-123027913D01*
X143142730Y-123016431D01*
X142981447Y-122934252D01*
X142981444Y-122934251D01*
X142809293Y-122878317D01*
X142646120Y-122852473D01*
X142582985Y-122822544D01*
X142546054Y-122763232D01*
X142547052Y-122693370D01*
X142585662Y-122635137D01*
X142646120Y-122607527D01*
X142809293Y-122581682D01*
X142981444Y-122525748D01*
X142981447Y-122525747D01*
X143142734Y-122443565D01*
X143258315Y-122359592D01*
X143324121Y-122336112D01*
X143392175Y-122351937D01*
G37*
%TD.AperFunction*%
%TA.AperFunction,Conductor*%
G36*
X151466630Y-121467052D02*
G01*
X151524863Y-121505662D01*
X151552473Y-121566120D01*
X151578317Y-121729293D01*
X151634251Y-121901444D01*
X151634252Y-121901447D01*
X151716431Y-122062730D01*
X151727913Y-122078532D01*
X151727913Y-122078533D01*
X152217037Y-121589409D01*
X152234075Y-121652993D01*
X152299901Y-121767007D01*
X152392993Y-121860099D01*
X152507007Y-121925925D01*
X152570590Y-121942962D01*
X152081466Y-122432085D01*
X152081466Y-122432086D01*
X152097267Y-122443566D01*
X152097275Y-122443571D01*
X152258552Y-122525747D01*
X152258555Y-122525748D01*
X152430706Y-122581682D01*
X152593879Y-122607527D01*
X152657014Y-122637456D01*
X152693945Y-122696768D01*
X152692947Y-122766630D01*
X152654337Y-122824863D01*
X152593879Y-122852473D01*
X152430706Y-122878317D01*
X152258555Y-122934251D01*
X152258547Y-122934254D01*
X152097269Y-123016432D01*
X152081466Y-123027912D01*
X152081466Y-123027913D01*
X152570591Y-123517037D01*
X152507007Y-123534075D01*
X152392993Y-123599901D01*
X152299901Y-123692993D01*
X152234075Y-123807007D01*
X152217037Y-123870590D01*
X151727912Y-123381466D01*
X151716432Y-123397269D01*
X151634254Y-123558547D01*
X151634251Y-123558555D01*
X151578317Y-123730706D01*
X151552726Y-123892279D01*
X151522797Y-123955414D01*
X151463485Y-123992345D01*
X151393622Y-123991347D01*
X151335390Y-123952737D01*
X151307780Y-123892279D01*
X151283061Y-123736212D01*
X151282171Y-123730591D01*
X151226273Y-123558552D01*
X151226212Y-123558363D01*
X151226211Y-123558360D01*
X151190055Y-123487402D01*
X151143996Y-123397006D01*
X151053899Y-123272997D01*
X151037558Y-123250505D01*
X151037554Y-123250500D01*
X150909499Y-123122445D01*
X150909494Y-123122441D01*
X150762997Y-123016006D01*
X150762996Y-123016005D01*
X150762994Y-123016004D01*
X150711300Y-122989664D01*
X150601639Y-122933788D01*
X150601636Y-122933787D01*
X150429410Y-122877828D01*
X150267720Y-122852219D01*
X150204585Y-122822289D01*
X150167654Y-122762978D01*
X150168652Y-122693115D01*
X150207262Y-122634883D01*
X150267721Y-122607273D01*
X150429292Y-122581683D01*
X150601444Y-122525748D01*
X150601452Y-122525745D01*
X150762730Y-122443568D01*
X150778532Y-122432085D01*
X150778533Y-122432085D01*
X150289410Y-121942962D01*
X150352993Y-121925925D01*
X150467007Y-121860099D01*
X150560099Y-121767007D01*
X150625925Y-121652993D01*
X150642962Y-121589410D01*
X151132085Y-122078533D01*
X151132085Y-122078532D01*
X151143568Y-122062730D01*
X151225745Y-121901452D01*
X151225748Y-121901444D01*
X151281682Y-121729293D01*
X151307527Y-121566120D01*
X151337456Y-121502985D01*
X151396768Y-121466054D01*
X151466630Y-121467052D01*
G37*
%TD.AperFunction*%
%TA.AperFunction,Conductor*%
G36*
X148926883Y-121468652D02*
G01*
X148985116Y-121507262D01*
X149012726Y-121567720D01*
X149038317Y-121729293D01*
X149094251Y-121901444D01*
X149094252Y-121901447D01*
X149176431Y-122062730D01*
X149187913Y-122078532D01*
X149187913Y-122078533D01*
X149677037Y-121589409D01*
X149694075Y-121652993D01*
X149759901Y-121767007D01*
X149852993Y-121860099D01*
X149967007Y-121925925D01*
X150030590Y-121942962D01*
X149541466Y-122432085D01*
X149541466Y-122432086D01*
X149557267Y-122443566D01*
X149557275Y-122443571D01*
X149718552Y-122525747D01*
X149718555Y-122525748D01*
X149890706Y-122581682D01*
X150052279Y-122607273D01*
X150115413Y-122637202D01*
X150152345Y-122696513D01*
X150151347Y-122766376D01*
X150112738Y-122824609D01*
X150052280Y-122852219D01*
X149890589Y-122877829D01*
X149718363Y-122933787D01*
X149718360Y-122933788D01*
X149557002Y-123016006D01*
X149410505Y-123122441D01*
X149410500Y-123122445D01*
X149282445Y-123250500D01*
X149282441Y-123250505D01*
X149176006Y-123397002D01*
X149093788Y-123558360D01*
X149093787Y-123558363D01*
X149037829Y-123730589D01*
X149012473Y-123890678D01*
X148982544Y-123953813D01*
X148923232Y-123990744D01*
X148853369Y-123989746D01*
X148795137Y-123951136D01*
X148767527Y-123890678D01*
X148743061Y-123736212D01*
X148742171Y-123730591D01*
X148686273Y-123558552D01*
X148686212Y-123558363D01*
X148686211Y-123558360D01*
X148650055Y-123487402D01*
X148603996Y-123397006D01*
X148513899Y-123272997D01*
X148497558Y-123250505D01*
X148497554Y-123250500D01*
X148369499Y-123122445D01*
X148369494Y-123122441D01*
X148222997Y-123016006D01*
X148222996Y-123016005D01*
X148222994Y-123016004D01*
X148171300Y-122989664D01*
X148061639Y-122933788D01*
X148061636Y-122933787D01*
X147889410Y-122877829D01*
X147729321Y-122852473D01*
X147666186Y-122822544D01*
X147629255Y-122763232D01*
X147630253Y-122693370D01*
X147668863Y-122635137D01*
X147729321Y-122607527D01*
X147799425Y-122596422D01*
X147889409Y-122582171D01*
X148061639Y-122526211D01*
X148222994Y-122443996D01*
X148369501Y-122337553D01*
X148497553Y-122209501D01*
X148603996Y-122062994D01*
X148686211Y-121901639D01*
X148742171Y-121729409D01*
X148767780Y-121567720D01*
X148797709Y-121504585D01*
X148857021Y-121467654D01*
X148926883Y-121468652D01*
G37*
%TD.AperFunction*%
%TA.AperFunction,Conductor*%
G36*
X141306883Y-121468652D02*
G01*
X141365116Y-121507262D01*
X141392726Y-121567720D01*
X141418317Y-121729293D01*
X141474251Y-121901444D01*
X141474252Y-121901447D01*
X141556431Y-122062730D01*
X141567913Y-122078532D01*
X141567913Y-122078533D01*
X142057037Y-121589409D01*
X142074075Y-121652993D01*
X142139901Y-121767007D01*
X142232993Y-121860099D01*
X142347007Y-121925925D01*
X142410589Y-121942962D01*
X141921466Y-122432085D01*
X141921466Y-122432086D01*
X141937267Y-122443566D01*
X141937275Y-122443571D01*
X142098552Y-122525747D01*
X142098555Y-122525748D01*
X142270706Y-122581682D01*
X142433879Y-122607527D01*
X142497014Y-122637456D01*
X142533945Y-122696768D01*
X142532947Y-122766630D01*
X142494337Y-122824863D01*
X142433879Y-122852473D01*
X142270706Y-122878317D01*
X142098555Y-122934251D01*
X142098547Y-122934254D01*
X141937269Y-123016432D01*
X141921466Y-123027912D01*
X141921466Y-123027913D01*
X142410591Y-123517037D01*
X142347007Y-123534075D01*
X142232993Y-123599901D01*
X142139901Y-123692993D01*
X142074075Y-123807007D01*
X142057037Y-123870590D01*
X141567913Y-123381466D01*
X141567912Y-123381466D01*
X141556432Y-123397269D01*
X141474254Y-123558547D01*
X141474251Y-123558555D01*
X141418317Y-123730706D01*
X141396973Y-123865468D01*
X141367044Y-123928603D01*
X141307732Y-123965534D01*
X141237870Y-123964536D01*
X141179637Y-123925926D01*
X141151523Y-123861963D01*
X141150500Y-123846070D01*
X141150500Y-123356903D01*
X141150500Y-123356898D01*
X141139877Y-123268436D01*
X141084361Y-123127658D01*
X141084360Y-123127657D01*
X141084360Y-123127656D01*
X140992922Y-123007077D01*
X140872343Y-122915639D01*
X140731561Y-122860122D01*
X140685926Y-122854642D01*
X140643102Y-122849500D01*
X140157131Y-122849500D01*
X140090092Y-122829815D01*
X140044337Y-122777011D01*
X140034393Y-122707853D01*
X140063418Y-122644297D01*
X140122196Y-122606523D01*
X140137733Y-122603027D01*
X140195408Y-122593891D01*
X140269409Y-122582171D01*
X140441639Y-122526211D01*
X140602994Y-122443996D01*
X140749501Y-122337553D01*
X140877553Y-122209501D01*
X140983996Y-122062994D01*
X141066211Y-121901639D01*
X141122171Y-121729409D01*
X141147780Y-121567720D01*
X141177709Y-121504585D01*
X141237021Y-121467654D01*
X141306883Y-121468652D01*
G37*
%TD.AperFunction*%
%TA.AperFunction,Conductor*%
G36*
X181442539Y-57520185D02*
G01*
X181488294Y-57572989D01*
X181499500Y-57624500D01*
X181499500Y-134375500D01*
X181479815Y-134442539D01*
X181427011Y-134488294D01*
X181375500Y-134499500D01*
X98624500Y-134499500D01*
X98557461Y-134479815D01*
X98511706Y-134427011D01*
X98500500Y-134375500D01*
X98500500Y-128878711D01*
X101149500Y-128878711D01*
X101149500Y-129121288D01*
X101181161Y-129361785D01*
X101243947Y-129596104D01*
X101336773Y-129820205D01*
X101336776Y-129820212D01*
X101458064Y-130030289D01*
X101458066Y-130030292D01*
X101458067Y-130030293D01*
X101605733Y-130222736D01*
X101605739Y-130222743D01*
X101777256Y-130394260D01*
X101777262Y-130394265D01*
X101969711Y-130541936D01*
X102179788Y-130663224D01*
X102403900Y-130756054D01*
X102638211Y-130818838D01*
X102818586Y-130842584D01*
X102878711Y-130850500D01*
X102878712Y-130850500D01*
X103121289Y-130850500D01*
X103169388Y-130844167D01*
X103361789Y-130818838D01*
X103596100Y-130756054D01*
X103820212Y-130663224D01*
X104030289Y-130541936D01*
X104222738Y-130394265D01*
X104394265Y-130222738D01*
X104541936Y-130030289D01*
X104663224Y-129820212D01*
X104756054Y-129596100D01*
X104818838Y-129361789D01*
X104850500Y-129121288D01*
X104850500Y-128878712D01*
X104850500Y-128878711D01*
X175149500Y-128878711D01*
X175149500Y-129121288D01*
X175181161Y-129361785D01*
X175243947Y-129596104D01*
X175336773Y-129820205D01*
X175336776Y-129820212D01*
X175458064Y-130030289D01*
X175458066Y-130030292D01*
X175458067Y-130030293D01*
X175605733Y-130222736D01*
X175605739Y-130222743D01*
X175777256Y-130394260D01*
X175777262Y-130394265D01*
X175969711Y-130541936D01*
X176179788Y-130663224D01*
X176403900Y-130756054D01*
X176638211Y-130818838D01*
X176818586Y-130842584D01*
X176878711Y-130850500D01*
X176878712Y-130850500D01*
X177121289Y-130850500D01*
X177169388Y-130844167D01*
X177361789Y-130818838D01*
X177596100Y-130756054D01*
X177820212Y-130663224D01*
X178030289Y-130541936D01*
X178222738Y-130394265D01*
X178394265Y-130222738D01*
X178541936Y-130030289D01*
X178663224Y-129820212D01*
X178756054Y-129596100D01*
X178818838Y-129361789D01*
X178850500Y-129121288D01*
X178850500Y-128878712D01*
X178818838Y-128638211D01*
X178756054Y-128403900D01*
X178663224Y-128179788D01*
X178541936Y-127969711D01*
X178394265Y-127777262D01*
X178394260Y-127777256D01*
X178222743Y-127605739D01*
X178222736Y-127605733D01*
X178030293Y-127458067D01*
X178030292Y-127458066D01*
X178030289Y-127458064D01*
X177820212Y-127336776D01*
X177820205Y-127336773D01*
X177596104Y-127243947D01*
X177361785Y-127181161D01*
X177121289Y-127149500D01*
X177121288Y-127149500D01*
X176878712Y-127149500D01*
X176878711Y-127149500D01*
X176638214Y-127181161D01*
X176403895Y-127243947D01*
X176179794Y-127336773D01*
X176179785Y-127336777D01*
X175969706Y-127458067D01*
X175777263Y-127605733D01*
X175777256Y-127605739D01*
X175605739Y-127777256D01*
X175605733Y-127777263D01*
X175458067Y-127969706D01*
X175336777Y-128179785D01*
X175336773Y-128179794D01*
X175243947Y-128403895D01*
X175181161Y-128638214D01*
X175149500Y-128878711D01*
X104850500Y-128878711D01*
X104818838Y-128638211D01*
X104756054Y-128403900D01*
X104663224Y-128179788D01*
X104541936Y-127969711D01*
X104394265Y-127777262D01*
X104394260Y-127777256D01*
X104222743Y-127605739D01*
X104222736Y-127605733D01*
X104030293Y-127458067D01*
X104030292Y-127458066D01*
X104030289Y-127458064D01*
X103820212Y-127336776D01*
X103820205Y-127336773D01*
X103596104Y-127243947D01*
X103361785Y-127181161D01*
X103121289Y-127149500D01*
X103121288Y-127149500D01*
X102878712Y-127149500D01*
X102878711Y-127149500D01*
X102638214Y-127181161D01*
X102403895Y-127243947D01*
X102179794Y-127336773D01*
X102179785Y-127336777D01*
X101969706Y-127458067D01*
X101777263Y-127605733D01*
X101777256Y-127605739D01*
X101605739Y-127777256D01*
X101605733Y-127777263D01*
X101458067Y-127969706D01*
X101336777Y-128179785D01*
X101336773Y-128179794D01*
X101243947Y-128403895D01*
X101181161Y-128638214D01*
X101149500Y-128878711D01*
X98500500Y-128878711D01*
X98500500Y-69239448D01*
X109229500Y-69239448D01*
X109229500Y-69420551D01*
X109257829Y-69599410D01*
X109313787Y-69771636D01*
X109313788Y-69771639D01*
X109369664Y-69881300D01*
X109395869Y-69932730D01*
X109396006Y-69932997D01*
X109502441Y-70079494D01*
X109502445Y-70079499D01*
X109630500Y-70207554D01*
X109630505Y-70207558D01*
X109758287Y-70300396D01*
X109777006Y-70313996D01*
X109882484Y-70367740D01*
X109938360Y-70396211D01*
X109938363Y-70396212D01*
X110024476Y-70424191D01*
X110110591Y-70452171D01*
X110183639Y-70463740D01*
X110270678Y-70477527D01*
X110333813Y-70507456D01*
X110370744Y-70566768D01*
X110369746Y-70636631D01*
X110331136Y-70694863D01*
X110270678Y-70722473D01*
X110110589Y-70747829D01*
X109938363Y-70803787D01*
X109938360Y-70803788D01*
X109777002Y-70886006D01*
X109630505Y-70992441D01*
X109630500Y-70992445D01*
X109502445Y-71120500D01*
X109502441Y-71120505D01*
X109396006Y-71267002D01*
X109313788Y-71428360D01*
X109313787Y-71428363D01*
X109257829Y-71600589D01*
X109229500Y-71779448D01*
X109229500Y-71960551D01*
X109257829Y-72139410D01*
X109313787Y-72311636D01*
X109313788Y-72311639D01*
X109396006Y-72472997D01*
X109502441Y-72619494D01*
X109502445Y-72619499D01*
X109630500Y-72747554D01*
X109630505Y-72747558D01*
X109699522Y-72797701D01*
X109777006Y-72853996D01*
X109882484Y-72907740D01*
X109938360Y-72936211D01*
X109938363Y-72936212D01*
X109993400Y-72954094D01*
X110110591Y-72992171D01*
X110183639Y-73003740D01*
X110270678Y-73017527D01*
X110333813Y-73047456D01*
X110370744Y-73106768D01*
X110369746Y-73176631D01*
X110331136Y-73234863D01*
X110270678Y-73262473D01*
X110110589Y-73287829D01*
X109938363Y-73343787D01*
X109938360Y-73343788D01*
X109777002Y-73426006D01*
X109630505Y-73532441D01*
X109630500Y-73532445D01*
X109502445Y-73660500D01*
X109502441Y-73660505D01*
X109396006Y-73807002D01*
X109313788Y-73968360D01*
X109313787Y-73968363D01*
X109257829Y-74140589D01*
X109229500Y-74319448D01*
X109229500Y-74500551D01*
X109257829Y-74679410D01*
X109313787Y-74851636D01*
X109313788Y-74851639D01*
X109396006Y-75012997D01*
X109502441Y-75159494D01*
X109502445Y-75159499D01*
X109630500Y-75287554D01*
X109630505Y-75287558D01*
X109758287Y-75380396D01*
X109777006Y-75393996D01*
X109868312Y-75440519D01*
X109938360Y-75476211D01*
X109938363Y-75476212D01*
X110019102Y-75502445D01*
X110110591Y-75532171D01*
X110183639Y-75543740D01*
X110270678Y-75557527D01*
X110333813Y-75587456D01*
X110370744Y-75646768D01*
X110369746Y-75716631D01*
X110331136Y-75774863D01*
X110270678Y-75802473D01*
X110110589Y-75827829D01*
X109938363Y-75883787D01*
X109938360Y-75883788D01*
X109777002Y-75966006D01*
X109630505Y-76072441D01*
X109630500Y-76072445D01*
X109502445Y-76200500D01*
X109502441Y-76200505D01*
X109396006Y-76347002D01*
X109313788Y-76508360D01*
X109313787Y-76508363D01*
X109257829Y-76680589D01*
X109229500Y-76859448D01*
X109229500Y-77040551D01*
X109257829Y-77219410D01*
X109313787Y-77391636D01*
X109313788Y-77391639D01*
X109396006Y-77552997D01*
X109502441Y-77699494D01*
X109502445Y-77699499D01*
X109630500Y-77827554D01*
X109630505Y-77827558D01*
X109699522Y-77877701D01*
X109777006Y-77933996D01*
X109876961Y-77984926D01*
X109938360Y-78016211D01*
X109938363Y-78016212D01*
X110019102Y-78042445D01*
X110110591Y-78072171D01*
X110174872Y-78082352D01*
X110270678Y-78097527D01*
X110333813Y-78127456D01*
X110370744Y-78186768D01*
X110369746Y-78256631D01*
X110331136Y-78314863D01*
X110270678Y-78342473D01*
X110110589Y-78367829D01*
X109938363Y-78423787D01*
X109938360Y-78423788D01*
X109777002Y-78506006D01*
X109630505Y-78612441D01*
X109630500Y-78612445D01*
X109502445Y-78740500D01*
X109502441Y-78740505D01*
X109396006Y-78887002D01*
X109313788Y-79048360D01*
X109313787Y-79048363D01*
X109257829Y-79220589D01*
X109229500Y-79399448D01*
X109229500Y-79580551D01*
X109257829Y-79759410D01*
X109313787Y-79931636D01*
X109313788Y-79931639D01*
X109396006Y-80092997D01*
X109502441Y-80239494D01*
X109502445Y-80239499D01*
X109630500Y-80367554D01*
X109630505Y-80367558D01*
X109699522Y-80417701D01*
X109777006Y-80473996D01*
X109856136Y-80514315D01*
X109938360Y-80556211D01*
X109938363Y-80556212D01*
X109987260Y-80572099D01*
X110110591Y-80612171D01*
X110183639Y-80623740D01*
X110270678Y-80637527D01*
X110333813Y-80667456D01*
X110370744Y-80726768D01*
X110369746Y-80796631D01*
X110331136Y-80854863D01*
X110270678Y-80882473D01*
X110110589Y-80907829D01*
X109938363Y-80963787D01*
X109938360Y-80963788D01*
X109777002Y-81046006D01*
X109630505Y-81152441D01*
X109630500Y-81152445D01*
X109502445Y-81280500D01*
X109502441Y-81280505D01*
X109396006Y-81427002D01*
X109313788Y-81588360D01*
X109313787Y-81588363D01*
X109257829Y-81760589D01*
X109229500Y-81939448D01*
X109229500Y-82120551D01*
X109257829Y-82299410D01*
X109313787Y-82471636D01*
X109313788Y-82471639D01*
X109396006Y-82632997D01*
X109502441Y-82779494D01*
X109502445Y-82779499D01*
X109630500Y-82907554D01*
X109630505Y-82907558D01*
X109699522Y-82957701D01*
X109777006Y-83013996D01*
X109868312Y-83060519D01*
X109938360Y-83096211D01*
X109938363Y-83096212D01*
X110019102Y-83122445D01*
X110110591Y-83152171D01*
X110183639Y-83163740D01*
X110270678Y-83177527D01*
X110333813Y-83207456D01*
X110370744Y-83266768D01*
X110369746Y-83336631D01*
X110331136Y-83394863D01*
X110270678Y-83422473D01*
X110110589Y-83447829D01*
X109938363Y-83503787D01*
X109938360Y-83503788D01*
X109777002Y-83586006D01*
X109630505Y-83692441D01*
X109630500Y-83692445D01*
X109502445Y-83820500D01*
X109502441Y-83820505D01*
X109396006Y-83967002D01*
X109313788Y-84128360D01*
X109313787Y-84128363D01*
X109257829Y-84300589D01*
X109229500Y-84479448D01*
X109229500Y-84660551D01*
X109257829Y-84839410D01*
X109313787Y-85011636D01*
X109313788Y-85011639D01*
X109396006Y-85172997D01*
X109502441Y-85319494D01*
X109502445Y-85319499D01*
X109630500Y-85447554D01*
X109630505Y-85447558D01*
X109699522Y-85497701D01*
X109777006Y-85553996D01*
X109876961Y-85604926D01*
X109938360Y-85636211D01*
X109938363Y-85636212D01*
X109987260Y-85652099D01*
X110110591Y-85692171D01*
X110183639Y-85703740D01*
X110270678Y-85717527D01*
X110333813Y-85747456D01*
X110370744Y-85806768D01*
X110369746Y-85876631D01*
X110331136Y-85934863D01*
X110270678Y-85962473D01*
X110110589Y-85987829D01*
X109938363Y-86043787D01*
X109938360Y-86043788D01*
X109777002Y-86126006D01*
X109630505Y-86232441D01*
X109630500Y-86232445D01*
X109502445Y-86360500D01*
X109502441Y-86360505D01*
X109396006Y-86507002D01*
X109313788Y-86668360D01*
X109313787Y-86668363D01*
X109257829Y-86840589D01*
X109229500Y-87019448D01*
X109229500Y-87200551D01*
X109257829Y-87379410D01*
X109313787Y-87551636D01*
X109313788Y-87551639D01*
X109396006Y-87712997D01*
X109502441Y-87859494D01*
X109502445Y-87859499D01*
X109630500Y-87987554D01*
X109630505Y-87987558D01*
X109699522Y-88037701D01*
X109777006Y-88093996D01*
X109882484Y-88147740D01*
X109938360Y-88176211D01*
X109938363Y-88176212D01*
X110019102Y-88202445D01*
X110110591Y-88232171D01*
X110183639Y-88243740D01*
X110270678Y-88257527D01*
X110333813Y-88287456D01*
X110370744Y-88346768D01*
X110369746Y-88416631D01*
X110331136Y-88474863D01*
X110270678Y-88502473D01*
X110110589Y-88527829D01*
X109938363Y-88583787D01*
X109938360Y-88583788D01*
X109777002Y-88666006D01*
X109630505Y-88772441D01*
X109630500Y-88772445D01*
X109502445Y-88900500D01*
X109502441Y-88900505D01*
X109396006Y-89047002D01*
X109313788Y-89208360D01*
X109313787Y-89208363D01*
X109257829Y-89380589D01*
X109229500Y-89559448D01*
X109229500Y-89740551D01*
X109257829Y-89919410D01*
X109313787Y-90091636D01*
X109313788Y-90091639D01*
X109353886Y-90170334D01*
X109387141Y-90235600D01*
X109396006Y-90252997D01*
X109502441Y-90399494D01*
X109502445Y-90399499D01*
X109630500Y-90527554D01*
X109630505Y-90527558D01*
X109699522Y-90577701D01*
X109777006Y-90633996D01*
X109882484Y-90687740D01*
X109938360Y-90716211D01*
X109938363Y-90716212D01*
X110019102Y-90742445D01*
X110110591Y-90772171D01*
X110183639Y-90783740D01*
X110270678Y-90797527D01*
X110333813Y-90827456D01*
X110370744Y-90886768D01*
X110369746Y-90956631D01*
X110331136Y-91014863D01*
X110270678Y-91042473D01*
X110110589Y-91067829D01*
X109938363Y-91123787D01*
X109938360Y-91123788D01*
X109777002Y-91206006D01*
X109630505Y-91312441D01*
X109630500Y-91312445D01*
X109502445Y-91440500D01*
X109502441Y-91440505D01*
X109396006Y-91587002D01*
X109313788Y-91748360D01*
X109313787Y-91748363D01*
X109257829Y-91920589D01*
X109229500Y-92099448D01*
X109229500Y-92280551D01*
X109257829Y-92459410D01*
X109313787Y-92631636D01*
X109313788Y-92631639D01*
X109396006Y-92792997D01*
X109502441Y-92939494D01*
X109502445Y-92939499D01*
X109630500Y-93067554D01*
X109630505Y-93067558D01*
X109699522Y-93117701D01*
X109777006Y-93173996D01*
X109882484Y-93227740D01*
X109938360Y-93256211D01*
X109938363Y-93256212D01*
X110019102Y-93282445D01*
X110110591Y-93312171D01*
X110183639Y-93323740D01*
X110270678Y-93337527D01*
X110333813Y-93367456D01*
X110370744Y-93426768D01*
X110369746Y-93496631D01*
X110331136Y-93554863D01*
X110270678Y-93582473D01*
X110110589Y-93607829D01*
X109938363Y-93663787D01*
X109938360Y-93663788D01*
X109777002Y-93746006D01*
X109630505Y-93852441D01*
X109630500Y-93852445D01*
X109502445Y-93980500D01*
X109502441Y-93980505D01*
X109396006Y-94127002D01*
X109313788Y-94288360D01*
X109313787Y-94288363D01*
X109257829Y-94460589D01*
X109229500Y-94639448D01*
X109229500Y-94820551D01*
X109257829Y-94999410D01*
X109313787Y-95171636D01*
X109313788Y-95171639D01*
X109396006Y-95332997D01*
X109502441Y-95479494D01*
X109502445Y-95479499D01*
X109630500Y-95607554D01*
X109630505Y-95607558D01*
X109699522Y-95657701D01*
X109777006Y-95713996D01*
X109882484Y-95767740D01*
X109938360Y-95796211D01*
X109938363Y-95796212D01*
X110019102Y-95822445D01*
X110110591Y-95852171D01*
X110183639Y-95863740D01*
X110270678Y-95877527D01*
X110333813Y-95907456D01*
X110370744Y-95966768D01*
X110369746Y-96036631D01*
X110331136Y-96094863D01*
X110270678Y-96122473D01*
X110110589Y-96147829D01*
X109938363Y-96203787D01*
X109938360Y-96203788D01*
X109777002Y-96286006D01*
X109630505Y-96392441D01*
X109630500Y-96392445D01*
X109502445Y-96520500D01*
X109502441Y-96520505D01*
X109396006Y-96667002D01*
X109313788Y-96828360D01*
X109313787Y-96828363D01*
X109257829Y-97000589D01*
X109229500Y-97179448D01*
X109229500Y-97360551D01*
X109257829Y-97539410D01*
X109313787Y-97711636D01*
X109313788Y-97711639D01*
X109327308Y-97738172D01*
X109395371Y-97871752D01*
X109396006Y-97872997D01*
X109502441Y-98019494D01*
X109502445Y-98019499D01*
X109630500Y-98147554D01*
X109630505Y-98147558D01*
X109699522Y-98197701D01*
X109777006Y-98253996D01*
X109882178Y-98307584D01*
X109938360Y-98336211D01*
X109938363Y-98336212D01*
X110019102Y-98362445D01*
X110110591Y-98392171D01*
X110183639Y-98403740D01*
X110270678Y-98417527D01*
X110333813Y-98447456D01*
X110370744Y-98506768D01*
X110369746Y-98576631D01*
X110331136Y-98634863D01*
X110270678Y-98662473D01*
X110110589Y-98687829D01*
X109938363Y-98743787D01*
X109938360Y-98743788D01*
X109777002Y-98826006D01*
X109630505Y-98932441D01*
X109630500Y-98932445D01*
X109502445Y-99060500D01*
X109502441Y-99060505D01*
X109396006Y-99207002D01*
X109313788Y-99368360D01*
X109313787Y-99368363D01*
X109257829Y-99540589D01*
X109229500Y-99719448D01*
X109229500Y-99900551D01*
X109257829Y-100079410D01*
X109313787Y-100251636D01*
X109313788Y-100251639D01*
X109396006Y-100412997D01*
X109502441Y-100559494D01*
X109502445Y-100559499D01*
X109630500Y-100687554D01*
X109630505Y-100687558D01*
X109699522Y-100737701D01*
X109777006Y-100793996D01*
X109882484Y-100847740D01*
X109938360Y-100876211D01*
X109938363Y-100876212D01*
X110019102Y-100902445D01*
X110110591Y-100932171D01*
X110183639Y-100943740D01*
X110270678Y-100957527D01*
X110333813Y-100987456D01*
X110370744Y-101046768D01*
X110369746Y-101116631D01*
X110331136Y-101174863D01*
X110270678Y-101202473D01*
X110110589Y-101227829D01*
X109938363Y-101283787D01*
X109938360Y-101283788D01*
X109777002Y-101366006D01*
X109630505Y-101472441D01*
X109630500Y-101472445D01*
X109502445Y-101600500D01*
X109502441Y-101600505D01*
X109396006Y-101747002D01*
X109313788Y-101908360D01*
X109313787Y-101908363D01*
X109257829Y-102080589D01*
X109229500Y-102259448D01*
X109229500Y-102440551D01*
X109257829Y-102619410D01*
X109313787Y-102791636D01*
X109313788Y-102791639D01*
X109396006Y-102952997D01*
X109502441Y-103099494D01*
X109502445Y-103099499D01*
X109630500Y-103227554D01*
X109630505Y-103227558D01*
X109699522Y-103277701D01*
X109777006Y-103333996D01*
X109882484Y-103387740D01*
X109938360Y-103416211D01*
X109938363Y-103416212D01*
X110019102Y-103442445D01*
X110110591Y-103472171D01*
X110183639Y-103483740D01*
X110270678Y-103497527D01*
X110333813Y-103527456D01*
X110370744Y-103586768D01*
X110369746Y-103656631D01*
X110331136Y-103714863D01*
X110270678Y-103742473D01*
X110110589Y-103767829D01*
X109938363Y-103823787D01*
X109938360Y-103823788D01*
X109777002Y-103906006D01*
X109630505Y-104012441D01*
X109630500Y-104012445D01*
X109502445Y-104140500D01*
X109502441Y-104140505D01*
X109396006Y-104287002D01*
X109313788Y-104448360D01*
X109313787Y-104448363D01*
X109257829Y-104620589D01*
X109229500Y-104799448D01*
X109229500Y-104980551D01*
X109257829Y-105159410D01*
X109313787Y-105331636D01*
X109313788Y-105331639D01*
X109363239Y-105428689D01*
X109388103Y-105477488D01*
X109396006Y-105492997D01*
X109502441Y-105639494D01*
X109502445Y-105639499D01*
X109630500Y-105767554D01*
X109630505Y-105767558D01*
X109739078Y-105846440D01*
X109777006Y-105873996D01*
X109854682Y-105913574D01*
X109938360Y-105956211D01*
X109938363Y-105956212D01*
X110019102Y-105982445D01*
X110110591Y-106012171D01*
X110183639Y-106023740D01*
X110270678Y-106037527D01*
X110333813Y-106067456D01*
X110370744Y-106126768D01*
X110369746Y-106196631D01*
X110331136Y-106254863D01*
X110270678Y-106282473D01*
X110110589Y-106307829D01*
X109938363Y-106363787D01*
X109938360Y-106363788D01*
X109777002Y-106446006D01*
X109630505Y-106552441D01*
X109630500Y-106552445D01*
X109502445Y-106680500D01*
X109502441Y-106680505D01*
X109396006Y-106827002D01*
X109313788Y-106988360D01*
X109313787Y-106988363D01*
X109257829Y-107160589D01*
X109229500Y-107339448D01*
X109229500Y-107520551D01*
X109257829Y-107699410D01*
X109313787Y-107871636D01*
X109313788Y-107871639D01*
X109396006Y-108032997D01*
X109502441Y-108179494D01*
X109502445Y-108179499D01*
X109630500Y-108307554D01*
X109630505Y-108307558D01*
X109699522Y-108357701D01*
X109777006Y-108413996D01*
X109882484Y-108467740D01*
X109938360Y-108496211D01*
X109938363Y-108496212D01*
X110019102Y-108522445D01*
X110110591Y-108552171D01*
X110183639Y-108563740D01*
X110270678Y-108577527D01*
X110333813Y-108607456D01*
X110370744Y-108666768D01*
X110369746Y-108736631D01*
X110331136Y-108794863D01*
X110270678Y-108822473D01*
X110110589Y-108847829D01*
X109938363Y-108903787D01*
X109938360Y-108903788D01*
X109777002Y-108986006D01*
X109630505Y-109092441D01*
X109630500Y-109092445D01*
X109502445Y-109220500D01*
X109502441Y-109220505D01*
X109396006Y-109367002D01*
X109313788Y-109528360D01*
X109313787Y-109528363D01*
X109257829Y-109700589D01*
X109229500Y-109879448D01*
X109229500Y-110060551D01*
X109257829Y-110239410D01*
X109313787Y-110411636D01*
X109313788Y-110411639D01*
X109396006Y-110572997D01*
X109502441Y-110719494D01*
X109502445Y-110719499D01*
X109630500Y-110847554D01*
X109630505Y-110847558D01*
X109758287Y-110940396D01*
X109777006Y-110953996D01*
X109882484Y-111007740D01*
X109938360Y-111036211D01*
X109938363Y-111036212D01*
X110024476Y-111064191D01*
X110110591Y-111092171D01*
X110183639Y-111103740D01*
X110270678Y-111117527D01*
X110333813Y-111147456D01*
X110370744Y-111206768D01*
X110369746Y-111276631D01*
X110331136Y-111334863D01*
X110270678Y-111362473D01*
X110110589Y-111387829D01*
X109938363Y-111443787D01*
X109938360Y-111443788D01*
X109777002Y-111526006D01*
X109630505Y-111632441D01*
X109630500Y-111632445D01*
X109502445Y-111760500D01*
X109502441Y-111760505D01*
X109396006Y-111907002D01*
X109313788Y-112068360D01*
X109313787Y-112068363D01*
X109257829Y-112240589D01*
X109229500Y-112419448D01*
X109229500Y-112600551D01*
X109257829Y-112779410D01*
X109313787Y-112951636D01*
X109313788Y-112951639D01*
X109396006Y-113112997D01*
X109502441Y-113259494D01*
X109502445Y-113259499D01*
X109630500Y-113387554D01*
X109630505Y-113387558D01*
X109758287Y-113480396D01*
X109777006Y-113493996D01*
X109882484Y-113547740D01*
X109938360Y-113576211D01*
X109938363Y-113576212D01*
X110024476Y-113604191D01*
X110110591Y-113632171D01*
X110183639Y-113643740D01*
X110270678Y-113657527D01*
X110333813Y-113687456D01*
X110370744Y-113746768D01*
X110369746Y-113816631D01*
X110331136Y-113874863D01*
X110270678Y-113902473D01*
X110110589Y-113927829D01*
X109938363Y-113983787D01*
X109938360Y-113983788D01*
X109777002Y-114066006D01*
X109630505Y-114172441D01*
X109630500Y-114172445D01*
X109502445Y-114300500D01*
X109502441Y-114300505D01*
X109396006Y-114447002D01*
X109313788Y-114608360D01*
X109313787Y-114608363D01*
X109257829Y-114780589D01*
X109229500Y-114959448D01*
X109229500Y-115140551D01*
X109257829Y-115319410D01*
X109313787Y-115491636D01*
X109313788Y-115491639D01*
X109396006Y-115652997D01*
X109502441Y-115799494D01*
X109502445Y-115799499D01*
X109630500Y-115927554D01*
X109630505Y-115927558D01*
X109758287Y-116020396D01*
X109777006Y-116033996D01*
X109882484Y-116087740D01*
X109938360Y-116116211D01*
X109938363Y-116116212D01*
X110024476Y-116144191D01*
X110110591Y-116172171D01*
X110183639Y-116183740D01*
X110270678Y-116197527D01*
X110333813Y-116227456D01*
X110370744Y-116286768D01*
X110369746Y-116356631D01*
X110331136Y-116414863D01*
X110270678Y-116442473D01*
X110110589Y-116467829D01*
X109938363Y-116523787D01*
X109938360Y-116523788D01*
X109777002Y-116606006D01*
X109630505Y-116712441D01*
X109630500Y-116712445D01*
X109502445Y-116840500D01*
X109502441Y-116840505D01*
X109396006Y-116987002D01*
X109313788Y-117148360D01*
X109313787Y-117148363D01*
X109257829Y-117320589D01*
X109229500Y-117499448D01*
X109229500Y-117680551D01*
X109257829Y-117859410D01*
X109313787Y-118031636D01*
X109313788Y-118031639D01*
X109396006Y-118192997D01*
X109502441Y-118339494D01*
X109502445Y-118339499D01*
X109630500Y-118467554D01*
X109630505Y-118467558D01*
X109758287Y-118560396D01*
X109777006Y-118573996D01*
X109882484Y-118627740D01*
X109938360Y-118656211D01*
X109938363Y-118656212D01*
X110024476Y-118684191D01*
X110110591Y-118712171D01*
X110183639Y-118723740D01*
X110270678Y-118737527D01*
X110333813Y-118767456D01*
X110370744Y-118826768D01*
X110369746Y-118896631D01*
X110331136Y-118954863D01*
X110270678Y-118982473D01*
X110110589Y-119007829D01*
X109938363Y-119063787D01*
X109938360Y-119063788D01*
X109777002Y-119146006D01*
X109630505Y-119252441D01*
X109630500Y-119252445D01*
X109502445Y-119380500D01*
X109502441Y-119380505D01*
X109396006Y-119527002D01*
X109313788Y-119688360D01*
X109313787Y-119688363D01*
X109257829Y-119860589D01*
X109229500Y-120039448D01*
X109229500Y-120220551D01*
X109257829Y-120399410D01*
X109313787Y-120571636D01*
X109313788Y-120571639D01*
X109396006Y-120732997D01*
X109502441Y-120879494D01*
X109502445Y-120879499D01*
X109630500Y-121007554D01*
X109630505Y-121007558D01*
X109702550Y-121059901D01*
X109777006Y-121113996D01*
X109882484Y-121167740D01*
X109938360Y-121196211D01*
X109938363Y-121196212D01*
X110024476Y-121224191D01*
X110110591Y-121252171D01*
X110183639Y-121263740D01*
X110270678Y-121277527D01*
X110333813Y-121307456D01*
X110370744Y-121366768D01*
X110369746Y-121436631D01*
X110331136Y-121494863D01*
X110270678Y-121522473D01*
X110110589Y-121547829D01*
X109938363Y-121603787D01*
X109938360Y-121603788D01*
X109777002Y-121686006D01*
X109630505Y-121792441D01*
X109630500Y-121792445D01*
X109502445Y-121920500D01*
X109502441Y-121920505D01*
X109396006Y-122067002D01*
X109313788Y-122228360D01*
X109313787Y-122228363D01*
X109257829Y-122400589D01*
X109229500Y-122579448D01*
X109229500Y-122760551D01*
X109257829Y-122939410D01*
X109313787Y-123111636D01*
X109313788Y-123111639D01*
X109396006Y-123272997D01*
X109502441Y-123419494D01*
X109502445Y-123419499D01*
X109630500Y-123547554D01*
X109630505Y-123547558D01*
X109702550Y-123599901D01*
X109777006Y-123653996D01*
X109882484Y-123707740D01*
X109938360Y-123736211D01*
X109938363Y-123736212D01*
X110024476Y-123764191D01*
X110110591Y-123792171D01*
X110183639Y-123803740D01*
X110270678Y-123817527D01*
X110333813Y-123847456D01*
X110370744Y-123906768D01*
X110369746Y-123976631D01*
X110331136Y-124034863D01*
X110270678Y-124062473D01*
X110110589Y-124087829D01*
X109938363Y-124143787D01*
X109938360Y-124143788D01*
X109777002Y-124226006D01*
X109630505Y-124332441D01*
X109630500Y-124332445D01*
X109502445Y-124460500D01*
X109502441Y-124460505D01*
X109396006Y-124607002D01*
X109313788Y-124768360D01*
X109313787Y-124768363D01*
X109257829Y-124940589D01*
X109229500Y-125119448D01*
X109229500Y-125300551D01*
X109257829Y-125479410D01*
X109313787Y-125651636D01*
X109313788Y-125651639D01*
X109396006Y-125812997D01*
X109502441Y-125959494D01*
X109502445Y-125959499D01*
X109630500Y-126087554D01*
X109630505Y-126087558D01*
X109758287Y-126180396D01*
X109777006Y-126193996D01*
X109882484Y-126247740D01*
X109938360Y-126276211D01*
X109938363Y-126276212D01*
X110024476Y-126304191D01*
X110110591Y-126332171D01*
X110193429Y-126345291D01*
X110289449Y-126360500D01*
X110289454Y-126360500D01*
X110470551Y-126360500D01*
X110557259Y-126346765D01*
X110649409Y-126332171D01*
X110821639Y-126276211D01*
X110982994Y-126193996D01*
X111129501Y-126087553D01*
X111257553Y-125959501D01*
X111363996Y-125812994D01*
X111446211Y-125651639D01*
X111502171Y-125479409D01*
X111516765Y-125387259D01*
X111530500Y-125300551D01*
X111530500Y-125119448D01*
X111514019Y-125015397D01*
X111502171Y-124940591D01*
X111464387Y-124824303D01*
X111446212Y-124768363D01*
X111446211Y-124768360D01*
X111402245Y-124682074D01*
X111363996Y-124607006D01*
X111286252Y-124500000D01*
X111257558Y-124460505D01*
X111257554Y-124460500D01*
X111129499Y-124332445D01*
X111129494Y-124332441D01*
X110982997Y-124226006D01*
X110982996Y-124226005D01*
X110982994Y-124226004D01*
X110898259Y-124182829D01*
X110821639Y-124143788D01*
X110821636Y-124143787D01*
X110649410Y-124087829D01*
X110489321Y-124062473D01*
X110426186Y-124032544D01*
X110389255Y-123973232D01*
X110390253Y-123903370D01*
X110428863Y-123845137D01*
X110489321Y-123817527D01*
X110559425Y-123806422D01*
X110649409Y-123792171D01*
X110821639Y-123736211D01*
X110982994Y-123653996D01*
X111129501Y-123547553D01*
X111257553Y-123419501D01*
X111363996Y-123272994D01*
X111446211Y-123111639D01*
X111502171Y-122939409D01*
X111520313Y-122824863D01*
X111530500Y-122760551D01*
X111530500Y-122579448D01*
X111509811Y-122448831D01*
X111502171Y-122400591D01*
X111446211Y-122228361D01*
X111446211Y-122228360D01*
X111417740Y-122172484D01*
X111363996Y-122067006D01*
X111286252Y-121960000D01*
X111257558Y-121920505D01*
X111257554Y-121920500D01*
X111129499Y-121792445D01*
X111129494Y-121792441D01*
X110982997Y-121686006D01*
X110982996Y-121686005D01*
X110982994Y-121686004D01*
X110918207Y-121652993D01*
X110821639Y-121603788D01*
X110821636Y-121603787D01*
X110649410Y-121547829D01*
X110489321Y-121522473D01*
X110426186Y-121492544D01*
X110389255Y-121433232D01*
X110390253Y-121363370D01*
X110428863Y-121305137D01*
X110489321Y-121277527D01*
X110559425Y-121266422D01*
X110649409Y-121252171D01*
X110821639Y-121196211D01*
X110982994Y-121113996D01*
X111129501Y-121007553D01*
X111257553Y-120879501D01*
X111363996Y-120732994D01*
X111446211Y-120571639D01*
X111502171Y-120399409D01*
X111516765Y-120307259D01*
X111530500Y-120220551D01*
X111530500Y-120039448D01*
X111514019Y-119935397D01*
X111502171Y-119860591D01*
X111450026Y-119700103D01*
X111446212Y-119688363D01*
X111446211Y-119688360D01*
X111404444Y-119606390D01*
X111363996Y-119527006D01*
X111337339Y-119490315D01*
X111257558Y-119380505D01*
X111257554Y-119380500D01*
X111129499Y-119252445D01*
X111129494Y-119252441D01*
X110982997Y-119146006D01*
X110982996Y-119146005D01*
X110982994Y-119146004D01*
X110931300Y-119119664D01*
X110821639Y-119063788D01*
X110821636Y-119063787D01*
X110649410Y-119007829D01*
X110489321Y-118982473D01*
X110426186Y-118952544D01*
X110389255Y-118893232D01*
X110390253Y-118823370D01*
X110428863Y-118765137D01*
X110489321Y-118737527D01*
X110559425Y-118726422D01*
X110649409Y-118712171D01*
X110821639Y-118656211D01*
X110982994Y-118573996D01*
X111129501Y-118467553D01*
X111257553Y-118339501D01*
X111363996Y-118192994D01*
X111446211Y-118031639D01*
X111502171Y-117859409D01*
X111516765Y-117767259D01*
X111530500Y-117680551D01*
X111530500Y-117499448D01*
X111514019Y-117395397D01*
X111502171Y-117320591D01*
X111446211Y-117148361D01*
X111446211Y-117148360D01*
X111417740Y-117092484D01*
X111363996Y-116987006D01*
X111350396Y-116968287D01*
X111257558Y-116840505D01*
X111257554Y-116840500D01*
X111129499Y-116712445D01*
X111129494Y-116712441D01*
X110982997Y-116606006D01*
X110982996Y-116606005D01*
X110982994Y-116606004D01*
X110931300Y-116579664D01*
X110821639Y-116523788D01*
X110821636Y-116523787D01*
X110649410Y-116467829D01*
X110489321Y-116442473D01*
X110426186Y-116412544D01*
X110389255Y-116353232D01*
X110390253Y-116283370D01*
X110428863Y-116225137D01*
X110489321Y-116197527D01*
X110559425Y-116186422D01*
X110649409Y-116172171D01*
X110821639Y-116116211D01*
X110982994Y-116033996D01*
X111129501Y-115927553D01*
X111257553Y-115799501D01*
X111363996Y-115652994D01*
X111446211Y-115491639D01*
X111502171Y-115319409D01*
X111516765Y-115227259D01*
X111530500Y-115140551D01*
X111530500Y-114959448D01*
X111514019Y-114855397D01*
X111502171Y-114780591D01*
X111446211Y-114608361D01*
X111446211Y-114608360D01*
X111417740Y-114552484D01*
X111363996Y-114447006D01*
X111350396Y-114428287D01*
X111257558Y-114300505D01*
X111257554Y-114300500D01*
X111129499Y-114172445D01*
X111129494Y-114172441D01*
X110982997Y-114066006D01*
X110982996Y-114066005D01*
X110982994Y-114066004D01*
X110931300Y-114039664D01*
X110821639Y-113983788D01*
X110821636Y-113983787D01*
X110649410Y-113927829D01*
X110489321Y-113902473D01*
X110426186Y-113872544D01*
X110389255Y-113813232D01*
X110390253Y-113743370D01*
X110428863Y-113685137D01*
X110489321Y-113657527D01*
X110559425Y-113646422D01*
X110649409Y-113632171D01*
X110821639Y-113576211D01*
X110982994Y-113493996D01*
X111129501Y-113387553D01*
X111257553Y-113259501D01*
X111363996Y-113112994D01*
X111446211Y-112951639D01*
X111502171Y-112779409D01*
X111516765Y-112687259D01*
X111530500Y-112600551D01*
X111530500Y-112419448D01*
X111507413Y-112273690D01*
X111502171Y-112240591D01*
X111474191Y-112154476D01*
X111446212Y-112068363D01*
X111446211Y-112068360D01*
X111400595Y-111978836D01*
X111363996Y-111907006D01*
X111337558Y-111870617D01*
X111257558Y-111760505D01*
X111257554Y-111760500D01*
X111129499Y-111632445D01*
X111129494Y-111632441D01*
X110982997Y-111526006D01*
X110982996Y-111526005D01*
X110982994Y-111526004D01*
X110931300Y-111499664D01*
X110821639Y-111443788D01*
X110821636Y-111443787D01*
X110649410Y-111387829D01*
X110489321Y-111362473D01*
X110426186Y-111332544D01*
X110389255Y-111273232D01*
X110390253Y-111203370D01*
X110428863Y-111145137D01*
X110489321Y-111117527D01*
X110559425Y-111106422D01*
X110649409Y-111092171D01*
X110821639Y-111036211D01*
X110982994Y-110953996D01*
X111129501Y-110847553D01*
X111257553Y-110719501D01*
X111363996Y-110572994D01*
X111446211Y-110411639D01*
X111502171Y-110239409D01*
X111516765Y-110147259D01*
X111530500Y-110060551D01*
X111530500Y-109879448D01*
X111506417Y-109727402D01*
X111502171Y-109700591D01*
X111446211Y-109528361D01*
X111446211Y-109528360D01*
X111417740Y-109472484D01*
X111363996Y-109367006D01*
X111333113Y-109324499D01*
X111257558Y-109220505D01*
X111257554Y-109220500D01*
X111129499Y-109092445D01*
X111129494Y-109092441D01*
X110982997Y-108986006D01*
X110982996Y-108986005D01*
X110982994Y-108986004D01*
X110886364Y-108936768D01*
X110821639Y-108903788D01*
X110821636Y-108903787D01*
X110649410Y-108847829D01*
X110489321Y-108822473D01*
X110426186Y-108792544D01*
X110389255Y-108733232D01*
X110390253Y-108663370D01*
X110428863Y-108605137D01*
X110489321Y-108577527D01*
X110559425Y-108566422D01*
X110649409Y-108552171D01*
X110821639Y-108496211D01*
X110982994Y-108413996D01*
X111129501Y-108307553D01*
X111257553Y-108179501D01*
X111363996Y-108032994D01*
X111446211Y-107871639D01*
X111502171Y-107699409D01*
X111516765Y-107607259D01*
X111530500Y-107520551D01*
X111530500Y-107339448D01*
X111513166Y-107230009D01*
X111502171Y-107160591D01*
X111458635Y-107026598D01*
X111446212Y-106988363D01*
X111446211Y-106988360D01*
X111415450Y-106927989D01*
X111363996Y-106827006D01*
X111348309Y-106805415D01*
X111257558Y-106680505D01*
X111257554Y-106680500D01*
X111129499Y-106552445D01*
X111129494Y-106552441D01*
X110982997Y-106446006D01*
X110982996Y-106446005D01*
X110982994Y-106446004D01*
X110891551Y-106399411D01*
X110821639Y-106363788D01*
X110821636Y-106363787D01*
X110649410Y-106307829D01*
X110489321Y-106282473D01*
X110426186Y-106252544D01*
X110389255Y-106193232D01*
X110390253Y-106123370D01*
X110428863Y-106065137D01*
X110489321Y-106037527D01*
X110562569Y-106025925D01*
X110649409Y-106012171D01*
X110821639Y-105956211D01*
X110982994Y-105873996D01*
X111129501Y-105767553D01*
X111257553Y-105639501D01*
X111363996Y-105492994D01*
X111446211Y-105331639D01*
X111502171Y-105159409D01*
X111518397Y-105056961D01*
X111530500Y-104980551D01*
X111530500Y-104799448D01*
X111504489Y-104635228D01*
X111502171Y-104620591D01*
X111458635Y-104486598D01*
X111446212Y-104448363D01*
X111446211Y-104448360D01*
X111417740Y-104392484D01*
X111363996Y-104287006D01*
X111323958Y-104231898D01*
X111257558Y-104140505D01*
X111257554Y-104140500D01*
X111129499Y-104012445D01*
X111129494Y-104012441D01*
X110982997Y-103906006D01*
X110982996Y-103906005D01*
X110982994Y-103906004D01*
X110886364Y-103856768D01*
X110821639Y-103823788D01*
X110821636Y-103823787D01*
X110649410Y-103767829D01*
X110489321Y-103742473D01*
X110426186Y-103712544D01*
X110389255Y-103653232D01*
X110390253Y-103583370D01*
X110428863Y-103525137D01*
X110489321Y-103497527D01*
X110559425Y-103486422D01*
X110649409Y-103472171D01*
X110821639Y-103416211D01*
X110982994Y-103333996D01*
X111129501Y-103227553D01*
X111257553Y-103099501D01*
X111363996Y-102952994D01*
X111446211Y-102791639D01*
X111502171Y-102619409D01*
X111516765Y-102527259D01*
X111530500Y-102440551D01*
X111530500Y-102259448D01*
X111514019Y-102155397D01*
X111502171Y-102080591D01*
X111458635Y-101946598D01*
X111446212Y-101908363D01*
X111446211Y-101908360D01*
X111384942Y-101788115D01*
X111363996Y-101747006D01*
X111285272Y-101638651D01*
X111257558Y-101600505D01*
X111257554Y-101600500D01*
X111129499Y-101472445D01*
X111129494Y-101472441D01*
X110982997Y-101366006D01*
X110982996Y-101366005D01*
X110982994Y-101366004D01*
X110891551Y-101319411D01*
X110821639Y-101283788D01*
X110821636Y-101283787D01*
X110649410Y-101227829D01*
X110489321Y-101202473D01*
X110426186Y-101172544D01*
X110389255Y-101113232D01*
X110390253Y-101043370D01*
X110428863Y-100985137D01*
X110489321Y-100957527D01*
X110562569Y-100945925D01*
X110649409Y-100932171D01*
X110821639Y-100876211D01*
X110982994Y-100793996D01*
X111129501Y-100687553D01*
X111257553Y-100559501D01*
X111363996Y-100412994D01*
X111446211Y-100251639D01*
X111502171Y-100079409D01*
X111517916Y-99980000D01*
X111530500Y-99900551D01*
X111530500Y-99719448D01*
X111514019Y-99615397D01*
X111502171Y-99540591D01*
X111446211Y-99368361D01*
X111446211Y-99368360D01*
X111417740Y-99312484D01*
X111363996Y-99207006D01*
X111350396Y-99188287D01*
X111257558Y-99060505D01*
X111257554Y-99060500D01*
X111129499Y-98932445D01*
X111129494Y-98932441D01*
X110982997Y-98826006D01*
X110982996Y-98826005D01*
X110982994Y-98826004D01*
X110886364Y-98776768D01*
X110821639Y-98743788D01*
X110821636Y-98743787D01*
X110649410Y-98687829D01*
X110489321Y-98662473D01*
X110426186Y-98632544D01*
X110389255Y-98573232D01*
X110390253Y-98503370D01*
X110428863Y-98445137D01*
X110489321Y-98417527D01*
X110559425Y-98406422D01*
X110649409Y-98392171D01*
X110821639Y-98336211D01*
X110982994Y-98253996D01*
X111129501Y-98147553D01*
X111257553Y-98019501D01*
X111363996Y-97872994D01*
X111446211Y-97711639D01*
X111502171Y-97539409D01*
X111516765Y-97447259D01*
X111530500Y-97360551D01*
X111530500Y-97179448D01*
X111509205Y-97045002D01*
X111502171Y-97000591D01*
X111458635Y-96866598D01*
X111446212Y-96828363D01*
X111446211Y-96828360D01*
X111417740Y-96772484D01*
X111363996Y-96667006D01*
X111350396Y-96648287D01*
X111257558Y-96520505D01*
X111257554Y-96520500D01*
X111129499Y-96392445D01*
X111129494Y-96392441D01*
X110982997Y-96286006D01*
X110982996Y-96286005D01*
X110982994Y-96286004D01*
X110891551Y-96239411D01*
X110821639Y-96203788D01*
X110821636Y-96203787D01*
X110649410Y-96147829D01*
X110489321Y-96122473D01*
X110426186Y-96092544D01*
X110389255Y-96033232D01*
X110390253Y-95963370D01*
X110428863Y-95905137D01*
X110489321Y-95877527D01*
X110559425Y-95866422D01*
X110649409Y-95852171D01*
X110821639Y-95796211D01*
X110982994Y-95713996D01*
X111129501Y-95607553D01*
X111257553Y-95479501D01*
X111363996Y-95332994D01*
X111446211Y-95171639D01*
X111502171Y-94999409D01*
X111516765Y-94907259D01*
X111530500Y-94820551D01*
X111530500Y-94639448D01*
X111510190Y-94511221D01*
X111502171Y-94460591D01*
X111458635Y-94326598D01*
X111446212Y-94288363D01*
X111446211Y-94288360D01*
X111417740Y-94232484D01*
X111363996Y-94127006D01*
X111329936Y-94080126D01*
X111257558Y-93980505D01*
X111257554Y-93980500D01*
X111129499Y-93852445D01*
X111129494Y-93852441D01*
X110982997Y-93746006D01*
X110982996Y-93746005D01*
X110982994Y-93746004D01*
X110891551Y-93699411D01*
X110821639Y-93663788D01*
X110821636Y-93663787D01*
X110649410Y-93607829D01*
X110489321Y-93582473D01*
X110426186Y-93552544D01*
X110389255Y-93493232D01*
X110390253Y-93423370D01*
X110428863Y-93365137D01*
X110489321Y-93337527D01*
X110559425Y-93326422D01*
X110649409Y-93312171D01*
X110821639Y-93256211D01*
X110982994Y-93173996D01*
X111129501Y-93067553D01*
X111257553Y-92939501D01*
X111363996Y-92792994D01*
X111446211Y-92631639D01*
X111502171Y-92459409D01*
X111524655Y-92317452D01*
X111530500Y-92280551D01*
X111530500Y-92099448D01*
X111508025Y-91957553D01*
X111502171Y-91920591D01*
X111458635Y-91786598D01*
X111446212Y-91748363D01*
X111446211Y-91748360D01*
X111412905Y-91682994D01*
X111363996Y-91587006D01*
X111350396Y-91568287D01*
X111257558Y-91440505D01*
X111257554Y-91440500D01*
X111129499Y-91312445D01*
X111129494Y-91312441D01*
X110982997Y-91206006D01*
X110982996Y-91206005D01*
X110982994Y-91206004D01*
X110913414Y-91170551D01*
X110821639Y-91123788D01*
X110821636Y-91123787D01*
X110649410Y-91067829D01*
X110489321Y-91042473D01*
X110426186Y-91012544D01*
X110389255Y-90953232D01*
X110390253Y-90883370D01*
X110428863Y-90825137D01*
X110489321Y-90797527D01*
X110572128Y-90784411D01*
X110649409Y-90772171D01*
X110821639Y-90716211D01*
X110982994Y-90633996D01*
X111129501Y-90527553D01*
X111257553Y-90399501D01*
X111363996Y-90252994D01*
X111446211Y-90091639D01*
X111502171Y-89919409D01*
X111526435Y-89766212D01*
X111530500Y-89740551D01*
X111530500Y-89559448D01*
X111509430Y-89426422D01*
X111502171Y-89380591D01*
X111472575Y-89289501D01*
X111446212Y-89208363D01*
X111446211Y-89208360D01*
X111412905Y-89142994D01*
X111363996Y-89047006D01*
X111342753Y-89017767D01*
X111257558Y-88900505D01*
X111257554Y-88900500D01*
X111129499Y-88772445D01*
X111129494Y-88772441D01*
X110982997Y-88666006D01*
X110982996Y-88666005D01*
X110982994Y-88666004D01*
X110913414Y-88630551D01*
X110821639Y-88583788D01*
X110821636Y-88583787D01*
X110649410Y-88527829D01*
X110489321Y-88502473D01*
X110426186Y-88472544D01*
X110389255Y-88413232D01*
X110390253Y-88343370D01*
X110428863Y-88285137D01*
X110489321Y-88257527D01*
X110559425Y-88246422D01*
X110649409Y-88232171D01*
X110821639Y-88176211D01*
X110982994Y-88093996D01*
X111129501Y-87987553D01*
X111257553Y-87859501D01*
X111363996Y-87712994D01*
X111446211Y-87551639D01*
X111502171Y-87379409D01*
X111526946Y-87222987D01*
X111530500Y-87200551D01*
X111530500Y-87019448D01*
X111513568Y-86912552D01*
X111502171Y-86840591D01*
X111458635Y-86706598D01*
X111446212Y-86668363D01*
X111446211Y-86668360D01*
X111417740Y-86612484D01*
X111363996Y-86507006D01*
X111309022Y-86431340D01*
X111257558Y-86360505D01*
X111257554Y-86360500D01*
X111129499Y-86232445D01*
X111129494Y-86232441D01*
X110982997Y-86126006D01*
X110982996Y-86126005D01*
X110982994Y-86126004D01*
X110891551Y-86079411D01*
X110821639Y-86043788D01*
X110821636Y-86043787D01*
X110649410Y-85987829D01*
X110489321Y-85962473D01*
X110426186Y-85932544D01*
X110389255Y-85873232D01*
X110390253Y-85803370D01*
X110428863Y-85745137D01*
X110489321Y-85717527D01*
X110559425Y-85706422D01*
X110649409Y-85692171D01*
X110821639Y-85636211D01*
X110982994Y-85553996D01*
X111129501Y-85447553D01*
X111201716Y-85375338D01*
X111263039Y-85341853D01*
X111332731Y-85346837D01*
X111388664Y-85388709D01*
X111396784Y-85401019D01*
X111404315Y-85414063D01*
X111404317Y-85414065D01*
X124808917Y-98818665D01*
X124842402Y-98879988D01*
X124837418Y-98949680D01*
X124808918Y-98994026D01*
X124742445Y-99060499D01*
X124742441Y-99060505D01*
X124636006Y-99207002D01*
X124553788Y-99368360D01*
X124553787Y-99368363D01*
X124497829Y-99540589D01*
X124469500Y-99719448D01*
X124469500Y-99900551D01*
X124497829Y-100079410D01*
X124553787Y-100251636D01*
X124553788Y-100251639D01*
X124636006Y-100412997D01*
X124742441Y-100559494D01*
X124742445Y-100559499D01*
X124870500Y-100687554D01*
X124870505Y-100687558D01*
X124939522Y-100737701D01*
X125017006Y-100793996D01*
X125122484Y-100847740D01*
X125178360Y-100876211D01*
X125178363Y-100876212D01*
X125259102Y-100902445D01*
X125350591Y-100932171D01*
X125423639Y-100943740D01*
X125510678Y-100957527D01*
X125573813Y-100987456D01*
X125610744Y-101046768D01*
X125609746Y-101116631D01*
X125571136Y-101174863D01*
X125510678Y-101202473D01*
X125350589Y-101227829D01*
X125178363Y-101283787D01*
X125178360Y-101283788D01*
X125017002Y-101366006D01*
X124870505Y-101472441D01*
X124870500Y-101472445D01*
X124742445Y-101600500D01*
X124742441Y-101600505D01*
X124636006Y-101747002D01*
X124553788Y-101908360D01*
X124553787Y-101908363D01*
X124497829Y-102080589D01*
X124469500Y-102259448D01*
X124469500Y-102440551D01*
X124497829Y-102619410D01*
X124553787Y-102791636D01*
X124553788Y-102791639D01*
X124636006Y-102952997D01*
X124742441Y-103099494D01*
X124742445Y-103099499D01*
X124870500Y-103227554D01*
X124870505Y-103227558D01*
X124939522Y-103277701D01*
X125017006Y-103333996D01*
X125122484Y-103387740D01*
X125178360Y-103416211D01*
X125178363Y-103416212D01*
X125259102Y-103442445D01*
X125350591Y-103472171D01*
X125423639Y-103483740D01*
X125510678Y-103497527D01*
X125573813Y-103527456D01*
X125610744Y-103586768D01*
X125609746Y-103656631D01*
X125571136Y-103714863D01*
X125510678Y-103742473D01*
X125350589Y-103767829D01*
X125178363Y-103823787D01*
X125178360Y-103823788D01*
X125017002Y-103906006D01*
X124870505Y-104012441D01*
X124870500Y-104012445D01*
X124742445Y-104140500D01*
X124742441Y-104140505D01*
X124636006Y-104287002D01*
X124553788Y-104448360D01*
X124553787Y-104448363D01*
X124497829Y-104620589D01*
X124469500Y-104799448D01*
X124469500Y-104980551D01*
X124497829Y-105159410D01*
X124553787Y-105331636D01*
X124553788Y-105331639D01*
X124603239Y-105428689D01*
X124628103Y-105477488D01*
X124636006Y-105492997D01*
X124742441Y-105639494D01*
X124742445Y-105639499D01*
X124870500Y-105767554D01*
X124870505Y-105767558D01*
X124979078Y-105846440D01*
X125017006Y-105873996D01*
X125094682Y-105913574D01*
X125178360Y-105956211D01*
X125178363Y-105956212D01*
X125259102Y-105982445D01*
X125350591Y-106012171D01*
X125423639Y-106023740D01*
X125510678Y-106037527D01*
X125573813Y-106067456D01*
X125610744Y-106126768D01*
X125609746Y-106196631D01*
X125571136Y-106254863D01*
X125510678Y-106282473D01*
X125350589Y-106307829D01*
X125178363Y-106363787D01*
X125178360Y-106363788D01*
X125017002Y-106446006D01*
X124870505Y-106552441D01*
X124870500Y-106552445D01*
X124742445Y-106680500D01*
X124742441Y-106680505D01*
X124636006Y-106827002D01*
X124553788Y-106988360D01*
X124553787Y-106988363D01*
X124497829Y-107160589D01*
X124469500Y-107339448D01*
X124469500Y-107520551D01*
X124497829Y-107699410D01*
X124553787Y-107871636D01*
X124553788Y-107871639D01*
X124636006Y-108032997D01*
X124742441Y-108179494D01*
X124742445Y-108179499D01*
X124870500Y-108307554D01*
X124870505Y-108307558D01*
X124939522Y-108357701D01*
X125017006Y-108413996D01*
X125122484Y-108467740D01*
X125178360Y-108496211D01*
X125178363Y-108496212D01*
X125259102Y-108522445D01*
X125350591Y-108552171D01*
X125423639Y-108563740D01*
X125510678Y-108577527D01*
X125573813Y-108607456D01*
X125610744Y-108666768D01*
X125609746Y-108736631D01*
X125571136Y-108794863D01*
X125510678Y-108822473D01*
X125350589Y-108847829D01*
X125178363Y-108903787D01*
X125178360Y-108903788D01*
X125017002Y-108986006D01*
X124870505Y-109092441D01*
X124870500Y-109092445D01*
X124742445Y-109220500D01*
X124742441Y-109220505D01*
X124636006Y-109367002D01*
X124553788Y-109528360D01*
X124553787Y-109528363D01*
X124497829Y-109700589D01*
X124469500Y-109879448D01*
X124469500Y-110060551D01*
X124497829Y-110239410D01*
X124553787Y-110411636D01*
X124553788Y-110411639D01*
X124636006Y-110572997D01*
X124742441Y-110719494D01*
X124742445Y-110719499D01*
X124870500Y-110847554D01*
X124870505Y-110847558D01*
X124998287Y-110940396D01*
X125017006Y-110953996D01*
X125122484Y-111007740D01*
X125178360Y-111036211D01*
X125178363Y-111036212D01*
X125264476Y-111064191D01*
X125350591Y-111092171D01*
X125423639Y-111103740D01*
X125510678Y-111117527D01*
X125573813Y-111147456D01*
X125610744Y-111206768D01*
X125609746Y-111276631D01*
X125571136Y-111334863D01*
X125510678Y-111362473D01*
X125350589Y-111387829D01*
X125178363Y-111443787D01*
X125178360Y-111443788D01*
X125017002Y-111526006D01*
X124870505Y-111632441D01*
X124870500Y-111632445D01*
X124742445Y-111760500D01*
X124742441Y-111760505D01*
X124636006Y-111907002D01*
X124553788Y-112068360D01*
X124553787Y-112068363D01*
X124497829Y-112240589D01*
X124469500Y-112419448D01*
X124469500Y-112600551D01*
X124497829Y-112779410D01*
X124553787Y-112951636D01*
X124553788Y-112951639D01*
X124636006Y-113112997D01*
X124742441Y-113259494D01*
X124742445Y-113259499D01*
X124870500Y-113387554D01*
X124870505Y-113387558D01*
X124998287Y-113480396D01*
X125017006Y-113493996D01*
X125122484Y-113547740D01*
X125178360Y-113576211D01*
X125178363Y-113576212D01*
X125264476Y-113604191D01*
X125350591Y-113632171D01*
X125423639Y-113643740D01*
X125510678Y-113657527D01*
X125573813Y-113687456D01*
X125610744Y-113746768D01*
X125609746Y-113816631D01*
X125571136Y-113874863D01*
X125510678Y-113902473D01*
X125350589Y-113927829D01*
X125178363Y-113983787D01*
X125178360Y-113983788D01*
X125017002Y-114066006D01*
X124870505Y-114172441D01*
X124870500Y-114172445D01*
X124742445Y-114300500D01*
X124742441Y-114300505D01*
X124636006Y-114447002D01*
X124553788Y-114608360D01*
X124553787Y-114608363D01*
X124497829Y-114780589D01*
X124469500Y-114959448D01*
X124469500Y-115140551D01*
X124497829Y-115319410D01*
X124553787Y-115491636D01*
X124553788Y-115491639D01*
X124636006Y-115652997D01*
X124742441Y-115799494D01*
X124742445Y-115799499D01*
X124870500Y-115927554D01*
X124870505Y-115927558D01*
X124998287Y-116020396D01*
X125017006Y-116033996D01*
X125122484Y-116087740D01*
X125178360Y-116116211D01*
X125178363Y-116116212D01*
X125264476Y-116144191D01*
X125350591Y-116172171D01*
X125423639Y-116183740D01*
X125510678Y-116197527D01*
X125573813Y-116227456D01*
X125610744Y-116286768D01*
X125609746Y-116356631D01*
X125571136Y-116414863D01*
X125510678Y-116442473D01*
X125350589Y-116467829D01*
X125178363Y-116523787D01*
X125178360Y-116523788D01*
X125017002Y-116606006D01*
X124870505Y-116712441D01*
X124870500Y-116712445D01*
X124742445Y-116840500D01*
X124742441Y-116840505D01*
X124636006Y-116987002D01*
X124553788Y-117148360D01*
X124553787Y-117148363D01*
X124497829Y-117320589D01*
X124469500Y-117499448D01*
X124469500Y-117680551D01*
X124497829Y-117859410D01*
X124553787Y-118031636D01*
X124553788Y-118031639D01*
X124636006Y-118192997D01*
X124742441Y-118339494D01*
X124742445Y-118339499D01*
X124870500Y-118467554D01*
X124870505Y-118467558D01*
X124998287Y-118560396D01*
X125017006Y-118573996D01*
X125122484Y-118627740D01*
X125178360Y-118656211D01*
X125178363Y-118656212D01*
X125264476Y-118684191D01*
X125350591Y-118712171D01*
X125423639Y-118723740D01*
X125510678Y-118737527D01*
X125573813Y-118767456D01*
X125610744Y-118826768D01*
X125609746Y-118896631D01*
X125571136Y-118954863D01*
X125510678Y-118982473D01*
X125350589Y-119007829D01*
X125178363Y-119063787D01*
X125178360Y-119063788D01*
X125017002Y-119146006D01*
X124870505Y-119252441D01*
X124870500Y-119252445D01*
X124742445Y-119380500D01*
X124742441Y-119380505D01*
X124636006Y-119527002D01*
X124553788Y-119688360D01*
X124553787Y-119688363D01*
X124497829Y-119860589D01*
X124469500Y-120039448D01*
X124469500Y-120220551D01*
X124497829Y-120399410D01*
X124553787Y-120571636D01*
X124553788Y-120571639D01*
X124636006Y-120732997D01*
X124742441Y-120879494D01*
X124742445Y-120879499D01*
X124870500Y-121007554D01*
X124870505Y-121007558D01*
X124942550Y-121059901D01*
X125017006Y-121113996D01*
X125122484Y-121167740D01*
X125178360Y-121196211D01*
X125178363Y-121196212D01*
X125264476Y-121224191D01*
X125350591Y-121252171D01*
X125423639Y-121263740D01*
X125510678Y-121277527D01*
X125573813Y-121307456D01*
X125610744Y-121366768D01*
X125609746Y-121436631D01*
X125571136Y-121494863D01*
X125510678Y-121522473D01*
X125350589Y-121547829D01*
X125178363Y-121603787D01*
X125178360Y-121603788D01*
X125017002Y-121686006D01*
X124870505Y-121792441D01*
X124870500Y-121792445D01*
X124742445Y-121920500D01*
X124742441Y-121920505D01*
X124636006Y-122067002D01*
X124553788Y-122228360D01*
X124553787Y-122228363D01*
X124497829Y-122400589D01*
X124469500Y-122579448D01*
X124469500Y-122760551D01*
X124497829Y-122939410D01*
X124553787Y-123111636D01*
X124553788Y-123111639D01*
X124636006Y-123272997D01*
X124742441Y-123419494D01*
X124742445Y-123419499D01*
X124870500Y-123547554D01*
X124870505Y-123547558D01*
X124942550Y-123599901D01*
X125017006Y-123653996D01*
X125122484Y-123707740D01*
X125178360Y-123736211D01*
X125178363Y-123736212D01*
X125264476Y-123764191D01*
X125350591Y-123792171D01*
X125423639Y-123803740D01*
X125510678Y-123817527D01*
X125573813Y-123847456D01*
X125610744Y-123906768D01*
X125609746Y-123976631D01*
X125571136Y-124034863D01*
X125510678Y-124062473D01*
X125350589Y-124087829D01*
X125178363Y-124143787D01*
X125178360Y-124143788D01*
X125017002Y-124226006D01*
X124870505Y-124332441D01*
X124870500Y-124332445D01*
X124742445Y-124460500D01*
X124742441Y-124460505D01*
X124636006Y-124607002D01*
X124553788Y-124768360D01*
X124553787Y-124768363D01*
X124497829Y-124940589D01*
X124469500Y-125119448D01*
X124469500Y-125300551D01*
X124497829Y-125479410D01*
X124553787Y-125651636D01*
X124553788Y-125651639D01*
X124636006Y-125812997D01*
X124742441Y-125959494D01*
X124742445Y-125959499D01*
X124870500Y-126087554D01*
X124870505Y-126087558D01*
X124998287Y-126180396D01*
X125017006Y-126193996D01*
X125122484Y-126247740D01*
X125178360Y-126276211D01*
X125178363Y-126276212D01*
X125264476Y-126304191D01*
X125350591Y-126332171D01*
X125433429Y-126345291D01*
X125529449Y-126360500D01*
X125529454Y-126360500D01*
X125710551Y-126360500D01*
X125797259Y-126346765D01*
X125889409Y-126332171D01*
X126061639Y-126276211D01*
X126222994Y-126193996D01*
X126369501Y-126087553D01*
X126497553Y-125959501D01*
X126603996Y-125812994D01*
X126686211Y-125651639D01*
X126742171Y-125479409D01*
X126756765Y-125387259D01*
X126770500Y-125300551D01*
X126770500Y-125119448D01*
X126754019Y-125015397D01*
X126742171Y-124940591D01*
X126704387Y-124824303D01*
X126686212Y-124768363D01*
X126686211Y-124768360D01*
X126642245Y-124682074D01*
X126603996Y-124607006D01*
X126526252Y-124500000D01*
X126497558Y-124460505D01*
X126497554Y-124460500D01*
X126369499Y-124332445D01*
X126369494Y-124332441D01*
X126222997Y-124226006D01*
X126222996Y-124226005D01*
X126222994Y-124226004D01*
X126138259Y-124182829D01*
X126061639Y-124143788D01*
X126061636Y-124143787D01*
X125889410Y-124087829D01*
X125729321Y-124062473D01*
X125666186Y-124032544D01*
X125629255Y-123973232D01*
X125630253Y-123903370D01*
X125668863Y-123845137D01*
X125729321Y-123817527D01*
X125799425Y-123806422D01*
X125889409Y-123792171D01*
X126061639Y-123736211D01*
X126222994Y-123653996D01*
X126369501Y-123547553D01*
X126497553Y-123419501D01*
X126603996Y-123272994D01*
X126686211Y-123111639D01*
X126742171Y-122939409D01*
X126760313Y-122824863D01*
X126770500Y-122760551D01*
X126770500Y-122579448D01*
X126749811Y-122448831D01*
X126742171Y-122400591D01*
X126686211Y-122228361D01*
X126686211Y-122228360D01*
X126657740Y-122172484D01*
X126603996Y-122067006D01*
X126526252Y-121960000D01*
X126497558Y-121920505D01*
X126497554Y-121920500D01*
X126369499Y-121792445D01*
X126369494Y-121792441D01*
X126222997Y-121686006D01*
X126222996Y-121686005D01*
X126222994Y-121686004D01*
X126158207Y-121652993D01*
X126061639Y-121603788D01*
X126061636Y-121603787D01*
X125889410Y-121547829D01*
X125729321Y-121522473D01*
X125666186Y-121492544D01*
X125629255Y-121433232D01*
X125630253Y-121363370D01*
X125668863Y-121305137D01*
X125729321Y-121277527D01*
X125799425Y-121266422D01*
X125889409Y-121252171D01*
X126061639Y-121196211D01*
X126222994Y-121113996D01*
X126369501Y-121007553D01*
X126497553Y-120879501D01*
X126603996Y-120732994D01*
X126686211Y-120571639D01*
X126742171Y-120399409D01*
X126756765Y-120307259D01*
X126770500Y-120220551D01*
X126770500Y-120039448D01*
X126754019Y-119935397D01*
X126742171Y-119860591D01*
X126690026Y-119700103D01*
X126686212Y-119688363D01*
X126686211Y-119688360D01*
X126644444Y-119606390D01*
X126603996Y-119527006D01*
X126577339Y-119490315D01*
X126497558Y-119380505D01*
X126497554Y-119380500D01*
X126369499Y-119252445D01*
X126369494Y-119252441D01*
X126222997Y-119146006D01*
X126222996Y-119146005D01*
X126222994Y-119146004D01*
X126171300Y-119119664D01*
X126061639Y-119063788D01*
X126061636Y-119063787D01*
X125889410Y-119007829D01*
X125729321Y-118982473D01*
X125666186Y-118952544D01*
X125629255Y-118893232D01*
X125630253Y-118823370D01*
X125668863Y-118765137D01*
X125729321Y-118737527D01*
X125799425Y-118726422D01*
X125889409Y-118712171D01*
X126061639Y-118656211D01*
X126222994Y-118573996D01*
X126369501Y-118467553D01*
X126497553Y-118339501D01*
X126603996Y-118192994D01*
X126686211Y-118031639D01*
X126742171Y-117859409D01*
X126756765Y-117767259D01*
X126770500Y-117680551D01*
X126770500Y-117499448D01*
X126754019Y-117395397D01*
X126742171Y-117320591D01*
X126686211Y-117148361D01*
X126686211Y-117148360D01*
X126657740Y-117092484D01*
X126603996Y-116987006D01*
X126590396Y-116968287D01*
X126497558Y-116840505D01*
X126497554Y-116840500D01*
X126369499Y-116712445D01*
X126369494Y-116712441D01*
X126222997Y-116606006D01*
X126222996Y-116606005D01*
X126222994Y-116606004D01*
X126171300Y-116579664D01*
X126061639Y-116523788D01*
X126061636Y-116523787D01*
X125889410Y-116467829D01*
X125729321Y-116442473D01*
X125666186Y-116412544D01*
X125629255Y-116353232D01*
X125630253Y-116283370D01*
X125668863Y-116225137D01*
X125729321Y-116197527D01*
X125799425Y-116186422D01*
X125889409Y-116172171D01*
X126061639Y-116116211D01*
X126222994Y-116033996D01*
X126369501Y-115927553D01*
X126497553Y-115799501D01*
X126603996Y-115652994D01*
X126686211Y-115491639D01*
X126742171Y-115319409D01*
X126756765Y-115227259D01*
X126770500Y-115140551D01*
X126770500Y-114959448D01*
X126754019Y-114855397D01*
X126742171Y-114780591D01*
X126686211Y-114608361D01*
X126686211Y-114608360D01*
X126657740Y-114552484D01*
X126603996Y-114447006D01*
X126590396Y-114428287D01*
X126497558Y-114300505D01*
X126497554Y-114300500D01*
X126369499Y-114172445D01*
X126369494Y-114172441D01*
X126222997Y-114066006D01*
X126222996Y-114066005D01*
X126222994Y-114066004D01*
X126171300Y-114039664D01*
X126061639Y-113983788D01*
X126061636Y-113983787D01*
X125889410Y-113927829D01*
X125729321Y-113902473D01*
X125666186Y-113872544D01*
X125629255Y-113813232D01*
X125630253Y-113743370D01*
X125668863Y-113685137D01*
X125729321Y-113657527D01*
X125799425Y-113646422D01*
X125889409Y-113632171D01*
X126061639Y-113576211D01*
X126222994Y-113493996D01*
X126369501Y-113387553D01*
X126497553Y-113259501D01*
X126603996Y-113112994D01*
X126686211Y-112951639D01*
X126742171Y-112779409D01*
X126756765Y-112687259D01*
X126770500Y-112600551D01*
X126770500Y-112419448D01*
X126747413Y-112273690D01*
X126742171Y-112240591D01*
X126714191Y-112154476D01*
X126686212Y-112068363D01*
X126686211Y-112068360D01*
X126640595Y-111978836D01*
X126603996Y-111907006D01*
X126577558Y-111870617D01*
X126497558Y-111760505D01*
X126497554Y-111760500D01*
X126369499Y-111632445D01*
X126369494Y-111632441D01*
X126222997Y-111526006D01*
X126222996Y-111526005D01*
X126222994Y-111526004D01*
X126171300Y-111499664D01*
X126061639Y-111443788D01*
X126061636Y-111443787D01*
X125889410Y-111387829D01*
X125729321Y-111362473D01*
X125666186Y-111332544D01*
X125629255Y-111273232D01*
X125630253Y-111203370D01*
X125668863Y-111145137D01*
X125729321Y-111117527D01*
X125799425Y-111106422D01*
X125889409Y-111092171D01*
X126061639Y-111036211D01*
X126222994Y-110953996D01*
X126369501Y-110847553D01*
X126497553Y-110719501D01*
X126603996Y-110572994D01*
X126686211Y-110411639D01*
X126742171Y-110239409D01*
X126756765Y-110147259D01*
X126770500Y-110060551D01*
X126770500Y-109879448D01*
X126746417Y-109727402D01*
X126742171Y-109700591D01*
X126686211Y-109528361D01*
X126686211Y-109528360D01*
X126657740Y-109472484D01*
X126603996Y-109367006D01*
X126573113Y-109324499D01*
X126497558Y-109220505D01*
X126497554Y-109220500D01*
X126369499Y-109092445D01*
X126369494Y-109092441D01*
X126222997Y-108986006D01*
X126222996Y-108986005D01*
X126222994Y-108986004D01*
X126126364Y-108936768D01*
X126061639Y-108903788D01*
X126061636Y-108903787D01*
X125889410Y-108847829D01*
X125729321Y-108822473D01*
X125666186Y-108792544D01*
X125629255Y-108733232D01*
X125630253Y-108663370D01*
X125668863Y-108605137D01*
X125729321Y-108577527D01*
X125799425Y-108566422D01*
X125889409Y-108552171D01*
X126061639Y-108496211D01*
X126222994Y-108413996D01*
X126369501Y-108307553D01*
X126497553Y-108179501D01*
X126603996Y-108032994D01*
X126686211Y-107871639D01*
X126742171Y-107699409D01*
X126756765Y-107607259D01*
X126770500Y-107520551D01*
X126770500Y-107339448D01*
X126753166Y-107230009D01*
X126742171Y-107160591D01*
X126698635Y-107026598D01*
X126686212Y-106988363D01*
X126686211Y-106988360D01*
X126655450Y-106927989D01*
X126603996Y-106827006D01*
X126588309Y-106805415D01*
X126497558Y-106680505D01*
X126497554Y-106680500D01*
X126369499Y-106552445D01*
X126369494Y-106552441D01*
X126222997Y-106446006D01*
X126222996Y-106446005D01*
X126222994Y-106446004D01*
X126131551Y-106399411D01*
X126061639Y-106363788D01*
X126061636Y-106363787D01*
X125889410Y-106307829D01*
X125729321Y-106282473D01*
X125666186Y-106252544D01*
X125629255Y-106193232D01*
X125630253Y-106123370D01*
X125668863Y-106065137D01*
X125729321Y-106037527D01*
X125802569Y-106025925D01*
X125889409Y-106012171D01*
X126061639Y-105956211D01*
X126222994Y-105873996D01*
X126369501Y-105767553D01*
X126497553Y-105639501D01*
X126603996Y-105492994D01*
X126686211Y-105331639D01*
X126742171Y-105159409D01*
X126758397Y-105056961D01*
X126770500Y-104980551D01*
X126770500Y-104799448D01*
X126744489Y-104635228D01*
X126742171Y-104620591D01*
X126698635Y-104486598D01*
X126686212Y-104448363D01*
X126686211Y-104448360D01*
X126657740Y-104392484D01*
X126603996Y-104287006D01*
X126563958Y-104231898D01*
X126497558Y-104140505D01*
X126497554Y-104140500D01*
X126369499Y-104012445D01*
X126369494Y-104012441D01*
X126222997Y-103906006D01*
X126222996Y-103906005D01*
X126222994Y-103906004D01*
X126126364Y-103856768D01*
X126061639Y-103823788D01*
X126061636Y-103823787D01*
X125889410Y-103767829D01*
X125729321Y-103742473D01*
X125666186Y-103712544D01*
X125629255Y-103653232D01*
X125630253Y-103583370D01*
X125668863Y-103525137D01*
X125729321Y-103497527D01*
X125799425Y-103486422D01*
X125889409Y-103472171D01*
X126061639Y-103416211D01*
X126222994Y-103333996D01*
X126369501Y-103227553D01*
X126497553Y-103099501D01*
X126603996Y-102952994D01*
X126686211Y-102791639D01*
X126742171Y-102619409D01*
X126756765Y-102527259D01*
X126770500Y-102440551D01*
X126770500Y-102259448D01*
X126754019Y-102155397D01*
X126742171Y-102080591D01*
X126698635Y-101946598D01*
X126686212Y-101908363D01*
X126686211Y-101908360D01*
X126624942Y-101788115D01*
X126603996Y-101747006D01*
X126525272Y-101638651D01*
X126497558Y-101600505D01*
X126497554Y-101600500D01*
X126369499Y-101472445D01*
X126369494Y-101472441D01*
X126222997Y-101366006D01*
X126222996Y-101366005D01*
X126222994Y-101366004D01*
X126131551Y-101319411D01*
X126061639Y-101283788D01*
X126061636Y-101283787D01*
X125889410Y-101227829D01*
X125729321Y-101202473D01*
X125666186Y-101172544D01*
X125629255Y-101113232D01*
X125630253Y-101043370D01*
X125668863Y-100985137D01*
X125729321Y-100957527D01*
X125802569Y-100945925D01*
X125889409Y-100932171D01*
X126061639Y-100876211D01*
X126222994Y-100793996D01*
X126369501Y-100687553D01*
X126497553Y-100559501D01*
X126603996Y-100412994D01*
X126686211Y-100251639D01*
X126731384Y-100112607D01*
X126770820Y-100054932D01*
X126835179Y-100027733D01*
X126904025Y-100039647D01*
X126936996Y-100063244D01*
X127005181Y-100131429D01*
X127038666Y-100192752D01*
X127041500Y-100219110D01*
X127041500Y-113578382D01*
X127041500Y-113690418D01*
X127070497Y-113798637D01*
X127126515Y-113895663D01*
X138784715Y-125553863D01*
X138863937Y-125633085D01*
X138960963Y-125689103D01*
X139069182Y-125718100D01*
X139069184Y-125718100D01*
X148923416Y-125718100D01*
X148923418Y-125718100D01*
X149031637Y-125689103D01*
X149128663Y-125633085D01*
X149647404Y-125114342D01*
X149708725Y-125080859D01*
X149773399Y-125084093D01*
X149828294Y-125101929D01*
X149890590Y-125122171D01*
X150069449Y-125150500D01*
X150069454Y-125150500D01*
X150250551Y-125150500D01*
X150337259Y-125136765D01*
X150429409Y-125122171D01*
X150601639Y-125066211D01*
X150762994Y-124983996D01*
X150909501Y-124877553D01*
X151037553Y-124749501D01*
X151143996Y-124602994D01*
X151226211Y-124441639D01*
X151282171Y-124269409D01*
X151307780Y-124107720D01*
X151337709Y-124044585D01*
X151397021Y-124007654D01*
X151466883Y-124008652D01*
X151525116Y-124047262D01*
X151552726Y-124107720D01*
X151578317Y-124269293D01*
X151634251Y-124441444D01*
X151634252Y-124441447D01*
X151716431Y-124602730D01*
X151727913Y-124618532D01*
X151727913Y-124618533D01*
X152217037Y-124129409D01*
X152234075Y-124192993D01*
X152299901Y-124307007D01*
X152392993Y-124400099D01*
X152507007Y-124465925D01*
X152570590Y-124482962D01*
X152081466Y-124972085D01*
X152081466Y-124972086D01*
X152097267Y-124983566D01*
X152097275Y-124983571D01*
X152258552Y-125065747D01*
X152258555Y-125065748D01*
X152430706Y-125121682D01*
X152609494Y-125150000D01*
X152790506Y-125150000D01*
X152969293Y-125121682D01*
X153141444Y-125065748D01*
X153141452Y-125065745D01*
X153302730Y-124983568D01*
X153318532Y-124972085D01*
X153318533Y-124972085D01*
X152829410Y-124482962D01*
X152892993Y-124465925D01*
X153007007Y-124400099D01*
X153100099Y-124307007D01*
X153165925Y-124192993D01*
X153182962Y-124129409D01*
X153672085Y-124618532D01*
X153683568Y-124602730D01*
X153765745Y-124441452D01*
X153765748Y-124441444D01*
X153821682Y-124269293D01*
X153850000Y-124090506D01*
X153850000Y-123909493D01*
X153821682Y-123730706D01*
X153765748Y-123558555D01*
X153765747Y-123558552D01*
X153683571Y-123397275D01*
X153683566Y-123397267D01*
X153672085Y-123381466D01*
X153182962Y-123870589D01*
X153165925Y-123807007D01*
X153100099Y-123692993D01*
X153007007Y-123599901D01*
X152892993Y-123534075D01*
X152829409Y-123517037D01*
X153318533Y-123027913D01*
X153302730Y-123016431D01*
X153141447Y-122934252D01*
X153141444Y-122934251D01*
X152969293Y-122878317D01*
X152806120Y-122852473D01*
X152742985Y-122822544D01*
X152706054Y-122763232D01*
X152707052Y-122693370D01*
X152745662Y-122635137D01*
X152806120Y-122607527D01*
X152969293Y-122581682D01*
X153141444Y-122525748D01*
X153141452Y-122525745D01*
X153302730Y-122443568D01*
X153318532Y-122432085D01*
X153318533Y-122432085D01*
X152829410Y-121942962D01*
X152892993Y-121925925D01*
X153007007Y-121860099D01*
X153100099Y-121767007D01*
X153165925Y-121652993D01*
X153182962Y-121589409D01*
X153672085Y-122078532D01*
X153683568Y-122062730D01*
X153765745Y-121901452D01*
X153765748Y-121901444D01*
X153821682Y-121729293D01*
X153850000Y-121550506D01*
X153850000Y-121369493D01*
X153821682Y-121190706D01*
X153765748Y-121018555D01*
X153765747Y-121018552D01*
X153683571Y-120857275D01*
X153683566Y-120857267D01*
X153672085Y-120841466D01*
X153182962Y-121330589D01*
X153165925Y-121267007D01*
X153100099Y-121152993D01*
X153007007Y-121059901D01*
X152892993Y-120994075D01*
X152829409Y-120977037D01*
X153318533Y-120487913D01*
X153302730Y-120476431D01*
X153141447Y-120394252D01*
X153141444Y-120394251D01*
X152969293Y-120338317D01*
X152790506Y-120310000D01*
X152609494Y-120310000D01*
X152430706Y-120338317D01*
X152258555Y-120394251D01*
X152258547Y-120394254D01*
X152097269Y-120476432D01*
X152081466Y-120487912D01*
X152081466Y-120487913D01*
X152570591Y-120977037D01*
X152507007Y-120994075D01*
X152392993Y-121059901D01*
X152299901Y-121152993D01*
X152234075Y-121267007D01*
X152217037Y-121330590D01*
X151727913Y-120841466D01*
X151727912Y-120841466D01*
X151716432Y-120857269D01*
X151634254Y-121018547D01*
X151634251Y-121018555D01*
X151578317Y-121190706D01*
X151552473Y-121353879D01*
X151522544Y-121417014D01*
X151463232Y-121453945D01*
X151393370Y-121452947D01*
X151335137Y-121414337D01*
X151307527Y-121353879D01*
X151281682Y-121190706D01*
X151225748Y-121018555D01*
X151225747Y-121018552D01*
X151143571Y-120857275D01*
X151143566Y-120857267D01*
X151132085Y-120841466D01*
X150642962Y-121330589D01*
X150625925Y-121267007D01*
X150560099Y-121152993D01*
X150467007Y-121059901D01*
X150352993Y-120994075D01*
X150289409Y-120977037D01*
X150778533Y-120487913D01*
X150762730Y-120476431D01*
X150601447Y-120394252D01*
X150601444Y-120394251D01*
X150429293Y-120338317D01*
X150250506Y-120310000D01*
X150069494Y-120310000D01*
X149890706Y-120338317D01*
X149718555Y-120394251D01*
X149718547Y-120394254D01*
X149557269Y-120476432D01*
X149541466Y-120487912D01*
X149541466Y-120487913D01*
X150030591Y-120977037D01*
X149967007Y-120994075D01*
X149852993Y-121059901D01*
X149759901Y-121152993D01*
X149694075Y-121267007D01*
X149677037Y-121330590D01*
X149187913Y-120841466D01*
X149187912Y-120841466D01*
X149176432Y-120857269D01*
X149094254Y-121018547D01*
X149094251Y-121018555D01*
X149038317Y-121190706D01*
X149012726Y-121352279D01*
X148982797Y-121415414D01*
X148923485Y-121452345D01*
X148853622Y-121451347D01*
X148795390Y-121412737D01*
X148767780Y-121352279D01*
X148754274Y-121267007D01*
X148742171Y-121190591D01*
X148686273Y-121018552D01*
X148686212Y-121018363D01*
X148686211Y-121018360D01*
X148656474Y-120960000D01*
X148603996Y-120857006D01*
X148513899Y-120732997D01*
X148497558Y-120710505D01*
X148497554Y-120710500D01*
X148369499Y-120582445D01*
X148369494Y-120582441D01*
X148222997Y-120476006D01*
X148222996Y-120476005D01*
X148222994Y-120476004D01*
X148171300Y-120449664D01*
X148061639Y-120393788D01*
X148061636Y-120393787D01*
X147889410Y-120337829D01*
X147710551Y-120309500D01*
X147710546Y-120309500D01*
X147529454Y-120309500D01*
X147529449Y-120309500D01*
X147350589Y-120337829D01*
X147233402Y-120375905D01*
X147163560Y-120377900D01*
X147107403Y-120345655D01*
X146797419Y-120035671D01*
X146763934Y-119974348D01*
X146761100Y-119947990D01*
X146761100Y-109324499D01*
X146780785Y-109257460D01*
X146833589Y-109211705D01*
X146885095Y-109200499D01*
X148564864Y-109200499D01*
X148564879Y-109200497D01*
X148564882Y-109200497D01*
X148589987Y-109197586D01*
X148589988Y-109197585D01*
X148589991Y-109197585D01*
X148692765Y-109152206D01*
X148772206Y-109072765D01*
X148817585Y-108969991D01*
X148820500Y-108944865D01*
X148820499Y-107255136D01*
X148818533Y-107238181D01*
X148817586Y-107230012D01*
X148817585Y-107230010D01*
X148817585Y-107230009D01*
X148772206Y-107127235D01*
X148692765Y-107047794D01*
X148678295Y-107041405D01*
X148589992Y-107002415D01*
X148564865Y-106999500D01*
X146875143Y-106999500D01*
X146875117Y-106999502D01*
X146850012Y-107002413D01*
X146850008Y-107002415D01*
X146747235Y-107047793D01*
X146747234Y-107047794D01*
X146659669Y-107135360D01*
X146658664Y-107134355D01*
X146614180Y-107170664D01*
X146544759Y-107178567D01*
X146482085Y-107147683D01*
X146478331Y-107144083D01*
X144807637Y-105473389D01*
X146619500Y-105473389D01*
X146619500Y-105646611D01*
X146646598Y-105817701D01*
X146700065Y-105982255D01*
X146700128Y-105982447D01*
X146715273Y-106012171D01*
X146778768Y-106136788D01*
X146880586Y-106276928D01*
X147003072Y-106399414D01*
X147143212Y-106501232D01*
X147297555Y-106579873D01*
X147462299Y-106633402D01*
X147633389Y-106660500D01*
X147633390Y-106660500D01*
X147806610Y-106660500D01*
X147806611Y-106660500D01*
X147977701Y-106633402D01*
X148142445Y-106579873D01*
X148296788Y-106501232D01*
X148436928Y-106399414D01*
X148559414Y-106276928D01*
X148661232Y-106136788D01*
X148739873Y-105982445D01*
X148793402Y-105817701D01*
X148820500Y-105646611D01*
X148820500Y-105473389D01*
X148793402Y-105302299D01*
X148739873Y-105137555D01*
X148661232Y-104983212D01*
X148559414Y-104843072D01*
X148436928Y-104720586D01*
X148296788Y-104618768D01*
X148142445Y-104540127D01*
X147977701Y-104486598D01*
X147977699Y-104486597D01*
X147977698Y-104486597D01*
X147846271Y-104465781D01*
X147806611Y-104459500D01*
X147633389Y-104459500D01*
X147593728Y-104465781D01*
X147462302Y-104486597D01*
X147297552Y-104540128D01*
X147143211Y-104618768D01*
X147077109Y-104666795D01*
X147003072Y-104720586D01*
X147003070Y-104720588D01*
X147003069Y-104720588D01*
X146880588Y-104843069D01*
X146880588Y-104843070D01*
X146880586Y-104843072D01*
X146880350Y-104843397D01*
X146778768Y-104983211D01*
X146700128Y-105137552D01*
X146646597Y-105302302D01*
X146625148Y-105437731D01*
X146619500Y-105473389D01*
X144807637Y-105473389D01*
X142350446Y-103016198D01*
X142267637Y-102933389D01*
X146619500Y-102933389D01*
X146619500Y-103106611D01*
X146646598Y-103277701D01*
X146691603Y-103416212D01*
X146700128Y-103442447D01*
X146715273Y-103472171D01*
X146778768Y-103596788D01*
X146880586Y-103736928D01*
X147003072Y-103859414D01*
X147143212Y-103961232D01*
X147297555Y-104039873D01*
X147462299Y-104093402D01*
X147633389Y-104120500D01*
X147633390Y-104120500D01*
X147806610Y-104120500D01*
X147806611Y-104120500D01*
X147977701Y-104093402D01*
X148142445Y-104039873D01*
X148296788Y-103961232D01*
X148436928Y-103859414D01*
X148559414Y-103736928D01*
X148661232Y-103596788D01*
X148739873Y-103442445D01*
X148793402Y-103277701D01*
X148820500Y-103106611D01*
X148820500Y-102933389D01*
X148793402Y-102762299D01*
X148739873Y-102597555D01*
X148661232Y-102443212D01*
X148559414Y-102303072D01*
X148436928Y-102180586D01*
X148296788Y-102078768D01*
X148142445Y-102000127D01*
X147977701Y-101946598D01*
X147977699Y-101946597D01*
X147977698Y-101946597D01*
X147846271Y-101925781D01*
X147806611Y-101919500D01*
X147633389Y-101919500D01*
X147593728Y-101925781D01*
X147462302Y-101946597D01*
X147297552Y-102000128D01*
X147143211Y-102078768D01*
X147063256Y-102136859D01*
X147003072Y-102180586D01*
X147003070Y-102180588D01*
X147003069Y-102180588D01*
X146880588Y-102303069D01*
X146880588Y-102303070D01*
X146880586Y-102303072D01*
X146879296Y-102304848D01*
X146778768Y-102443211D01*
X146700128Y-102597552D01*
X146646597Y-102762302D01*
X146619500Y-102933389D01*
X142267637Y-102933389D01*
X140114865Y-100780616D01*
X139564248Y-100229999D01*
X146645884Y-100229999D01*
X146645885Y-100230000D01*
X147286988Y-100230000D01*
X147254075Y-100287007D01*
X147220000Y-100414174D01*
X147220000Y-100545826D01*
X147254075Y-100672993D01*
X147286988Y-100730000D01*
X146645885Y-100730000D01*
X146647085Y-100737584D01*
X146700591Y-100902255D01*
X146779195Y-101056524D01*
X146880967Y-101196602D01*
X147003397Y-101319032D01*
X147143475Y-101420804D01*
X147297744Y-101499408D01*
X147462415Y-101552914D01*
X147462414Y-101552914D01*
X147469999Y-101554115D01*
X147470000Y-101554114D01*
X147470000Y-100913012D01*
X147527007Y-100945925D01*
X147654174Y-100980000D01*
X147785826Y-100980000D01*
X147912993Y-100945925D01*
X147970000Y-100913012D01*
X147970000Y-101554115D01*
X147977584Y-101552914D01*
X148142255Y-101499408D01*
X148296524Y-101420804D01*
X148436602Y-101319032D01*
X148559032Y-101196602D01*
X148660804Y-101056524D01*
X148739408Y-100902255D01*
X148792914Y-100737584D01*
X148794115Y-100730000D01*
X148153012Y-100730000D01*
X148185925Y-100672993D01*
X148220000Y-100545826D01*
X148220000Y-100414174D01*
X148185925Y-100287007D01*
X148153012Y-100230000D01*
X148794115Y-100230000D01*
X148794115Y-100229999D01*
X148792914Y-100222415D01*
X148739408Y-100057744D01*
X148660804Y-99903475D01*
X148559032Y-99763397D01*
X148436602Y-99640967D01*
X148296524Y-99539195D01*
X148142257Y-99460591D01*
X147977589Y-99407087D01*
X147977581Y-99407085D01*
X147970000Y-99405884D01*
X147970000Y-100046988D01*
X147912993Y-100014075D01*
X147785826Y-99980000D01*
X147654174Y-99980000D01*
X147527007Y-100014075D01*
X147470000Y-100046988D01*
X147470000Y-99405884D01*
X147469999Y-99405884D01*
X147462418Y-99407085D01*
X147462410Y-99407087D01*
X147297742Y-99460591D01*
X147143475Y-99539195D01*
X147003397Y-99640967D01*
X146880967Y-99763397D01*
X146779195Y-99903475D01*
X146700591Y-100057744D01*
X146647085Y-100222415D01*
X146645884Y-100229999D01*
X139564248Y-100229999D01*
X137187638Y-97853389D01*
X146619500Y-97853389D01*
X146619500Y-98026610D01*
X146646552Y-98197416D01*
X146646598Y-98197701D01*
X146691603Y-98336212D01*
X146700128Y-98362447D01*
X146715273Y-98392171D01*
X146778768Y-98516788D01*
X146880586Y-98656928D01*
X147003072Y-98779414D01*
X147143212Y-98881232D01*
X147297555Y-98959873D01*
X147462299Y-99013402D01*
X147633389Y-99040500D01*
X147633390Y-99040500D01*
X147806610Y-99040500D01*
X147806611Y-99040500D01*
X147977701Y-99013402D01*
X148142445Y-98959873D01*
X148296788Y-98881232D01*
X148436928Y-98779414D01*
X148559414Y-98656928D01*
X148661232Y-98516788D01*
X148739873Y-98362445D01*
X148793402Y-98197701D01*
X148820500Y-98026611D01*
X148820500Y-97853389D01*
X148793402Y-97682299D01*
X148739873Y-97517555D01*
X148661232Y-97363212D01*
X148559414Y-97223072D01*
X148436928Y-97100586D01*
X148296788Y-96998768D01*
X148142445Y-96920127D01*
X147977701Y-96866598D01*
X147977699Y-96866597D01*
X147977698Y-96866597D01*
X147846271Y-96845781D01*
X147806611Y-96839500D01*
X147633389Y-96839500D01*
X147593728Y-96845781D01*
X147462302Y-96866597D01*
X147297552Y-96920128D01*
X147143211Y-96998768D01*
X147063256Y-97056859D01*
X147003072Y-97100586D01*
X147003070Y-97100588D01*
X147003069Y-97100588D01*
X146880588Y-97223069D01*
X146880588Y-97223070D01*
X146880586Y-97223072D01*
X146846063Y-97270589D01*
X146778768Y-97363211D01*
X146700128Y-97517552D01*
X146646597Y-97682302D01*
X146619500Y-97853389D01*
X137187638Y-97853389D01*
X134647638Y-95313389D01*
X146619500Y-95313389D01*
X146619500Y-95486611D01*
X146646598Y-95657701D01*
X146691603Y-95796212D01*
X146700128Y-95822447D01*
X146715273Y-95852171D01*
X146778768Y-95976788D01*
X146880586Y-96116928D01*
X147003072Y-96239414D01*
X147143212Y-96341232D01*
X147297555Y-96419873D01*
X147462299Y-96473402D01*
X147633389Y-96500500D01*
X147633390Y-96500500D01*
X147806610Y-96500500D01*
X147806611Y-96500500D01*
X147977701Y-96473402D01*
X148142445Y-96419873D01*
X148296788Y-96341232D01*
X148436928Y-96239414D01*
X148559414Y-96116928D01*
X148661232Y-95976788D01*
X148739873Y-95822445D01*
X148793402Y-95657701D01*
X148820500Y-95486611D01*
X148820500Y-95313389D01*
X148793402Y-95142299D01*
X148739873Y-94977555D01*
X148661232Y-94823212D01*
X148559414Y-94683072D01*
X148436928Y-94560586D01*
X148296788Y-94458768D01*
X148142445Y-94380127D01*
X147977701Y-94326598D01*
X147977699Y-94326597D01*
X147977698Y-94326597D01*
X147846271Y-94305781D01*
X147806611Y-94299500D01*
X147633389Y-94299500D01*
X147593728Y-94305781D01*
X147462302Y-94326597D01*
X147297552Y-94380128D01*
X147143211Y-94458768D01*
X147086461Y-94500000D01*
X147003072Y-94560586D01*
X147003070Y-94560588D01*
X147003069Y-94560588D01*
X146880588Y-94683069D01*
X146880588Y-94683070D01*
X146880586Y-94683072D01*
X146873378Y-94692993D01*
X146778768Y-94823211D01*
X146700128Y-94977552D01*
X146646597Y-95142302D01*
X146629540Y-95250000D01*
X146619500Y-95313389D01*
X134647638Y-95313389D01*
X133202976Y-93868727D01*
X133169491Y-93807404D01*
X133174475Y-93737712D01*
X133202972Y-93693369D01*
X133319414Y-93576928D01*
X133421232Y-93436788D01*
X133499873Y-93282445D01*
X133553402Y-93117701D01*
X133580500Y-92946611D01*
X133580500Y-92773389D01*
X146619500Y-92773389D01*
X146619500Y-92946611D01*
X146646598Y-93117701D01*
X146698243Y-93276648D01*
X146700128Y-93282447D01*
X146715273Y-93312171D01*
X146778768Y-93436788D01*
X146880586Y-93576928D01*
X147003072Y-93699414D01*
X147143212Y-93801232D01*
X147297555Y-93879873D01*
X147462299Y-93933402D01*
X147633389Y-93960500D01*
X147633390Y-93960500D01*
X147806610Y-93960500D01*
X147806611Y-93960500D01*
X147977701Y-93933402D01*
X148142445Y-93879873D01*
X148296788Y-93801232D01*
X148436928Y-93699414D01*
X148559414Y-93576928D01*
X148661232Y-93436788D01*
X148739873Y-93282445D01*
X148793402Y-93117701D01*
X148820500Y-92946611D01*
X148820500Y-92773389D01*
X148793402Y-92602299D01*
X148739873Y-92437555D01*
X148661232Y-92283212D01*
X148559414Y-92143072D01*
X148436928Y-92020586D01*
X148296788Y-91918768D01*
X148142445Y-91840127D01*
X147977701Y-91786598D01*
X147977699Y-91786597D01*
X147977698Y-91786597D01*
X147846271Y-91765781D01*
X147806611Y-91759500D01*
X147633389Y-91759500D01*
X147593728Y-91765781D01*
X147462302Y-91786597D01*
X147297552Y-91840128D01*
X147143211Y-91918768D01*
X147089822Y-91957558D01*
X147003072Y-92020586D01*
X147003070Y-92020588D01*
X147003069Y-92020588D01*
X146880588Y-92143069D01*
X146880588Y-92143070D01*
X146880586Y-92143072D01*
X146878304Y-92146213D01*
X146778768Y-92283211D01*
X146700128Y-92437552D01*
X146646597Y-92602302D01*
X146637785Y-92657939D01*
X146619500Y-92773389D01*
X133580500Y-92773389D01*
X133553402Y-92602299D01*
X133499873Y-92437555D01*
X133421232Y-92283212D01*
X133319414Y-92143072D01*
X133196928Y-92020586D01*
X133056788Y-91918768D01*
X132902445Y-91840127D01*
X132737701Y-91786598D01*
X132737699Y-91786597D01*
X132737698Y-91786597D01*
X132606271Y-91765781D01*
X132566611Y-91759500D01*
X132393389Y-91759500D01*
X132353728Y-91765781D01*
X132222302Y-91786597D01*
X132057552Y-91840128D01*
X131903211Y-91918768D01*
X131849822Y-91957558D01*
X131763072Y-92020586D01*
X131763070Y-92020588D01*
X131763069Y-92020588D01*
X131640588Y-92143069D01*
X131640588Y-92143070D01*
X131640586Y-92143072D01*
X131638304Y-92146213D01*
X131538768Y-92283211D01*
X131460128Y-92437550D01*
X131416977Y-92570355D01*
X131377539Y-92628030D01*
X131313180Y-92655228D01*
X131244334Y-92643313D01*
X131211365Y-92619717D01*
X130945419Y-92353771D01*
X130911934Y-92292448D01*
X130909100Y-92266090D01*
X130909100Y-90233389D01*
X131379500Y-90233389D01*
X131379500Y-90406611D01*
X131406598Y-90577701D01*
X131451603Y-90716212D01*
X131460128Y-90742447D01*
X131475273Y-90772171D01*
X131538768Y-90896788D01*
X131640586Y-91036928D01*
X131763072Y-91159414D01*
X131903212Y-91261232D01*
X132057555Y-91339873D01*
X132222299Y-91393402D01*
X132393389Y-91420500D01*
X132393390Y-91420500D01*
X132566610Y-91420500D01*
X132566611Y-91420500D01*
X132737701Y-91393402D01*
X132902445Y-91339873D01*
X133056788Y-91261232D01*
X133196928Y-91159414D01*
X133319414Y-91036928D01*
X133421232Y-90896788D01*
X133499873Y-90742445D01*
X133553402Y-90577701D01*
X133580500Y-90406611D01*
X133580500Y-90233389D01*
X146619500Y-90233389D01*
X146619500Y-90406611D01*
X146646598Y-90577701D01*
X146691603Y-90716212D01*
X146700128Y-90742447D01*
X146715273Y-90772171D01*
X146778768Y-90896788D01*
X146880586Y-91036928D01*
X147003072Y-91159414D01*
X147143212Y-91261232D01*
X147297555Y-91339873D01*
X147462299Y-91393402D01*
X147633389Y-91420500D01*
X147633390Y-91420500D01*
X147806610Y-91420500D01*
X147806611Y-91420500D01*
X147977701Y-91393402D01*
X148142445Y-91339873D01*
X148296788Y-91261232D01*
X148436928Y-91159414D01*
X148559414Y-91036928D01*
X148661232Y-90896788D01*
X148739873Y-90742445D01*
X148793402Y-90577701D01*
X148820500Y-90406611D01*
X148820500Y-90233389D01*
X148793402Y-90062299D01*
X148739873Y-89897555D01*
X148661232Y-89743212D01*
X148559414Y-89603072D01*
X148436928Y-89480586D01*
X148296788Y-89378768D01*
X148142445Y-89300127D01*
X147977701Y-89246598D01*
X147977699Y-89246597D01*
X147977698Y-89246597D01*
X147846271Y-89225781D01*
X147806611Y-89219500D01*
X147633389Y-89219500D01*
X147593728Y-89225781D01*
X147462302Y-89246597D01*
X147297552Y-89300128D01*
X147143211Y-89378768D01*
X147077622Y-89426422D01*
X147003072Y-89480586D01*
X147003070Y-89480588D01*
X147003069Y-89480588D01*
X146880588Y-89603069D01*
X146880588Y-89603070D01*
X146880586Y-89603072D01*
X146838346Y-89661210D01*
X146778768Y-89743211D01*
X146700128Y-89897552D01*
X146646597Y-90062302D01*
X146632615Y-90150585D01*
X146619500Y-90233389D01*
X133580500Y-90233389D01*
X133553402Y-90062299D01*
X133499873Y-89897555D01*
X133421232Y-89743212D01*
X133319414Y-89603072D01*
X133196928Y-89480586D01*
X133056788Y-89378768D01*
X132902445Y-89300127D01*
X132737701Y-89246598D01*
X132737699Y-89246597D01*
X132737698Y-89246597D01*
X132606271Y-89225781D01*
X132566611Y-89219500D01*
X132393389Y-89219500D01*
X132353728Y-89225781D01*
X132222302Y-89246597D01*
X132057552Y-89300128D01*
X131903211Y-89378768D01*
X131837622Y-89426422D01*
X131763072Y-89480586D01*
X131763070Y-89480588D01*
X131763069Y-89480588D01*
X131640588Y-89603069D01*
X131640588Y-89603070D01*
X131640586Y-89603072D01*
X131598346Y-89661210D01*
X131538768Y-89743211D01*
X131460128Y-89897552D01*
X131406597Y-90062302D01*
X131392615Y-90150585D01*
X131379500Y-90233389D01*
X130909100Y-90233389D01*
X130909100Y-89377584D01*
X130909100Y-89377582D01*
X130880103Y-89269363D01*
X130824085Y-89172337D01*
X130744863Y-89093115D01*
X129345137Y-87693389D01*
X131379500Y-87693389D01*
X131379500Y-87866611D01*
X131406598Y-88037701D01*
X131451603Y-88176212D01*
X131460128Y-88202447D01*
X131475273Y-88232171D01*
X131538768Y-88356788D01*
X131640586Y-88496928D01*
X131763072Y-88619414D01*
X131903212Y-88721232D01*
X132057555Y-88799873D01*
X132222299Y-88853402D01*
X132393389Y-88880500D01*
X132393390Y-88880500D01*
X132566610Y-88880500D01*
X132566611Y-88880500D01*
X132737701Y-88853402D01*
X132902445Y-88799873D01*
X133056788Y-88721232D01*
X133196928Y-88619414D01*
X133319414Y-88496928D01*
X133421232Y-88356788D01*
X133499873Y-88202445D01*
X133553402Y-88037701D01*
X133580500Y-87866611D01*
X133580500Y-87693389D01*
X146619500Y-87693389D01*
X146619500Y-87866611D01*
X146646598Y-88037701D01*
X146691603Y-88176212D01*
X146700128Y-88202447D01*
X146715273Y-88232171D01*
X146778768Y-88356788D01*
X146880586Y-88496928D01*
X147003072Y-88619414D01*
X147143212Y-88721232D01*
X147297555Y-88799873D01*
X147462299Y-88853402D01*
X147633389Y-88880500D01*
X147633390Y-88880500D01*
X147806610Y-88880500D01*
X147806611Y-88880500D01*
X147977701Y-88853402D01*
X148142445Y-88799873D01*
X148296788Y-88721232D01*
X148436928Y-88619414D01*
X148559414Y-88496928D01*
X148661232Y-88356788D01*
X148703819Y-88273204D01*
X148714267Y-88262142D01*
X148720590Y-88248297D01*
X148737771Y-88237255D01*
X148751792Y-88222410D01*
X148767471Y-88218168D01*
X148779368Y-88210523D01*
X148814303Y-88205500D01*
X149037590Y-88205500D01*
X149104629Y-88225185D01*
X149125271Y-88241819D01*
X164409165Y-103525713D01*
X164442650Y-103587036D01*
X164437666Y-103656728D01*
X164395794Y-103712661D01*
X164340882Y-103735867D01*
X164230706Y-103753317D01*
X164058555Y-103809251D01*
X164058552Y-103809252D01*
X163897265Y-103891434D01*
X163750830Y-103997823D01*
X163622823Y-104125830D01*
X163516434Y-104272265D01*
X163434252Y-104433552D01*
X163434251Y-104433555D01*
X163392431Y-104562268D01*
X163352994Y-104619943D01*
X163288635Y-104647142D01*
X163219789Y-104635228D01*
X163168313Y-104587984D01*
X163150500Y-104523950D01*
X163150500Y-104231903D01*
X163150500Y-104231898D01*
X163139877Y-104143436D01*
X163084361Y-104002658D01*
X163084360Y-104002657D01*
X163084360Y-104002656D01*
X162992922Y-103882077D01*
X162872343Y-103790639D01*
X162736146Y-103736930D01*
X162731564Y-103735123D01*
X162731563Y-103735122D01*
X162731561Y-103735122D01*
X162685926Y-103729642D01*
X162643102Y-103724500D01*
X161356898Y-103724500D01*
X161317853Y-103729188D01*
X161268438Y-103735122D01*
X161127656Y-103790639D01*
X161007077Y-103882077D01*
X160915639Y-104002656D01*
X160860122Y-104143438D01*
X160856212Y-104176004D01*
X160849500Y-104231898D01*
X160849500Y-105768102D01*
X160852992Y-105797181D01*
X160860122Y-105856561D01*
X160860122Y-105856563D01*
X160860123Y-105856564D01*
X160869354Y-105879973D01*
X160915639Y-105997343D01*
X161007077Y-106117922D01*
X161127656Y-106209360D01*
X161127657Y-106209360D01*
X161127658Y-106209361D01*
X161268436Y-106264877D01*
X161356898Y-106275500D01*
X161356903Y-106275500D01*
X162643097Y-106275500D01*
X162643102Y-106275500D01*
X162731564Y-106264877D01*
X162872342Y-106209361D01*
X162992922Y-106117922D01*
X163084361Y-105997342D01*
X163139877Y-105856564D01*
X163150500Y-105768102D01*
X163150500Y-105476049D01*
X163170185Y-105409010D01*
X163222989Y-105363255D01*
X163292147Y-105353311D01*
X163355703Y-105382336D01*
X163392431Y-105437731D01*
X163434251Y-105566444D01*
X163434252Y-105566447D01*
X163516434Y-105727734D01*
X163622823Y-105874169D01*
X163750830Y-106002176D01*
X163897265Y-106108565D01*
X164058552Y-106190747D01*
X164058555Y-106190748D01*
X164230699Y-106246680D01*
X164230712Y-106246683D01*
X164250000Y-106249738D01*
X164250000Y-105404145D01*
X164316657Y-105442630D01*
X164437465Y-105475000D01*
X164562535Y-105475000D01*
X164683343Y-105442630D01*
X164750000Y-105404145D01*
X164750000Y-106249737D01*
X164769287Y-106246683D01*
X164769300Y-106246680D01*
X164941444Y-106190748D01*
X164941447Y-106190747D01*
X165102734Y-106108565D01*
X165249169Y-106002176D01*
X165377176Y-105874169D01*
X165483565Y-105727734D01*
X165565746Y-105566448D01*
X165587652Y-105499026D01*
X165606016Y-105472167D01*
X165623284Y-105444591D01*
X165625627Y-105443487D01*
X165627089Y-105441350D01*
X165657046Y-105428689D01*
X165686494Y-105414820D01*
X165689484Y-105414980D01*
X165691447Y-105414151D01*
X165721785Y-105414405D01*
X165729832Y-105415465D01*
X165767282Y-105425500D01*
X165805974Y-105425500D01*
X165814040Y-105426563D01*
X165838849Y-105437542D01*
X165864878Y-105445185D01*
X165870325Y-105451471D01*
X165877933Y-105454838D01*
X165892869Y-105477488D01*
X165910633Y-105497989D01*
X165915770Y-105511183D01*
X165933786Y-105566633D01*
X165933788Y-105566639D01*
X166016006Y-105727997D01*
X166122441Y-105874494D01*
X166122445Y-105874499D01*
X166250500Y-106002554D01*
X166250505Y-106002558D01*
X166329568Y-106060000D01*
X166397006Y-106108996D01*
X166502484Y-106162740D01*
X166558360Y-106191211D01*
X166558363Y-106191212D01*
X166644476Y-106219191D01*
X166730591Y-106247171D01*
X166813429Y-106260291D01*
X166909449Y-106275500D01*
X166909454Y-106275500D01*
X167090551Y-106275500D01*
X167177259Y-106261765D01*
X167269409Y-106247171D01*
X167441639Y-106191211D01*
X167602994Y-106108996D01*
X167749501Y-106002553D01*
X167877553Y-105874501D01*
X167983996Y-105727994D01*
X168066211Y-105566639D01*
X168122171Y-105394409D01*
X168138445Y-105291657D01*
X168150500Y-105215551D01*
X168150500Y-104784448D01*
X168126865Y-104635228D01*
X168122171Y-104605591D01*
X168083667Y-104487085D01*
X168066212Y-104433363D01*
X168066211Y-104433360D01*
X168037740Y-104377484D01*
X167983996Y-104272006D01*
X167954856Y-104231898D01*
X167877558Y-104125505D01*
X167877554Y-104125500D01*
X167749499Y-103997445D01*
X167749494Y-103997441D01*
X167602997Y-103891006D01*
X167602996Y-103891005D01*
X167602994Y-103891004D01*
X167540990Y-103859411D01*
X167441639Y-103808788D01*
X167441636Y-103808787D01*
X167269410Y-103752829D01*
X167090551Y-103724500D01*
X167090546Y-103724500D01*
X166909454Y-103724500D01*
X166909449Y-103724500D01*
X166730589Y-103752829D01*
X166558363Y-103808787D01*
X166558360Y-103808788D01*
X166397002Y-103891006D01*
X166250500Y-103997444D01*
X166248061Y-103999528D01*
X166246945Y-104000027D01*
X166246557Y-104000310D01*
X166246497Y-104000228D01*
X166184297Y-104028091D01*
X166115212Y-104017647D01*
X166079858Y-103992910D01*
X149526465Y-87439517D01*
X149526463Y-87439515D01*
X149446721Y-87393476D01*
X149429439Y-87383498D01*
X149429438Y-87383497D01*
X149429437Y-87383497D01*
X149321218Y-87354500D01*
X149321217Y-87354500D01*
X148814303Y-87354500D01*
X148747264Y-87334815D01*
X148703819Y-87286795D01*
X148661232Y-87203212D01*
X148661230Y-87203209D01*
X148661229Y-87203207D01*
X148622934Y-87150500D01*
X148559414Y-87063072D01*
X148436928Y-86940586D01*
X148296788Y-86838768D01*
X148142445Y-86760127D01*
X147977701Y-86706598D01*
X147977699Y-86706597D01*
X147977698Y-86706597D01*
X147846271Y-86685781D01*
X147806611Y-86679500D01*
X147633389Y-86679500D01*
X147593728Y-86685781D01*
X147462302Y-86706597D01*
X147297552Y-86760128D01*
X147143211Y-86838768D01*
X147076072Y-86887548D01*
X147003072Y-86940586D01*
X147003070Y-86940588D01*
X147003069Y-86940588D01*
X146880588Y-87063069D01*
X146880588Y-87063070D01*
X146880586Y-87063072D01*
X146836859Y-87123256D01*
X146778768Y-87203211D01*
X146700128Y-87357552D01*
X146646597Y-87522302D01*
X146628286Y-87637917D01*
X146619500Y-87693389D01*
X133580500Y-87693389D01*
X133553402Y-87522299D01*
X133499873Y-87357555D01*
X133421232Y-87203212D01*
X133319414Y-87063072D01*
X133196928Y-86940586D01*
X133056788Y-86838768D01*
X132902445Y-86760127D01*
X132737701Y-86706598D01*
X132737699Y-86706597D01*
X132737698Y-86706597D01*
X132606271Y-86685781D01*
X132566611Y-86679500D01*
X132393389Y-86679500D01*
X132353728Y-86685781D01*
X132222302Y-86706597D01*
X132057552Y-86760128D01*
X131903211Y-86838768D01*
X131836072Y-86887548D01*
X131763072Y-86940586D01*
X131763070Y-86940588D01*
X131763069Y-86940588D01*
X131640588Y-87063069D01*
X131640588Y-87063070D01*
X131640586Y-87063072D01*
X131596859Y-87123256D01*
X131538768Y-87203211D01*
X131460128Y-87357552D01*
X131406597Y-87522302D01*
X131388286Y-87637917D01*
X131379500Y-87693389D01*
X129345137Y-87693389D01*
X126805137Y-85153389D01*
X131379500Y-85153389D01*
X131379500Y-85326611D01*
X131406598Y-85497701D01*
X131456765Y-85652099D01*
X131460128Y-85662447D01*
X131475273Y-85692171D01*
X131538768Y-85816788D01*
X131640586Y-85956928D01*
X131763072Y-86079414D01*
X131903212Y-86181232D01*
X132057555Y-86259873D01*
X132222299Y-86313402D01*
X132393389Y-86340500D01*
X132393390Y-86340500D01*
X132566610Y-86340500D01*
X132566611Y-86340500D01*
X132737701Y-86313402D01*
X132902445Y-86259873D01*
X133056788Y-86181232D01*
X133196928Y-86079414D01*
X133319414Y-85956928D01*
X133421232Y-85816788D01*
X133499873Y-85662445D01*
X133553402Y-85497701D01*
X133580500Y-85326611D01*
X133580500Y-85153389D01*
X133553402Y-84982299D01*
X133499873Y-84817555D01*
X133421232Y-84663212D01*
X133319414Y-84523072D01*
X133196928Y-84400586D01*
X133056788Y-84298768D01*
X132902445Y-84220127D01*
X132737701Y-84166598D01*
X132737699Y-84166597D01*
X132737698Y-84166597D01*
X132606271Y-84145781D01*
X132566611Y-84139500D01*
X132393389Y-84139500D01*
X132353728Y-84145781D01*
X132222302Y-84166597D01*
X132057552Y-84220128D01*
X131903211Y-84298768D01*
X131823256Y-84356859D01*
X131763072Y-84400586D01*
X131763070Y-84400588D01*
X131763069Y-84400588D01*
X131640588Y-84523069D01*
X131640588Y-84523070D01*
X131640586Y-84523072D01*
X131622296Y-84548246D01*
X131538768Y-84663211D01*
X131460128Y-84817552D01*
X131406597Y-84982302D01*
X131387141Y-85105143D01*
X131379500Y-85153389D01*
X126805137Y-85153389D01*
X126734344Y-85082596D01*
X126700859Y-85021273D01*
X126704093Y-84956600D01*
X126742171Y-84839409D01*
X126750265Y-84788305D01*
X126770500Y-84660551D01*
X126770500Y-84479448D01*
X126749913Y-84349471D01*
X126742171Y-84300591D01*
X126698635Y-84166598D01*
X126686212Y-84128363D01*
X126686211Y-84128360D01*
X126657740Y-84072484D01*
X126603996Y-83967006D01*
X126590396Y-83948287D01*
X126497558Y-83820505D01*
X126497554Y-83820500D01*
X126369499Y-83692445D01*
X126369494Y-83692441D01*
X126222997Y-83586006D01*
X126222996Y-83586005D01*
X126222994Y-83586004D01*
X126171300Y-83559664D01*
X126061639Y-83503788D01*
X126061636Y-83503787D01*
X125889410Y-83447829D01*
X125729321Y-83422473D01*
X125666186Y-83392544D01*
X125629255Y-83333232D01*
X125630253Y-83263370D01*
X125668863Y-83205137D01*
X125729321Y-83177527D01*
X125799425Y-83166422D01*
X125889409Y-83152171D01*
X126061639Y-83096211D01*
X126222994Y-83013996D01*
X126369501Y-82907553D01*
X126497553Y-82779501D01*
X126603996Y-82632994D01*
X126613985Y-82613389D01*
X131379500Y-82613389D01*
X131379500Y-82786610D01*
X131406194Y-82955154D01*
X131406598Y-82957701D01*
X131451603Y-83096212D01*
X131460128Y-83122447D01*
X131475273Y-83152171D01*
X131538768Y-83276788D01*
X131640586Y-83416928D01*
X131763072Y-83539414D01*
X131903212Y-83641232D01*
X132057555Y-83719873D01*
X132222299Y-83773402D01*
X132393389Y-83800500D01*
X132393390Y-83800500D01*
X132566610Y-83800500D01*
X132566611Y-83800500D01*
X132737701Y-83773402D01*
X132902445Y-83719873D01*
X133056788Y-83641232D01*
X133196928Y-83539414D01*
X133319414Y-83416928D01*
X133421232Y-83276788D01*
X133499873Y-83122445D01*
X133553402Y-82957701D01*
X133580500Y-82786611D01*
X133580500Y-82613389D01*
X133553402Y-82442299D01*
X133499873Y-82277555D01*
X133498316Y-82274500D01*
X133430321Y-82141049D01*
X133421233Y-82123214D01*
X133421231Y-82123211D01*
X133399196Y-82092882D01*
X146150600Y-82092882D01*
X146150600Y-83126382D01*
X146150600Y-83238418D01*
X146179597Y-83346637D01*
X146235615Y-83443663D01*
X146235617Y-83443665D01*
X147010407Y-84218456D01*
X147043892Y-84279779D01*
X147038908Y-84349471D01*
X147005953Y-84396577D01*
X147006517Y-84397141D01*
X147003331Y-84400326D01*
X147003266Y-84400420D01*
X147003073Y-84400584D01*
X146880588Y-84523069D01*
X146880588Y-84523070D01*
X146880586Y-84523072D01*
X146862296Y-84548246D01*
X146778768Y-84663211D01*
X146700128Y-84817552D01*
X146646597Y-84982302D01*
X146627141Y-85105143D01*
X146619500Y-85153389D01*
X146619500Y-85326611D01*
X146646598Y-85497701D01*
X146696765Y-85652099D01*
X146700128Y-85662447D01*
X146715273Y-85692171D01*
X146778768Y-85816788D01*
X146880586Y-85956928D01*
X147003072Y-86079414D01*
X147143212Y-86181232D01*
X147297555Y-86259873D01*
X147462299Y-86313402D01*
X147633389Y-86340500D01*
X147633390Y-86340500D01*
X147806610Y-86340500D01*
X147806611Y-86340500D01*
X147977701Y-86313402D01*
X148142445Y-86259873D01*
X148296788Y-86181232D01*
X148436928Y-86079414D01*
X148559414Y-85956928D01*
X148661232Y-85816788D01*
X148739873Y-85662445D01*
X148793402Y-85497701D01*
X148820500Y-85326611D01*
X148820500Y-85153389D01*
X148793402Y-84982299D01*
X148739873Y-84817555D01*
X148661232Y-84663212D01*
X148609772Y-84592384D01*
X148605540Y-84580524D01*
X148597297Y-84571011D01*
X148594023Y-84548246D01*
X148586293Y-84526580D01*
X148589144Y-84514315D01*
X148587353Y-84501853D01*
X148596908Y-84480929D01*
X148602118Y-84458526D01*
X148611147Y-84449750D01*
X148616378Y-84438297D01*
X148635728Y-84425861D01*
X148652223Y-84409831D01*
X148665969Y-84406426D01*
X148675156Y-84400523D01*
X148710091Y-84395500D01*
X148726090Y-84395500D01*
X148793129Y-84415185D01*
X148813771Y-84431819D01*
X172422437Y-108040485D01*
X172519463Y-108096503D01*
X172627682Y-108125500D01*
X172739719Y-108125500D01*
X174849579Y-108125500D01*
X174916618Y-108145185D01*
X174960062Y-108193203D01*
X175012880Y-108296864D01*
X175016006Y-108302998D01*
X175122441Y-108449494D01*
X175122445Y-108449499D01*
X175250500Y-108577554D01*
X175250505Y-108577558D01*
X175288465Y-108605137D01*
X175397006Y-108683996D01*
X175500307Y-108736631D01*
X175558360Y-108766211D01*
X175558363Y-108766212D01*
X175639407Y-108792544D01*
X175730591Y-108822171D01*
X175803639Y-108833740D01*
X175890678Y-108847527D01*
X175953813Y-108877456D01*
X175990744Y-108936768D01*
X175989746Y-109006631D01*
X175951136Y-109064863D01*
X175890678Y-109092473D01*
X175730589Y-109117829D01*
X175558363Y-109173787D01*
X175558360Y-109173788D01*
X175397002Y-109256006D01*
X175250505Y-109362441D01*
X175250500Y-109362445D01*
X175122445Y-109490500D01*
X175122441Y-109490505D01*
X175016006Y-109637002D01*
X174933788Y-109798360D01*
X174933787Y-109798363D01*
X174877829Y-109970589D01*
X174849500Y-110149448D01*
X174849500Y-110330551D01*
X174877829Y-110509410D01*
X174933787Y-110681636D01*
X174933788Y-110681639D01*
X175016006Y-110842997D01*
X175122441Y-110989494D01*
X175122445Y-110989499D01*
X175250500Y-111117554D01*
X175250505Y-111117558D01*
X175288465Y-111145137D01*
X175397006Y-111223996D01*
X175500307Y-111276631D01*
X175558360Y-111306211D01*
X175558363Y-111306212D01*
X175639407Y-111332544D01*
X175730591Y-111362171D01*
X175813429Y-111375291D01*
X175909449Y-111390500D01*
X175909454Y-111390500D01*
X176090551Y-111390500D01*
X176177259Y-111376765D01*
X176269409Y-111362171D01*
X176441639Y-111306211D01*
X176602994Y-111223996D01*
X176749501Y-111117553D01*
X176877553Y-110989501D01*
X176983996Y-110842994D01*
X177066211Y-110681639D01*
X177122171Y-110509409D01*
X177137657Y-110411636D01*
X177150500Y-110330551D01*
X177150500Y-110149448D01*
X177122171Y-109970590D01*
X177084094Y-109853401D01*
X177082099Y-109783560D01*
X177114342Y-109727404D01*
X177543885Y-109297863D01*
X177599903Y-109200837D01*
X177628900Y-109092618D01*
X177628900Y-108980581D01*
X177628900Y-107089882D01*
X177599903Y-106981663D01*
X177543885Y-106884637D01*
X177464663Y-106805415D01*
X176810832Y-106151584D01*
X176777347Y-106090261D01*
X176782331Y-106020569D01*
X176810832Y-105976222D01*
X176840893Y-105946161D01*
X176877553Y-105909501D01*
X176983996Y-105762994D01*
X177066211Y-105601639D01*
X177122171Y-105429409D01*
X177137657Y-105331636D01*
X177150500Y-105250551D01*
X177150500Y-105069448D01*
X177129595Y-104937465D01*
X177122171Y-104890591D01*
X177066211Y-104718361D01*
X177066211Y-104718360D01*
X177016064Y-104619943D01*
X176983996Y-104557006D01*
X176932323Y-104485884D01*
X176877558Y-104410505D01*
X176877554Y-104410500D01*
X176749499Y-104282445D01*
X176749494Y-104282441D01*
X176602997Y-104176006D01*
X176602996Y-104176005D01*
X176602994Y-104176004D01*
X176504523Y-104125830D01*
X176441639Y-104093788D01*
X176441636Y-104093787D01*
X176269410Y-104037829D01*
X176109321Y-104012473D01*
X176046186Y-103982544D01*
X176009255Y-103923232D01*
X176010253Y-103853370D01*
X176048863Y-103795137D01*
X176109321Y-103767527D01*
X176179425Y-103756422D01*
X176269409Y-103742171D01*
X176441639Y-103686211D01*
X176602994Y-103603996D01*
X176749501Y-103497553D01*
X176877553Y-103369501D01*
X176983996Y-103222994D01*
X177066211Y-103061639D01*
X177122171Y-102889409D01*
X177142303Y-102762299D01*
X177150500Y-102710551D01*
X177150500Y-102529448D01*
X177134019Y-102425397D01*
X177122171Y-102350591D01*
X177066211Y-102178361D01*
X177066211Y-102178360D01*
X177037740Y-102122484D01*
X176983996Y-102017006D01*
X176932841Y-101946597D01*
X176877558Y-101870505D01*
X176877554Y-101870500D01*
X176749499Y-101742445D01*
X176749494Y-101742441D01*
X176602997Y-101636006D01*
X176602996Y-101636005D01*
X176602994Y-101636004D01*
X176533312Y-101600499D01*
X176441639Y-101553788D01*
X176441636Y-101553787D01*
X176269410Y-101497829D01*
X176109321Y-101472473D01*
X176046186Y-101442544D01*
X176009255Y-101383232D01*
X176010253Y-101313370D01*
X176048863Y-101255137D01*
X176109321Y-101227527D01*
X176179425Y-101216422D01*
X176269409Y-101202171D01*
X176441639Y-101146211D01*
X176602994Y-101063996D01*
X176749501Y-100957553D01*
X176877553Y-100829501D01*
X176983996Y-100682994D01*
X177066211Y-100521639D01*
X177122171Y-100349409D01*
X177137657Y-100251633D01*
X177150500Y-100170551D01*
X177150500Y-99989448D01*
X177134019Y-99885397D01*
X177122171Y-99810591D01*
X177092557Y-99719448D01*
X177066212Y-99638363D01*
X177066211Y-99638360D01*
X177037740Y-99582484D01*
X176983996Y-99477006D01*
X176905063Y-99368363D01*
X176877558Y-99330505D01*
X176877554Y-99330500D01*
X176749499Y-99202445D01*
X176749494Y-99202441D01*
X176602997Y-99096006D01*
X176602996Y-99096005D01*
X176602994Y-99096004D01*
X176533312Y-99060499D01*
X176441639Y-99013788D01*
X176441636Y-99013787D01*
X176269410Y-98957829D01*
X176109321Y-98932473D01*
X176046186Y-98902544D01*
X176009255Y-98843232D01*
X176010253Y-98773370D01*
X176048863Y-98715137D01*
X176109321Y-98687527D01*
X176179425Y-98676422D01*
X176269409Y-98662171D01*
X176441639Y-98606211D01*
X176602994Y-98523996D01*
X176749501Y-98417553D01*
X176877553Y-98289501D01*
X176983996Y-98142994D01*
X177066211Y-97981639D01*
X177122171Y-97809409D01*
X177142303Y-97682299D01*
X177150500Y-97630551D01*
X177150500Y-97449448D01*
X177122988Y-97275752D01*
X177122171Y-97270591D01*
X177066211Y-97098361D01*
X177066211Y-97098360D01*
X177016393Y-97000589D01*
X176983996Y-96937006D01*
X176932841Y-96866597D01*
X176877558Y-96790505D01*
X176877554Y-96790500D01*
X176749499Y-96662445D01*
X176749494Y-96662441D01*
X176602997Y-96556006D01*
X176602996Y-96556005D01*
X176602994Y-96556004D01*
X176533312Y-96520499D01*
X176441639Y-96473788D01*
X176441636Y-96473787D01*
X176269410Y-96417829D01*
X176134571Y-96396472D01*
X176071437Y-96366542D01*
X176034506Y-96307231D01*
X176035504Y-96237368D01*
X176074114Y-96179136D01*
X176138078Y-96151022D01*
X176153970Y-96149999D01*
X176894786Y-96149999D01*
X176894808Y-96149997D01*
X176919869Y-96147091D01*
X176919873Y-96147090D01*
X177022474Y-96101788D01*
X177022479Y-96101785D01*
X177101785Y-96022479D01*
X177101788Y-96022474D01*
X177147089Y-95919877D01*
X177147089Y-95919875D01*
X177149999Y-95894794D01*
X177150000Y-95894791D01*
X177150000Y-95250000D01*
X176433012Y-95250000D01*
X176465925Y-95192993D01*
X176500000Y-95065826D01*
X176500000Y-94934174D01*
X176465925Y-94807007D01*
X176433012Y-94750000D01*
X177149999Y-94750000D01*
X177149999Y-94105214D01*
X177149997Y-94105191D01*
X177147091Y-94080130D01*
X177147090Y-94080126D01*
X177101788Y-93977525D01*
X177101785Y-93977520D01*
X177022479Y-93898214D01*
X177022474Y-93898211D01*
X176919876Y-93852910D01*
X176894794Y-93850000D01*
X176250000Y-93850000D01*
X176250000Y-94566988D01*
X176192993Y-94534075D01*
X176065826Y-94500000D01*
X175934174Y-94500000D01*
X175807007Y-94534075D01*
X175750000Y-94566988D01*
X175750000Y-93850000D01*
X175105214Y-93850000D01*
X175105191Y-93850002D01*
X175080130Y-93852908D01*
X175080126Y-93852909D01*
X174977525Y-93898211D01*
X174977520Y-93898214D01*
X174898214Y-93977520D01*
X174898211Y-93977525D01*
X174852910Y-94080122D01*
X174852910Y-94080124D01*
X174850000Y-94105205D01*
X174850000Y-94750000D01*
X175566988Y-94750000D01*
X175534075Y-94807007D01*
X175500000Y-94934174D01*
X175500000Y-95065826D01*
X175534075Y-95192993D01*
X175566988Y-95250000D01*
X174850001Y-95250000D01*
X174850001Y-95894785D01*
X174850002Y-95894808D01*
X174852908Y-95919869D01*
X174852909Y-95919873D01*
X174898211Y-96022474D01*
X174898214Y-96022479D01*
X174977520Y-96101785D01*
X174977525Y-96101788D01*
X175080123Y-96147089D01*
X175105206Y-96149999D01*
X175846028Y-96149999D01*
X175913067Y-96169683D01*
X175958822Y-96222487D01*
X175968766Y-96291646D01*
X175939741Y-96355202D01*
X175880963Y-96392976D01*
X175865427Y-96396472D01*
X175730589Y-96417829D01*
X175558363Y-96473787D01*
X175558360Y-96473788D01*
X175397002Y-96556006D01*
X175250505Y-96662441D01*
X175250500Y-96662445D01*
X175122445Y-96790500D01*
X175122441Y-96790505D01*
X175016006Y-96937002D01*
X174933788Y-97098360D01*
X174933787Y-97098363D01*
X174877829Y-97270589D01*
X174849500Y-97449448D01*
X174849500Y-97630551D01*
X174877829Y-97809410D01*
X174933787Y-97981636D01*
X174933788Y-97981639D01*
X174989664Y-98091300D01*
X175010515Y-98132222D01*
X175016006Y-98142997D01*
X175122441Y-98289494D01*
X175122445Y-98289499D01*
X175250500Y-98417554D01*
X175250505Y-98417558D01*
X175288465Y-98445137D01*
X175397006Y-98523996D01*
X175500307Y-98576631D01*
X175558360Y-98606211D01*
X175558363Y-98606212D01*
X175639407Y-98632544D01*
X175730591Y-98662171D01*
X175803639Y-98673740D01*
X175890678Y-98687527D01*
X175953813Y-98717456D01*
X175990744Y-98776768D01*
X175989746Y-98846631D01*
X175951136Y-98904863D01*
X175890678Y-98932473D01*
X175730589Y-98957829D01*
X175558363Y-99013787D01*
X175558360Y-99013788D01*
X175397002Y-99096006D01*
X175250505Y-99202441D01*
X175250500Y-99202445D01*
X175122445Y-99330500D01*
X175122441Y-99330505D01*
X175016006Y-99477002D01*
X174933788Y-99638360D01*
X174933787Y-99638363D01*
X174877829Y-99810589D01*
X174849500Y-99989448D01*
X174849500Y-100170551D01*
X174877829Y-100349410D01*
X174933787Y-100521636D01*
X174933788Y-100521639D01*
X174975800Y-100604090D01*
X175010908Y-100672993D01*
X175016006Y-100682997D01*
X175122441Y-100829494D01*
X175122445Y-100829499D01*
X175250500Y-100957554D01*
X175250505Y-100957558D01*
X175288465Y-100985137D01*
X175397006Y-101063996D01*
X175500307Y-101116631D01*
X175558360Y-101146211D01*
X175558363Y-101146212D01*
X175639407Y-101172544D01*
X175730591Y-101202171D01*
X175803639Y-101213740D01*
X175890678Y-101227527D01*
X175953813Y-101257456D01*
X175990744Y-101316768D01*
X175989746Y-101386631D01*
X175951136Y-101444863D01*
X175890678Y-101472473D01*
X175730589Y-101497829D01*
X175558363Y-101553787D01*
X175558360Y-101553788D01*
X175397002Y-101636006D01*
X175250505Y-101742441D01*
X175250500Y-101742445D01*
X175122445Y-101870500D01*
X175122441Y-101870505D01*
X175016003Y-102017006D01*
X175013459Y-102021158D01*
X175011916Y-102020212D01*
X174969256Y-102065363D01*
X174901431Y-102082144D01*
X174835301Y-102059592D01*
X174819087Y-102045940D01*
X166962454Y-94189306D01*
X162777692Y-90004544D01*
X162744207Y-89943221D01*
X162749191Y-89873529D01*
X162791063Y-89817596D01*
X162796456Y-89813778D01*
X162867642Y-89766214D01*
X162965214Y-89668642D01*
X163041875Y-89553911D01*
X163094680Y-89426428D01*
X163106916Y-89364915D01*
X163121600Y-89291095D01*
X163121600Y-89153104D01*
X163094681Y-89017777D01*
X163094680Y-89017776D01*
X163094680Y-89017772D01*
X163071346Y-88961439D01*
X163041878Y-88890295D01*
X163041871Y-88890282D01*
X162965214Y-88775558D01*
X162965211Y-88775554D01*
X162882919Y-88693262D01*
X162849434Y-88631939D01*
X162846600Y-88605581D01*
X162846600Y-77825084D01*
X162846600Y-77825082D01*
X162817603Y-77716863D01*
X162761585Y-77619837D01*
X162682363Y-77540615D01*
X161591196Y-76449448D01*
X174849500Y-76449448D01*
X174849500Y-76630551D01*
X174877829Y-76809410D01*
X174933787Y-76981636D01*
X174933788Y-76981639D01*
X175016006Y-77142997D01*
X175122441Y-77289494D01*
X175122445Y-77289499D01*
X175250500Y-77417554D01*
X175250505Y-77417558D01*
X175325743Y-77472221D01*
X175397006Y-77523996D01*
X175502484Y-77577740D01*
X175558360Y-77606211D01*
X175558363Y-77606212D01*
X175600298Y-77619837D01*
X175730591Y-77662171D01*
X175813429Y-77675291D01*
X175909449Y-77690500D01*
X175909454Y-77690500D01*
X176090551Y-77690500D01*
X176177259Y-77676765D01*
X176269409Y-77662171D01*
X176441639Y-77606211D01*
X176602994Y-77523996D01*
X176749501Y-77417553D01*
X176877553Y-77289501D01*
X176983996Y-77142994D01*
X177066211Y-76981639D01*
X177122171Y-76809409D01*
X177139187Y-76701975D01*
X177150500Y-76630551D01*
X177150500Y-76449448D01*
X177124537Y-76285532D01*
X177122171Y-76270591D01*
X177070575Y-76111792D01*
X177066212Y-76098363D01*
X177066211Y-76098360D01*
X177026912Y-76021233D01*
X176983996Y-75937006D01*
X176951382Y-75892116D01*
X176877558Y-75790505D01*
X176877554Y-75790500D01*
X176749499Y-75662445D01*
X176749494Y-75662441D01*
X176602997Y-75556006D01*
X176602996Y-75556005D01*
X176602994Y-75556004D01*
X176551300Y-75529664D01*
X176441639Y-75473788D01*
X176441636Y-75473787D01*
X176269410Y-75417829D01*
X176134571Y-75396472D01*
X176071437Y-75366542D01*
X176034506Y-75307231D01*
X176035504Y-75237368D01*
X176074114Y-75179136D01*
X176138078Y-75151022D01*
X176153970Y-75149999D01*
X176894786Y-75149999D01*
X176894808Y-75149997D01*
X176919869Y-75147091D01*
X176919873Y-75147090D01*
X177022474Y-75101788D01*
X177022479Y-75101785D01*
X177101785Y-75022479D01*
X177101788Y-75022474D01*
X177147089Y-74919877D01*
X177147089Y-74919875D01*
X177149999Y-74894794D01*
X177150000Y-74894791D01*
X177150000Y-74250000D01*
X176433012Y-74250000D01*
X176465925Y-74192993D01*
X176500000Y-74065826D01*
X176500000Y-73934174D01*
X176465925Y-73807007D01*
X176433012Y-73750000D01*
X177149999Y-73750000D01*
X177149999Y-73105214D01*
X177149997Y-73105191D01*
X177147091Y-73080130D01*
X177147090Y-73080126D01*
X177101788Y-72977525D01*
X177101785Y-72977520D01*
X177022479Y-72898214D01*
X177022474Y-72898211D01*
X176919876Y-72852910D01*
X176894794Y-72850000D01*
X176250000Y-72850000D01*
X176250000Y-73566988D01*
X176192993Y-73534075D01*
X176065826Y-73500000D01*
X175934174Y-73500000D01*
X175807007Y-73534075D01*
X175750000Y-73566988D01*
X175750000Y-72850000D01*
X175105214Y-72850000D01*
X175105191Y-72850002D01*
X175080130Y-72852908D01*
X175080126Y-72852909D01*
X174977525Y-72898211D01*
X174977520Y-72898214D01*
X174898214Y-72977520D01*
X174898211Y-72977525D01*
X174852910Y-73080122D01*
X174852910Y-73080124D01*
X174850000Y-73105205D01*
X174850000Y-73750000D01*
X175566988Y-73750000D01*
X175534075Y-73807007D01*
X175500000Y-73934174D01*
X175500000Y-74065826D01*
X175534075Y-74192993D01*
X175566988Y-74250000D01*
X174850001Y-74250000D01*
X174850001Y-74894785D01*
X174850002Y-74894808D01*
X174852908Y-74919869D01*
X174852909Y-74919873D01*
X174898211Y-75022474D01*
X174898214Y-75022479D01*
X174977520Y-75101785D01*
X174977525Y-75101788D01*
X175080123Y-75147089D01*
X175105206Y-75149999D01*
X175846028Y-75149999D01*
X175913067Y-75169683D01*
X175958822Y-75222487D01*
X175968766Y-75291646D01*
X175939741Y-75355202D01*
X175880963Y-75392976D01*
X175865427Y-75396472D01*
X175730589Y-75417829D01*
X175558363Y-75473787D01*
X175558360Y-75473788D01*
X175397002Y-75556006D01*
X175250505Y-75662441D01*
X175250500Y-75662445D01*
X175122445Y-75790500D01*
X175122441Y-75790505D01*
X175016006Y-75937002D01*
X174933788Y-76098360D01*
X174933787Y-76098363D01*
X174877829Y-76270589D01*
X174849500Y-76449448D01*
X161591196Y-76449448D01*
X161358019Y-76216271D01*
X161324534Y-76154948D01*
X161321700Y-76128590D01*
X161321700Y-76012204D01*
X161294781Y-75876877D01*
X161294780Y-75876876D01*
X161294780Y-75876872D01*
X161261667Y-75796929D01*
X161241978Y-75749395D01*
X161241971Y-75749382D01*
X161165314Y-75634658D01*
X161165311Y-75634654D01*
X161067745Y-75537088D01*
X161067741Y-75537085D01*
X160953017Y-75460428D01*
X160953004Y-75460421D01*
X160825532Y-75407621D01*
X160825522Y-75407618D01*
X160690195Y-75380700D01*
X160690193Y-75380700D01*
X160552207Y-75380700D01*
X160552205Y-75380700D01*
X160416877Y-75407618D01*
X160416867Y-75407621D01*
X160289395Y-75460421D01*
X160289382Y-75460428D01*
X160174658Y-75537085D01*
X160174654Y-75537088D01*
X160077088Y-75634654D01*
X160077085Y-75634658D01*
X160000428Y-75749382D01*
X160000421Y-75749395D01*
X159947621Y-75876867D01*
X159947618Y-75876877D01*
X159920700Y-76012204D01*
X159920700Y-76012207D01*
X159920700Y-76150193D01*
X159920700Y-76150195D01*
X159920699Y-76150195D01*
X159947618Y-76285522D01*
X159947621Y-76285532D01*
X160000421Y-76413004D01*
X160000428Y-76413017D01*
X160077085Y-76527741D01*
X160077088Y-76527745D01*
X160174654Y-76625311D01*
X160174658Y-76625314D01*
X160289382Y-76701971D01*
X160289395Y-76701978D01*
X160416867Y-76754778D01*
X160416872Y-76754780D01*
X160416876Y-76754780D01*
X160416877Y-76754781D01*
X160552204Y-76781700D01*
X160668590Y-76781700D01*
X160735629Y-76801385D01*
X160756271Y-76818019D01*
X161959281Y-78021029D01*
X161992766Y-78082352D01*
X161995600Y-78108710D01*
X161995600Y-88605581D01*
X161975915Y-88672620D01*
X161959281Y-88693262D01*
X161876988Y-88775554D01*
X161876985Y-88775558D01*
X161800328Y-88890282D01*
X161800321Y-88890295D01*
X161747521Y-89017767D01*
X161747518Y-89017777D01*
X161720600Y-89153104D01*
X161720600Y-89260600D01*
X161700915Y-89327639D01*
X161648111Y-89373394D01*
X161596600Y-89384600D01*
X161051823Y-89384600D01*
X160984784Y-89364915D01*
X160939029Y-89312111D01*
X160929085Y-89242953D01*
X160951505Y-89187715D01*
X160964337Y-89170052D01*
X160983996Y-89142994D01*
X161066211Y-88981639D01*
X161122171Y-88809409D01*
X161140567Y-88693262D01*
X161150500Y-88630551D01*
X161150500Y-88449448D01*
X161124842Y-88287456D01*
X161122171Y-88270591D01*
X161066211Y-88098361D01*
X161066211Y-88098360D01*
X161035301Y-88037697D01*
X160983996Y-87937006D01*
X160970396Y-87918287D01*
X160877558Y-87790505D01*
X160877554Y-87790500D01*
X160749499Y-87662445D01*
X160749494Y-87662441D01*
X160602997Y-87556006D01*
X160602996Y-87556005D01*
X160602994Y-87556004D01*
X160536845Y-87522299D01*
X160441639Y-87473788D01*
X160441636Y-87473787D01*
X160269410Y-87417829D01*
X160137728Y-87396972D01*
X160074594Y-87367042D01*
X160037663Y-87307731D01*
X160038661Y-87237868D01*
X160077271Y-87179636D01*
X160141235Y-87151522D01*
X160157120Y-87150499D01*
X160894864Y-87150499D01*
X160894879Y-87150497D01*
X160894882Y-87150497D01*
X160919987Y-87147586D01*
X160919988Y-87147585D01*
X160919991Y-87147585D01*
X161022765Y-87102206D01*
X161102206Y-87022765D01*
X161147585Y-86919991D01*
X161150500Y-86894865D01*
X161150499Y-85105136D01*
X161150497Y-85105117D01*
X161147586Y-85080012D01*
X161147585Y-85080010D01*
X161147585Y-85080009D01*
X161102206Y-84977235D01*
X161022765Y-84897794D01*
X161022763Y-84897793D01*
X160919992Y-84852415D01*
X160894865Y-84849500D01*
X159105143Y-84849500D01*
X159105117Y-84849502D01*
X159080012Y-84852413D01*
X159080008Y-84852415D01*
X158977235Y-84897793D01*
X158897794Y-84977234D01*
X158852415Y-85080006D01*
X158852415Y-85080008D01*
X158849500Y-85105131D01*
X158849500Y-86153390D01*
X158829815Y-86220429D01*
X158777011Y-86266184D01*
X158707853Y-86276128D01*
X158644297Y-86247103D01*
X158637819Y-86241071D01*
X148464226Y-76067478D01*
X148430741Y-76006155D01*
X148435725Y-75936463D01*
X148464226Y-75892116D01*
X148508308Y-75848034D01*
X148559414Y-75796928D01*
X148661232Y-75656788D01*
X148739873Y-75502445D01*
X148793402Y-75337701D01*
X148820500Y-75166611D01*
X148820500Y-74993389D01*
X148793402Y-74822299D01*
X148739873Y-74657555D01*
X148661232Y-74503212D01*
X148559414Y-74363072D01*
X148436928Y-74240586D01*
X148296788Y-74138768D01*
X148142445Y-74060127D01*
X147977701Y-74006598D01*
X147977699Y-74006597D01*
X147977698Y-74006597D01*
X147846271Y-73985781D01*
X147806611Y-73979500D01*
X147633389Y-73979500D01*
X147593728Y-73985781D01*
X147462302Y-74006597D01*
X147297552Y-74060128D01*
X147143211Y-74138768D01*
X147068578Y-74192993D01*
X147003072Y-74240586D01*
X147003070Y-74240588D01*
X147003069Y-74240588D01*
X146880588Y-74363069D01*
X146880588Y-74363070D01*
X146880586Y-74363072D01*
X146853684Y-74400099D01*
X146778768Y-74503211D01*
X146700128Y-74657552D01*
X146646597Y-74822302D01*
X146619500Y-74993389D01*
X146619500Y-75166610D01*
X146639303Y-75291646D01*
X146646598Y-75337701D01*
X146691603Y-75476212D01*
X146700128Y-75502447D01*
X146715273Y-75532171D01*
X146778768Y-75656788D01*
X146880586Y-75796928D01*
X147003072Y-75919414D01*
X147067200Y-75966006D01*
X147143207Y-76021229D01*
X147143209Y-76021230D01*
X147143212Y-76021232D01*
X147226795Y-76063819D01*
X147277590Y-76111792D01*
X147294500Y-76174303D01*
X147294500Y-76262718D01*
X147300611Y-76285522D01*
X147323497Y-76370936D01*
X147323498Y-76370939D01*
X147354578Y-76424771D01*
X147371051Y-76492671D01*
X147348198Y-76558698D01*
X147301044Y-76596244D01*
X147301896Y-76597915D01*
X147143211Y-76678768D01*
X147111270Y-76701975D01*
X147003072Y-76780586D01*
X147003070Y-76780588D01*
X147003069Y-76780588D01*
X146880588Y-76903069D01*
X146880588Y-76903070D01*
X146880586Y-76903072D01*
X146836859Y-76963256D01*
X146778768Y-77043211D01*
X146700128Y-77197552D01*
X146646597Y-77362302D01*
X146619500Y-77533389D01*
X146619500Y-77706610D01*
X146645893Y-77873253D01*
X146646598Y-77877701D01*
X146693168Y-78021029D01*
X146700128Y-78042447D01*
X146715273Y-78072171D01*
X146778768Y-78196788D01*
X146880586Y-78336928D01*
X147003072Y-78459414D01*
X147067200Y-78506006D01*
X147143207Y-78561229D01*
X147143209Y-78561230D01*
X147143212Y-78561232D01*
X147226795Y-78603819D01*
X147277590Y-78651792D01*
X147294500Y-78714303D01*
X147294500Y-78802717D01*
X147323497Y-78910936D01*
X147323498Y-78910939D01*
X147354578Y-78964771D01*
X147371051Y-79032671D01*
X147348198Y-79098698D01*
X147301044Y-79136244D01*
X147301896Y-79137915D01*
X147143211Y-79218768D01*
X147098690Y-79251115D01*
X147003072Y-79320586D01*
X147003070Y-79320588D01*
X147003069Y-79320588D01*
X146880588Y-79443069D01*
X146880588Y-79443070D01*
X146880586Y-79443072D01*
X146836859Y-79503256D01*
X146778768Y-79583211D01*
X146700128Y-79737552D01*
X146646597Y-79902302D01*
X146629188Y-80012221D01*
X146619500Y-80073389D01*
X146619500Y-80246611D01*
X146646598Y-80417701D01*
X146696765Y-80572099D01*
X146700128Y-80582447D01*
X146715273Y-80612171D01*
X146778768Y-80736788D01*
X146880586Y-80876928D01*
X146880588Y-80876930D01*
X146975773Y-80972115D01*
X147009258Y-81033438D01*
X147004274Y-81103130D01*
X146975773Y-81147477D01*
X146314837Y-81808415D01*
X146235617Y-81887634D01*
X146235613Y-81887640D01*
X146179598Y-81984660D01*
X146179597Y-81984663D01*
X146150600Y-82092882D01*
X133399196Y-82092882D01*
X133319414Y-81983072D01*
X133196928Y-81860586D01*
X133056788Y-81758768D01*
X132902445Y-81680127D01*
X132737701Y-81626598D01*
X132737699Y-81626597D01*
X132737698Y-81626597D01*
X132606271Y-81605781D01*
X132566611Y-81599500D01*
X132393389Y-81599500D01*
X132353728Y-81605781D01*
X132222302Y-81626597D01*
X132057552Y-81680128D01*
X131903211Y-81758768D01*
X131834879Y-81808415D01*
X131763072Y-81860586D01*
X131763070Y-81860588D01*
X131763069Y-81860588D01*
X131640588Y-81983069D01*
X131640588Y-81983070D01*
X131640586Y-81983072D01*
X131596859Y-82043256D01*
X131538768Y-82123211D01*
X131460128Y-82277552D01*
X131406597Y-82442302D01*
X131379500Y-82613389D01*
X126613985Y-82613389D01*
X126619167Y-82603218D01*
X126645153Y-82552221D01*
X126686211Y-82471639D01*
X126686212Y-82471636D01*
X126695744Y-82442299D01*
X126742171Y-82299409D01*
X126767253Y-82141049D01*
X126770500Y-82120551D01*
X126770500Y-81939448D01*
X126754019Y-81835397D01*
X126742171Y-81760591D01*
X126708681Y-81657518D01*
X126686212Y-81588363D01*
X126686211Y-81588360D01*
X126643619Y-81504770D01*
X126603996Y-81427006D01*
X126565405Y-81373890D01*
X126497558Y-81280505D01*
X126497554Y-81280500D01*
X126369499Y-81152445D01*
X126369494Y-81152441D01*
X126222997Y-81046006D01*
X126222996Y-81046005D01*
X126222994Y-81046004D01*
X126131551Y-80999411D01*
X126061639Y-80963788D01*
X126061636Y-80963787D01*
X125889410Y-80907829D01*
X125729321Y-80882473D01*
X125666186Y-80852544D01*
X125629255Y-80793232D01*
X125630253Y-80723370D01*
X125668863Y-80665137D01*
X125729321Y-80637527D01*
X125799425Y-80626422D01*
X125889409Y-80612171D01*
X126061639Y-80556211D01*
X126222994Y-80473996D01*
X126369501Y-80367553D01*
X126497553Y-80239501D01*
X126603996Y-80092994D01*
X126613985Y-80073389D01*
X131379500Y-80073389D01*
X131379500Y-80246611D01*
X131406598Y-80417701D01*
X131456765Y-80572099D01*
X131460128Y-80582447D01*
X131475273Y-80612171D01*
X131538768Y-80736788D01*
X131640586Y-80876928D01*
X131763072Y-80999414D01*
X131903212Y-81101232D01*
X132057555Y-81179873D01*
X132222299Y-81233402D01*
X132393389Y-81260500D01*
X132393390Y-81260500D01*
X132566610Y-81260500D01*
X132566611Y-81260500D01*
X132737701Y-81233402D01*
X132902445Y-81179873D01*
X133056788Y-81101232D01*
X133196928Y-80999414D01*
X133319414Y-80876928D01*
X133421232Y-80736788D01*
X133499873Y-80582445D01*
X133553402Y-80417701D01*
X133580500Y-80246611D01*
X133580500Y-80073389D01*
X133553402Y-79902299D01*
X133499873Y-79737555D01*
X133421232Y-79583212D01*
X133319414Y-79443072D01*
X133196928Y-79320586D01*
X133056788Y-79218768D01*
X132902445Y-79140127D01*
X132737701Y-79086598D01*
X132737699Y-79086597D01*
X132737698Y-79086597D01*
X132606271Y-79065781D01*
X132566611Y-79059500D01*
X132393389Y-79059500D01*
X132353728Y-79065781D01*
X132222302Y-79086597D01*
X132057552Y-79140128D01*
X131903211Y-79218768D01*
X131858690Y-79251115D01*
X131763072Y-79320586D01*
X131763070Y-79320588D01*
X131763069Y-79320588D01*
X131640588Y-79443069D01*
X131640588Y-79443070D01*
X131640586Y-79443072D01*
X131596859Y-79503256D01*
X131538768Y-79583211D01*
X131460128Y-79737552D01*
X131406597Y-79902302D01*
X131389188Y-80012221D01*
X131379500Y-80073389D01*
X126613985Y-80073389D01*
X126619167Y-80063218D01*
X126645153Y-80012221D01*
X126686211Y-79931639D01*
X126686212Y-79931636D01*
X126704095Y-79876596D01*
X126742171Y-79759409D01*
X126756765Y-79667259D01*
X126770500Y-79580551D01*
X126770500Y-79399448D01*
X126754019Y-79295397D01*
X126742171Y-79220591D01*
X126698944Y-79087549D01*
X126686212Y-79048363D01*
X126686211Y-79048360D01*
X126643619Y-78964771D01*
X126603996Y-78887006D01*
X126542757Y-78802717D01*
X126497558Y-78740505D01*
X126497554Y-78740500D01*
X126369499Y-78612445D01*
X126369494Y-78612441D01*
X126222997Y-78506006D01*
X126222996Y-78506005D01*
X126222994Y-78506004D01*
X126131551Y-78459411D01*
X126061639Y-78423788D01*
X126061636Y-78423787D01*
X125889410Y-78367829D01*
X125729321Y-78342473D01*
X125666186Y-78312544D01*
X125629255Y-78253232D01*
X125630253Y-78183370D01*
X125668863Y-78125137D01*
X125729321Y-78097527D01*
X125799425Y-78086422D01*
X125889409Y-78072171D01*
X126061639Y-78016211D01*
X126222994Y-77933996D01*
X126369501Y-77827553D01*
X126497553Y-77699501D01*
X126603996Y-77552994D01*
X126613985Y-77533389D01*
X131379500Y-77533389D01*
X131379500Y-77706610D01*
X131405893Y-77873253D01*
X131406598Y-77877701D01*
X131453168Y-78021029D01*
X131460128Y-78042447D01*
X131475273Y-78072171D01*
X131538768Y-78196788D01*
X131640586Y-78336928D01*
X131763072Y-78459414D01*
X131903212Y-78561232D01*
X132057555Y-78639873D01*
X132222299Y-78693402D01*
X132393389Y-78720500D01*
X132393390Y-78720500D01*
X132566610Y-78720500D01*
X132566611Y-78720500D01*
X132737701Y-78693402D01*
X132902445Y-78639873D01*
X133056788Y-78561232D01*
X133196928Y-78459414D01*
X133319414Y-78336928D01*
X133421232Y-78196788D01*
X133499873Y-78042445D01*
X133553402Y-77877701D01*
X133580500Y-77706611D01*
X133580500Y-77533389D01*
X133553402Y-77362299D01*
X133499873Y-77197555D01*
X133421232Y-77043212D01*
X133319414Y-76903072D01*
X133196928Y-76780586D01*
X133056788Y-76678768D01*
X132902445Y-76600127D01*
X132737701Y-76546598D01*
X132737699Y-76546597D01*
X132737698Y-76546597D01*
X132606271Y-76525781D01*
X132566611Y-76519500D01*
X132393389Y-76519500D01*
X132353728Y-76525781D01*
X132222302Y-76546597D01*
X132057552Y-76600128D01*
X131903211Y-76678768D01*
X131871270Y-76701975D01*
X131763072Y-76780586D01*
X131763070Y-76780588D01*
X131763069Y-76780588D01*
X131640588Y-76903069D01*
X131640588Y-76903070D01*
X131640586Y-76903072D01*
X131596859Y-76963256D01*
X131538768Y-77043211D01*
X131460128Y-77197552D01*
X131406597Y-77362302D01*
X131379500Y-77533389D01*
X126613985Y-77533389D01*
X126619167Y-77523218D01*
X126645153Y-77472221D01*
X126686211Y-77391639D01*
X126686212Y-77391636D01*
X126719397Y-77289501D01*
X126742171Y-77219409D01*
X126756765Y-77127259D01*
X126770500Y-77040551D01*
X126770500Y-76859448D01*
X126745558Y-76701978D01*
X126742171Y-76680591D01*
X126698944Y-76547549D01*
X126686212Y-76508363D01*
X126686211Y-76508360D01*
X126637624Y-76413004D01*
X126603996Y-76347006D01*
X126559330Y-76285528D01*
X126497558Y-76200505D01*
X126497554Y-76200500D01*
X126369499Y-76072445D01*
X126369494Y-76072441D01*
X126222997Y-75966006D01*
X126222996Y-75966005D01*
X126222994Y-75966004D01*
X126131551Y-75919411D01*
X126061639Y-75883788D01*
X126061636Y-75883787D01*
X125889410Y-75827829D01*
X125729321Y-75802473D01*
X125666186Y-75772544D01*
X125629255Y-75713232D01*
X125630253Y-75643370D01*
X125668863Y-75585137D01*
X125729321Y-75557527D01*
X125799425Y-75546422D01*
X125889409Y-75532171D01*
X126061639Y-75476211D01*
X126222994Y-75393996D01*
X126369501Y-75287553D01*
X126497553Y-75159501D01*
X126603996Y-75012994D01*
X126613985Y-74993389D01*
X131379500Y-74993389D01*
X131379500Y-75166610D01*
X131399303Y-75291646D01*
X131406598Y-75337701D01*
X131451603Y-75476212D01*
X131460128Y-75502447D01*
X131475273Y-75532171D01*
X131538768Y-75656788D01*
X131640586Y-75796928D01*
X131763072Y-75919414D01*
X131903212Y-76021232D01*
X132057555Y-76099873D01*
X132222299Y-76153402D01*
X132393389Y-76180500D01*
X132393390Y-76180500D01*
X132566610Y-76180500D01*
X132566611Y-76180500D01*
X132737701Y-76153402D01*
X132902445Y-76099873D01*
X133056788Y-76021232D01*
X133196928Y-75919414D01*
X133319414Y-75796928D01*
X133421232Y-75656788D01*
X133499873Y-75502445D01*
X133553402Y-75337701D01*
X133580500Y-75166611D01*
X133580500Y-74993389D01*
X133553402Y-74822299D01*
X133499873Y-74657555D01*
X133421232Y-74503212D01*
X133319414Y-74363072D01*
X133196928Y-74240586D01*
X133056788Y-74138768D01*
X132902445Y-74060127D01*
X132737701Y-74006598D01*
X132737699Y-74006597D01*
X132737698Y-74006597D01*
X132606271Y-73985781D01*
X132566611Y-73979500D01*
X132393389Y-73979500D01*
X132353728Y-73985781D01*
X132222302Y-74006597D01*
X132057552Y-74060128D01*
X131903211Y-74138768D01*
X131828578Y-74192993D01*
X131763072Y-74240586D01*
X131763070Y-74240588D01*
X131763069Y-74240588D01*
X131640588Y-74363069D01*
X131640588Y-74363070D01*
X131640586Y-74363072D01*
X131613684Y-74400099D01*
X131538768Y-74503211D01*
X131460128Y-74657552D01*
X131406597Y-74822302D01*
X131379500Y-74993389D01*
X126613985Y-74993389D01*
X126619167Y-74983218D01*
X126645153Y-74932221D01*
X126686211Y-74851639D01*
X126686212Y-74851636D01*
X126695744Y-74822299D01*
X126742171Y-74679409D01*
X126756765Y-74587259D01*
X126770500Y-74500551D01*
X126770500Y-74319448D01*
X126754019Y-74215397D01*
X126742171Y-74140591D01*
X126698635Y-74006598D01*
X126686212Y-73968363D01*
X126686211Y-73968360D01*
X126657740Y-73912484D01*
X126603996Y-73807006D01*
X126562579Y-73750000D01*
X126497558Y-73660505D01*
X126497554Y-73660500D01*
X126369499Y-73532445D01*
X126369494Y-73532441D01*
X126222997Y-73426006D01*
X126222996Y-73426005D01*
X126222994Y-73426004D01*
X126131551Y-73379411D01*
X126061639Y-73343788D01*
X126061636Y-73343787D01*
X125889410Y-73287829D01*
X125729321Y-73262473D01*
X125666186Y-73232544D01*
X125629255Y-73173232D01*
X125630253Y-73103370D01*
X125668863Y-73045137D01*
X125729321Y-73017527D01*
X125799425Y-73006422D01*
X125889409Y-72992171D01*
X126061639Y-72936211D01*
X126222994Y-72853996D01*
X126369501Y-72747553D01*
X126497553Y-72619501D01*
X126603996Y-72472994D01*
X126613985Y-72453389D01*
X131379500Y-72453389D01*
X131379500Y-72626611D01*
X131406598Y-72797701D01*
X131456362Y-72950859D01*
X131460128Y-72962447D01*
X131475273Y-72992171D01*
X131538768Y-73116788D01*
X131640586Y-73256928D01*
X131763072Y-73379414D01*
X131903212Y-73481232D01*
X132057555Y-73559873D01*
X132222299Y-73613402D01*
X132393389Y-73640500D01*
X132393390Y-73640500D01*
X132566610Y-73640500D01*
X132566611Y-73640500D01*
X132737701Y-73613402D01*
X132902445Y-73559873D01*
X133056788Y-73481232D01*
X133196928Y-73379414D01*
X133319414Y-73256928D01*
X133421232Y-73116788D01*
X133499873Y-72962445D01*
X133553402Y-72797701D01*
X133580500Y-72626611D01*
X133580500Y-72453389D01*
X146619500Y-72453389D01*
X146619500Y-72626611D01*
X146646598Y-72797701D01*
X146696362Y-72950859D01*
X146700128Y-72962447D01*
X146715273Y-72992171D01*
X146778768Y-73116788D01*
X146880586Y-73256928D01*
X147003072Y-73379414D01*
X147143212Y-73481232D01*
X147297555Y-73559873D01*
X147462299Y-73613402D01*
X147633389Y-73640500D01*
X147633390Y-73640500D01*
X147806610Y-73640500D01*
X147806611Y-73640500D01*
X147977701Y-73613402D01*
X148142445Y-73559873D01*
X148296788Y-73481232D01*
X148436928Y-73379414D01*
X148559414Y-73256928D01*
X148661232Y-73116788D01*
X148739873Y-72962445D01*
X148793402Y-72797701D01*
X148820500Y-72626611D01*
X148820500Y-72453389D01*
X148793402Y-72282299D01*
X148739873Y-72117555D01*
X148661232Y-71963212D01*
X148559414Y-71823072D01*
X148436928Y-71700586D01*
X148296788Y-71598768D01*
X148142445Y-71520127D01*
X147977701Y-71466598D01*
X147977699Y-71466597D01*
X147977698Y-71466597D01*
X147846271Y-71445781D01*
X147806611Y-71439500D01*
X147633389Y-71439500D01*
X147593728Y-71445781D01*
X147462302Y-71466597D01*
X147297552Y-71520128D01*
X147143211Y-71598768D01*
X147063256Y-71656859D01*
X147003072Y-71700586D01*
X147003070Y-71700588D01*
X147003069Y-71700588D01*
X146880588Y-71823069D01*
X146880588Y-71823070D01*
X146880586Y-71823072D01*
X146836859Y-71883256D01*
X146778768Y-71963211D01*
X146700128Y-72117552D01*
X146646597Y-72282302D01*
X146629188Y-72392221D01*
X146619500Y-72453389D01*
X133580500Y-72453389D01*
X133553402Y-72282299D01*
X133499873Y-72117555D01*
X133421232Y-71963212D01*
X133319414Y-71823072D01*
X133196928Y-71700586D01*
X133056788Y-71598768D01*
X132902445Y-71520127D01*
X132737701Y-71466598D01*
X132737699Y-71466597D01*
X132737698Y-71466597D01*
X132606271Y-71445781D01*
X132566611Y-71439500D01*
X132393389Y-71439500D01*
X132353728Y-71445781D01*
X132222302Y-71466597D01*
X132057552Y-71520128D01*
X131903211Y-71598768D01*
X131823256Y-71656859D01*
X131763072Y-71700586D01*
X131763070Y-71700588D01*
X131763069Y-71700588D01*
X131640588Y-71823069D01*
X131640588Y-71823070D01*
X131640586Y-71823072D01*
X131596859Y-71883256D01*
X131538768Y-71963211D01*
X131460128Y-72117552D01*
X131406597Y-72282302D01*
X131389188Y-72392221D01*
X131379500Y-72453389D01*
X126613985Y-72453389D01*
X126619167Y-72443218D01*
X126645153Y-72392221D01*
X126686211Y-72311639D01*
X126686212Y-72311636D01*
X126704095Y-72256596D01*
X126742171Y-72139409D01*
X126756765Y-72047259D01*
X126770500Y-71960551D01*
X126770500Y-71779448D01*
X126754019Y-71675397D01*
X126742171Y-71600591D01*
X126698635Y-71466598D01*
X126686212Y-71428363D01*
X126686211Y-71428360D01*
X126657740Y-71372484D01*
X126603996Y-71267006D01*
X126590396Y-71248287D01*
X126497558Y-71120505D01*
X126497554Y-71120500D01*
X126369499Y-70992445D01*
X126369494Y-70992441D01*
X126222997Y-70886006D01*
X126222996Y-70886005D01*
X126222994Y-70886004D01*
X126171300Y-70859664D01*
X126061639Y-70803788D01*
X126061636Y-70803787D01*
X125889410Y-70747828D01*
X125727720Y-70722219D01*
X125664585Y-70692289D01*
X125627654Y-70632978D01*
X125628652Y-70563115D01*
X125667262Y-70504883D01*
X125727721Y-70477273D01*
X125889292Y-70451683D01*
X126061444Y-70395748D01*
X126061452Y-70395745D01*
X126222730Y-70313568D01*
X126238532Y-70302085D01*
X126238533Y-70302085D01*
X125749410Y-69812962D01*
X125812993Y-69795925D01*
X125927007Y-69730099D01*
X126020099Y-69637007D01*
X126085925Y-69522993D01*
X126102962Y-69459409D01*
X126592085Y-69948532D01*
X126603568Y-69932730D01*
X126685745Y-69771452D01*
X126685748Y-69771444D01*
X126741682Y-69599293D01*
X126770000Y-69420506D01*
X126770000Y-69239493D01*
X126741682Y-69060706D01*
X126685748Y-68888555D01*
X126685747Y-68888552D01*
X126603571Y-68727275D01*
X126603566Y-68727267D01*
X126592085Y-68711466D01*
X126102962Y-69200589D01*
X126085925Y-69137007D01*
X126020099Y-69022993D01*
X125927007Y-68929901D01*
X125812993Y-68864075D01*
X125749409Y-68847037D01*
X126238533Y-68357913D01*
X126222730Y-68346431D01*
X126061447Y-68264252D01*
X126061444Y-68264251D01*
X125889293Y-68208317D01*
X125754528Y-68186972D01*
X125691393Y-68157043D01*
X125654462Y-68097731D01*
X125655460Y-68027869D01*
X125694070Y-67969636D01*
X125758034Y-67941522D01*
X125773919Y-67940499D01*
X126514864Y-67940499D01*
X126514879Y-67940497D01*
X126514882Y-67940497D01*
X126539987Y-67937586D01*
X126539988Y-67937585D01*
X126539991Y-67937585D01*
X126642765Y-67892206D01*
X126722206Y-67812765D01*
X126767585Y-67709991D01*
X126770500Y-67684865D01*
X126770499Y-65895136D01*
X126770497Y-65895117D01*
X126767586Y-65870012D01*
X126767585Y-65870010D01*
X126767585Y-65870009D01*
X126722206Y-65767235D01*
X126642765Y-65687794D01*
X126598654Y-65668317D01*
X126539992Y-65642415D01*
X126514865Y-65639500D01*
X124725143Y-65639500D01*
X124725117Y-65639502D01*
X124700012Y-65642413D01*
X124700008Y-65642415D01*
X124597235Y-65687793D01*
X124517794Y-65767234D01*
X124472415Y-65870006D01*
X124472415Y-65870008D01*
X124469500Y-65895131D01*
X124469500Y-67684856D01*
X124469502Y-67684882D01*
X124472413Y-67709987D01*
X124472415Y-67709991D01*
X124517793Y-67812764D01*
X124517794Y-67812765D01*
X124597235Y-67892206D01*
X124700009Y-67937585D01*
X124725135Y-67940500D01*
X125466073Y-67940499D01*
X125533111Y-67960183D01*
X125578866Y-68012987D01*
X125588810Y-68082146D01*
X125559785Y-68145702D01*
X125501007Y-68183476D01*
X125485470Y-68186972D01*
X125350706Y-68208316D01*
X125178555Y-68264251D01*
X125178547Y-68264254D01*
X125017269Y-68346432D01*
X125001466Y-68357912D01*
X125001466Y-68357913D01*
X125490591Y-68847037D01*
X125427007Y-68864075D01*
X125312993Y-68929901D01*
X125219901Y-69022993D01*
X125154075Y-69137007D01*
X125137037Y-69200590D01*
X124647912Y-68711466D01*
X124636432Y-68727269D01*
X124554254Y-68888547D01*
X124554251Y-68888555D01*
X124498317Y-69060706D01*
X124470000Y-69239493D01*
X124470000Y-69420506D01*
X124498317Y-69599293D01*
X124554251Y-69771444D01*
X124554252Y-69771447D01*
X124636431Y-69932730D01*
X124647913Y-69948532D01*
X124647913Y-69948533D01*
X125137037Y-69459409D01*
X125154075Y-69522993D01*
X125219901Y-69637007D01*
X125312993Y-69730099D01*
X125427007Y-69795925D01*
X125490590Y-69812962D01*
X125001466Y-70302085D01*
X125001466Y-70302086D01*
X125017267Y-70313566D01*
X125017275Y-70313571D01*
X125178552Y-70395747D01*
X125178555Y-70395748D01*
X125350706Y-70451682D01*
X125512279Y-70477273D01*
X125575413Y-70507202D01*
X125612345Y-70566513D01*
X125611347Y-70636376D01*
X125572738Y-70694609D01*
X125512280Y-70722219D01*
X125350589Y-70747829D01*
X125178363Y-70803787D01*
X125178360Y-70803788D01*
X125017002Y-70886006D01*
X124870505Y-70992441D01*
X124870500Y-70992445D01*
X124742445Y-71120500D01*
X124742441Y-71120505D01*
X124636006Y-71267002D01*
X124553788Y-71428360D01*
X124553787Y-71428363D01*
X124497829Y-71600589D01*
X124469500Y-71779448D01*
X124469500Y-71960551D01*
X124497828Y-72139409D01*
X124535905Y-72256596D01*
X124537900Y-72326437D01*
X124505655Y-72382595D01*
X124164637Y-72723615D01*
X124085417Y-72802834D01*
X124085413Y-72802840D01*
X124029398Y-72899860D01*
X124029397Y-72899863D01*
X124000400Y-73008082D01*
X124000400Y-87525882D01*
X124000400Y-87637918D01*
X124029397Y-87746137D01*
X124085415Y-87843163D01*
X124085417Y-87843165D01*
X124854918Y-88612666D01*
X124888403Y-88673989D01*
X124883419Y-88743681D01*
X124854918Y-88788028D01*
X124742445Y-88900500D01*
X124742441Y-88900505D01*
X124636006Y-89047002D01*
X124553788Y-89208360D01*
X124553787Y-89208363D01*
X124497829Y-89380589D01*
X124469500Y-89559448D01*
X124469500Y-89740551D01*
X124497829Y-89919410D01*
X124553787Y-90091636D01*
X124553788Y-90091639D01*
X124593886Y-90170334D01*
X124627141Y-90235600D01*
X124636006Y-90252997D01*
X124742441Y-90399494D01*
X124742445Y-90399499D01*
X124870500Y-90527554D01*
X124870505Y-90527558D01*
X124939522Y-90577701D01*
X125017006Y-90633996D01*
X125122484Y-90687740D01*
X125178360Y-90716211D01*
X125178363Y-90716212D01*
X125259102Y-90742445D01*
X125350591Y-90772171D01*
X125423639Y-90783740D01*
X125510678Y-90797527D01*
X125573813Y-90827456D01*
X125610744Y-90886768D01*
X125609746Y-90956631D01*
X125571136Y-91014863D01*
X125510678Y-91042473D01*
X125350589Y-91067829D01*
X125178363Y-91123787D01*
X125178360Y-91123788D01*
X125017002Y-91206006D01*
X124870505Y-91312441D01*
X124870500Y-91312445D01*
X124742445Y-91440500D01*
X124742441Y-91440505D01*
X124636006Y-91587002D01*
X124553788Y-91748360D01*
X124553787Y-91748363D01*
X124497829Y-91920589D01*
X124469500Y-92099448D01*
X124469500Y-92280551D01*
X124497829Y-92459410D01*
X124553787Y-92631636D01*
X124553788Y-92631639D01*
X124636006Y-92792997D01*
X124742441Y-92939494D01*
X124742445Y-92939499D01*
X124870500Y-93067554D01*
X124870505Y-93067558D01*
X124939522Y-93117701D01*
X125017006Y-93173996D01*
X125122484Y-93227740D01*
X125178360Y-93256211D01*
X125178363Y-93256212D01*
X125259102Y-93282445D01*
X125350591Y-93312171D01*
X125423639Y-93323740D01*
X125510678Y-93337527D01*
X125573813Y-93367456D01*
X125610744Y-93426768D01*
X125609746Y-93496631D01*
X125571136Y-93554863D01*
X125510678Y-93582473D01*
X125350589Y-93607829D01*
X125178363Y-93663787D01*
X125178360Y-93663788D01*
X125017002Y-93746006D01*
X124870505Y-93852441D01*
X124870500Y-93852445D01*
X124742445Y-93980500D01*
X124742441Y-93980505D01*
X124636006Y-94127002D01*
X124553788Y-94288360D01*
X124553787Y-94288363D01*
X124497829Y-94460589D01*
X124469500Y-94639448D01*
X124469500Y-94820551D01*
X124497829Y-94999410D01*
X124553787Y-95171636D01*
X124553788Y-95171639D01*
X124636006Y-95332997D01*
X124742441Y-95479494D01*
X124742445Y-95479499D01*
X124870500Y-95607554D01*
X124870505Y-95607558D01*
X124939522Y-95657701D01*
X125017006Y-95713996D01*
X125122484Y-95767740D01*
X125178360Y-95796211D01*
X125178363Y-95796212D01*
X125259102Y-95822445D01*
X125350591Y-95852171D01*
X125423639Y-95863740D01*
X125510678Y-95877527D01*
X125573813Y-95907456D01*
X125610744Y-95966768D01*
X125609746Y-96036631D01*
X125571136Y-96094863D01*
X125510678Y-96122473D01*
X125350589Y-96147829D01*
X125178363Y-96203787D01*
X125178360Y-96203788D01*
X125017002Y-96286006D01*
X124870505Y-96392441D01*
X124870500Y-96392445D01*
X124742445Y-96520500D01*
X124742441Y-96520505D01*
X124636006Y-96667002D01*
X124553788Y-96828360D01*
X124553787Y-96828363D01*
X124497829Y-97000588D01*
X124494403Y-97022220D01*
X124464472Y-97085354D01*
X124405160Y-97122284D01*
X124335298Y-97121286D01*
X124284249Y-97090501D01*
X112206619Y-85012871D01*
X112173134Y-84951548D01*
X112170300Y-84925190D01*
X112170300Y-80798784D01*
X112170300Y-80798782D01*
X112141303Y-80690563D01*
X112085285Y-80593537D01*
X112006063Y-80514315D01*
X111494344Y-80002596D01*
X111460859Y-79941273D01*
X111464093Y-79876600D01*
X111502171Y-79759409D01*
X111510265Y-79708305D01*
X111530500Y-79580551D01*
X111530500Y-79399448D01*
X111514019Y-79295397D01*
X111502171Y-79220591D01*
X111458944Y-79087549D01*
X111446212Y-79048363D01*
X111446211Y-79048360D01*
X111403619Y-78964771D01*
X111363996Y-78887006D01*
X111302757Y-78802717D01*
X111257558Y-78740505D01*
X111257554Y-78740500D01*
X111129499Y-78612445D01*
X111129494Y-78612441D01*
X110982997Y-78506006D01*
X110982996Y-78506005D01*
X110982994Y-78506004D01*
X110891551Y-78459411D01*
X110821639Y-78423788D01*
X110821636Y-78423787D01*
X110649410Y-78367829D01*
X110489321Y-78342473D01*
X110426186Y-78312544D01*
X110389255Y-78253232D01*
X110390253Y-78183370D01*
X110428863Y-78125137D01*
X110489321Y-78097527D01*
X110559425Y-78086422D01*
X110649409Y-78072171D01*
X110821639Y-78016211D01*
X110982994Y-77933996D01*
X111129501Y-77827553D01*
X111257553Y-77699501D01*
X111363996Y-77552994D01*
X111446211Y-77391639D01*
X111502171Y-77219409D01*
X111516765Y-77127259D01*
X111530500Y-77040551D01*
X111530500Y-76859448D01*
X111505558Y-76701978D01*
X111502171Y-76680591D01*
X111458944Y-76547549D01*
X111446212Y-76508363D01*
X111446211Y-76508360D01*
X111397624Y-76413004D01*
X111363996Y-76347006D01*
X111319330Y-76285528D01*
X111257558Y-76200505D01*
X111257554Y-76200500D01*
X111129499Y-76072445D01*
X111129494Y-76072441D01*
X110982997Y-75966006D01*
X110982996Y-75966005D01*
X110982994Y-75966004D01*
X110891551Y-75919411D01*
X110821639Y-75883788D01*
X110821636Y-75883787D01*
X110649410Y-75827829D01*
X110489321Y-75802473D01*
X110426186Y-75772544D01*
X110389255Y-75713232D01*
X110390253Y-75643370D01*
X110428863Y-75585137D01*
X110489321Y-75557527D01*
X110559425Y-75546422D01*
X110649409Y-75532171D01*
X110821639Y-75476211D01*
X110982994Y-75393996D01*
X111129501Y-75287553D01*
X111257553Y-75159501D01*
X111363996Y-75012994D01*
X111446211Y-74851639D01*
X111502171Y-74679409D01*
X111516765Y-74587259D01*
X111530500Y-74500551D01*
X111530500Y-74319448D01*
X111514019Y-74215397D01*
X111502171Y-74140591D01*
X111458635Y-74006598D01*
X111446212Y-73968363D01*
X111446211Y-73968360D01*
X111417740Y-73912484D01*
X111363996Y-73807006D01*
X111322579Y-73750000D01*
X111257558Y-73660505D01*
X111257554Y-73660500D01*
X111129499Y-73532445D01*
X111129494Y-73532441D01*
X110982997Y-73426006D01*
X110982996Y-73426005D01*
X110982994Y-73426004D01*
X110891551Y-73379411D01*
X110821639Y-73343788D01*
X110821636Y-73343787D01*
X110649410Y-73287829D01*
X110489321Y-73262473D01*
X110426186Y-73232544D01*
X110389255Y-73173232D01*
X110390253Y-73103370D01*
X110428863Y-73045137D01*
X110489321Y-73017527D01*
X110559425Y-73006422D01*
X110649409Y-72992171D01*
X110821639Y-72936211D01*
X110982994Y-72853996D01*
X111129501Y-72747553D01*
X111257553Y-72619501D01*
X111363996Y-72472994D01*
X111446211Y-72311639D01*
X111502171Y-72139409D01*
X111516765Y-72047259D01*
X111530500Y-71960551D01*
X111530500Y-71779448D01*
X111514019Y-71675397D01*
X111502171Y-71600591D01*
X111458635Y-71466598D01*
X111446212Y-71428363D01*
X111446211Y-71428360D01*
X111417740Y-71372484D01*
X111363996Y-71267006D01*
X111350396Y-71248287D01*
X111257558Y-71120505D01*
X111257554Y-71120500D01*
X111129499Y-70992445D01*
X111129494Y-70992441D01*
X110982997Y-70886006D01*
X110982996Y-70886005D01*
X110982994Y-70886004D01*
X110931300Y-70859664D01*
X110821639Y-70803788D01*
X110821636Y-70803787D01*
X110649410Y-70747829D01*
X110489321Y-70722473D01*
X110426186Y-70692544D01*
X110389255Y-70633232D01*
X110390253Y-70563370D01*
X110428863Y-70505137D01*
X110489321Y-70477527D01*
X110559425Y-70466422D01*
X110649409Y-70452171D01*
X110821639Y-70396211D01*
X110982994Y-70313996D01*
X111129501Y-70207553D01*
X111257553Y-70079501D01*
X111363996Y-69932994D01*
X111446211Y-69771639D01*
X111502171Y-69599409D01*
X111516765Y-69507259D01*
X111530500Y-69420551D01*
X111530500Y-69239448D01*
X111502189Y-69060706D01*
X111502171Y-69060591D01*
X111446273Y-68888552D01*
X111446212Y-68888363D01*
X111446211Y-68888360D01*
X111416474Y-68830000D01*
X111363996Y-68727006D01*
X111350396Y-68708287D01*
X111257558Y-68580505D01*
X111257554Y-68580500D01*
X111129499Y-68452445D01*
X111129494Y-68452441D01*
X110982997Y-68346006D01*
X110982996Y-68346005D01*
X110982994Y-68346004D01*
X110931300Y-68319664D01*
X110821639Y-68263788D01*
X110821636Y-68263787D01*
X110649410Y-68207828D01*
X110487720Y-68182219D01*
X110424585Y-68152289D01*
X110387654Y-68092978D01*
X110388652Y-68023115D01*
X110427262Y-67964883D01*
X110487721Y-67937273D01*
X110649292Y-67911683D01*
X110821444Y-67855748D01*
X110821452Y-67855745D01*
X110982730Y-67773568D01*
X110998532Y-67762085D01*
X110998533Y-67762085D01*
X110509410Y-67272962D01*
X110572993Y-67255925D01*
X110687007Y-67190099D01*
X110780099Y-67097007D01*
X110845925Y-66982993D01*
X110862962Y-66919409D01*
X111352085Y-67408532D01*
X111363568Y-67392730D01*
X111445745Y-67231452D01*
X111445748Y-67231444D01*
X111501682Y-67059293D01*
X111530000Y-66880506D01*
X111530000Y-66699493D01*
X111501682Y-66520706D01*
X111445748Y-66348555D01*
X111445747Y-66348552D01*
X111363571Y-66187275D01*
X111363566Y-66187267D01*
X111352085Y-66171466D01*
X110862962Y-66660589D01*
X110845925Y-66597007D01*
X110780099Y-66482993D01*
X110687007Y-66389901D01*
X110572993Y-66324075D01*
X110509409Y-66307037D01*
X110998533Y-65817913D01*
X110982730Y-65806431D01*
X110821447Y-65724252D01*
X110821444Y-65724251D01*
X110649293Y-65668317D01*
X110470506Y-65640000D01*
X110289494Y-65640000D01*
X110110706Y-65668317D01*
X109938555Y-65724251D01*
X109938547Y-65724254D01*
X109777269Y-65806432D01*
X109761466Y-65817912D01*
X109761466Y-65817913D01*
X110250591Y-66307037D01*
X110187007Y-66324075D01*
X110072993Y-66389901D01*
X109979901Y-66482993D01*
X109914075Y-66597007D01*
X109897037Y-66660590D01*
X109407913Y-66171466D01*
X109407912Y-66171466D01*
X109396432Y-66187269D01*
X109314254Y-66348547D01*
X109314251Y-66348555D01*
X109258317Y-66520706D01*
X109230000Y-66699493D01*
X109230000Y-66880506D01*
X109258317Y-67059293D01*
X109314251Y-67231444D01*
X109314252Y-67231447D01*
X109396431Y-67392730D01*
X109407913Y-67408532D01*
X109407913Y-67408533D01*
X109897037Y-66919408D01*
X109914075Y-66982993D01*
X109979901Y-67097007D01*
X110072993Y-67190099D01*
X110187007Y-67255925D01*
X110250590Y-67272962D01*
X109761466Y-67762085D01*
X109761466Y-67762086D01*
X109777267Y-67773566D01*
X109777275Y-67773571D01*
X109938552Y-67855747D01*
X109938555Y-67855748D01*
X110110706Y-67911682D01*
X110272279Y-67937273D01*
X110335413Y-67967202D01*
X110372345Y-68026513D01*
X110371347Y-68096376D01*
X110332738Y-68154609D01*
X110272280Y-68182219D01*
X110110589Y-68207829D01*
X109938363Y-68263787D01*
X109938360Y-68263788D01*
X109777002Y-68346006D01*
X109630505Y-68452441D01*
X109630500Y-68452445D01*
X109502445Y-68580500D01*
X109502441Y-68580505D01*
X109396006Y-68727002D01*
X109313788Y-68888360D01*
X109313787Y-68888363D01*
X109257829Y-69060589D01*
X109229500Y-69239448D01*
X98500500Y-69239448D01*
X98500500Y-62878711D01*
X101149500Y-62878711D01*
X101149500Y-63121288D01*
X101181161Y-63361785D01*
X101243947Y-63596104D01*
X101336773Y-63820205D01*
X101336776Y-63820212D01*
X101458064Y-64030289D01*
X101458066Y-64030292D01*
X101458067Y-64030293D01*
X101605733Y-64222736D01*
X101605739Y-64222743D01*
X101777256Y-64394260D01*
X101777262Y-64394265D01*
X101969711Y-64541936D01*
X102179788Y-64663224D01*
X102403900Y-64756054D01*
X102638211Y-64818838D01*
X102818586Y-64842584D01*
X102878711Y-64850500D01*
X102878712Y-64850500D01*
X103121289Y-64850500D01*
X103169388Y-64844167D01*
X103361789Y-64818838D01*
X103596100Y-64756054D01*
X103820212Y-64663224D01*
X104030289Y-64541936D01*
X104222738Y-64394265D01*
X104394265Y-64222738D01*
X104541936Y-64030289D01*
X104663224Y-63820212D01*
X104756054Y-63596100D01*
X104818838Y-63361789D01*
X104850500Y-63121288D01*
X104850500Y-62878712D01*
X104850500Y-62878711D01*
X175149500Y-62878711D01*
X175149500Y-63121288D01*
X175181161Y-63361785D01*
X175243947Y-63596104D01*
X175336773Y-63820205D01*
X175336776Y-63820212D01*
X175458064Y-64030289D01*
X175458066Y-64030292D01*
X175458067Y-64030293D01*
X175605733Y-64222736D01*
X175605739Y-64222743D01*
X175777256Y-64394260D01*
X175777262Y-64394265D01*
X175969711Y-64541936D01*
X176179788Y-64663224D01*
X176403900Y-64756054D01*
X176638211Y-64818838D01*
X176818586Y-64842584D01*
X176878711Y-64850500D01*
X176878712Y-64850500D01*
X177121289Y-64850500D01*
X177169388Y-64844167D01*
X177361789Y-64818838D01*
X177596100Y-64756054D01*
X177820212Y-64663224D01*
X178030289Y-64541936D01*
X178222738Y-64394265D01*
X178394265Y-64222738D01*
X178541936Y-64030289D01*
X178663224Y-63820212D01*
X178756054Y-63596100D01*
X178818838Y-63361789D01*
X178850500Y-63121288D01*
X178850500Y-62878712D01*
X178818838Y-62638211D01*
X178756054Y-62403900D01*
X178663224Y-62179788D01*
X178541936Y-61969711D01*
X178394265Y-61777262D01*
X178394260Y-61777256D01*
X178222743Y-61605739D01*
X178222736Y-61605733D01*
X178030293Y-61458067D01*
X178030292Y-61458066D01*
X178030289Y-61458064D01*
X177820212Y-61336776D01*
X177820205Y-61336773D01*
X177596104Y-61243947D01*
X177361785Y-61181161D01*
X177121289Y-61149500D01*
X177121288Y-61149500D01*
X176878712Y-61149500D01*
X176878711Y-61149500D01*
X176638214Y-61181161D01*
X176403895Y-61243947D01*
X176179794Y-61336773D01*
X176179785Y-61336777D01*
X175969706Y-61458067D01*
X175777263Y-61605733D01*
X175777256Y-61605739D01*
X175605739Y-61777256D01*
X175605733Y-61777263D01*
X175458067Y-61969706D01*
X175336777Y-62179785D01*
X175336773Y-62179794D01*
X175243947Y-62403895D01*
X175181161Y-62638214D01*
X175149500Y-62878711D01*
X104850500Y-62878711D01*
X104818838Y-62638211D01*
X104756054Y-62403900D01*
X104663224Y-62179788D01*
X104541936Y-61969711D01*
X104394265Y-61777262D01*
X104394260Y-61777256D01*
X104222743Y-61605739D01*
X104222736Y-61605733D01*
X104030293Y-61458067D01*
X104030292Y-61458066D01*
X104030289Y-61458064D01*
X103820212Y-61336776D01*
X103820205Y-61336773D01*
X103596104Y-61243947D01*
X103361785Y-61181161D01*
X103121289Y-61149500D01*
X103121288Y-61149500D01*
X102878712Y-61149500D01*
X102878711Y-61149500D01*
X102638214Y-61181161D01*
X102403895Y-61243947D01*
X102179794Y-61336773D01*
X102179785Y-61336777D01*
X101969706Y-61458067D01*
X101777263Y-61605733D01*
X101777256Y-61605739D01*
X101605739Y-61777256D01*
X101605733Y-61777263D01*
X101458067Y-61969706D01*
X101336777Y-62179785D01*
X101336773Y-62179794D01*
X101243947Y-62403895D01*
X101181161Y-62638214D01*
X101149500Y-62878711D01*
X98500500Y-62878711D01*
X98500500Y-57624500D01*
X98520185Y-57557461D01*
X98572989Y-57511706D01*
X98624500Y-57500500D01*
X181375500Y-57500500D01*
X181442539Y-57520185D01*
G37*
%TD.AperFunction*%
%TD*%
M02*
