%TF.GenerationSoftware,KiCad,Pcbnew,9.0.5*%
%TF.CreationDate,2026-06-22T13:43:08-07:00*%
%TF.ProjectId,nova_pcb_v6_logic,6e6f7661-5f70-4636-925f-76365f6c6f67,rev?*%
%TF.SameCoordinates,Original*%
%TF.FileFunction,Legend,Bot*%
%TF.FilePolarity,Positive*%
%FSLAX46Y46*%
G04 Gerber Fmt 4.6, Leading zero omitted, Abs format (unit mm)*
G04 Created by KiCad (PCBNEW 9.0.5) date 2026-06-22 13:43:08*
%MOMM*%
%LPD*%
G01*
G04 APERTURE LIST*
%ADD10C,0.150000*%
%ADD11C,0.120000*%
G04 APERTURE END LIST*
D10*
X167841666Y-106134819D02*
X168174999Y-105658628D01*
X168413094Y-106134819D02*
X168413094Y-105134819D01*
X168413094Y-105134819D02*
X168032142Y-105134819D01*
X168032142Y-105134819D02*
X167936904Y-105182438D01*
X167936904Y-105182438D02*
X167889285Y-105230057D01*
X167889285Y-105230057D02*
X167841666Y-105325295D01*
X167841666Y-105325295D02*
X167841666Y-105468152D01*
X167841666Y-105468152D02*
X167889285Y-105563390D01*
X167889285Y-105563390D02*
X167936904Y-105611009D01*
X167936904Y-105611009D02*
X168032142Y-105658628D01*
X168032142Y-105658628D02*
X168413094Y-105658628D01*
X166936904Y-105134819D02*
X167413094Y-105134819D01*
X167413094Y-105134819D02*
X167460713Y-105611009D01*
X167460713Y-105611009D02*
X167413094Y-105563390D01*
X167413094Y-105563390D02*
X167317856Y-105515771D01*
X167317856Y-105515771D02*
X167079761Y-105515771D01*
X167079761Y-105515771D02*
X166984523Y-105563390D01*
X166984523Y-105563390D02*
X166936904Y-105611009D01*
X166936904Y-105611009D02*
X166889285Y-105706247D01*
X166889285Y-105706247D02*
X166889285Y-105944342D01*
X166889285Y-105944342D02*
X166936904Y-106039580D01*
X166936904Y-106039580D02*
X166984523Y-106087200D01*
X166984523Y-106087200D02*
X167079761Y-106134819D01*
X167079761Y-106134819D02*
X167317856Y-106134819D01*
X167317856Y-106134819D02*
X167413094Y-106087200D01*
X167413094Y-106087200D02*
X167460713Y-106039580D01*
X166741666Y-97384819D02*
X167074999Y-96908628D01*
X167313094Y-97384819D02*
X167313094Y-96384819D01*
X167313094Y-96384819D02*
X166932142Y-96384819D01*
X166932142Y-96384819D02*
X166836904Y-96432438D01*
X166836904Y-96432438D02*
X166789285Y-96480057D01*
X166789285Y-96480057D02*
X166741666Y-96575295D01*
X166741666Y-96575295D02*
X166741666Y-96718152D01*
X166741666Y-96718152D02*
X166789285Y-96813390D01*
X166789285Y-96813390D02*
X166836904Y-96861009D01*
X166836904Y-96861009D02*
X166932142Y-96908628D01*
X166932142Y-96908628D02*
X167313094Y-96908628D01*
X166408332Y-96384819D02*
X165789285Y-96384819D01*
X165789285Y-96384819D02*
X166122618Y-96765771D01*
X166122618Y-96765771D02*
X165979761Y-96765771D01*
X165979761Y-96765771D02*
X165884523Y-96813390D01*
X165884523Y-96813390D02*
X165836904Y-96861009D01*
X165836904Y-96861009D02*
X165789285Y-96956247D01*
X165789285Y-96956247D02*
X165789285Y-97194342D01*
X165789285Y-97194342D02*
X165836904Y-97289580D01*
X165836904Y-97289580D02*
X165884523Y-97337200D01*
X165884523Y-97337200D02*
X165979761Y-97384819D01*
X165979761Y-97384819D02*
X166265475Y-97384819D01*
X166265475Y-97384819D02*
X166360713Y-97337200D01*
X166360713Y-97337200D02*
X166408332Y-97289580D01*
X169341666Y-102884819D02*
X169674999Y-102408628D01*
X169913094Y-102884819D02*
X169913094Y-101884819D01*
X169913094Y-101884819D02*
X169532142Y-101884819D01*
X169532142Y-101884819D02*
X169436904Y-101932438D01*
X169436904Y-101932438D02*
X169389285Y-101980057D01*
X169389285Y-101980057D02*
X169341666Y-102075295D01*
X169341666Y-102075295D02*
X169341666Y-102218152D01*
X169341666Y-102218152D02*
X169389285Y-102313390D01*
X169389285Y-102313390D02*
X169436904Y-102361009D01*
X169436904Y-102361009D02*
X169532142Y-102408628D01*
X169532142Y-102408628D02*
X169913094Y-102408628D01*
X168484523Y-102218152D02*
X168484523Y-102884819D01*
X168722618Y-101837200D02*
X168960713Y-102551485D01*
X168960713Y-102551485D02*
X168341666Y-102551485D01*
D11*
%TO.C,R5*%
X167437742Y-103727500D02*
X167912258Y-103727500D01*
X167437742Y-104772500D02*
X167912258Y-104772500D01*
%TO.C,R3*%
X166337742Y-94977500D02*
X166812258Y-94977500D01*
X166337742Y-96022500D02*
X166812258Y-96022500D01*
%TO.C,R4*%
X168937742Y-100477500D02*
X169412258Y-100477500D01*
X168937742Y-101522500D02*
X169412258Y-101522500D01*
%TD*%
M02*
