solid OpenSCAD_Model
  facet normal -1 0 0
    outer loop
      vertex -27 -49.16193976625565 68.25865828381745
      vertex -27 -49.190392640201615 68.35245483899193
      vertex -27 -49.2 68.45
    endloop
  endfacet
  facet normal -1 0 0
    outer loop
      vertex -27 -49.16193976625565 68.25865828381745
      vertex -27 -48.97778511650981 68.03426519384873
      vertex -27 -49.11573480615127 68.1722148834902
    endloop
  endfacet
  facet normal -1 0 0
    outer loop
      vertex -27 -49.11573480615127 68.1722148834902
      vertex -27 -48.97778511650981 68.03426519384873
      vertex -27 -49.05355339059328 68.09644660940673
    endloop
  endfacet
  facet normal -1 0 0
    outer loop
      vertex -27 -49.16193976625565 68.25865828381745
      vertex -27 -49.2 68.45
      vertex -27 -48.97778511650981 68.03426519384873
    endloop
  endfacet
  facet normal -1 0 0
    outer loop
      vertex -27 -48.97778511650981 68.03426519384873
      vertex -27 -48.79754516100807 67.95960735979838
      vertex -27 -48.891341716182545 67.98806023374436
    endloop
  endfacet
  facet normal -1 0 0
    outer loop
      vertex -27 -49.2 68.45
      vertex -27 -48.5 67.95
      vertex -27 -48.97778511650981 68.03426519384873
    endloop
  endfacet
  facet normal -1 0 0
    outer loop
      vertex -27 -48.97778511650981 68.03426519384873
      vertex -27 -48.5 67.95
      vertex -27 -48.79754516100807 67.95960735979838
    endloop
  endfacet
  facet normal -1 0 0
    outer loop
      vertex -27 -48.79754516100807 67.95960735979838
      vertex -27 -48.5 67.95
      vertex -27 -48.7 67.95
    endloop
  endfacet
  facet normal -1 0 0
    outer loop
      vertex -27 -48.5 67.95
      vertex -27 -48.222214883490196 68.03426519384873
      vertex -27 -48.402454838991936 67.95960735979838
    endloop
  endfacet
  facet normal -1 0 0
    outer loop
      vertex -27 -48.402454838991936 67.95960735979838
      vertex -27 -48.222214883490196 68.03426519384873
      vertex -27 -48.30865828381746 67.98806023374436
    endloop
  endfacet
  facet normal -1 0 0
    outer loop
      vertex -27 -48.5 67.95
      vertex -27 -48.00960735979839 68.35245483899193
      vertex -27 -48.222214883490196 68.03426519384873
    endloop
  endfacet
  facet normal -1 0 0
    outer loop
      vertex -27 -48.222214883490196 68.03426519384873
      vertex -27 -48.08426519384873 68.1722148834902
      vertex -27 -48.14644660940672 68.09644660940673
    endloop
  endfacet
  facet normal -1 0 0
    outer loop
      vertex -27 -48.222214883490196 68.03426519384873
      vertex -27 -48.00960735979839 68.35245483899193
      vertex -27 -48.08426519384873 68.1722148834902
    endloop
  endfacet
  facet normal -1 0 0
    outer loop
      vertex -27 -48.08426519384873 68.1722148834902
      vertex -27 -48.00960735979839 68.35245483899193
      vertex -27 -48.03806023374435 68.25865828381745
    endloop
  endfacet
  facet normal -1 0 0
    outer loop
      vertex -27 -49.2 68.45
      vertex -27 -49.2 71.35000000000001
      vertex -27 -49.190392640201615 71.44754516100808
    endloop
  endfacet
  facet normal -1 0 0
    outer loop
      vertex -27 -49.2 68.45
      vertex -27 -49.190392640201615 71.44754516100808
      vertex -27 -48.7 71.85000000000001
    endloop
  endfacet
  facet normal -1 0 0
    outer loop
      vertex -27 -49.190392640201615 71.44754516100808
      vertex -27 -49.16193976625565 71.54134171618256
      vertex -27 -49.05355339059328 71.70355339059329
    endloop
  endfacet
  facet normal -1 0 0
    outer loop
      vertex -27 -49.16193976625565 71.54134171618256
      vertex -27 -49.11573480615127 71.62778511650981
      vertex -27 -49.05355339059328 71.70355339059329
    endloop
  endfacet
  facet normal -1 0 0
    outer loop
      vertex -27 -49.190392640201615 71.44754516100808
      vertex -27 -49.05355339059328 71.70355339059329
      vertex -27 -48.7 71.85000000000001
    endloop
  endfacet
  facet normal -1 0 0
    outer loop
      vertex -27 -49.05355339059328 71.70355339059329
      vertex -27 -48.97778511650981 71.76573480615129
      vertex -27 -48.891341716182545 71.81193976625565
    endloop
  endfacet
  facet normal -1 0 0
    outer loop
      vertex -27 -49.05355339059328 71.70355339059329
      vertex -27 -48.891341716182545 71.81193976625565
      vertex -27 -48.7 71.85000000000001
    endloop
  endfacet
  facet normal -1 0 0
    outer loop
      vertex -27 -49.2 68.45
      vertex -27 -48.7 71.85000000000001
      vertex -27 -48.5 67.95
    endloop
  endfacet
  facet normal -1 0 0
    outer loop
      vertex -27 -48.5 67.95
      vertex -27 -48 71.35000000000001
      vertex -27 -48.00960735979839 68.35245483899193
    endloop
  endfacet
  facet normal -1 0 0
    outer loop
      vertex -27 -48.00960735979839 68.35245483899193
      vertex -27 -48 71.35000000000001
      vertex -27 -48 68.45
    endloop
  endfacet
  facet normal -1 0 0
    outer loop
      vertex -27 -48.5 67.95
      vertex -27 -48.7 71.85000000000001
      vertex -27 -48 71.35000000000001
    endloop
  endfacet
  facet normal -1 0 0
    outer loop
      vertex -27 -48.891341716182545 71.81193976625565
      vertex -27 -48.79754516100807 71.84039264020163
      vertex -27 -48.7 71.85000000000001
    endloop
  endfacet
  facet normal -1 0 0
    outer loop
      vertex -27 -48.7 71.85000000000001
      vertex -27 -48.5 71.85000000000001
      vertex -27 -48.402454838991936 71.84039264020163
    endloop
  endfacet
  facet normal -1 0 0
    outer loop
      vertex -27 -48.7 71.85000000000001
      vertex -27 -48.402454838991936 71.84039264020163
      vertex -27 -48.222214883490196 71.76573480615129
    endloop
  endfacet
  facet normal -1 0 0
    outer loop
      vertex -27 -48.7 71.85000000000001
      vertex -27 -48.222214883490196 71.76573480615129
      vertex -27 -48 71.35000000000001
    endloop
  endfacet
  facet normal -1 0 0
    outer loop
      vertex -27 -48.402454838991936 71.84039264020163
      vertex -27 -48.30865828381746 71.81193976625565
      vertex -27 -48.222214883490196 71.76573480615129
    endloop
  endfacet
  facet normal -1 0 0
    outer loop
      vertex -27 -48 71.35000000000001
      vertex -27 -48.03806023374435 71.54134171618256
      vertex -27 -48.00960735979839 71.44754516100808
    endloop
  endfacet
  facet normal -1 0 0
    outer loop
      vertex -27 -48.222214883490196 71.76573480615129
      vertex -27 -48.08426519384873 71.62778511650981
      vertex -27 -48 71.35000000000001
    endloop
  endfacet
  facet normal -1 0 0
    outer loop
      vertex -27 -48.222214883490196 71.76573480615129
      vertex -27 -48.14644660940672 71.70355339059329
      vertex -27 -48.08426519384873 71.62778511650981
    endloop
  endfacet
  facet normal -1 0 0
    outer loop
      vertex -27 -48 71.35000000000001
      vertex -27 -48.08426519384873 71.62778511650981
      vertex -27 -48.03806023374435 71.54134171618256
    endloop
  endfacet
  facet normal 0 0 -1
    outer loop
      vertex -27 -48.7 67.95
      vertex -27 -48.5 67.95
      vertex 27 -48.7 67.95
    endloop
  endfacet
  facet normal 0 0.09801714032951596 -0.9951847266722013
    outer loop
      vertex -27 -48.5 67.95
      vertex -27 -48.402454838991936 67.95960735979838
      vertex 27 -48.5 67.95
    endloop
  endfacet
  facet normal -3.451317285628577e-20 0.2902846772545475 -0.9569403357321831
    outer loop
      vertex -27 -48.402454838991936 67.95960735979838
      vertex -27 -48.30865828381746 67.98806023374436
      vertex 27 -48.30865828381746 67.98806023374436
    endloop
  endfacet
  facet normal 0 0.47139673682590105 -0.8819212643484067
    outer loop
      vertex -27 -48.30865828381746 67.98806023374436
      vertex -27 -48.222214883490196 68.03426519384873
      vertex 27 -48.30865828381746 67.98806023374436
    endloop
  endfacet
  facet normal -2.9828138635113815e-20 0.6343932841636607 -0.7730104533627244
    outer loop
      vertex -27 -48.222214883490196 68.03426519384873
      vertex -27 -48.14644660940672 68.09644660940673
      vertex 27 -48.14644660940672 68.09644660940673
    endloop
  endfacet
  facet normal 0 0.7730104533627601 -0.6343932841636174
    outer loop
      vertex -27 -48.14644660940672 68.09644660940673
      vertex -27 -48.08426519384873 68.1722148834902
      vertex 27 -48.14644660940672 68.09644660940673
    endloop
  endfacet
  facet normal 7.75951258484761e-20 0.8819212643483303 -0.471396736826044
    outer loop
      vertex -27 -48.08426519384873 68.1722148834902
      vertex -27 -48.03806023374435 68.25865828381745
      vertex 27 -48.03806023374435 68.25865828381745
    endloop
  endfacet
  facet normal 0 0.9569403357322231 -0.2902846772544147
    outer loop
      vertex -27 -48.03806023374435 68.25865828381745
      vertex -27 -48.00960735979839 68.35245483899193
      vertex 27 -48.03806023374435 68.25865828381745
    endloop
  endfacet
  facet normal 4.702621300388693e-21 0.9951847266721949 -0.0980171403295807
    outer loop
      vertex -27 -48.00960735979839 68.35245483899193
      vertex -27 -48 68.45
      vertex 27 -48 68.45
    endloop
  endfacet
  facet normal 0 1 0
    outer loop
      vertex -27 -48 68.45
      vertex -27 -48 71.35000000000001
      vertex 27 -48 71.35000000000001
    endloop
  endfacet
  facet normal 0 0 1
    outer loop
      vertex -27 -48.7 71.85000000000001
      vertex 27 -48.5 71.85000000000001
      vertex -27 -48.5 71.85000000000001
    endloop
  endfacet
  facet normal 2.4176856443133205e-21 0.09801714032951596 0.9951847266722013
    outer loop
      vertex -27 -48.5 71.85000000000001
      vertex 27 -48.402454838991936 71.84039264020163
      vertex -27 -48.402454838991936 71.84039264020163
    endloop
  endfacet
  facet normal 3.451317285628577e-20 0.2902846772545475 0.9569403357321831
    outer loop
      vertex -27 -48.402454838991936 71.84039264020163
      vertex 27 -48.30865828381746 71.81193976625565
      vertex -27 -48.30865828381746 71.81193976625565
    endloop
  endfacet
  facet normal 0 0.47139673682590105 0.8819212643484067
    outer loop
      vertex -27 -48.30865828381746 71.81193976625565
      vertex 27 -48.30865828381746 71.81193976625565
      vertex -27 -48.222214883490196 71.76573480615129
    endloop
  endfacet
  facet normal -4.702621300388693e-21 0.9951847266721949 0.0980171403295807
    outer loop
      vertex -27 -48 71.35000000000001
      vertex -27 -48.00960735979839 71.44754516100808
      vertex 27 -48.00960735979839 71.44754516100808
    endloop
  endfacet
  facet normal -2.0365610734267935e-20 0.7730104533627601 0.6343932841636174
    outer loop
      vertex -27 -48.14644660940672 71.70355339059329
      vertex 27 -48.08426519384873 71.62778511650981
      vertex -27 -48.08426519384873 71.62778511650981
    endloop
  endfacet
  facet normal 2.9828138635113815e-20 0.6343932841636607 0.7730104533627244
    outer loop
      vertex -27 -48.222214883490196 71.76573480615129
      vertex 27 -48.14644660940672 71.70355339059329
      vertex -27 -48.14644660940672 71.70355339059329
    endloop
  endfacet
  facet normal 0 0.8819212643483303 0.471396736826044
    outer loop
      vertex -27 -48.08426519384873 71.62778511650981
      vertex 27 -48.08426519384873 71.62778511650981
      vertex -27 -48.03806023374435 71.54134171618256
    endloop
  endfacet
  facet normal -4.363798719063265e-21 0.9569403357322231 0.2902846772544147
    outer loop
      vertex -27 -48.00960735979839 71.44754516100808
      vertex -27 -48.03806023374435 71.54134171618256
      vertex 27 -48.03806023374435 71.54134171618256
    endloop
  endfacet
  facet normal 0 0 -1
    outer loop
      vertex -27 -48.5 67.95
      vertex 27 -48.5 67.95
      vertex 27 -48.7 67.95
    endloop
  endfacet
  facet normal 0 0.09801714032951596 -0.9951847266722013
    outer loop
      vertex -27 -48.402454838991936 67.95960735979838
      vertex 27 -48.402454838991936 67.95960735979838
      vertex 27 -48.5 67.95
    endloop
  endfacet
  facet normal 0 0.2902846772545475 -0.9569403357321831
    outer loop
      vertex -27 -48.402454838991936 67.95960735979838
      vertex 27 -48.30865828381746 67.98806023374436
      vertex 27 -48.402454838991936 67.95960735979838
    endloop
  endfacet
  facet normal 0 0.47139673682590105 -0.8819212643484067
    outer loop
      vertex -27 -48.222214883490196 68.03426519384873
      vertex 27 -48.222214883490196 68.03426519384873
      vertex 27 -48.30865828381746 67.98806023374436
    endloop
  endfacet
  facet normal 0 0.6343932841636607 -0.7730104533627244
    outer loop
      vertex -27 -48.222214883490196 68.03426519384873
      vertex 27 -48.14644660940672 68.09644660940673
      vertex 27 -48.222214883490196 68.03426519384873
    endloop
  endfacet
  facet normal 0 0.7730104533627601 -0.6343932841636174
    outer loop
      vertex -27 -48.08426519384873 68.1722148834902
      vertex 27 -48.08426519384873 68.1722148834902
      vertex 27 -48.14644660940672 68.09644660940673
    endloop
  endfacet
  facet normal 0 0.8819212643483303 -0.471396736826044
    outer loop
      vertex -27 -48.08426519384873 68.1722148834902
      vertex 27 -48.03806023374435 68.25865828381745
      vertex 27 -48.08426519384873 68.1722148834902
    endloop
  endfacet
  facet normal 0 0.9569403357322231 -0.2902846772544147
    outer loop
      vertex -27 -48.00960735979839 68.35245483899193
      vertex 27 -48.00960735979839 68.35245483899193
      vertex 27 -48.03806023374435 68.25865828381745
    endloop
  endfacet
  facet normal 0 0.9951847266721949 -0.0980171403295807
    outer loop
      vertex -27 -48.00960735979839 68.35245483899193
      vertex 27 -48 68.45
      vertex 27 -48.00960735979839 68.35245483899193
    endloop
  endfacet
  facet normal 0 1 0
    outer loop
      vertex -27 -48 68.45
      vertex 27 -48 71.35000000000001
      vertex 27 -48 68.45
    endloop
  endfacet
  facet normal 0 0.09801714032951596 0.9951847266722013
    outer loop
      vertex -27 -48.5 71.85000000000001
      vertex 27 -48.5 71.85000000000001
      vertex 27 -48.402454838991936 71.84039264020163
    endloop
  endfacet
  facet normal 0 0.2902846772545475 0.9569403357321831
    outer loop
      vertex -27 -48.402454838991936 71.84039264020163
      vertex 27 -48.402454838991936 71.84039264020163
      vertex 27 -48.30865828381746 71.81193976625565
    endloop
  endfacet
  facet normal 0 0.47139673682590105 0.8819212643484067
    outer loop
      vertex -27 -48.222214883490196 71.76573480615129
      vertex 27 -48.30865828381746 71.81193976625565
      vertex 27 -48.222214883490196 71.76573480615129
    endloop
  endfacet
  facet normal 0 0.9951847266721949 0.0980171403295807
    outer loop
      vertex -27 -48 71.35000000000001
      vertex 27 -48.00960735979839 71.44754516100808
      vertex 27 -48 71.35000000000001
    endloop
  endfacet
  facet normal 0 0.9569403357322231 0.2902846772544147
    outer loop
      vertex -27 -48.00960735979839 71.44754516100808
      vertex 27 -48.03806023374435 71.54134171618256
      vertex 27 -48.00960735979839 71.44754516100808
    endloop
  endfacet
  facet normal 0 0.6343932841636607 0.7730104533627244
    outer loop
      vertex -27 -48.222214883490196 71.76573480615129
      vertex 27 -48.222214883490196 71.76573480615129
      vertex 27 -48.14644660940672 71.70355339059329
    endloop
  endfacet
  facet normal 0 0.7730104533627601 0.6343932841636174
    outer loop
      vertex -27 -48.14644660940672 71.70355339059329
      vertex 27 -48.14644660940672 71.70355339059329
      vertex 27 -48.08426519384873 71.62778511650981
    endloop
  endfacet
  facet normal 0 0.8819212643483303 0.471396736826044
    outer loop
      vertex -27 -48.03806023374435 71.54134171618256
      vertex 27 -48.08426519384873 71.62778511650981
      vertex 27 -48.03806023374435 71.54134171618256
    endloop
  endfacet
  facet normal 1 0 0
    outer loop
      vertex 27 -49.16193976625565 68.25865828381745
      vertex 27 -49.11573480615127 68.1722148834902
      vertex 27 -49.190392640201615 68.35245483899193
    endloop
  endfacet
  facet normal 1 0 0
    outer loop
      vertex 27 -49.190392640201615 68.35245483899193
      vertex 27 -49.11573480615127 68.1722148834902
      vertex 27 -48.97778511650981 68.03426519384873
    endloop
  endfacet
  facet normal 1 0 0
    outer loop
      vertex 27 -49.11573480615127 68.1722148834902
      vertex 27 -49.05355339059328 68.09644660940673
      vertex 27 -48.97778511650981 68.03426519384873
    endloop
  endfacet
  facet normal 1 0 0
    outer loop
      vertex 27 -48.97778511650981 68.03426519384873
      vertex 27 -48.891341716182545 67.98806023374436
      vertex 27 -48.79754516100807 67.95960735979838
    endloop
  endfacet
  facet normal 1 0 0
    outer loop
      vertex 27 -48.97778511650981 68.03426519384873
      vertex 27 -48.79754516100807 67.95960735979838
      vertex 27 -48.7 67.95
    endloop
  endfacet
  facet normal 1 0 0
    outer loop
      vertex 27 -49.190392640201615 68.35245483899193
      vertex 27 -48.97778511650981 68.03426519384873
      vertex 27 -48.7 67.95
    endloop
  endfacet
  facet normal 1 0 0
    outer loop
      vertex 27 -49.190392640201615 68.35245483899193
      vertex 27 -48.7 67.95
      vertex 27 -48.03806023374435 68.25865828381745
    endloop
  endfacet
  facet normal 1 0 0
    outer loop
      vertex 27 -48.7 67.95
      vertex 27 -48.5 67.95
      vertex 27 -48.30865828381746 67.98806023374436
    endloop
  endfacet
  facet normal 1 0 0
    outer loop
      vertex 27 -48.5 67.95
      vertex 27 -48.402454838991936 67.95960735979838
      vertex 27 -48.30865828381746 67.98806023374436
    endloop
  endfacet
  facet normal 1 0 0
    outer loop
      vertex 27 -48.7 67.95
      vertex 27 -48.30865828381746 67.98806023374436
      vertex 27 -48.03806023374435 68.25865828381745
    endloop
  endfacet
  facet normal 1 0 0
    outer loop
      vertex 27 -48.30865828381746 67.98806023374436
      vertex 27 -48.222214883490196 68.03426519384873
      vertex 27 -48.14644660940672 68.09644660940673
    endloop
  endfacet
  facet normal 1 0 0
    outer loop
      vertex 27 -48.30865828381746 67.98806023374436
      vertex 27 -48.14644660940672 68.09644660940673
      vertex 27 -48.03806023374435 68.25865828381745
    endloop
  endfacet
  facet normal 1 0 0
    outer loop
      vertex 27 -48.14644660940672 68.09644660940673
      vertex 27 -48.08426519384873 68.1722148834902
      vertex 27 -48.03806023374435 68.25865828381745
    endloop
  endfacet
  facet normal 1 0 0
    outer loop
      vertex 27 -48.03806023374435 68.25865828381745
      vertex 27 -48.00960735979839 68.35245483899193
      vertex 27 -48 68.45
    endloop
  endfacet
  facet normal 1 0 0
    outer loop
      vertex 27 -49.190392640201615 68.35245483899193
      vertex 27 -49.2 71.35000000000001
      vertex 27 -49.2 68.45
    endloop
  endfacet
  facet normal 1 0 0
    outer loop
      vertex 27 -49.190392640201615 68.35245483899193
      vertex 27 -49.16193976625565 71.54134171618256
      vertex 27 -49.2 71.35000000000001
    endloop
  endfacet
  facet normal 1 0 0
    outer loop
      vertex 27 -49.2 71.35000000000001
      vertex 27 -49.16193976625565 71.54134171618256
      vertex 27 -49.190392640201615 71.44754516100808
    endloop
  endfacet
  facet normal 1 0 0
    outer loop
      vertex 27 -49.16193976625565 71.54134171618256
      vertex 27 -49.05355339059328 71.70355339059329
      vertex 27 -49.11573480615127 71.62778511650981
    endloop
  endfacet
  facet normal 1 0 0
    outer loop
      vertex 27 -49.16193976625565 71.54134171618256
      vertex 27 -48.891341716182545 71.81193976625565
      vertex 27 -49.05355339059328 71.70355339059329
    endloop
  endfacet
  facet normal 1 0 0
    outer loop
      vertex 27 -49.05355339059328 71.70355339059329
      vertex 27 -48.891341716182545 71.81193976625565
      vertex 27 -48.97778511650981 71.76573480615129
    endloop
  endfacet
  facet normal 1 0 0
    outer loop
      vertex 27 -49.16193976625565 71.54134171618256
      vertex 27 -48.402454838991936 71.84039264020163
      vertex 27 -48.891341716182545 71.81193976625565
    endloop
  endfacet
  facet normal 1 0 0
    outer loop
      vertex 27 -49.190392640201615 68.35245483899193
      vertex 27 -48.03806023374435 68.25865828381745
      vertex 27 -48 71.35000000000001
    endloop
  endfacet
  facet normal 1 0 0
    outer loop
      vertex 27 -49.190392640201615 68.35245483899193
      vertex 27 -48 71.35000000000001
      vertex 27 -49.16193976625565 71.54134171618256
    endloop
  endfacet
  facet normal 1 0 0
    outer loop
      vertex 27 -48.03806023374435 68.25865828381745
      vertex 27 -48 68.45
      vertex 27 -48 71.35000000000001
    endloop
  endfacet
  facet normal 1 0 0
    outer loop
      vertex 27 -48.891341716182545 71.81193976625565
      vertex 27 -48.7 71.85000000000001
      vertex 27 -48.79754516100807 71.84039264020163
    endloop
  endfacet
  facet normal 1 0 0
    outer loop
      vertex 27 -48.891341716182545 71.81193976625565
      vertex 27 -48.402454838991936 71.84039264020163
      vertex 27 -48.7 71.85000000000001
    endloop
  endfacet
  facet normal 1 0 0
    outer loop
      vertex 27 -49.16193976625565 71.54134171618256
      vertex 27 -48 71.35000000000001
      vertex 27 -48.402454838991936 71.84039264020163
    endloop
  endfacet
  facet normal 1 0 0
    outer loop
      vertex 27 -48.7 71.85000000000001
      vertex 27 -48.402454838991936 71.84039264020163
      vertex 27 -48.5 71.85000000000001
    endloop
  endfacet
  facet normal 1 0 0
    outer loop
      vertex 27 -48.402454838991936 71.84039264020163
      vertex 27 -48.222214883490196 71.76573480615129
      vertex 27 -48.30865828381746 71.81193976625565
    endloop
  endfacet
  facet normal 1 0 0
    outer loop
      vertex 27 -48.402454838991936 71.84039264020163
      vertex 27 -48.14644660940672 71.70355339059329
      vertex 27 -48.222214883490196 71.76573480615129
    endloop
  endfacet
  facet normal 1 0 0
    outer loop
      vertex 27 -48 71.35000000000001
      vertex 27 -48.00960735979839 71.44754516100808
      vertex 27 -48.03806023374435 71.54134171618256
    endloop
  endfacet
  facet normal 1 0 0
    outer loop
      vertex 27 -48.402454838991936 71.84039264020163
      vertex 27 -48 71.35000000000001
      vertex 27 -48.14644660940672 71.70355339059329
    endloop
  endfacet
  facet normal 1 0 0
    outer loop
      vertex 27 -48.14644660940672 71.70355339059329
      vertex 27 -48 71.35000000000001
      vertex 27 -48.03806023374435 71.54134171618256
    endloop
  endfacet
  facet normal 1 0 0
    outer loop
      vertex 27 -48.14644660940672 71.70355339059329
      vertex 27 -48.03806023374435 71.54134171618256
      vertex 27 -48.08426519384873 71.62778511650981
    endloop
  endfacet
  facet normal 0.0980171403295791 6.649530652788964e-19 0.9951847266721949
    outer loop
      vertex -5.331653547427418 -52.5 61.08266502331451
      vertex -5 -52.5 61.05
      vertex -5 -50.9 61.05
    endloop
  endfacet
  facet normal 0.6343932841636815 1.4962456569903353e-18 0.7730104533627075
    outer loop
      vertex -5.944469396133323 -52.5 61.33650165908567
      vertex -6 -50.9 61.382074447920964
      vertex -6 -52.5 61.382074447920964
    endloop
  endfacet
  facet normal 0.4713967368259858 6.2911677082816765e-18 0.8819212643483614
    outer loop
      vertex -5.944469396133323 -52.5 61.33650165908567
      vertex -5.650561835020652 -52.5 61.179404794730814
      vertex -5.650561835020652 -50.9 61.179404794730814
    endloop
  endfacet
  facet normal 0.29028467725445856 0 0.95694033573221
    outer loop
      vertex -5.331653547427418 -52.5 61.08266502331451
      vertex -5.331653547427418 -50.9 61.08266502331451
      vertex -5.650561835020652 -52.5 61.179404794730814
    endloop
  endfacet
  facet normal -0.0980171403295791 -6.649530652788964e-19 0.9951847266721949
    outer loop
      vertex -5 -52.5 61.05
      vertex -4.668346452572582 -52.5 61.08266502331451
      vertex -4.668346452572582 -50.9 61.08266502331451
    endloop
  endfacet
  facet normal -0.29028467725445856 2.338464178660622e-18 0.95694033573221
    outer loop
      vertex -4.668346452572582 -52.5 61.08266502331451
      vertex -4.349438164979348 -52.5 61.179404794730814
      vertex -4.349438164979348 -50.9 61.179404794730814
    endloop
  endfacet
  facet normal -0.4713967368259858 -6.2911677082816765e-18 0.8819212643483614
    outer loop
      vertex -4.349438164979348 -52.5 61.179404794730814
      vertex -4.055530603866677 -52.5 61.33650165908567
      vertex -4.055530603866677 -50.9 61.33650165908567
    endloop
  endfacet
  facet normal -0.6343932841636482 -3.233105957475553e-18 0.7730104533627349
    outer loop
      vertex -4.055530603866677 -52.5 61.33650165908567
      vertex -3.797918471982869 -52.5 61.54791847198287
      vertex -3.797918471982869 -50.9 61.54791847198287
    endloop
  endfacet
  facet normal -0.7730104533627419 1.633476144373971e-19 0.6343932841636395
    outer loop
      vertex -3.797918471982869 -52.5 61.54791847198287
      vertex -3.5865016590856733 -52.5 61.80553060386668
      vertex -3.5865016590856733 -50.9 61.80553060386668
    endloop
  endfacet
  facet normal -0.8819212643483529 -1.1403378601398522e-18 0.47139673682600164
    outer loop
      vertex -3.5865016590856733 -52.5 61.80553060386668
      vertex -3.4294047947308126 -52.5 62.09943816497935
      vertex -3.4294047947308126 -50.9 62.09943816497935
    endloop
  endfacet
  facet normal 0.0980171403295791 0 0.9951847266721949
    outer loop
      vertex -5.331653547427418 -52.5 61.08266502331451
      vertex -5 -50.9 61.05
      vertex -5.331653547427418 -50.9 61.08266502331451
    endloop
  endfacet
  facet normal 0.6343932841636815 0 0.7730104533627075
    outer loop
      vertex -5.944469396133323 -52.5 61.33650165908567
      vertex -5.944469396133323 -50.9 61.33650165908567
      vertex -6 -50.9 61.382074447920964
    endloop
  endfacet
  facet normal 0.29028467725445856 0 0.95694033573221
    outer loop
      vertex -5.650561835020652 -52.5 61.179404794730814
      vertex -5.331653547427418 -50.9 61.08266502331451
      vertex -5.650561835020652 -50.9 61.179404794730814
    endloop
  endfacet
  facet normal 0.4713967368259858 0 0.8819212643483614
    outer loop
      vertex -5.944469396133323 -52.5 61.33650165908567
      vertex -5.650561835020652 -50.9 61.179404794730814
      vertex -5.944469396133323 -50.9 61.33650165908567
    endloop
  endfacet
  facet normal -0.0980171403295791 0 0.9951847266721949
    outer loop
      vertex -5 -52.5 61.05
      vertex -4.668346452572582 -50.9 61.08266502331451
      vertex -5 -50.9 61.05
    endloop
  endfacet
  facet normal -0.29028467725445856 0 0.95694033573221
    outer loop
      vertex -4.668346452572582 -52.5 61.08266502331451
      vertex -4.349438164979348 -50.9 61.179404794730814
      vertex -4.668346452572582 -50.9 61.08266502331451
    endloop
  endfacet
  facet normal -0.4713967368259858 0 0.8819212643483614
    outer loop
      vertex -4.349438164979348 -52.5 61.179404794730814
      vertex -4.055530603866677 -50.9 61.33650165908567
      vertex -4.349438164979348 -50.9 61.179404794730814
    endloop
  endfacet
  facet normal -0.6343932841636482 0 0.7730104533627349
    outer loop
      vertex -4.055530603866677 -52.5 61.33650165908567
      vertex -3.797918471982869 -50.9 61.54791847198287
      vertex -4.055530603866677 -50.9 61.33650165908567
    endloop
  endfacet
  facet normal -0.7730104533627419 0 0.6343932841636395
    outer loop
      vertex -3.797918471982869 -52.5 61.54791847198287
      vertex -3.5865016590856733 -50.9 61.80553060386668
      vertex -3.797918471982869 -50.9 61.54791847198287
    endloop
  endfacet
  facet normal -0.8819212643483529 0 0.47139673682600164
    outer loop
      vertex -3.5865016590856733 -52.5 61.80553060386668
      vertex -3.4294047947308126 -50.9 62.09943816497935
      vertex -3.5865016590856733 -50.9 61.80553060386668
    endloop
  endfacet
  facet normal -0.9569403357322079 0 -0.2902846772544657
    outer loop
      vertex -3.4294047947308126 -52.5 63.40056183502065
      vertex -3.4294047947308126 -50.9 63.40056183502065
      vertex -3.332665023314508 -52.5 63.08165354742742
    endloop
  endfacet
  facet normal -0.9569403357322097 0 0.2902846772544598
    outer loop
      vertex -3.4294047947308126 -52.5 62.09943816497935
      vertex -3.332665023314508 -50.9 62.418346452572585
      vertex -3.4294047947308126 -50.9 62.09943816497935
    endloop
  endfacet
  facet normal -0.8819212643483529 0 -0.47139673682600164
    outer loop
      vertex -3.4294047947308126 -52.5 63.40056183502065
      vertex -3.5865016590856733 -50.9 63.69446939613332
      vertex -3.4294047947308126 -50.9 63.40056183502065
    endloop
  endfacet
  facet normal -0.9569403357322097 3.0408643816572288e-18 0.2902846772544598
    outer loop
      vertex -3.4294047947308126 -52.5 62.09943816497935
      vertex -3.332665023314508 -52.5 62.418346452572585
      vertex -3.332665023314508 -50.9 62.418346452572585
    endloop
  endfacet
  facet normal -0.9951847266721968 8.176529928049551e-19 0.09801714032956167
    outer loop
      vertex -3.332665023314508 -52.5 62.418346452572585
      vertex -3.3 -52.5 62.75
      vertex -3.3 -50.9 62.75
    endloop
  endfacet
  facet normal -0.995184726672197 -1.5376197041005475e-19 -0.0980171403295596
    outer loop
      vertex -3.3 -52.5 62.75
      vertex -3.332665023314508 -52.5 63.08165354742742
      vertex -3.332665023314508 -50.9 63.08165354742742
    endloop
  endfacet
  facet normal -0.9951847266721968 0 0.09801714032956167
    outer loop
      vertex -3.332665023314508 -52.5 62.418346452572585
      vertex -3.3 -50.9 62.75
      vertex -3.332665023314508 -50.9 62.418346452572585
    endloop
  endfacet
  facet normal -0.995184726672197 0 -0.0980171403295596
    outer loop
      vertex -3.3 -52.5 62.75
      vertex -3.332665023314508 -50.9 63.08165354742742
      vertex -3.3 -50.9 62.75
    endloop
  endfacet
  facet normal -0.9569403357322079 0 -0.2902846772544657
    outer loop
      vertex -3.332665023314508 -52.5 63.08165354742742
      vertex -3.4294047947308126 -50.9 63.40056183502065
      vertex -3.332665023314508 -50.9 63.08165354742742
    endloop
  endfacet
  facet normal 0.6343932841636223 -7.922290803678185e-19 -0.7730104533627559
    outer loop
      vertex -6 -52.5 64.11792555207904
      vertex -5.944469396133323 -50.9 64.16349834091433
      vertex -5.944469396133323 -52.5 64.16349834091433
    endloop
  endfacet
  facet normal 0.4713967368259858 0 -0.8819212643483614
    outer loop
      vertex -5.944469396133323 -52.5 64.16349834091433
      vertex -5.944469396133323 -50.9 64.16349834091433
      vertex -5.650561835020652 -52.5 64.32059520526919
    endloop
  endfacet
  facet normal -0.8819212643483529 1.1403378601398522e-18 -0.47139673682600164
    outer loop
      vertex -3.4294047947308126 -52.5 63.40056183502065
      vertex -3.5865016590856733 -52.5 63.69446939613332
      vertex -3.5865016590856733 -50.9 63.69446939613332
    endloop
  endfacet
  facet normal -0.7730104533627419 -1.633476144373971e-19 -0.6343932841636395
    outer loop
      vertex -3.5865016590856733 -52.5 63.69446939613332
      vertex -3.797918471982869 -52.5 63.95208152801713
      vertex -3.797918471982869 -50.9 63.95208152801713
    endloop
  endfacet
  facet normal -0.6343932841636482 3.233105957475553e-18 -0.7730104533627349
    outer loop
      vertex -3.797918471982869 -52.5 63.95208152801713
      vertex -4.055530603866677 -52.5 64.16349834091433
      vertex -4.055530603866677 -50.9 64.16349834091433
    endloop
  endfacet
  facet normal 0.2902846772544781 0 -0.9569403357322042
    outer loop
      vertex -5.650561835020652 -52.5 64.32059520526919
      vertex -5.650561835020652 -50.9 64.32059520526919
      vertex -5.331653547427418 -52.5 64.4173349766855
    endloop
  endfacet
  facet normal 0.09801714032955798 0 -0.995184726672197
    outer loop
      vertex -5.331653547427418 -52.5 64.4173349766855
      vertex -5.331653547427418 -50.9 64.4173349766855
      vertex -5 -52.5 64.45
    endloop
  endfacet
  facet normal -0.4713967368259858 6.2911677082816765e-18 -0.8819212643483614
    outer loop
      vertex -4.055530603866677 -52.5 64.16349834091433
      vertex -4.349438164979348 -52.5 64.32059520526919
      vertex -4.349438164979348 -50.9 64.32059520526919
    endloop
  endfacet
  facet normal -0.2902846772544781 -3.1464178637610232e-18 -0.9569403357322042
    outer loop
      vertex -4.349438164979348 -52.5 64.32059520526919
      vertex -4.668346452572582 -52.5 64.4173349766855
      vertex -4.668346452572582 -50.9 64.4173349766855
    endloop
  endfacet
  facet normal -0.09801714032955798 0 -0.995184726672197
    outer loop
      vertex -5 -52.5 64.45
      vertex -5 -50.9 64.45
      vertex -4.668346452572582 -52.5 64.4173349766855
    endloop
  endfacet
  facet normal 0.6343932841636223 0 -0.7730104533627559
    outer loop
      vertex -6 -52.5 64.11792555207904
      vertex -6 -50.9 64.11792555207904
      vertex -5.944469396133323 -50.9 64.16349834091433
    endloop
  endfacet
  facet normal -0.7730104533627419 0 -0.6343932841636395
    outer loop
      vertex -3.5865016590856733 -52.5 63.69446939613332
      vertex -3.797918471982869 -50.9 63.95208152801713
      vertex -3.5865016590856733 -50.9 63.69446939613332
    endloop
  endfacet
  facet normal -0.6343932841636482 0 -0.7730104533627349
    outer loop
      vertex -3.797918471982869 -52.5 63.95208152801713
      vertex -4.055530603866677 -50.9 64.16349834091433
      vertex -3.797918471982869 -50.9 63.95208152801713
    endloop
  endfacet
  facet normal -0.4713967368259858 0 -0.8819212643483614
    outer loop
      vertex -4.055530603866677 -52.5 64.16349834091433
      vertex -4.349438164979348 -50.9 64.32059520526919
      vertex -4.055530603866677 -50.9 64.16349834091433
    endloop
  endfacet
  facet normal 0.4713967368259858 0 -0.8819212643483614
    outer loop
      vertex -5.650561835020652 -52.5 64.32059520526919
      vertex -5.944469396133323 -50.9 64.16349834091433
      vertex -5.650561835020652 -50.9 64.32059520526919
    endloop
  endfacet
  facet normal 0.2902846772544781 0 -0.9569403357322042
    outer loop
      vertex -5.331653547427418 -52.5 64.4173349766855
      vertex -5.650561835020652 -50.9 64.32059520526919
      vertex -5.331653547427418 -50.9 64.4173349766855
    endloop
  endfacet
  facet normal 0.09801714032955798 0 -0.995184726672197
    outer loop
      vertex -5 -52.5 64.45
      vertex -5.331653547427418 -50.9 64.4173349766855
      vertex -5 -50.9 64.45
    endloop
  endfacet
  facet normal -0.2902846772544781 0 -0.9569403357322042
    outer loop
      vertex -4.349438164979348 -52.5 64.32059520526919
      vertex -4.668346452572582 -50.9 64.4173349766855
      vertex -4.349438164979348 -50.9 64.32059520526919
    endloop
  endfacet
  facet normal -0.09801714032955798 0 -0.995184726672197
    outer loop
      vertex -4.668346452572582 -52.5 64.4173349766855
      vertex -5 -50.9 64.45
      vertex -4.668346452572582 -50.9 64.4173349766855
    endloop
  endfacet
  facet normal 0.0980171403295791 6.649530652788964e-19 0.9951847266721949
    outer loop
      vertex 4.668346452572582 -52.5 61.08266502331451
      vertex 5 -52.5 61.05
      vertex 5 -50.9 61.05
    endloop
  endfacet
  facet normal 0.6343932841636495 0 0.7730104533627338
    outer loop
      vertex 4.055530603866677 -52.5 61.33650165908567
      vertex 4.055530603866677 -50.9 61.33650165908567
      vertex 3.79791847198287 -52.5 61.54791847198287
    endloop
  endfacet
  facet normal 0.29028467725445783 0 0.9569403357322104
    outer loop
      vertex 4.668346452572582 -52.5 61.08266502331451
      vertex 4.668346452572582 -50.9 61.08266502331451
      vertex 4.349438164979347 -52.5 61.179404794730814
    endloop
  endfacet
  facet normal 0.4713967368259869 -5.311558473359329e-18 0.8819212643483607
    outer loop
      vertex 4.055530603866677 -52.5 61.33650165908567
      vertex 4.349438164979347 -52.5 61.179404794730814
      vertex 4.349438164979347 -50.9 61.179404794730814
    endloop
  endfacet
  facet normal -0.0980171403295791 -6.649530652788964e-19 0.9951847266721949
    outer loop
      vertex 5 -52.5 61.05
      vertex 5.331653547427418 -52.5 61.08266502331451
      vertex 5.331653547427418 -50.9 61.08266502331451
    endloop
  endfacet
  facet normal -0.29028467725445783 8.118770013095488e-19 0.9569403357322104
    outer loop
      vertex 5.331653547427418 -52.5 61.08266502331451
      vertex 5.650561835020653 -52.5 61.179404794730814
      vertex 5.650561835020653 -50.9 61.179404794730814
    endloop
  endfacet
  facet normal -0.4713967368259869 5.311558473359329e-18 0.8819212643483607
    outer loop
      vertex 5.650561835020653 -52.5 61.179404794730814
      vertex 5.944469396133323 -52.5 61.33650165908567
      vertex 5.944469396133323 -50.9 61.33650165908567
    endloop
  endfacet
  facet normal -0.6343932841636815 0 0.7730104533627075
    outer loop
      vertex 5.944469396133323 -52.5 61.33650165908567
      vertex 6 -52.5 61.382074447920964
      vertex 5.944469396133323 -50.9 61.33650165908567
    endloop
  endfacet
  facet normal 0.7730104533627407 0 0.634393284163641
    outer loop
      vertex 3.79791847198287 -52.5 61.54791847198287
      vertex 3.79791847198287 -50.9 61.54791847198287
      vertex 3.5865016590856733 -52.5 61.80553060386668
    endloop
  endfacet
  facet normal 0.8819212643483529 0 0.47139673682600164
    outer loop
      vertex 3.5865016590856733 -52.5 61.80553060386668
      vertex 3.5865016590856733 -50.9 61.80553060386668
      vertex 3.4294047947308126 -52.5 62.09943816497935
    endloop
  endfacet
  facet normal 0.0980171403295791 0 0.9951847266721949
    outer loop
      vertex 4.668346452572582 -52.5 61.08266502331451
      vertex 5 -50.9 61.05
      vertex 4.668346452572582 -50.9 61.08266502331451
    endloop
  endfacet
  facet normal 0.4713967368259869 0 0.8819212643483607
    outer loop
      vertex 4.055530603866677 -52.5 61.33650165908567
      vertex 4.349438164979347 -50.9 61.179404794730814
      vertex 4.055530603866677 -50.9 61.33650165908567
    endloop
  endfacet
  facet normal 0.29028467725445783 0 0.9569403357322104
    outer loop
      vertex 4.349438164979347 -52.5 61.179404794730814
      vertex 4.668346452572582 -50.9 61.08266502331451
      vertex 4.349438164979347 -50.9 61.179404794730814
    endloop
  endfacet
  facet normal -0.0980171403295791 0 0.9951847266721949
    outer loop
      vertex 5 -52.5 61.05
      vertex 5.331653547427418 -50.9 61.08266502331451
      vertex 5 -50.9 61.05
    endloop
  endfacet
  facet normal -0.29028467725445783 0 0.9569403357322104
    outer loop
      vertex 5.331653547427418 -52.5 61.08266502331451
      vertex 5.650561835020653 -50.9 61.179404794730814
      vertex 5.331653547427418 -50.9 61.08266502331451
    endloop
  endfacet
  facet normal -0.4713967368259869 0 0.8819212643483607
    outer loop
      vertex 5.650561835020653 -52.5 61.179404794730814
      vertex 5.944469396133323 -50.9 61.33650165908567
      vertex 5.650561835020653 -50.9 61.179404794730814
    endloop
  endfacet
  facet normal -0.6343932841636815 0 0.7730104533627075
    outer loop
      vertex 6 -52.5 61.382074447920964
      vertex 6 -50.9 61.382074447920964
      vertex 5.944469396133323 -50.9 61.33650165908567
    endloop
  endfacet
  facet normal 0.6343932841636495 0 0.7730104533627338
    outer loop
      vertex 3.79791847198287 -52.5 61.54791847198287
      vertex 4.055530603866677 -50.9 61.33650165908567
      vertex 3.79791847198287 -50.9 61.54791847198287
    endloop
  endfacet
  facet normal 0.7730104533627407 0 0.634393284163641
    outer loop
      vertex 3.5865016590856733 -52.5 61.80553060386668
      vertex 3.79791847198287 -50.9 61.54791847198287
      vertex 3.5865016590856733 -50.9 61.80553060386668
    endloop
  endfacet
  facet normal 0.8819212643483529 0 0.47139673682600164
    outer loop
      vertex 3.4294047947308126 -52.5 62.09943816497935
      vertex 3.5865016590856733 -50.9 61.80553060386668
      vertex 3.4294047947308126 -50.9 62.09943816497935
    endloop
  endfacet
  facet normal 0.9951847266721969 0 0.09801714032955902
    outer loop
      vertex 3.332665023314508 -52.5 62.418346452572585
      vertex 3.332665023314508 -50.9 62.418346452572585
      vertex 3.3000000000000007 -52.5 62.75
    endloop
  endfacet
  facet normal 0.9951847266721973 0 -0.09801714032955695
    outer loop
      vertex 3.3000000000000007 -52.5 62.75
      vertex 3.3000000000000007 -50.9 62.75
      vertex 3.332665023314508 -52.5 63.08165354742742
    endloop
  endfacet
  facet normal 0.9569403357322079 0 -0.2902846772544657
    outer loop
      vertex 3.332665023314508 -52.5 63.08165354742742
      vertex 3.332665023314508 -50.9 63.08165354742742
      vertex 3.4294047947308126 -52.5 63.40056183502065
    endloop
  endfacet
  facet normal 0.9569403357322097 0 0.2902846772544598
    outer loop
      vertex 3.332665023314508 -52.5 62.418346452572585
      vertex 3.4294047947308126 -50.9 62.09943816497935
      vertex 3.332665023314508 -50.9 62.418346452572585
    endloop
  endfacet
  facet normal 0.9951847266721969 0 0.09801714032955902
    outer loop
      vertex 3.3000000000000007 -52.5 62.75
      vertex 3.332665023314508 -50.9 62.418346452572585
      vertex 3.3000000000000007 -50.9 62.75
    endloop
  endfacet
  facet normal 0.9951847266721973 0 -0.09801714032955695
    outer loop
      vertex 3.332665023314508 -52.5 63.08165354742742
      vertex 3.3000000000000007 -50.9 62.75
      vertex 3.332665023314508 -50.9 63.08165354742742
    endloop
  endfacet
  facet normal 0.9569403357322097 0 0.2902846772544598
    outer loop
      vertex 3.4294047947308126 -52.5 62.09943816497935
      vertex 3.4294047947308126 -50.9 62.09943816497935
      vertex 3.332665023314508 -52.5 62.418346452572585
    endloop
  endfacet
  facet normal 0.8819212643483529 0 -0.47139673682600164
    outer loop
      vertex 3.4294047947308126 -52.5 63.40056183502065
      vertex 3.4294047947308126 -50.9 63.40056183502065
      vertex 3.5865016590856733 -52.5 63.69446939613332
    endloop
  endfacet
  facet normal 0.9569403357322079 0 -0.2902846772544657
    outer loop
      vertex 3.4294047947308126 -52.5 63.40056183502065
      vertex 3.332665023314508 -50.9 63.08165354742742
      vertex 3.4294047947308126 -50.9 63.40056183502065
    endloop
  endfacet
  facet normal 0.7730104533627407 0 -0.634393284163641
    outer loop
      vertex 3.5865016590856733 -52.5 63.69446939613332
      vertex 3.5865016590856733 -50.9 63.69446939613332
      vertex 3.79791847198287 -52.5 63.95208152801713
    endloop
  endfacet
  facet normal 0.6343932841636495 0 -0.7730104533627338
    outer loop
      vertex 3.79791847198287 -52.5 63.95208152801713
      vertex 3.79791847198287 -50.9 63.95208152801713
      vertex 4.055530603866677 -52.5 64.16349834091433
    endloop
  endfacet
  facet normal 0.4713967368259869 0 -0.8819212643483607
    outer loop
      vertex 4.055530603866677 -52.5 64.16349834091433
      vertex 4.055530603866677 -50.9 64.16349834091433
      vertex 4.349438164979347 -52.5 64.32059520526919
    endloop
  endfacet
  facet normal -0.6343932841636223 0 -0.7730104533627559
    outer loop
      vertex 6 -52.5 64.11792555207904
      vertex 5.944469396133323 -52.5 64.16349834091433
      vertex 6 -50.9 64.11792555207904
    endloop
  endfacet
  facet normal 0.2902846772544774 0 -0.9569403357322044
    outer loop
      vertex 4.349438164979347 -52.5 64.32059520526919
      vertex 4.349438164979347 -50.9 64.32059520526919
      vertex 4.668346452572582 -52.5 64.4173349766855
    endloop
  endfacet
  facet normal 0.09801714032955798 0 -0.995184726672197
    outer loop
      vertex 4.668346452572582 -52.5 64.4173349766855
      vertex 4.668346452572582 -50.9 64.4173349766855
      vertex 5 -52.5 64.45
    endloop
  endfacet
  facet normal -0.2902846772544774 -1.6198306864217931e-18 -0.9569403357322044
    outer loop
      vertex 5.650561835020653 -52.5 64.32059520526919
      vertex 5.331653547427418 -52.5 64.4173349766855
      vertex 5.331653547427418 -50.9 64.4173349766855
    endloop
  endfacet
  facet normal -0.4713967368259869 -5.311558473359329e-18 -0.8819212643483607
    outer loop
      vertex 5.944469396133323 -52.5 64.16349834091433
      vertex 5.650561835020653 -52.5 64.32059520526919
      vertex 5.650561835020653 -50.9 64.32059520526919
    endloop
  endfacet
  facet normal -0.09801714032955798 0 -0.995184726672197
    outer loop
      vertex 5 -52.5 64.45
      vertex 5 -50.9 64.45
      vertex 5.331653547427418 -52.5 64.4173349766855
    endloop
  endfacet
  facet normal 0.8819212643483529 0 -0.47139673682600164
    outer loop
      vertex 3.5865016590856733 -52.5 63.69446939613332
      vertex 3.4294047947308126 -50.9 63.40056183502065
      vertex 3.5865016590856733 -50.9 63.69446939613332
    endloop
  endfacet
  facet normal 0.7730104533627407 0 -0.634393284163641
    outer loop
      vertex 3.79791847198287 -52.5 63.95208152801713
      vertex 3.5865016590856733 -50.9 63.69446939613332
      vertex 3.79791847198287 -50.9 63.95208152801713
    endloop
  endfacet
  facet normal 0.6343932841636495 0 -0.7730104533627338
    outer loop
      vertex 4.055530603866677 -52.5 64.16349834091433
      vertex 3.79791847198287 -50.9 63.95208152801713
      vertex 4.055530603866677 -50.9 64.16349834091433
    endloop
  endfacet
  facet normal -0.4713967368259869 0 -0.8819212643483607
    outer loop
      vertex 5.944469396133323 -52.5 64.16349834091433
      vertex 5.650561835020653 -50.9 64.32059520526919
      vertex 5.944469396133323 -50.9 64.16349834091433
    endloop
  endfacet
  facet normal -0.6343932841636223 0 -0.7730104533627559
    outer loop
      vertex 5.944469396133323 -52.5 64.16349834091433
      vertex 5.944469396133323 -50.9 64.16349834091433
      vertex 6 -50.9 64.11792555207904
    endloop
  endfacet
  facet normal 0.4713967368259869 0 -0.8819212643483607
    outer loop
      vertex 4.349438164979347 -52.5 64.32059520526919
      vertex 4.055530603866677 -50.9 64.16349834091433
      vertex 4.349438164979347 -50.9 64.32059520526919
    endloop
  endfacet
  facet normal 0.2902846772544774 0 -0.9569403357322044
    outer loop
      vertex 4.668346452572582 -52.5 64.4173349766855
      vertex 4.349438164979347 -50.9 64.32059520526919
      vertex 4.668346452572582 -50.9 64.4173349766855
    endloop
  endfacet
  facet normal 0.09801714032955798 0 -0.995184726672197
    outer loop
      vertex 5 -52.5 64.45
      vertex 4.668346452572582 -50.9 64.4173349766855
      vertex 5 -50.9 64.45
    endloop
  endfacet
  facet normal -0.2902846772544774 0 -0.9569403357322044
    outer loop
      vertex 5.650561835020653 -52.5 64.32059520526919
      vertex 5.331653547427418 -50.9 64.4173349766855
      vertex 5.650561835020653 -50.9 64.32059520526919
    endloop
  endfacet
  facet normal -0.09801714032955798 0 -0.995184726672197
    outer loop
      vertex 5.331653547427418 -52.5 64.4173349766855
      vertex 5 -50.9 64.45
      vertex 5.331653547427418 -50.9 64.4173349766855
    endloop
  endfacet
  facet normal 0 -1 0
    outer loop
      vertex -6 -52.5 60.75
      vertex -5.331653547427418 -52.5 61.08266502331451
      vertex -5.650561835020652 -52.5 61.179404794730814
    endloop
  endfacet
  facet normal 0 -1 0
    outer loop
      vertex -6 -52.5 60.75
      vertex -5.650561835020652 -52.5 61.179404794730814
      vertex -5.944469396133323 -52.5 61.33650165908567
    endloop
  endfacet
  facet normal 0 -1 0
    outer loop
      vertex -6 -52.5 60.75
      vertex -5 -52.5 61.05
      vertex -5.331653547427418 -52.5 61.08266502331451
    endloop
  endfacet
  facet normal 0 -1 0
    outer loop
      vertex -6 -52.5 60.75
      vertex -5.944469396133323 -52.5 61.33650165908567
      vertex -6 -52.5 61.382074447920964
    endloop
  endfacet
  facet normal 0 -1 0
    outer loop
      vertex -6 -52.5 60.75
      vertex 6 -52.5 60.75
      vertex -5 -52.5 61.05
    endloop
  endfacet
  facet normal 0 -1 0
    outer loop
      vertex -5 -52.5 61.05
      vertex 6 -52.5 60.75
      vertex -4.668346452572582 -52.5 61.08266502331451
    endloop
  endfacet
  facet normal 0 -1 0
    outer loop
      vertex -4.668346452572582 -52.5 61.08266502331451
      vertex 6 -52.5 60.75
      vertex -4.349438164979348 -52.5 61.179404794730814
    endloop
  endfacet
  facet normal 0 -1 0
    outer loop
      vertex -4.349438164979348 -52.5 61.179404794730814
      vertex 6 -52.5 60.75
      vertex -4.055530603866677 -52.5 61.33650165908567
    endloop
  endfacet
  facet normal 0 -1 0
    outer loop
      vertex -4.055530603866677 -52.5 61.33650165908567
      vertex 3.79791847198287 -52.5 61.54791847198287
      vertex -3.797918471982869 -52.5 61.54791847198287
    endloop
  endfacet
  facet normal 0 -1 0
    outer loop
      vertex -3.797918471982869 -52.5 61.54791847198287
      vertex 3.5865016590856733 -52.5 61.80553060386668
      vertex -3.5865016590856733 -52.5 61.80553060386668
    endloop
  endfacet
  facet normal 0 -1 0
    outer loop
      vertex -3.5865016590856733 -52.5 61.80553060386668
      vertex 3.4294047947308126 -52.5 62.09943816497935
      vertex -3.4294047947308126 -52.5 62.09943816497935
    endloop
  endfacet
  facet normal -1 0 0
    outer loop
      vertex -6 -52.5 60.75
      vertex -6 -52.5 61.382074447920964
      vertex -6 -50.9 61.382074447920964
    endloop
  endfacet
  facet normal -1 0 0
    outer loop
      vertex -6 -52.5 60.75
      vertex -6 -50.9 61.382074447920964
      vertex -6 -50.9 60.75
    endloop
  endfacet
  facet normal 0 0 -1
    outer loop
      vertex -6 -52.5 60.75
      vertex -6 -50.9 60.75
      vertex 6 -50.9 60.75
    endloop
  endfacet
  facet normal 0 -1 0
    outer loop
      vertex -3.4294047947308126 -52.5 62.09943816497935
      vertex 6 -52.5 66.75
      vertex -3.332665023314508 -52.5 62.418346452572585
    endloop
  endfacet
  facet normal 0 -1 0
    outer loop
      vertex -3.332665023314508 -52.5 62.418346452572585
      vertex 6 -52.5 66.75
      vertex -3.3 -52.5 62.75
    endloop
  endfacet
  facet normal 0 -1 0
    outer loop
      vertex -3.3 -52.5 62.75
      vertex 6 -52.5 66.75
      vertex -3.332665023314508 -52.5 63.08165354742742
    endloop
  endfacet
  facet normal 0 -1 0
    outer loop
      vertex -3.4294047947308126 -52.5 63.40056183502065
      vertex -3.332665023314508 -52.5 63.08165354742742
      vertex 6 -52.5 66.75
    endloop
  endfacet
  facet normal 0 -1 0
    outer loop
      vertex -3.4294047947308126 -52.5 63.40056183502065
      vertex 6 -52.5 66.75
      vertex -3.5865016590856733 -52.5 63.69446939613332
    endloop
  endfacet
  facet normal 0 -1 0
    outer loop
      vertex -3.5865016590856733 -52.5 63.69446939613332
      vertex 6 -52.5 66.75
      vertex -3.797918471982869 -52.5 63.95208152801713
    endloop
  endfacet
  facet normal 0 -1 0
    outer loop
      vertex -6 -52.5 64.11792555207904
      vertex -5.944469396133323 -52.5 64.16349834091433
      vertex -6 -52.5 66.75
    endloop
  endfacet
  facet normal 0 -1 0
    outer loop
      vertex -5.944469396133323 -52.5 64.16349834091433
      vertex -5.650561835020652 -52.5 64.32059520526919
      vertex -6 -52.5 66.75
    endloop
  endfacet
  facet normal 0 -1 0
    outer loop
      vertex -5.650561835020652 -52.5 64.32059520526919
      vertex -5.331653547427418 -52.5 64.4173349766855
      vertex -6 -52.5 66.75
    endloop
  endfacet
  facet normal 0 -1 0
    outer loop
      vertex -5.331653547427418 -52.5 64.4173349766855
      vertex -5 -52.5 64.45
      vertex -6 -52.5 66.75
    endloop
  endfacet
  facet normal 0 -1 0
    outer loop
      vertex -4.349438164979348 -52.5 64.32059520526919
      vertex 6 -52.5 66.75
      vertex -4.668346452572582 -52.5 64.4173349766855
    endloop
  endfacet
  facet normal 0 -1 0
    outer loop
      vertex -5 -52.5 64.45
      vertex -4.668346452572582 -52.5 64.4173349766855
      vertex 6 -52.5 66.75
    endloop
  endfacet
  facet normal 0 -1 0
    outer loop
      vertex -3.797918471982869 -52.5 63.95208152801713
      vertex 6 -52.5 66.75
      vertex -4.055530603866677 -52.5 64.16349834091433
    endloop
  endfacet
  facet normal 0 -1 0
    outer loop
      vertex -4.055530603866677 -52.5 64.16349834091433
      vertex 6 -52.5 66.75
      vertex -4.349438164979348 -52.5 64.32059520526919
    endloop
  endfacet
  facet normal 0 -1 0
    outer loop
      vertex -5 -52.5 64.45
      vertex 6 -52.5 66.75
      vertex -6 -52.5 66.75
    endloop
  endfacet
  facet normal -1 0 0
    outer loop
      vertex -6 -52.5 64.11792555207904
      vertex -6 -52.5 66.75
      vertex -6 -50.9 66.75
    endloop
  endfacet
  facet normal -1 0 0
    outer loop
      vertex -6 -52.5 64.11792555207904
      vertex -6 -50.9 66.75
      vertex -6 -50.9 64.11792555207904
    endloop
  endfacet
  facet normal 0 1 0
    outer loop
      vertex -6 -50.9 60.75
      vertex -5.650561835020652 -50.9 61.179404794730814
      vertex -5.331653547427418 -50.9 61.08266502331451
    endloop
  endfacet
  facet normal 0 1 0
    outer loop
      vertex -6 -50.9 60.75
      vertex -5.944469396133323 -50.9 61.33650165908567
      vertex -5.650561835020652 -50.9 61.179404794730814
    endloop
  endfacet
  facet normal 0 1 0
    outer loop
      vertex -6 -50.9 60.75
      vertex -5.331653547427418 -50.9 61.08266502331451
      vertex -5 -50.9 61.05
    endloop
  endfacet
  facet normal 0 1 0
    outer loop
      vertex -6 -50.9 60.75
      vertex -6 -50.9 61.382074447920964
      vertex -5.944469396133323 -50.9 61.33650165908567
    endloop
  endfacet
  facet normal 0 1 0
    outer loop
      vertex -6 -50.9 60.75
      vertex -5 -50.9 61.05
      vertex 4.055530603866677 -50.9 61.33650165908567
    endloop
  endfacet
  facet normal 0 1 0
    outer loop
      vertex -5 -50.9 61.05
      vertex -4.668346452572582 -50.9 61.08266502331451
      vertex 4.055530603866677 -50.9 61.33650165908567
    endloop
  endfacet
  facet normal 0 1 0
    outer loop
      vertex -4.668346452572582 -50.9 61.08266502331451
      vertex -4.349438164979348 -50.9 61.179404794730814
      vertex 4.055530603866677 -50.9 61.33650165908567
    endloop
  endfacet
  facet normal 0 1 0
    outer loop
      vertex -4.349438164979348 -50.9 61.179404794730814
      vertex -4.055530603866677 -50.9 61.33650165908567
      vertex 4.055530603866677 -50.9 61.33650165908567
    endloop
  endfacet
  facet normal 0 1 0
    outer loop
      vertex -4.055530603866677 -50.9 61.33650165908567
      vertex -3.797918471982869 -50.9 61.54791847198287
      vertex 4.055530603866677 -50.9 61.33650165908567
    endloop
  endfacet
  facet normal 0 1 0
    outer loop
      vertex -3.797918471982869 -50.9 61.54791847198287
      vertex -3.5865016590856733 -50.9 61.80553060386668
      vertex 3.79791847198287 -50.9 61.54791847198287
    endloop
  endfacet
  facet normal 0 1 0
    outer loop
      vertex -3.5865016590856733 -50.9 61.80553060386668
      vertex -3.4294047947308126 -50.9 62.09943816497935
      vertex 3.5865016590856733 -50.9 61.80553060386668
    endloop
  endfacet
  facet normal 0 1 0
    outer loop
      vertex -3.4294047947308126 -50.9 62.09943816497935
      vertex -3.332665023314508 -50.9 62.418346452572585
      vertex 3.4294047947308126 -50.9 62.09943816497935
    endloop
  endfacet
  facet normal 0 1 0
    outer loop
      vertex -3.332665023314508 -50.9 62.418346452572585
      vertex -3.3 -50.9 62.75
      vertex 3.4294047947308126 -50.9 62.09943816497935
    endloop
  endfacet
  facet normal 0 1 0
    outer loop
      vertex -3.3 -50.9 62.75
      vertex -3.332665023314508 -50.9 63.08165354742742
      vertex 3.4294047947308126 -50.9 62.09943816497935
    endloop
  endfacet
  facet normal 0 1 0
    outer loop
      vertex -3.4294047947308126 -50.9 63.40056183502065
      vertex 3.4294047947308126 -50.9 62.09943816497935
      vertex -3.332665023314508 -50.9 63.08165354742742
    endloop
  endfacet
  facet normal 0 1 0
    outer loop
      vertex -3.4294047947308126 -50.9 63.40056183502065
      vertex -3.5865016590856733 -50.9 63.69446939613332
      vertex 3.4294047947308126 -50.9 62.09943816497935
    endloop
  endfacet
  facet normal 0 1 0
    outer loop
      vertex -3.5865016590856733 -50.9 63.69446939613332
      vertex -3.797918471982869 -50.9 63.95208152801713
      vertex 3.4294047947308126 -50.9 62.09943816497935
    endloop
  endfacet
  facet normal 0 1 0
    outer loop
      vertex -3.797918471982869 -50.9 63.95208152801713
      vertex -4.055530603866677 -50.9 64.16349834091433
      vertex 3.4294047947308126 -50.9 62.09943816497935
    endloop
  endfacet
  facet normal 0 1 0
    outer loop
      vertex -4.349438164979348 -50.9 64.32059520526919
      vertex -4.668346452572582 -50.9 64.4173349766855
      vertex 3.4294047947308126 -50.9 62.09943816497935
    endloop
  endfacet
  facet normal 0 1 0
    outer loop
      vertex -4.055530603866677 -50.9 64.16349834091433
      vertex -4.349438164979348 -50.9 64.32059520526919
      vertex 3.4294047947308126 -50.9 62.09943816497935
    endloop
  endfacet
  facet normal 0 1 0
    outer loop
      vertex -4.668346452572582 -50.9 64.4173349766855
      vertex -6 -50.9 66.75
      vertex 3.4294047947308126 -50.9 62.09943816497935
    endloop
  endfacet
  facet normal 0 1 0
    outer loop
      vertex -6 -50.9 64.11792555207904
      vertex -6 -50.9 66.75
      vertex -5.944469396133323 -50.9 64.16349834091433
    endloop
  endfacet
  facet normal 0 1 0
    outer loop
      vertex -5.944469396133323 -50.9 64.16349834091433
      vertex -6 -50.9 66.75
      vertex -5.650561835020652 -50.9 64.32059520526919
    endloop
  endfacet
  facet normal 0 1 0
    outer loop
      vertex -5.650561835020652 -50.9 64.32059520526919
      vertex -6 -50.9 66.75
      vertex -5.331653547427418 -50.9 64.4173349766855
    endloop
  endfacet
  facet normal 0 1 0
    outer loop
      vertex -5.331653547427418 -50.9 64.4173349766855
      vertex -6 -50.9 66.75
      vertex -5 -50.9 64.45
    endloop
  endfacet
  facet normal 0 1 0
    outer loop
      vertex -5 -50.9 64.45
      vertex -6 -50.9 66.75
      vertex -4.668346452572582 -50.9 64.4173349766855
    endloop
  endfacet
  facet normal 0 -1 0
    outer loop
      vertex -4.055530603866677 -52.5 61.33650165908567
      vertex 4.668346452572582 -52.5 61.08266502331451
      vertex 4.349438164979347 -52.5 61.179404794730814
    endloop
  endfacet
  facet normal 0 -1 0
    outer loop
      vertex -4.055530603866677 -52.5 61.33650165908567
      vertex 4.349438164979347 -52.5 61.179404794730814
      vertex 4.055530603866677 -52.5 61.33650165908567
    endloop
  endfacet
  facet normal 0 -1 0
    outer loop
      vertex -4.055530603866677 -52.5 61.33650165908567
      vertex 4.055530603866677 -52.5 61.33650165908567
      vertex 3.79791847198287 -52.5 61.54791847198287
    endloop
  endfacet
  facet normal 0 -1 0
    outer loop
      vertex -4.055530603866677 -52.5 61.33650165908567
      vertex 6 -52.5 60.75
      vertex 5 -52.5 61.05
    endloop
  endfacet
  facet normal 0 -1 0
    outer loop
      vertex -4.055530603866677 -52.5 61.33650165908567
      vertex 5 -52.5 61.05
      vertex 4.668346452572582 -52.5 61.08266502331451
    endloop
  endfacet
  facet normal 0 -1 0
    outer loop
      vertex -3.797918471982869 -52.5 61.54791847198287
      vertex 3.79791847198287 -52.5 61.54791847198287
      vertex 3.5865016590856733 -52.5 61.80553060386668
    endloop
  endfacet
  facet normal 0 -1 0
    outer loop
      vertex -3.5865016590856733 -52.5 61.80553060386668
      vertex 3.5865016590856733 -52.5 61.80553060386668
      vertex 3.4294047947308126 -52.5 62.09943816497935
    endloop
  endfacet
  facet normal 0 -1 0
    outer loop
      vertex 5 -52.5 61.05
      vertex 6 -52.5 60.75
      vertex 5.331653547427418 -52.5 61.08266502331451
    endloop
  endfacet
  facet normal 0 -1 0
    outer loop
      vertex 5.331653547427418 -52.5 61.08266502331451
      vertex 6 -52.5 60.75
      vertex 5.650561835020653 -52.5 61.179404794730814
    endloop
  endfacet
  facet normal 0 -1 0
    outer loop
      vertex 6 -52.5 60.75
      vertex 5.944469396133323 -52.5 61.33650165908567
      vertex 5.650561835020653 -52.5 61.179404794730814
    endloop
  endfacet
  facet normal 0 -1 0
    outer loop
      vertex 6 -52.5 60.75
      vertex 6 -52.5 61.382074447920964
      vertex 5.944469396133323 -52.5 61.33650165908567
    endloop
  endfacet
  facet normal 0 -1 0
    outer loop
      vertex -3.4294047947308126 -52.5 62.09943816497935
      vertex 3.4294047947308126 -52.5 62.09943816497935
      vertex 3.332665023314508 -52.5 62.418346452572585
    endloop
  endfacet
  facet normal 0 -1 0
    outer loop
      vertex -3.4294047947308126 -52.5 62.09943816497935
      vertex 3.332665023314508 -52.5 62.418346452572585
      vertex 3.3000000000000007 -52.5 62.75
    endloop
  endfacet
  facet normal 0 -1 0
    outer loop
      vertex -3.4294047947308126 -52.5 62.09943816497935
      vertex 3.3000000000000007 -52.5 62.75
      vertex 3.332665023314508 -52.5 63.08165354742742
    endloop
  endfacet
  facet normal 0 -1 0
    outer loop
      vertex -3.4294047947308126 -52.5 62.09943816497935
      vertex 3.332665023314508 -52.5 63.08165354742742
      vertex 3.4294047947308126 -52.5 63.40056183502065
    endloop
  endfacet
  facet normal 0 -1 0
    outer loop
      vertex -3.4294047947308126 -52.5 62.09943816497935
      vertex 3.4294047947308126 -52.5 63.40056183502065
      vertex 3.5865016590856733 -52.5 63.69446939613332
    endloop
  endfacet
  facet normal 0 -1 0
    outer loop
      vertex -3.4294047947308126 -52.5 62.09943816497935
      vertex 3.5865016590856733 -52.5 63.69446939613332
      vertex 3.79791847198287 -52.5 63.95208152801713
    endloop
  endfacet
  facet normal 0 -1 0
    outer loop
      vertex -3.4294047947308126 -52.5 62.09943816497935
      vertex 3.79791847198287 -52.5 63.95208152801713
      vertex 4.055530603866677 -52.5 64.16349834091433
    endloop
  endfacet
  facet normal 0 0 -1
    outer loop
      vertex -6 -52.5 60.75
      vertex 6 -50.9 60.75
      vertex 6 -52.5 60.75
    endloop
  endfacet
  facet normal 1 0 0
    outer loop
      vertex 6 -52.5 60.75
      vertex 6 -50.9 60.75
      vertex 6 -52.5 61.382074447920964
    endloop
  endfacet
  facet normal 1 0 0
    outer loop
      vertex 6 -52.5 61.382074447920964
      vertex 6 -50.9 60.75
      vertex 6 -50.9 61.382074447920964
    endloop
  endfacet
  facet normal 0 -1 0
    outer loop
      vertex -3.4294047947308126 -52.5 62.09943816497935
      vertex 4.055530603866677 -52.5 64.16349834091433
      vertex 4.349438164979347 -52.5 64.32059520526919
    endloop
  endfacet
  facet normal 0 -1 0
    outer loop
      vertex -3.4294047947308126 -52.5 62.09943816497935
      vertex 4.349438164979347 -52.5 64.32059520526919
      vertex 4.668346452572582 -52.5 64.4173349766855
    endloop
  endfacet
  facet normal 0 -1 0
    outer loop
      vertex -3.4294047947308126 -52.5 62.09943816497935
      vertex 4.668346452572582 -52.5 64.4173349766855
      vertex 6 -52.5 66.75
    endloop
  endfacet
  facet normal 0 -1 0
    outer loop
      vertex 5.944469396133323 -52.5 64.16349834091433
      vertex 6 -52.5 66.75
      vertex 5.650561835020653 -52.5 64.32059520526919
    endloop
  endfacet
  facet normal 0 -1 0
    outer loop
      vertex 4.668346452572582 -52.5 64.4173349766855
      vertex 5 -52.5 64.45
      vertex 6 -52.5 66.75
    endloop
  endfacet
  facet normal 0 -1 0
    outer loop
      vertex 5 -52.5 64.45
      vertex 5.331653547427418 -52.5 64.4173349766855
      vertex 6 -52.5 66.75
    endloop
  endfacet
  facet normal 0 -1 0
    outer loop
      vertex 5.650561835020653 -52.5 64.32059520526919
      vertex 6 -52.5 66.75
      vertex 5.331653547427418 -52.5 64.4173349766855
    endloop
  endfacet
  facet normal 0 -1 0
    outer loop
      vertex 6 -52.5 64.11792555207904
      vertex 6 -52.5 66.75
      vertex 5.944469396133323 -52.5 64.16349834091433
    endloop
  endfacet
  facet normal 1 0 0
    outer loop
      vertex 6 -52.5 64.11792555207904
      vertex 6 -50.9 64.11792555207904
      vertex 6 -52.5 66.75
    endloop
  endfacet
  facet normal 1 0 0
    outer loop
      vertex 6 -50.9 64.11792555207904
      vertex 6 -50.9 66.75
      vertex 6 -52.5 66.75
    endloop
  endfacet
  facet normal 0 1 0
    outer loop
      vertex -6 -50.9 60.75
      vertex 4.055530603866677 -50.9 61.33650165908567
      vertex 4.349438164979347 -50.9 61.179404794730814
    endloop
  endfacet
  facet normal 0 1 0
    outer loop
      vertex -6 -50.9 60.75
      vertex 5 -50.9 61.05
      vertex 6 -50.9 60.75
    endloop
  endfacet
  facet normal 0 1 0
    outer loop
      vertex -6 -50.9 60.75
      vertex 4.349438164979347 -50.9 61.179404794730814
      vertex 4.668346452572582 -50.9 61.08266502331451
    endloop
  endfacet
  facet normal 0 1 0
    outer loop
      vertex -6 -50.9 60.75
      vertex 4.668346452572582 -50.9 61.08266502331451
      vertex 5 -50.9 61.05
    endloop
  endfacet
  facet normal 0 1 0
    outer loop
      vertex -3.797918471982869 -50.9 61.54791847198287
      vertex 3.79791847198287 -50.9 61.54791847198287
      vertex 4.055530603866677 -50.9 61.33650165908567
    endloop
  endfacet
  facet normal 0 1 0
    outer loop
      vertex -3.5865016590856733 -50.9 61.80553060386668
      vertex 3.5865016590856733 -50.9 61.80553060386668
      vertex 3.79791847198287 -50.9 61.54791847198287
    endloop
  endfacet
  facet normal 0 1 0
    outer loop
      vertex -3.4294047947308126 -50.9 62.09943816497935
      vertex 3.4294047947308126 -50.9 62.09943816497935
      vertex 3.5865016590856733 -50.9 61.80553060386668
    endloop
  endfacet
  facet normal 0 1 0
    outer loop
      vertex 5 -50.9 61.05
      vertex 5.331653547427418 -50.9 61.08266502331451
      vertex 6 -50.9 60.75
    endloop
  endfacet
  facet normal 0 1 0
    outer loop
      vertex 5.331653547427418 -50.9 61.08266502331451
      vertex 5.650561835020653 -50.9 61.179404794730814
      vertex 6 -50.9 60.75
    endloop
  endfacet
  facet normal 0 1 0
    outer loop
      vertex 6 -50.9 60.75
      vertex 5.650561835020653 -50.9 61.179404794730814
      vertex 5.944469396133323 -50.9 61.33650165908567
    endloop
  endfacet
  facet normal 0 1 0
    outer loop
      vertex 6 -50.9 60.75
      vertex 5.944469396133323 -50.9 61.33650165908567
      vertex 6 -50.9 61.382074447920964
    endloop
  endfacet
  facet normal 0 1 0
    outer loop
      vertex 3.4294047947308126 -50.9 62.09943816497935
      vertex -6 -50.9 66.75
      vertex 3.332665023314508 -50.9 62.418346452572585
    endloop
  endfacet
  facet normal 0 1 0
    outer loop
      vertex 3.332665023314508 -50.9 62.418346452572585
      vertex -6 -50.9 66.75
      vertex 3.3000000000000007 -50.9 62.75
    endloop
  endfacet
  facet normal 0 1 0
    outer loop
      vertex 3.3000000000000007 -50.9 62.75
      vertex -6 -50.9 66.75
      vertex 3.332665023314508 -50.9 63.08165354742742
    endloop
  endfacet
  facet normal 0 1 0
    outer loop
      vertex 3.332665023314508 -50.9 63.08165354742742
      vertex -6 -50.9 66.75
      vertex 3.4294047947308126 -50.9 63.40056183502065
    endloop
  endfacet
  facet normal 0 1 0
    outer loop
      vertex 3.4294047947308126 -50.9 63.40056183502065
      vertex -6 -50.9 66.75
      vertex 3.5865016590856733 -50.9 63.69446939613332
    endloop
  endfacet
  facet normal 0 1 0
    outer loop
      vertex 3.5865016590856733 -50.9 63.69446939613332
      vertex -6 -50.9 66.75
      vertex 3.79791847198287 -50.9 63.95208152801713
    endloop
  endfacet
  facet normal 0 1 0
    outer loop
      vertex 3.79791847198287 -50.9 63.95208152801713
      vertex -6 -50.9 66.75
      vertex 4.055530603866677 -50.9 64.16349834091433
    endloop
  endfacet
  facet normal 0 1 0
    outer loop
      vertex 4.055530603866677 -50.9 64.16349834091433
      vertex -6 -50.9 66.75
      vertex 4.349438164979347 -50.9 64.32059520526919
    endloop
  endfacet
  facet normal 0 1 0
    outer loop
      vertex 4.349438164979347 -50.9 64.32059520526919
      vertex -6 -50.9 66.75
      vertex 4.668346452572582 -50.9 64.4173349766855
    endloop
  endfacet
  facet normal 0 1 0
    outer loop
      vertex 4.668346452572582 -50.9 64.4173349766855
      vertex -6 -50.9 66.75
      vertex 5 -50.9 64.45
    endloop
  endfacet
  facet normal 0 1 0
    outer loop
      vertex 5 -50.9 64.45
      vertex -6 -50.9 66.75
      vertex 6 -50.9 66.75
    endloop
  endfacet
  facet normal 0 1 0
    outer loop
      vertex 5.944469396133323 -50.9 64.16349834091433
      vertex 5.650561835020653 -50.9 64.32059520526919
      vertex 6 -50.9 66.75
    endloop
  endfacet
  facet normal 0 1 0
    outer loop
      vertex 5 -50.9 64.45
      vertex 6 -50.9 66.75
      vertex 5.331653547427418 -50.9 64.4173349766855
    endloop
  endfacet
  facet normal 0 1 0
    outer loop
      vertex 5.650561835020653 -50.9 64.32059520526919
      vertex 5.331653547427418 -50.9 64.4173349766855
      vertex 6 -50.9 66.75
    endloop
  endfacet
  facet normal 0 1 0
    outer loop
      vertex 6 -50.9 64.11792555207904
      vertex 5.944469396133323 -50.9 64.16349834091433
      vertex 6 -50.9 66.75
    endloop
  endfacet
  facet normal -1 0 0
    outer loop
      vertex -27 -49.3 67.95
      vertex -27 -49.2 68.45
      vertex -27 -49.190392640201615 68.35245483899193
    endloop
  endfacet
  facet normal -1 0 0
    outer loop
      vertex -27 -49.3 67.95
      vertex -27 -49.05355339059328 68.09644660940673
      vertex -27 -48.97778511650981 68.03426519384873
    endloop
  endfacet
  facet normal -1 0 0
    outer loop
      vertex -27 -49.3 67.95
      vertex -27 -48.97778511650981 68.03426519384873
      vertex -27 -48.891341716182545 67.98806023374436
    endloop
  endfacet
  facet normal -1 0 0
    outer loop
      vertex -27 -49.3 67.95
      vertex -27 -48.79754516100807 67.95960735979838
      vertex -27 -49 67.95
    endloop
  endfacet
  facet normal -1 0 0
    outer loop
      vertex -27 -49.3 67.95
      vertex -27 -49.190392640201615 68.35245483899193
      vertex -27 -49.16193976625565 68.25865828381745
    endloop
  endfacet
  facet normal -1 0 0
    outer loop
      vertex -27 -49.3 67.95
      vertex -27 -49.16193976625565 68.25865828381745
      vertex -27 -49.11573480615127 68.1722148834902
    endloop
  endfacet
  facet normal -1 0 0
    outer loop
      vertex -27 -49.3 67.95
      vertex -27 -49.11573480615127 68.1722148834902
      vertex -27 -49.05355339059328 68.09644660940673
    endloop
  endfacet
  facet normal -1 0 0
    outer loop
      vertex -27 -49.3 67.95
      vertex -27 -48.891341716182545 67.98806023374436
      vertex -27 -48.79754516100807 67.95960735979838
    endloop
  endfacet
  facet normal -1 0 0
    outer loop
      vertex -27 -48.79754516100807 67.95960735979838
      vertex -27 -48.7 67.95
      vertex -27 -49 67.95
    endloop
  endfacet
  facet normal -1 0 0
    outer loop
      vertex -27 -49.3 67.95
      vertex -27 -49.2 71.35000000000001
      vertex -27 -49.2 68.45
    endloop
  endfacet
  facet normal -1 0 0
    outer loop
      vertex -27 -49.3 67.95
      vertex -27 -49.3 71.85000000000001
      vertex -27 -49.2 71.35000000000001
    endloop
  endfacet
  facet normal -1 0 0
    outer loop
      vertex -27 -49.3 71.85000000000001
      vertex -27 -49.190392640201615 71.44754516100808
      vertex -27 -49.2 71.35000000000001
    endloop
  endfacet
  facet normal -1 0 0
    outer loop
      vertex -27 -49.3 71.85000000000001
      vertex -27 -49.16193976625565 71.54134171618256
      vertex -27 -49.190392640201615 71.44754516100808
    endloop
  endfacet
  facet normal -1 0 0
    outer loop
      vertex -27 -49.3 71.85000000000001
      vertex -27 -49.11573480615127 71.62778511650981
      vertex -27 -49.16193976625565 71.54134171618256
    endloop
  endfacet
  facet normal -1 0 0
    outer loop
      vertex -27 -49.3 71.85000000000001
      vertex -27 -49.05355339059328 71.70355339059329
      vertex -27 -49.11573480615127 71.62778511650981
    endloop
  endfacet
  facet normal -1 0 0
    outer loop
      vertex -27 -49.3 71.85000000000001
      vertex -27 -48.97778511650981 71.76573480615129
      vertex -27 -49.05355339059328 71.70355339059329
    endloop
  endfacet
  facet normal -1 0 0
    outer loop
      vertex -27 -49.3 71.85000000000001
      vertex -27 -48.891341716182545 71.81193976625565
      vertex -27 -48.97778511650981 71.76573480615129
    endloop
  endfacet
  facet normal -1 0 0
    outer loop
      vertex -27 -49.3 71.85000000000001
      vertex -27 -48.79754516100807 71.84039264020163
      vertex -27 -48.891341716182545 71.81193976625565
    endloop
  endfacet
  facet normal -1 0 0
    outer loop
      vertex -27 -49.3 71.85000000000001
      vertex -27 -48.7 71.85000000000001
      vertex -27 -48.79754516100807 71.84039264020163
    endloop
  endfacet
  facet normal 0 0 -1
    outer loop
      vertex -27 -48.7 67.95
      vertex 27 -48.7 67.95
      vertex -27 -49 67.95
    endloop
  endfacet
  facet normal 0 -1 0
    outer loop
      vertex -27 -49.3 67.95
      vertex 27 -49.3 71.85000000000001
      vertex -27 -49.3 71.85000000000001
    endloop
  endfacet
  facet normal 0 0 1
    outer loop
      vertex -27 -49.3 71.85000000000001
      vertex 27 -49.3 71.85000000000001
      vertex -27 -48.7 71.85000000000001
    endloop
  endfacet
  facet normal 0 0 -1
    outer loop
      vertex 27 -48.7 67.95
      vertex 27 -49 67.95
      vertex -27 -49 67.95
    endloop
  endfacet
  facet normal 0 -1 0
    outer loop
      vertex 27 -49.3 67.95
      vertex 27 -49.3 71.85000000000001
      vertex -27 -49.3 67.95
    endloop
  endfacet
  facet normal 0 0 1
    outer loop
      vertex -27 -48.7 71.85000000000001
      vertex 27 -49.3 71.85000000000001
      vertex 27 -48.7 71.85000000000001
    endloop
  endfacet
  facet normal 0 0 1
    outer loop
      vertex -27 -48.7 71.85000000000001
      vertex 27 -48.7 71.85000000000001
      vertex 27 -48.5 71.85000000000001
    endloop
  endfacet
  facet normal 1 0 0
    outer loop
      vertex 27 -49.3 67.95
      vertex 27 -49.190392640201615 68.35245483899193
      vertex 27 -49.2 68.45
    endloop
  endfacet
  facet normal 1 0 0
    outer loop
      vertex 27 -49.3 67.95
      vertex 27 -48.97778511650981 68.03426519384873
      vertex 27 -49.05355339059328 68.09644660940673
    endloop
  endfacet
  facet normal 1 0 0
    outer loop
      vertex 27 -49.3 67.95
      vertex 27 -48.891341716182545 67.98806023374436
      vertex 27 -48.97778511650981 68.03426519384873
    endloop
  endfacet
  facet normal 1 0 0
    outer loop
      vertex 27 -48.79754516100807 67.95960735979838
      vertex 27 -49.3 67.95
      vertex 27 -49 67.95
    endloop
  endfacet
  facet normal 1 0 0
    outer loop
      vertex 27 -49.3 67.95
      vertex 27 -49.16193976625565 68.25865828381745
      vertex 27 -49.190392640201615 68.35245483899193
    endloop
  endfacet
  facet normal 1 0 0
    outer loop
      vertex 27 -49.3 67.95
      vertex 27 -49.11573480615127 68.1722148834902
      vertex 27 -49.16193976625565 68.25865828381745
    endloop
  endfacet
  facet normal 1 0 0
    outer loop
      vertex 27 -49.3 67.95
      vertex 27 -49.05355339059328 68.09644660940673
      vertex 27 -49.11573480615127 68.1722148834902
    endloop
  endfacet
  facet normal 1 0 0
    outer loop
      vertex 27 -49.3 67.95
      vertex 27 -48.79754516100807 67.95960735979838
      vertex 27 -48.891341716182545 67.98806023374436
    endloop
  endfacet
  facet normal 1 0 0
    outer loop
      vertex 27 -49 67.95
      vertex 27 -48.7 67.95
      vertex 27 -48.79754516100807 67.95960735979838
    endloop
  endfacet
  facet normal 1 0 0
    outer loop
      vertex 27 -49.3 67.95
      vertex 27 -49.2 68.45
      vertex 27 -49.3 71.85000000000001
    endloop
  endfacet
  facet normal 1 0 0
    outer loop
      vertex 27 -49.2 68.45
      vertex 27 -49.2 71.35000000000001
      vertex 27 -49.3 71.85000000000001
    endloop
  endfacet
  facet normal 1 0 0
    outer loop
      vertex 27 -49.3 71.85000000000001
      vertex 27 -49.2 71.35000000000001
      vertex 27 -49.190392640201615 71.44754516100808
    endloop
  endfacet
  facet normal 1 0 0
    outer loop
      vertex 27 -49.3 71.85000000000001
      vertex 27 -49.190392640201615 71.44754516100808
      vertex 27 -49.16193976625565 71.54134171618256
    endloop
  endfacet
  facet normal 1 0 0
    outer loop
      vertex 27 -49.3 71.85000000000001
      vertex 27 -49.16193976625565 71.54134171618256
      vertex 27 -49.11573480615127 71.62778511650981
    endloop
  endfacet
  facet normal 1 0 0
    outer loop
      vertex 27 -49.3 71.85000000000001
      vertex 27 -49.11573480615127 71.62778511650981
      vertex 27 -49.05355339059328 71.70355339059329
    endloop
  endfacet
  facet normal 1 0 0
    outer loop
      vertex 27 -49.3 71.85000000000001
      vertex 27 -49.05355339059328 71.70355339059329
      vertex 27 -48.97778511650981 71.76573480615129
    endloop
  endfacet
  facet normal 1 0 0
    outer loop
      vertex 27 -49.3 71.85000000000001
      vertex 27 -48.97778511650981 71.76573480615129
      vertex 27 -48.891341716182545 71.81193976625565
    endloop
  endfacet
  facet normal 1 0 0
    outer loop
      vertex 27 -49.3 71.85000000000001
      vertex 27 -48.891341716182545 71.81193976625565
      vertex 27 -48.79754516100807 71.84039264020163
    endloop
  endfacet
  facet normal 1 0 0
    outer loop
      vertex 27 -49.3 71.85000000000001
      vertex 27 -48.79754516100807 71.84039264020163
      vertex 27 -48.7 71.85000000000001
    endloop
  endfacet
  facet normal -1 0 0
    outer loop
      vertex -27 -54.5 66.75
      vertex -27 -54.5 67.95
      vertex -27 -49.3 67.95
    endloop
  endfacet
  facet normal 0 0 -1
    outer loop
      vertex -27 -54.5 66.75
      vertex -27 -49 66.75
      vertex -6 -50.9 66.75
    endloop
  endfacet
  facet normal 0 -1 0
    outer loop
      vertex -27 -54.5 66.75
      vertex 27 -54.5 67.95
      vertex -27 -54.5 67.95
    endloop
  endfacet
  facet normal 0 0 -1
    outer loop
      vertex -27 -54.5 66.75
      vertex -6 -52.5 66.75
      vertex 27 -54.5 66.75
    endloop
  endfacet
  facet normal 0 0 -1
    outer loop
      vertex -27 -54.5 66.75
      vertex -6 -50.9 66.75
      vertex -6 -52.5 66.75
    endloop
  endfacet
  facet normal 0 0 1
    outer loop
      vertex -27 -54.5 67.95
      vertex 27 -54.5 67.95
      vertex -27 -49.3 67.95
    endloop
  endfacet
  facet normal -1 0 0
    outer loop
      vertex -27 -54.5 66.75
      vertex -27 -49.3 67.95
      vertex -27 -49 67.95
    endloop
  endfacet
  facet normal -1 0 0
    outer loop
      vertex -27 -54.5 66.75
      vertex -27 -49 67.95
      vertex -27 -49 66.75
    endloop
  endfacet
  facet normal 0 0 -1
    outer loop
      vertex -27 -49 66.75
      vertex 6 -50.9 66.75
      vertex -6 -50.9 66.75
    endloop
  endfacet
  facet normal 0 1 0
    outer loop
      vertex -27 -49 66.75
      vertex -27 -49 67.95
      vertex 27 -49 66.75
    endloop
  endfacet
  facet normal 0 -1 0
    outer loop
      vertex -27 -54.5 66.75
      vertex 27 -54.5 66.75
      vertex 27 -54.5 67.95
    endloop
  endfacet
  facet normal 0 0 -1
    outer loop
      vertex 27 -54.5 66.75
      vertex -6 -52.5 66.75
      vertex 6 -52.5 66.75
    endloop
  endfacet
  facet normal 0 0 -1
    outer loop
      vertex 27 -54.5 66.75
      vertex 6 -52.5 66.75
      vertex 27 -49 66.75
    endloop
  endfacet
  facet normal 1 0 0
    outer loop
      vertex 27 -54.5 66.75
      vertex 27 -49 66.75
      vertex 27 -54.5 67.95
    endloop
  endfacet
  facet normal 0 0 -1
    outer loop
      vertex -27 -49 66.75
      vertex 27 -49 66.75
      vertex 6 -50.9 66.75
    endloop
  endfacet
  facet normal 0 0 -1
    outer loop
      vertex 27 -49 66.75
      vertex 6 -52.5 66.75
      vertex 6 -50.9 66.75
    endloop
  endfacet
  facet normal 0 0 1
    outer loop
      vertex 27 -54.5 67.95
      vertex 27 -49.3 67.95
      vertex -27 -49.3 67.95
    endloop
  endfacet
  facet normal 0 1 0
    outer loop
      vertex 27 -49 66.75
      vertex -27 -49 67.95
      vertex 27 -49 67.95
    endloop
  endfacet
  facet normal 1 0 0
    outer loop
      vertex 27 -54.5 67.95
      vertex 27 -49 66.75
      vertex 27 -49.3 67.95
    endloop
  endfacet
  facet normal 1 0 0
    outer loop
      vertex 27 -49 66.75
      vertex 27 -49 67.95
      vertex 27 -49.3 67.95
    endloop
  endfacet
endsolid OpenSCAD_Model
