solid OpenSCAD_Model
  facet normal 0.4713967368260044 0.8819212643483514 0
    outer loop
      vertex 46.66109423202745 49.39380994585208 102.8
      vertex 46.66109423202745 49.39380994585208 106.8
      vertex 46.85991405278014 49.28753853761202 102.8
    endloop
  endfacet
  facet normal 0.6343932841636617 0.7730104533627236 -6.5590284234632e-19
    outer loop
      vertex 46.66109423202745 49.39380994585208 102.8
      vertex 46.48682720163547 49.536827201635475 102.8
      vertex 46.48682720163547 49.536827201635475 106.8
    endloop
  endfacet
  facet normal 0.09801714032954811 0.9951847266721981 0
    outer loop
      vertex 47.07564612968145 49.222096927536285 102.8
      vertex 47.07564612968145 49.222096927536285 106.8
      vertex 47.3 49.2 102.8
    endloop
  endfacet
  facet normal -0.09801714032954811 0.9951847266721981 0
    outer loop
      vertex 47.3 49.2 102.8
      vertex 47.3 49.2 106.8
      vertex 47.52435387031854 49.222096927536285 102.8
    endloop
  endfacet
  facet normal -0.2902846772544642 0.9569403357322083 0
    outer loop
      vertex 47.52435387031854 49.222096927536285 102.8
      vertex 47.52435387031854 49.222096927536285 106.8
      vertex 47.74008594721985 49.28753853761202 102.8
    endloop
  endfacet
  facet normal 0.2902846772544642 0.9569403357322083 0
    outer loop
      vertex 46.85991405278014 49.28753853761202 102.8
      vertex 46.85991405278014 49.28753853761202 106.8
      vertex 47.07564612968145 49.222096927536285 102.8
    endloop
  endfacet
  facet normal -0.4713967368260044 0.8819212643483514 0
    outer loop
      vertex 47.74008594721985 49.28753853761202 102.8
      vertex 47.74008594721985 49.28753853761202 106.8
      vertex 47.93890576797254 49.39380994585208 102.8
    endloop
  endfacet
  facet normal -0.6343932841636617 0.7730104533627236 0
    outer loop
      vertex 47.93890576797254 49.39380994585208 102.8
      vertex 47.93890576797254 49.39380994585208 106.8
      vertex 48.11317279836452 49.536827201635475 102.8
    endloop
  endfacet
  facet normal -0.7730104533627236 0.6343932841636617 0
    outer loop
      vertex 48.11317279836452 49.536827201635475 102.8
      vertex 48.11317279836452 49.536827201635475 106.8
      vertex 48.25619005414792 49.711094232027456 102.8
    endloop
  endfacet
  facet normal 0.7730104533627236 0.6343932841636617 -6.5590284234632e-19
    outer loop
      vertex 46.48682720163547 49.536827201635475 102.8
      vertex 46.34380994585207 49.711094232027456 102.8
      vertex 46.34380994585207 49.711094232027456 106.8
    endloop
  endfacet
  facet normal 0.8819212643483514 0.4713967368260044 1.41367660786228e-18
    outer loop
      vertex 46.34380994585207 49.711094232027456 102.8
      vertex 46.23753853761202 49.909914052780145 102.8
      vertex 46.23753853761202 49.909914052780145 106.8
    endloop
  endfacet
  facet normal 0.9569403357322083 0.2902846772544642 -6.462941522426415e-19
    outer loop
      vertex 46.23753853761202 49.909914052780145 102.8
      vertex 46.17209692753628 50.125646129681456 102.8
      vertex 46.17209692753628 50.125646129681456 106.8
    endloop
  endfacet
  facet normal 0.9951847266721981 0.09801714032954811 -4.758309929580295e-19
    outer loop
      vertex 46.17209692753628 50.125646129681456 102.8
      vertex 46.15 50.35 102.8
      vertex 46.15 50.35 106.8
    endloop
  endfacet
  facet normal -0.8819212643483514 0.4713967368260044 -1.41367660786228e-18
    outer loop
      vertex 48.36246146238798 49.909914052780145 102.8
      vertex 48.25619005414792 49.711094232027456 102.8
      vertex 48.25619005414792 49.711094232027456 106.8
    endloop
  endfacet
  facet normal -0.9569403357322083 0.2902846772544642 6.462941522426415e-19
    outer loop
      vertex 48.427903072463714 50.125646129681456 102.8
      vertex 48.36246146238798 49.909914052780145 102.8
      vertex 48.36246146238798 49.909914052780145 106.8
    endloop
  endfacet
  facet normal -0.9951847266721981 0.09801714032954811 0
    outer loop
      vertex 48.427903072463714 50.125646129681456 102.8
      vertex 48.427903072463714 50.125646129681456 106.8
      vertex 48.449999999999996 50.35 102.8
    endloop
  endfacet
  facet normal 0.9951847266721981 -0.09801714032954811 4.758309929580295e-19
    outer loop
      vertex 46.15 50.35 102.8
      vertex 46.17209692753628 50.57435387031855 102.8
      vertex 46.17209692753628 50.57435387031855 106.8
    endloop
  endfacet
  facet normal 0.9569403357322083 -0.2902846772544642 6.462941522426415e-19
    outer loop
      vertex 46.17209692753628 50.57435387031855 102.8
      vertex 46.23753853761202 50.79008594721986 102.8
      vertex 46.23753853761202 50.79008594721986 106.8
    endloop
  endfacet
  facet normal 0.8819212643483514 -0.4713967368260044 -1.41367660786228e-18
    outer loop
      vertex 46.23753853761202 50.79008594721986 102.8
      vertex 46.34380994585207 50.98890576797255 102.8
      vertex 46.34380994585207 50.98890576797255 106.8
    endloop
  endfacet
  facet normal 0.7730104533627236 -0.6343932841636617 6.5590284234632e-19
    outer loop
      vertex 46.34380994585207 50.98890576797255 102.8
      vertex 46.48682720163547 51.16317279836453 102.8
      vertex 46.48682720163547 51.16317279836453 106.8
    endloop
  endfacet
  facet normal -0.9951847266721981 -0.09801714032954811 0
    outer loop
      vertex 48.449999999999996 50.35 102.8
      vertex 48.449999999999996 50.35 106.8
      vertex 48.427903072463714 50.57435387031855 102.8
    endloop
  endfacet
  facet normal -0.9569403357322083 -0.2902846772544642 -6.462941522426415e-19
    outer loop
      vertex 48.36246146238798 50.79008594721986 102.8
      vertex 48.427903072463714 50.57435387031855 102.8
      vertex 48.427903072463714 50.57435387031855 106.8
    endloop
  endfacet
  facet normal -0.8819212643483514 -0.4713967368260044 1.41367660786228e-18
    outer loop
      vertex 48.25619005414792 50.98890576797255 102.8
      vertex 48.36246146238798 50.79008594721986 102.8
      vertex 48.36246146238798 50.79008594721986 106.8
    endloop
  endfacet
  facet normal -0.7730104533627236 -0.6343932841636617 -6.5590284234632e-19
    outer loop
      vertex 48.11317279836452 51.16317279836453 102.8
      vertex 48.25619005414792 50.98890576797255 102.8
      vertex 48.25619005414792 50.98890576797255 106.8
    endloop
  endfacet
  facet normal 0.6343932841636617 -0.7730104533627236 0
    outer loop
      vertex 46.66109423202745 51.306190054147926 102.8
      vertex 46.66109423202745 51.306190054147926 106.8
      vertex 46.48682720163547 51.16317279836453 102.8
    endloop
  endfacet
  facet normal -0.6343932841636617 -0.7730104533627236 0
    outer loop
      vertex 48.11317279836452 51.16317279836453 102.8
      vertex 48.11317279836452 51.16317279836453 106.8
      vertex 47.93890576797254 51.306190054147926 102.8
    endloop
  endfacet
  facet normal 0.4713967368260044 -0.8819212643483514 0
    outer loop
      vertex 46.85991405278014 51.41246146238798 102.8
      vertex 46.85991405278014 51.41246146238798 106.8
      vertex 46.66109423202745 51.306190054147926 102.8
    endloop
  endfacet
  facet normal 0.2902846772544642 -0.9569403357322083 0
    outer loop
      vertex 47.07564612968145 51.47790307246372 102.8
      vertex 47.07564612968145 51.47790307246372 106.8
      vertex 46.85991405278014 51.41246146238798 102.8
    endloop
  endfacet
  facet normal -0.09801714032954811 -0.9951847266721981 0
    outer loop
      vertex 47.52435387031854 51.47790307246372 102.8
      vertex 47.52435387031854 51.47790307246372 106.8
      vertex 47.3 51.5 102.8
    endloop
  endfacet
  facet normal -0.4713967368260044 -0.8819212643483514 0
    outer loop
      vertex 47.93890576797254 51.306190054147926 102.8
      vertex 47.93890576797254 51.306190054147926 106.8
      vertex 47.74008594721985 51.41246146238798 102.8
    endloop
  endfacet
  facet normal -0.2902846772544642 -0.9569403357322083 0
    outer loop
      vertex 47.74008594721985 51.41246146238798 102.8
      vertex 47.74008594721985 51.41246146238798 106.8
      vertex 47.52435387031854 51.47790307246372 102.8
    endloop
  endfacet
  facet normal 0.09801714032954811 -0.9951847266721981 0
    outer loop
      vertex 47.3 51.5 102.8
      vertex 47.3 51.5 106.8
      vertex 47.07564612968145 51.47790307246372 102.8
    endloop
  endfacet
  facet normal 0.6343932841636617 0.7730104533627236 0
    outer loop
      vertex 46.66109423202745 49.39380994585208 102.8
      vertex 46.48682720163547 49.536827201635475 106.8
      vertex 46.66109423202745 49.39380994585208 106.8
    endloop
  endfacet
  facet normal 0.7730104533627236 0.6343932841636617 0
    outer loop
      vertex 46.48682720163547 49.536827201635475 102.8
      vertex 46.34380994585207 49.711094232027456 106.8
      vertex 46.48682720163547 49.536827201635475 106.8
    endloop
  endfacet
  facet normal 0.09801714032954811 0.9951847266721981 0
    outer loop
      vertex 47.3 49.2 102.8
      vertex 47.07564612968145 49.222096927536285 106.8
      vertex 47.3 49.2 106.8
    endloop
  endfacet
  facet normal 0.2902846772544642 0.9569403357322083 0
    outer loop
      vertex 47.07564612968145 49.222096927536285 102.8
      vertex 46.85991405278014 49.28753853761202 106.8
      vertex 47.07564612968145 49.222096927536285 106.8
    endloop
  endfacet
  facet normal -0.09801714032954811 0.9951847266721981 0
    outer loop
      vertex 47.52435387031854 49.222096927536285 102.8
      vertex 47.3 49.2 106.8
      vertex 47.52435387031854 49.222096927536285 106.8
    endloop
  endfacet
  facet normal 0.4713967368260044 0.8819212643483514 0
    outer loop
      vertex 46.85991405278014 49.28753853761202 102.8
      vertex 46.66109423202745 49.39380994585208 106.8
      vertex 46.85991405278014 49.28753853761202 106.8
    endloop
  endfacet
  facet normal -0.2902846772544642 0.9569403357322083 0
    outer loop
      vertex 47.74008594721985 49.28753853761202 102.8
      vertex 47.52435387031854 49.222096927536285 106.8
      vertex 47.74008594721985 49.28753853761202 106.8
    endloop
  endfacet
  facet normal -0.4713967368260044 0.8819212643483514 0
    outer loop
      vertex 47.93890576797254 49.39380994585208 102.8
      vertex 47.74008594721985 49.28753853761202 106.8
      vertex 47.93890576797254 49.39380994585208 106.8
    endloop
  endfacet
  facet normal -0.6343932841636617 0.7730104533627236 0
    outer loop
      vertex 48.11317279836452 49.536827201635475 102.8
      vertex 47.93890576797254 49.39380994585208 106.8
      vertex 48.11317279836452 49.536827201635475 106.8
    endloop
  endfacet
  facet normal 0.8819212643483514 0.4713967368260044 0
    outer loop
      vertex 46.34380994585207 49.711094232027456 102.8
      vertex 46.23753853761202 49.909914052780145 106.8
      vertex 46.34380994585207 49.711094232027456 106.8
    endloop
  endfacet
  facet normal 0.9569403357322083 0.2902846772544642 0
    outer loop
      vertex 46.23753853761202 49.909914052780145 102.8
      vertex 46.17209692753628 50.125646129681456 106.8
      vertex 46.23753853761202 49.909914052780145 106.8
    endloop
  endfacet
  facet normal 0.9951847266721981 0.09801714032954811 0
    outer loop
      vertex 46.17209692753628 50.125646129681456 102.8
      vertex 46.15 50.35 106.8
      vertex 46.17209692753628 50.125646129681456 106.8
    endloop
  endfacet
  facet normal -0.7730104533627236 0.6343932841636617 0
    outer loop
      vertex 48.25619005414792 49.711094232027456 102.8
      vertex 48.11317279836452 49.536827201635475 106.8
      vertex 48.25619005414792 49.711094232027456 106.8
    endloop
  endfacet
  facet normal -0.8819212643483514 0.4713967368260044 0
    outer loop
      vertex 48.36246146238798 49.909914052780145 102.8
      vertex 48.25619005414792 49.711094232027456 106.8
      vertex 48.36246146238798 49.909914052780145 106.8
    endloop
  endfacet
  facet normal -0.9569403357322083 0.2902846772544642 0
    outer loop
      vertex 48.427903072463714 50.125646129681456 102.8
      vertex 48.36246146238798 49.909914052780145 106.8
      vertex 48.427903072463714 50.125646129681456 106.8
    endloop
  endfacet
  facet normal -0.9951847266721981 0.09801714032954811 0
    outer loop
      vertex 48.449999999999996 50.35 102.8
      vertex 48.427903072463714 50.125646129681456 106.8
      vertex 48.449999999999996 50.35 106.8
    endloop
  endfacet
  facet normal 0.9951847266721981 -0.09801714032954811 0
    outer loop
      vertex 46.15 50.35 102.8
      vertex 46.17209692753628 50.57435387031855 106.8
      vertex 46.15 50.35 106.8
    endloop
  endfacet
  facet normal 0.9569403357322083 -0.2902846772544642 0
    outer loop
      vertex 46.17209692753628 50.57435387031855 102.8
      vertex 46.23753853761202 50.79008594721986 106.8
      vertex 46.17209692753628 50.57435387031855 106.8
    endloop
  endfacet
  facet normal 0.8819212643483514 -0.4713967368260044 0
    outer loop
      vertex 46.23753853761202 50.79008594721986 102.8
      vertex 46.34380994585207 50.98890576797255 106.8
      vertex 46.23753853761202 50.79008594721986 106.8
    endloop
  endfacet
  facet normal 0.7730104533627236 -0.6343932841636617 0
    outer loop
      vertex 46.34380994585207 50.98890576797255 102.8
      vertex 46.48682720163547 51.16317279836453 106.8
      vertex 46.34380994585207 50.98890576797255 106.8
    endloop
  endfacet
  facet normal -0.9951847266721981 -0.09801714032954811 0
    outer loop
      vertex 48.427903072463714 50.57435387031855 102.8
      vertex 48.449999999999996 50.35 106.8
      vertex 48.427903072463714 50.57435387031855 106.8
    endloop
  endfacet
  facet normal -0.9569403357322083 -0.2902846772544642 0
    outer loop
      vertex 48.36246146238798 50.79008594721986 102.8
      vertex 48.427903072463714 50.57435387031855 106.8
      vertex 48.36246146238798 50.79008594721986 106.8
    endloop
  endfacet
  facet normal -0.8819212643483514 -0.4713967368260044 0
    outer loop
      vertex 48.25619005414792 50.98890576797255 102.8
      vertex 48.36246146238798 50.79008594721986 106.8
      vertex 48.25619005414792 50.98890576797255 106.8
    endloop
  endfacet
  facet normal -0.7730104533627236 -0.6343932841636617 0
    outer loop
      vertex 48.11317279836452 51.16317279836453 102.8
      vertex 48.25619005414792 50.98890576797255 106.8
      vertex 48.11317279836452 51.16317279836453 106.8
    endloop
  endfacet
  facet normal 0.6343932841636617 -0.7730104533627236 0
    outer loop
      vertex 46.48682720163547 51.16317279836453 102.8
      vertex 46.66109423202745 51.306190054147926 106.8
      vertex 46.48682720163547 51.16317279836453 106.8
    endloop
  endfacet
  facet normal 0.4713967368260044 -0.8819212643483514 0
    outer loop
      vertex 46.66109423202745 51.306190054147926 102.8
      vertex 46.85991405278014 51.41246146238798 106.8
      vertex 46.66109423202745 51.306190054147926 106.8
    endloop
  endfacet
  facet normal -0.6343932841636617 -0.7730104533627236 0
    outer loop
      vertex 47.93890576797254 51.306190054147926 102.8
      vertex 48.11317279836452 51.16317279836453 106.8
      vertex 47.93890576797254 51.306190054147926 106.8
    endloop
  endfacet
  facet normal 0.2902846772544642 -0.9569403357322083 0
    outer loop
      vertex 46.85991405278014 51.41246146238798 102.8
      vertex 47.07564612968145 51.47790307246372 106.8
      vertex 46.85991405278014 51.41246146238798 106.8
    endloop
  endfacet
  facet normal 0.09801714032954811 -0.9951847266721981 0
    outer loop
      vertex 47.07564612968145 51.47790307246372 102.8
      vertex 47.3 51.5 106.8
      vertex 47.07564612968145 51.47790307246372 106.8
    endloop
  endfacet
  facet normal -0.2902846772544642 -0.9569403357322083 0
    outer loop
      vertex 47.52435387031854 51.47790307246372 102.8
      vertex 47.74008594721985 51.41246146238798 106.8
      vertex 47.52435387031854 51.47790307246372 106.8
    endloop
  endfacet
  facet normal -0.4713967368260044 -0.8819212643483514 0
    outer loop
      vertex 47.74008594721985 51.41246146238798 102.8
      vertex 47.93890576797254 51.306190054147926 106.8
      vertex 47.74008594721985 51.41246146238798 106.8
    endloop
  endfacet
  facet normal -0.09801714032954811 -0.9951847266721981 0
    outer loop
      vertex 47.3 51.5 102.8
      vertex 47.52435387031854 51.47790307246372 106.8
      vertex 47.3 51.5 106.8
    endloop
  endfacet
  facet normal 0.09801714032954811 0.9951847266721981 0
    outer loop
      vertex -59.224353870318545 49.222096927536285 106.8
      vertex -59 49.2 102.8
      vertex -59.224353870318545 49.222096927536285 102.8
    endloop
  endfacet
  facet normal -0.09801714032954811 0.9951847266721981 0
    outer loop
      vertex -59 49.2 106.8
      vertex -58.775646129681455 49.222096927536285 102.8
      vertex -59 49.2 102.8
    endloop
  endfacet
  facet normal -0.2902846772544642 0.9569403357322083 0
    outer loop
      vertex -58.775646129681455 49.222096927536285 106.8
      vertex -58.559914052780144 49.28753853761202 102.8
      vertex -58.775646129681455 49.222096927536285 102.8
    endloop
  endfacet
  facet normal 0.2902846772544642 0.9569403357322083 0
    outer loop
      vertex -59.440085947219856 49.28753853761202 106.8
      vertex -59.224353870318545 49.222096927536285 102.8
      vertex -59.440085947219856 49.28753853761202 102.8
    endloop
  endfacet
  facet normal 0.4713967368260044 0.8819212643483514 0
    outer loop
      vertex -59.638905767972545 49.39380994585208 106.8
      vertex -59.440085947219856 49.28753853761202 102.8
      vertex -59.638905767972545 49.39380994585208 102.8
    endloop
  endfacet
  facet normal -0.4713967368260044 0.8819212643483514 0
    outer loop
      vertex -58.559914052780144 49.28753853761202 106.8
      vertex -58.361094232027455 49.39380994585208 102.8
      vertex -58.559914052780144 49.28753853761202 102.8
    endloop
  endfacet
  facet normal 0.6343932841636617 0.7730104533627236 -6.5590284234632e-19
    outer loop
      vertex -59.638905767972545 49.39380994585208 102.8
      vertex -59.813172798364526 49.536827201635475 102.8
      vertex -59.813172798364526 49.536827201635475 106.8
    endloop
  endfacet
  facet normal -0.6343932841636617 0.7730104533627236 0
    outer loop
      vertex -58.361094232027455 49.39380994585208 106.8
      vertex -58.186827201635474 49.536827201635475 102.8
      vertex -58.361094232027455 49.39380994585208 102.8
    endloop
  endfacet
  facet normal -0.7730104533627236 0.6343932841636617 0
    outer loop
      vertex -58.186827201635474 49.536827201635475 102.8
      vertex -58.186827201635474 49.536827201635475 106.8
      vertex -58.043809945852075 49.711094232027456 102.8
    endloop
  endfacet
  facet normal 0.7730104533627236 0.6343932841636617 0
    outer loop
      vertex -59.956190054147925 49.711094232027456 106.8
      vertex -59.813172798364526 49.536827201635475 102.8
      vertex -59.956190054147925 49.711094232027456 102.8
    endloop
  endfacet
  facet normal 0.8819212643483514 0.4713967368260044 0
    outer loop
      vertex -60.06246146238798 49.909914052780145 106.8
      vertex -59.956190054147925 49.711094232027456 102.8
      vertex -60.06246146238798 49.909914052780145 102.8
    endloop
  endfacet
  facet normal 0.9569403357322083 0.2902846772544642 0
    outer loop
      vertex -60.12790307246372 50.125646129681456 106.8
      vertex -60.06246146238798 49.909914052780145 102.8
      vertex -60.12790307246372 50.125646129681456 102.8
    endloop
  endfacet
  facet normal 0.9951847266721981 0.09801714032954811 0
    outer loop
      vertex -60.15 50.35 106.8
      vertex -60.12790307246372 50.125646129681456 102.8
      vertex -60.15 50.35 102.8
    endloop
  endfacet
  facet normal -0.8819212643483514 0.4713967368260044 0
    outer loop
      vertex -58.043809945852075 49.711094232027456 106.8
      vertex -57.93753853761202 49.909914052780145 102.8
      vertex -58.043809945852075 49.711094232027456 102.8
    endloop
  endfacet
  facet normal -0.9569403357322083 0.2902846772544642 0
    outer loop
      vertex -57.93753853761202 49.909914052780145 106.8
      vertex -57.87209692753628 50.125646129681456 102.8
      vertex -57.93753853761202 49.909914052780145 102.8
    endloop
  endfacet
  facet normal -0.9951847266721981 0.09801714032954811 0
    outer loop
      vertex -57.87209692753628 50.125646129681456 102.8
      vertex -57.87209692753628 50.125646129681456 106.8
      vertex -57.85 50.35 102.8
    endloop
  endfacet
  facet normal 0.9951847266721981 -0.09801714032954811 0
    outer loop
      vertex -60.12790307246372 50.57435387031855 106.8
      vertex -60.15 50.35 102.8
      vertex -60.12790307246372 50.57435387031855 102.8
    endloop
  endfacet
  facet normal 0.9569403357322083 -0.2902846772544642 0
    outer loop
      vertex -60.06246146238798 50.79008594721986 106.8
      vertex -60.12790307246372 50.57435387031855 102.8
      vertex -60.06246146238798 50.79008594721986 102.8
    endloop
  endfacet
  facet normal 0.8819212643483514 -0.4713967368260044 0
    outer loop
      vertex -59.956190054147925 50.98890576797255 106.8
      vertex -60.06246146238798 50.79008594721986 102.8
      vertex -59.956190054147925 50.98890576797255 102.8
    endloop
  endfacet
  facet normal 0.7730104533627236 -0.6343932841636617 0
    outer loop
      vertex -59.813172798364526 51.16317279836453 106.8
      vertex -59.956190054147925 50.98890576797255 102.8
      vertex -59.813172798364526 51.16317279836453 102.8
    endloop
  endfacet
  facet normal -0.9951847266721981 -0.09801714032954811 0
    outer loop
      vertex -57.85 50.35 102.8
      vertex -57.85 50.35 106.8
      vertex -57.87209692753628 50.57435387031855 102.8
    endloop
  endfacet
  facet normal -0.9569403357322083 -0.2902846772544642 0
    outer loop
      vertex -57.87209692753628 50.57435387031855 106.8
      vertex -57.93753853761202 50.79008594721986 102.8
      vertex -57.87209692753628 50.57435387031855 102.8
    endloop
  endfacet
  facet normal -0.8819212643483514 -0.4713967368260044 0
    outer loop
      vertex -57.93753853761202 50.79008594721986 106.8
      vertex -58.043809945852075 50.98890576797255 102.8
      vertex -57.93753853761202 50.79008594721986 102.8
    endloop
  endfacet
  facet normal -0.7730104533627236 -0.6343932841636617 0
    outer loop
      vertex -58.043809945852075 50.98890576797255 106.8
      vertex -58.186827201635474 51.16317279836453 102.8
      vertex -58.043809945852075 50.98890576797255 102.8
    endloop
  endfacet
  facet normal 0.6343932841636617 -0.7730104533627236 0
    outer loop
      vertex -59.638905767972545 51.306190054147926 106.8
      vertex -59.813172798364526 51.16317279836453 102.8
      vertex -59.638905767972545 51.306190054147926 102.8
    endloop
  endfacet
  facet normal 0.4713967368260044 -0.8819212643483514 0
    outer loop
      vertex -59.440085947219856 51.41246146238798 106.8
      vertex -59.638905767972545 51.306190054147926 102.8
      vertex -59.440085947219856 51.41246146238798 102.8
    endloop
  endfacet
  facet normal 0.2902846772544642 -0.9569403357322083 0
    outer loop
      vertex -59.224353870318545 51.47790307246372 106.8
      vertex -59.440085947219856 51.41246146238798 102.8
      vertex -59.224353870318545 51.47790307246372 102.8
    endloop
  endfacet
  facet normal -0.2902846772544642 -0.9569403357322083 0
    outer loop
      vertex -58.559914052780144 51.41246146238798 106.8
      vertex -58.775646129681455 51.47790307246372 102.8
      vertex -58.559914052780144 51.41246146238798 102.8
    endloop
  endfacet
  facet normal -0.09801714032954811 -0.9951847266721981 0
    outer loop
      vertex -58.775646129681455 51.47790307246372 106.8
      vertex -59 51.5 102.8
      vertex -58.775646129681455 51.47790307246372 102.8
    endloop
  endfacet
  facet normal 0.09801714032954811 -0.9951847266721981 0
    outer loop
      vertex -59 51.5 106.8
      vertex -59.224353870318545 51.47790307246372 102.8
      vertex -59 51.5 102.8
    endloop
  endfacet
  facet normal -0.6343932841636617 -0.7730104533627236 0
    outer loop
      vertex -58.186827201635474 51.16317279836453 106.8
      vertex -58.361094232027455 51.306190054147926 102.8
      vertex -58.186827201635474 51.16317279836453 102.8
    endloop
  endfacet
  facet normal -0.4713967368260044 -0.8819212643483514 0
    outer loop
      vertex -58.361094232027455 51.306190054147926 106.8
      vertex -58.559914052780144 51.41246146238798 102.8
      vertex -58.361094232027455 51.306190054147926 102.8
    endloop
  endfacet
  facet normal 0.09801714032954811 0.9951847266721981 0
    outer loop
      vertex -59 49.2 106.8
      vertex -59 49.2 102.8
      vertex -59.224353870318545 49.222096927536285 106.8
    endloop
  endfacet
  facet normal 0.2902846772544642 0.9569403357322083 0
    outer loop
      vertex -59.224353870318545 49.222096927536285 106.8
      vertex -59.224353870318545 49.222096927536285 102.8
      vertex -59.440085947219856 49.28753853761202 106.8
    endloop
  endfacet
  facet normal -0.09801714032954811 0.9951847266721981 0
    outer loop
      vertex -58.775646129681455 49.222096927536285 106.8
      vertex -58.775646129681455 49.222096927536285 102.8
      vertex -59 49.2 106.8
    endloop
  endfacet
  facet normal 0.4713967368260044 0.8819212643483514 0
    outer loop
      vertex -59.440085947219856 49.28753853761202 106.8
      vertex -59.440085947219856 49.28753853761202 102.8
      vertex -59.638905767972545 49.39380994585208 106.8
    endloop
  endfacet
  facet normal 0.6343932841636617 0.7730104533627236 0
    outer loop
      vertex -59.638905767972545 49.39380994585208 106.8
      vertex -59.638905767972545 49.39380994585208 102.8
      vertex -59.813172798364526 49.536827201635475 106.8
    endloop
  endfacet
  facet normal -0.2902846772544642 0.9569403357322083 0
    outer loop
      vertex -58.559914052780144 49.28753853761202 106.8
      vertex -58.559914052780144 49.28753853761202 102.8
      vertex -58.775646129681455 49.222096927536285 106.8
    endloop
  endfacet
  facet normal 0.7730104533627236 0.6343932841636617 -6.5590284234632e-19
    outer loop
      vertex -59.956190054147925 49.711094232027456 106.8
      vertex -59.813172798364526 49.536827201635475 106.8
      vertex -59.813172798364526 49.536827201635475 102.8
    endloop
  endfacet
  facet normal -0.4713967368260044 0.8819212643483514 0
    outer loop
      vertex -58.361094232027455 49.39380994585208 106.8
      vertex -58.361094232027455 49.39380994585208 102.8
      vertex -58.559914052780144 49.28753853761202 106.8
    endloop
  endfacet
  facet normal -0.6343932841636617 0.7730104533627236 0
    outer loop
      vertex -58.186827201635474 49.536827201635475 106.8
      vertex -58.186827201635474 49.536827201635475 102.8
      vertex -58.361094232027455 49.39380994585208 106.8
    endloop
  endfacet
  facet normal 0.8819212643483514 0.4713967368260044 1.41367660786228e-18
    outer loop
      vertex -60.06246146238798 49.909914052780145 106.8
      vertex -59.956190054147925 49.711094232027456 106.8
      vertex -59.956190054147925 49.711094232027456 102.8
    endloop
  endfacet
  facet normal 0.9569403357322083 0.2902846772544642 -6.462941522426415e-19
    outer loop
      vertex -60.12790307246372 50.125646129681456 106.8
      vertex -60.06246146238798 49.909914052780145 106.8
      vertex -60.06246146238798 49.909914052780145 102.8
    endloop
  endfacet
  facet normal 0.9951847266721981 0.09801714032954811 -4.758309929580295e-19
    outer loop
      vertex -60.15 50.35 106.8
      vertex -60.12790307246372 50.125646129681456 106.8
      vertex -60.12790307246372 50.125646129681456 102.8
    endloop
  endfacet
  facet normal -0.7730104533627236 0.6343932841636617 6.5590284234632e-19
    outer loop
      vertex -58.186827201635474 49.536827201635475 106.8
      vertex -58.043809945852075 49.711094232027456 106.8
      vertex -58.043809945852075 49.711094232027456 102.8
    endloop
  endfacet
  facet normal -0.8819212643483514 0.4713967368260044 -1.41367660786228e-18
    outer loop
      vertex -58.043809945852075 49.711094232027456 106.8
      vertex -57.93753853761202 49.909914052780145 106.8
      vertex -57.93753853761202 49.909914052780145 102.8
    endloop
  endfacet
  facet normal -0.9569403357322083 0.2902846772544642 6.462941522426415e-19
    outer loop
      vertex -57.93753853761202 49.909914052780145 106.8
      vertex -57.87209692753628 50.125646129681456 106.8
      vertex -57.87209692753628 50.125646129681456 102.8
    endloop
  endfacet
  facet normal -0.9951847266721981 0.09801714032954811 4.758309929580295e-19
    outer loop
      vertex -57.87209692753628 50.125646129681456 106.8
      vertex -57.85 50.35 106.8
      vertex -57.85 50.35 102.8
    endloop
  endfacet
  facet normal 0.9951847266721981 -0.09801714032954811 4.758309929580295e-19
    outer loop
      vertex -60.12790307246372 50.57435387031855 106.8
      vertex -60.15 50.35 106.8
      vertex -60.15 50.35 102.8
    endloop
  endfacet
  facet normal 0.9569403357322083 -0.2902846772544642 6.462941522426415e-19
    outer loop
      vertex -60.06246146238798 50.79008594721986 106.8
      vertex -60.12790307246372 50.57435387031855 106.8
      vertex -60.12790307246372 50.57435387031855 102.8
    endloop
  endfacet
  facet normal 0.8819212643483514 -0.4713967368260044 -1.41367660786228e-18
    outer loop
      vertex -59.956190054147925 50.98890576797255 106.8
      vertex -60.06246146238798 50.79008594721986 106.8
      vertex -60.06246146238798 50.79008594721986 102.8
    endloop
  endfacet
  facet normal 0.7730104533627236 -0.6343932841636617 6.5590284234632e-19
    outer loop
      vertex -59.813172798364526 51.16317279836453 106.8
      vertex -59.956190054147925 50.98890576797255 106.8
      vertex -59.956190054147925 50.98890576797255 102.8
    endloop
  endfacet
  facet normal -0.9951847266721981 -0.09801714032954811 -4.758309929580295e-19
    outer loop
      vertex -57.85 50.35 106.8
      vertex -57.87209692753628 50.57435387031855 106.8
      vertex -57.87209692753628 50.57435387031855 102.8
    endloop
  endfacet
  facet normal -0.9569403357322083 -0.2902846772544642 -6.462941522426415e-19
    outer loop
      vertex -57.87209692753628 50.57435387031855 106.8
      vertex -57.93753853761202 50.79008594721986 106.8
      vertex -57.93753853761202 50.79008594721986 102.8
    endloop
  endfacet
  facet normal -0.8819212643483514 -0.4713967368260044 1.41367660786228e-18
    outer loop
      vertex -57.93753853761202 50.79008594721986 106.8
      vertex -58.043809945852075 50.98890576797255 106.8
      vertex -58.043809945852075 50.98890576797255 102.8
    endloop
  endfacet
  facet normal -0.7730104533627236 -0.6343932841636617 -6.5590284234632e-19
    outer loop
      vertex -58.043809945852075 50.98890576797255 106.8
      vertex -58.186827201635474 51.16317279836453 106.8
      vertex -58.186827201635474 51.16317279836453 102.8
    endloop
  endfacet
  facet normal 0.6343932841636617 -0.7730104533627236 0
    outer loop
      vertex -59.813172798364526 51.16317279836453 106.8
      vertex -59.813172798364526 51.16317279836453 102.8
      vertex -59.638905767972545 51.306190054147926 106.8
    endloop
  endfacet
  facet normal 0.4713967368260044 -0.8819212643483514 0
    outer loop
      vertex -59.638905767972545 51.306190054147926 106.8
      vertex -59.638905767972545 51.306190054147926 102.8
      vertex -59.440085947219856 51.41246146238798 106.8
    endloop
  endfacet
  facet normal 0.2902846772544642 -0.9569403357322083 0
    outer loop
      vertex -59.440085947219856 51.41246146238798 106.8
      vertex -59.440085947219856 51.41246146238798 102.8
      vertex -59.224353870318545 51.47790307246372 106.8
    endloop
  endfacet
  facet normal -0.4713967368260044 -0.8819212643483514 0
    outer loop
      vertex -58.559914052780144 51.41246146238798 106.8
      vertex -58.559914052780144 51.41246146238798 102.8
      vertex -58.361094232027455 51.306190054147926 106.8
    endloop
  endfacet
  facet normal 0.09801714032954811 -0.9951847266721981 0
    outer loop
      vertex -59.224353870318545 51.47790307246372 106.8
      vertex -59.224353870318545 51.47790307246372 102.8
      vertex -59 51.5 106.8
    endloop
  endfacet
  facet normal -0.2902846772544642 -0.9569403357322083 0
    outer loop
      vertex -58.775646129681455 51.47790307246372 106.8
      vertex -58.775646129681455 51.47790307246372 102.8
      vertex -58.559914052780144 51.41246146238798 106.8
    endloop
  endfacet
  facet normal -0.09801714032954811 -0.9951847266721981 0
    outer loop
      vertex -59 51.5 106.8
      vertex -59 51.5 102.8
      vertex -58.775646129681455 51.47790307246372 106.8
    endloop
  endfacet
  facet normal -0.6343932841636617 -0.7730104533627236 0
    outer loop
      vertex -58.361094232027455 51.306190054147926 106.8
      vertex -58.361094232027455 51.306190054147926 102.8
      vertex -58.186827201635474 51.16317279836453 106.8
    endloop
  endfacet
  facet normal 0 0 -1
    outer loop
      vertex -62 41.45 102.8
      vertex -59.224353870318545 49.222096927536285 102.8
      vertex -59 49.2 102.8
    endloop
  endfacet
  facet normal 0 0 -1
    outer loop
      vertex -62 41.45 102.8
      vertex -59.440085947219856 49.28753853761202 102.8
      vertex -59.224353870318545 49.222096927536285 102.8
    endloop
  endfacet
  facet normal 0 0 -1
    outer loop
      vertex -62 41.45 102.8
      vertex -59.638905767972545 49.39380994585208 102.8
      vertex -59.440085947219856 49.28753853761202 102.8
    endloop
  endfacet
  facet normal 0 0 -1
    outer loop
      vertex -62 41.45 102.8
      vertex -59.813172798364526 49.536827201635475 102.8
      vertex -59.638905767972545 49.39380994585208 102.8
    endloop
  endfacet
  facet normal 0 0 -1
    outer loop
      vertex -62 41.45 102.8
      vertex -59.956190054147925 49.711094232027456 102.8
      vertex -59.813172798364526 49.536827201635475 102.8
    endloop
  endfacet
  facet normal 0 0 -1
    outer loop
      vertex -62 41.45 102.8
      vertex -60.06246146238798 49.909914052780145 102.8
      vertex -59.956190054147925 49.711094232027456 102.8
    endloop
  endfacet
  facet normal 0 0 -1
    outer loop
      vertex -62 41.45 102.8
      vertex -60.12790307246372 50.125646129681456 102.8
      vertex -60.06246146238798 49.909914052780145 102.8
    endloop
  endfacet
  facet normal 0 0 -1
    outer loop
      vertex -62 41.45 102.8
      vertex -60.15 50.35 102.8
      vertex -60.12790307246372 50.125646129681456 102.8
    endloop
  endfacet
  facet normal -1 0 0
    outer loop
      vertex -62 41.45 102.8
      vertex -62 41.45 106.8
      vertex -62 53.35 106.8
    endloop
  endfacet
  facet normal 0 0 1
    outer loop
      vertex -62 41.45 106.8
      vertex -59 49.2 106.8
      vertex -59.224353870318545 49.222096927536285 106.8
    endloop
  endfacet
  facet normal 0 0 1
    outer loop
      vertex -62 41.45 106.8
      vertex -59.224353870318545 49.222096927536285 106.8
      vertex -59.440085947219856 49.28753853761202 106.8
    endloop
  endfacet
  facet normal 0 0 1
    outer loop
      vertex -62 41.45 106.8
      vertex -58.775646129681455 49.222096927536285 106.8
      vertex -59 49.2 106.8
    endloop
  endfacet
  facet normal 0 0 1
    outer loop
      vertex -62 41.45 106.8
      vertex -58.559914052780144 49.28753853761202 106.8
      vertex -58.775646129681455 49.222096927536285 106.8
    endloop
  endfacet
  facet normal 0 0 1
    outer loop
      vertex -62 41.45 106.8
      vertex -59.440085947219856 49.28753853761202 106.8
      vertex -59.638905767972545 49.39380994585208 106.8
    endloop
  endfacet
  facet normal 0 0 1
    outer loop
      vertex -62 41.45 106.8
      vertex -59.638905767972545 49.39380994585208 106.8
      vertex -59.813172798364526 49.536827201635475 106.8
    endloop
  endfacet
  facet normal 0 0 1
    outer loop
      vertex -62 41.45 106.8
      vertex -59.813172798364526 49.536827201635475 106.8
      vertex -59.956190054147925 49.711094232027456 106.8
    endloop
  endfacet
  facet normal 0 0 1
    outer loop
      vertex -62 41.45 106.8
      vertex -58.361094232027455 49.39380994585208 106.8
      vertex -58.559914052780144 49.28753853761202 106.8
    endloop
  endfacet
  facet normal 0 0 1
    outer loop
      vertex -62 41.45 106.8
      vertex -58.186827201635474 49.536827201635475 106.8
      vertex -58.361094232027455 49.39380994585208 106.8
    endloop
  endfacet
  facet normal 0 0 1
    outer loop
      vertex -62 41.45 106.8
      vertex -58.043809945852075 49.711094232027456 106.8
      vertex -58.186827201635474 49.536827201635475 106.8
    endloop
  endfacet
  facet normal 0 -1 0
    outer loop
      vertex -62 41.45 102.8
      vertex 50.3 41.45 106.8
      vertex -62 41.45 106.8
    endloop
  endfacet
  facet normal 0 0 1
    outer loop
      vertex -62 41.45 106.8
      vertex 50.3 41.45 106.8
      vertex -58.043809945852075 49.711094232027456 106.8
    endloop
  endfacet
  facet normal 0 0 1
    outer loop
      vertex 50.3 41.45 106.8
      vertex -57.93753853761202 49.909914052780145 106.8
      vertex -58.043809945852075 49.711094232027456 106.8
    endloop
  endfacet
  facet normal 0 0 1
    outer loop
      vertex 50.3 41.45 106.8
      vertex -57.87209692753628 50.125646129681456 106.8
      vertex -57.93753853761202 49.909914052780145 106.8
    endloop
  endfacet
  facet normal 0 0 1
    outer loop
      vertex 50.3 41.45 106.8
      vertex -57.85 50.35 106.8
      vertex -57.87209692753628 50.125646129681456 106.8
    endloop
  endfacet
  facet normal 0 0 -1
    outer loop
      vertex -62 41.45 102.8
      vertex -62 53.35 102.8
      vertex -60.15 50.35 102.8
    endloop
  endfacet
  facet normal -1 0 0
    outer loop
      vertex -62 41.45 102.8
      vertex -62 53.35 106.8
      vertex -62 53.35 102.8
    endloop
  endfacet
  facet normal 0 0 -1
    outer loop
      vertex -62 53.35 102.8
      vertex -60.12790307246372 50.57435387031855 102.8
      vertex -60.15 50.35 102.8
    endloop
  endfacet
  facet normal 0 0 -1
    outer loop
      vertex -62 53.35 102.8
      vertex -60.06246146238798 50.79008594721986 102.8
      vertex -60.12790307246372 50.57435387031855 102.8
    endloop
  endfacet
  facet normal 0 0 -1
    outer loop
      vertex -62 53.35 102.8
      vertex -59.956190054147925 50.98890576797255 102.8
      vertex -60.06246146238798 50.79008594721986 102.8
    endloop
  endfacet
  facet normal 0 0 -1
    outer loop
      vertex -62 53.35 102.8
      vertex -59.813172798364526 51.16317279836453 102.8
      vertex -59.956190054147925 50.98890576797255 102.8
    endloop
  endfacet
  facet normal 0 0 -1
    outer loop
      vertex -62 53.35 102.8
      vertex -59.638905767972545 51.306190054147926 102.8
      vertex -59.813172798364526 51.16317279836453 102.8
    endloop
  endfacet
  facet normal 0 0 -1
    outer loop
      vertex -62 53.35 102.8
      vertex -59.440085947219856 51.41246146238798 102.8
      vertex -59.638905767972545 51.306190054147926 102.8
    endloop
  endfacet
  facet normal 0 0 -1
    outer loop
      vertex -62 53.35 102.8
      vertex -58.361094232027455 51.306190054147926 102.8
      vertex -58.559914052780144 51.41246146238798 102.8
    endloop
  endfacet
  facet normal 0 0 -1
    outer loop
      vertex -62 53.35 102.8
      vertex -59.224353870318545 51.47790307246372 102.8
      vertex -59.440085947219856 51.41246146238798 102.8
    endloop
  endfacet
  facet normal 0 0 -1
    outer loop
      vertex -62 53.35 102.8
      vertex -59 51.5 102.8
      vertex -59.224353870318545 51.47790307246372 102.8
    endloop
  endfacet
  facet normal 0 0 -1
    outer loop
      vertex -62 53.35 102.8
      vertex -58.775646129681455 51.47790307246372 102.8
      vertex -59 51.5 102.8
    endloop
  endfacet
  facet normal 0 0 -1
    outer loop
      vertex -62 53.35 102.8
      vertex -58.559914052780144 51.41246146238798 102.8
      vertex -58.775646129681455 51.47790307246372 102.8
    endloop
  endfacet
  facet normal 0 0 -1
    outer loop
      vertex -62 41.45 102.8
      vertex -59 49.2 102.8
      vertex 50.3 53.35 102.8
    endloop
  endfacet
  facet normal 0 0 -1
    outer loop
      vertex 50.3 53.35 102.8
      vertex -59 49.2 102.8
      vertex -58.775646129681455 49.222096927536285 102.8
    endloop
  endfacet
  facet normal 0 0 -1
    outer loop
      vertex 50.3 53.35 102.8
      vertex -58.775646129681455 49.222096927536285 102.8
      vertex -58.559914052780144 49.28753853761202 102.8
    endloop
  endfacet
  facet normal 0 0 -1
    outer loop
      vertex 50.3 53.35 102.8
      vertex -58.559914052780144 49.28753853761202 102.8
      vertex -58.361094232027455 49.39380994585208 102.8
    endloop
  endfacet
  facet normal 0 0 -1
    outer loop
      vertex 50.3 53.35 102.8
      vertex -58.361094232027455 49.39380994585208 102.8
      vertex -58.186827201635474 49.536827201635475 102.8
    endloop
  endfacet
  facet normal 0 0 -1
    outer loop
      vertex 50.3 53.35 102.8
      vertex -58.186827201635474 49.536827201635475 102.8
      vertex -58.043809945852075 49.711094232027456 102.8
    endloop
  endfacet
  facet normal 0 0 -1
    outer loop
      vertex 50.3 53.35 102.8
      vertex -58.043809945852075 49.711094232027456 102.8
      vertex -57.93753853761202 49.909914052780145 102.8
    endloop
  endfacet
  facet normal 0 0 -1
    outer loop
      vertex 50.3 53.35 102.8
      vertex -57.93753853761202 49.909914052780145 102.8
      vertex -57.87209692753628 50.125646129681456 102.8
    endloop
  endfacet
  facet normal 0 0 -1
    outer loop
      vertex 50.3 53.35 102.8
      vertex -57.87209692753628 50.125646129681456 102.8
      vertex -57.85 50.35 102.8
    endloop
  endfacet
  facet normal 0 0 -1
    outer loop
      vertex 50.3 53.35 102.8
      vertex -57.85 50.35 102.8
      vertex -57.87209692753628 50.57435387031855 102.8
    endloop
  endfacet
  facet normal 0 0 -1
    outer loop
      vertex 50.3 53.35 102.8
      vertex -57.87209692753628 50.57435387031855 102.8
      vertex -57.93753853761202 50.79008594721986 102.8
    endloop
  endfacet
  facet normal 0 0 -1
    outer loop
      vertex 50.3 53.35 102.8
      vertex -57.93753853761202 50.79008594721986 102.8
      vertex -58.043809945852075 50.98890576797255 102.8
    endloop
  endfacet
  facet normal 0 0 -1
    outer loop
      vertex 50.3 53.35 102.8
      vertex -58.043809945852075 50.98890576797255 102.8
      vertex -58.186827201635474 51.16317279836453 102.8
    endloop
  endfacet
  facet normal 0 0 -1
    outer loop
      vertex 50.3 53.35 102.8
      vertex -58.186827201635474 51.16317279836453 102.8
      vertex -58.361094232027455 51.306190054147926 102.8
    endloop
  endfacet
  facet normal 0 0 -1
    outer loop
      vertex -62 53.35 102.8
      vertex 50.3 53.35 102.8
      vertex -58.361094232027455 51.306190054147926 102.8
    endloop
  endfacet
  facet normal 0 1 0
    outer loop
      vertex -62 53.35 102.8
      vertex -62 53.35 106.8
      vertex 50.3 53.35 102.8
    endloop
  endfacet
  facet normal 0 0 1
    outer loop
      vertex -62 41.45 106.8
      vertex -59.956190054147925 49.711094232027456 106.8
      vertex -62 53.35 106.8
    endloop
  endfacet
  facet normal 0 0 1
    outer loop
      vertex -62 53.35 106.8
      vertex -59.956190054147925 49.711094232027456 106.8
      vertex -60.06246146238798 49.909914052780145 106.8
    endloop
  endfacet
  facet normal 0 0 1
    outer loop
      vertex -62 53.35 106.8
      vertex -60.06246146238798 49.909914052780145 106.8
      vertex -60.12790307246372 50.125646129681456 106.8
    endloop
  endfacet
  facet normal 0 0 1
    outer loop
      vertex -62 53.35 106.8
      vertex -60.12790307246372 50.125646129681456 106.8
      vertex -60.15 50.35 106.8
    endloop
  endfacet
  facet normal 0 0 1
    outer loop
      vertex -62 53.35 106.8
      vertex -60.15 50.35 106.8
      vertex -60.12790307246372 50.57435387031855 106.8
    endloop
  endfacet
  facet normal 0 0 1
    outer loop
      vertex -62 53.35 106.8
      vertex -60.12790307246372 50.57435387031855 106.8
      vertex -60.06246146238798 50.79008594721986 106.8
    endloop
  endfacet
  facet normal 0 0 1
    outer loop
      vertex -62 53.35 106.8
      vertex -60.06246146238798 50.79008594721986 106.8
      vertex -59.956190054147925 50.98890576797255 106.8
    endloop
  endfacet
  facet normal 0 0 1
    outer loop
      vertex -62 53.35 106.8
      vertex -59.956190054147925 50.98890576797255 106.8
      vertex -59.813172798364526 51.16317279836453 106.8
    endloop
  endfacet
  facet normal 0 0 1
    outer loop
      vertex -62 53.35 106.8
      vertex -59.813172798364526 51.16317279836453 106.8
      vertex -59.638905767972545 51.306190054147926 106.8
    endloop
  endfacet
  facet normal 0 0 1
    outer loop
      vertex -62 53.35 106.8
      vertex -59.638905767972545 51.306190054147926 106.8
      vertex -59.440085947219856 51.41246146238798 106.8
    endloop
  endfacet
  facet normal 0 0 1
    outer loop
      vertex -62 53.35 106.8
      vertex -59.440085947219856 51.41246146238798 106.8
      vertex -59.224353870318545 51.47790307246372 106.8
    endloop
  endfacet
  facet normal 0 0 1
    outer loop
      vertex -62 53.35 106.8
      vertex -59.224353870318545 51.47790307246372 106.8
      vertex -59 51.5 106.8
    endloop
  endfacet
  facet normal 0 0 1
    outer loop
      vertex 50.3 41.45 106.8
      vertex -57.87209692753628 50.57435387031855 106.8
      vertex -57.85 50.35 106.8
    endloop
  endfacet
  facet normal 0 0 1
    outer loop
      vertex 50.3 41.45 106.8
      vertex -57.93753853761202 50.79008594721986 106.8
      vertex -57.87209692753628 50.57435387031855 106.8
    endloop
  endfacet
  facet normal 0 0 1
    outer loop
      vertex 50.3 41.45 106.8
      vertex -58.043809945852075 50.98890576797255 106.8
      vertex -57.93753853761202 50.79008594721986 106.8
    endloop
  endfacet
  facet normal 0 0 1
    outer loop
      vertex 50.3 41.45 106.8
      vertex -58.186827201635474 51.16317279836453 106.8
      vertex -58.043809945852075 50.98890576797255 106.8
    endloop
  endfacet
  facet normal 0 0 1
    outer loop
      vertex 50.3 41.45 106.8
      vertex -58.361094232027455 51.306190054147926 106.8
      vertex -58.186827201635474 51.16317279836453 106.8
    endloop
  endfacet
  facet normal 0 0 1
    outer loop
      vertex 50.3 41.45 106.8
      vertex -58.559914052780144 51.41246146238798 106.8
      vertex -58.361094232027455 51.306190054147926 106.8
    endloop
  endfacet
  facet normal 0 0 1
    outer loop
      vertex 50.3 41.45 106.8
      vertex -58.775646129681455 51.47790307246372 106.8
      vertex -58.559914052780144 51.41246146238798 106.8
    endloop
  endfacet
  facet normal 0 0 1
    outer loop
      vertex 50.3 41.45 106.8
      vertex -59 51.5 106.8
      vertex -58.775646129681455 51.47790307246372 106.8
    endloop
  endfacet
  facet normal 0 0 1
    outer loop
      vertex -62 53.35 106.8
      vertex -59 51.5 106.8
      vertex 50.3 41.45 106.8
    endloop
  endfacet
  facet normal 0 0 -1
    outer loop
      vertex -62 41.45 102.8
      vertex 46.34380994585207 49.711094232027456 102.8
      vertex 50.3 41.45 102.8
    endloop
  endfacet
  facet normal 0 -1 0
    outer loop
      vertex -62 41.45 102.8
      vertex 50.3 41.45 102.8
      vertex 50.3 41.45 106.8
    endloop
  endfacet
  facet normal 0 0 -1
    outer loop
      vertex -62 41.45 102.8
      vertex 46.23753853761202 49.909914052780145 102.8
      vertex 46.34380994585207 49.711094232027456 102.8
    endloop
  endfacet
  facet normal 0 0 -1
    outer loop
      vertex -62 41.45 102.8
      vertex 46.17209692753628 50.125646129681456 102.8
      vertex 46.23753853761202 49.909914052780145 102.8
    endloop
  endfacet
  facet normal 0 0 -1
    outer loop
      vertex -62 41.45 102.8
      vertex 46.15 50.35 102.8
      vertex 46.17209692753628 50.125646129681456 102.8
    endloop
  endfacet
  facet normal 0 0 -1
    outer loop
      vertex 50.3 41.45 102.8
      vertex 46.85991405278014 49.28753853761202 102.8
      vertex 47.07564612968145 49.222096927536285 102.8
    endloop
  endfacet
  facet normal 0 0 -1
    outer loop
      vertex 50.3 41.45 102.8
      vertex 47.07564612968145 49.222096927536285 102.8
      vertex 47.3 49.2 102.8
    endloop
  endfacet
  facet normal 0 0 -1
    outer loop
      vertex 50.3 41.45 102.8
      vertex 47.3 49.2 102.8
      vertex 47.52435387031854 49.222096927536285 102.8
    endloop
  endfacet
  facet normal 0 0 -1
    outer loop
      vertex 50.3 41.45 102.8
      vertex 47.52435387031854 49.222096927536285 102.8
      vertex 47.74008594721985 49.28753853761202 102.8
    endloop
  endfacet
  facet normal 0 0 -1
    outer loop
      vertex 50.3 41.45 102.8
      vertex 46.66109423202745 49.39380994585208 102.8
      vertex 46.85991405278014 49.28753853761202 102.8
    endloop
  endfacet
  facet normal 0 0 -1
    outer loop
      vertex 50.3 41.45 102.8
      vertex 46.48682720163547 49.536827201635475 102.8
      vertex 46.66109423202745 49.39380994585208 102.8
    endloop
  endfacet
  facet normal 0 0 -1
    outer loop
      vertex 50.3 41.45 102.8
      vertex 46.34380994585207 49.711094232027456 102.8
      vertex 46.48682720163547 49.536827201635475 102.8
    endloop
  endfacet
  facet normal 0 0 -1
    outer loop
      vertex 50.3 41.45 102.8
      vertex 47.74008594721985 49.28753853761202 102.8
      vertex 47.93890576797254 49.39380994585208 102.8
    endloop
  endfacet
  facet normal 0 0 -1
    outer loop
      vertex 50.3 41.45 102.8
      vertex 47.93890576797254 49.39380994585208 102.8
      vertex 48.11317279836452 49.536827201635475 102.8
    endloop
  endfacet
  facet normal 0 0 -1
    outer loop
      vertex 50.3 41.45 102.8
      vertex 48.11317279836452 49.536827201635475 102.8
      vertex 48.25619005414792 49.711094232027456 102.8
    endloop
  endfacet
  facet normal 1 0 0
    outer loop
      vertex 50.3 41.45 102.8
      vertex 50.3 53.35 102.8
      vertex 50.3 41.45 106.8
    endloop
  endfacet
  facet normal 0 0 1
    outer loop
      vertex 50.3 41.45 106.8
      vertex 47.52435387031854 49.222096927536285 106.8
      vertex 47.3 49.2 106.8
    endloop
  endfacet
  facet normal 0 0 1
    outer loop
      vertex 50.3 41.45 106.8
      vertex 47.74008594721985 49.28753853761202 106.8
      vertex 47.52435387031854 49.222096927536285 106.8
    endloop
  endfacet
  facet normal 0 0 1
    outer loop
      vertex 50.3 41.45 106.8
      vertex 47.93890576797254 49.39380994585208 106.8
      vertex 47.74008594721985 49.28753853761202 106.8
    endloop
  endfacet
  facet normal 0 0 1
    outer loop
      vertex 50.3 41.45 106.8
      vertex 48.11317279836452 49.536827201635475 106.8
      vertex 47.93890576797254 49.39380994585208 106.8
    endloop
  endfacet
  facet normal 0 0 1
    outer loop
      vertex 50.3 41.45 106.8
      vertex 48.25619005414792 49.711094232027456 106.8
      vertex 48.11317279836452 49.536827201635475 106.8
    endloop
  endfacet
  facet normal 0 0 1
    outer loop
      vertex 50.3 41.45 106.8
      vertex 48.36246146238798 49.909914052780145 106.8
      vertex 48.25619005414792 49.711094232027456 106.8
    endloop
  endfacet
  facet normal 0 0 1
    outer loop
      vertex 50.3 41.45 106.8
      vertex 48.427903072463714 50.125646129681456 106.8
      vertex 48.36246146238798 49.909914052780145 106.8
    endloop
  endfacet
  facet normal 0 0 1
    outer loop
      vertex 50.3 41.45 106.8
      vertex 48.449999999999996 50.35 106.8
      vertex 48.427903072463714 50.125646129681456 106.8
    endloop
  endfacet
  facet normal 0 0 -1
    outer loop
      vertex -62 41.45 102.8
      vertex 46.17209692753628 50.57435387031855 102.8
      vertex 46.15 50.35 102.8
    endloop
  endfacet
  facet normal 0 0 -1
    outer loop
      vertex -62 41.45 102.8
      vertex 46.23753853761202 50.79008594721986 102.8
      vertex 46.17209692753628 50.57435387031855 102.8
    endloop
  endfacet
  facet normal 0 0 -1
    outer loop
      vertex -62 41.45 102.8
      vertex 46.34380994585207 50.98890576797255 102.8
      vertex 46.23753853761202 50.79008594721986 102.8
    endloop
  endfacet
  facet normal 0 0 -1
    outer loop
      vertex -62 41.45 102.8
      vertex 46.48682720163547 51.16317279836453 102.8
      vertex 46.34380994585207 50.98890576797255 102.8
    endloop
  endfacet
  facet normal 0 0 -1
    outer loop
      vertex -62 41.45 102.8
      vertex 46.66109423202745 51.306190054147926 102.8
      vertex 46.48682720163547 51.16317279836453 102.8
    endloop
  endfacet
  facet normal 0 0 -1
    outer loop
      vertex -62 41.45 102.8
      vertex 46.85991405278014 51.41246146238798 102.8
      vertex 46.66109423202745 51.306190054147926 102.8
    endloop
  endfacet
  facet normal 0 0 -1
    outer loop
      vertex -62 41.45 102.8
      vertex 47.07564612968145 51.47790307246372 102.8
      vertex 46.85991405278014 51.41246146238798 102.8
    endloop
  endfacet
  facet normal 0 0 -1
    outer loop
      vertex -62 41.45 102.8
      vertex 47.3 51.5 102.8
      vertex 47.07564612968145 51.47790307246372 102.8
    endloop
  endfacet
  facet normal 0 0 -1
    outer loop
      vertex -62 41.45 102.8
      vertex 50.3 53.35 102.8
      vertex 47.3 51.5 102.8
    endloop
  endfacet
  facet normal 0 0 -1
    outer loop
      vertex 50.3 41.45 102.8
      vertex 48.25619005414792 49.711094232027456 102.8
      vertex 50.3 53.35 102.8
    endloop
  endfacet
  facet normal 0 0 -1
    outer loop
      vertex 50.3 53.35 102.8
      vertex 48.25619005414792 49.711094232027456 102.8
      vertex 48.36246146238798 49.909914052780145 102.8
    endloop
  endfacet
  facet normal 0 0 -1
    outer loop
      vertex 50.3 53.35 102.8
      vertex 48.36246146238798 49.909914052780145 102.8
      vertex 48.427903072463714 50.125646129681456 102.8
    endloop
  endfacet
  facet normal 0 0 -1
    outer loop
      vertex 50.3 53.35 102.8
      vertex 48.427903072463714 50.125646129681456 102.8
      vertex 48.449999999999996 50.35 102.8
    endloop
  endfacet
  facet normal 0 0 -1
    outer loop
      vertex 50.3 53.35 102.8
      vertex 48.449999999999996 50.35 102.8
      vertex 48.427903072463714 50.57435387031855 102.8
    endloop
  endfacet
  facet normal 0 0 -1
    outer loop
      vertex 50.3 53.35 102.8
      vertex 48.427903072463714 50.57435387031855 102.8
      vertex 48.36246146238798 50.79008594721986 102.8
    endloop
  endfacet
  facet normal 0 0 -1
    outer loop
      vertex 50.3 53.35 102.8
      vertex 48.36246146238798 50.79008594721986 102.8
      vertex 48.25619005414792 50.98890576797255 102.8
    endloop
  endfacet
  facet normal 0 0 -1
    outer loop
      vertex 50.3 53.35 102.8
      vertex 48.25619005414792 50.98890576797255 102.8
      vertex 48.11317279836452 51.16317279836453 102.8
    endloop
  endfacet
  facet normal 0 0 -1
    outer loop
      vertex 50.3 53.35 102.8
      vertex 47.74008594721985 51.41246146238798 102.8
      vertex 47.52435387031854 51.47790307246372 102.8
    endloop
  endfacet
  facet normal 0 0 -1
    outer loop
      vertex 50.3 53.35 102.8
      vertex 47.52435387031854 51.47790307246372 102.8
      vertex 47.3 51.5 102.8
    endloop
  endfacet
  facet normal 0 0 -1
    outer loop
      vertex 50.3 53.35 102.8
      vertex 48.11317279836452 51.16317279836453 102.8
      vertex 47.93890576797254 51.306190054147926 102.8
    endloop
  endfacet
  facet normal 0 0 -1
    outer loop
      vertex 50.3 53.35 102.8
      vertex 47.93890576797254 51.306190054147926 102.8
      vertex 47.74008594721985 51.41246146238798 102.8
    endloop
  endfacet
  facet normal 0 0 1
    outer loop
      vertex -62 53.35 106.8
      vertex 50.3 41.45 106.8
      vertex 47.3 49.2 106.8
    endloop
  endfacet
  facet normal 0 1 0
    outer loop
      vertex -62 53.35 106.8
      vertex 50.3 53.35 106.8
      vertex 50.3 53.35 102.8
    endloop
  endfacet
  facet normal 0 0 1
    outer loop
      vertex -62 53.35 106.8
      vertex 47.3 49.2 106.8
      vertex 47.07564612968145 49.222096927536285 106.8
    endloop
  endfacet
  facet normal 0 0 1
    outer loop
      vertex -62 53.35 106.8
      vertex 47.07564612968145 49.222096927536285 106.8
      vertex 46.85991405278014 49.28753853761202 106.8
    endloop
  endfacet
  facet normal 0 0 1
    outer loop
      vertex -62 53.35 106.8
      vertex 46.85991405278014 49.28753853761202 106.8
      vertex 46.66109423202745 49.39380994585208 106.8
    endloop
  endfacet
  facet normal 0 0 1
    outer loop
      vertex -62 53.35 106.8
      vertex 46.66109423202745 49.39380994585208 106.8
      vertex 46.48682720163547 49.536827201635475 106.8
    endloop
  endfacet
  facet normal 0 0 1
    outer loop
      vertex -62 53.35 106.8
      vertex 46.48682720163547 49.536827201635475 106.8
      vertex 46.34380994585207 49.711094232027456 106.8
    endloop
  endfacet
  facet normal 0 0 1
    outer loop
      vertex -62 53.35 106.8
      vertex 46.34380994585207 49.711094232027456 106.8
      vertex 46.23753853761202 49.909914052780145 106.8
    endloop
  endfacet
  facet normal 0 0 1
    outer loop
      vertex -62 53.35 106.8
      vertex 46.23753853761202 49.909914052780145 106.8
      vertex 46.17209692753628 50.125646129681456 106.8
    endloop
  endfacet
  facet normal 0 0 1
    outer loop
      vertex -62 53.35 106.8
      vertex 46.17209692753628 50.125646129681456 106.8
      vertex 46.15 50.35 106.8
    endloop
  endfacet
  facet normal 0 0 1
    outer loop
      vertex -62 53.35 106.8
      vertex 46.15 50.35 106.8
      vertex 46.17209692753628 50.57435387031855 106.8
    endloop
  endfacet
  facet normal 0 0 1
    outer loop
      vertex -62 53.35 106.8
      vertex 46.17209692753628 50.57435387031855 106.8
      vertex 46.23753853761202 50.79008594721986 106.8
    endloop
  endfacet
  facet normal 0 0 1
    outer loop
      vertex -62 53.35 106.8
      vertex 46.23753853761202 50.79008594721986 106.8
      vertex 46.34380994585207 50.98890576797255 106.8
    endloop
  endfacet
  facet normal 0 0 1
    outer loop
      vertex -62 53.35 106.8
      vertex 46.34380994585207 50.98890576797255 106.8
      vertex 46.48682720163547 51.16317279836453 106.8
    endloop
  endfacet
  facet normal 0 0 1
    outer loop
      vertex -62 53.35 106.8
      vertex 46.48682720163547 51.16317279836453 106.8
      vertex 46.66109423202745 51.306190054147926 106.8
    endloop
  endfacet
  facet normal 0 0 1
    outer loop
      vertex -62 53.35 106.8
      vertex 46.66109423202745 51.306190054147926 106.8
      vertex 50.3 53.35 106.8
    endloop
  endfacet
  facet normal 1 0 0
    outer loop
      vertex 50.3 41.45 106.8
      vertex 50.3 53.35 102.8
      vertex 50.3 53.35 106.8
    endloop
  endfacet
  facet normal 0 0 1
    outer loop
      vertex 50.3 41.45 106.8
      vertex 50.3 53.35 106.8
      vertex 48.449999999999996 50.35 106.8
    endloop
  endfacet
  facet normal 0 0 1
    outer loop
      vertex 50.3 53.35 106.8
      vertex 48.427903072463714 50.57435387031855 106.8
      vertex 48.449999999999996 50.35 106.8
    endloop
  endfacet
  facet normal 0 0 1
    outer loop
      vertex 50.3 53.35 106.8
      vertex 48.36246146238798 50.79008594721986 106.8
      vertex 48.427903072463714 50.57435387031855 106.8
    endloop
  endfacet
  facet normal 0 0 1
    outer loop
      vertex 50.3 53.35 106.8
      vertex 48.25619005414792 50.98890576797255 106.8
      vertex 48.36246146238798 50.79008594721986 106.8
    endloop
  endfacet
  facet normal 0 0 1
    outer loop
      vertex 50.3 53.35 106.8
      vertex 48.11317279836452 51.16317279836453 106.8
      vertex 48.25619005414792 50.98890576797255 106.8
    endloop
  endfacet
  facet normal 0 0 1
    outer loop
      vertex 50.3 53.35 106.8
      vertex 46.66109423202745 51.306190054147926 106.8
      vertex 46.85991405278014 51.41246146238798 106.8
    endloop
  endfacet
  facet normal 0 0 1
    outer loop
      vertex 50.3 53.35 106.8
      vertex 46.85991405278014 51.41246146238798 106.8
      vertex 47.07564612968145 51.47790307246372 106.8
    endloop
  endfacet
  facet normal 0 0 1
    outer loop
      vertex 50.3 53.35 106.8
      vertex 47.52435387031854 51.47790307246372 106.8
      vertex 47.74008594721985 51.41246146238798 106.8
    endloop
  endfacet
  facet normal 0 0 1
    outer loop
      vertex 50.3 53.35 106.8
      vertex 47.07564612968145 51.47790307246372 106.8
      vertex 47.3 51.5 106.8
    endloop
  endfacet
  facet normal 0 0 1
    outer loop
      vertex 50.3 53.35 106.8
      vertex 47.3 51.5 106.8
      vertex 47.52435387031854 51.47790307246372 106.8
    endloop
  endfacet
  facet normal 0 0 1
    outer loop
      vertex 50.3 53.35 106.8
      vertex 47.93890576797254 51.306190054147926 106.8
      vertex 48.11317279836452 51.16317279836453 106.8
    endloop
  endfacet
  facet normal 0 0 1
    outer loop
      vertex 50.3 53.35 106.8
      vertex 47.74008594721985 51.41246146238798 106.8
      vertex 47.93890576797254 51.306190054147926 106.8
    endloop
  endfacet
endsolid OpenSCAD_Model
