solid OpenSCAD_Model
  facet normal 0 0 -1
    outer loop
      vertex -2.777851165098011 -4.157348061512726 0
      vertex -3.5355339059327378 -3.5355339059327378 0
      vertex -1.913417161825449 -4.619397662556434 0
    endloop
  endfacet
  facet normal 0 0 -1
    outer loop
      vertex -3.5355339059327378 -3.5355339059327378 0
      vertex -4.157348061512726 -2.777851165098011 0
      vertex -1.913417161825449 -4.619397662556434 0
    endloop
  endfacet
  facet normal -0.7730104533627371 -0.6343932841636453 0
    outer loop
      vertex -3.5355339059327378 -3.5355339059327378 0
      vertex -3.5355339059327378 -3.5355339059327378 4
      vertex -4.157348061512726 -2.777851165098011 0
    endloop
  endfacet
  facet normal -0.4713967368259978 -0.8819212643483549 0
    outer loop
      vertex -2.777851165098011 -4.157348061512726 0
      vertex -1.913417161825449 -4.619397662556434 0
      vertex -2.777851165098011 -4.157348061512726 4
    endloop
  endfacet
  facet normal -0.6343932841636453 -0.7730104533627371 -1.6516117905516248e-18
    outer loop
      vertex -2.777851165098011 -4.157348061512726 0
      vertex -3.5355339059327378 -3.5355339059327378 4
      vertex -3.5355339059327378 -3.5355339059327378 0
    endloop
  endfacet
  facet normal -0.2902846772544621 -0.956940335732209 -5.126039674679904e-18
    outer loop
      vertex -1.913417161825449 -4.619397662556434 0
      vertex -0.9754516100806412 -4.903926402016152 0
      vertex -0.9754516100806412 -4.903926402016152 4
    endloop
  endfacet
  facet normal 0 0 -1
    outer loop
      vertex -1.913417161825449 -4.619397662556434 0
      vertex -4.157348061512726 -2.777851165098011 0
      vertex -5 0 0
    endloop
  endfacet
  facet normal 0 0 -1
    outer loop
      vertex -4.157348061512726 -2.777851165098011 0
      vertex -4.619397662556434 -1.913417161825449 0
      vertex -5 0 0
    endloop
  endfacet
  facet normal 0 0 -1
    outer loop
      vertex -4.619397662556434 -1.913417161825449 0
      vertex -4.903926402016152 -0.9754516100806412 0
      vertex -5 0 0
    endloop
  endfacet
  facet normal 0 0 -1
    outer loop
      vertex -5 0 0
      vertex -1.2020815280171309 -1.2020815280171309 0
      vertex -0.9444693961333237 -1.413498340914327 0
    endloop
  endfacet
  facet normal 0 0 -1
    outer loop
      vertex -5 0 0
      vertex -1.413498340914327 -0.9444693961333237 0
      vertex -1.2020815280171309 -1.2020815280171309 0
    endloop
  endfacet
  facet normal 0 0 -1
    outer loop
      vertex -5 0 0
      vertex -1.5705952052691874 -0.6505618350206526 0
      vertex -1.413498340914327 -0.9444693961333237 0
    endloop
  endfacet
  facet normal 0 0 -1
    outer loop
      vertex -5 0 0
      vertex -1.6673349766854917 -0.33165354742741804 0
      vertex -1.5705952052691874 -0.6505618350206526 0
    endloop
  endfacet
  facet normal 0 0 -1
    outer loop
      vertex -5 0 0
      vertex -1.7 0 0
      vertex -1.6673349766854917 -0.33165354742741804 0
    endloop
  endfacet
  facet normal 0 0 -1
    outer loop
      vertex -5 0 0
      vertex -0.9444693961333237 -1.413498340914327 0
      vertex -0.6505618350206526 -1.5705952052691874 0
    endloop
  endfacet
  facet normal -0.8819212643483549 -0.4713967368259978 -2.3958551632572385e-18
    outer loop
      vertex -4.157348061512726 -2.777851165098011 0
      vertex -4.619397662556434 -1.913417161825449 4
      vertex -4.619397662556434 -1.913417161825449 0
    endloop
  endfacet
  facet normal -0.956940335732209 -0.2902846772544621 -5.126039674679904e-18
    outer loop
      vertex -4.619397662556434 -1.913417161825449 0
      vertex -4.903926402016152 -0.9754516100806412 4
      vertex -4.903926402016152 -0.9754516100806412 0
    endloop
  endfacet
  facet normal -0.9951847266721968 -0.0980171403295607 0
    outer loop
      vertex -4.903926402016152 -0.9754516100806412 0
      vertex -4.903926402016152 -0.9754516100806412 4
      vertex -5 0 0
    endloop
  endfacet
  facet normal 0 0 -1
    outer loop
      vertex -1.913417161825449 -4.619397662556434 0
      vertex 10 -6 0
      vertex -0.9754516100806412 -4.903926402016152 0
    endloop
  endfacet
  facet normal 0 0 -1
    outer loop
      vertex -1.913417161825449 -4.619397662556434 0
      vertex -5 0 0
      vertex 10 -6 0
    endloop
  endfacet
  facet normal 0 0 -1
    outer loop
      vertex 10 -6 0
      vertex -0.6505618350206526 -1.5705952052691874 0
      vertex -0.33165354742741804 -1.6673349766854917 0
    endloop
  endfacet
  facet normal 0 0 -1
    outer loop
      vertex 10 -6 0
      vertex -0.33165354742741804 -1.6673349766854917 0
      vertex 0 -1.7 0
    endloop
  endfacet
  facet normal 0 0 -1
    outer loop
      vertex 10 -6 0
      vertex 0 -1.7 0
      vertex 0.33165354742741804 -1.6673349766854917 0
    endloop
  endfacet
  facet normal 0 0 -1
    outer loop
      vertex 10 -6 0
      vertex 0.33165354742741804 -1.6673349766854917 0
      vertex 0.6505618350206526 -1.5705952052691874 0
    endloop
  endfacet
  facet normal 0 0 -1
    outer loop
      vertex -5 0 0
      vertex -0.6505618350206526 -1.5705952052691874 0
      vertex 10 -6 0
    endloop
  endfacet
  facet normal 0 0 -1
    outer loop
      vertex 10 -6 0
      vertex 0.6505618350206526 -1.5705952052691874 0
      vertex 0.9444693961333237 -1.413498340914327 0
    endloop
  endfacet
  facet normal 0 0 -1
    outer loop
      vertex 10 -6 0
      vertex 0.9444693961333237 -1.413498340914327 0
      vertex 1.2020815280171309 -1.2020815280171309 0
    endloop
  endfacet
  facet normal 0 0 -1
    outer loop
      vertex 10 -6 0
      vertex 1.2020815280171309 -1.2020815280171309 0
      vertex 1.413498340914327 -0.9444693961333237 0
    endloop
  endfacet
  facet normal 0 0 -1
    outer loop
      vertex 10 -6 0
      vertex 1.413498340914327 -0.9444693961333237 0
      vertex 1.5705952052691874 -0.6505618350206526 0
    endloop
  endfacet
  facet normal 0 0 -1
    outer loop
      vertex 10 -6 0
      vertex 1.5705952052691874 -0.6505618350206526 0
      vertex 1.6673349766854917 -0.33165354742741804 0
    endloop
  endfacet
  facet normal 0 0 -1
    outer loop
      vertex 10 -6 0
      vertex 1.6673349766854917 -0.33165354742741804 0
      vertex 1.7 0 0
    endloop
  endfacet
  facet normal -0.7730104533627371 -0.6343932841636453 0
    outer loop
      vertex -4.157348061512726 -2.777851165098011 0
      vertex -3.5355339059327378 -3.5355339059327378 4
      vertex -4.157348061512726 -2.777851165098011 4
    endloop
  endfacet
  facet normal -0.6343932841636453 -0.7730104533627371 0
    outer loop
      vertex -2.777851165098011 -4.157348061512726 0
      vertex -2.777851165098011 -4.157348061512726 4
      vertex -3.5355339059327378 -3.5355339059327378 4
    endloop
  endfacet
  facet normal -0.2902846772544621 -0.956940335732209 0
    outer loop
      vertex -1.913417161825449 -4.619397662556434 0
      vertex -0.9754516100806412 -4.903926402016152 4
      vertex -1.913417161825449 -4.619397662556434 4
    endloop
  endfacet
  facet normal -0.4713967368259978 -0.8819212643483549 0
    outer loop
      vertex -1.913417161825449 -4.619397662556434 0
      vertex -1.913417161825449 -4.619397662556434 4
      vertex -2.777851165098011 -4.157348061512726 4
    endloop
  endfacet
  facet normal 0 0 1
    outer loop
      vertex -2.777851165098011 -4.157348061512726 4
      vertex -1.913417161825449 -4.619397662556434 4
      vertex -3.5355339059327378 -3.5355339059327378 4
    endloop
  endfacet
  facet normal 0 0 1
    outer loop
      vertex -3.5355339059327378 -3.5355339059327378 4
      vertex -1.913417161825449 -4.619397662556434 4
      vertex -4.157348061512726 -2.777851165098011 4
    endloop
  endfacet
  facet normal -0.8819212643483549 -0.4713967368259978 0
    outer loop
      vertex -4.157348061512726 -2.777851165098011 0
      vertex -4.157348061512726 -2.777851165098011 4
      vertex -4.619397662556434 -1.913417161825449 4
    endloop
  endfacet
  facet normal -0.956940335732209 -0.2902846772544621 0
    outer loop
      vertex -4.619397662556434 -1.913417161825449 0
      vertex -4.619397662556434 -1.913417161825449 4
      vertex -4.903926402016152 -0.9754516100806412 4
    endloop
  endfacet
  facet normal -0.9951847266721968 -0.0980171403295607 -3.796547468172811e-19
    outer loop
      vertex -4.903926402016152 -0.9754516100806412 4
      vertex -5 0 4
      vertex -5 0 0
    endloop
  endfacet
  facet normal 0 0 1
    outer loop
      vertex -1.913417161825449 -4.619397662556434 4
      vertex -5 0 4
      vertex -4.157348061512726 -2.777851165098011 4
    endloop
  endfacet
  facet normal 0 0 1
    outer loop
      vertex -4.157348061512726 -2.777851165098011 4
      vertex -5 0 4
      vertex -4.619397662556434 -1.913417161825449 4
    endloop
  endfacet
  facet normal 0 0 1
    outer loop
      vertex -4.619397662556434 -1.913417161825449 4
      vertex -5 0 4
      vertex -4.903926402016152 -0.9754516100806412 4
    endloop
  endfacet
  facet normal 0 0 1
    outer loop
      vertex -5 0 4
      vertex -0.9444693961333237 -1.413498340914327 4
      vertex -1.2020815280171309 -1.2020815280171309 4
    endloop
  endfacet
  facet normal 0 0 1
    outer loop
      vertex -5 0 4
      vertex -1.2020815280171309 -1.2020815280171309 4
      vertex -1.413498340914327 -0.9444693961333237 4
    endloop
  endfacet
  facet normal 0 0 1
    outer loop
      vertex -5 0 4
      vertex -1.413498340914327 -0.9444693961333237 4
      vertex -1.5705952052691874 -0.6505618350206526 4
    endloop
  endfacet
  facet normal 0 0 1
    outer loop
      vertex -5 0 4
      vertex -1.5705952052691874 -0.6505618350206526 4
      vertex -1.6673349766854917 -0.33165354742741804 4
    endloop
  endfacet
  facet normal 0 0 1
    outer loop
      vertex -5 0 4
      vertex -1.6673349766854917 -0.33165354742741804 4
      vertex -1.7 0 4
    endloop
  endfacet
  facet normal 0 0 1
    outer loop
      vertex -5 0 4
      vertex -0.6505618350206526 -1.5705952052691874 4
      vertex -0.9444693961333237 -1.413498340914327 4
    endloop
  endfacet
  facet normal -0.0995332910598596 -0.9950342325622739 0
    outer loop
      vertex -0.9754516100806412 -4.903926402016152 0
      vertex 8.82945806790323 -5.884711682419383 4
      vertex -0.9754516100806412 -4.903926402016152 4
    endloop
  endfacet
  facet normal 0 0 1
    outer loop
      vertex -1.913417161825449 -4.619397662556434 4
      vertex -0.9754516100806412 -4.903926402016152 4
      vertex 10 -6 4
    endloop
  endfacet
  facet normal 0 0 1
    outer loop
      vertex -1.913417161825449 -4.619397662556434 4
      vertex 10 -6 4
      vertex -5 0 4
    endloop
  endfacet
  facet normal 0 0 1
    outer loop
      vertex 10 -6 4
      vertex -0.33165354742741804 -1.6673349766854917 4
      vertex -0.6505618350206526 -1.5705952052691874 4
    endloop
  endfacet
  facet normal 0 0 1
    outer loop
      vertex 10 -6 4
      vertex 0 -1.7 4
      vertex -0.33165354742741804 -1.6673349766854917 4
    endloop
  endfacet
  facet normal 0 0 1
    outer loop
      vertex 10 -6 4
      vertex 0.33165354742741804 -1.6673349766854917 4
      vertex 0 -1.7 4
    endloop
  endfacet
  facet normal 0 0 1
    outer loop
      vertex 10 -6 4
      vertex 0.6505618350206526 -1.5705952052691874 4
      vertex 0.33165354742741804 -1.6673349766854917 4
    endloop
  endfacet
  facet normal 0 0 1
    outer loop
      vertex -5 0 4
      vertex 10 -6 4
      vertex -0.6505618350206526 -1.5705952052691874 4
    endloop
  endfacet
  facet normal 0 0 1
    outer loop
      vertex 10 -6 4
      vertex 0.9444693961333237 -1.413498340914327 4
      vertex 0.6505618350206526 -1.5705952052691874 4
    endloop
  endfacet
  facet normal 0 0 1
    outer loop
      vertex 10 -6 4
      vertex 1.2020815280171309 -1.2020815280171309 4
      vertex 0.9444693961333237 -1.413498340914327 4
    endloop
  endfacet
  facet normal 0 0 1
    outer loop
      vertex 10 -6 4
      vertex 1.413498340914327 -0.9444693961333237 4
      vertex 1.2020815280171309 -1.2020815280171309 4
    endloop
  endfacet
  facet normal 0 0 1
    outer loop
      vertex 10 -6 4
      vertex 1.5705952052691874 -0.6505618350206526 4
      vertex 1.413498340914327 -0.9444693961333237 4
    endloop
  endfacet
  facet normal 0 0 1
    outer loop
      vertex 10 -6 4
      vertex 1.6673349766854917 -0.33165354742741804 4
      vertex 1.5705952052691874 -0.6505618350206526 4
    endloop
  endfacet
  facet normal 0 0 1
    outer loop
      vertex 10 -6 4
      vertex 1.7 0 4
      vertex 1.6673349766854917 -0.33165354742741804 4
    endloop
  endfacet
  facet normal 0 0 -1
    outer loop
      vertex -5 0 0
      vertex -4.903926402016152 0.9754516100806412 0
      vertex -4.619397662556434 1.913417161825449 0
    endloop
  endfacet
  facet normal 0 0 -1
    outer loop
      vertex -5 0 0
      vertex -1.6673349766854917 0.33165354742741804 0
      vertex -1.7 0 0
    endloop
  endfacet
  facet normal 0 0 -1
    outer loop
      vertex -5 0 0
      vertex -1.5705952052691874 0.6505618350206526 0
      vertex -1.6673349766854917 0.33165354742741804 0
    endloop
  endfacet
  facet normal 0 0 -1
    outer loop
      vertex -5 0 0
      vertex -1.413498340914327 0.9444693961333237 0
      vertex -1.5705952052691874 0.6505618350206526 0
    endloop
  endfacet
  facet normal 0 0 -1
    outer loop
      vertex -5 0 0
      vertex -1.2020815280171309 1.2020815280171309 0
      vertex -1.413498340914327 0.9444693961333237 0
    endloop
  endfacet
  facet normal 0 0 -1
    outer loop
      vertex -5 0 0
      vertex -0.9444693961333237 1.413498340914327 0
      vertex -1.2020815280171309 1.2020815280171309 0
    endloop
  endfacet
  facet normal 0 0 -1
    outer loop
      vertex -5 0 0
      vertex -4.619397662556434 1.913417161825449 0
      vertex -4.157348061512726 2.777851165098011 0
    endloop
  endfacet
  facet normal 0 0 -1
    outer loop
      vertex -5 0 0
      vertex -4.157348061512726 2.777851165098011 0
      vertex -1.913417161825449 4.619397662556434 0
    endloop
  endfacet
  facet normal 0 0 -1
    outer loop
      vertex -5 0 0
      vertex -0.6505618350206526 1.5705952052691874 0
      vertex -0.9444693961333237 1.413498340914327 0
    endloop
  endfacet
  facet normal -0.9951847266721968 0.0980171403295607 3.796547468172811e-19
    outer loop
      vertex -5 0 0
      vertex -4.903926402016152 0.9754516100806412 4
      vertex -4.903926402016152 0.9754516100806412 0
    endloop
  endfacet
  facet normal -0.956940335732209 0.2902846772544621 0
    outer loop
      vertex -4.903926402016152 0.9754516100806412 0
      vertex -4.903926402016152 0.9754516100806412 4
      vertex -4.619397662556434 1.913417161825449 0
    endloop
  endfacet
  facet normal -0.8819212643483549 0.4713967368259978 0
    outer loop
      vertex -4.619397662556434 1.913417161825449 0
      vertex -4.619397662556434 1.913417161825449 4
      vertex -4.157348061512726 2.777851165098011 0
    endloop
  endfacet
  facet normal 0 0 -1
    outer loop
      vertex -4.157348061512726 2.777851165098011 0
      vertex -3.5355339059327378 3.5355339059327378 0
      vertex -1.913417161825449 4.619397662556434 0
    endloop
  endfacet
  facet normal 0 0 -1
    outer loop
      vertex -3.5355339059327378 3.5355339059327378 0
      vertex -2.777851165098011 4.157348061512726 0
      vertex -1.913417161825449 4.619397662556434 0
    endloop
  endfacet
  facet normal -0.7730104533627371 0.6343932841636453 1.6516117905516248e-18
    outer loop
      vertex -4.157348061512726 2.777851165098011 0
      vertex -3.5355339059327378 3.5355339059327378 4
      vertex -3.5355339059327378 3.5355339059327378 0
    endloop
  endfacet
  facet normal -0.6343932841636453 0.7730104533627371 0
    outer loop
      vertex -3.5355339059327378 3.5355339059327378 0
      vertex -3.5355339059327378 3.5355339059327378 4
      vertex -2.777851165098011 4.157348061512726 0
    endloop
  endfacet
  facet normal -0.4713967368259978 0.8819212643483549 0
    outer loop
      vertex -2.777851165098011 4.157348061512726 0
      vertex -2.777851165098011 4.157348061512726 4
      vertex -1.913417161825449 4.619397662556434 0
    endloop
  endfacet
  facet normal -0.2902846772544621 0.956940335732209 5.126039674679904e-18
    outer loop
      vertex -1.913417161825449 4.619397662556434 0
      vertex -0.9754516100806412 4.903926402016152 4
      vertex -0.9754516100806412 4.903926402016152 0
    endloop
  endfacet
  facet normal 0 0 -1
    outer loop
      vertex -5 0 0
      vertex 10 6 0
      vertex -0.6505618350206526 1.5705952052691874 0
    endloop
  endfacet
  facet normal 0 0 -1
    outer loop
      vertex 10 6 0
      vertex 0.9444693961333237 1.413498340914327 0
      vertex 0.6505618350206526 1.5705952052691874 0
    endloop
  endfacet
  facet normal 0 0 -1
    outer loop
      vertex 10 6 0
      vertex 1.2020815280171309 1.2020815280171309 0
      vertex 0.9444693961333237 1.413498340914327 0
    endloop
  endfacet
  facet normal 0 0 -1
    outer loop
      vertex 10 6 0
      vertex 1.7 0 0
      vertex 1.6673349766854917 0.33165354742741804 0
    endloop
  endfacet
  facet normal 0 0 -1
    outer loop
      vertex 10 6 0
      vertex 1.6673349766854917 0.33165354742741804 0
      vertex 1.5705952052691874 0.6505618350206526 0
    endloop
  endfacet
  facet normal 0 0 -1
    outer loop
      vertex 10 6 0
      vertex 1.5705952052691874 0.6505618350206526 0
      vertex 1.413498340914327 0.9444693961333237 0
    endloop
  endfacet
  facet normal 0 0 -1
    outer loop
      vertex 10 6 0
      vertex 1.413498340914327 0.9444693961333237 0
      vertex 1.2020815280171309 1.2020815280171309 0
    endloop
  endfacet
  facet normal 0 0 -1
    outer loop
      vertex -5 0 0
      vertex -1.913417161825449 4.619397662556434 0
      vertex 10 6 0
    endloop
  endfacet
  facet normal 0 0 -1
    outer loop
      vertex -1.913417161825449 4.619397662556434 0
      vertex -0.9754516100806412 4.903926402016152 0
      vertex 10 6 0
    endloop
  endfacet
  facet normal 0 0 -1
    outer loop
      vertex 10 6 0
      vertex -0.33165354742741804 1.6673349766854917 0
      vertex -0.6505618350206526 1.5705952052691874 0
    endloop
  endfacet
  facet normal 0 0 -1
    outer loop
      vertex 10 6 0
      vertex 0 1.7 0
      vertex -0.33165354742741804 1.6673349766854917 0
    endloop
  endfacet
  facet normal 0 0 -1
    outer loop
      vertex 10 6 0
      vertex 0.33165354742741804 1.6673349766854917 0
      vertex 0 1.7 0
    endloop
  endfacet
  facet normal 0 0 -1
    outer loop
      vertex 10 6 0
      vertex 0.6505618350206526 1.5705952052691874 0
      vertex 0.33165354742741804 1.6673349766854917 0
    endloop
  endfacet
  facet normal -0.9951847266721968 0.0980171403295607 0
    outer loop
      vertex -5 0 0
      vertex -5 0 4
      vertex -4.903926402016152 0.9754516100806412 4
    endloop
  endfacet
  facet normal -0.956940335732209 0.2902846772544621 0
    outer loop
      vertex -4.619397662556434 1.913417161825449 0
      vertex -4.903926402016152 0.9754516100806412 4
      vertex -4.619397662556434 1.913417161825449 4
    endloop
  endfacet
  facet normal -0.8819212643483549 0.4713967368259978 0
    outer loop
      vertex -4.157348061512726 2.777851165098011 0
      vertex -4.619397662556434 1.913417161825449 4
      vertex -4.157348061512726 2.777851165098011 4
    endloop
  endfacet
  facet normal 0 0 1
    outer loop
      vertex -5 0 4
      vertex -4.619397662556434 1.913417161825449 4
      vertex -4.903926402016152 0.9754516100806412 4
    endloop
  endfacet
  facet normal 0 0 1
    outer loop
      vertex -5 0 4
      vertex -1.7 0 4
      vertex -1.6673349766854917 0.33165354742741804 4
    endloop
  endfacet
  facet normal 0 0 1
    outer loop
      vertex -5 0 4
      vertex -1.6673349766854917 0.33165354742741804 4
      vertex -1.5705952052691874 0.6505618350206526 4
    endloop
  endfacet
  facet normal 0 0 1
    outer loop
      vertex -5 0 4
      vertex -1.5705952052691874 0.6505618350206526 4
      vertex -1.413498340914327 0.9444693961333237 4
    endloop
  endfacet
  facet normal 0 0 1
    outer loop
      vertex -5 0 4
      vertex -1.413498340914327 0.9444693961333237 4
      vertex -1.2020815280171309 1.2020815280171309 4
    endloop
  endfacet
  facet normal 0 0 1
    outer loop
      vertex -5 0 4
      vertex -1.2020815280171309 1.2020815280171309 4
      vertex -0.9444693961333237 1.413498340914327 4
    endloop
  endfacet
  facet normal 0 0 1
    outer loop
      vertex -5 0 4
      vertex -4.157348061512726 2.777851165098011 4
      vertex -4.619397662556434 1.913417161825449 4
    endloop
  endfacet
  facet normal 0 0 1
    outer loop
      vertex -5 0 4
      vertex -1.913417161825449 4.619397662556434 4
      vertex -4.157348061512726 2.777851165098011 4
    endloop
  endfacet
  facet normal 0 0 1
    outer loop
      vertex -5 0 4
      vertex -0.9444693961333237 1.413498340914327 4
      vertex -0.6505618350206526 1.5705952052691874 4
    endloop
  endfacet
  facet normal -0.7730104533627371 0.6343932841636453 0
    outer loop
      vertex -4.157348061512726 2.777851165098011 0
      vertex -4.157348061512726 2.777851165098011 4
      vertex -3.5355339059327378 3.5355339059327378 4
    endloop
  endfacet
  facet normal -0.6343932841636453 0.7730104533627371 0
    outer loop
      vertex -2.777851165098011 4.157348061512726 0
      vertex -3.5355339059327378 3.5355339059327378 4
      vertex -2.777851165098011 4.157348061512726 4
    endloop
  endfacet
  facet normal -0.4713967368259978 0.8819212643483549 0
    outer loop
      vertex -1.913417161825449 4.619397662556434 0
      vertex -2.777851165098011 4.157348061512726 4
      vertex -1.913417161825449 4.619397662556434 4
    endloop
  endfacet
  facet normal -0.2902846772544621 0.956940335732209 0
    outer loop
      vertex -1.913417161825449 4.619397662556434 0
      vertex -1.913417161825449 4.619397662556434 4
      vertex -0.9754516100806412 4.903926402016152 4
    endloop
  endfacet
  facet normal 0 0 1
    outer loop
      vertex -4.157348061512726 2.777851165098011 4
      vertex -1.913417161825449 4.619397662556434 4
      vertex -3.5355339059327378 3.5355339059327378 4
    endloop
  endfacet
  facet normal 0 0 1
    outer loop
      vertex -3.5355339059327378 3.5355339059327378 4
      vertex -1.913417161825449 4.619397662556434 4
      vertex -2.777851165098011 4.157348061512726 4
    endloop
  endfacet
  facet normal 0 0 1
    outer loop
      vertex -5 0 4
      vertex -0.6505618350206526 1.5705952052691874 4
      vertex 10 6 4
    endloop
  endfacet
  facet normal 0 0 1
    outer loop
      vertex 10 6 4
      vertex 0.6505618350206526 1.5705952052691874 4
      vertex 0.9444693961333237 1.413498340914327 4
    endloop
  endfacet
  facet normal 0 0 1
    outer loop
      vertex 10 6 4
      vertex 0.9444693961333237 1.413498340914327 4
      vertex 1.2020815280171309 1.2020815280171309 4
    endloop
  endfacet
  facet normal 0 0 1
    outer loop
      vertex 10 6 4
      vertex 1.6673349766854917 0.33165354742741804 4
      vertex 1.7 0 4
    endloop
  endfacet
  facet normal 0 0 1
    outer loop
      vertex 10 6 4
      vertex 1.5705952052691874 0.6505618350206526 4
      vertex 1.6673349766854917 0.33165354742741804 4
    endloop
  endfacet
  facet normal 0 0 1
    outer loop
      vertex 10 6 4
      vertex 1.413498340914327 0.9444693961333237 4
      vertex 1.5705952052691874 0.6505618350206526 4
    endloop
  endfacet
  facet normal 0 0 1
    outer loop
      vertex 10 6 4
      vertex 1.2020815280171309 1.2020815280171309 4
      vertex 1.413498340914327 0.9444693961333237 4
    endloop
  endfacet
  facet normal -0.0995332910598596 0.9950342325622739 0
    outer loop
      vertex -0.9754516100806412 4.903926402016152 0
      vertex -0.9754516100806412 4.903926402016152 4
      vertex 8.82945806790323 5.884711682419383 4
    endloop
  endfacet
  facet normal 0 0 1
    outer loop
      vertex -5 0 4
      vertex 10 6 4
      vertex -1.913417161825449 4.619397662556434 4
    endloop
  endfacet
  facet normal 0 0 1
    outer loop
      vertex -1.913417161825449 4.619397662556434 4
      vertex 10 6 4
      vertex -0.9754516100806412 4.903926402016152 4
    endloop
  endfacet
  facet normal 0 0 1
    outer loop
      vertex 10 6 4
      vertex -0.6505618350206526 1.5705952052691874 4
      vertex -0.33165354742741804 1.6673349766854917 4
    endloop
  endfacet
  facet normal 0 0 1
    outer loop
      vertex 10 6 4
      vertex -0.33165354742741804 1.6673349766854917 4
      vertex 0 1.7 4
    endloop
  endfacet
  facet normal 0 0 1
    outer loop
      vertex 10 6 4
      vertex 0 1.7 4
      vertex 0.33165354742741804 1.6673349766854917 4
    endloop
  endfacet
  facet normal 0 0 1
    outer loop
      vertex 10 6 4
      vertex 0.33165354742741804 1.6673349766854917 4
      vertex 0.6505618350206526 1.5705952052691874 4
    endloop
  endfacet
  facet normal 0 0 -1
    outer loop
      vertex -0.9754516100806412 -4.903926402016152 0
      vertex 10 -6 0
      vertex 8.82945806790323 -5.884711682419383 0
    endloop
  endfacet
  facet normal -0.0995332910598596 -0.9950342325622739 1.702874203821197e-17
    outer loop
      vertex -0.9754516100806412 -4.903926402016152 0
      vertex 8.82945806790323 -5.884711682419383 0
      vertex 8.82945806790323 -5.884711682419383 4
    endloop
  endfacet
  facet normal -0.0980171403295607 -0.9951847266721968 0
    outer loop
      vertex 8.82945806790323 -5.884711682419383 0
      vertex 10 -6 0
      vertex 8.82945806790323 -5.884711682419383 4
    endloop
  endfacet
  facet normal 0 0 -1
    outer loop
      vertex 10 -6 0
      vertex 1.7 0 0
      vertex 16 0 0
    endloop
  endfacet
  facet normal 0 0 -1
    outer loop
      vertex 10 -6 0
      vertex 12.296100594190538 -5.54327719506772 0
      vertex 11.17054193209677 -5.884711682419383 0
    endloop
  endfacet
  facet normal 0 0 -1
    outer loop
      vertex 10 -6 0
      vertex 14.242640687119286 -4.242640687119286 0
      vertex 12.296100594190538 -5.54327719506772 0
    endloop
  endfacet
  facet normal 0 0 -1
    outer loop
      vertex 12.296100594190538 -5.54327719506772 0
      vertex 14.242640687119286 -4.242640687119286 0
      vertex 13.333421398117613 -4.988817673815271 0
    endloop
  endfacet
  facet normal 0 0 -1
    outer loop
      vertex 10 -6 0
      vertex 16 0 0
      vertex 14.242640687119286 -4.242640687119286 0
    endloop
  endfacet
  facet normal 0 0 -1
    outer loop
      vertex 14.242640687119286 -4.242640687119286 0
      vertex 15.54327719506772 -2.2961005941905386 0
      vertex 14.988817673815271 -3.333421398117613 0
    endloop
  endfacet
  facet normal 0.0980171403295607 -0.9951847266721968 -1.090967039272034e-18
    outer loop
      vertex 10 -6 0
      vertex 11.17054193209677 -5.884711682419383 0
      vertex 11.17054193209677 -5.884711682419383 4
    endloop
  endfacet
  facet normal 0.2902846772544629 -0.9569403357322086 0
    outer loop
      vertex 11.17054193209677 -5.884711682419383 0
      vertex 12.296100594190538 -5.54327719506772 0
      vertex 11.17054193209677 -5.884711682419383 4
    endloop
  endfacet
  facet normal 0.4713967368259972 -0.8819212643483553 -6.4841211462392925e-18
    outer loop
      vertex 12.296100594190538 -5.54327719506772 0
      vertex 13.333421398117613 -4.988817673815271 0
      vertex 13.333421398117613 -4.988817673815271 4
    endloop
  endfacet
  facet normal 0.6343932841636447 -0.7730104533627374 0
    outer loop
      vertex 13.333421398117613 -4.988817673815271 0
      vertex 14.242640687119286 -4.242640687119286 0
      vertex 13.333421398117613 -4.988817673815271 4
    endloop
  endfacet
  facet normal 0.7730104533627374 -0.6343932841636447 9.739934192355651e-18
    outer loop
      vertex 14.242640687119286 -4.242640687119286 0
      vertex 14.988817673815271 -3.333421398117613 0
      vertex 14.988817673815271 -3.333421398117613 4
    endloop
  endfacet
  facet normal 0 0 -1
    outer loop
      vertex 14.242640687119286 -4.242640687119286 0
      vertex 16 0 0
      vertex 15.54327719506772 -2.2961005941905386 0
    endloop
  endfacet
  facet normal 0 0 -1
    outer loop
      vertex 15.54327719506772 -2.2961005941905386 0
      vertex 16 0 0
      vertex 15.884711682419383 -1.1705419320967696 0
    endloop
  endfacet
  facet normal 0.8819212643483552 -0.47139673682599753 0
    outer loop
      vertex 14.988817673815271 -3.333421398117613 0
      vertex 15.54327719506772 -2.2961005941905386 0
      vertex 14.988817673815271 -3.333421398117613 4
    endloop
  endfacet
  facet normal 0.9569403357322088 -0.2902846772544627 1.2190069692416484e-18
    outer loop
      vertex 15.54327719506772 -2.2961005941905386 0
      vertex 15.884711682419383 -1.1705419320967696 0
      vertex 15.884711682419383 -1.1705419320967696 4
    endloop
  endfacet
  facet normal 0.9951847266721968 -0.0980171403295607 0
    outer loop
      vertex 15.884711682419383 -1.1705419320967696 0
      vertex 16 0 0
      vertex 15.884711682419383 -1.1705419320967696 4
    endloop
  endfacet
  facet normal -0.0980171403295607 -0.9951847266721968 0
    outer loop
      vertex 10 -6 0
      vertex 10 -6 4
      vertex 8.82945806790323 -5.884711682419383 4
    endloop
  endfacet
  facet normal 0.0980171403295607 -0.9951847266721968 0
    outer loop
      vertex 10 -6 0
      vertex 11.17054193209677 -5.884711682419383 4
      vertex 10 -6 4
    endloop
  endfacet
  facet normal 0 0 1
    outer loop
      vertex -0.9754516100806412 -4.903926402016152 4
      vertex 8.82945806790323 -5.884711682419383 4
      vertex 10 -6 4
    endloop
  endfacet
  facet normal 0.2902846772544629 -0.9569403357322086 0
    outer loop
      vertex 12.296100594190538 -5.54327719506772 0
      vertex 12.296100594190538 -5.54327719506772 4
      vertex 11.17054193209677 -5.884711682419383 4
    endloop
  endfacet
  facet normal 0.4713967368259972 -0.8819212643483553 0
    outer loop
      vertex 12.296100594190538 -5.54327719506772 0
      vertex 13.333421398117613 -4.988817673815271 4
      vertex 12.296100594190538 -5.54327719506772 4
    endloop
  endfacet
  facet normal 0.6343932841636447 -0.7730104533627374 0
    outer loop
      vertex 14.242640687119286 -4.242640687119286 0
      vertex 14.242640687119286 -4.242640687119286 4
      vertex 13.333421398117613 -4.988817673815271 4
    endloop
  endfacet
  facet normal 0.7730104533627374 -0.6343932841636447 0
    outer loop
      vertex 14.242640687119286 -4.242640687119286 0
      vertex 14.988817673815271 -3.333421398117613 4
      vertex 14.242640687119286 -4.242640687119286 4
    endloop
  endfacet
  facet normal 0 0 1
    outer loop
      vertex 10 -6 4
      vertex 11.17054193209677 -5.884711682419383 4
      vertex 12.296100594190538 -5.54327719506772 4
    endloop
  endfacet
  facet normal 0 0 1
    outer loop
      vertex 10 -6 4
      vertex 12.296100594190538 -5.54327719506772 4
      vertex 14.242640687119286 -4.242640687119286 4
    endloop
  endfacet
  facet normal 0 0 1
    outer loop
      vertex 12.296100594190538 -5.54327719506772 4
      vertex 13.333421398117613 -4.988817673815271 4
      vertex 14.242640687119286 -4.242640687119286 4
    endloop
  endfacet
  facet normal 0 0 1
    outer loop
      vertex 10 -6 4
      vertex 14.242640687119286 -4.242640687119286 4
      vertex 16 0 4
    endloop
  endfacet
  facet normal 0 0 1
    outer loop
      vertex 14.242640687119286 -4.242640687119286 4
      vertex 14.988817673815271 -3.333421398117613 4
      vertex 15.54327719506772 -2.2961005941905386 4
    endloop
  endfacet
  facet normal 0.8819212643483552 -0.47139673682599753 0
    outer loop
      vertex 15.54327719506772 -2.2961005941905386 0
      vertex 15.54327719506772 -2.2961005941905386 4
      vertex 14.988817673815271 -3.333421398117613 4
    endloop
  endfacet
  facet normal 0.9569403357322088 -0.2902846772544627 0
    outer loop
      vertex 15.54327719506772 -2.2961005941905386 0
      vertex 15.884711682419383 -1.1705419320967696 4
      vertex 15.54327719506772 -2.2961005941905386 4
    endloop
  endfacet
  facet normal 0.9951847266721968 -0.0980171403295607 -1.090967039272034e-18
    outer loop
      vertex 15.884711682419383 -1.1705419320967696 4
      vertex 16 0 0
      vertex 16 0 4
    endloop
  endfacet
  facet normal 0 0 1
    outer loop
      vertex 14.242640687119286 -4.242640687119286 4
      vertex 15.54327719506772 -2.2961005941905386 4
      vertex 16 0 4
    endloop
  endfacet
  facet normal 0 0 1
    outer loop
      vertex 15.54327719506772 -2.2961005941905386 4
      vertex 15.884711682419383 -1.1705419320967696 4
      vertex 16 0 4
    endloop
  endfacet
  facet normal 0 0 -1
    outer loop
      vertex 10 6 0
      vertex 16 0 0
      vertex 1.7 0 0
    endloop
  endfacet
  facet normal 0 0 -1
    outer loop
      vertex -0.9754516100806412 4.903926402016152 0
      vertex 8.82945806790323 5.884711682419383 0
      vertex 10 6 0
    endloop
  endfacet
  facet normal -0.0995332910598596 0.9950342325622739 -1.702874203821197e-17
    outer loop
      vertex -0.9754516100806412 4.903926402016152 0
      vertex 8.82945806790323 5.884711682419383 4
      vertex 8.82945806790323 5.884711682419383 0
    endloop
  endfacet
  facet normal -0.0980171403295607 0.9951847266721968 0
    outer loop
      vertex 8.82945806790323 5.884711682419383 0
      vertex 8.82945806790323 5.884711682419383 4
      vertex 10 6 0
    endloop
  endfacet
  facet normal 0.0980171403295607 0.9951847266721968 0
    outer loop
      vertex 10 6 0
      vertex 10 6 4
      vertex 11.17054193209677 5.884711682419383 0
    endloop
  endfacet
  facet normal 0 0 -1
    outer loop
      vertex 16 0 0
      vertex 15.54327719506772 2.2961005941905386 0
      vertex 15.884711682419383 1.1705419320967696 0
    endloop
  endfacet
  facet normal 0 0 -1
    outer loop
      vertex 16 0 0
      vertex 14.242640687119286 4.242640687119286 0
      vertex 15.54327719506772 2.2961005941905386 0
    endloop
  endfacet
  facet normal 0.9951847266721968 0.0980171403295607 0
    outer loop
      vertex 16 0 0
      vertex 15.884711682419383 1.1705419320967696 0
      vertex 16 0 4
    endloop
  endfacet
  facet normal 0.9569403357322088 0.2902846772544627 -1.2190069692416484e-18
    outer loop
      vertex 15.884711682419383 1.1705419320967696 0
      vertex 15.54327719506772 2.2961005941905386 0
      vertex 15.54327719506772 2.2961005941905386 4
    endloop
  endfacet
  facet normal 0.8819212643483552 0.47139673682599753 0
    outer loop
      vertex 15.54327719506772 2.2961005941905386 0
      vertex 14.988817673815271 3.333421398117613 0
      vertex 15.54327719506772 2.2961005941905386 4
    endloop
  endfacet
  facet normal 0 0 -1
    outer loop
      vertex 10 6 0
      vertex 11.17054193209677 5.884711682419383 0
      vertex 12.296100594190538 5.54327719506772 0
    endloop
  endfacet
  facet normal 0 0 -1
    outer loop
      vertex 13.333421398117613 4.988817673815271 0
      vertex 14.242640687119286 4.242640687119286 0
      vertex 12.296100594190538 5.54327719506772 0
    endloop
  endfacet
  facet normal 0 0 -1
    outer loop
      vertex 10 6 0
      vertex 12.296100594190538 5.54327719506772 0
      vertex 14.242640687119286 4.242640687119286 0
    endloop
  endfacet
  facet normal 0 0 -1
    outer loop
      vertex 10 6 0
      vertex 14.242640687119286 4.242640687119286 0
      vertex 16 0 0
    endloop
  endfacet
  facet normal 0 0 -1
    outer loop
      vertex 15.54327719506772 2.2961005941905386 0
      vertex 14.242640687119286 4.242640687119286 0
      vertex 14.988817673815271 3.333421398117613 0
    endloop
  endfacet
  facet normal 0.2902846772544629 0.9569403357322086 4.243257752270726e-18
    outer loop
      vertex 11.17054193209677 5.884711682419383 0
      vertex 12.296100594190538 5.54327719506772 4
      vertex 12.296100594190538 5.54327719506772 0
    endloop
  endfacet
  facet normal 0.4713967368259972 0.8819212643483553 6.4841211462392925e-18
    outer loop
      vertex 13.333421398117613 4.988817673815271 0
      vertex 12.296100594190538 5.54327719506772 0
      vertex 12.296100594190538 5.54327719506772 4
    endloop
  endfacet
  facet normal 0.6343932841636447 0.7730104533627374 -9.739934192355651e-18
    outer loop
      vertex 13.333421398117613 4.988817673815271 0
      vertex 14.242640687119286 4.242640687119286 4
      vertex 14.242640687119286 4.242640687119286 0
    endloop
  endfacet
  facet normal 0.7730104533627374 0.6343932841636447 0
    outer loop
      vertex 14.242640687119286 4.242640687119286 0
      vertex 14.242640687119286 4.242640687119286 4
      vertex 14.988817673815271 3.333421398117613 0
    endloop
  endfacet
  facet normal 0 0 1
    outer loop
      vertex 10 -6 4
      vertex 10 6 4
      vertex 1.7 0 4
    endloop
  endfacet
  facet normal -0.0980171403295607 0.9951847266721968 0
    outer loop
      vertex 10 6 0
      vertex 8.82945806790323 5.884711682419383 4
      vertex 10 6 4
    endloop
  endfacet
  facet normal 0 0 1
    outer loop
      vertex -0.9754516100806412 4.903926402016152 4
      vertex 10 6 4
      vertex 8.82945806790323 5.884711682419383 4
    endloop
  endfacet
  facet normal 0.9951847266721968 0.0980171403295607 0
    outer loop
      vertex 15.884711682419383 1.1705419320967696 0
      vertex 15.884711682419383 1.1705419320967696 4
      vertex 16 0 4
    endloop
  endfacet
  facet normal 0.9569403357322088 0.2902846772544627 0
    outer loop
      vertex 15.884711682419383 1.1705419320967696 0
      vertex 15.54327719506772 2.2961005941905386 4
      vertex 15.884711682419383 1.1705419320967696 4
    endloop
  endfacet
  facet normal 0.8819212643483552 0.47139673682599753 0
    outer loop
      vertex 14.988817673815271 3.333421398117613 0
      vertex 14.988817673815271 3.333421398117613 4
      vertex 15.54327719506772 2.2961005941905386 4
    endloop
  endfacet
  facet normal 0 0 1
    outer loop
      vertex 10 -6 4
      vertex 16 0 4
      vertex 10 6 4
    endloop
  endfacet
  facet normal 0 0 1
    outer loop
      vertex 16 0 4
      vertex 15.884711682419383 1.1705419320967696 4
      vertex 15.54327719506772 2.2961005941905386 4
    endloop
  endfacet
  facet normal 0 0 1
    outer loop
      vertex 16 0 4
      vertex 15.54327719506772 2.2961005941905386 4
      vertex 14.242640687119286 4.242640687119286 4
    endloop
  endfacet
  facet normal 0.0980171403295607 0.9951847266721968 0
    outer loop
      vertex 11.17054193209677 5.884711682419383 0
      vertex 10 6 4
      vertex 11.17054193209677 5.884711682419383 4
    endloop
  endfacet
  facet normal 0.2902846772544629 0.9569403357322086 0
    outer loop
      vertex 11.17054193209677 5.884711682419383 0
      vertex 11.17054193209677 5.884711682419383 4
      vertex 12.296100594190538 5.54327719506772 4
    endloop
  endfacet
  facet normal 0.4713967368259972 0.8819212643483553 0
    outer loop
      vertex 13.333421398117613 4.988817673815271 0
      vertex 12.296100594190538 5.54327719506772 4
      vertex 13.333421398117613 4.988817673815271 4
    endloop
  endfacet
  facet normal 0.7730104533627374 0.6343932841636447 0
    outer loop
      vertex 14.988817673815271 3.333421398117613 0
      vertex 14.242640687119286 4.242640687119286 4
      vertex 14.988817673815271 3.333421398117613 4
    endloop
  endfacet
  facet normal 0.6343932841636447 0.7730104533627374 0
    outer loop
      vertex 13.333421398117613 4.988817673815271 0
      vertex 13.333421398117613 4.988817673815271 4
      vertex 14.242640687119286 4.242640687119286 4
    endloop
  endfacet
  facet normal 0 0 1
    outer loop
      vertex 10 6 4
      vertex 12.296100594190538 5.54327719506772 4
      vertex 11.17054193209677 5.884711682419383 4
    endloop
  endfacet
  facet normal 0 0 1
    outer loop
      vertex 13.333421398117613 4.988817673815271 4
      vertex 12.296100594190538 5.54327719506772 4
      vertex 14.242640687119286 4.242640687119286 4
    endloop
  endfacet
  facet normal 0 0 1
    outer loop
      vertex 10 6 4
      vertex 14.242640687119286 4.242640687119286 4
      vertex 12.296100594190538 5.54327719506772 4
    endloop
  endfacet
  facet normal 0 0 1
    outer loop
      vertex 10 6 4
      vertex 16 0 4
      vertex 14.242640687119286 4.242640687119286 4
    endloop
  endfacet
  facet normal 0 0 1
    outer loop
      vertex 15.54327719506772 2.2961005941905386 4
      vertex 14.988817673815271 3.333421398117613 4
      vertex 14.242640687119286 4.242640687119286 4
    endloop
  endfacet
  facet normal 0.29028467725446244 0.9569403357322088 0
    outer loop
      vertex -0.6505618350206526 -1.5705952052691874 4
      vertex -0.33165354742741804 -1.6673349766854917 0
      vertex -0.6505618350206526 -1.5705952052691874 0
    endloop
  endfacet
  facet normal 0.0980171403295607 0.9951847266721968 0
    outer loop
      vertex -0.33165354742741804 -1.6673349766854917 4
      vertex 0 -1.7 0
      vertex -0.33165354742741804 -1.6673349766854917 0
    endloop
  endfacet
  facet normal -0.0980171403295607 0.9951847266721968 0
    outer loop
      vertex 0 -1.7 4
      vertex 0.33165354742741804 -1.6673349766854917 0
      vertex 0 -1.7 0
    endloop
  endfacet
  facet normal 0.6343932841636453 0.7730104533627373 0
    outer loop
      vertex -1.2020815280171309 -1.2020815280171309 4
      vertex -0.9444693961333237 -1.413498340914327 0
      vertex -1.2020815280171309 -1.2020815280171309 0
    endloop
  endfacet
  facet normal 0.7730104533627373 0.6343932841636453 0
    outer loop
      vertex -1.413498340914327 -0.9444693961333237 4
      vertex -1.2020815280171309 -1.2020815280171309 0
      vertex -1.413498340914327 -0.9444693961333237 0
    endloop
  endfacet
  facet normal 0.881921264348355 0.4713967368259974 0
    outer loop
      vertex -1.5705952052691874 -0.6505618350206526 4
      vertex -1.413498340914327 -0.9444693961333237 0
      vertex -1.5705952052691874 -0.6505618350206526 0
    endloop
  endfacet
  facet normal 0.9569403357322088 0.29028467725446244 0
    outer loop
      vertex -1.6673349766854917 -0.33165354742741804 4
      vertex -1.5705952052691874 -0.6505618350206526 0
      vertex -1.6673349766854917 -0.33165354742741804 0
    endloop
  endfacet
  facet normal 0.9951847266721968 0.0980171403295607 0
    outer loop
      vertex -1.7 0 4
      vertex -1.6673349766854917 -0.33165354742741804 0
      vertex -1.7 0 0
    endloop
  endfacet
  facet normal 0.4713967368259974 0.881921264348355 0
    outer loop
      vertex -0.9444693961333237 -1.413498340914327 4
      vertex -0.6505618350206526 -1.5705952052691874 0
      vertex -0.9444693961333237 -1.413498340914327 0
    endloop
  endfacet
  facet normal -0.29028467725446244 0.9569403357322088 0
    outer loop
      vertex 0.33165354742741804 -1.6673349766854917 4
      vertex 0.6505618350206526 -1.5705952052691874 0
      vertex 0.33165354742741804 -1.6673349766854917 0
    endloop
  endfacet
  facet normal -0.4713967368259974 0.881921264348355 0
    outer loop
      vertex 0.6505618350206526 -1.5705952052691874 4
      vertex 0.9444693961333237 -1.413498340914327 0
      vertex 0.6505618350206526 -1.5705952052691874 0
    endloop
  endfacet
  facet normal -0.6343932841636453 0.7730104533627373 0
    outer loop
      vertex 0.9444693961333237 -1.413498340914327 4
      vertex 1.2020815280171309 -1.2020815280171309 0
      vertex 0.9444693961333237 -1.413498340914327 0
    endloop
  endfacet
  facet normal -0.7730104533627373 0.6343932841636453 0
    outer loop
      vertex 1.2020815280171309 -1.2020815280171309 0
      vertex 1.2020815280171309 -1.2020815280171309 4
      vertex 1.413498340914327 -0.9444693961333237 0
    endloop
  endfacet
  facet normal -0.881921264348355 0.4713967368259974 0
    outer loop
      vertex 1.413498340914327 -0.9444693961333237 4
      vertex 1.5705952052691874 -0.6505618350206526 0
      vertex 1.413498340914327 -0.9444693961333237 0
    endloop
  endfacet
  facet normal -0.9569403357322088 0.29028467725446244 0
    outer loop
      vertex 1.5705952052691874 -0.6505618350206526 4
      vertex 1.6673349766854917 -0.33165354742741804 0
      vertex 1.5705952052691874 -0.6505618350206526 0
    endloop
  endfacet
  facet normal -0.9951847266721968 0.0980171403295607 0
    outer loop
      vertex 1.6673349766854917 -0.33165354742741804 0
      vertex 1.6673349766854917 -0.33165354742741804 4
      vertex 1.7 0 0
    endloop
  endfacet
  facet normal 0.4713967368259974 0.881921264348355 0
    outer loop
      vertex -0.6505618350206526 -1.5705952052691874 4
      vertex -0.6505618350206526 -1.5705952052691874 0
      vertex -0.9444693961333237 -1.413498340914327 4
    endloop
  endfacet
  facet normal 0.29028467725446244 0.9569403357322088 0
    outer loop
      vertex -0.33165354742741804 -1.6673349766854917 4
      vertex -0.33165354742741804 -1.6673349766854917 0
      vertex -0.6505618350206526 -1.5705952052691874 4
    endloop
  endfacet
  facet normal 0.0980171403295607 0.9951847266721968 0
    outer loop
      vertex 0 -1.7 4
      vertex 0 -1.7 0
      vertex -0.33165354742741804 -1.6673349766854917 4
    endloop
  endfacet
  facet normal -0.0980171403295607 0.9951847266721968 0
    outer loop
      vertex 0.33165354742741804 -1.6673349766854917 4
      vertex 0.33165354742741804 -1.6673349766854917 0
      vertex 0 -1.7 4
    endloop
  endfacet
  facet normal 0.881921264348355 0.4713967368259974 7.306981387384336e-19
    outer loop
      vertex -1.5705952052691874 -0.6505618350206526 4
      vertex -1.413498340914327 -0.9444693961333237 4
      vertex -1.413498340914327 -0.9444693961333237 0
    endloop
  endfacet
  facet normal 0.7730104533627373 0.6343932841636453 -1.0232951050143557e-19
    outer loop
      vertex -1.413498340914327 -0.9444693961333237 4
      vertex -1.2020815280171309 -1.2020815280171309 4
      vertex -1.2020815280171309 -1.2020815280171309 0
    endloop
  endfacet
  facet normal 0.9569403357322088 0.29028467725446244 1.0072388269362011e-18
    outer loop
      vertex -1.6673349766854917 -0.33165354742741804 4
      vertex -1.5705952052691874 -0.6505618350206526 4
      vertex -1.5705952052691874 -0.6505618350206526 0
    endloop
  endfacet
  facet normal 0.9951847266721968 0.0980171403295607 4.14187996309257e-20
    outer loop
      vertex -1.7 0 4
      vertex -1.6673349766854917 -0.33165354742741804 4
      vertex -1.6673349766854917 -0.33165354742741804 0
    endloop
  endfacet
  facet normal 0.6343932841636453 0.7730104533627373 0
    outer loop
      vertex -0.9444693961333237 -1.413498340914327 4
      vertex -0.9444693961333237 -1.413498340914327 0
      vertex -1.2020815280171309 -1.2020815280171309 4
    endloop
  endfacet
  facet normal -0.29028467725446244 0.9569403357322088 0
    outer loop
      vertex 0.6505618350206526 -1.5705952052691874 4
      vertex 0.6505618350206526 -1.5705952052691874 0
      vertex 0.33165354742741804 -1.6673349766854917 4
    endloop
  endfacet
  facet normal -0.4713967368259974 0.881921264348355 0
    outer loop
      vertex 0.9444693961333237 -1.413498340914327 4
      vertex 0.9444693961333237 -1.413498340914327 0
      vertex 0.6505618350206526 -1.5705952052691874 4
    endloop
  endfacet
  facet normal -0.6343932841636453 0.7730104533627373 0
    outer loop
      vertex 1.2020815280171309 -1.2020815280171309 4
      vertex 1.2020815280171309 -1.2020815280171309 0
      vertex 0.9444693961333237 -1.413498340914327 4
    endloop
  endfacet
  facet normal -0.7730104533627373 0.6343932841636453 1.0232951050143557e-19
    outer loop
      vertex 1.2020815280171309 -1.2020815280171309 4
      vertex 1.413498340914327 -0.9444693961333237 4
      vertex 1.413498340914327 -0.9444693961333237 0
    endloop
  endfacet
  facet normal -0.881921264348355 0.4713967368259974 -7.306981387384336e-19
    outer loop
      vertex 1.413498340914327 -0.9444693961333237 4
      vertex 1.5705952052691874 -0.6505618350206526 4
      vertex 1.5705952052691874 -0.6505618350206526 0
    endloop
  endfacet
  facet normal -0.9569403357322088 0.29028467725446244 -1.0072388269362011e-18
    outer loop
      vertex 1.5705952052691874 -0.6505618350206526 4
      vertex 1.6673349766854917 -0.33165354742741804 4
      vertex 1.6673349766854917 -0.33165354742741804 0
    endloop
  endfacet
  facet normal -0.9951847266721968 0.0980171403295607 -4.14187996309257e-20
    outer loop
      vertex 1.6673349766854917 -0.33165354742741804 4
      vertex 1.7 0 4
      vertex 1.7 0 0
    endloop
  endfacet
  facet normal 0.9951847266721968 -0.0980171403295607 0
    outer loop
      vertex -1.6673349766854917 0.33165354742741804 4
      vertex -1.7 0 0
      vertex -1.6673349766854917 0.33165354742741804 0
    endloop
  endfacet
  facet normal 0.9569403357322088 -0.29028467725446244 0
    outer loop
      vertex -1.5705952052691874 0.6505618350206526 4
      vertex -1.6673349766854917 0.33165354742741804 0
      vertex -1.5705952052691874 0.6505618350206526 0
    endloop
  endfacet
  facet normal 0.881921264348355 -0.4713967368259974 0
    outer loop
      vertex -1.413498340914327 0.9444693961333237 4
      vertex -1.5705952052691874 0.6505618350206526 0
      vertex -1.413498340914327 0.9444693961333237 0
    endloop
  endfacet
  facet normal 0.7730104533627373 -0.6343932841636453 0
    outer loop
      vertex -1.2020815280171309 1.2020815280171309 4
      vertex -1.413498340914327 0.9444693961333237 0
      vertex -1.2020815280171309 1.2020815280171309 0
    endloop
  endfacet
  facet normal 0.6343932841636453 -0.7730104533627373 0
    outer loop
      vertex -0.9444693961333237 1.413498340914327 4
      vertex -1.2020815280171309 1.2020815280171309 0
      vertex -0.9444693961333237 1.413498340914327 0
    endloop
  endfacet
  facet normal 0.4713967368259974 -0.881921264348355 0
    outer loop
      vertex -0.6505618350206526 1.5705952052691874 4
      vertex -0.9444693961333237 1.413498340914327 0
      vertex -0.6505618350206526 1.5705952052691874 0
    endloop
  endfacet
  facet normal 0.29028467725446244 -0.9569403357322088 0
    outer loop
      vertex -0.33165354742741804 1.6673349766854917 4
      vertex -0.6505618350206526 1.5705952052691874 0
      vertex -0.33165354742741804 1.6673349766854917 0
    endloop
  endfacet
  facet normal 0.0980171403295607 -0.9951847266721968 -4.14187996309257e-20
    outer loop
      vertex -0.33165354742741804 1.6673349766854917 0
      vertex 0 1.7 0
      vertex 0 1.7 4
    endloop
  endfacet
  facet normal -0.0980171403295607 -0.9951847266721968 0
    outer loop
      vertex 0.33165354742741804 1.6673349766854917 4
      vertex 0 1.7 0
      vertex 0.33165354742741804 1.6673349766854917 0
    endloop
  endfacet
  facet normal -0.881921264348355 -0.4713967368259974 0
    outer loop
      vertex 1.5705952052691874 0.6505618350206526 4
      vertex 1.413498340914327 0.9444693961333237 0
      vertex 1.5705952052691874 0.6505618350206526 0
    endloop
  endfacet
  facet normal -0.4713967368259974 -0.881921264348355 0
    outer loop
      vertex 0.9444693961333237 1.413498340914327 4
      vertex 0.6505618350206526 1.5705952052691874 0
      vertex 0.9444693961333237 1.413498340914327 0
    endloop
  endfacet
  facet normal -0.7730104533627373 -0.6343932841636453 0
    outer loop
      vertex 1.413498340914327 0.9444693961333237 4
      vertex 1.2020815280171309 1.2020815280171309 0
      vertex 1.413498340914327 0.9444693961333237 0
    endloop
  endfacet
  facet normal -0.6343932841636453 -0.7730104533627373 -1.0232951050143557e-19
    outer loop
      vertex 0.9444693961333237 1.413498340914327 0
      vertex 1.2020815280171309 1.2020815280171309 0
      vertex 1.2020815280171309 1.2020815280171309 4
    endloop
  endfacet
  facet normal -0.9951847266721968 -0.0980171403295607 0
    outer loop
      vertex 1.7 0 0
      vertex 1.7 0 4
      vertex 1.6673349766854917 0.33165354742741804 0
    endloop
  endfacet
  facet normal -0.9569403357322088 -0.29028467725446244 0
    outer loop
      vertex 1.6673349766854917 0.33165354742741804 4
      vertex 1.5705952052691874 0.6505618350206526 0
      vertex 1.6673349766854917 0.33165354742741804 0
    endloop
  endfacet
  facet normal -0.29028467725446244 -0.9569403357322088 0
    outer loop
      vertex 0.6505618350206526 1.5705952052691874 4
      vertex 0.33165354742741804 1.6673349766854917 0
      vertex 0.6505618350206526 1.5705952052691874 0
    endloop
  endfacet
  facet normal 0.9951847266721968 -0.0980171403295607 -4.14187996309257e-20
    outer loop
      vertex -1.6673349766854917 0.33165354742741804 4
      vertex -1.7 0 4
      vertex -1.7 0 0
    endloop
  endfacet
  facet normal 0.9569403357322088 -0.29028467725446244 -1.0072388269362011e-18
    outer loop
      vertex -1.5705952052691874 0.6505618350206526 4
      vertex -1.6673349766854917 0.33165354742741804 4
      vertex -1.6673349766854917 0.33165354742741804 0
    endloop
  endfacet
  facet normal 0.881921264348355 -0.4713967368259974 -7.306981387384336e-19
    outer loop
      vertex -1.413498340914327 0.9444693961333237 4
      vertex -1.5705952052691874 0.6505618350206526 4
      vertex -1.5705952052691874 0.6505618350206526 0
    endloop
  endfacet
  facet normal 0.7730104533627373 -0.6343932841636453 1.0232951050143557e-19
    outer loop
      vertex -1.2020815280171309 1.2020815280171309 4
      vertex -1.413498340914327 0.9444693961333237 4
      vertex -1.413498340914327 0.9444693961333237 0
    endloop
  endfacet
  facet normal 0.6343932841636453 -0.7730104533627373 0
    outer loop
      vertex -1.2020815280171309 1.2020815280171309 4
      vertex -1.2020815280171309 1.2020815280171309 0
      vertex -0.9444693961333237 1.413498340914327 4
    endloop
  endfacet
  facet normal 0.4713967368259974 -0.881921264348355 0
    outer loop
      vertex -0.9444693961333237 1.413498340914327 4
      vertex -0.9444693961333237 1.413498340914327 0
      vertex -0.6505618350206526 1.5705952052691874 4
    endloop
  endfacet
  facet normal 0.29028467725446244 -0.9569403357322088 0
    outer loop
      vertex -0.6505618350206526 1.5705952052691874 4
      vertex -0.6505618350206526 1.5705952052691874 0
      vertex -0.33165354742741804 1.6673349766854917 4
    endloop
  endfacet
  facet normal 0.0980171403295607 -0.9951847266721968 -4.14187996309257e-20
    outer loop
      vertex 0 1.7 4
      vertex -0.33165354742741804 1.6673349766854917 4
      vertex -0.33165354742741804 1.6673349766854917 0
    endloop
  endfacet
  facet normal -0.0980171403295607 -0.9951847266721968 0
    outer loop
      vertex 0 1.7 4
      vertex 0 1.7 0
      vertex 0.33165354742741804 1.6673349766854917 4
    endloop
  endfacet
  facet normal -0.881921264348355 -0.4713967368259974 7.306981387384336e-19
    outer loop
      vertex 1.5705952052691874 0.6505618350206526 4
      vertex 1.413498340914327 0.9444693961333237 4
      vertex 1.413498340914327 0.9444693961333237 0
    endloop
  endfacet
  facet normal -0.7730104533627373 -0.6343932841636453 -1.0232951050143557e-19
    outer loop
      vertex 1.413498340914327 0.9444693961333237 4
      vertex 1.2020815280171309 1.2020815280171309 4
      vertex 1.2020815280171309 1.2020815280171309 0
    endloop
  endfacet
  facet normal -0.6343932841636453 -0.7730104533627373 0
    outer loop
      vertex 0.9444693961333237 1.413498340914327 4
      vertex 0.9444693961333237 1.413498340914327 0
      vertex 1.2020815280171309 1.2020815280171309 4
    endloop
  endfacet
  facet normal -0.9951847266721968 -0.0980171403295607 4.14187996309257e-20
    outer loop
      vertex 1.7 0 4
      vertex 1.6673349766854917 0.33165354742741804 4
      vertex 1.6673349766854917 0.33165354742741804 0
    endloop
  endfacet
  facet normal -0.9569403357322088 -0.29028467725446244 1.0072388269362011e-18
    outer loop
      vertex 1.6673349766854917 0.33165354742741804 4
      vertex 1.5705952052691874 0.6505618350206526 4
      vertex 1.5705952052691874 0.6505618350206526 0
    endloop
  endfacet
  facet normal -0.29028467725446244 -0.9569403357322088 0
    outer loop
      vertex 0.33165354742741804 1.6673349766854917 4
      vertex 0.33165354742741804 1.6673349766854917 0
      vertex 0.6505618350206526 1.5705952052691874 4
    endloop
  endfacet
  facet normal -0.4713967368259974 -0.881921264348355 0
    outer loop
      vertex 0.6505618350206526 1.5705952052691874 4
      vertex 0.6505618350206526 1.5705952052691874 0
      vertex 0.9444693961333237 1.413498340914327 4
    endloop
  endfacet
endsolid OpenSCAD_Model
