solid OpenSCAD_Model
  facet normal -0.7518398074789777 -0.6593458151000685 0
    outer loop
      vertex -3.1734133611649407 -2.4350457160348826 0
      vertex -2.8284271247461903 -2.8284271247461903 0
      vertex -3.1734133611649407 -2.4350457160348826 6.3
    endloop
  endfacet
  facet normal -0.8314696123025455 -0.555570233019602 3.6904207611274935e-18
    outer loop
      vertex -3.1734133611649407 -2.4350457160348826 0
      vertex -3.4641016151377544 -2 6.3
      vertex -3.4641016151377544 -2 0
    endloop
  endfacet
  facet normal -0.6593458151000685 -0.7518398074789777 0
    outer loop
      vertex -2.4350457160348826 -3.1734133611649407 0
      vertex -2.4350457160348826 -3.1734133611649407 6.3
      vertex -2.8284271247461903 -2.8284271247461903 0
    endloop
  endfacet
  facet normal -0.555570233019602 -0.8314696123025455 3.6904207611274935e-18
    outer loop
      vertex -2.4350457160348826 -3.1734133611649407 0
      vertex -2 -3.4641016151377544 0
      vertex -2 -3.4641016151377544 6.3
    endloop
  endfacet
  facet normal 0 0 -1
    outer loop
      vertex -3.695518130045147 -1.5307337294603591 0
      vertex -3.4641016151377544 2 0
      vertex -3.4641016151377544 -2 0
    endloop
  endfacet
  facet normal 0 0 -1
    outer loop
      vertex -3.695518130045147 -1.5307337294603591 0
      vertex -3.8637033051562732 -1.035276180410083 0
      vertex -3.695518130045147 1.5307337294603591 0
    endloop
  endfacet
  facet normal 0 0 -1
    outer loop
      vertex -3.8637033051562732 -1.035276180410083 0
      vertex -3.9657794454952415 -0.5221047688802063 0
      vertex -3.8637033051562732 1.035276180410083 0
    endloop
  endfacet
  facet normal 0 0 -1
    outer loop
      vertex -3.1734133611649407 -2.4350457160348826 0
      vertex -3.4641016151377544 -2 0
      vertex -3.1734133611649407 2.4350457160348826 0
    endloop
  endfacet
  facet normal 0 0 -1
    outer loop
      vertex -2.4350457160348826 -3.1734133611649407 0
      vertex -2 3.4641016151377544 0
      vertex -2 -3.4641016151377544 0
    endloop
  endfacet
  facet normal 0 0 -1
    outer loop
      vertex -3.1734133611649407 -2.4350457160348826 0
      vertex -2.8284271247461903 2.8284271247461903 0
      vertex -2.8284271247461903 -2.8284271247461903 0
    endloop
  endfacet
  facet normal 0 0 -1
    outer loop
      vertex -2.4350457160348826 -3.1734133611649407 0
      vertex -2.8284271247461903 -2.8284271247461903 0
      vertex -2.4350457160348826 3.1734133611649407 0
    endloop
  endfacet
  facet normal -0.8968727415326881 -0.4422886902190015 0
    outer loop
      vertex -3.695518130045147 -1.5307337294603591 0
      vertex -3.4641016151377544 -2 0
      vertex -3.695518130045147 -1.5307337294603591 6.3
    endloop
  endfacet
  facet normal -0.9469301294951056 -0.3214394653031618 1.5698607452582978e-18
    outer loop
      vertex -3.695518130045147 -1.5307337294603591 0
      vertex -3.8637033051562732 -1.035276180410083 6.3
      vertex -3.8637033051562732 -1.035276180410083 0
    endloop
  endfacet
  facet normal -0.9807852804032304 -0.19509032201612786 -1.42257751338563e-19
    outer loop
      vertex -3.8637033051562732 -1.035276180410083 0
      vertex -3.9657794454952415 -0.5221047688802063 6.3
      vertex -3.9657794454952415 -0.5221047688802063 0
    endloop
  endfacet
  facet normal -0.9978589232386035 -0.0654031292301433 3.300436857838628e-19
    outer loop
      vertex -3.9657794454952415 -0.5221047688802063 0
      vertex -4 0 6.3
      vertex -4 0 0
    endloop
  endfacet
  facet normal 0 0 -1
    outer loop
      vertex -1.5307337294603591 -3.695518130045147 0
      vertex -2 -3.4641016151377544 0
      vertex -1.4722431864335457 -0.85 0
    endloop
  endfacet
  facet normal 0 0 -1
    outer loop
      vertex -1.5307337294603591 -3.695518130045147 0
      vertex -1.034894429314825 -1.3487006784950997 0
      vertex -1.035276180410083 -3.8637033051562732 0
    endloop
  endfacet
  facet normal 0 0 -1
    outer loop
      vertex -1.5307337294603591 -3.695518130045147 0
      vertex -1.2020815280171309 -1.2020815280171309 0
      vertex -1.034894429314825 -1.3487006784950997 0
    endloop
  endfacet
  facet normal 0 0 -1
    outer loop
      vertex -1.035276180410083 -3.8637033051562732 0
      vertex -0.43999237667428526 -1.6420739046914161 0
      vertex -0.5221047688802063 -3.9657794454952415 0
    endloop
  endfacet
  facet normal 0 0 -1
    outer loop
      vertex -0.5221047688802063 -3.9657794454952415 0
      vertex -0.22189452677408766 -1.6854562643354776 0
      vertex 0 -4 0
    endloop
  endfacet
  facet normal 0 0 -1
    outer loop
      vertex -1.035276180410083 -3.8637033051562732 0
      vertex -0.85 -1.4722431864335457 0
      vertex -0.6505618350206526 -1.5705952052691874 0
    endloop
  endfacet
  facet normal 0 0 -1
    outer loop
      vertex -1.035276180410083 -3.8637033051562732 0
      vertex -1.034894429314825 -1.3487006784950997 0
      vertex -0.85 -1.4722431864335457 0
    endloop
  endfacet
  facet normal 0 0 -1
    outer loop
      vertex -1.035276180410083 -3.8637033051562732 0
      vertex -0.6505618350206526 -1.5705952052691874 0
      vertex -0.43999237667428526 -1.6420739046914161 0
    endloop
  endfacet
  facet normal 0 0 -1
    outer loop
      vertex -0.5221047688802063 -3.9657794454952415 0
      vertex -0.43999237667428526 -1.6420739046914161 0
      vertex -0.22189452677408766 -1.6854562643354776 0
    endloop
  endfacet
  facet normal 0 0 -1
    outer loop
      vertex 0 -4 0
      vertex -0.22189452677408766 -1.6854562643354776 0
      vertex 0 -1.7 0
    endloop
  endfacet
  facet normal -0.4422886902190015 -0.8968727415326881 0
    outer loop
      vertex -1.5307337294603591 -3.695518130045147 0
      vertex -1.5307337294603591 -3.695518130045147 6.3
      vertex -2 -3.4641016151377544 0
    endloop
  endfacet
  facet normal -0.3214394653031618 -0.9469301294951056 1.5698607452582978e-18
    outer loop
      vertex -1.5307337294603591 -3.695518130045147 0
      vertex -1.035276180410083 -3.8637033051562732 0
      vertex -1.035276180410083 -3.8637033051562732 6.3
    endloop
  endfacet
  facet normal -0.19509032201612786 -0.9807852804032304 -1.42257751338563e-19
    outer loop
      vertex -1.035276180410083 -3.8637033051562732 0
      vertex -0.5221047688802063 -3.9657794454952415 0
      vertex -0.5221047688802063 -3.9657794454952415 6.3
    endloop
  endfacet
  facet normal -0.0654031292301433 -0.9978589232386035 3.300436857838628e-19
    outer loop
      vertex -0.5221047688802063 -3.9657794454952415 0
      vertex 0 -4 0
      vertex 0 -4 6.3
    endloop
  endfacet
  facet normal 0 0 -1
    outer loop
      vertex -2 -3.4641016151377544 0
      vertex -1.5705952052691874 -0.6505618350206526 0
      vertex -1.4722431864335457 -0.85 0
    endloop
  endfacet
  facet normal 0 0 -1
    outer loop
      vertex -2 -3.4641016151377544 0
      vertex -1.6420739046914161 -0.43999237667428526 0
      vertex -1.5705952052691874 -0.6505618350206526 0
    endloop
  endfacet
  facet normal 0 0 -1
    outer loop
      vertex -2 -3.4641016151377544 0
      vertex -1.6854562643354776 -0.22189452677408766 0
      vertex -1.6420739046914161 -0.43999237667428526 0
    endloop
  endfacet
  facet normal 0 0 -1
    outer loop
      vertex -2 -3.4641016151377544 0
      vertex -1.7 0 0
      vertex -1.6854562643354776 -0.22189452677408766 0
    endloop
  endfacet
  facet normal 0 0 -1
    outer loop
      vertex -1.5307337294603591 -3.695518130045147 0
      vertex -1.4722431864335457 -0.85 0
      vertex -1.3487006784950997 -1.034894429314825 0
    endloop
  endfacet
  facet normal 0 0 -1
    outer loop
      vertex -1.5307337294603591 -3.695518130045147 0
      vertex -1.3487006784950997 -1.034894429314825 0
      vertex -1.2020815280171309 -1.2020815280171309 0
    endloop
  endfacet
  facet normal -0.8314696123025455 -0.555570233019602 0
    outer loop
      vertex -3.1734133611649407 -2.4350457160348826 0
      vertex -3.1734133611649407 -2.4350457160348826 6.3
      vertex -3.4641016151377544 -2 6.3
    endloop
  endfacet
  facet normal -0.555570233019602 -0.8314696123025455 0
    outer loop
      vertex -2.4350457160348826 -3.1734133611649407 0
      vertex -2 -3.4641016151377544 6.3
      vertex -2.4350457160348826 -3.1734133611649407 6.3
    endloop
  endfacet
  facet normal -0.7518398074789777 -0.6593458151000685 0
    outer loop
      vertex -2.8284271247461903 -2.8284271247461903 0
      vertex -2.8284271247461903 -2.8284271247461903 6.3
      vertex -3.1734133611649407 -2.4350457160348826 6.3
    endloop
  endfacet
  facet normal -0.6593458151000685 -0.7518398074789777 0
    outer loop
      vertex -2.8284271247461903 -2.8284271247461903 0
      vertex -2.4350457160348826 -3.1734133611649407 6.3
      vertex -2.8284271247461903 -2.8284271247461903 6.3
    endloop
  endfacet
  facet normal -0.8968727415326881 -0.4422886902190015 0
    outer loop
      vertex -3.4641016151377544 -2 0
      vertex -3.4641016151377544 -2 6.3
      vertex -3.695518130045147 -1.5307337294603591 6.3
    endloop
  endfacet
  facet normal -0.9469301294951056 -0.3214394653031618 0
    outer loop
      vertex -3.695518130045147 -1.5307337294603591 0
      vertex -3.695518130045147 -1.5307337294603591 6.3
      vertex -3.8637033051562732 -1.035276180410083 6.3
    endloop
  endfacet
  facet normal -0.9807852804032304 -0.19509032201612786 0
    outer loop
      vertex -3.8637033051562732 -1.035276180410083 0
      vertex -3.8637033051562732 -1.035276180410083 6.3
      vertex -3.9657794454952415 -0.5221047688802063 6.3
    endloop
  endfacet
  facet normal -0.9978589232386035 -0.0654031292301433 0
    outer loop
      vertex -3.9657794454952415 -0.5221047688802063 0
      vertex -3.9657794454952415 -0.5221047688802063 6.3
      vertex -4 0 6.3
    endloop
  endfacet
  facet normal 0 0 1
    outer loop
      vertex -3.695518130045147 -1.5307337294603591 6.3
      vertex -3.8637033051562732 1.035276180410083 6.3
      vertex -3.8637033051562732 -1.035276180410083 6.3
    endloop
  endfacet
  facet normal 0 0 1
    outer loop
      vertex -3.695518130045147 -1.5307337294603591 6.3
      vertex -3.4641016151377544 -2 6.3
      vertex -3.695518130045147 1.5307337294603591 6.3
    endloop
  endfacet
  facet normal 0 0 1
    outer loop
      vertex -3.8637033051562732 -1.035276180410083 6.3
      vertex -3.9657794454952415 0.5221047688802063 6.3
      vertex -3.9657794454952415 -0.5221047688802063 6.3
    endloop
  endfacet
  facet normal 0 0 1
    outer loop
      vertex -3.1734133611649407 -2.4350457160348826 6.3
      vertex -3.4641016151377544 2 6.3
      vertex -3.4641016151377544 -2 6.3
    endloop
  endfacet
  facet normal 0 0 1
    outer loop
      vertex -3.1734133611649407 -2.4350457160348826 6.3
      vertex -2.8284271247461903 -2.8284271247461903 6.3
      vertex -3.1734133611649407 2.4350457160348826 6.3
    endloop
  endfacet
  facet normal 0 0 1
    outer loop
      vertex -2.4350457160348826 -3.1734133611649407 6.3
      vertex -2.8284271247461903 2.8284271247461903 6.3
      vertex -2.8284271247461903 -2.8284271247461903 6.3
    endloop
  endfacet
  facet normal 0 0 1
    outer loop
      vertex -2.4350457160348826 -3.1734133611649407 6.3
      vertex -2 -3.4641016151377544 6.3
      vertex -2.4350457160348826 3.1734133611649407 6.3
    endloop
  endfacet
  facet normal -0.4422886902190015 -0.8968727415326881 0
    outer loop
      vertex -2 -3.4641016151377544 0
      vertex -1.5307337294603591 -3.695518130045147 6.3
      vertex -2 -3.4641016151377544 6.3
    endloop
  endfacet
  facet normal -0.3214394653031618 -0.9469301294951056 0
    outer loop
      vertex -1.5307337294603591 -3.695518130045147 0
      vertex -1.035276180410083 -3.8637033051562732 6.3
      vertex -1.5307337294603591 -3.695518130045147 6.3
    endloop
  endfacet
  facet normal -0.19509032201612786 -0.9807852804032304 0
    outer loop
      vertex -1.035276180410083 -3.8637033051562732 0
      vertex -0.5221047688802063 -3.9657794454952415 6.3
      vertex -1.035276180410083 -3.8637033051562732 6.3
    endloop
  endfacet
  facet normal -0.0654031292301433 -0.9978589232386035 0
    outer loop
      vertex -0.5221047688802063 -3.9657794454952415 0
      vertex 0 -4 6.3
      vertex -0.5221047688802063 -3.9657794454952415 6.3
    endloop
  endfacet
  facet normal 0 0 1
    outer loop
      vertex -1.5307337294603591 -3.695518130045147 6.3
      vertex -1.035276180410083 -3.8637033051562732 6.3
      vertex -1.3487006784950997 -1.034894429314825 6.3
    endloop
  endfacet
  facet normal 0 0 1
    outer loop
      vertex -1.035276180410083 -3.8637033051562732 6.3
      vertex -1.2020815280171309 -1.2020815280171309 6.3
      vertex -1.3487006784950997 -1.034894429314825 6.3
    endloop
  endfacet
  facet normal 0 0 1
    outer loop
      vertex -1.035276180410083 -3.8637033051562732 6.3
      vertex -1.034894429314825 -1.3487006784950997 6.3
      vertex -1.2020815280171309 -1.2020815280171309 6.3
    endloop
  endfacet
  facet normal 0 0 1
    outer loop
      vertex -1.035276180410083 -3.8637033051562732 6.3
      vertex -0.5221047688802063 -3.9657794454952415 6.3
      vertex -0.85 -1.4722431864335457 6.3
    endloop
  endfacet
  facet normal 0 0 1
    outer loop
      vertex -0.5221047688802063 -3.9657794454952415 6.3
      vertex 0 -4 6.3
      vertex -0.22189452677408766 -1.6854562643354776 6.3
    endloop
  endfacet
  facet normal 0 0 1
    outer loop
      vertex -1.035276180410083 -3.8637033051562732 6.3
      vertex -0.85 -1.4722431864335457 6.3
      vertex -1.034894429314825 -1.3487006784950997 6.3
    endloop
  endfacet
  facet normal 0 0 1
    outer loop
      vertex -0.5221047688802063 -3.9657794454952415 6.3
      vertex -0.6505618350206526 -1.5705952052691874 6.3
      vertex -0.85 -1.4722431864335457 6.3
    endloop
  endfacet
  facet normal 0 0 1
    outer loop
      vertex -0.5221047688802063 -3.9657794454952415 6.3
      vertex -0.43999237667428526 -1.6420739046914161 6.3
      vertex -0.6505618350206526 -1.5705952052691874 6.3
    endloop
  endfacet
  facet normal 0 0 1
    outer loop
      vertex -0.5221047688802063 -3.9657794454952415 6.3
      vertex -0.22189452677408766 -1.6854562643354776 6.3
      vertex -0.43999237667428526 -1.6420739046914161 6.3
    endloop
  endfacet
  facet normal 0 0 1
    outer loop
      vertex 0 -4 6.3
      vertex 0 -1.7 6.3
      vertex -0.22189452677408766 -1.6854562643354776 6.3
    endloop
  endfacet
  facet normal 0 0 1
    outer loop
      vertex -1.5307337294603591 -3.695518130045147 6.3
      vertex -1.4722431864335457 -0.85 6.3
      vertex -1.5705952052691874 -0.6505618350206526 6.3
    endloop
  endfacet
  facet normal 0 0 1
    outer loop
      vertex -1.5307337294603591 -3.695518130045147 6.3
      vertex -1.5705952052691874 -0.6505618350206526 6.3
      vertex -1.6420739046914161 -0.43999237667428526 6.3
    endloop
  endfacet
  facet normal 0 0 1
    outer loop
      vertex -1.5307337294603591 -3.695518130045147 6.3
      vertex -2 3.4641016151377544 6.3
      vertex -2 -3.4641016151377544 6.3
    endloop
  endfacet
  facet normal 0 0 1
    outer loop
      vertex -1.5307337294603591 -3.695518130045147 6.3
      vertex -1.6854562643354776 -0.22189452677408766 6.3
      vertex -1.7 0 6.3
    endloop
  endfacet
  facet normal 0 0 1
    outer loop
      vertex -1.5307337294603591 -3.695518130045147 6.3
      vertex -1.6420739046914161 -0.43999237667428526 6.3
      vertex -1.6854562643354776 -0.22189452677408766 6.3
    endloop
  endfacet
  facet normal 0 0 1
    outer loop
      vertex -1.5307337294603591 -3.695518130045147 6.3
      vertex -1.3487006784950997 -1.034894429314825 6.3
      vertex -1.4722431864335457 -0.85 6.3
    endloop
  endfacet
  facet normal 0 0 1
    outer loop
      vertex -1.5307337294603591 -3.695518130045147 6.3
      vertex -1.7 0 6.3
      vertex -2 3.4641016151377544 6.3
    endloop
  endfacet
  facet normal 0 0 -1
    outer loop
      vertex -3.9657794454952415 -0.5221047688802063 0
      vertex -4 0 0
      vertex -3.9657794454952415 0.5221047688802063 0
    endloop
  endfacet
  facet normal 0 0 -1
    outer loop
      vertex -3.9657794454952415 -0.5221047688802063 0
      vertex -3.9657794454952415 0.5221047688802063 0
      vertex -3.8637033051562732 1.035276180410083 0
    endloop
  endfacet
  facet normal 0 0 -1
    outer loop
      vertex -3.8637033051562732 -1.035276180410083 0
      vertex -3.8637033051562732 1.035276180410083 0
      vertex -3.695518130045147 1.5307337294603591 0
    endloop
  endfacet
  facet normal 0 0 -1
    outer loop
      vertex -3.695518130045147 -1.5307337294603591 0
      vertex -3.695518130045147 1.5307337294603591 0
      vertex -3.4641016151377544 2 0
    endloop
  endfacet
  facet normal 0 0 -1
    outer loop
      vertex -3.4641016151377544 -2 0
      vertex -3.4641016151377544 2 0
      vertex -3.1734133611649407 2.4350457160348826 0
    endloop
  endfacet
  facet normal 0 0 -1
    outer loop
      vertex -3.1734133611649407 -2.4350457160348826 0
      vertex -3.1734133611649407 2.4350457160348826 0
      vertex -2.8284271247461903 2.8284271247461903 0
    endloop
  endfacet
  facet normal 0 0 -1
    outer loop
      vertex -2.8284271247461903 -2.8284271247461903 0
      vertex -2.8284271247461903 2.8284271247461903 0
      vertex -2.4350457160348826 3.1734133611649407 0
    endloop
  endfacet
  facet normal 0 0 -1
    outer loop
      vertex -2.4350457160348826 -3.1734133611649407 0
      vertex -2.4350457160348826 3.1734133611649407 0
      vertex -2 3.4641016151377544 0
    endloop
  endfacet
  facet normal -0.9978589232386035 0.0654031292301433 -3.300436857838628e-19
    outer loop
      vertex -4 0 0
      vertex -3.9657794454952415 0.5221047688802063 6.3
      vertex -3.9657794454952415 0.5221047688802063 0
    endloop
  endfacet
  facet normal -0.9807852804032304 0.19509032201612786 1.42257751338563e-19
    outer loop
      vertex -3.9657794454952415 0.5221047688802063 0
      vertex -3.8637033051562732 1.035276180410083 6.3
      vertex -3.8637033051562732 1.035276180410083 0
    endloop
  endfacet
  facet normal -0.9469301294951056 0.3214394653031618 -1.5698607452582978e-18
    outer loop
      vertex -3.8637033051562732 1.035276180410083 0
      vertex -3.695518130045147 1.5307337294603591 6.3
      vertex -3.695518130045147 1.5307337294603591 0
    endloop
  endfacet
  facet normal -0.8968727415326881 0.4422886902190015 3.776814231611188e-19
    outer loop
      vertex -3.695518130045147 1.5307337294603591 0
      vertex -3.4641016151377544 2 6.3
      vertex -3.4641016151377544 2 0
    endloop
  endfacet
  facet normal -0.8314696123025455 0.555570233019602 -3.6904207611274935e-18
    outer loop
      vertex -3.4641016151377544 2 0
      vertex -3.1734133611649407 2.4350457160348826 6.3
      vertex -3.1734133611649407 2.4350457160348826 0
    endloop
  endfacet
  facet normal -0.7518398074789777 0.6593458151000685 -6.438037034875833e-19
    outer loop
      vertex -3.1734133611649407 2.4350457160348826 0
      vertex -2.8284271247461903 2.8284271247461903 6.3
      vertex -2.8284271247461903 2.8284271247461903 0
    endloop
  endfacet
  facet normal -0.6593458151000685 0.7518398074789777 0
    outer loop
      vertex -2.8284271247461903 2.8284271247461903 0
      vertex -2.8284271247461903 2.8284271247461903 6.3
      vertex -2.4350457160348826 3.1734133611649407 0
    endloop
  endfacet
  facet normal -0.555570233019602 0.8314696123025455 0
    outer loop
      vertex -2.4350457160348826 3.1734133611649407 0
      vertex -2.4350457160348826 3.1734133611649407 6.3
      vertex -2 3.4641016151377544 0
    endloop
  endfacet
  facet normal 0 0 -1
    outer loop
      vertex -2 -3.4641016151377544 0
      vertex -1.5307337294603591 3.695518130045147 0
      vertex -1.7 0 0
    endloop
  endfacet
  facet normal 0 0 -1
    outer loop
      vertex -2 -3.4641016151377544 0
      vertex -2 3.4641016151377544 0
      vertex -1.5307337294603591 3.695518130045147 0
    endloop
  endfacet
  facet normal 0 0 -1
    outer loop
      vertex -1.5307337294603591 3.695518130045147 0
      vertex -1.6854562643354776 0.22189452677408766 0
      vertex -1.7 0 0
    endloop
  endfacet
  facet normal 0 0 -1
    outer loop
      vertex -1.5307337294603591 3.695518130045147 0
      vertex -1.6420739046914161 0.43999237667428526 0
      vertex -1.6854562643354776 0.22189452677408766 0
    endloop
  endfacet
  facet normal 0 0 -1
    outer loop
      vertex -1.5307337294603591 3.695518130045147 0
      vertex -1.5705952052691874 0.6505618350206526 0
      vertex -1.6420739046914161 0.43999237667428526 0
    endloop
  endfacet
  facet normal 0 0 -1
    outer loop
      vertex -1.5307337294603591 3.695518130045147 0
      vertex -1.4722431864335457 0.85 0
      vertex -1.5705952052691874 0.6505618350206526 0
    endloop
  endfacet
  facet normal 0 0 -1
    outer loop
      vertex -1.5307337294603591 3.695518130045147 0
      vertex -1.3487006784950997 1.034894429314825 0
      vertex -1.4722431864335457 0.85 0
    endloop
  endfacet
  facet normal 0 0 -1
    outer loop
      vertex -1.035276180410083 3.8637033051562732 0
      vertex -1.2020815280171309 1.2020815280171309 0
      vertex -1.3487006784950997 1.034894429314825 0
    endloop
  endfacet
  facet normal 0 0 -1
    outer loop
      vertex -1.035276180410083 3.8637033051562732 0
      vertex -1.034894429314825 1.3487006784950997 0
      vertex -1.2020815280171309 1.2020815280171309 0
    endloop
  endfacet
  facet normal 0 0 -1
    outer loop
      vertex -1.5307337294603591 3.695518130045147 0
      vertex -1.035276180410083 3.8637033051562732 0
      vertex -1.3487006784950997 1.034894429314825 0
    endloop
  endfacet
  facet normal 0 0 -1
    outer loop
      vertex -1.035276180410083 3.8637033051562732 0
      vertex -0.85 1.4722431864335457 0
      vertex -1.034894429314825 1.3487006784950997 0
    endloop
  endfacet
  facet normal 0 0 -1
    outer loop
      vertex -0.5221047688802063 3.9657794454952415 0
      vertex -0.6505618350206526 1.5705952052691874 0
      vertex -0.85 1.4722431864335457 0
    endloop
  endfacet
  facet normal 0 0 -1
    outer loop
      vertex -0.5221047688802063 3.9657794454952415 0
      vertex -0.43999237667428526 1.6420739046914161 0
      vertex -0.6505618350206526 1.5705952052691874 0
    endloop
  endfacet
  facet normal 0 0 -1
    outer loop
      vertex -0.5221047688802063 3.9657794454952415 0
      vertex -0.22189452677408766 1.6854562643354776 0
      vertex -0.43999237667428526 1.6420739046914161 0
    endloop
  endfacet
  facet normal 0 0 -1
    outer loop
      vertex 0 4 0
      vertex 0 1.7 0
      vertex -0.22189452677408766 1.6854562643354776 0
    endloop
  endfacet
  facet normal 0 0 -1
    outer loop
      vertex -1.035276180410083 3.8637033051562732 0
      vertex -0.5221047688802063 3.9657794454952415 0
      vertex -0.85 1.4722431864335457 0
    endloop
  endfacet
  facet normal 0 0 -1
    outer loop
      vertex -0.5221047688802063 3.9657794454952415 0
      vertex 0 4 0
      vertex -0.22189452677408766 1.6854562643354776 0
    endloop
  endfacet
  facet normal -0.4422886902190015 0.8968727415326881 0
    outer loop
      vertex -2 3.4641016151377544 0
      vertex -2 3.4641016151377544 6.3
      vertex -1.5307337294603591 3.695518130045147 0
    endloop
  endfacet
  facet normal -0.3214394653031618 0.9469301294951056 0
    outer loop
      vertex -1.5307337294603591 3.695518130045147 0
      vertex -1.5307337294603591 3.695518130045147 6.3
      vertex -1.035276180410083 3.8637033051562732 0
    endloop
  endfacet
  facet normal -0.19509032201612786 0.9807852804032304 0
    outer loop
      vertex -1.035276180410083 3.8637033051562732 0
      vertex -1.035276180410083 3.8637033051562732 6.3
      vertex -0.5221047688802063 3.9657794454952415 0
    endloop
  endfacet
  facet normal -0.0654031292301433 0.9978589232386035 0
    outer loop
      vertex -0.5221047688802063 3.9657794454952415 0
      vertex -0.5221047688802063 3.9657794454952415 6.3
      vertex 0 4 0
    endloop
  endfacet
  facet normal -0.9978589232386035 0.0654031292301433 0
    outer loop
      vertex -4 0 0
      vertex -4 0 6.3
      vertex -3.9657794454952415 0.5221047688802063 6.3
    endloop
  endfacet
  facet normal -0.9807852804032304 0.19509032201612786 0
    outer loop
      vertex -3.9657794454952415 0.5221047688802063 0
      vertex -3.9657794454952415 0.5221047688802063 6.3
      vertex -3.8637033051562732 1.035276180410083 6.3
    endloop
  endfacet
  facet normal -0.9469301294951056 0.3214394653031618 0
    outer loop
      vertex -3.8637033051562732 1.035276180410083 0
      vertex -3.8637033051562732 1.035276180410083 6.3
      vertex -3.695518130045147 1.5307337294603591 6.3
    endloop
  endfacet
  facet normal -0.8968727415326881 0.4422886902190015 0
    outer loop
      vertex -3.695518130045147 1.5307337294603591 0
      vertex -3.695518130045147 1.5307337294603591 6.3
      vertex -3.4641016151377544 2 6.3
    endloop
  endfacet
  facet normal 0 0 1
    outer loop
      vertex -3.9657794454952415 -0.5221047688802063 6.3
      vertex -3.9657794454952415 0.5221047688802063 6.3
      vertex -4 0 6.3
    endloop
  endfacet
  facet normal 0 0 1
    outer loop
      vertex -3.8637033051562732 -1.035276180410083 6.3
      vertex -3.8637033051562732 1.035276180410083 6.3
      vertex -3.9657794454952415 0.5221047688802063 6.3
    endloop
  endfacet
  facet normal 0 0 1
    outer loop
      vertex -3.695518130045147 -1.5307337294603591 6.3
      vertex -3.695518130045147 1.5307337294603591 6.3
      vertex -3.8637033051562732 1.035276180410083 6.3
    endloop
  endfacet
  facet normal 0 0 1
    outer loop
      vertex -3.4641016151377544 -2 6.3
      vertex -3.4641016151377544 2 6.3
      vertex -3.695518130045147 1.5307337294603591 6.3
    endloop
  endfacet
  facet normal 0 0 1
    outer loop
      vertex -3.1734133611649407 -2.4350457160348826 6.3
      vertex -3.1734133611649407 2.4350457160348826 6.3
      vertex -3.4641016151377544 2 6.3
    endloop
  endfacet
  facet normal 0 0 1
    outer loop
      vertex -2.8284271247461903 -2.8284271247461903 6.3
      vertex -2.8284271247461903 2.8284271247461903 6.3
      vertex -3.1734133611649407 2.4350457160348826 6.3
    endloop
  endfacet
  facet normal 0 0 1
    outer loop
      vertex -2.4350457160348826 -3.1734133611649407 6.3
      vertex -2.4350457160348826 3.1734133611649407 6.3
      vertex -2.8284271247461903 2.8284271247461903 6.3
    endloop
  endfacet
  facet normal 0 0 1
    outer loop
      vertex -2 -3.4641016151377544 6.3
      vertex -2 3.4641016151377544 6.3
      vertex -2.4350457160348826 3.1734133611649407 6.3
    endloop
  endfacet
  facet normal -0.8314696123025455 0.555570233019602 0
    outer loop
      vertex -3.4641016151377544 2 0
      vertex -3.4641016151377544 2 6.3
      vertex -3.1734133611649407 2.4350457160348826 6.3
    endloop
  endfacet
  facet normal -0.7518398074789777 0.6593458151000685 0
    outer loop
      vertex -3.1734133611649407 2.4350457160348826 0
      vertex -3.1734133611649407 2.4350457160348826 6.3
      vertex -2.8284271247461903 2.8284271247461903 6.3
    endloop
  endfacet
  facet normal -0.6593458151000685 0.7518398074789777 0
    outer loop
      vertex -2.4350457160348826 3.1734133611649407 0
      vertex -2.8284271247461903 2.8284271247461903 6.3
      vertex -2.4350457160348826 3.1734133611649407 6.3
    endloop
  endfacet
  facet normal -0.555570233019602 0.8314696123025455 0
    outer loop
      vertex -2 3.4641016151377544 0
      vertex -2.4350457160348826 3.1734133611649407 6.3
      vertex -2 3.4641016151377544 6.3
    endloop
  endfacet
  facet normal 0 0 1
    outer loop
      vertex -2 3.4641016151377544 6.3
      vertex -1.7 0 6.3
      vertex -1.6854562643354776 0.22189452677408766 6.3
    endloop
  endfacet
  facet normal 0 0 1
    outer loop
      vertex -2 3.4641016151377544 6.3
      vertex -1.6854562643354776 0.22189452677408766 6.3
      vertex -1.6420739046914161 0.43999237667428526 6.3
    endloop
  endfacet
  facet normal 0 0 1
    outer loop
      vertex -2 3.4641016151377544 6.3
      vertex -1.6420739046914161 0.43999237667428526 6.3
      vertex -1.5705952052691874 0.6505618350206526 6.3
    endloop
  endfacet
  facet normal 0 0 1
    outer loop
      vertex -2 3.4641016151377544 6.3
      vertex -1.5705952052691874 0.6505618350206526 6.3
      vertex -1.4722431864335457 0.85 6.3
    endloop
  endfacet
  facet normal 0 0 1
    outer loop
      vertex -1.5307337294603591 3.695518130045147 6.3
      vertex -1.4722431864335457 0.85 6.3
      vertex -1.3487006784950997 1.034894429314825 6.3
    endloop
  endfacet
  facet normal 0 0 1
    outer loop
      vertex -1.5307337294603591 3.695518130045147 6.3
      vertex -1.3487006784950997 1.034894429314825 6.3
      vertex -1.2020815280171309 1.2020815280171309 6.3
    endloop
  endfacet
  facet normal -0.4422886902190015 0.8968727415326881 0
    outer loop
      vertex -1.5307337294603591 3.695518130045147 0
      vertex -2 3.4641016151377544 6.3
      vertex -1.5307337294603591 3.695518130045147 6.3
    endloop
  endfacet
  facet normal -0.3214394653031618 0.9469301294951056 0
    outer loop
      vertex -1.035276180410083 3.8637033051562732 0
      vertex -1.5307337294603591 3.695518130045147 6.3
      vertex -1.035276180410083 3.8637033051562732 6.3
    endloop
  endfacet
  facet normal -0.19509032201612786 0.9807852804032304 0
    outer loop
      vertex -0.5221047688802063 3.9657794454952415 0
      vertex -1.035276180410083 3.8637033051562732 6.3
      vertex -0.5221047688802063 3.9657794454952415 6.3
    endloop
  endfacet
  facet normal -0.0654031292301433 0.9978589232386035 -3.300436857838628e-19
    outer loop
      vertex -0.5221047688802063 3.9657794454952415 6.3
      vertex 0 4 6.3
      vertex 0 4 0
    endloop
  endfacet
  facet normal 0 0 1
    outer loop
      vertex -2 3.4641016151377544 6.3
      vertex -1.4722431864335457 0.85 6.3
      vertex -1.5307337294603591 3.695518130045147 6.3
    endloop
  endfacet
  facet normal 0 0 1
    outer loop
      vertex -1.5307337294603591 3.695518130045147 6.3
      vertex -1.2020815280171309 1.2020815280171309 6.3
      vertex -1.034894429314825 1.3487006784950997 6.3
    endloop
  endfacet
  facet normal 0 0 1
    outer loop
      vertex -1.5307337294603591 3.695518130045147 6.3
      vertex -1.034894429314825 1.3487006784950997 6.3
      vertex -1.035276180410083 3.8637033051562732 6.3
    endloop
  endfacet
  facet normal 0 0 1
    outer loop
      vertex -1.035276180410083 3.8637033051562732 6.3
      vertex -1.034894429314825 1.3487006784950997 6.3
      vertex -0.85 1.4722431864335457 6.3
    endloop
  endfacet
  facet normal 0 0 1
    outer loop
      vertex -1.035276180410083 3.8637033051562732 6.3
      vertex -0.85 1.4722431864335457 6.3
      vertex -0.6505618350206526 1.5705952052691874 6.3
    endloop
  endfacet
  facet normal 0 0 1
    outer loop
      vertex -1.035276180410083 3.8637033051562732 6.3
      vertex -0.6505618350206526 1.5705952052691874 6.3
      vertex -0.43999237667428526 1.6420739046914161 6.3
    endloop
  endfacet
  facet normal 0 0 1
    outer loop
      vertex -0.5221047688802063 3.9657794454952415 6.3
      vertex -0.43999237667428526 1.6420739046914161 6.3
      vertex -0.22189452677408766 1.6854562643354776 6.3
    endloop
  endfacet
  facet normal 0 0 1
    outer loop
      vertex 0 4 6.3
      vertex -0.22189452677408766 1.6854562643354776 6.3
      vertex 0 1.7 6.3
    endloop
  endfacet
  facet normal 0 0 1
    outer loop
      vertex -1.035276180410083 3.8637033051562732 6.3
      vertex -0.43999237667428526 1.6420739046914161 6.3
      vertex -0.5221047688802063 3.9657794454952415 6.3
    endloop
  endfacet
  facet normal 0 0 1
    outer loop
      vertex -0.5221047688802063 3.9657794454952415 6.3
      vertex -0.22189452677408766 1.6854562643354776 6.3
      vertex 0 4 6.3
    endloop
  endfacet
  facet normal 0 0 -1
    outer loop
      vertex 0 -4 0
      vertex 0.22189452677408766 -1.6854562643354776 0
      vertex 0.5221047688802063 -3.9657794454952415 0
    endloop
  endfacet
  facet normal 0 0 -1
    outer loop
      vertex 0.5221047688802063 -3.9657794454952415 0
      vertex 0.85 -1.4722431864335457 0
      vertex 1.035276180410083 -3.8637033051562732 0
    endloop
  endfacet
  facet normal 0 0 -1
    outer loop
      vertex 0 -4 0
      vertex 0 -1.7 0
      vertex 0.22189452677408766 -1.6854562643354776 0
    endloop
  endfacet
  facet normal 0 0 -1
    outer loop
      vertex 0.5221047688802063 -3.9657794454952415 0
      vertex 0.22189452677408766 -1.6854562643354776 0
      vertex 0.43999237667428526 -1.6420739046914161 0
    endloop
  endfacet
  facet normal 0 0 -1
    outer loop
      vertex 0.5221047688802063 -3.9657794454952415 0
      vertex 0.43999237667428526 -1.6420739046914161 0
      vertex 0.6505618350206526 -1.5705952052691874 0
    endloop
  endfacet
  facet normal 0 0 -1
    outer loop
      vertex 0.5221047688802063 -3.9657794454952415 0
      vertex 0.6505618350206526 -1.5705952052691874 0
      vertex 0.85 -1.4722431864335457 0
    endloop
  endfacet
  facet normal 0 0 -1
    outer loop
      vertex 1.035276180410083 -3.8637033051562732 0
      vertex 0.85 -1.4722431864335457 0
      vertex 1.034894429314825 -1.3487006784950997 0
    endloop
  endfacet
  facet normal 0 0 -1
    outer loop
      vertex 1.035276180410083 -3.8637033051562732 0
      vertex 1.3487006784950997 -1.034894429314825 0
      vertex 1.5307337294603591 -3.695518130045147 0
    endloop
  endfacet
  facet normal 0 0 -1
    outer loop
      vertex 1.035276180410083 -3.8637033051562732 0
      vertex 1.034894429314825 -1.3487006784950997 0
      vertex 1.2020815280171309 -1.2020815280171309 0
    endloop
  endfacet
  facet normal 0 0 -1
    outer loop
      vertex 1.035276180410083 -3.8637033051562732 0
      vertex 1.2020815280171309 -1.2020815280171309 0
      vertex 1.3487006784950997 -1.034894429314825 0
    endloop
  endfacet
  facet normal 0.0654031292301433 -0.9978589232386035 -3.300436857838628e-19
    outer loop
      vertex 0 -4 0
      vertex 0.5221047688802063 -3.9657794454952415 0
      vertex 0.5221047688802063 -3.9657794454952415 6.3
    endloop
  endfacet
  facet normal 0.19509032201612786 -0.9807852804032304 1.42257751338563e-19
    outer loop
      vertex 0.5221047688802063 -3.9657794454952415 0
      vertex 1.035276180410083 -3.8637033051562732 0
      vertex 1.035276180410083 -3.8637033051562732 6.3
    endloop
  endfacet
  facet normal 0.3214394653031618 -0.9469301294951056 -1.5698607452582978e-18
    outer loop
      vertex 1.035276180410083 -3.8637033051562732 0
      vertex 1.5307337294603591 -3.695518130045147 0
      vertex 1.5307337294603591 -3.695518130045147 6.3
    endloop
  endfacet
  facet normal 0.4422886902190015 -0.8968727415326881 3.776814231611188e-19
    outer loop
      vertex 1.5307337294603591 -3.695518130045147 0
      vertex 2 -3.4641016151377544 0
      vertex 2 -3.4641016151377544 6.3
    endloop
  endfacet
  facet normal 0 0 -1
    outer loop
      vertex 1.5307337294603591 -3.695518130045147 0
      vertex 1.3487006784950997 -1.034894429314825 0
      vertex 1.4722431864335457 -0.85 0
    endloop
  endfacet
  facet normal 0 0 -1
    outer loop
      vertex 1.5307337294603591 -3.695518130045147 0
      vertex 1.4722431864335457 -0.85 0
      vertex 1.5705952052691874 -0.6505618350206526 0
    endloop
  endfacet
  facet normal 0 0 -1
    outer loop
      vertex 1.5307337294603591 -3.695518130045147 0
      vertex 1.5705952052691874 -0.6505618350206526 0
      vertex 1.6420739046914161 -0.43999237667428526 0
    endloop
  endfacet
  facet normal 0 0 -1
    outer loop
      vertex 1.5307337294603591 -3.695518130045147 0
      vertex 1.6420739046914161 -0.43999237667428526 0
      vertex 1.6854562643354776 -0.22189452677408766 0
    endloop
  endfacet
  facet normal 0 0 -1
    outer loop
      vertex 1.5307337294603591 -3.695518130045147 0
      vertex 1.6854562643354776 -0.22189452677408766 0
      vertex 1.7 0 0
    endloop
  endfacet
  facet normal 0 0 -1
    outer loop
      vertex 1.5307337294603591 -3.695518130045147 0
      vertex 2 3.4641016151377544 0
      vertex 2 -3.4641016151377544 0
    endloop
  endfacet
  facet normal 0 0 -1
    outer loop
      vertex 1.5307337294603591 -3.695518130045147 0
      vertex 1.7 0 0
      vertex 2 3.4641016151377544 0
    endloop
  endfacet
  facet normal 0.555570233019602 -0.8314696123025455 -3.6904207611274935e-18
    outer loop
      vertex 2 -3.4641016151377544 0
      vertex 2.4350457160348826 -3.1734133611649407 0
      vertex 2.4350457160348826 -3.1734133611649407 6.3
    endloop
  endfacet
  facet normal 0.6593458151000685 -0.7518398074789777 -6.438037034875833e-19
    outer loop
      vertex 2.4350457160348826 -3.1734133611649407 0
      vertex 2.8284271247461903 -2.8284271247461903 0
      vertex 2.8284271247461903 -2.8284271247461903 6.3
    endloop
  endfacet
  facet normal 0.7518398074789777 -0.6593458151000685 0
    outer loop
      vertex 2.8284271247461903 -2.8284271247461903 0
      vertex 3.1734133611649407 -2.4350457160348826 0
      vertex 2.8284271247461903 -2.8284271247461903 6.3
    endloop
  endfacet
  facet normal 0.8314696123025455 -0.555570233019602 0
    outer loop
      vertex 3.1734133611649407 -2.4350457160348826 0
      vertex 3.4641016151377544 -2 0
      vertex 3.1734133611649407 -2.4350457160348826 6.3
    endloop
  endfacet
  facet normal 0 0 -1
    outer loop
      vertex 2 -3.4641016151377544 0
      vertex 2.4350457160348826 3.1734133611649407 0
      vertex 2.4350457160348826 -3.1734133611649407 0
    endloop
  endfacet
  facet normal 0 0 -1
    outer loop
      vertex 2.4350457160348826 -3.1734133611649407 0
      vertex 2.8284271247461903 2.8284271247461903 0
      vertex 2.8284271247461903 -2.8284271247461903 0
    endloop
  endfacet
  facet normal 0 0 -1
    outer loop
      vertex 2.8284271247461903 -2.8284271247461903 0
      vertex 3.1734133611649407 2.4350457160348826 0
      vertex 3.1734133611649407 -2.4350457160348826 0
    endloop
  endfacet
  facet normal 0 0 -1
    outer loop
      vertex 3.1734133611649407 -2.4350457160348826 0
      vertex 3.4641016151377544 2 0
      vertex 3.4641016151377544 -2 0
    endloop
  endfacet
  facet normal 0 0 -1
    outer loop
      vertex 3.4641016151377544 -2 0
      vertex 3.695518130045147 1.5307337294603591 0
      vertex 3.695518130045147 -1.5307337294603591 0
    endloop
  endfacet
  facet normal 0 0 -1
    outer loop
      vertex 3.695518130045147 -1.5307337294603591 0
      vertex 3.8637033051562732 1.035276180410083 0
      vertex 3.8637033051562732 -1.035276180410083 0
    endloop
  endfacet
  facet normal 0 0 -1
    outer loop
      vertex 3.8637033051562732 -1.035276180410083 0
      vertex 3.9657794454952415 0.5221047688802063 0
      vertex 3.9657794454952415 -0.5221047688802063 0
    endloop
  endfacet
  facet normal 0.8968727415326881 -0.4422886902190015 0
    outer loop
      vertex 3.4641016151377544 -2 0
      vertex 3.695518130045147 -1.5307337294603591 0
      vertex 3.4641016151377544 -2 6.3
    endloop
  endfacet
  facet normal 0.9469301294951056 -0.3214394653031618 0
    outer loop
      vertex 3.695518130045147 -1.5307337294603591 0
      vertex 3.8637033051562732 -1.035276180410083 0
      vertex 3.695518130045147 -1.5307337294603591 6.3
    endloop
  endfacet
  facet normal 0.9807852804032304 -0.19509032201612786 0
    outer loop
      vertex 3.8637033051562732 -1.035276180410083 0
      vertex 3.9657794454952415 -0.5221047688802063 0
      vertex 3.8637033051562732 -1.035276180410083 6.3
    endloop
  endfacet
  facet normal 0.9978589232386035 -0.0654031292301433 0
    outer loop
      vertex 3.9657794454952415 -0.5221047688802063 0
      vertex 4 0 0
      vertex 3.9657794454952415 -0.5221047688802063 6.3
    endloop
  endfacet
  facet normal 0.0654031292301433 -0.9978589232386035 0
    outer loop
      vertex 0 -4 0
      vertex 0.5221047688802063 -3.9657794454952415 6.3
      vertex 0 -4 6.3
    endloop
  endfacet
  facet normal 0.19509032201612786 -0.9807852804032304 0
    outer loop
      vertex 0.5221047688802063 -3.9657794454952415 0
      vertex 1.035276180410083 -3.8637033051562732 6.3
      vertex 0.5221047688802063 -3.9657794454952415 6.3
    endloop
  endfacet
  facet normal 0.3214394653031618 -0.9469301294951056 0
    outer loop
      vertex 1.035276180410083 -3.8637033051562732 0
      vertex 1.5307337294603591 -3.695518130045147 6.3
      vertex 1.035276180410083 -3.8637033051562732 6.3
    endloop
  endfacet
  facet normal 0.4422886902190015 -0.8968727415326881 0
    outer loop
      vertex 1.5307337294603591 -3.695518130045147 0
      vertex 2 -3.4641016151377544 6.3
      vertex 1.5307337294603591 -3.695518130045147 6.3
    endloop
  endfacet
  facet normal 0 0 1
    outer loop
      vertex 0 -4 6.3
      vertex 0.5221047688802063 -3.9657794454952415 6.3
      vertex 0.22189452677408766 -1.6854562643354776 6.3
    endloop
  endfacet
  facet normal 0 0 1
    outer loop
      vertex 0.5221047688802063 -3.9657794454952415 6.3
      vertex 1.035276180410083 -3.8637033051562732 6.3
      vertex 0.43999237667428526 -1.6420739046914161 6.3
    endloop
  endfacet
  facet normal 0 0 1
    outer loop
      vertex 0 -4 6.3
      vertex 0.22189452677408766 -1.6854562643354776 6.3
      vertex 0 -1.7 6.3
    endloop
  endfacet
  facet normal 0 0 1
    outer loop
      vertex 0.5221047688802063 -3.9657794454952415 6.3
      vertex 0.43999237667428526 -1.6420739046914161 6.3
      vertex 0.22189452677408766 -1.6854562643354776 6.3
    endloop
  endfacet
  facet normal 0 0 1
    outer loop
      vertex 1.035276180410083 -3.8637033051562732 6.3
      vertex 0.6505618350206526 -1.5705952052691874 6.3
      vertex 0.43999237667428526 -1.6420739046914161 6.3
    endloop
  endfacet
  facet normal 0 0 1
    outer loop
      vertex 1.035276180410083 -3.8637033051562732 6.3
      vertex 0.85 -1.4722431864335457 6.3
      vertex 0.6505618350206526 -1.5705952052691874 6.3
    endloop
  endfacet
  facet normal 0 0 1
    outer loop
      vertex 1.035276180410083 -3.8637033051562732 6.3
      vertex 1.034894429314825 -1.3487006784950997 6.3
      vertex 0.85 -1.4722431864335457 6.3
    endloop
  endfacet
  facet normal 0 0 1
    outer loop
      vertex 1.035276180410083 -3.8637033051562732 6.3
      vertex 1.5307337294603591 -3.695518130045147 6.3
      vertex 1.034894429314825 -1.3487006784950997 6.3
    endloop
  endfacet
  facet normal 0 0 1
    outer loop
      vertex 1.5307337294603591 -3.695518130045147 6.3
      vertex 1.2020815280171309 -1.2020815280171309 6.3
      vertex 1.034894429314825 -1.3487006784950997 6.3
    endloop
  endfacet
  facet normal 0 0 1
    outer loop
      vertex 1.5307337294603591 -3.695518130045147 6.3
      vertex 2 -3.4641016151377544 6.3
      vertex 1.4722431864335457 -0.85 6.3
    endloop
  endfacet
  facet normal 0 0 1
    outer loop
      vertex 1.5307337294603591 -3.695518130045147 6.3
      vertex 1.3487006784950997 -1.034894429314825 6.3
      vertex 1.2020815280171309 -1.2020815280171309 6.3
    endloop
  endfacet
  facet normal 0 0 1
    outer loop
      vertex 1.5307337294603591 -3.695518130045147 6.3
      vertex 1.4722431864335457 -0.85 6.3
      vertex 1.3487006784950997 -1.034894429314825 6.3
    endloop
  endfacet
  facet normal 0 0 1
    outer loop
      vertex 2 -3.4641016151377544 6.3
      vertex 1.5705952052691874 -0.6505618350206526 6.3
      vertex 1.4722431864335457 -0.85 6.3
    endloop
  endfacet
  facet normal 0 0 1
    outer loop
      vertex 2 -3.4641016151377544 6.3
      vertex 1.6420739046914161 -0.43999237667428526 6.3
      vertex 1.5705952052691874 -0.6505618350206526 6.3
    endloop
  endfacet
  facet normal 0 0 1
    outer loop
      vertex 2 -3.4641016151377544 6.3
      vertex 1.6854562643354776 -0.22189452677408766 6.3
      vertex 1.6420739046914161 -0.43999237667428526 6.3
    endloop
  endfacet
  facet normal 0 0 1
    outer loop
      vertex 2 -3.4641016151377544 6.3
      vertex 1.7 0 6.3
      vertex 1.6854562643354776 -0.22189452677408766 6.3
    endloop
  endfacet
  facet normal 0.555570233019602 -0.8314696123025455 0
    outer loop
      vertex 2 -3.4641016151377544 0
      vertex 2.4350457160348826 -3.1734133611649407 6.3
      vertex 2 -3.4641016151377544 6.3
    endloop
  endfacet
  facet normal 0.6593458151000685 -0.7518398074789777 0
    outer loop
      vertex 2.4350457160348826 -3.1734133611649407 0
      vertex 2.8284271247461903 -2.8284271247461903 6.3
      vertex 2.4350457160348826 -3.1734133611649407 6.3
    endloop
  endfacet
  facet normal 0.7518398074789777 -0.6593458151000685 0
    outer loop
      vertex 3.1734133611649407 -2.4350457160348826 0
      vertex 3.1734133611649407 -2.4350457160348826 6.3
      vertex 2.8284271247461903 -2.8284271247461903 6.3
    endloop
  endfacet
  facet normal 0.8314696123025455 -0.555570233019602 0
    outer loop
      vertex 3.4641016151377544 -2 0
      vertex 3.4641016151377544 -2 6.3
      vertex 3.1734133611649407 -2.4350457160348826 6.3
    endloop
  endfacet
  facet normal 0.8968727415326881 -0.4422886902190015 0
    outer loop
      vertex 3.695518130045147 -1.5307337294603591 0
      vertex 3.695518130045147 -1.5307337294603591 6.3
      vertex 3.4641016151377544 -2 6.3
    endloop
  endfacet
  facet normal 0.9469301294951056 -0.3214394653031618 0
    outer loop
      vertex 3.8637033051562732 -1.035276180410083 0
      vertex 3.8637033051562732 -1.035276180410083 6.3
      vertex 3.695518130045147 -1.5307337294603591 6.3
    endloop
  endfacet
  facet normal 0.9807852804032304 -0.19509032201612786 0
    outer loop
      vertex 3.9657794454952415 -0.5221047688802063 0
      vertex 3.9657794454952415 -0.5221047688802063 6.3
      vertex 3.8637033051562732 -1.035276180410083 6.3
    endloop
  endfacet
  facet normal 0.9978589232386035 -0.0654031292301433 -3.300436857838628e-19
    outer loop
      vertex 3.9657794454952415 -0.5221047688802063 6.3
      vertex 4 0 0
      vertex 4 0 6.3
    endloop
  endfacet
  facet normal 0 0 1
    outer loop
      vertex 2 -3.4641016151377544 6.3
      vertex 2.4350457160348826 -3.1734133611649407 6.3
      vertex 2 3.4641016151377544 6.3
    endloop
  endfacet
  facet normal 0 0 1
    outer loop
      vertex 2.4350457160348826 -3.1734133611649407 6.3
      vertex 2.8284271247461903 -2.8284271247461903 6.3
      vertex 2.4350457160348826 3.1734133611649407 6.3
    endloop
  endfacet
  facet normal 0 0 1
    outer loop
      vertex 2.8284271247461903 -2.8284271247461903 6.3
      vertex 3.1734133611649407 -2.4350457160348826 6.3
      vertex 2.8284271247461903 2.8284271247461903 6.3
    endloop
  endfacet
  facet normal 0 0 1
    outer loop
      vertex 3.1734133611649407 -2.4350457160348826 6.3
      vertex 3.4641016151377544 -2 6.3
      vertex 3.1734133611649407 2.4350457160348826 6.3
    endloop
  endfacet
  facet normal 0 0 1
    outer loop
      vertex 3.4641016151377544 -2 6.3
      vertex 3.695518130045147 -1.5307337294603591 6.3
      vertex 3.4641016151377544 2 6.3
    endloop
  endfacet
  facet normal 0 0 1
    outer loop
      vertex 3.695518130045147 -1.5307337294603591 6.3
      vertex 3.8637033051562732 -1.035276180410083 6.3
      vertex 3.695518130045147 1.5307337294603591 6.3
    endloop
  endfacet
  facet normal 0 0 1
    outer loop
      vertex 3.8637033051562732 -1.035276180410083 6.3
      vertex 3.9657794454952415 -0.5221047688802063 6.3
      vertex 3.8637033051562732 1.035276180410083 6.3
    endloop
  endfacet
  facet normal 0 0 -1
    outer loop
      vertex 1.5307337294603591 3.695518130045147 0
      vertex 1.3487006784950997 1.034894429314825 0
      vertex 1.2020815280171309 1.2020815280171309 0
    endloop
  endfacet
  facet normal 0 0 -1
    outer loop
      vertex 1.5307337294603591 3.695518130045147 0
      vertex 1.4722431864335457 0.85 0
      vertex 1.3487006784950997 1.034894429314825 0
    endloop
  endfacet
  facet normal 0 0 -1
    outer loop
      vertex 2 3.4641016151377544 0
      vertex 1.7 0 0
      vertex 1.6854562643354776 0.22189452677408766 0
    endloop
  endfacet
  facet normal 0 0 -1
    outer loop
      vertex 2 3.4641016151377544 0
      vertex 1.6854562643354776 0.22189452677408766 0
      vertex 1.6420739046914161 0.43999237667428526 0
    endloop
  endfacet
  facet normal 0 0 -1
    outer loop
      vertex 2 3.4641016151377544 0
      vertex 1.6420739046914161 0.43999237667428526 0
      vertex 1.5705952052691874 0.6505618350206526 0
    endloop
  endfacet
  facet normal 0 0 -1
    outer loop
      vertex 2 3.4641016151377544 0
      vertex 1.5705952052691874 0.6505618350206526 0
      vertex 1.4722431864335457 0.85 0
    endloop
  endfacet
  facet normal 0 0 -1
    outer loop
      vertex 0 4 0
      vertex 0.22189452677408766 1.6854562643354776 0
      vertex 0 1.7 0
    endloop
  endfacet
  facet normal 0 0 -1
    outer loop
      vertex 0.5221047688802063 3.9657794454952415 0
      vertex 0.43999237667428526 1.6420739046914161 0
      vertex 0.22189452677408766 1.6854562643354776 0
    endloop
  endfacet
  facet normal 0 0 -1
    outer loop
      vertex 1.035276180410083 3.8637033051562732 0
      vertex 0.6505618350206526 1.5705952052691874 0
      vertex 0.43999237667428526 1.6420739046914161 0
    endloop
  endfacet
  facet normal 0 0 -1
    outer loop
      vertex 1.035276180410083 3.8637033051562732 0
      vertex 1.034894429314825 1.3487006784950997 0
      vertex 0.85 1.4722431864335457 0
    endloop
  endfacet
  facet normal 0 0 -1
    outer loop
      vertex 1.035276180410083 3.8637033051562732 0
      vertex 0.85 1.4722431864335457 0
      vertex 0.6505618350206526 1.5705952052691874 0
    endloop
  endfacet
  facet normal 0 0 -1
    outer loop
      vertex 0 4 0
      vertex 0.5221047688802063 3.9657794454952415 0
      vertex 0.22189452677408766 1.6854562643354776 0
    endloop
  endfacet
  facet normal 0 0 -1
    outer loop
      vertex 0.5221047688802063 3.9657794454952415 0
      vertex 1.035276180410083 3.8637033051562732 0
      vertex 0.43999237667428526 1.6420739046914161 0
    endloop
  endfacet
  facet normal 0 0 -1
    outer loop
      vertex 1.5307337294603591 3.695518130045147 0
      vertex 1.2020815280171309 1.2020815280171309 0
      vertex 1.034894429314825 1.3487006784950997 0
    endloop
  endfacet
  facet normal 0 0 -1
    outer loop
      vertex 1.035276180410083 3.8637033051562732 0
      vertex 1.5307337294603591 3.695518130045147 0
      vertex 1.034894429314825 1.3487006784950997 0
    endloop
  endfacet
  facet normal 0 0 -1
    outer loop
      vertex 1.5307337294603591 3.695518130045147 0
      vertex 2 3.4641016151377544 0
      vertex 1.4722431864335457 0.85 0
    endloop
  endfacet
  facet normal 0.0654031292301433 0.9978589232386035 0
    outer loop
      vertex 0 4 0
      vertex 0 4 6.3
      vertex 0.5221047688802063 3.9657794454952415 0
    endloop
  endfacet
  facet normal 0.19509032201612786 0.9807852804032304 0
    outer loop
      vertex 0.5221047688802063 3.9657794454952415 0
      vertex 0.5221047688802063 3.9657794454952415 6.3
      vertex 1.035276180410083 3.8637033051562732 0
    endloop
  endfacet
  facet normal 0.3214394653031618 0.9469301294951056 0
    outer loop
      vertex 1.035276180410083 3.8637033051562732 0
      vertex 1.035276180410083 3.8637033051562732 6.3
      vertex 1.5307337294603591 3.695518130045147 0
    endloop
  endfacet
  facet normal 0.4422886902190015 0.8968727415326881 0
    outer loop
      vertex 1.5307337294603591 3.695518130045147 0
      vertex 1.5307337294603591 3.695518130045147 6.3
      vertex 2 3.4641016151377544 0
    endloop
  endfacet
  facet normal 0 0 -1
    outer loop
      vertex 2.4350457160348826 -3.1734133611649407 0
      vertex 2.4350457160348826 3.1734133611649407 0
      vertex 2.8284271247461903 2.8284271247461903 0
    endloop
  endfacet
  facet normal 0 0 -1
    outer loop
      vertex 2.8284271247461903 -2.8284271247461903 0
      vertex 2.8284271247461903 2.8284271247461903 0
      vertex 3.1734133611649407 2.4350457160348826 0
    endloop
  endfacet
  facet normal 0 0 -1
    outer loop
      vertex 2 -3.4641016151377544 0
      vertex 2 3.4641016151377544 0
      vertex 2.4350457160348826 3.1734133611649407 0
    endloop
  endfacet
  facet normal 0 0 -1
    outer loop
      vertex 3.1734133611649407 -2.4350457160348826 0
      vertex 3.1734133611649407 2.4350457160348826 0
      vertex 3.4641016151377544 2 0
    endloop
  endfacet
  facet normal 0 0 -1
    outer loop
      vertex 3.9657794454952415 -0.5221047688802063 0
      vertex 3.9657794454952415 0.5221047688802063 0
      vertex 4 0 0
    endloop
  endfacet
  facet normal 0 0 -1
    outer loop
      vertex 3.8637033051562732 -1.035276180410083 0
      vertex 3.8637033051562732 1.035276180410083 0
      vertex 3.9657794454952415 0.5221047688802063 0
    endloop
  endfacet
  facet normal 0 0 -1
    outer loop
      vertex 3.695518130045147 -1.5307337294603591 0
      vertex 3.695518130045147 1.5307337294603591 0
      vertex 3.8637033051562732 1.035276180410083 0
    endloop
  endfacet
  facet normal 0 0 -1
    outer loop
      vertex 3.4641016151377544 -2 0
      vertex 3.4641016151377544 2 0
      vertex 3.695518130045147 1.5307337294603591 0
    endloop
  endfacet
  facet normal 0.9978589232386035 0.0654031292301433 0
    outer loop
      vertex 4 0 0
      vertex 3.9657794454952415 0.5221047688802063 0
      vertex 4 0 6.3
    endloop
  endfacet
  facet normal 0.9807852804032304 0.19509032201612786 0
    outer loop
      vertex 3.9657794454952415 0.5221047688802063 0
      vertex 3.8637033051562732 1.035276180410083 0
      vertex 3.9657794454952415 0.5221047688802063 6.3
    endloop
  endfacet
  facet normal 0.9469301294951056 0.3214394653031618 0
    outer loop
      vertex 3.8637033051562732 1.035276180410083 0
      vertex 3.695518130045147 1.5307337294603591 0
      vertex 3.8637033051562732 1.035276180410083 6.3
    endloop
  endfacet
  facet normal 0.8968727415326881 0.4422886902190015 0
    outer loop
      vertex 3.695518130045147 1.5307337294603591 0
      vertex 3.4641016151377544 2 0
      vertex 3.695518130045147 1.5307337294603591 6.3
    endloop
  endfacet
  facet normal 0.555570233019602 0.8314696123025455 0
    outer loop
      vertex 2 3.4641016151377544 0
      vertex 2 3.4641016151377544 6.3
      vertex 2.4350457160348826 3.1734133611649407 0
    endloop
  endfacet
  facet normal 0.6593458151000685 0.7518398074789777 6.438037034875833e-19
    outer loop
      vertex 2.8284271247461903 2.8284271247461903 0
      vertex 2.4350457160348826 3.1734133611649407 0
      vertex 2.4350457160348826 3.1734133611649407 6.3
    endloop
  endfacet
  facet normal 0.8314696123025455 0.555570233019602 3.6904207611274935e-18
    outer loop
      vertex 3.1734133611649407 2.4350457160348826 0
      vertex 3.4641016151377544 2 6.3
      vertex 3.4641016151377544 2 0
    endloop
  endfacet
  facet normal 0.7518398074789777 0.6593458151000685 6.438037034875833e-19
    outer loop
      vertex 2.8284271247461903 2.8284271247461903 0
      vertex 3.1734133611649407 2.4350457160348826 6.3
      vertex 3.1734133611649407 2.4350457160348826 0
    endloop
  endfacet
  facet normal 0 0 1
    outer loop
      vertex 2 -3.4641016151377544 6.3
      vertex 1.5307337294603591 3.695518130045147 6.3
      vertex 1.7 0 6.3
    endloop
  endfacet
  facet normal 0 0 1
    outer loop
      vertex 1.5307337294603591 3.695518130045147 6.3
      vertex 1.3487006784950997 1.034894429314825 6.3
      vertex 1.4722431864335457 0.85 6.3
    endloop
  endfacet
  facet normal 0 0 1
    outer loop
      vertex 1.5307337294603591 3.695518130045147 6.3
      vertex 1.6420739046914161 0.43999237667428526 6.3
      vertex 1.6854562643354776 0.22189452677408766 6.3
    endloop
  endfacet
  facet normal 0 0 1
    outer loop
      vertex 1.5307337294603591 3.695518130045147 6.3
      vertex 1.6854562643354776 0.22189452677408766 6.3
      vertex 1.7 0 6.3
    endloop
  endfacet
  facet normal 0 0 1
    outer loop
      vertex 2 -3.4641016151377544 6.3
      vertex 2 3.4641016151377544 6.3
      vertex 1.5307337294603591 3.695518130045147 6.3
    endloop
  endfacet
  facet normal 0 0 1
    outer loop
      vertex 1.5307337294603591 3.695518130045147 6.3
      vertex 1.5705952052691874 0.6505618350206526 6.3
      vertex 1.6420739046914161 0.43999237667428526 6.3
    endloop
  endfacet
  facet normal 0 0 1
    outer loop
      vertex 1.5307337294603591 3.695518130045147 6.3
      vertex 1.4722431864335457 0.85 6.3
      vertex 1.5705952052691874 0.6505618350206526 6.3
    endloop
  endfacet
  facet normal 0.0654031292301433 0.9978589232386035 0
    outer loop
      vertex 0.5221047688802063 3.9657794454952415 0
      vertex 0 4 6.3
      vertex 0.5221047688802063 3.9657794454952415 6.3
    endloop
  endfacet
  facet normal 0.19509032201612786 0.9807852804032304 0
    outer loop
      vertex 1.035276180410083 3.8637033051562732 0
      vertex 0.5221047688802063 3.9657794454952415 6.3
      vertex 1.035276180410083 3.8637033051562732 6.3
    endloop
  endfacet
  facet normal 0.3214394653031618 0.9469301294951056 0
    outer loop
      vertex 1.5307337294603591 3.695518130045147 0
      vertex 1.035276180410083 3.8637033051562732 6.3
      vertex 1.5307337294603591 3.695518130045147 6.3
    endloop
  endfacet
  facet normal 0.4422886902190015 0.8968727415326881 0
    outer loop
      vertex 2 3.4641016151377544 0
      vertex 1.5307337294603591 3.695518130045147 6.3
      vertex 2 3.4641016151377544 6.3
    endloop
  endfacet
  facet normal 0 0 1
    outer loop
      vertex 0 4 6.3
      vertex 0 1.7 6.3
      vertex 0.22189452677408766 1.6854562643354776 6.3
    endloop
  endfacet
  facet normal 0 0 1
    outer loop
      vertex 0.5221047688802063 3.9657794454952415 6.3
      vertex 0.22189452677408766 1.6854562643354776 6.3
      vertex 0.43999237667428526 1.6420739046914161 6.3
    endloop
  endfacet
  facet normal 0 0 1
    outer loop
      vertex 0.5221047688802063 3.9657794454952415 6.3
      vertex 0.43999237667428526 1.6420739046914161 6.3
      vertex 0.6505618350206526 1.5705952052691874 6.3
    endloop
  endfacet
  facet normal 0 0 1
    outer loop
      vertex 0.5221047688802063 3.9657794454952415 6.3
      vertex 0.6505618350206526 1.5705952052691874 6.3
      vertex 0.85 1.4722431864335457 6.3
    endloop
  endfacet
  facet normal 0 0 1
    outer loop
      vertex 1.035276180410083 3.8637033051562732 6.3
      vertex 0.85 1.4722431864335457 6.3
      vertex 1.034894429314825 1.3487006784950997 6.3
    endloop
  endfacet
  facet normal 0 0 1
    outer loop
      vertex 0 4 6.3
      vertex 0.22189452677408766 1.6854562643354776 6.3
      vertex 0.5221047688802063 3.9657794454952415 6.3
    endloop
  endfacet
  facet normal 0 0 1
    outer loop
      vertex 0.5221047688802063 3.9657794454952415 6.3
      vertex 0.85 1.4722431864335457 6.3
      vertex 1.035276180410083 3.8637033051562732 6.3
    endloop
  endfacet
  facet normal 0 0 1
    outer loop
      vertex 1.035276180410083 3.8637033051562732 6.3
      vertex 1.034894429314825 1.3487006784950997 6.3
      vertex 1.2020815280171309 1.2020815280171309 6.3
    endloop
  endfacet
  facet normal 0 0 1
    outer loop
      vertex 1.035276180410083 3.8637033051562732 6.3
      vertex 1.2020815280171309 1.2020815280171309 6.3
      vertex 1.3487006784950997 1.034894429314825 6.3
    endloop
  endfacet
  facet normal 0 0 1
    outer loop
      vertex 1.035276180410083 3.8637033051562732 6.3
      vertex 1.3487006784950997 1.034894429314825 6.3
      vertex 1.5307337294603591 3.695518130045147 6.3
    endloop
  endfacet
  facet normal 0.9978589232386035 0.0654031292301433 0
    outer loop
      vertex 3.9657794454952415 0.5221047688802063 0
      vertex 3.9657794454952415 0.5221047688802063 6.3
      vertex 4 0 6.3
    endloop
  endfacet
  facet normal 0.9807852804032304 0.19509032201612786 0
    outer loop
      vertex 3.8637033051562732 1.035276180410083 0
      vertex 3.8637033051562732 1.035276180410083 6.3
      vertex 3.9657794454952415 0.5221047688802063 6.3
    endloop
  endfacet
  facet normal 0.9469301294951056 0.3214394653031618 0
    outer loop
      vertex 3.695518130045147 1.5307337294603591 0
      vertex 3.695518130045147 1.5307337294603591 6.3
      vertex 3.8637033051562732 1.035276180410083 6.3
    endloop
  endfacet
  facet normal 0.8968727415326881 0.4422886902190015 0
    outer loop
      vertex 3.4641016151377544 2 0
      vertex 3.4641016151377544 2 6.3
      vertex 3.695518130045147 1.5307337294603591 6.3
    endloop
  endfacet
  facet normal 0 0 1
    outer loop
      vertex 2.4350457160348826 -3.1734133611649407 6.3
      vertex 2.4350457160348826 3.1734133611649407 6.3
      vertex 2 3.4641016151377544 6.3
    endloop
  endfacet
  facet normal 0 0 1
    outer loop
      vertex 2.8284271247461903 -2.8284271247461903 6.3
      vertex 2.8284271247461903 2.8284271247461903 6.3
      vertex 2.4350457160348826 3.1734133611649407 6.3
    endloop
  endfacet
  facet normal 0 0 1
    outer loop
      vertex 3.1734133611649407 -2.4350457160348826 6.3
      vertex 3.1734133611649407 2.4350457160348826 6.3
      vertex 2.8284271247461903 2.8284271247461903 6.3
    endloop
  endfacet
  facet normal 0 0 1
    outer loop
      vertex 3.4641016151377544 -2 6.3
      vertex 3.4641016151377544 2 6.3
      vertex 3.1734133611649407 2.4350457160348826 6.3
    endloop
  endfacet
  facet normal 0 0 1
    outer loop
      vertex 3.9657794454952415 -0.5221047688802063 6.3
      vertex 4 0 6.3
      vertex 3.9657794454952415 0.5221047688802063 6.3
    endloop
  endfacet
  facet normal 0 0 1
    outer loop
      vertex 3.9657794454952415 -0.5221047688802063 6.3
      vertex 3.9657794454952415 0.5221047688802063 6.3
      vertex 3.8637033051562732 1.035276180410083 6.3
    endloop
  endfacet
  facet normal 0 0 1
    outer loop
      vertex 3.695518130045147 -1.5307337294603591 6.3
      vertex 3.695518130045147 1.5307337294603591 6.3
      vertex 3.4641016151377544 2 6.3
    endloop
  endfacet
  facet normal 0 0 1
    outer loop
      vertex 3.8637033051562732 -1.035276180410083 6.3
      vertex 3.8637033051562732 1.035276180410083 6.3
      vertex 3.695518130045147 1.5307337294603591 6.3
    endloop
  endfacet
  facet normal 0.6593458151000685 0.7518398074789777 0
    outer loop
      vertex 2.8284271247461903 2.8284271247461903 0
      vertex 2.4350457160348826 3.1734133611649407 6.3
      vertex 2.8284271247461903 2.8284271247461903 6.3
    endloop
  endfacet
  facet normal 0.7518398074789777 0.6593458151000685 0
    outer loop
      vertex 2.8284271247461903 2.8284271247461903 0
      vertex 2.8284271247461903 2.8284271247461903 6.3
      vertex 3.1734133611649407 2.4350457160348826 6.3
    endloop
  endfacet
  facet normal 0.555570233019602 0.8314696123025455 0
    outer loop
      vertex 2.4350457160348826 3.1734133611649407 0
      vertex 2 3.4641016151377544 6.3
      vertex 2.4350457160348826 3.1734133611649407 6.3
    endloop
  endfacet
  facet normal 0.8314696123025455 0.555570233019602 0
    outer loop
      vertex 3.1734133611649407 2.4350457160348826 0
      vertex 3.1734133611649407 2.4350457160348826 6.3
      vertex 3.4641016151377544 2 6.3
    endloop
  endfacet
  facet normal 0.7518398074789782 0.6593458151000681 -3.01117861436951e-20
    outer loop
      vertex -1.2020815280171309 -1.2020815280171309 0
      vertex -1.3487006784950997 -1.034894429314825 0
      vertex -1.3487006784950997 -1.034894429314825 6.3
    endloop
  endfacet
  facet normal 0.6593458151000681 0.7518398074789782 0
    outer loop
      vertex -1.2020815280171309 -1.2020815280171309 0
      vertex -1.2020815280171309 -1.2020815280171309 6.3
      vertex -1.034894429314825 -1.3487006784950997 0
    endloop
  endfacet
  facet normal 0.8968727415326886 0.442288690219001 6.118704374220534e-19
    outer loop
      vertex -1.4722431864335457 -0.85 0
      vertex -1.5705952052691874 -0.6505618350206526 0
      vertex -1.5705952052691874 -0.6505618350206526 6.3
    endloop
  endfacet
  facet normal 0.9469301294951056 0.3214394653031621 3.363615438731405e-19
    outer loop
      vertex -1.5705952052691874 -0.6505618350206526 0
      vertex -1.6420739046914161 -0.43999237667428526 0
      vertex -1.6420739046914161 -0.43999237667428526 6.3
    endloop
  endfacet
  facet normal 0.9807852804032307 0.19509032201612758 -2.8048576116037917e-19
    outer loop
      vertex -1.6420739046914161 -0.43999237667428526 0
      vertex -1.6854562643354776 -0.22189452677408766 0
      vertex -1.6854562643354776 -0.22189452677408766 6.3
    endloop
  endfacet
  facet normal 0.9978589232386035 0.06540312923014345 -2.9738510910429637e-20
    outer loop
      vertex -1.6854562643354776 -0.22189452677408766 0
      vertex -1.7 0 0
      vertex -1.7 0 6.3
    endloop
  endfacet
  facet normal 0.831469612302545 0.5555702330196026 -8.806204492624113e-19
    outer loop
      vertex -1.3487006784950997 -1.034894429314825 0
      vertex -1.4722431864335457 -0.85 0
      vertex -1.4722431864335457 -0.85 6.3
    endloop
  endfacet
  facet normal 0.442288690219001 0.8968727415326886 0
    outer loop
      vertex -0.85 -1.4722431864335457 0
      vertex -0.85 -1.4722431864335457 6.3
      vertex -0.6505618350206526 -1.5705952052691874 0
    endloop
  endfacet
  facet normal 0.3214394653031621 0.9469301294951056 0
    outer loop
      vertex -0.6505618350206526 -1.5705952052691874 0
      vertex -0.6505618350206526 -1.5705952052691874 6.3
      vertex -0.43999237667428526 -1.6420739046914161 0
    endloop
  endfacet
  facet normal 0.5555702330196026 0.831469612302545 0
    outer loop
      vertex -1.034894429314825 -1.3487006784950997 6.3
      vertex -0.85 -1.4722431864335457 0
      vertex -1.034894429314825 -1.3487006784950997 0
    endloop
  endfacet
  facet normal 0.19509032201612758 0.9807852804032307 0
    outer loop
      vertex -0.43999237667428526 -1.6420739046914161 6.3
      vertex -0.22189452677408766 -1.6854562643354776 0
      vertex -0.43999237667428526 -1.6420739046914161 0
    endloop
  endfacet
  facet normal 0.06540312923014345 0.9978589232386035 0
    outer loop
      vertex -0.22189452677408766 -1.6854562643354776 0
      vertex -0.22189452677408766 -1.6854562643354776 6.3
      vertex 0 -1.7 0
    endloop
  endfacet
  facet normal 0.7518398074789782 0.6593458151000681 -3.01117861436951e-20
    outer loop
      vertex -1.3487006784950997 -1.034894429314825 6.3
      vertex -1.2020815280171309 -1.2020815280171309 6.3
      vertex -1.2020815280171309 -1.2020815280171309 0
    endloop
  endfacet
  facet normal 0.6593458151000681 0.7518398074789782 -3.01117861436951e-20
    outer loop
      vertex -1.2020815280171309 -1.2020815280171309 6.3
      vertex -1.034894429314825 -1.3487006784950997 6.3
      vertex -1.034894429314825 -1.3487006784950997 0
    endloop
  endfacet
  facet normal 0.8968727415326886 0.442288690219001 6.118704374220534e-19
    outer loop
      vertex -1.5705952052691874 -0.6505618350206526 6.3
      vertex -1.4722431864335457 -0.85 6.3
      vertex -1.4722431864335457 -0.85 0
    endloop
  endfacet
  facet normal 0.9469301294951056 0.3214394653031621 0
    outer loop
      vertex -1.5705952052691874 -0.6505618350206526 0
      vertex -1.6420739046914161 -0.43999237667428526 6.3
      vertex -1.5705952052691874 -0.6505618350206526 6.3
    endloop
  endfacet
  facet normal 0.9807852804032307 0.19509032201612758 0
    outer loop
      vertex -1.6420739046914161 -0.43999237667428526 0
      vertex -1.6854562643354776 -0.22189452677408766 6.3
      vertex -1.6420739046914161 -0.43999237667428526 6.3
    endloop
  endfacet
  facet normal 0.9978589232386035 0.06540312923014345 0
    outer loop
      vertex -1.6854562643354776 -0.22189452677408766 0
      vertex -1.7 0 6.3
      vertex -1.6854562643354776 -0.22189452677408766 6.3
    endloop
  endfacet
  facet normal 0.831469612302545 0.5555702330196026 0
    outer loop
      vertex -1.3487006784950997 -1.034894429314825 0
      vertex -1.4722431864335457 -0.85 6.3
      vertex -1.3487006784950997 -1.034894429314825 6.3
    endloop
  endfacet
  facet normal 0.442288690219001 0.8968727415326886 0
    outer loop
      vertex -0.6505618350206526 -1.5705952052691874 0
      vertex -0.85 -1.4722431864335457 6.3
      vertex -0.6505618350206526 -1.5705952052691874 6.3
    endloop
  endfacet
  facet normal 0.3214394653031621 0.9469301294951056 0
    outer loop
      vertex -0.43999237667428526 -1.6420739046914161 6.3
      vertex -0.43999237667428526 -1.6420739046914161 0
      vertex -0.6505618350206526 -1.5705952052691874 6.3
    endloop
  endfacet
  facet normal 0.5555702330196026 0.831469612302545 0
    outer loop
      vertex -0.85 -1.4722431864335457 0
      vertex -1.034894429314825 -1.3487006784950997 6.3
      vertex -0.85 -1.4722431864335457 6.3
    endloop
  endfacet
  facet normal 0.19509032201612758 0.9807852804032307 0
    outer loop
      vertex -0.22189452677408766 -1.6854562643354776 0
      vertex -0.43999237667428526 -1.6420739046914161 6.3
      vertex -0.22189452677408766 -1.6854562643354776 6.3
    endloop
  endfacet
  facet normal 0.06540312923014345 0.9978589232386035 0
    outer loop
      vertex 0 -1.7 0
      vertex -0.22189452677408766 -1.6854562643354776 6.3
      vertex 0 -1.7 6.3
    endloop
  endfacet
  facet normal 0.9978589232386035 -0.06540312923014345 2.9738510910429637e-20
    outer loop
      vertex -1.7 0 0
      vertex -1.6854562643354776 0.22189452677408766 0
      vertex -1.6854562643354776 0.22189452677408766 6.3
    endloop
  endfacet
  facet normal 0.9807852804032307 -0.19509032201612758 2.8048576116037917e-19
    outer loop
      vertex -1.6854562643354776 0.22189452677408766 0
      vertex -1.6420739046914161 0.43999237667428526 0
      vertex -1.6420739046914161 0.43999237667428526 6.3
    endloop
  endfacet
  facet normal 0.9469301294951056 -0.3214394653031621 -3.363615438731405e-19
    outer loop
      vertex -1.6420739046914161 0.43999237667428526 0
      vertex -1.5705952052691874 0.6505618350206526 0
      vertex -1.5705952052691874 0.6505618350206526 6.3
    endloop
  endfacet
  facet normal 0.8968727415326886 -0.442288690219001 -6.118704374220534e-19
    outer loop
      vertex -1.5705952052691874 0.6505618350206526 0
      vertex -1.4722431864335457 0.85 0
      vertex -1.4722431864335457 0.85 6.3
    endloop
  endfacet
  facet normal 0.831469612302545 -0.5555702330196026 8.806204492624113e-19
    outer loop
      vertex -1.4722431864335457 0.85 0
      vertex -1.3487006784950997 1.034894429314825 0
      vertex -1.3487006784950997 1.034894429314825 6.3
    endloop
  endfacet
  facet normal 0.7518398074789782 -0.6593458151000681 3.01117861436951e-20
    outer loop
      vertex -1.3487006784950997 1.034894429314825 0
      vertex -1.2020815280171309 1.2020815280171309 0
      vertex -1.2020815280171309 1.2020815280171309 6.3
    endloop
  endfacet
  facet normal 0.6593458151000681 -0.7518398074789782 3.01117861436951e-20
    outer loop
      vertex -1.2020815280171309 1.2020815280171309 0
      vertex -1.034894429314825 1.3487006784950997 0
      vertex -1.034894429314825 1.3487006784950997 6.3
    endloop
  endfacet
  facet normal 0.5555702330196026 -0.831469612302545 0
    outer loop
      vertex -0.85 1.4722431864335457 0
      vertex -0.85 1.4722431864335457 6.3
      vertex -1.034894429314825 1.3487006784950997 0
    endloop
  endfacet
  facet normal 0.442288690219001 -0.8968727415326886 0
    outer loop
      vertex -0.6505618350206526 1.5705952052691874 0
      vertex -0.6505618350206526 1.5705952052691874 6.3
      vertex -0.85 1.4722431864335457 0
    endloop
  endfacet
  facet normal 0.3214394653031621 -0.9469301294951056 0
    outer loop
      vertex -0.43999237667428526 1.6420739046914161 6.3
      vertex -0.6505618350206526 1.5705952052691874 0
      vertex -0.43999237667428526 1.6420739046914161 0
    endloop
  endfacet
  facet normal 0.19509032201612758 -0.9807852804032307 0
    outer loop
      vertex -0.22189452677408766 1.6854562643354776 0
      vertex -0.22189452677408766 1.6854562643354776 6.3
      vertex -0.43999237667428526 1.6420739046914161 0
    endloop
  endfacet
  facet normal 0.06540312923014345 -0.9978589232386035 2.9738510910429637e-20
    outer loop
      vertex -0.22189452677408766 1.6854562643354776 0
      vertex 0 1.7 0
      vertex 0 1.7 6.3
    endloop
  endfacet
  facet normal 0.9978589232386035 -0.06540312923014345 0
    outer loop
      vertex -1.7 0 0
      vertex -1.6854562643354776 0.22189452677408766 6.3
      vertex -1.7 0 6.3
    endloop
  endfacet
  facet normal 0.9807852804032307 -0.19509032201612758 0
    outer loop
      vertex -1.6854562643354776 0.22189452677408766 0
      vertex -1.6420739046914161 0.43999237667428526 6.3
      vertex -1.6854562643354776 0.22189452677408766 6.3
    endloop
  endfacet
  facet normal 0.9469301294951056 -0.3214394653031621 0
    outer loop
      vertex -1.6420739046914161 0.43999237667428526 0
      vertex -1.5705952052691874 0.6505618350206526 6.3
      vertex -1.6420739046914161 0.43999237667428526 6.3
    endloop
  endfacet
  facet normal 0.8968727415326886 -0.442288690219001 -6.118704374220534e-19
    outer loop
      vertex -1.4722431864335457 0.85 6.3
      vertex -1.5705952052691874 0.6505618350206526 6.3
      vertex -1.5705952052691874 0.6505618350206526 0
    endloop
  endfacet
  facet normal 0.831469612302545 -0.5555702330196026 8.806204492624113e-19
    outer loop
      vertex -1.3487006784950997 1.034894429314825 6.3
      vertex -1.4722431864335457 0.85 6.3
      vertex -1.4722431864335457 0.85 0
    endloop
  endfacet
  facet normal 0.7518398074789782 -0.6593458151000681 0
    outer loop
      vertex -1.3487006784950997 1.034894429314825 0
      vertex -1.2020815280171309 1.2020815280171309 6.3
      vertex -1.3487006784950997 1.034894429314825 6.3
    endloop
  endfacet
  facet normal 0.6593458151000681 -0.7518398074789782 0
    outer loop
      vertex -1.2020815280171309 1.2020815280171309 0
      vertex -1.034894429314825 1.3487006784950997 6.3
      vertex -1.2020815280171309 1.2020815280171309 6.3
    endloop
  endfacet
  facet normal 0.5555702330196026 -0.831469612302545 0
    outer loop
      vertex -1.034894429314825 1.3487006784950997 6.3
      vertex -1.034894429314825 1.3487006784950997 0
      vertex -0.85 1.4722431864335457 6.3
    endloop
  endfacet
  facet normal 0.442288690219001 -0.8968727415326886 0
    outer loop
      vertex -0.85 1.4722431864335457 0
      vertex -0.6505618350206526 1.5705952052691874 6.3
      vertex -0.85 1.4722431864335457 6.3
    endloop
  endfacet
  facet normal 0.3214394653031621 -0.9469301294951056 0
    outer loop
      vertex -0.6505618350206526 1.5705952052691874 0
      vertex -0.43999237667428526 1.6420739046914161 6.3
      vertex -0.6505618350206526 1.5705952052691874 6.3
    endloop
  endfacet
  facet normal 0.19509032201612758 -0.9807852804032307 0
    outer loop
      vertex -0.43999237667428526 1.6420739046914161 6.3
      vertex -0.43999237667428526 1.6420739046914161 0
      vertex -0.22189452677408766 1.6854562643354776 6.3
    endloop
  endfacet
  facet normal 0.06540312923014345 -0.9978589232386035 2.9738510910429637e-20
    outer loop
      vertex 0 1.7 6.3
      vertex -0.22189452677408766 1.6854562643354776 6.3
      vertex -0.22189452677408766 1.6854562643354776 0
    endloop
  endfacet
  facet normal -0.06540312923014345 0.9978589232386035 0
    outer loop
      vertex 0 -1.7 6.3
      vertex 0.22189452677408766 -1.6854562643354776 0
      vertex 0 -1.7 0
    endloop
  endfacet
  facet normal -0.19509032201612758 0.9807852804032307 0
    outer loop
      vertex 0.22189452677408766 -1.6854562643354776 0
      vertex 0.22189452677408766 -1.6854562643354776 6.3
      vertex 0.43999237667428526 -1.6420739046914161 0
    endloop
  endfacet
  facet normal -0.3214394653031621 0.9469301294951056 0
    outer loop
      vertex 0.43999237667428526 -1.6420739046914161 0
      vertex 0.43999237667428526 -1.6420739046914161 6.3
      vertex 0.6505618350206526 -1.5705952052691874 0
    endloop
  endfacet
  facet normal -0.442288690219001 0.8968727415326886 0
    outer loop
      vertex 0.6505618350206526 -1.5705952052691874 6.3
      vertex 0.85 -1.4722431864335457 0
      vertex 0.6505618350206526 -1.5705952052691874 0
    endloop
  endfacet
  facet normal -0.5555702330196026 0.831469612302545 0
    outer loop
      vertex 0.85 -1.4722431864335457 0
      vertex 0.85 -1.4722431864335457 6.3
      vertex 1.034894429314825 -1.3487006784950997 0
    endloop
  endfacet
  facet normal -0.6593458151000681 0.7518398074789782 3.01117861436951e-20
    outer loop
      vertex 1.2020815280171309 -1.2020815280171309 0
      vertex 1.034894429314825 -1.3487006784950997 0
      vertex 1.034894429314825 -1.3487006784950997 6.3
    endloop
  endfacet
  facet normal -0.7518398074789782 0.6593458151000681 3.01117861436951e-20
    outer loop
      vertex 1.3487006784950997 -1.034894429314825 0
      vertex 1.2020815280171309 -1.2020815280171309 0
      vertex 1.2020815280171309 -1.2020815280171309 6.3
    endloop
  endfacet
  facet normal -0.831469612302545 0.5555702330196026 8.806204492624113e-19
    outer loop
      vertex 1.4722431864335457 -0.85 0
      vertex 1.3487006784950997 -1.034894429314825 0
      vertex 1.3487006784950997 -1.034894429314825 6.3
    endloop
  endfacet
  facet normal -0.8968727415326886 0.442288690219001 -6.118704374220534e-19
    outer loop
      vertex 1.5705952052691874 -0.6505618350206526 0
      vertex 1.4722431864335457 -0.85 0
      vertex 1.4722431864335457 -0.85 6.3
    endloop
  endfacet
  facet normal -0.9469301294951056 0.3214394653031621 0
    outer loop
      vertex 1.5705952052691874 -0.6505618350206526 6.3
      vertex 1.6420739046914161 -0.43999237667428526 0
      vertex 1.5705952052691874 -0.6505618350206526 0
    endloop
  endfacet
  facet normal -0.9807852804032307 0.19509032201612758 0
    outer loop
      vertex 1.6420739046914161 -0.43999237667428526 6.3
      vertex 1.6854562643354776 -0.22189452677408766 0
      vertex 1.6420739046914161 -0.43999237667428526 0
    endloop
  endfacet
  facet normal -0.9978589232386035 0.06540312923014345 0
    outer loop
      vertex 1.6854562643354776 -0.22189452677408766 0
      vertex 1.6854562643354776 -0.22189452677408766 6.3
      vertex 1.7 0 0
    endloop
  endfacet
  facet normal -0.06540312923014345 0.9978589232386035 0
    outer loop
      vertex 0.22189452677408766 -1.6854562643354776 0
      vertex 0 -1.7 6.3
      vertex 0.22189452677408766 -1.6854562643354776 6.3
    endloop
  endfacet
  facet normal -0.19509032201612758 0.9807852804032307 0
    outer loop
      vertex 0.43999237667428526 -1.6420739046914161 0
      vertex 0.22189452677408766 -1.6854562643354776 6.3
      vertex 0.43999237667428526 -1.6420739046914161 6.3
    endloop
  endfacet
  facet normal -0.3214394653031621 0.9469301294951056 0
    outer loop
      vertex 0.6505618350206526 -1.5705952052691874 6.3
      vertex 0.6505618350206526 -1.5705952052691874 0
      vertex 0.43999237667428526 -1.6420739046914161 6.3
    endloop
  endfacet
  facet normal -0.442288690219001 0.8968727415326886 0
    outer loop
      vertex 0.85 -1.4722431864335457 0
      vertex 0.6505618350206526 -1.5705952052691874 6.3
      vertex 0.85 -1.4722431864335457 6.3
    endloop
  endfacet
  facet normal -0.5555702330196026 0.831469612302545 0
    outer loop
      vertex 1.034894429314825 -1.3487006784950997 0
      vertex 0.85 -1.4722431864335457 6.3
      vertex 1.034894429314825 -1.3487006784950997 6.3
    endloop
  endfacet
  facet normal -0.6593458151000681 0.7518398074789782 0
    outer loop
      vertex 1.2020815280171309 -1.2020815280171309 6.3
      vertex 1.2020815280171309 -1.2020815280171309 0
      vertex 1.034894429314825 -1.3487006784950997 6.3
    endloop
  endfacet
  facet normal -0.7518398074789782 0.6593458151000681 0
    outer loop
      vertex 1.3487006784950997 -1.034894429314825 0
      vertex 1.2020815280171309 -1.2020815280171309 6.3
      vertex 1.3487006784950997 -1.034894429314825 6.3
    endloop
  endfacet
  facet normal -0.831469612302545 0.5555702330196026 8.806204492624113e-19
    outer loop
      vertex 1.3487006784950997 -1.034894429314825 6.3
      vertex 1.4722431864335457 -0.85 6.3
      vertex 1.4722431864335457 -0.85 0
    endloop
  endfacet
  facet normal -0.8968727415326886 0.442288690219001 -6.118704374220534e-19
    outer loop
      vertex 1.4722431864335457 -0.85 6.3
      vertex 1.5705952052691874 -0.6505618350206526 6.3
      vertex 1.5705952052691874 -0.6505618350206526 0
    endloop
  endfacet
  facet normal -0.9469301294951056 0.3214394653031621 -3.363615438731405e-19
    outer loop
      vertex 1.5705952052691874 -0.6505618350206526 6.3
      vertex 1.6420739046914161 -0.43999237667428526 6.3
      vertex 1.6420739046914161 -0.43999237667428526 0
    endloop
  endfacet
  facet normal -0.9807852804032307 0.19509032201612758 2.8048576116037917e-19
    outer loop
      vertex 1.6420739046914161 -0.43999237667428526 6.3
      vertex 1.6854562643354776 -0.22189452677408766 6.3
      vertex 1.6854562643354776 -0.22189452677408766 0
    endloop
  endfacet
  facet normal -0.9978589232386035 0.06540312923014345 2.9738510910429637e-20
    outer loop
      vertex 1.6854562643354776 -0.22189452677408766 6.3
      vertex 1.7 0 6.3
      vertex 1.7 0 0
    endloop
  endfacet
  facet normal -0.06540312923014345 -0.9978589232386035 0
    outer loop
      vertex 0.22189452677408766 1.6854562643354776 0
      vertex 0.22189452677408766 1.6854562643354776 6.3
      vertex 0 1.7 0
    endloop
  endfacet
  facet normal -0.19509032201612758 -0.9807852804032307 0
    outer loop
      vertex 0.43999237667428526 1.6420739046914161 0
      vertex 0.43999237667428526 1.6420739046914161 6.3
      vertex 0.22189452677408766 1.6854562643354776 0
    endloop
  endfacet
  facet normal -0.5555702330196026 -0.831469612302545 0
    outer loop
      vertex 1.034894429314825 1.3487006784950997 0
      vertex 1.034894429314825 1.3487006784950997 6.3
      vertex 0.85 1.4722431864335457 0
    endloop
  endfacet
  facet normal -0.3214394653031621 -0.9469301294951056 0
    outer loop
      vertex 0.6505618350206526 1.5705952052691874 6.3
      vertex 0.43999237667428526 1.6420739046914161 0
      vertex 0.6505618350206526 1.5705952052691874 0
    endloop
  endfacet
  facet normal -0.442288690219001 -0.8968727415326886 0
    outer loop
      vertex 0.85 1.4722431864335457 0
      vertex 0.85 1.4722431864335457 6.3
      vertex 0.6505618350206526 1.5705952052691874 0
    endloop
  endfacet
  facet normal -0.831469612302545 -0.5555702330196026 -8.806204492624113e-19
    outer loop
      vertex 1.3487006784950997 1.034894429314825 0
      vertex 1.4722431864335457 0.85 0
      vertex 1.4722431864335457 0.85 6.3
    endloop
  endfacet
  facet normal -0.9978589232386035 -0.06540312923014345 0
    outer loop
      vertex 1.7 0 0
      vertex 1.7 0 6.3
      vertex 1.6854562643354776 0.22189452677408766 0
    endloop
  endfacet
  facet normal -0.9807852804032307 -0.19509032201612758 0
    outer loop
      vertex 1.6854562643354776 0.22189452677408766 6.3
      vertex 1.6420739046914161 0.43999237667428526 0
      vertex 1.6854562643354776 0.22189452677408766 0
    endloop
  endfacet
  facet normal -0.9469301294951056 -0.3214394653031621 0
    outer loop
      vertex 1.6420739046914161 0.43999237667428526 6.3
      vertex 1.5705952052691874 0.6505618350206526 0
      vertex 1.6420739046914161 0.43999237667428526 0
    endloop
  endfacet
  facet normal -0.8968727415326886 -0.442288690219001 6.118704374220534e-19
    outer loop
      vertex 1.4722431864335457 0.85 0
      vertex 1.5705952052691874 0.6505618350206526 0
      vertex 1.5705952052691874 0.6505618350206526 6.3
    endloop
  endfacet
  facet normal -0.6593458151000681 -0.7518398074789782 -3.01117861436951e-20
    outer loop
      vertex 1.034894429314825 1.3487006784950997 0
      vertex 1.2020815280171309 1.2020815280171309 0
      vertex 1.2020815280171309 1.2020815280171309 6.3
    endloop
  endfacet
  facet normal -0.7518398074789782 -0.6593458151000681 -3.01117861436951e-20
    outer loop
      vertex 1.2020815280171309 1.2020815280171309 0
      vertex 1.3487006784950997 1.034894429314825 0
      vertex 1.3487006784950997 1.034894429314825 6.3
    endloop
  endfacet
  facet normal -0.06540312923014345 -0.9978589232386035 0
    outer loop
      vertex 0 1.7 6.3
      vertex 0 1.7 0
      vertex 0.22189452677408766 1.6854562643354776 6.3
    endloop
  endfacet
  facet normal -0.19509032201612758 -0.9807852804032307 0
    outer loop
      vertex 0.22189452677408766 1.6854562643354776 0
      vertex 0.43999237667428526 1.6420739046914161 6.3
      vertex 0.22189452677408766 1.6854562643354776 6.3
    endloop
  endfacet
  facet normal -0.5555702330196026 -0.831469612302545 0
    outer loop
      vertex 0.85 1.4722431864335457 0
      vertex 1.034894429314825 1.3487006784950997 6.3
      vertex 0.85 1.4722431864335457 6.3
    endloop
  endfacet
  facet normal -0.3214394653031621 -0.9469301294951056 0
    outer loop
      vertex 0.43999237667428526 1.6420739046914161 0
      vertex 0.6505618350206526 1.5705952052691874 6.3
      vertex 0.43999237667428526 1.6420739046914161 6.3
    endloop
  endfacet
  facet normal -0.442288690219001 -0.8968727415326886 0
    outer loop
      vertex 0.6505618350206526 1.5705952052691874 6.3
      vertex 0.6505618350206526 1.5705952052691874 0
      vertex 0.85 1.4722431864335457 6.3
    endloop
  endfacet
  facet normal -0.831469612302545 -0.5555702330196026 0
    outer loop
      vertex 1.3487006784950997 1.034894429314825 0
      vertex 1.4722431864335457 0.85 6.3
      vertex 1.3487006784950997 1.034894429314825 6.3
    endloop
  endfacet
  facet normal -0.9978589232386035 -0.06540312923014345 -2.9738510910429637e-20
    outer loop
      vertex 1.7 0 6.3
      vertex 1.6854562643354776 0.22189452677408766 6.3
      vertex 1.6854562643354776 0.22189452677408766 0
    endloop
  endfacet
  facet normal -0.9807852804032307 -0.19509032201612758 -2.8048576116037917e-19
    outer loop
      vertex 1.6854562643354776 0.22189452677408766 6.3
      vertex 1.6420739046914161 0.43999237667428526 6.3
      vertex 1.6420739046914161 0.43999237667428526 0
    endloop
  endfacet
  facet normal -0.9469301294951056 -0.3214394653031621 3.363615438731405e-19
    outer loop
      vertex 1.6420739046914161 0.43999237667428526 6.3
      vertex 1.5705952052691874 0.6505618350206526 6.3
      vertex 1.5705952052691874 0.6505618350206526 0
    endloop
  endfacet
  facet normal -0.8968727415326886 -0.442288690219001 6.118704374220534e-19
    outer loop
      vertex 1.5705952052691874 0.6505618350206526 6.3
      vertex 1.4722431864335457 0.85 6.3
      vertex 1.4722431864335457 0.85 0
    endloop
  endfacet
  facet normal -0.6593458151000681 -0.7518398074789782 -3.01117861436951e-20
    outer loop
      vertex 1.2020815280171309 1.2020815280171309 6.3
      vertex 1.034894429314825 1.3487006784950997 6.3
      vertex 1.034894429314825 1.3487006784950997 0
    endloop
  endfacet
  facet normal -0.7518398074789782 -0.6593458151000681 -3.01117861436951e-20
    outer loop
      vertex 1.3487006784950997 1.034894429314825 6.3
      vertex 1.2020815280171309 1.2020815280171309 6.3
      vertex 1.2020815280171309 1.2020815280171309 0
    endloop
  endfacet
endsolid OpenSCAD_Model
